G04 #@! TF.GenerationSoftware,KiCad,Pcbnew,8.0.1*
G04 #@! TF.CreationDate,2024-05-05T00:07:08+03:00*
G04 #@! TF.ProjectId,esc,6573632e-6b69-4636-9164-5f7063625858,rev?*
G04 #@! TF.SameCoordinates,Original*
G04 #@! TF.FileFunction,Legend,Top*
G04 #@! TF.FilePolarity,Positive*
%FSLAX46Y46*%
G04 Gerber Fmt 4.6, Leading zero omitted, Abs format (unit mm)*
G04 Created by KiCad (PCBNEW 8.0.1) date 2024-05-05 00:07:08*
%MOMM*%
%LPD*%
G01*
G04 APERTURE LIST*
G04 Aperture macros list*
%AMRoundRect*
0 Rectangle with rounded corners*
0 $1 Rounding radius*
0 $2 $3 $4 $5 $6 $7 $8 $9 X,Y pos of 4 corners*
0 Add a 4 corners polygon primitive as box body*
4,1,4,$2,$3,$4,$5,$6,$7,$8,$9,$2,$3,0*
0 Add four circle primitives for the rounded corners*
1,1,$1+$1,$2,$3*
1,1,$1+$1,$4,$5*
1,1,$1+$1,$6,$7*
1,1,$1+$1,$8,$9*
0 Add four rect primitives between the rounded corners*
20,1,$1+$1,$2,$3,$4,$5,0*
20,1,$1+$1,$4,$5,$6,$7,0*
20,1,$1+$1,$6,$7,$8,$9,0*
20,1,$1+$1,$8,$9,$2,$3,0*%
G04 Aperture macros list end*
%ADD10C,0.120000*%
%ADD11C,0.100000*%
%ADD12C,0.250000*%
%ADD13C,0.150000*%
%ADD14C,0.200000*%
%ADD15C,0.127000*%
%ADD16C,0.152400*%
%ADD17C,0.010000*%
%ADD18R,0.900000X0.240000*%
%ADD19R,0.240000X0.900000*%
%ADD20R,1.400000X0.900000*%
%ADD21RoundRect,0.200000X-0.200000X-0.275000X0.200000X-0.275000X0.200000X0.275000X-0.200000X0.275000X0*%
%ADD22RoundRect,0.225000X-0.250000X0.225000X-0.250000X-0.225000X0.250000X-0.225000X0.250000X0.225000X0*%
%ADD23RoundRect,0.135000X0.185000X-0.135000X0.185000X0.135000X-0.185000X0.135000X-0.185000X-0.135000X0*%
%ADD24RoundRect,0.250000X-1.075000X0.362500X-1.075000X-0.362500X1.075000X-0.362500X1.075000X0.362500X0*%
%ADD25RoundRect,0.250000X-0.475000X0.250000X-0.475000X-0.250000X0.475000X-0.250000X0.475000X0.250000X0*%
%ADD26RoundRect,0.135000X0.135000X0.185000X-0.135000X0.185000X-0.135000X-0.185000X0.135000X-0.185000X0*%
%ADD27RoundRect,0.218750X-0.381250X0.218750X-0.381250X-0.218750X0.381250X-0.218750X0.381250X0.218750X0*%
%ADD28RoundRect,0.140000X-0.170000X0.140000X-0.170000X-0.140000X0.170000X-0.140000X0.170000X0.140000X0*%
%ADD29C,1.959000*%
%ADD30R,1.400000X1.200000*%
%ADD31RoundRect,0.135000X-0.135000X-0.185000X0.135000X-0.185000X0.135000X0.185000X-0.135000X0.185000X0*%
%ADD32RoundRect,0.250000X1.500000X1.000000X-1.500000X1.000000X-1.500000X-1.000000X1.500000X-1.000000X0*%
%ADD33R,1.700000X1.700000*%
%ADD34O,1.700000X1.700000*%
%ADD35RoundRect,0.250000X-0.250000X-0.475000X0.250000X-0.475000X0.250000X0.475000X-0.250000X0.475000X0*%
%ADD36RoundRect,0.225000X0.225000X0.250000X-0.225000X0.250000X-0.225000X-0.250000X0.225000X-0.250000X0*%
%ADD37RoundRect,0.225000X0.250000X-0.225000X0.250000X0.225000X-0.250000X0.225000X-0.250000X-0.225000X0*%
%ADD38RoundRect,0.225000X-0.225000X-0.250000X0.225000X-0.250000X0.225000X0.250000X-0.225000X0.250000X0*%
%ADD39R,0.850000X0.850000*%
%ADD40RoundRect,0.140000X0.170000X-0.140000X0.170000X0.140000X-0.170000X0.140000X-0.170000X-0.140000X0*%
%ADD41R,0.812800X0.660400*%
%ADD42RoundRect,0.218750X-0.218750X-0.256250X0.218750X-0.256250X0.218750X0.256250X-0.218750X0.256250X0*%
%ADD43RoundRect,0.062500X0.375000X0.062500X-0.375000X0.062500X-0.375000X-0.062500X0.375000X-0.062500X0*%
%ADD44RoundRect,0.062500X0.062500X0.375000X-0.062500X0.375000X-0.062500X-0.375000X0.062500X-0.375000X0*%
%ADD45R,3.100000X3.100000*%
%ADD46R,0.350000X0.600000*%
%ADD47R,1.700000X1.100000*%
%ADD48R,0.242473X0.809638*%
%ADD49R,0.809638X0.242473*%
%ADD50R,2.550000X2.550000*%
G04 APERTURE END LIST*
D10*
X66795000Y-64042500D02*
X66795000Y-62927500D01*
X84475000Y-35510000D02*
X84475000Y-36640000D01*
X85790000Y-66505000D02*
X85790000Y-65375000D01*
X70425000Y-66505000D02*
X70425000Y-65375000D01*
X56575000Y-62925000D02*
X69395000Y-62920000D01*
X82055000Y-35520000D02*
X82055000Y-36650000D01*
X83190000Y-66510000D02*
X83190000Y-65380000D01*
X64225000Y-64042500D02*
X64225000Y-62927500D01*
X76880000Y-35510000D02*
X76880000Y-36640000D01*
X86975000Y-35510000D02*
X86975000Y-36640000D01*
X73095000Y-66510000D02*
X73095000Y-65380000D01*
X56575000Y-64055000D02*
X56575000Y-62925000D01*
X59225000Y-64045000D02*
X59225000Y-62930000D01*
X89645000Y-35515000D02*
X89645000Y-36645000D01*
X89645000Y-36645000D02*
X74280000Y-36645000D01*
X61735000Y-64042500D02*
X61735000Y-62927500D01*
X74280000Y-35515000D02*
X74280000Y-36645000D01*
X69395000Y-64050000D02*
X69395000Y-62920000D01*
X78015000Y-66500000D02*
X78015000Y-65370000D01*
X80645000Y-66510000D02*
X80645000Y-65380000D01*
X75595000Y-66510000D02*
X75595000Y-65380000D01*
X70425000Y-65375000D02*
X85790000Y-65375000D01*
X79425000Y-35510000D02*
X79425000Y-36640000D01*
D11*
X83015789Y-36052466D02*
X83115789Y-36085800D01*
X83115789Y-36085800D02*
X83149122Y-36119133D01*
X83149122Y-36119133D02*
X83182455Y-36185800D01*
X83182455Y-36185800D02*
X83182455Y-36285800D01*
X83182455Y-36285800D02*
X83149122Y-36352466D01*
X83149122Y-36352466D02*
X83115789Y-36385800D01*
X83115789Y-36385800D02*
X83049122Y-36419133D01*
X83049122Y-36419133D02*
X82782455Y-36419133D01*
X82782455Y-36419133D02*
X82782455Y-35719133D01*
X82782455Y-35719133D02*
X83015789Y-35719133D01*
X83015789Y-35719133D02*
X83082455Y-35752466D01*
X83082455Y-35752466D02*
X83115789Y-35785800D01*
X83115789Y-35785800D02*
X83149122Y-35852466D01*
X83149122Y-35852466D02*
X83149122Y-35919133D01*
X83149122Y-35919133D02*
X83115789Y-35985800D01*
X83115789Y-35985800D02*
X83082455Y-36019133D01*
X83082455Y-36019133D02*
X83015789Y-36052466D01*
X83015789Y-36052466D02*
X82782455Y-36052466D01*
X83815789Y-36419133D02*
X83482455Y-36419133D01*
X83482455Y-36419133D02*
X83482455Y-35719133D01*
X99832455Y-53559133D02*
X99832455Y-52859133D01*
X99832455Y-52859133D02*
X100099122Y-52859133D01*
X100099122Y-52859133D02*
X100165789Y-52892466D01*
X100165789Y-52892466D02*
X100199122Y-52925800D01*
X100199122Y-52925800D02*
X100232455Y-52992466D01*
X100232455Y-52992466D02*
X100232455Y-53092466D01*
X100232455Y-53092466D02*
X100199122Y-53159133D01*
X100199122Y-53159133D02*
X100165789Y-53192466D01*
X100165789Y-53192466D02*
X100099122Y-53225800D01*
X100099122Y-53225800D02*
X99832455Y-53225800D01*
X100532455Y-53559133D02*
X100532455Y-52859133D01*
X100532455Y-53192466D02*
X100932455Y-53192466D01*
X100932455Y-53559133D02*
X100932455Y-52859133D01*
X101232455Y-53359133D02*
X101565788Y-53359133D01*
X101165788Y-53559133D02*
X101399122Y-52859133D01*
X101399122Y-52859133D02*
X101632455Y-53559133D01*
X101832455Y-53525800D02*
X101932455Y-53559133D01*
X101932455Y-53559133D02*
X102099122Y-53559133D01*
X102099122Y-53559133D02*
X102165788Y-53525800D01*
X102165788Y-53525800D02*
X102199122Y-53492466D01*
X102199122Y-53492466D02*
X102232455Y-53425800D01*
X102232455Y-53425800D02*
X102232455Y-53359133D01*
X102232455Y-53359133D02*
X102199122Y-53292466D01*
X102199122Y-53292466D02*
X102165788Y-53259133D01*
X102165788Y-53259133D02*
X102099122Y-53225800D01*
X102099122Y-53225800D02*
X101965788Y-53192466D01*
X101965788Y-53192466D02*
X101899122Y-53159133D01*
X101899122Y-53159133D02*
X101865788Y-53125800D01*
X101865788Y-53125800D02*
X101832455Y-53059133D01*
X101832455Y-53059133D02*
X101832455Y-52992466D01*
X101832455Y-52992466D02*
X101865788Y-52925800D01*
X101865788Y-52925800D02*
X101899122Y-52892466D01*
X101899122Y-52892466D02*
X101965788Y-52859133D01*
X101965788Y-52859133D02*
X102132455Y-52859133D01*
X102132455Y-52859133D02*
X102232455Y-52892466D01*
X102532455Y-53192466D02*
X102765789Y-53192466D01*
X102865789Y-53559133D02*
X102532455Y-53559133D01*
X102532455Y-53559133D02*
X102532455Y-52859133D01*
X102532455Y-52859133D02*
X102865789Y-52859133D01*
X103932455Y-53192466D02*
X104032455Y-53225800D01*
X104032455Y-53225800D02*
X104065788Y-53259133D01*
X104065788Y-53259133D02*
X104099121Y-53325800D01*
X104099121Y-53325800D02*
X104099121Y-53425800D01*
X104099121Y-53425800D02*
X104065788Y-53492466D01*
X104065788Y-53492466D02*
X104032455Y-53525800D01*
X104032455Y-53525800D02*
X103965788Y-53559133D01*
X103965788Y-53559133D02*
X103699121Y-53559133D01*
X103699121Y-53559133D02*
X103699121Y-52859133D01*
X103699121Y-52859133D02*
X103932455Y-52859133D01*
X103932455Y-52859133D02*
X103999121Y-52892466D01*
X103999121Y-52892466D02*
X104032455Y-52925800D01*
X104032455Y-52925800D02*
X104065788Y-52992466D01*
X104065788Y-52992466D02*
X104065788Y-53059133D01*
X104065788Y-53059133D02*
X104032455Y-53125800D01*
X104032455Y-53125800D02*
X103999121Y-53159133D01*
X103999121Y-53159133D02*
X103932455Y-53192466D01*
X103932455Y-53192466D02*
X103699121Y-53192466D01*
X73232455Y-65992466D02*
X73765789Y-65992466D01*
X73499122Y-66259133D02*
X73499122Y-65725800D01*
X74432456Y-65559133D02*
X74099122Y-65559133D01*
X74099122Y-65559133D02*
X74065789Y-65892466D01*
X74065789Y-65892466D02*
X74099122Y-65859133D01*
X74099122Y-65859133D02*
X74165789Y-65825800D01*
X74165789Y-65825800D02*
X74332456Y-65825800D01*
X74332456Y-65825800D02*
X74399122Y-65859133D01*
X74399122Y-65859133D02*
X74432456Y-65892466D01*
X74432456Y-65892466D02*
X74465789Y-65959133D01*
X74465789Y-65959133D02*
X74465789Y-66125800D01*
X74465789Y-66125800D02*
X74432456Y-66192466D01*
X74432456Y-66192466D02*
X74399122Y-66225800D01*
X74399122Y-66225800D02*
X74332456Y-66259133D01*
X74332456Y-66259133D02*
X74165789Y-66259133D01*
X74165789Y-66259133D02*
X74099122Y-66225800D01*
X74099122Y-66225800D02*
X74065789Y-66192466D01*
X74665789Y-65559133D02*
X74899123Y-66259133D01*
X74899123Y-66259133D02*
X75132456Y-65559133D01*
X88292455Y-36352466D02*
X88259122Y-36385800D01*
X88259122Y-36385800D02*
X88159122Y-36419133D01*
X88159122Y-36419133D02*
X88092455Y-36419133D01*
X88092455Y-36419133D02*
X87992455Y-36385800D01*
X87992455Y-36385800D02*
X87925789Y-36319133D01*
X87925789Y-36319133D02*
X87892455Y-36252466D01*
X87892455Y-36252466D02*
X87859122Y-36119133D01*
X87859122Y-36119133D02*
X87859122Y-36019133D01*
X87859122Y-36019133D02*
X87892455Y-35885800D01*
X87892455Y-35885800D02*
X87925789Y-35819133D01*
X87925789Y-35819133D02*
X87992455Y-35752466D01*
X87992455Y-35752466D02*
X88092455Y-35719133D01*
X88092455Y-35719133D02*
X88159122Y-35719133D01*
X88159122Y-35719133D02*
X88259122Y-35752466D01*
X88259122Y-35752466D02*
X88292455Y-35785800D01*
X88925789Y-36419133D02*
X88592455Y-36419133D01*
X88592455Y-36419133D02*
X88592455Y-35719133D01*
X78747455Y-65559133D02*
X79147455Y-65559133D01*
X78947455Y-66259133D02*
X78947455Y-65559133D01*
X79314122Y-65559133D02*
X79780788Y-66259133D01*
X79780788Y-65559133D02*
X79314122Y-66259133D01*
X76632455Y-66259133D02*
X76399122Y-65925800D01*
X76232455Y-66259133D02*
X76232455Y-65559133D01*
X76232455Y-65559133D02*
X76499122Y-65559133D01*
X76499122Y-65559133D02*
X76565789Y-65592466D01*
X76565789Y-65592466D02*
X76599122Y-65625800D01*
X76599122Y-65625800D02*
X76632455Y-65692466D01*
X76632455Y-65692466D02*
X76632455Y-65792466D01*
X76632455Y-65792466D02*
X76599122Y-65859133D01*
X76599122Y-65859133D02*
X76565789Y-65892466D01*
X76565789Y-65892466D02*
X76499122Y-65925800D01*
X76499122Y-65925800D02*
X76232455Y-65925800D01*
X76865789Y-65559133D02*
X77332455Y-66259133D01*
X77332455Y-65559133D02*
X76865789Y-66259133D01*
X81049122Y-66225800D02*
X81149122Y-66259133D01*
X81149122Y-66259133D02*
X81315789Y-66259133D01*
X81315789Y-66259133D02*
X81382455Y-66225800D01*
X81382455Y-66225800D02*
X81415789Y-66192466D01*
X81415789Y-66192466D02*
X81449122Y-66125800D01*
X81449122Y-66125800D02*
X81449122Y-66059133D01*
X81449122Y-66059133D02*
X81415789Y-65992466D01*
X81415789Y-65992466D02*
X81382455Y-65959133D01*
X81382455Y-65959133D02*
X81315789Y-65925800D01*
X81315789Y-65925800D02*
X81182455Y-65892466D01*
X81182455Y-65892466D02*
X81115789Y-65859133D01*
X81115789Y-65859133D02*
X81082455Y-65825800D01*
X81082455Y-65825800D02*
X81049122Y-65759133D01*
X81049122Y-65759133D02*
X81049122Y-65692466D01*
X81049122Y-65692466D02*
X81082455Y-65625800D01*
X81082455Y-65625800D02*
X81115789Y-65592466D01*
X81115789Y-65592466D02*
X81182455Y-65559133D01*
X81182455Y-65559133D02*
X81349122Y-65559133D01*
X81349122Y-65559133D02*
X81449122Y-65592466D01*
X81749122Y-66259133D02*
X81749122Y-65559133D01*
X81749122Y-65559133D02*
X82015789Y-65559133D01*
X82015789Y-65559133D02*
X82082456Y-65592466D01*
X82082456Y-65592466D02*
X82115789Y-65625800D01*
X82115789Y-65625800D02*
X82149122Y-65692466D01*
X82149122Y-65692466D02*
X82149122Y-65792466D01*
X82149122Y-65792466D02*
X82115789Y-65859133D01*
X82115789Y-65859133D02*
X82082456Y-65892466D01*
X82082456Y-65892466D02*
X82015789Y-65925800D01*
X82015789Y-65925800D02*
X81749122Y-65925800D01*
X82449122Y-66259133D02*
X82449122Y-65559133D01*
X82449122Y-65559133D02*
X82615789Y-65559133D01*
X82615789Y-65559133D02*
X82715789Y-65592466D01*
X82715789Y-65592466D02*
X82782456Y-65659133D01*
X82782456Y-65659133D02*
X82815789Y-65725800D01*
X82815789Y-65725800D02*
X82849122Y-65859133D01*
X82849122Y-65859133D02*
X82849122Y-65959133D01*
X82849122Y-65959133D02*
X82815789Y-66092466D01*
X82815789Y-66092466D02*
X82782456Y-66159133D01*
X82782456Y-66159133D02*
X82715789Y-66225800D01*
X82715789Y-66225800D02*
X82615789Y-66259133D01*
X82615789Y-66259133D02*
X82449122Y-66259133D01*
X56767455Y-63844133D02*
X56767455Y-63144133D01*
X56767455Y-63144133D02*
X57000789Y-63644133D01*
X57000789Y-63644133D02*
X57234122Y-63144133D01*
X57234122Y-63144133D02*
X57234122Y-63844133D01*
X57700789Y-63144133D02*
X57834122Y-63144133D01*
X57834122Y-63144133D02*
X57900789Y-63177466D01*
X57900789Y-63177466D02*
X57967455Y-63244133D01*
X57967455Y-63244133D02*
X58000789Y-63377466D01*
X58000789Y-63377466D02*
X58000789Y-63610800D01*
X58000789Y-63610800D02*
X57967455Y-63744133D01*
X57967455Y-63744133D02*
X57900789Y-63810800D01*
X57900789Y-63810800D02*
X57834122Y-63844133D01*
X57834122Y-63844133D02*
X57700789Y-63844133D01*
X57700789Y-63844133D02*
X57634122Y-63810800D01*
X57634122Y-63810800D02*
X57567455Y-63744133D01*
X57567455Y-63744133D02*
X57534122Y-63610800D01*
X57534122Y-63610800D02*
X57534122Y-63377466D01*
X57534122Y-63377466D02*
X57567455Y-63244133D01*
X57567455Y-63244133D02*
X57634122Y-63177466D01*
X57634122Y-63177466D02*
X57700789Y-63144133D01*
X58267455Y-63810800D02*
X58367455Y-63844133D01*
X58367455Y-63844133D02*
X58534122Y-63844133D01*
X58534122Y-63844133D02*
X58600788Y-63810800D01*
X58600788Y-63810800D02*
X58634122Y-63777466D01*
X58634122Y-63777466D02*
X58667455Y-63710800D01*
X58667455Y-63710800D02*
X58667455Y-63644133D01*
X58667455Y-63644133D02*
X58634122Y-63577466D01*
X58634122Y-63577466D02*
X58600788Y-63544133D01*
X58600788Y-63544133D02*
X58534122Y-63510800D01*
X58534122Y-63510800D02*
X58400788Y-63477466D01*
X58400788Y-63477466D02*
X58334122Y-63444133D01*
X58334122Y-63444133D02*
X58300788Y-63410800D01*
X58300788Y-63410800D02*
X58267455Y-63344133D01*
X58267455Y-63344133D02*
X58267455Y-63277466D01*
X58267455Y-63277466D02*
X58300788Y-63210800D01*
X58300788Y-63210800D02*
X58334122Y-63177466D01*
X58334122Y-63177466D02*
X58400788Y-63144133D01*
X58400788Y-63144133D02*
X58567455Y-63144133D01*
X58567455Y-63144133D02*
X58667455Y-63177466D01*
X58967455Y-63844133D02*
X58967455Y-63144133D01*
X57254360Y-33480640D02*
X57254360Y-32730640D01*
X57682931Y-33480640D02*
X57361503Y-33052068D01*
X57682931Y-32730640D02*
X57254360Y-33159211D01*
X58004360Y-33480640D02*
X58004360Y-32980640D01*
X58004360Y-32730640D02*
X57968646Y-32766354D01*
X57968646Y-32766354D02*
X58004360Y-32802068D01*
X58004360Y-32802068D02*
X58040074Y-32766354D01*
X58040074Y-32766354D02*
X58004360Y-32730640D01*
X58004360Y-32730640D02*
X58004360Y-32802068D01*
X58325789Y-33444926D02*
X58397217Y-33480640D01*
X58397217Y-33480640D02*
X58540074Y-33480640D01*
X58540074Y-33480640D02*
X58611503Y-33444926D01*
X58611503Y-33444926D02*
X58647217Y-33373497D01*
X58647217Y-33373497D02*
X58647217Y-33337783D01*
X58647217Y-33337783D02*
X58611503Y-33266354D01*
X58611503Y-33266354D02*
X58540074Y-33230640D01*
X58540074Y-33230640D02*
X58432932Y-33230640D01*
X58432932Y-33230640D02*
X58361503Y-33194926D01*
X58361503Y-33194926D02*
X58325789Y-33123497D01*
X58325789Y-33123497D02*
X58325789Y-33087783D01*
X58325789Y-33087783D02*
X58361503Y-33016354D01*
X58361503Y-33016354D02*
X58432932Y-32980640D01*
X58432932Y-32980640D02*
X58540074Y-32980640D01*
X58540074Y-32980640D02*
X58611503Y-33016354D01*
X59504361Y-33266354D02*
X59861504Y-33266354D01*
X59432932Y-33480640D02*
X59682932Y-32730640D01*
X59682932Y-32730640D02*
X59932932Y-33480640D01*
X59754361Y-32444926D02*
X59647218Y-32552068D01*
X60182932Y-33480640D02*
X60182932Y-32980640D01*
X60182932Y-33123497D02*
X60218646Y-33052068D01*
X60218646Y-33052068D02*
X60254361Y-33016354D01*
X60254361Y-33016354D02*
X60325789Y-32980640D01*
X60325789Y-32980640D02*
X60397218Y-32980640D01*
X60754361Y-33480640D02*
X60682932Y-33444926D01*
X60682932Y-33444926D02*
X60647218Y-33409211D01*
X60647218Y-33409211D02*
X60611504Y-33337783D01*
X60611504Y-33337783D02*
X60611504Y-33123497D01*
X60611504Y-33123497D02*
X60647218Y-33052068D01*
X60647218Y-33052068D02*
X60682932Y-33016354D01*
X60682932Y-33016354D02*
X60754361Y-32980640D01*
X60754361Y-32980640D02*
X60861504Y-32980640D01*
X60861504Y-32980640D02*
X60932932Y-33016354D01*
X60932932Y-33016354D02*
X60968647Y-33052068D01*
X60968647Y-33052068D02*
X61004361Y-33123497D01*
X61004361Y-33123497D02*
X61004361Y-33337783D01*
X61004361Y-33337783D02*
X60968647Y-33409211D01*
X60968647Y-33409211D02*
X60932932Y-33444926D01*
X60932932Y-33444926D02*
X60861504Y-33480640D01*
X60861504Y-33480640D02*
X60754361Y-33480640D01*
X61325789Y-32980640D02*
X61325789Y-33480640D01*
X61325789Y-33052068D02*
X61361503Y-33016354D01*
X61361503Y-33016354D02*
X61432932Y-32980640D01*
X61432932Y-32980640D02*
X61540075Y-32980640D01*
X61540075Y-32980640D02*
X61611503Y-33016354D01*
X61611503Y-33016354D02*
X61647218Y-33087783D01*
X61647218Y-33087783D02*
X61647218Y-33480640D01*
X57254360Y-35502699D02*
X57504360Y-35502699D01*
X57611503Y-35895556D02*
X57254360Y-35895556D01*
X57254360Y-35895556D02*
X57254360Y-35145556D01*
X57254360Y-35145556D02*
X57611503Y-35145556D01*
X58040074Y-35895556D02*
X57968645Y-35859842D01*
X57968645Y-35859842D02*
X57932931Y-35788413D01*
X57932931Y-35788413D02*
X57932931Y-35145556D01*
X58611502Y-35859842D02*
X58540074Y-35895556D01*
X58540074Y-35895556D02*
X58397217Y-35895556D01*
X58397217Y-35895556D02*
X58325788Y-35859842D01*
X58325788Y-35859842D02*
X58290074Y-35788413D01*
X58290074Y-35788413D02*
X58290074Y-35502699D01*
X58290074Y-35502699D02*
X58325788Y-35431270D01*
X58325788Y-35431270D02*
X58397217Y-35395556D01*
X58397217Y-35395556D02*
X58540074Y-35395556D01*
X58540074Y-35395556D02*
X58611502Y-35431270D01*
X58611502Y-35431270D02*
X58647217Y-35502699D01*
X58647217Y-35502699D02*
X58647217Y-35574127D01*
X58647217Y-35574127D02*
X58290074Y-35645556D01*
X59290074Y-35859842D02*
X59218645Y-35895556D01*
X59218645Y-35895556D02*
X59075788Y-35895556D01*
X59075788Y-35895556D02*
X59004359Y-35859842D01*
X59004359Y-35859842D02*
X58968645Y-35824127D01*
X58968645Y-35824127D02*
X58932931Y-35752699D01*
X58932931Y-35752699D02*
X58932931Y-35538413D01*
X58932931Y-35538413D02*
X58968645Y-35466984D01*
X58968645Y-35466984D02*
X59004359Y-35431270D01*
X59004359Y-35431270D02*
X59075788Y-35395556D01*
X59075788Y-35395556D02*
X59218645Y-35395556D01*
X59218645Y-35395556D02*
X59290074Y-35431270D01*
X59504359Y-35395556D02*
X59790073Y-35395556D01*
X59611502Y-35145556D02*
X59611502Y-35788413D01*
X59611502Y-35788413D02*
X59647216Y-35859842D01*
X59647216Y-35859842D02*
X59718645Y-35895556D01*
X59718645Y-35895556D02*
X59790073Y-35895556D01*
X60040073Y-35895556D02*
X60040073Y-35395556D01*
X60040073Y-35538413D02*
X60075787Y-35466984D01*
X60075787Y-35466984D02*
X60111502Y-35431270D01*
X60111502Y-35431270D02*
X60182930Y-35395556D01*
X60182930Y-35395556D02*
X60254359Y-35395556D01*
X60611502Y-35895556D02*
X60540073Y-35859842D01*
X60540073Y-35859842D02*
X60504359Y-35824127D01*
X60504359Y-35824127D02*
X60468645Y-35752699D01*
X60468645Y-35752699D02*
X60468645Y-35538413D01*
X60468645Y-35538413D02*
X60504359Y-35466984D01*
X60504359Y-35466984D02*
X60540073Y-35431270D01*
X60540073Y-35431270D02*
X60611502Y-35395556D01*
X60611502Y-35395556D02*
X60718645Y-35395556D01*
X60718645Y-35395556D02*
X60790073Y-35431270D01*
X60790073Y-35431270D02*
X60825788Y-35466984D01*
X60825788Y-35466984D02*
X60861502Y-35538413D01*
X60861502Y-35538413D02*
X60861502Y-35752699D01*
X60861502Y-35752699D02*
X60825788Y-35824127D01*
X60825788Y-35824127D02*
X60790073Y-35859842D01*
X60790073Y-35859842D02*
X60718645Y-35895556D01*
X60718645Y-35895556D02*
X60611502Y-35895556D01*
X61182930Y-35395556D02*
X61182930Y-35895556D01*
X61182930Y-35466984D02*
X61218644Y-35431270D01*
X61218644Y-35431270D02*
X61290073Y-35395556D01*
X61290073Y-35395556D02*
X61397216Y-35395556D01*
X61397216Y-35395556D02*
X61468644Y-35431270D01*
X61468644Y-35431270D02*
X61504359Y-35502699D01*
X61504359Y-35502699D02*
X61504359Y-35895556D01*
X61861501Y-35895556D02*
X61861501Y-35395556D01*
X61861501Y-35145556D02*
X61825787Y-35181270D01*
X61825787Y-35181270D02*
X61861501Y-35216984D01*
X61861501Y-35216984D02*
X61897215Y-35181270D01*
X61897215Y-35181270D02*
X61861501Y-35145556D01*
X61861501Y-35145556D02*
X61861501Y-35216984D01*
X62540073Y-35859842D02*
X62468644Y-35895556D01*
X62468644Y-35895556D02*
X62325787Y-35895556D01*
X62325787Y-35895556D02*
X62254358Y-35859842D01*
X62254358Y-35859842D02*
X62218644Y-35824127D01*
X62218644Y-35824127D02*
X62182930Y-35752699D01*
X62182930Y-35752699D02*
X62182930Y-35538413D01*
X62182930Y-35538413D02*
X62218644Y-35466984D01*
X62218644Y-35466984D02*
X62254358Y-35431270D01*
X62254358Y-35431270D02*
X62325787Y-35395556D01*
X62325787Y-35395556D02*
X62468644Y-35395556D01*
X62468644Y-35395556D02*
X62540073Y-35431270D01*
X63397216Y-35859842D02*
X63504359Y-35895556D01*
X63504359Y-35895556D02*
X63682930Y-35895556D01*
X63682930Y-35895556D02*
X63754359Y-35859842D01*
X63754359Y-35859842D02*
X63790073Y-35824127D01*
X63790073Y-35824127D02*
X63825787Y-35752699D01*
X63825787Y-35752699D02*
X63825787Y-35681270D01*
X63825787Y-35681270D02*
X63790073Y-35609842D01*
X63790073Y-35609842D02*
X63754359Y-35574127D01*
X63754359Y-35574127D02*
X63682930Y-35538413D01*
X63682930Y-35538413D02*
X63540073Y-35502699D01*
X63540073Y-35502699D02*
X63468644Y-35466984D01*
X63468644Y-35466984D02*
X63432930Y-35431270D01*
X63432930Y-35431270D02*
X63397216Y-35359842D01*
X63397216Y-35359842D02*
X63397216Y-35288413D01*
X63397216Y-35288413D02*
X63432930Y-35216984D01*
X63432930Y-35216984D02*
X63468644Y-35181270D01*
X63468644Y-35181270D02*
X63540073Y-35145556D01*
X63540073Y-35145556D02*
X63718644Y-35145556D01*
X63718644Y-35145556D02*
X63825787Y-35181270D01*
X64147216Y-35395556D02*
X64147216Y-36145556D01*
X64147216Y-35431270D02*
X64218645Y-35395556D01*
X64218645Y-35395556D02*
X64361502Y-35395556D01*
X64361502Y-35395556D02*
X64432930Y-35431270D01*
X64432930Y-35431270D02*
X64468645Y-35466984D01*
X64468645Y-35466984D02*
X64504359Y-35538413D01*
X64504359Y-35538413D02*
X64504359Y-35752699D01*
X64504359Y-35752699D02*
X64468645Y-35824127D01*
X64468645Y-35824127D02*
X64432930Y-35859842D01*
X64432930Y-35859842D02*
X64361502Y-35895556D01*
X64361502Y-35895556D02*
X64218645Y-35895556D01*
X64218645Y-35895556D02*
X64147216Y-35859842D01*
X65111501Y-35859842D02*
X65040073Y-35895556D01*
X65040073Y-35895556D02*
X64897216Y-35895556D01*
X64897216Y-35895556D02*
X64825787Y-35859842D01*
X64825787Y-35859842D02*
X64790073Y-35788413D01*
X64790073Y-35788413D02*
X64790073Y-35502699D01*
X64790073Y-35502699D02*
X64825787Y-35431270D01*
X64825787Y-35431270D02*
X64897216Y-35395556D01*
X64897216Y-35395556D02*
X65040073Y-35395556D01*
X65040073Y-35395556D02*
X65111501Y-35431270D01*
X65111501Y-35431270D02*
X65147216Y-35502699D01*
X65147216Y-35502699D02*
X65147216Y-35574127D01*
X65147216Y-35574127D02*
X64790073Y-35645556D01*
X65754358Y-35859842D02*
X65682930Y-35895556D01*
X65682930Y-35895556D02*
X65540073Y-35895556D01*
X65540073Y-35895556D02*
X65468644Y-35859842D01*
X65468644Y-35859842D02*
X65432930Y-35788413D01*
X65432930Y-35788413D02*
X65432930Y-35502699D01*
X65432930Y-35502699D02*
X65468644Y-35431270D01*
X65468644Y-35431270D02*
X65540073Y-35395556D01*
X65540073Y-35395556D02*
X65682930Y-35395556D01*
X65682930Y-35395556D02*
X65754358Y-35431270D01*
X65754358Y-35431270D02*
X65790073Y-35502699D01*
X65790073Y-35502699D02*
X65790073Y-35574127D01*
X65790073Y-35574127D02*
X65432930Y-35645556D01*
X66432930Y-35895556D02*
X66432930Y-35145556D01*
X66432930Y-35859842D02*
X66361501Y-35895556D01*
X66361501Y-35895556D02*
X66218644Y-35895556D01*
X66218644Y-35895556D02*
X66147215Y-35859842D01*
X66147215Y-35859842D02*
X66111501Y-35824127D01*
X66111501Y-35824127D02*
X66075787Y-35752699D01*
X66075787Y-35752699D02*
X66075787Y-35538413D01*
X66075787Y-35538413D02*
X66111501Y-35466984D01*
X66111501Y-35466984D02*
X66147215Y-35431270D01*
X66147215Y-35431270D02*
X66218644Y-35395556D01*
X66218644Y-35395556D02*
X66361501Y-35395556D01*
X66361501Y-35395556D02*
X66432930Y-35431270D01*
X57682931Y-37031585D02*
X57647217Y-37067300D01*
X57647217Y-37067300D02*
X57540074Y-37103014D01*
X57540074Y-37103014D02*
X57468646Y-37103014D01*
X57468646Y-37103014D02*
X57361503Y-37067300D01*
X57361503Y-37067300D02*
X57290074Y-36995871D01*
X57290074Y-36995871D02*
X57254360Y-36924442D01*
X57254360Y-36924442D02*
X57218646Y-36781585D01*
X57218646Y-36781585D02*
X57218646Y-36674442D01*
X57218646Y-36674442D02*
X57254360Y-36531585D01*
X57254360Y-36531585D02*
X57290074Y-36460157D01*
X57290074Y-36460157D02*
X57361503Y-36388728D01*
X57361503Y-36388728D02*
X57468646Y-36353014D01*
X57468646Y-36353014D02*
X57540074Y-36353014D01*
X57540074Y-36353014D02*
X57647217Y-36388728D01*
X57647217Y-36388728D02*
X57682931Y-36424442D01*
X58111503Y-37103014D02*
X58040074Y-37067300D01*
X58040074Y-37067300D02*
X58004360Y-37031585D01*
X58004360Y-37031585D02*
X57968646Y-36960157D01*
X57968646Y-36960157D02*
X57968646Y-36745871D01*
X57968646Y-36745871D02*
X58004360Y-36674442D01*
X58004360Y-36674442D02*
X58040074Y-36638728D01*
X58040074Y-36638728D02*
X58111503Y-36603014D01*
X58111503Y-36603014D02*
X58218646Y-36603014D01*
X58218646Y-36603014D02*
X58290074Y-36638728D01*
X58290074Y-36638728D02*
X58325789Y-36674442D01*
X58325789Y-36674442D02*
X58361503Y-36745871D01*
X58361503Y-36745871D02*
X58361503Y-36960157D01*
X58361503Y-36960157D02*
X58325789Y-37031585D01*
X58325789Y-37031585D02*
X58290074Y-37067300D01*
X58290074Y-37067300D02*
X58218646Y-37103014D01*
X58218646Y-37103014D02*
X58111503Y-37103014D01*
X58682931Y-36603014D02*
X58682931Y-37103014D01*
X58682931Y-36674442D02*
X58718645Y-36638728D01*
X58718645Y-36638728D02*
X58790074Y-36603014D01*
X58790074Y-36603014D02*
X58897217Y-36603014D01*
X58897217Y-36603014D02*
X58968645Y-36638728D01*
X58968645Y-36638728D02*
X59004360Y-36710157D01*
X59004360Y-36710157D02*
X59004360Y-37103014D01*
X59254359Y-36603014D02*
X59540073Y-36603014D01*
X59361502Y-36353014D02*
X59361502Y-36995871D01*
X59361502Y-36995871D02*
X59397216Y-37067300D01*
X59397216Y-37067300D02*
X59468645Y-37103014D01*
X59468645Y-37103014D02*
X59540073Y-37103014D01*
X59790073Y-37103014D02*
X59790073Y-36603014D01*
X59790073Y-36745871D02*
X59825787Y-36674442D01*
X59825787Y-36674442D02*
X59861502Y-36638728D01*
X59861502Y-36638728D02*
X59932930Y-36603014D01*
X59932930Y-36603014D02*
X60004359Y-36603014D01*
X60361502Y-37103014D02*
X60290073Y-37067300D01*
X60290073Y-37067300D02*
X60254359Y-37031585D01*
X60254359Y-37031585D02*
X60218645Y-36960157D01*
X60218645Y-36960157D02*
X60218645Y-36745871D01*
X60218645Y-36745871D02*
X60254359Y-36674442D01*
X60254359Y-36674442D02*
X60290073Y-36638728D01*
X60290073Y-36638728D02*
X60361502Y-36603014D01*
X60361502Y-36603014D02*
X60468645Y-36603014D01*
X60468645Y-36603014D02*
X60540073Y-36638728D01*
X60540073Y-36638728D02*
X60575788Y-36674442D01*
X60575788Y-36674442D02*
X60611502Y-36745871D01*
X60611502Y-36745871D02*
X60611502Y-36960157D01*
X60611502Y-36960157D02*
X60575788Y-37031585D01*
X60575788Y-37031585D02*
X60540073Y-37067300D01*
X60540073Y-37067300D02*
X60468645Y-37103014D01*
X60468645Y-37103014D02*
X60361502Y-37103014D01*
X61040073Y-37103014D02*
X60968644Y-37067300D01*
X60968644Y-37067300D02*
X60932930Y-36995871D01*
X60932930Y-36995871D02*
X60932930Y-36353014D01*
X61432930Y-37103014D02*
X61361501Y-37067300D01*
X61361501Y-37067300D02*
X61325787Y-36995871D01*
X61325787Y-36995871D02*
X61325787Y-36353014D01*
X62004358Y-37067300D02*
X61932930Y-37103014D01*
X61932930Y-37103014D02*
X61790073Y-37103014D01*
X61790073Y-37103014D02*
X61718644Y-37067300D01*
X61718644Y-37067300D02*
X61682930Y-36995871D01*
X61682930Y-36995871D02*
X61682930Y-36710157D01*
X61682930Y-36710157D02*
X61718644Y-36638728D01*
X61718644Y-36638728D02*
X61790073Y-36603014D01*
X61790073Y-36603014D02*
X61932930Y-36603014D01*
X61932930Y-36603014D02*
X62004358Y-36638728D01*
X62004358Y-36638728D02*
X62040073Y-36710157D01*
X62040073Y-36710157D02*
X62040073Y-36781585D01*
X62040073Y-36781585D02*
X61682930Y-36853014D01*
X62361501Y-37103014D02*
X62361501Y-36603014D01*
X62361501Y-36745871D02*
X62397215Y-36674442D01*
X62397215Y-36674442D02*
X62432930Y-36638728D01*
X62432930Y-36638728D02*
X62504358Y-36603014D01*
X62504358Y-36603014D02*
X62575787Y-36603014D01*
X80385789Y-36052466D02*
X80485789Y-36085800D01*
X80485789Y-36085800D02*
X80519122Y-36119133D01*
X80519122Y-36119133D02*
X80552455Y-36185800D01*
X80552455Y-36185800D02*
X80552455Y-36285800D01*
X80552455Y-36285800D02*
X80519122Y-36352466D01*
X80519122Y-36352466D02*
X80485789Y-36385800D01*
X80485789Y-36385800D02*
X80419122Y-36419133D01*
X80419122Y-36419133D02*
X80152455Y-36419133D01*
X80152455Y-36419133D02*
X80152455Y-35719133D01*
X80152455Y-35719133D02*
X80385789Y-35719133D01*
X80385789Y-35719133D02*
X80452455Y-35752466D01*
X80452455Y-35752466D02*
X80485789Y-35785800D01*
X80485789Y-35785800D02*
X80519122Y-35852466D01*
X80519122Y-35852466D02*
X80519122Y-35919133D01*
X80519122Y-35919133D02*
X80485789Y-35985800D01*
X80485789Y-35985800D02*
X80452455Y-36019133D01*
X80452455Y-36019133D02*
X80385789Y-36052466D01*
X80385789Y-36052466D02*
X80152455Y-36052466D01*
X80852455Y-36419133D02*
X80852455Y-35719133D01*
X80852455Y-36052466D02*
X81252455Y-36052466D01*
X81252455Y-36419133D02*
X81252455Y-35719133D01*
X99802455Y-40979133D02*
X99802455Y-40279133D01*
X99802455Y-40279133D02*
X100069122Y-40279133D01*
X100069122Y-40279133D02*
X100135789Y-40312466D01*
X100135789Y-40312466D02*
X100169122Y-40345800D01*
X100169122Y-40345800D02*
X100202455Y-40412466D01*
X100202455Y-40412466D02*
X100202455Y-40512466D01*
X100202455Y-40512466D02*
X100169122Y-40579133D01*
X100169122Y-40579133D02*
X100135789Y-40612466D01*
X100135789Y-40612466D02*
X100069122Y-40645800D01*
X100069122Y-40645800D02*
X99802455Y-40645800D01*
X100502455Y-40979133D02*
X100502455Y-40279133D01*
X100502455Y-40612466D02*
X100902455Y-40612466D01*
X100902455Y-40979133D02*
X100902455Y-40279133D01*
X101202455Y-40779133D02*
X101535788Y-40779133D01*
X101135788Y-40979133D02*
X101369122Y-40279133D01*
X101369122Y-40279133D02*
X101602455Y-40979133D01*
X101802455Y-40945800D02*
X101902455Y-40979133D01*
X101902455Y-40979133D02*
X102069122Y-40979133D01*
X102069122Y-40979133D02*
X102135788Y-40945800D01*
X102135788Y-40945800D02*
X102169122Y-40912466D01*
X102169122Y-40912466D02*
X102202455Y-40845800D01*
X102202455Y-40845800D02*
X102202455Y-40779133D01*
X102202455Y-40779133D02*
X102169122Y-40712466D01*
X102169122Y-40712466D02*
X102135788Y-40679133D01*
X102135788Y-40679133D02*
X102069122Y-40645800D01*
X102069122Y-40645800D02*
X101935788Y-40612466D01*
X101935788Y-40612466D02*
X101869122Y-40579133D01*
X101869122Y-40579133D02*
X101835788Y-40545800D01*
X101835788Y-40545800D02*
X101802455Y-40479133D01*
X101802455Y-40479133D02*
X101802455Y-40412466D01*
X101802455Y-40412466D02*
X101835788Y-40345800D01*
X101835788Y-40345800D02*
X101869122Y-40312466D01*
X101869122Y-40312466D02*
X101935788Y-40279133D01*
X101935788Y-40279133D02*
X102102455Y-40279133D01*
X102102455Y-40279133D02*
X102202455Y-40312466D01*
X102502455Y-40612466D02*
X102735789Y-40612466D01*
X102835789Y-40979133D02*
X102502455Y-40979133D01*
X102502455Y-40979133D02*
X102502455Y-40279133D01*
X102502455Y-40279133D02*
X102835789Y-40279133D01*
X103635788Y-40779133D02*
X103969121Y-40779133D01*
X103569121Y-40979133D02*
X103802455Y-40279133D01*
X103802455Y-40279133D02*
X104035788Y-40979133D01*
X99862455Y-65849133D02*
X99862455Y-65149133D01*
X99862455Y-65149133D02*
X100129122Y-65149133D01*
X100129122Y-65149133D02*
X100195789Y-65182466D01*
X100195789Y-65182466D02*
X100229122Y-65215800D01*
X100229122Y-65215800D02*
X100262455Y-65282466D01*
X100262455Y-65282466D02*
X100262455Y-65382466D01*
X100262455Y-65382466D02*
X100229122Y-65449133D01*
X100229122Y-65449133D02*
X100195789Y-65482466D01*
X100195789Y-65482466D02*
X100129122Y-65515800D01*
X100129122Y-65515800D02*
X99862455Y-65515800D01*
X100562455Y-65849133D02*
X100562455Y-65149133D01*
X100562455Y-65482466D02*
X100962455Y-65482466D01*
X100962455Y-65849133D02*
X100962455Y-65149133D01*
X101262455Y-65649133D02*
X101595788Y-65649133D01*
X101195788Y-65849133D02*
X101429122Y-65149133D01*
X101429122Y-65149133D02*
X101662455Y-65849133D01*
X101862455Y-65815800D02*
X101962455Y-65849133D01*
X101962455Y-65849133D02*
X102129122Y-65849133D01*
X102129122Y-65849133D02*
X102195788Y-65815800D01*
X102195788Y-65815800D02*
X102229122Y-65782466D01*
X102229122Y-65782466D02*
X102262455Y-65715800D01*
X102262455Y-65715800D02*
X102262455Y-65649133D01*
X102262455Y-65649133D02*
X102229122Y-65582466D01*
X102229122Y-65582466D02*
X102195788Y-65549133D01*
X102195788Y-65549133D02*
X102129122Y-65515800D01*
X102129122Y-65515800D02*
X101995788Y-65482466D01*
X101995788Y-65482466D02*
X101929122Y-65449133D01*
X101929122Y-65449133D02*
X101895788Y-65415800D01*
X101895788Y-65415800D02*
X101862455Y-65349133D01*
X101862455Y-65349133D02*
X101862455Y-65282466D01*
X101862455Y-65282466D02*
X101895788Y-65215800D01*
X101895788Y-65215800D02*
X101929122Y-65182466D01*
X101929122Y-65182466D02*
X101995788Y-65149133D01*
X101995788Y-65149133D02*
X102162455Y-65149133D01*
X102162455Y-65149133D02*
X102262455Y-65182466D01*
X102562455Y-65482466D02*
X102795789Y-65482466D01*
X102895789Y-65849133D02*
X102562455Y-65849133D01*
X102562455Y-65849133D02*
X102562455Y-65149133D01*
X102562455Y-65149133D02*
X102895789Y-65149133D01*
X104129121Y-65782466D02*
X104095788Y-65815800D01*
X104095788Y-65815800D02*
X103995788Y-65849133D01*
X103995788Y-65849133D02*
X103929121Y-65849133D01*
X103929121Y-65849133D02*
X103829121Y-65815800D01*
X103829121Y-65815800D02*
X103762455Y-65749133D01*
X103762455Y-65749133D02*
X103729121Y-65682466D01*
X103729121Y-65682466D02*
X103695788Y-65549133D01*
X103695788Y-65549133D02*
X103695788Y-65449133D01*
X103695788Y-65449133D02*
X103729121Y-65315800D01*
X103729121Y-65315800D02*
X103762455Y-65249133D01*
X103762455Y-65249133D02*
X103829121Y-65182466D01*
X103829121Y-65182466D02*
X103929121Y-65149133D01*
X103929121Y-65149133D02*
X103995788Y-65149133D01*
X103995788Y-65149133D02*
X104095788Y-65182466D01*
X104095788Y-65182466D02*
X104129121Y-65215800D01*
X83532455Y-66259133D02*
X83532455Y-65559133D01*
X83532455Y-65559133D02*
X83799122Y-65559133D01*
X83799122Y-65559133D02*
X83865789Y-65592466D01*
X83865789Y-65592466D02*
X83899122Y-65625800D01*
X83899122Y-65625800D02*
X83932455Y-65692466D01*
X83932455Y-65692466D02*
X83932455Y-65792466D01*
X83932455Y-65792466D02*
X83899122Y-65859133D01*
X83899122Y-65859133D02*
X83865789Y-65892466D01*
X83865789Y-65892466D02*
X83799122Y-65925800D01*
X83799122Y-65925800D02*
X83532455Y-65925800D01*
X84165789Y-65559133D02*
X84332455Y-66259133D01*
X84332455Y-66259133D02*
X84465789Y-65759133D01*
X84465789Y-65759133D02*
X84599122Y-66259133D01*
X84599122Y-66259133D02*
X84765789Y-65559133D01*
X85032455Y-66259133D02*
X85032455Y-65559133D01*
X85032455Y-65559133D02*
X85265789Y-66059133D01*
X85265789Y-66059133D02*
X85499122Y-65559133D01*
X85499122Y-65559133D02*
X85499122Y-66259133D01*
X59534122Y-63810800D02*
X59634122Y-63844133D01*
X59634122Y-63844133D02*
X59800789Y-63844133D01*
X59800789Y-63844133D02*
X59867455Y-63810800D01*
X59867455Y-63810800D02*
X59900789Y-63777466D01*
X59900789Y-63777466D02*
X59934122Y-63710800D01*
X59934122Y-63710800D02*
X59934122Y-63644133D01*
X59934122Y-63644133D02*
X59900789Y-63577466D01*
X59900789Y-63577466D02*
X59867455Y-63544133D01*
X59867455Y-63544133D02*
X59800789Y-63510800D01*
X59800789Y-63510800D02*
X59667455Y-63477466D01*
X59667455Y-63477466D02*
X59600789Y-63444133D01*
X59600789Y-63444133D02*
X59567455Y-63410800D01*
X59567455Y-63410800D02*
X59534122Y-63344133D01*
X59534122Y-63344133D02*
X59534122Y-63277466D01*
X59534122Y-63277466D02*
X59567455Y-63210800D01*
X59567455Y-63210800D02*
X59600789Y-63177466D01*
X59600789Y-63177466D02*
X59667455Y-63144133D01*
X59667455Y-63144133D02*
X59834122Y-63144133D01*
X59834122Y-63144133D02*
X59934122Y-63177466D01*
X60634122Y-63777466D02*
X60600789Y-63810800D01*
X60600789Y-63810800D02*
X60500789Y-63844133D01*
X60500789Y-63844133D02*
X60434122Y-63844133D01*
X60434122Y-63844133D02*
X60334122Y-63810800D01*
X60334122Y-63810800D02*
X60267456Y-63744133D01*
X60267456Y-63744133D02*
X60234122Y-63677466D01*
X60234122Y-63677466D02*
X60200789Y-63544133D01*
X60200789Y-63544133D02*
X60200789Y-63444133D01*
X60200789Y-63444133D02*
X60234122Y-63310800D01*
X60234122Y-63310800D02*
X60267456Y-63244133D01*
X60267456Y-63244133D02*
X60334122Y-63177466D01*
X60334122Y-63177466D02*
X60434122Y-63144133D01*
X60434122Y-63144133D02*
X60500789Y-63144133D01*
X60500789Y-63144133D02*
X60600789Y-63177466D01*
X60600789Y-63177466D02*
X60634122Y-63210800D01*
X60934122Y-63844133D02*
X60934122Y-63144133D01*
X61334122Y-63844133D02*
X61034122Y-63444133D01*
X61334122Y-63144133D02*
X60934122Y-63544133D01*
X85602455Y-36352466D02*
X85569122Y-36385800D01*
X85569122Y-36385800D02*
X85469122Y-36419133D01*
X85469122Y-36419133D02*
X85402455Y-36419133D01*
X85402455Y-36419133D02*
X85302455Y-36385800D01*
X85302455Y-36385800D02*
X85235789Y-36319133D01*
X85235789Y-36319133D02*
X85202455Y-36252466D01*
X85202455Y-36252466D02*
X85169122Y-36119133D01*
X85169122Y-36119133D02*
X85169122Y-36019133D01*
X85169122Y-36019133D02*
X85202455Y-35885800D01*
X85202455Y-35885800D02*
X85235789Y-35819133D01*
X85235789Y-35819133D02*
X85302455Y-35752466D01*
X85302455Y-35752466D02*
X85402455Y-35719133D01*
X85402455Y-35719133D02*
X85469122Y-35719133D01*
X85469122Y-35719133D02*
X85569122Y-35752466D01*
X85569122Y-35752466D02*
X85602455Y-35785800D01*
X85902455Y-36419133D02*
X85902455Y-35719133D01*
X85902455Y-36052466D02*
X86302455Y-36052466D01*
X86302455Y-36419133D02*
X86302455Y-35719133D01*
X77709122Y-36219133D02*
X78042455Y-36219133D01*
X77642455Y-36419133D02*
X77875789Y-35719133D01*
X77875789Y-35719133D02*
X78109122Y-36419133D01*
X78675789Y-36419133D02*
X78342455Y-36419133D01*
X78342455Y-36419133D02*
X78342455Y-35719133D01*
D12*
G36*
X71438534Y-42775994D02*
G01*
X71305896Y-42643356D01*
X72156904Y-41792348D01*
X72289542Y-41924986D01*
X71438534Y-42775994D01*
G37*
G36*
X72319592Y-41994414D02*
G01*
X72470365Y-41843642D01*
X73815397Y-42653977D01*
X73661775Y-42807599D01*
X72319592Y-41994414D01*
G37*
G36*
X74556823Y-42509423D02*
G01*
X74416154Y-42650092D01*
X74330674Y-42631640D01*
X74247154Y-42609963D01*
X74165595Y-42585060D01*
X74085996Y-42556932D01*
X74008358Y-42525578D01*
X73932681Y-42490998D01*
X73902959Y-42476263D01*
X73830673Y-42437561D01*
X73761802Y-42396582D01*
X73696347Y-42353327D01*
X73634307Y-42307794D01*
X73575682Y-42259985D01*
X73520473Y-42209898D01*
X73499346Y-42189226D01*
X73436970Y-42123322D01*
X73379212Y-42054976D01*
X73326071Y-41984189D01*
X73277547Y-41910961D01*
X73233640Y-41835291D01*
X73194349Y-41757180D01*
X73179926Y-41725252D01*
X73150835Y-41655347D01*
X73124603Y-41585037D01*
X73101230Y-41514322D01*
X73080715Y-41443202D01*
X73063059Y-41371678D01*
X73048262Y-41299748D01*
X73043143Y-41270863D01*
X73183035Y-41130972D01*
X73212272Y-41208135D01*
X73241436Y-41281339D01*
X73270528Y-41350585D01*
X73306790Y-41431575D01*
X73342938Y-41506379D01*
X73378972Y-41574998D01*
X73414892Y-41637431D01*
X73459799Y-41707869D01*
X73508639Y-41776959D01*
X73561414Y-41844700D01*
X73618124Y-41911094D01*
X73668387Y-41965393D01*
X73699857Y-41997523D01*
X73760282Y-42055196D01*
X73816023Y-42104013D01*
X73874442Y-42151292D01*
X73935539Y-42197035D01*
X73962542Y-42216168D01*
X74026323Y-42258893D01*
X74090501Y-42298891D01*
X74155076Y-42336162D01*
X74220047Y-42370705D01*
X74257351Y-42389220D01*
X74329007Y-42421329D01*
X74400685Y-42450586D01*
X74473870Y-42478790D01*
X74544374Y-42504898D01*
X74556823Y-42509423D01*
G37*
G36*
X73812581Y-40685355D02*
G01*
X73886676Y-40711544D01*
X73952979Y-40756556D01*
X73971350Y-40773730D01*
X74017810Y-40830968D01*
X74051599Y-40902017D01*
X74066616Y-40980909D01*
X74067461Y-41006105D01*
X74059733Y-41079453D01*
X74033362Y-41153548D01*
X73988270Y-41219850D01*
X73971091Y-41238222D01*
X73913873Y-41284702D01*
X73842895Y-41318562D01*
X73764125Y-41333701D01*
X73738975Y-41334592D01*
X73665502Y-41326989D01*
X73591316Y-41300709D01*
X73524973Y-41255657D01*
X73506599Y-41238481D01*
X73459805Y-41180908D01*
X73425884Y-41109727D01*
X73410988Y-41030957D01*
X73410229Y-41005846D01*
X73410535Y-41002997D01*
X73578358Y-41002997D01*
X73596461Y-41075607D01*
X73627580Y-41117501D01*
X73690942Y-41157848D01*
X73742083Y-41166722D01*
X73814271Y-41151638D01*
X73855033Y-41122164D01*
X73893831Y-41056650D01*
X73899332Y-41009473D01*
X73881446Y-40936646D01*
X73850370Y-40894710D01*
X73786916Y-40854454D01*
X73735607Y-40845748D01*
X73663636Y-40860615D01*
X73622916Y-40890047D01*
X73584017Y-40955662D01*
X73578358Y-41002997D01*
X73410535Y-41002997D01*
X73418082Y-40932624D01*
X73444545Y-40858620D01*
X73489678Y-40792358D01*
X73506858Y-40773989D01*
X73564097Y-40727529D01*
X73635146Y-40693740D01*
X73714037Y-40678723D01*
X73739234Y-40677878D01*
X73812581Y-40685355D01*
G37*
G36*
X75184522Y-41881724D02*
G01*
X75051884Y-41749086D01*
X75902892Y-40898078D01*
X76035530Y-41030716D01*
X75184522Y-41881724D01*
G37*
G36*
X75873652Y-39323215D02*
G01*
X75953218Y-39342313D01*
X76029160Y-39373561D01*
X76101476Y-39416959D01*
X76158972Y-39462404D01*
X76192260Y-39493721D01*
X76243073Y-39550074D01*
X76292861Y-39621137D01*
X76330444Y-39695952D01*
X76355824Y-39774520D01*
X76369000Y-39856840D01*
X76371011Y-39899407D01*
X76365941Y-39983360D01*
X76348594Y-40063269D01*
X76318970Y-40139135D01*
X76277070Y-40210957D01*
X76222892Y-40278735D01*
X76202105Y-40300430D01*
X76146472Y-40350039D01*
X76086046Y-40392395D01*
X76020828Y-40427498D01*
X75950818Y-40455347D01*
X75878492Y-40473626D01*
X75797319Y-40480605D01*
X75716350Y-40473198D01*
X75662485Y-40460269D01*
X75591325Y-40433084D01*
X75521363Y-40394533D01*
X75461129Y-40351476D01*
X75401813Y-40299718D01*
X75385034Y-40283332D01*
X75331836Y-40222184D01*
X75287656Y-40154150D01*
X75255953Y-40087896D01*
X75236852Y-40034635D01*
X75219511Y-39961791D01*
X75213047Y-39880345D01*
X75216797Y-39839046D01*
X75469746Y-39839046D01*
X75487925Y-39914876D01*
X75523192Y-39983773D01*
X75569576Y-40045530D01*
X75605751Y-40084375D01*
X75667828Y-40139619D01*
X75729452Y-40180744D01*
X75798237Y-40210134D01*
X75851339Y-40220639D01*
X75929529Y-40217670D01*
X76003865Y-40189783D01*
X76052110Y-40151989D01*
X76096276Y-40092210D01*
X76119670Y-40016175D01*
X76120242Y-39951737D01*
X76101637Y-39875754D01*
X76065815Y-39806462D01*
X76018800Y-39744146D01*
X75982164Y-39704854D01*
X75920799Y-39650289D01*
X75859758Y-39609650D01*
X75791475Y-39580574D01*
X75738649Y-39570143D01*
X75660606Y-39572670D01*
X75586362Y-39600284D01*
X75538137Y-39638017D01*
X75493940Y-39697887D01*
X75470442Y-39774232D01*
X75469746Y-39839046D01*
X75216797Y-39839046D01*
X75220395Y-39799431D01*
X75232966Y-39745785D01*
X75258305Y-39676244D01*
X75292614Y-39610362D01*
X75335893Y-39548139D01*
X75388142Y-39489576D01*
X75444276Y-39439033D01*
X75514926Y-39389852D01*
X75589165Y-39353185D01*
X75666992Y-39329032D01*
X75748407Y-39317393D01*
X75790460Y-39316266D01*
X75873652Y-39323215D01*
G37*
G36*
X76981094Y-40085152D02*
G01*
X76952968Y-40007430D01*
X76927074Y-39938832D01*
X76897060Y-39864041D01*
X76870735Y-39804332D01*
X76838262Y-39738582D01*
X76799972Y-39668852D01*
X76760117Y-39602007D01*
X76717656Y-39535168D01*
X76674789Y-39472276D01*
X76627169Y-39407652D01*
X76622816Y-39402014D01*
X76573253Y-39340652D01*
X76520384Y-39280882D01*
X76469453Y-39227927D01*
X76415722Y-39176018D01*
X76361068Y-39126828D01*
X76294265Y-39071390D01*
X76226131Y-39019869D01*
X76156668Y-38972264D01*
X76109621Y-38942703D01*
X76034125Y-38899418D01*
X75964367Y-38863264D01*
X75888384Y-38827033D01*
X75806179Y-38790727D01*
X75735934Y-38761628D01*
X75661705Y-38732480D01*
X75603420Y-38710587D01*
X75742794Y-38571213D01*
X75824535Y-38586558D01*
X75904771Y-38605230D01*
X75983502Y-38627228D01*
X76060727Y-38652553D01*
X76136448Y-38681205D01*
X76210663Y-38713184D01*
X76239927Y-38726907D01*
X76311508Y-38763412D01*
X76380370Y-38803142D01*
X76446512Y-38846098D01*
X76509935Y-38892280D01*
X76570638Y-38941687D01*
X76628621Y-38994320D01*
X76651053Y-39016276D01*
X76706178Y-39074789D01*
X76759445Y-39138220D01*
X76810854Y-39206569D01*
X76852275Y-39267283D01*
X76892407Y-39331413D01*
X76923583Y-39385175D01*
X76964711Y-39463771D01*
X77002120Y-39545579D01*
X77035810Y-39630600D01*
X77060085Y-39700931D01*
X77081980Y-39773318D01*
X77101494Y-39847760D01*
X77118628Y-39924260D01*
X77122540Y-39943706D01*
X76981094Y-40085152D01*
G37*
G36*
X77124612Y-39344762D02*
G01*
X76311427Y-38002579D01*
X76465049Y-37848957D01*
X77275385Y-39193990D01*
X77124612Y-39344762D01*
G37*
G36*
X76397953Y-37816575D02*
G01*
X76265315Y-37683937D01*
X77116323Y-36832929D01*
X77248961Y-36965567D01*
X76397953Y-37816575D01*
G37*
D11*
X48032466Y-58967544D02*
X48032466Y-58434211D01*
X48299133Y-58700877D02*
X47765800Y-58700877D01*
X48299133Y-57734210D02*
X48299133Y-58134210D01*
X48299133Y-57934210D02*
X47599133Y-57934210D01*
X47599133Y-57934210D02*
X47699133Y-58000877D01*
X47699133Y-58000877D02*
X47765800Y-58067544D01*
X47765800Y-58067544D02*
X47799133Y-58134210D01*
X47665800Y-57467543D02*
X47632466Y-57434210D01*
X47632466Y-57434210D02*
X47599133Y-57367543D01*
X47599133Y-57367543D02*
X47599133Y-57200877D01*
X47599133Y-57200877D02*
X47632466Y-57134210D01*
X47632466Y-57134210D02*
X47665800Y-57100877D01*
X47665800Y-57100877D02*
X47732466Y-57067543D01*
X47732466Y-57067543D02*
X47799133Y-57067543D01*
X47799133Y-57067543D02*
X47899133Y-57100877D01*
X47899133Y-57100877D02*
X48299133Y-57500877D01*
X48299133Y-57500877D02*
X48299133Y-57067543D01*
X47599133Y-56867543D02*
X48299133Y-56634210D01*
X48299133Y-56634210D02*
X47599133Y-56400876D01*
X47482466Y-65420877D02*
X47449133Y-65487544D01*
X47449133Y-65487544D02*
X47449133Y-65587544D01*
X47449133Y-65587544D02*
X47482466Y-65687544D01*
X47482466Y-65687544D02*
X47549133Y-65754211D01*
X47549133Y-65754211D02*
X47615800Y-65787544D01*
X47615800Y-65787544D02*
X47749133Y-65820877D01*
X47749133Y-65820877D02*
X47849133Y-65820877D01*
X47849133Y-65820877D02*
X47982466Y-65787544D01*
X47982466Y-65787544D02*
X48049133Y-65754211D01*
X48049133Y-65754211D02*
X48115800Y-65687544D01*
X48115800Y-65687544D02*
X48149133Y-65587544D01*
X48149133Y-65587544D02*
X48149133Y-65520877D01*
X48149133Y-65520877D02*
X48115800Y-65420877D01*
X48115800Y-65420877D02*
X48082466Y-65387544D01*
X48082466Y-65387544D02*
X47849133Y-65387544D01*
X47849133Y-65387544D02*
X47849133Y-65520877D01*
X48149133Y-65087544D02*
X47449133Y-65087544D01*
X47449133Y-65087544D02*
X48149133Y-64687544D01*
X48149133Y-64687544D02*
X47449133Y-64687544D01*
X48149133Y-64354211D02*
X47449133Y-64354211D01*
X47449133Y-64354211D02*
X47449133Y-64187544D01*
X47449133Y-64187544D02*
X47482466Y-64087544D01*
X47482466Y-64087544D02*
X47549133Y-64020878D01*
X47549133Y-64020878D02*
X47615800Y-63987544D01*
X47615800Y-63987544D02*
X47749133Y-63954211D01*
X47749133Y-63954211D02*
X47849133Y-63954211D01*
X47849133Y-63954211D02*
X47982466Y-63987544D01*
X47982466Y-63987544D02*
X48049133Y-64020878D01*
X48049133Y-64020878D02*
X48115800Y-64087544D01*
X48115800Y-64087544D02*
X48149133Y-64187544D01*
X48149133Y-64187544D02*
X48149133Y-64354211D01*
X67017455Y-63844133D02*
X67017455Y-63144133D01*
X67017455Y-63144133D02*
X67250789Y-63644133D01*
X67250789Y-63644133D02*
X67484122Y-63144133D01*
X67484122Y-63144133D02*
X67484122Y-63844133D01*
X67817455Y-63844133D02*
X67817455Y-63144133D01*
X68117455Y-63810800D02*
X68217455Y-63844133D01*
X68217455Y-63844133D02*
X68384122Y-63844133D01*
X68384122Y-63844133D02*
X68450788Y-63810800D01*
X68450788Y-63810800D02*
X68484122Y-63777466D01*
X68484122Y-63777466D02*
X68517455Y-63710800D01*
X68517455Y-63710800D02*
X68517455Y-63644133D01*
X68517455Y-63644133D02*
X68484122Y-63577466D01*
X68484122Y-63577466D02*
X68450788Y-63544133D01*
X68450788Y-63544133D02*
X68384122Y-63510800D01*
X68384122Y-63510800D02*
X68250788Y-63477466D01*
X68250788Y-63477466D02*
X68184122Y-63444133D01*
X68184122Y-63444133D02*
X68150788Y-63410800D01*
X68150788Y-63410800D02*
X68117455Y-63344133D01*
X68117455Y-63344133D02*
X68117455Y-63277466D01*
X68117455Y-63277466D02*
X68150788Y-63210800D01*
X68150788Y-63210800D02*
X68184122Y-63177466D01*
X68184122Y-63177466D02*
X68250788Y-63144133D01*
X68250788Y-63144133D02*
X68417455Y-63144133D01*
X68417455Y-63144133D02*
X68517455Y-63177466D01*
X68950789Y-63144133D02*
X69084122Y-63144133D01*
X69084122Y-63144133D02*
X69150789Y-63177466D01*
X69150789Y-63177466D02*
X69217455Y-63244133D01*
X69217455Y-63244133D02*
X69250789Y-63377466D01*
X69250789Y-63377466D02*
X69250789Y-63610800D01*
X69250789Y-63610800D02*
X69217455Y-63744133D01*
X69217455Y-63744133D02*
X69150789Y-63810800D01*
X69150789Y-63810800D02*
X69084122Y-63844133D01*
X69084122Y-63844133D02*
X68950789Y-63844133D01*
X68950789Y-63844133D02*
X68884122Y-63810800D01*
X68884122Y-63810800D02*
X68817455Y-63744133D01*
X68817455Y-63744133D02*
X68784122Y-63610800D01*
X68784122Y-63610800D02*
X68784122Y-63377466D01*
X68784122Y-63377466D02*
X68817455Y-63244133D01*
X68817455Y-63244133D02*
X68884122Y-63177466D01*
X68884122Y-63177466D02*
X68950789Y-63144133D01*
X71244122Y-65592466D02*
X71177455Y-65559133D01*
X71177455Y-65559133D02*
X71077455Y-65559133D01*
X71077455Y-65559133D02*
X70977455Y-65592466D01*
X70977455Y-65592466D02*
X70910789Y-65659133D01*
X70910789Y-65659133D02*
X70877455Y-65725800D01*
X70877455Y-65725800D02*
X70844122Y-65859133D01*
X70844122Y-65859133D02*
X70844122Y-65959133D01*
X70844122Y-65959133D02*
X70877455Y-66092466D01*
X70877455Y-66092466D02*
X70910789Y-66159133D01*
X70910789Y-66159133D02*
X70977455Y-66225800D01*
X70977455Y-66225800D02*
X71077455Y-66259133D01*
X71077455Y-66259133D02*
X71144122Y-66259133D01*
X71144122Y-66259133D02*
X71244122Y-66225800D01*
X71244122Y-66225800D02*
X71277455Y-66192466D01*
X71277455Y-66192466D02*
X71277455Y-65959133D01*
X71277455Y-65959133D02*
X71144122Y-65959133D01*
X71577455Y-66259133D02*
X71577455Y-65559133D01*
X71577455Y-65559133D02*
X71977455Y-66259133D01*
X71977455Y-66259133D02*
X71977455Y-65559133D01*
X72310788Y-66259133D02*
X72310788Y-65559133D01*
X72310788Y-65559133D02*
X72477455Y-65559133D01*
X72477455Y-65559133D02*
X72577455Y-65592466D01*
X72577455Y-65592466D02*
X72644122Y-65659133D01*
X72644122Y-65659133D02*
X72677455Y-65725800D01*
X72677455Y-65725800D02*
X72710788Y-65859133D01*
X72710788Y-65859133D02*
X72710788Y-65959133D01*
X72710788Y-65959133D02*
X72677455Y-66092466D01*
X72677455Y-66092466D02*
X72644122Y-66159133D01*
X72644122Y-66159133D02*
X72577455Y-66225800D01*
X72577455Y-66225800D02*
X72477455Y-66259133D01*
X72477455Y-66259133D02*
X72310788Y-66259133D01*
X62567455Y-63844133D02*
X62334122Y-63510800D01*
X62167455Y-63844133D02*
X62167455Y-63144133D01*
X62167455Y-63144133D02*
X62434122Y-63144133D01*
X62434122Y-63144133D02*
X62500789Y-63177466D01*
X62500789Y-63177466D02*
X62534122Y-63210800D01*
X62534122Y-63210800D02*
X62567455Y-63277466D01*
X62567455Y-63277466D02*
X62567455Y-63377466D01*
X62567455Y-63377466D02*
X62534122Y-63444133D01*
X62534122Y-63444133D02*
X62500789Y-63477466D01*
X62500789Y-63477466D02*
X62434122Y-63510800D01*
X62434122Y-63510800D02*
X62167455Y-63510800D01*
X62834122Y-63810800D02*
X62934122Y-63844133D01*
X62934122Y-63844133D02*
X63100789Y-63844133D01*
X63100789Y-63844133D02*
X63167455Y-63810800D01*
X63167455Y-63810800D02*
X63200789Y-63777466D01*
X63200789Y-63777466D02*
X63234122Y-63710800D01*
X63234122Y-63710800D02*
X63234122Y-63644133D01*
X63234122Y-63644133D02*
X63200789Y-63577466D01*
X63200789Y-63577466D02*
X63167455Y-63544133D01*
X63167455Y-63544133D02*
X63100789Y-63510800D01*
X63100789Y-63510800D02*
X62967455Y-63477466D01*
X62967455Y-63477466D02*
X62900789Y-63444133D01*
X62900789Y-63444133D02*
X62867455Y-63410800D01*
X62867455Y-63410800D02*
X62834122Y-63344133D01*
X62834122Y-63344133D02*
X62834122Y-63277466D01*
X62834122Y-63277466D02*
X62867455Y-63210800D01*
X62867455Y-63210800D02*
X62900789Y-63177466D01*
X62900789Y-63177466D02*
X62967455Y-63144133D01*
X62967455Y-63144133D02*
X63134122Y-63144133D01*
X63134122Y-63144133D02*
X63234122Y-63177466D01*
X63434122Y-63144133D02*
X63834122Y-63144133D01*
X63634122Y-63844133D02*
X63634122Y-63144133D01*
X75109122Y-36219133D02*
X75442455Y-36219133D01*
X75042455Y-36419133D02*
X75275789Y-35719133D01*
X75275789Y-35719133D02*
X75509122Y-36419133D01*
X75742455Y-36419133D02*
X75742455Y-35719133D01*
X75742455Y-36052466D02*
X76142455Y-36052466D01*
X76142455Y-36419133D02*
X76142455Y-35719133D01*
X79466666Y-45968633D02*
X79466666Y-45268633D01*
X80199999Y-45901966D02*
X80166666Y-45935300D01*
X80166666Y-45935300D02*
X80066666Y-45968633D01*
X80066666Y-45968633D02*
X79999999Y-45968633D01*
X79999999Y-45968633D02*
X79899999Y-45935300D01*
X79899999Y-45935300D02*
X79833333Y-45868633D01*
X79833333Y-45868633D02*
X79799999Y-45801966D01*
X79799999Y-45801966D02*
X79766666Y-45668633D01*
X79766666Y-45668633D02*
X79766666Y-45568633D01*
X79766666Y-45568633D02*
X79799999Y-45435300D01*
X79799999Y-45435300D02*
X79833333Y-45368633D01*
X79833333Y-45368633D02*
X79899999Y-45301966D01*
X79899999Y-45301966D02*
X79999999Y-45268633D01*
X79999999Y-45268633D02*
X80066666Y-45268633D01*
X80066666Y-45268633D02*
X80166666Y-45301966D01*
X80166666Y-45301966D02*
X80199999Y-45335300D01*
X80866666Y-45968633D02*
X80466666Y-45968633D01*
X80666666Y-45968633D02*
X80666666Y-45268633D01*
X80666666Y-45268633D02*
X80599999Y-45368633D01*
X80599999Y-45368633D02*
X80533333Y-45435300D01*
X80533333Y-45435300D02*
X80466666Y-45468633D01*
X82599999Y-42318633D02*
X82366666Y-41985300D01*
X82199999Y-42318633D02*
X82199999Y-41618633D01*
X82199999Y-41618633D02*
X82466666Y-41618633D01*
X82466666Y-41618633D02*
X82533333Y-41651966D01*
X82533333Y-41651966D02*
X82566666Y-41685300D01*
X82566666Y-41685300D02*
X82599999Y-41751966D01*
X82599999Y-41751966D02*
X82599999Y-41851966D01*
X82599999Y-41851966D02*
X82566666Y-41918633D01*
X82566666Y-41918633D02*
X82533333Y-41951966D01*
X82533333Y-41951966D02*
X82466666Y-41985300D01*
X82466666Y-41985300D02*
X82199999Y-41985300D01*
X83266666Y-42318633D02*
X82866666Y-42318633D01*
X83066666Y-42318633D02*
X83066666Y-41618633D01*
X83066666Y-41618633D02*
X82999999Y-41718633D01*
X82999999Y-41718633D02*
X82933333Y-41785300D01*
X82933333Y-41785300D02*
X82866666Y-41818633D01*
X83500000Y-41618633D02*
X83966666Y-41618633D01*
X83966666Y-41618633D02*
X83666666Y-42318633D01*
X59651966Y-53666666D02*
X59685300Y-53699999D01*
X59685300Y-53699999D02*
X59718633Y-53799999D01*
X59718633Y-53799999D02*
X59718633Y-53866666D01*
X59718633Y-53866666D02*
X59685300Y-53966666D01*
X59685300Y-53966666D02*
X59618633Y-54033333D01*
X59618633Y-54033333D02*
X59551966Y-54066666D01*
X59551966Y-54066666D02*
X59418633Y-54099999D01*
X59418633Y-54099999D02*
X59318633Y-54099999D01*
X59318633Y-54099999D02*
X59185300Y-54066666D01*
X59185300Y-54066666D02*
X59118633Y-54033333D01*
X59118633Y-54033333D02*
X59051966Y-53966666D01*
X59051966Y-53966666D02*
X59018633Y-53866666D01*
X59018633Y-53866666D02*
X59018633Y-53799999D01*
X59018633Y-53799999D02*
X59051966Y-53699999D01*
X59051966Y-53699999D02*
X59085300Y-53666666D01*
X59018633Y-53066666D02*
X59018633Y-53199999D01*
X59018633Y-53199999D02*
X59051966Y-53266666D01*
X59051966Y-53266666D02*
X59085300Y-53299999D01*
X59085300Y-53299999D02*
X59185300Y-53366666D01*
X59185300Y-53366666D02*
X59318633Y-53399999D01*
X59318633Y-53399999D02*
X59585300Y-53399999D01*
X59585300Y-53399999D02*
X59651966Y-53366666D01*
X59651966Y-53366666D02*
X59685300Y-53333333D01*
X59685300Y-53333333D02*
X59718633Y-53266666D01*
X59718633Y-53266666D02*
X59718633Y-53133333D01*
X59718633Y-53133333D02*
X59685300Y-53066666D01*
X59685300Y-53066666D02*
X59651966Y-53033333D01*
X59651966Y-53033333D02*
X59585300Y-52999999D01*
X59585300Y-52999999D02*
X59418633Y-52999999D01*
X59418633Y-52999999D02*
X59351966Y-53033333D01*
X59351966Y-53033333D02*
X59318633Y-53066666D01*
X59318633Y-53066666D02*
X59285300Y-53133333D01*
X59285300Y-53133333D02*
X59285300Y-53266666D01*
X59285300Y-53266666D02*
X59318633Y-53333333D01*
X59318633Y-53333333D02*
X59351966Y-53366666D01*
X59351966Y-53366666D02*
X59418633Y-53399999D01*
X64558633Y-61626666D02*
X64225300Y-61859999D01*
X64558633Y-62026666D02*
X63858633Y-62026666D01*
X63858633Y-62026666D02*
X63858633Y-61759999D01*
X63858633Y-61759999D02*
X63891966Y-61693333D01*
X63891966Y-61693333D02*
X63925300Y-61659999D01*
X63925300Y-61659999D02*
X63991966Y-61626666D01*
X63991966Y-61626666D02*
X64091966Y-61626666D01*
X64091966Y-61626666D02*
X64158633Y-61659999D01*
X64158633Y-61659999D02*
X64191966Y-61693333D01*
X64191966Y-61693333D02*
X64225300Y-61759999D01*
X64225300Y-61759999D02*
X64225300Y-62026666D01*
X64558633Y-61293333D02*
X64558633Y-61159999D01*
X64558633Y-61159999D02*
X64525300Y-61093333D01*
X64525300Y-61093333D02*
X64491966Y-61059999D01*
X64491966Y-61059999D02*
X64391966Y-60993333D01*
X64391966Y-60993333D02*
X64258633Y-60959999D01*
X64258633Y-60959999D02*
X63991966Y-60959999D01*
X63991966Y-60959999D02*
X63925300Y-60993333D01*
X63925300Y-60993333D02*
X63891966Y-61026666D01*
X63891966Y-61026666D02*
X63858633Y-61093333D01*
X63858633Y-61093333D02*
X63858633Y-61226666D01*
X63858633Y-61226666D02*
X63891966Y-61293333D01*
X63891966Y-61293333D02*
X63925300Y-61326666D01*
X63925300Y-61326666D02*
X63991966Y-61359999D01*
X63991966Y-61359999D02*
X64158633Y-61359999D01*
X64158633Y-61359999D02*
X64225300Y-61326666D01*
X64225300Y-61326666D02*
X64258633Y-61293333D01*
X64258633Y-61293333D02*
X64291966Y-61226666D01*
X64291966Y-61226666D02*
X64291966Y-61093333D01*
X64291966Y-61093333D02*
X64258633Y-61026666D01*
X64258633Y-61026666D02*
X64225300Y-60993333D01*
X64225300Y-60993333D02*
X64158633Y-60959999D01*
X92499999Y-41318633D02*
X92266666Y-40985300D01*
X92099999Y-41318633D02*
X92099999Y-40618633D01*
X92099999Y-40618633D02*
X92366666Y-40618633D01*
X92366666Y-40618633D02*
X92433333Y-40651966D01*
X92433333Y-40651966D02*
X92466666Y-40685300D01*
X92466666Y-40685300D02*
X92499999Y-40751966D01*
X92499999Y-40751966D02*
X92499999Y-40851966D01*
X92499999Y-40851966D02*
X92466666Y-40918633D01*
X92466666Y-40918633D02*
X92433333Y-40951966D01*
X92433333Y-40951966D02*
X92366666Y-40985300D01*
X92366666Y-40985300D02*
X92099999Y-40985300D01*
X93166666Y-41318633D02*
X92766666Y-41318633D01*
X92966666Y-41318633D02*
X92966666Y-40618633D01*
X92966666Y-40618633D02*
X92899999Y-40718633D01*
X92899999Y-40718633D02*
X92833333Y-40785300D01*
X92833333Y-40785300D02*
X92766666Y-40818633D01*
X93566666Y-40918633D02*
X93500000Y-40885300D01*
X93500000Y-40885300D02*
X93466666Y-40851966D01*
X93466666Y-40851966D02*
X93433333Y-40785300D01*
X93433333Y-40785300D02*
X93433333Y-40751966D01*
X93433333Y-40751966D02*
X93466666Y-40685300D01*
X93466666Y-40685300D02*
X93500000Y-40651966D01*
X93500000Y-40651966D02*
X93566666Y-40618633D01*
X93566666Y-40618633D02*
X93700000Y-40618633D01*
X93700000Y-40618633D02*
X93766666Y-40651966D01*
X93766666Y-40651966D02*
X93800000Y-40685300D01*
X93800000Y-40685300D02*
X93833333Y-40751966D01*
X93833333Y-40751966D02*
X93833333Y-40785300D01*
X93833333Y-40785300D02*
X93800000Y-40851966D01*
X93800000Y-40851966D02*
X93766666Y-40885300D01*
X93766666Y-40885300D02*
X93700000Y-40918633D01*
X93700000Y-40918633D02*
X93566666Y-40918633D01*
X93566666Y-40918633D02*
X93500000Y-40951966D01*
X93500000Y-40951966D02*
X93466666Y-40985300D01*
X93466666Y-40985300D02*
X93433333Y-41051966D01*
X93433333Y-41051966D02*
X93433333Y-41185300D01*
X93433333Y-41185300D02*
X93466666Y-41251966D01*
X93466666Y-41251966D02*
X93500000Y-41285300D01*
X93500000Y-41285300D02*
X93566666Y-41318633D01*
X93566666Y-41318633D02*
X93700000Y-41318633D01*
X93700000Y-41318633D02*
X93766666Y-41285300D01*
X93766666Y-41285300D02*
X93800000Y-41251966D01*
X93800000Y-41251966D02*
X93833333Y-41185300D01*
X93833333Y-41185300D02*
X93833333Y-41051966D01*
X93833333Y-41051966D02*
X93800000Y-40985300D01*
X93800000Y-40985300D02*
X93766666Y-40951966D01*
X93766666Y-40951966D02*
X93700000Y-40918633D01*
X58201966Y-50140000D02*
X58235300Y-50173333D01*
X58235300Y-50173333D02*
X58268633Y-50273333D01*
X58268633Y-50273333D02*
X58268633Y-50340000D01*
X58268633Y-50340000D02*
X58235300Y-50440000D01*
X58235300Y-50440000D02*
X58168633Y-50506667D01*
X58168633Y-50506667D02*
X58101966Y-50540000D01*
X58101966Y-50540000D02*
X57968633Y-50573333D01*
X57968633Y-50573333D02*
X57868633Y-50573333D01*
X57868633Y-50573333D02*
X57735300Y-50540000D01*
X57735300Y-50540000D02*
X57668633Y-50506667D01*
X57668633Y-50506667D02*
X57601966Y-50440000D01*
X57601966Y-50440000D02*
X57568633Y-50340000D01*
X57568633Y-50340000D02*
X57568633Y-50273333D01*
X57568633Y-50273333D02*
X57601966Y-50173333D01*
X57601966Y-50173333D02*
X57635300Y-50140000D01*
X58268633Y-49473333D02*
X58268633Y-49873333D01*
X58268633Y-49673333D02*
X57568633Y-49673333D01*
X57568633Y-49673333D02*
X57668633Y-49740000D01*
X57668633Y-49740000D02*
X57735300Y-49806667D01*
X57735300Y-49806667D02*
X57768633Y-49873333D01*
X57635300Y-49206666D02*
X57601966Y-49173333D01*
X57601966Y-49173333D02*
X57568633Y-49106666D01*
X57568633Y-49106666D02*
X57568633Y-48940000D01*
X57568633Y-48940000D02*
X57601966Y-48873333D01*
X57601966Y-48873333D02*
X57635300Y-48840000D01*
X57635300Y-48840000D02*
X57701966Y-48806666D01*
X57701966Y-48806666D02*
X57768633Y-48806666D01*
X57768633Y-48806666D02*
X57868633Y-48840000D01*
X57868633Y-48840000D02*
X58268633Y-49240000D01*
X58268633Y-49240000D02*
X58268633Y-48806666D01*
X101299999Y-56643633D02*
X101066666Y-56310300D01*
X100899999Y-56643633D02*
X100899999Y-55943633D01*
X100899999Y-55943633D02*
X101166666Y-55943633D01*
X101166666Y-55943633D02*
X101233333Y-55976966D01*
X101233333Y-55976966D02*
X101266666Y-56010300D01*
X101266666Y-56010300D02*
X101299999Y-56076966D01*
X101299999Y-56076966D02*
X101299999Y-56176966D01*
X101299999Y-56176966D02*
X101266666Y-56243633D01*
X101266666Y-56243633D02*
X101233333Y-56276966D01*
X101233333Y-56276966D02*
X101166666Y-56310300D01*
X101166666Y-56310300D02*
X100899999Y-56310300D01*
X101566666Y-56010300D02*
X101599999Y-55976966D01*
X101599999Y-55976966D02*
X101666666Y-55943633D01*
X101666666Y-55943633D02*
X101833333Y-55943633D01*
X101833333Y-55943633D02*
X101899999Y-55976966D01*
X101899999Y-55976966D02*
X101933333Y-56010300D01*
X101933333Y-56010300D02*
X101966666Y-56076966D01*
X101966666Y-56076966D02*
X101966666Y-56143633D01*
X101966666Y-56143633D02*
X101933333Y-56243633D01*
X101933333Y-56243633D02*
X101533333Y-56643633D01*
X101533333Y-56643633D02*
X101966666Y-56643633D01*
X102200000Y-55943633D02*
X102633333Y-55943633D01*
X102633333Y-55943633D02*
X102400000Y-56210300D01*
X102400000Y-56210300D02*
X102500000Y-56210300D01*
X102500000Y-56210300D02*
X102566666Y-56243633D01*
X102566666Y-56243633D02*
X102600000Y-56276966D01*
X102600000Y-56276966D02*
X102633333Y-56343633D01*
X102633333Y-56343633D02*
X102633333Y-56510300D01*
X102633333Y-56510300D02*
X102600000Y-56576966D01*
X102600000Y-56576966D02*
X102566666Y-56610300D01*
X102566666Y-56610300D02*
X102500000Y-56643633D01*
X102500000Y-56643633D02*
X102300000Y-56643633D01*
X102300000Y-56643633D02*
X102233333Y-56610300D01*
X102233333Y-56610300D02*
X102200000Y-56576966D01*
X60318633Y-43386667D02*
X60318633Y-43720000D01*
X60318633Y-43720000D02*
X59618633Y-43720000D01*
X60318633Y-42786666D02*
X60318633Y-43186666D01*
X60318633Y-42986666D02*
X59618633Y-42986666D01*
X59618633Y-42986666D02*
X59718633Y-43053333D01*
X59718633Y-43053333D02*
X59785300Y-43120000D01*
X59785300Y-43120000D02*
X59818633Y-43186666D01*
X101283333Y-44218633D02*
X101050000Y-43885300D01*
X100883333Y-44218633D02*
X100883333Y-43518633D01*
X100883333Y-43518633D02*
X101150000Y-43518633D01*
X101150000Y-43518633D02*
X101216667Y-43551966D01*
X101216667Y-43551966D02*
X101250000Y-43585300D01*
X101250000Y-43585300D02*
X101283333Y-43651966D01*
X101283333Y-43651966D02*
X101283333Y-43751966D01*
X101283333Y-43751966D02*
X101250000Y-43818633D01*
X101250000Y-43818633D02*
X101216667Y-43851966D01*
X101216667Y-43851966D02*
X101150000Y-43885300D01*
X101150000Y-43885300D02*
X100883333Y-43885300D01*
X101916667Y-43518633D02*
X101583333Y-43518633D01*
X101583333Y-43518633D02*
X101550000Y-43851966D01*
X101550000Y-43851966D02*
X101583333Y-43818633D01*
X101583333Y-43818633D02*
X101650000Y-43785300D01*
X101650000Y-43785300D02*
X101816667Y-43785300D01*
X101816667Y-43785300D02*
X101883333Y-43818633D01*
X101883333Y-43818633D02*
X101916667Y-43851966D01*
X101916667Y-43851966D02*
X101950000Y-43918633D01*
X101950000Y-43918633D02*
X101950000Y-44085300D01*
X101950000Y-44085300D02*
X101916667Y-44151966D01*
X101916667Y-44151966D02*
X101883333Y-44185300D01*
X101883333Y-44185300D02*
X101816667Y-44218633D01*
X101816667Y-44218633D02*
X101650000Y-44218633D01*
X101650000Y-44218633D02*
X101583333Y-44185300D01*
X101583333Y-44185300D02*
X101550000Y-44151966D01*
X63701966Y-47856664D02*
X63735300Y-47889997D01*
X63735300Y-47889997D02*
X63768633Y-47989997D01*
X63768633Y-47989997D02*
X63768633Y-48056664D01*
X63768633Y-48056664D02*
X63735300Y-48156664D01*
X63735300Y-48156664D02*
X63668633Y-48223331D01*
X63668633Y-48223331D02*
X63601966Y-48256664D01*
X63601966Y-48256664D02*
X63468633Y-48289997D01*
X63468633Y-48289997D02*
X63368633Y-48289997D01*
X63368633Y-48289997D02*
X63235300Y-48256664D01*
X63235300Y-48256664D02*
X63168633Y-48223331D01*
X63168633Y-48223331D02*
X63101966Y-48156664D01*
X63101966Y-48156664D02*
X63068633Y-48056664D01*
X63068633Y-48056664D02*
X63068633Y-47989997D01*
X63068633Y-47989997D02*
X63101966Y-47889997D01*
X63101966Y-47889997D02*
X63135300Y-47856664D01*
X63768633Y-47523331D02*
X63768633Y-47389997D01*
X63768633Y-47389997D02*
X63735300Y-47323331D01*
X63735300Y-47323331D02*
X63701966Y-47289997D01*
X63701966Y-47289997D02*
X63601966Y-47223331D01*
X63601966Y-47223331D02*
X63468633Y-47189997D01*
X63468633Y-47189997D02*
X63201966Y-47189997D01*
X63201966Y-47189997D02*
X63135300Y-47223331D01*
X63135300Y-47223331D02*
X63101966Y-47256664D01*
X63101966Y-47256664D02*
X63068633Y-47323331D01*
X63068633Y-47323331D02*
X63068633Y-47456664D01*
X63068633Y-47456664D02*
X63101966Y-47523331D01*
X63101966Y-47523331D02*
X63135300Y-47556664D01*
X63135300Y-47556664D02*
X63201966Y-47589997D01*
X63201966Y-47589997D02*
X63368633Y-47589997D01*
X63368633Y-47589997D02*
X63435300Y-47556664D01*
X63435300Y-47556664D02*
X63468633Y-47523331D01*
X63468633Y-47523331D02*
X63501966Y-47456664D01*
X63501966Y-47456664D02*
X63501966Y-47323331D01*
X63501966Y-47323331D02*
X63468633Y-47256664D01*
X63468633Y-47256664D02*
X63435300Y-47223331D01*
X63435300Y-47223331D02*
X63368633Y-47189997D01*
X82101966Y-52350000D02*
X82135300Y-52383333D01*
X82135300Y-52383333D02*
X82168633Y-52483333D01*
X82168633Y-52483333D02*
X82168633Y-52550000D01*
X82168633Y-52550000D02*
X82135300Y-52650000D01*
X82135300Y-52650000D02*
X82068633Y-52716667D01*
X82068633Y-52716667D02*
X82001966Y-52750000D01*
X82001966Y-52750000D02*
X81868633Y-52783333D01*
X81868633Y-52783333D02*
X81768633Y-52783333D01*
X81768633Y-52783333D02*
X81635300Y-52750000D01*
X81635300Y-52750000D02*
X81568633Y-52716667D01*
X81568633Y-52716667D02*
X81501966Y-52650000D01*
X81501966Y-52650000D02*
X81468633Y-52550000D01*
X81468633Y-52550000D02*
X81468633Y-52483333D01*
X81468633Y-52483333D02*
X81501966Y-52383333D01*
X81501966Y-52383333D02*
X81535300Y-52350000D01*
X82168633Y-51683333D02*
X82168633Y-52083333D01*
X82168633Y-51883333D02*
X81468633Y-51883333D01*
X81468633Y-51883333D02*
X81568633Y-51950000D01*
X81568633Y-51950000D02*
X81635300Y-52016667D01*
X81635300Y-52016667D02*
X81668633Y-52083333D01*
X81768633Y-51283333D02*
X81735300Y-51350000D01*
X81735300Y-51350000D02*
X81701966Y-51383333D01*
X81701966Y-51383333D02*
X81635300Y-51416666D01*
X81635300Y-51416666D02*
X81601966Y-51416666D01*
X81601966Y-51416666D02*
X81535300Y-51383333D01*
X81535300Y-51383333D02*
X81501966Y-51350000D01*
X81501966Y-51350000D02*
X81468633Y-51283333D01*
X81468633Y-51283333D02*
X81468633Y-51150000D01*
X81468633Y-51150000D02*
X81501966Y-51083333D01*
X81501966Y-51083333D02*
X81535300Y-51050000D01*
X81535300Y-51050000D02*
X81601966Y-51016666D01*
X81601966Y-51016666D02*
X81635300Y-51016666D01*
X81635300Y-51016666D02*
X81701966Y-51050000D01*
X81701966Y-51050000D02*
X81735300Y-51083333D01*
X81735300Y-51083333D02*
X81768633Y-51150000D01*
X81768633Y-51150000D02*
X81768633Y-51283333D01*
X81768633Y-51283333D02*
X81801966Y-51350000D01*
X81801966Y-51350000D02*
X81835300Y-51383333D01*
X81835300Y-51383333D02*
X81901966Y-51416666D01*
X81901966Y-51416666D02*
X82035300Y-51416666D01*
X82035300Y-51416666D02*
X82101966Y-51383333D01*
X82101966Y-51383333D02*
X82135300Y-51350000D01*
X82135300Y-51350000D02*
X82168633Y-51283333D01*
X82168633Y-51283333D02*
X82168633Y-51150000D01*
X82168633Y-51150000D02*
X82135300Y-51083333D01*
X82135300Y-51083333D02*
X82101966Y-51050000D01*
X82101966Y-51050000D02*
X82035300Y-51016666D01*
X82035300Y-51016666D02*
X81901966Y-51016666D01*
X81901966Y-51016666D02*
X81835300Y-51050000D01*
X81835300Y-51050000D02*
X81801966Y-51083333D01*
X81801966Y-51083333D02*
X81768633Y-51150000D01*
X92499999Y-66168633D02*
X92266666Y-65835300D01*
X92099999Y-66168633D02*
X92099999Y-65468633D01*
X92099999Y-65468633D02*
X92366666Y-65468633D01*
X92366666Y-65468633D02*
X92433333Y-65501966D01*
X92433333Y-65501966D02*
X92466666Y-65535300D01*
X92466666Y-65535300D02*
X92499999Y-65601966D01*
X92499999Y-65601966D02*
X92499999Y-65701966D01*
X92499999Y-65701966D02*
X92466666Y-65768633D01*
X92466666Y-65768633D02*
X92433333Y-65801966D01*
X92433333Y-65801966D02*
X92366666Y-65835300D01*
X92366666Y-65835300D02*
X92099999Y-65835300D01*
X92766666Y-65535300D02*
X92799999Y-65501966D01*
X92799999Y-65501966D02*
X92866666Y-65468633D01*
X92866666Y-65468633D02*
X93033333Y-65468633D01*
X93033333Y-65468633D02*
X93099999Y-65501966D01*
X93099999Y-65501966D02*
X93133333Y-65535300D01*
X93133333Y-65535300D02*
X93166666Y-65601966D01*
X93166666Y-65601966D02*
X93166666Y-65668633D01*
X93166666Y-65668633D02*
X93133333Y-65768633D01*
X93133333Y-65768633D02*
X92733333Y-66168633D01*
X92733333Y-66168633D02*
X93166666Y-66168633D01*
X93433333Y-65535300D02*
X93466666Y-65501966D01*
X93466666Y-65501966D02*
X93533333Y-65468633D01*
X93533333Y-65468633D02*
X93700000Y-65468633D01*
X93700000Y-65468633D02*
X93766666Y-65501966D01*
X93766666Y-65501966D02*
X93800000Y-65535300D01*
X93800000Y-65535300D02*
X93833333Y-65601966D01*
X93833333Y-65601966D02*
X93833333Y-65668633D01*
X93833333Y-65668633D02*
X93800000Y-65768633D01*
X93800000Y-65768633D02*
X93400000Y-66168633D01*
X93400000Y-66168633D02*
X93833333Y-66168633D01*
X95536667Y-54561966D02*
X95636667Y-54595300D01*
X95636667Y-54595300D02*
X95670000Y-54628633D01*
X95670000Y-54628633D02*
X95703333Y-54695300D01*
X95703333Y-54695300D02*
X95703333Y-54795300D01*
X95703333Y-54795300D02*
X95670000Y-54861966D01*
X95670000Y-54861966D02*
X95636667Y-54895300D01*
X95636667Y-54895300D02*
X95570000Y-54928633D01*
X95570000Y-54928633D02*
X95303333Y-54928633D01*
X95303333Y-54928633D02*
X95303333Y-54228633D01*
X95303333Y-54228633D02*
X95536667Y-54228633D01*
X95536667Y-54228633D02*
X95603333Y-54261966D01*
X95603333Y-54261966D02*
X95636667Y-54295300D01*
X95636667Y-54295300D02*
X95670000Y-54361966D01*
X95670000Y-54361966D02*
X95670000Y-54428633D01*
X95670000Y-54428633D02*
X95636667Y-54495300D01*
X95636667Y-54495300D02*
X95603333Y-54528633D01*
X95603333Y-54528633D02*
X95536667Y-54561966D01*
X95536667Y-54561966D02*
X95303333Y-54561966D01*
X96336667Y-54928633D02*
X96003333Y-54928633D01*
X96003333Y-54928633D02*
X96003333Y-54228633D01*
X101666666Y-47458633D02*
X101666666Y-47958633D01*
X101666666Y-47958633D02*
X101633333Y-48058633D01*
X101633333Y-48058633D02*
X101566666Y-48125300D01*
X101566666Y-48125300D02*
X101466666Y-48158633D01*
X101466666Y-48158633D02*
X101400000Y-48158633D01*
X101933333Y-47458633D02*
X102399999Y-47458633D01*
X102399999Y-47458633D02*
X102099999Y-48158633D01*
X67083333Y-46018633D02*
X67016667Y-45985300D01*
X67016667Y-45985300D02*
X66983333Y-45951966D01*
X66983333Y-45951966D02*
X66950000Y-45885300D01*
X66950000Y-45885300D02*
X66950000Y-45851966D01*
X66950000Y-45851966D02*
X66983333Y-45785300D01*
X66983333Y-45785300D02*
X67016667Y-45751966D01*
X67016667Y-45751966D02*
X67083333Y-45718633D01*
X67083333Y-45718633D02*
X67216667Y-45718633D01*
X67216667Y-45718633D02*
X67283333Y-45751966D01*
X67283333Y-45751966D02*
X67316667Y-45785300D01*
X67316667Y-45785300D02*
X67350000Y-45851966D01*
X67350000Y-45851966D02*
X67350000Y-45885300D01*
X67350000Y-45885300D02*
X67316667Y-45951966D01*
X67316667Y-45951966D02*
X67283333Y-45985300D01*
X67283333Y-45985300D02*
X67216667Y-46018633D01*
X67216667Y-46018633D02*
X67083333Y-46018633D01*
X67083333Y-46018633D02*
X67016667Y-46051966D01*
X67016667Y-46051966D02*
X66983333Y-46085300D01*
X66983333Y-46085300D02*
X66950000Y-46151966D01*
X66950000Y-46151966D02*
X66950000Y-46285300D01*
X66950000Y-46285300D02*
X66983333Y-46351966D01*
X66983333Y-46351966D02*
X67016667Y-46385300D01*
X67016667Y-46385300D02*
X67083333Y-46418633D01*
X67083333Y-46418633D02*
X67216667Y-46418633D01*
X67216667Y-46418633D02*
X67283333Y-46385300D01*
X67283333Y-46385300D02*
X67316667Y-46351966D01*
X67316667Y-46351966D02*
X67350000Y-46285300D01*
X67350000Y-46285300D02*
X67350000Y-46151966D01*
X67350000Y-46151966D02*
X67316667Y-46085300D01*
X67316667Y-46085300D02*
X67283333Y-46051966D01*
X67283333Y-46051966D02*
X67216667Y-46018633D01*
X67650000Y-46418633D02*
X67650000Y-45718633D01*
X67650000Y-45718633D02*
X67883334Y-46218633D01*
X67883334Y-46218633D02*
X68116667Y-45718633D01*
X68116667Y-45718633D02*
X68116667Y-46418633D01*
X68450000Y-46418633D02*
X68450000Y-45718633D01*
X68450000Y-46051966D02*
X68850000Y-46051966D01*
X68850000Y-46418633D02*
X68850000Y-45718633D01*
X69116667Y-45951966D02*
X69483333Y-45951966D01*
X69483333Y-45951966D02*
X69116667Y-46418633D01*
X69116667Y-46418633D02*
X69483333Y-46418633D01*
X50266666Y-61708633D02*
X50266666Y-62208633D01*
X50266666Y-62208633D02*
X50233333Y-62308633D01*
X50233333Y-62308633D02*
X50166666Y-62375300D01*
X50166666Y-62375300D02*
X50066666Y-62408633D01*
X50066666Y-62408633D02*
X50000000Y-62408633D01*
X50933333Y-61708633D02*
X50599999Y-61708633D01*
X50599999Y-61708633D02*
X50566666Y-62041966D01*
X50566666Y-62041966D02*
X50599999Y-62008633D01*
X50599999Y-62008633D02*
X50666666Y-61975300D01*
X50666666Y-61975300D02*
X50833333Y-61975300D01*
X50833333Y-61975300D02*
X50899999Y-62008633D01*
X50899999Y-62008633D02*
X50933333Y-62041966D01*
X50933333Y-62041966D02*
X50966666Y-62108633D01*
X50966666Y-62108633D02*
X50966666Y-62275300D01*
X50966666Y-62275300D02*
X50933333Y-62341966D01*
X50933333Y-62341966D02*
X50899999Y-62375300D01*
X50899999Y-62375300D02*
X50833333Y-62408633D01*
X50833333Y-62408633D02*
X50666666Y-62408633D01*
X50666666Y-62408633D02*
X50599999Y-62375300D01*
X50599999Y-62375300D02*
X50566666Y-62341966D01*
X82649999Y-40848633D02*
X82416666Y-40515300D01*
X82249999Y-40848633D02*
X82249999Y-40148633D01*
X82249999Y-40148633D02*
X82516666Y-40148633D01*
X82516666Y-40148633D02*
X82583333Y-40181966D01*
X82583333Y-40181966D02*
X82616666Y-40215300D01*
X82616666Y-40215300D02*
X82649999Y-40281966D01*
X82649999Y-40281966D02*
X82649999Y-40381966D01*
X82649999Y-40381966D02*
X82616666Y-40448633D01*
X82616666Y-40448633D02*
X82583333Y-40481966D01*
X82583333Y-40481966D02*
X82516666Y-40515300D01*
X82516666Y-40515300D02*
X82249999Y-40515300D01*
X83316666Y-40848633D02*
X82916666Y-40848633D01*
X83116666Y-40848633D02*
X83116666Y-40148633D01*
X83116666Y-40148633D02*
X83049999Y-40248633D01*
X83049999Y-40248633D02*
X82983333Y-40315300D01*
X82983333Y-40315300D02*
X82916666Y-40348633D01*
X83916666Y-40148633D02*
X83783333Y-40148633D01*
X83783333Y-40148633D02*
X83716666Y-40181966D01*
X83716666Y-40181966D02*
X83683333Y-40215300D01*
X83683333Y-40215300D02*
X83616666Y-40315300D01*
X83616666Y-40315300D02*
X83583333Y-40448633D01*
X83583333Y-40448633D02*
X83583333Y-40715300D01*
X83583333Y-40715300D02*
X83616666Y-40781966D01*
X83616666Y-40781966D02*
X83650000Y-40815300D01*
X83650000Y-40815300D02*
X83716666Y-40848633D01*
X83716666Y-40848633D02*
X83850000Y-40848633D01*
X83850000Y-40848633D02*
X83916666Y-40815300D01*
X83916666Y-40815300D02*
X83950000Y-40781966D01*
X83950000Y-40781966D02*
X83983333Y-40715300D01*
X83983333Y-40715300D02*
X83983333Y-40548633D01*
X83983333Y-40548633D02*
X83950000Y-40481966D01*
X83950000Y-40481966D02*
X83916666Y-40448633D01*
X83916666Y-40448633D02*
X83850000Y-40415300D01*
X83850000Y-40415300D02*
X83716666Y-40415300D01*
X83716666Y-40415300D02*
X83650000Y-40448633D01*
X83650000Y-40448633D02*
X83616666Y-40481966D01*
X83616666Y-40481966D02*
X83583333Y-40548633D01*
X61673333Y-40418633D02*
X61440000Y-40085300D01*
X61273333Y-40418633D02*
X61273333Y-39718633D01*
X61273333Y-39718633D02*
X61540000Y-39718633D01*
X61540000Y-39718633D02*
X61606667Y-39751966D01*
X61606667Y-39751966D02*
X61640000Y-39785300D01*
X61640000Y-39785300D02*
X61673333Y-39851966D01*
X61673333Y-39851966D02*
X61673333Y-39951966D01*
X61673333Y-39951966D02*
X61640000Y-40018633D01*
X61640000Y-40018633D02*
X61606667Y-40051966D01*
X61606667Y-40051966D02*
X61540000Y-40085300D01*
X61540000Y-40085300D02*
X61273333Y-40085300D01*
X62340000Y-40418633D02*
X61940000Y-40418633D01*
X62140000Y-40418633D02*
X62140000Y-39718633D01*
X62140000Y-39718633D02*
X62073333Y-39818633D01*
X62073333Y-39818633D02*
X62006667Y-39885300D01*
X62006667Y-39885300D02*
X61940000Y-39918633D01*
X55353634Y-32809969D02*
X55306493Y-32809969D01*
X55306493Y-32809969D02*
X55212213Y-32762828D01*
X55212213Y-32762828D02*
X55165072Y-32715688D01*
X55165072Y-32715688D02*
X55117932Y-32621407D01*
X55117932Y-32621407D02*
X55117932Y-32527126D01*
X55117932Y-32527126D02*
X55141502Y-32456415D01*
X55141502Y-32456415D02*
X55212213Y-32338564D01*
X55212213Y-32338564D02*
X55282923Y-32267853D01*
X55282923Y-32267853D02*
X55400774Y-32197143D01*
X55400774Y-32197143D02*
X55471485Y-32173572D01*
X55471485Y-32173572D02*
X55565766Y-32173572D01*
X55565766Y-32173572D02*
X55660047Y-32220713D01*
X55660047Y-32220713D02*
X55707187Y-32267853D01*
X55707187Y-32267853D02*
X55754328Y-32362134D01*
X55754328Y-32362134D02*
X55754328Y-32409275D01*
X55942890Y-32597837D02*
X55990030Y-32597837D01*
X55990030Y-32597837D02*
X56060741Y-32621407D01*
X56060741Y-32621407D02*
X56178592Y-32739258D01*
X56178592Y-32739258D02*
X56202162Y-32809969D01*
X56202162Y-32809969D02*
X56202162Y-32857109D01*
X56202162Y-32857109D02*
X56178592Y-32927820D01*
X56178592Y-32927820D02*
X56131451Y-32974960D01*
X56131451Y-32974960D02*
X56037170Y-33022101D01*
X56037170Y-33022101D02*
X55471485Y-33022101D01*
X55471485Y-33022101D02*
X55777898Y-33328514D01*
X56579286Y-33139952D02*
X56626426Y-33187092D01*
X56626426Y-33187092D02*
X56649997Y-33257803D01*
X56649997Y-33257803D02*
X56649997Y-33304944D01*
X56649997Y-33304944D02*
X56626426Y-33375654D01*
X56626426Y-33375654D02*
X56555716Y-33493505D01*
X56555716Y-33493505D02*
X56437865Y-33611356D01*
X56437865Y-33611356D02*
X56320013Y-33682067D01*
X56320013Y-33682067D02*
X56249303Y-33705637D01*
X56249303Y-33705637D02*
X56202162Y-33705637D01*
X56202162Y-33705637D02*
X56131452Y-33682067D01*
X56131452Y-33682067D02*
X56084311Y-33634927D01*
X56084311Y-33634927D02*
X56060741Y-33564216D01*
X56060741Y-33564216D02*
X56060741Y-33517076D01*
X56060741Y-33517076D02*
X56084311Y-33446365D01*
X56084311Y-33446365D02*
X56155022Y-33328514D01*
X56155022Y-33328514D02*
X56272873Y-33210663D01*
X56272873Y-33210663D02*
X56390724Y-33139952D01*
X56390724Y-33139952D02*
X56461435Y-33116382D01*
X56461435Y-33116382D02*
X56508575Y-33116382D01*
X56508575Y-33116382D02*
X56579286Y-33139952D01*
X102433333Y-43104308D02*
X102200000Y-42770975D01*
X102033333Y-43104308D02*
X102033333Y-42404308D01*
X102033333Y-42404308D02*
X102300000Y-42404308D01*
X102300000Y-42404308D02*
X102366667Y-42437641D01*
X102366667Y-42437641D02*
X102400000Y-42470975D01*
X102400000Y-42470975D02*
X102433333Y-42537641D01*
X102433333Y-42537641D02*
X102433333Y-42637641D01*
X102433333Y-42637641D02*
X102400000Y-42704308D01*
X102400000Y-42704308D02*
X102366667Y-42737641D01*
X102366667Y-42737641D02*
X102300000Y-42770975D01*
X102300000Y-42770975D02*
X102033333Y-42770975D01*
X103033333Y-42637641D02*
X103033333Y-43104308D01*
X102866667Y-42370975D02*
X102700000Y-42870975D01*
X102700000Y-42870975D02*
X103133333Y-42870975D01*
X79566666Y-52168633D02*
X79566666Y-51468633D01*
X80299999Y-52101966D02*
X80266666Y-52135300D01*
X80266666Y-52135300D02*
X80166666Y-52168633D01*
X80166666Y-52168633D02*
X80099999Y-52168633D01*
X80099999Y-52168633D02*
X79999999Y-52135300D01*
X79999999Y-52135300D02*
X79933333Y-52068633D01*
X79933333Y-52068633D02*
X79899999Y-52001966D01*
X79899999Y-52001966D02*
X79866666Y-51868633D01*
X79866666Y-51868633D02*
X79866666Y-51768633D01*
X79866666Y-51768633D02*
X79899999Y-51635300D01*
X79899999Y-51635300D02*
X79933333Y-51568633D01*
X79933333Y-51568633D02*
X79999999Y-51501966D01*
X79999999Y-51501966D02*
X80099999Y-51468633D01*
X80099999Y-51468633D02*
X80166666Y-51468633D01*
X80166666Y-51468633D02*
X80266666Y-51501966D01*
X80266666Y-51501966D02*
X80299999Y-51535300D01*
X80566666Y-51535300D02*
X80599999Y-51501966D01*
X80599999Y-51501966D02*
X80666666Y-51468633D01*
X80666666Y-51468633D02*
X80833333Y-51468633D01*
X80833333Y-51468633D02*
X80899999Y-51501966D01*
X80899999Y-51501966D02*
X80933333Y-51535300D01*
X80933333Y-51535300D02*
X80966666Y-51601966D01*
X80966666Y-51601966D02*
X80966666Y-51668633D01*
X80966666Y-51668633D02*
X80933333Y-51768633D01*
X80933333Y-51768633D02*
X80533333Y-52168633D01*
X80533333Y-52168633D02*
X80966666Y-52168633D01*
X62918633Y-49616667D02*
X62918633Y-49950000D01*
X62918633Y-49950000D02*
X62218633Y-49950000D01*
X62285300Y-49416666D02*
X62251966Y-49383333D01*
X62251966Y-49383333D02*
X62218633Y-49316666D01*
X62218633Y-49316666D02*
X62218633Y-49150000D01*
X62218633Y-49150000D02*
X62251966Y-49083333D01*
X62251966Y-49083333D02*
X62285300Y-49050000D01*
X62285300Y-49050000D02*
X62351966Y-49016666D01*
X62351966Y-49016666D02*
X62418633Y-49016666D01*
X62418633Y-49016666D02*
X62518633Y-49050000D01*
X62518633Y-49050000D02*
X62918633Y-49450000D01*
X62918633Y-49450000D02*
X62918633Y-49016666D01*
X98183333Y-56474308D02*
X97950000Y-56140975D01*
X97783333Y-56474308D02*
X97783333Y-55774308D01*
X97783333Y-55774308D02*
X98050000Y-55774308D01*
X98050000Y-55774308D02*
X98116667Y-55807641D01*
X98116667Y-55807641D02*
X98150000Y-55840975D01*
X98150000Y-55840975D02*
X98183333Y-55907641D01*
X98183333Y-55907641D02*
X98183333Y-56007641D01*
X98183333Y-56007641D02*
X98150000Y-56074308D01*
X98150000Y-56074308D02*
X98116667Y-56107641D01*
X98116667Y-56107641D02*
X98050000Y-56140975D01*
X98050000Y-56140975D02*
X97783333Y-56140975D01*
X98783333Y-55774308D02*
X98650000Y-55774308D01*
X98650000Y-55774308D02*
X98583333Y-55807641D01*
X98583333Y-55807641D02*
X98550000Y-55840975D01*
X98550000Y-55840975D02*
X98483333Y-55940975D01*
X98483333Y-55940975D02*
X98450000Y-56074308D01*
X98450000Y-56074308D02*
X98450000Y-56340975D01*
X98450000Y-56340975D02*
X98483333Y-56407641D01*
X98483333Y-56407641D02*
X98516667Y-56440975D01*
X98516667Y-56440975D02*
X98583333Y-56474308D01*
X98583333Y-56474308D02*
X98716667Y-56474308D01*
X98716667Y-56474308D02*
X98783333Y-56440975D01*
X98783333Y-56440975D02*
X98816667Y-56407641D01*
X98816667Y-56407641D02*
X98850000Y-56340975D01*
X98850000Y-56340975D02*
X98850000Y-56174308D01*
X98850000Y-56174308D02*
X98816667Y-56107641D01*
X98816667Y-56107641D02*
X98783333Y-56074308D01*
X98783333Y-56074308D02*
X98716667Y-56040975D01*
X98716667Y-56040975D02*
X98583333Y-56040975D01*
X98583333Y-56040975D02*
X98516667Y-56074308D01*
X98516667Y-56074308D02*
X98483333Y-56107641D01*
X98483333Y-56107641D02*
X98450000Y-56174308D01*
X96451966Y-56810000D02*
X96485300Y-56843333D01*
X96485300Y-56843333D02*
X96518633Y-56943333D01*
X96518633Y-56943333D02*
X96518633Y-57010000D01*
X96518633Y-57010000D02*
X96485300Y-57110000D01*
X96485300Y-57110000D02*
X96418633Y-57176667D01*
X96418633Y-57176667D02*
X96351966Y-57210000D01*
X96351966Y-57210000D02*
X96218633Y-57243333D01*
X96218633Y-57243333D02*
X96118633Y-57243333D01*
X96118633Y-57243333D02*
X95985300Y-57210000D01*
X95985300Y-57210000D02*
X95918633Y-57176667D01*
X95918633Y-57176667D02*
X95851966Y-57110000D01*
X95851966Y-57110000D02*
X95818633Y-57010000D01*
X95818633Y-57010000D02*
X95818633Y-56943333D01*
X95818633Y-56943333D02*
X95851966Y-56843333D01*
X95851966Y-56843333D02*
X95885300Y-56810000D01*
X96518633Y-56143333D02*
X96518633Y-56543333D01*
X96518633Y-56343333D02*
X95818633Y-56343333D01*
X95818633Y-56343333D02*
X95918633Y-56410000D01*
X95918633Y-56410000D02*
X95985300Y-56476667D01*
X95985300Y-56476667D02*
X96018633Y-56543333D01*
X96518633Y-55476666D02*
X96518633Y-55876666D01*
X96518633Y-55676666D02*
X95818633Y-55676666D01*
X95818633Y-55676666D02*
X95918633Y-55743333D01*
X95918633Y-55743333D02*
X95985300Y-55810000D01*
X95985300Y-55810000D02*
X96018633Y-55876666D01*
X101666666Y-59748633D02*
X101666666Y-60248633D01*
X101666666Y-60248633D02*
X101633333Y-60348633D01*
X101633333Y-60348633D02*
X101566666Y-60415300D01*
X101566666Y-60415300D02*
X101466666Y-60448633D01*
X101466666Y-60448633D02*
X101400000Y-60448633D01*
X102099999Y-60048633D02*
X102033333Y-60015300D01*
X102033333Y-60015300D02*
X101999999Y-59981966D01*
X101999999Y-59981966D02*
X101966666Y-59915300D01*
X101966666Y-59915300D02*
X101966666Y-59881966D01*
X101966666Y-59881966D02*
X101999999Y-59815300D01*
X101999999Y-59815300D02*
X102033333Y-59781966D01*
X102033333Y-59781966D02*
X102099999Y-59748633D01*
X102099999Y-59748633D02*
X102233333Y-59748633D01*
X102233333Y-59748633D02*
X102299999Y-59781966D01*
X102299999Y-59781966D02*
X102333333Y-59815300D01*
X102333333Y-59815300D02*
X102366666Y-59881966D01*
X102366666Y-59881966D02*
X102366666Y-59915300D01*
X102366666Y-59915300D02*
X102333333Y-59981966D01*
X102333333Y-59981966D02*
X102299999Y-60015300D01*
X102299999Y-60015300D02*
X102233333Y-60048633D01*
X102233333Y-60048633D02*
X102099999Y-60048633D01*
X102099999Y-60048633D02*
X102033333Y-60081966D01*
X102033333Y-60081966D02*
X101999999Y-60115300D01*
X101999999Y-60115300D02*
X101966666Y-60181966D01*
X101966666Y-60181966D02*
X101966666Y-60315300D01*
X101966666Y-60315300D02*
X101999999Y-60381966D01*
X101999999Y-60381966D02*
X102033333Y-60415300D01*
X102033333Y-60415300D02*
X102099999Y-60448633D01*
X102099999Y-60448633D02*
X102233333Y-60448633D01*
X102233333Y-60448633D02*
X102299999Y-60415300D01*
X102299999Y-60415300D02*
X102333333Y-60381966D01*
X102333333Y-60381966D02*
X102366666Y-60315300D01*
X102366666Y-60315300D02*
X102366666Y-60181966D01*
X102366666Y-60181966D02*
X102333333Y-60115300D01*
X102333333Y-60115300D02*
X102299999Y-60081966D01*
X102299999Y-60081966D02*
X102233333Y-60048633D01*
X86216666Y-65498633D02*
X86216666Y-65998633D01*
X86216666Y-65998633D02*
X86183333Y-66098633D01*
X86183333Y-66098633D02*
X86116666Y-66165300D01*
X86116666Y-66165300D02*
X86016666Y-66198633D01*
X86016666Y-66198633D02*
X85950000Y-66198633D01*
X86516666Y-65565300D02*
X86549999Y-65531966D01*
X86549999Y-65531966D02*
X86616666Y-65498633D01*
X86616666Y-65498633D02*
X86783333Y-65498633D01*
X86783333Y-65498633D02*
X86849999Y-65531966D01*
X86849999Y-65531966D02*
X86883333Y-65565300D01*
X86883333Y-65565300D02*
X86916666Y-65631966D01*
X86916666Y-65631966D02*
X86916666Y-65698633D01*
X86916666Y-65698633D02*
X86883333Y-65798633D01*
X86883333Y-65798633D02*
X86483333Y-66198633D01*
X86483333Y-66198633D02*
X86916666Y-66198633D01*
X101299999Y-69218633D02*
X101066666Y-68885300D01*
X100899999Y-69218633D02*
X100899999Y-68518633D01*
X100899999Y-68518633D02*
X101166666Y-68518633D01*
X101166666Y-68518633D02*
X101233333Y-68551966D01*
X101233333Y-68551966D02*
X101266666Y-68585300D01*
X101266666Y-68585300D02*
X101299999Y-68651966D01*
X101299999Y-68651966D02*
X101299999Y-68751966D01*
X101299999Y-68751966D02*
X101266666Y-68818633D01*
X101266666Y-68818633D02*
X101233333Y-68851966D01*
X101233333Y-68851966D02*
X101166666Y-68885300D01*
X101166666Y-68885300D02*
X100899999Y-68885300D01*
X101566666Y-68585300D02*
X101599999Y-68551966D01*
X101599999Y-68551966D02*
X101666666Y-68518633D01*
X101666666Y-68518633D02*
X101833333Y-68518633D01*
X101833333Y-68518633D02*
X101899999Y-68551966D01*
X101899999Y-68551966D02*
X101933333Y-68585300D01*
X101933333Y-68585300D02*
X101966666Y-68651966D01*
X101966666Y-68651966D02*
X101966666Y-68718633D01*
X101966666Y-68718633D02*
X101933333Y-68818633D01*
X101933333Y-68818633D02*
X101533333Y-69218633D01*
X101533333Y-69218633D02*
X101966666Y-69218633D01*
X102566666Y-68751966D02*
X102566666Y-69218633D01*
X102400000Y-68485300D02*
X102233333Y-68985300D01*
X102233333Y-68985300D02*
X102666666Y-68985300D01*
X59109999Y-44971966D02*
X59076666Y-45005300D01*
X59076666Y-45005300D02*
X58976666Y-45038633D01*
X58976666Y-45038633D02*
X58909999Y-45038633D01*
X58909999Y-45038633D02*
X58809999Y-45005300D01*
X58809999Y-45005300D02*
X58743333Y-44938633D01*
X58743333Y-44938633D02*
X58709999Y-44871966D01*
X58709999Y-44871966D02*
X58676666Y-44738633D01*
X58676666Y-44738633D02*
X58676666Y-44638633D01*
X58676666Y-44638633D02*
X58709999Y-44505300D01*
X58709999Y-44505300D02*
X58743333Y-44438633D01*
X58743333Y-44438633D02*
X58809999Y-44371966D01*
X58809999Y-44371966D02*
X58909999Y-44338633D01*
X58909999Y-44338633D02*
X58976666Y-44338633D01*
X58976666Y-44338633D02*
X59076666Y-44371966D01*
X59076666Y-44371966D02*
X59109999Y-44405300D01*
X59376666Y-44405300D02*
X59409999Y-44371966D01*
X59409999Y-44371966D02*
X59476666Y-44338633D01*
X59476666Y-44338633D02*
X59643333Y-44338633D01*
X59643333Y-44338633D02*
X59709999Y-44371966D01*
X59709999Y-44371966D02*
X59743333Y-44405300D01*
X59743333Y-44405300D02*
X59776666Y-44471966D01*
X59776666Y-44471966D02*
X59776666Y-44538633D01*
X59776666Y-44538633D02*
X59743333Y-44638633D01*
X59743333Y-44638633D02*
X59343333Y-45038633D01*
X59343333Y-45038633D02*
X59776666Y-45038633D01*
X60010000Y-44338633D02*
X60443333Y-44338633D01*
X60443333Y-44338633D02*
X60210000Y-44605300D01*
X60210000Y-44605300D02*
X60310000Y-44605300D01*
X60310000Y-44605300D02*
X60376666Y-44638633D01*
X60376666Y-44638633D02*
X60410000Y-44671966D01*
X60410000Y-44671966D02*
X60443333Y-44738633D01*
X60443333Y-44738633D02*
X60443333Y-44905300D01*
X60443333Y-44905300D02*
X60410000Y-44971966D01*
X60410000Y-44971966D02*
X60376666Y-45005300D01*
X60376666Y-45005300D02*
X60310000Y-45038633D01*
X60310000Y-45038633D02*
X60110000Y-45038633D01*
X60110000Y-45038633D02*
X60043333Y-45005300D01*
X60043333Y-45005300D02*
X60010000Y-44971966D01*
X55203634Y-41509969D02*
X55156493Y-41509969D01*
X55156493Y-41509969D02*
X55062213Y-41462828D01*
X55062213Y-41462828D02*
X55015072Y-41415688D01*
X55015072Y-41415688D02*
X54967932Y-41321407D01*
X54967932Y-41321407D02*
X54967932Y-41227126D01*
X54967932Y-41227126D02*
X54991502Y-41156415D01*
X54991502Y-41156415D02*
X55062213Y-41038564D01*
X55062213Y-41038564D02*
X55132923Y-40967853D01*
X55132923Y-40967853D02*
X55250774Y-40897143D01*
X55250774Y-40897143D02*
X55321485Y-40873572D01*
X55321485Y-40873572D02*
X55415766Y-40873572D01*
X55415766Y-40873572D02*
X55510047Y-40920713D01*
X55510047Y-40920713D02*
X55557187Y-40967853D01*
X55557187Y-40967853D02*
X55604328Y-41062134D01*
X55604328Y-41062134D02*
X55604328Y-41109275D01*
X55792890Y-41297837D02*
X55840030Y-41297837D01*
X55840030Y-41297837D02*
X55910741Y-41321407D01*
X55910741Y-41321407D02*
X56028592Y-41439258D01*
X56028592Y-41439258D02*
X56052162Y-41509969D01*
X56052162Y-41509969D02*
X56052162Y-41557109D01*
X56052162Y-41557109D02*
X56028592Y-41627820D01*
X56028592Y-41627820D02*
X55981451Y-41674960D01*
X55981451Y-41674960D02*
X55887170Y-41722101D01*
X55887170Y-41722101D02*
X55321485Y-41722101D01*
X55321485Y-41722101D02*
X55627898Y-42028514D01*
X56099303Y-42499918D02*
X55816460Y-42217076D01*
X55957881Y-42358497D02*
X56452856Y-41863522D01*
X56452856Y-41863522D02*
X56335005Y-41887092D01*
X56335005Y-41887092D02*
X56240724Y-41887092D01*
X56240724Y-41887092D02*
X56170013Y-41863522D01*
X96251966Y-43516666D02*
X96285300Y-43549999D01*
X96285300Y-43549999D02*
X96318633Y-43649999D01*
X96318633Y-43649999D02*
X96318633Y-43716666D01*
X96318633Y-43716666D02*
X96285300Y-43816666D01*
X96285300Y-43816666D02*
X96218633Y-43883333D01*
X96218633Y-43883333D02*
X96151966Y-43916666D01*
X96151966Y-43916666D02*
X96018633Y-43949999D01*
X96018633Y-43949999D02*
X95918633Y-43949999D01*
X95918633Y-43949999D02*
X95785300Y-43916666D01*
X95785300Y-43916666D02*
X95718633Y-43883333D01*
X95718633Y-43883333D02*
X95651966Y-43816666D01*
X95651966Y-43816666D02*
X95618633Y-43716666D01*
X95618633Y-43716666D02*
X95618633Y-43649999D01*
X95618633Y-43649999D02*
X95651966Y-43549999D01*
X95651966Y-43549999D02*
X95685300Y-43516666D01*
X95618633Y-43283333D02*
X95618633Y-42816666D01*
X95618633Y-42816666D02*
X96318633Y-43116666D01*
X95791966Y-69220000D02*
X95825300Y-69253333D01*
X95825300Y-69253333D02*
X95858633Y-69353333D01*
X95858633Y-69353333D02*
X95858633Y-69420000D01*
X95858633Y-69420000D02*
X95825300Y-69520000D01*
X95825300Y-69520000D02*
X95758633Y-69586667D01*
X95758633Y-69586667D02*
X95691966Y-69620000D01*
X95691966Y-69620000D02*
X95558633Y-69653333D01*
X95558633Y-69653333D02*
X95458633Y-69653333D01*
X95458633Y-69653333D02*
X95325300Y-69620000D01*
X95325300Y-69620000D02*
X95258633Y-69586667D01*
X95258633Y-69586667D02*
X95191966Y-69520000D01*
X95191966Y-69520000D02*
X95158633Y-69420000D01*
X95158633Y-69420000D02*
X95158633Y-69353333D01*
X95158633Y-69353333D02*
X95191966Y-69253333D01*
X95191966Y-69253333D02*
X95225300Y-69220000D01*
X95225300Y-68953333D02*
X95191966Y-68920000D01*
X95191966Y-68920000D02*
X95158633Y-68853333D01*
X95158633Y-68853333D02*
X95158633Y-68686667D01*
X95158633Y-68686667D02*
X95191966Y-68620000D01*
X95191966Y-68620000D02*
X95225300Y-68586667D01*
X95225300Y-68586667D02*
X95291966Y-68553333D01*
X95291966Y-68553333D02*
X95358633Y-68553333D01*
X95358633Y-68553333D02*
X95458633Y-68586667D01*
X95458633Y-68586667D02*
X95858633Y-68986667D01*
X95858633Y-68986667D02*
X95858633Y-68553333D01*
X95391966Y-67953333D02*
X95858633Y-67953333D01*
X95125300Y-68120000D02*
X95625300Y-68286666D01*
X95625300Y-68286666D02*
X95625300Y-67853333D01*
X70853333Y-44471966D02*
X70820000Y-44505300D01*
X70820000Y-44505300D02*
X70720000Y-44538633D01*
X70720000Y-44538633D02*
X70653333Y-44538633D01*
X70653333Y-44538633D02*
X70553333Y-44505300D01*
X70553333Y-44505300D02*
X70486667Y-44438633D01*
X70486667Y-44438633D02*
X70453333Y-44371966D01*
X70453333Y-44371966D02*
X70420000Y-44238633D01*
X70420000Y-44238633D02*
X70420000Y-44138633D01*
X70420000Y-44138633D02*
X70453333Y-44005300D01*
X70453333Y-44005300D02*
X70486667Y-43938633D01*
X70486667Y-43938633D02*
X70553333Y-43871966D01*
X70553333Y-43871966D02*
X70653333Y-43838633D01*
X70653333Y-43838633D02*
X70720000Y-43838633D01*
X70720000Y-43838633D02*
X70820000Y-43871966D01*
X70820000Y-43871966D02*
X70853333Y-43905300D01*
X71120000Y-43905300D02*
X71153333Y-43871966D01*
X71153333Y-43871966D02*
X71220000Y-43838633D01*
X71220000Y-43838633D02*
X71386667Y-43838633D01*
X71386667Y-43838633D02*
X71453333Y-43871966D01*
X71453333Y-43871966D02*
X71486667Y-43905300D01*
X71486667Y-43905300D02*
X71520000Y-43971966D01*
X71520000Y-43971966D02*
X71520000Y-44038633D01*
X71520000Y-44038633D02*
X71486667Y-44138633D01*
X71486667Y-44138633D02*
X71086667Y-44538633D01*
X71086667Y-44538633D02*
X71520000Y-44538633D01*
X101666666Y-34858633D02*
X101666666Y-35358633D01*
X101666666Y-35358633D02*
X101633333Y-35458633D01*
X101633333Y-35458633D02*
X101566666Y-35525300D01*
X101566666Y-35525300D02*
X101466666Y-35558633D01*
X101466666Y-35558633D02*
X101400000Y-35558633D01*
X102299999Y-34858633D02*
X102166666Y-34858633D01*
X102166666Y-34858633D02*
X102099999Y-34891966D01*
X102099999Y-34891966D02*
X102066666Y-34925300D01*
X102066666Y-34925300D02*
X101999999Y-35025300D01*
X101999999Y-35025300D02*
X101966666Y-35158633D01*
X101966666Y-35158633D02*
X101966666Y-35425300D01*
X101966666Y-35425300D02*
X101999999Y-35491966D01*
X101999999Y-35491966D02*
X102033333Y-35525300D01*
X102033333Y-35525300D02*
X102099999Y-35558633D01*
X102099999Y-35558633D02*
X102233333Y-35558633D01*
X102233333Y-35558633D02*
X102299999Y-35525300D01*
X102299999Y-35525300D02*
X102333333Y-35491966D01*
X102333333Y-35491966D02*
X102366666Y-35425300D01*
X102366666Y-35425300D02*
X102366666Y-35258633D01*
X102366666Y-35258633D02*
X102333333Y-35191966D01*
X102333333Y-35191966D02*
X102299999Y-35158633D01*
X102299999Y-35158633D02*
X102233333Y-35125300D01*
X102233333Y-35125300D02*
X102099999Y-35125300D01*
X102099999Y-35125300D02*
X102033333Y-35158633D01*
X102033333Y-35158633D02*
X101999999Y-35191966D01*
X101999999Y-35191966D02*
X101966666Y-35258633D01*
X71051966Y-58016666D02*
X71085300Y-58049999D01*
X71085300Y-58049999D02*
X71118633Y-58149999D01*
X71118633Y-58149999D02*
X71118633Y-58216666D01*
X71118633Y-58216666D02*
X71085300Y-58316666D01*
X71085300Y-58316666D02*
X71018633Y-58383333D01*
X71018633Y-58383333D02*
X70951966Y-58416666D01*
X70951966Y-58416666D02*
X70818633Y-58449999D01*
X70818633Y-58449999D02*
X70718633Y-58449999D01*
X70718633Y-58449999D02*
X70585300Y-58416666D01*
X70585300Y-58416666D02*
X70518633Y-58383333D01*
X70518633Y-58383333D02*
X70451966Y-58316666D01*
X70451966Y-58316666D02*
X70418633Y-58216666D01*
X70418633Y-58216666D02*
X70418633Y-58149999D01*
X70418633Y-58149999D02*
X70451966Y-58049999D01*
X70451966Y-58049999D02*
X70485300Y-58016666D01*
X70651966Y-57416666D02*
X71118633Y-57416666D01*
X70385300Y-57583333D02*
X70885300Y-57749999D01*
X70885300Y-57749999D02*
X70885300Y-57316666D01*
X86199999Y-53151966D02*
X86166666Y-53185300D01*
X86166666Y-53185300D02*
X86066666Y-53218633D01*
X86066666Y-53218633D02*
X85999999Y-53218633D01*
X85999999Y-53218633D02*
X85899999Y-53185300D01*
X85899999Y-53185300D02*
X85833333Y-53118633D01*
X85833333Y-53118633D02*
X85799999Y-53051966D01*
X85799999Y-53051966D02*
X85766666Y-52918633D01*
X85766666Y-52918633D02*
X85766666Y-52818633D01*
X85766666Y-52818633D02*
X85799999Y-52685300D01*
X85799999Y-52685300D02*
X85833333Y-52618633D01*
X85833333Y-52618633D02*
X85899999Y-52551966D01*
X85899999Y-52551966D02*
X85999999Y-52518633D01*
X85999999Y-52518633D02*
X86066666Y-52518633D01*
X86066666Y-52518633D02*
X86166666Y-52551966D01*
X86166666Y-52551966D02*
X86199999Y-52585300D01*
X86866666Y-53218633D02*
X86466666Y-53218633D01*
X86666666Y-53218633D02*
X86666666Y-52518633D01*
X86666666Y-52518633D02*
X86599999Y-52618633D01*
X86599999Y-52618633D02*
X86533333Y-52685300D01*
X86533333Y-52685300D02*
X86466666Y-52718633D01*
X87100000Y-52518633D02*
X87566666Y-52518633D01*
X87566666Y-52518633D02*
X87266666Y-53218633D01*
X105886667Y-41701966D02*
X105986667Y-41735300D01*
X105986667Y-41735300D02*
X106020000Y-41768633D01*
X106020000Y-41768633D02*
X106053333Y-41835300D01*
X106053333Y-41835300D02*
X106053333Y-41935300D01*
X106053333Y-41935300D02*
X106020000Y-42001966D01*
X106020000Y-42001966D02*
X105986667Y-42035300D01*
X105986667Y-42035300D02*
X105920000Y-42068633D01*
X105920000Y-42068633D02*
X105653333Y-42068633D01*
X105653333Y-42068633D02*
X105653333Y-41368633D01*
X105653333Y-41368633D02*
X105886667Y-41368633D01*
X105886667Y-41368633D02*
X105953333Y-41401966D01*
X105953333Y-41401966D02*
X105986667Y-41435300D01*
X105986667Y-41435300D02*
X106020000Y-41501966D01*
X106020000Y-41501966D02*
X106020000Y-41568633D01*
X106020000Y-41568633D02*
X105986667Y-41635300D01*
X105986667Y-41635300D02*
X105953333Y-41668633D01*
X105953333Y-41668633D02*
X105886667Y-41701966D01*
X105886667Y-41701966D02*
X105653333Y-41701966D01*
X106353333Y-41701966D02*
X106586667Y-41701966D01*
X106686667Y-42068633D02*
X106353333Y-42068633D01*
X106353333Y-42068633D02*
X106353333Y-41368633D01*
X106353333Y-41368633D02*
X106686667Y-41368633D01*
X106986666Y-42068633D02*
X106986666Y-41368633D01*
X106986666Y-41368633D02*
X107220000Y-41868633D01*
X107220000Y-41868633D02*
X107453333Y-41368633D01*
X107453333Y-41368633D02*
X107453333Y-42068633D01*
X108020000Y-41701966D02*
X107786666Y-41701966D01*
X107786666Y-42068633D02*
X107786666Y-41368633D01*
X107786666Y-41368633D02*
X108120000Y-41368633D01*
X108220000Y-42135300D02*
X108753333Y-42135300D01*
X108886666Y-41868633D02*
X109219999Y-41868633D01*
X108819999Y-42068633D02*
X109053333Y-41368633D01*
X109053333Y-41368633D02*
X109286666Y-42068633D01*
X70618633Y-61900000D02*
X70285300Y-62133333D01*
X70618633Y-62300000D02*
X69918633Y-62300000D01*
X69918633Y-62300000D02*
X69918633Y-62033333D01*
X69918633Y-62033333D02*
X69951966Y-61966667D01*
X69951966Y-61966667D02*
X69985300Y-61933333D01*
X69985300Y-61933333D02*
X70051966Y-61900000D01*
X70051966Y-61900000D02*
X70151966Y-61900000D01*
X70151966Y-61900000D02*
X70218633Y-61933333D01*
X70218633Y-61933333D02*
X70251966Y-61966667D01*
X70251966Y-61966667D02*
X70285300Y-62033333D01*
X70285300Y-62033333D02*
X70285300Y-62300000D01*
X70618633Y-61233333D02*
X70618633Y-61633333D01*
X70618633Y-61433333D02*
X69918633Y-61433333D01*
X69918633Y-61433333D02*
X70018633Y-61500000D01*
X70018633Y-61500000D02*
X70085300Y-61566667D01*
X70085300Y-61566667D02*
X70118633Y-61633333D01*
X70618633Y-60566666D02*
X70618633Y-60966666D01*
X70618633Y-60766666D02*
X69918633Y-60766666D01*
X69918633Y-60766666D02*
X70018633Y-60833333D01*
X70018633Y-60833333D02*
X70085300Y-60900000D01*
X70085300Y-60900000D02*
X70118633Y-60966666D01*
X105816667Y-54101966D02*
X105916667Y-54135300D01*
X105916667Y-54135300D02*
X105950000Y-54168633D01*
X105950000Y-54168633D02*
X105983333Y-54235300D01*
X105983333Y-54235300D02*
X105983333Y-54335300D01*
X105983333Y-54335300D02*
X105950000Y-54401966D01*
X105950000Y-54401966D02*
X105916667Y-54435300D01*
X105916667Y-54435300D02*
X105850000Y-54468633D01*
X105850000Y-54468633D02*
X105583333Y-54468633D01*
X105583333Y-54468633D02*
X105583333Y-53768633D01*
X105583333Y-53768633D02*
X105816667Y-53768633D01*
X105816667Y-53768633D02*
X105883333Y-53801966D01*
X105883333Y-53801966D02*
X105916667Y-53835300D01*
X105916667Y-53835300D02*
X105950000Y-53901966D01*
X105950000Y-53901966D02*
X105950000Y-53968633D01*
X105950000Y-53968633D02*
X105916667Y-54035300D01*
X105916667Y-54035300D02*
X105883333Y-54068633D01*
X105883333Y-54068633D02*
X105816667Y-54101966D01*
X105816667Y-54101966D02*
X105583333Y-54101966D01*
X106283333Y-54101966D02*
X106516667Y-54101966D01*
X106616667Y-54468633D02*
X106283333Y-54468633D01*
X106283333Y-54468633D02*
X106283333Y-53768633D01*
X106283333Y-53768633D02*
X106616667Y-53768633D01*
X106916666Y-54468633D02*
X106916666Y-53768633D01*
X106916666Y-53768633D02*
X107150000Y-54268633D01*
X107150000Y-54268633D02*
X107383333Y-53768633D01*
X107383333Y-53768633D02*
X107383333Y-54468633D01*
X107950000Y-54101966D02*
X107716666Y-54101966D01*
X107716666Y-54468633D02*
X107716666Y-53768633D01*
X107716666Y-53768633D02*
X108050000Y-53768633D01*
X108150000Y-54535300D02*
X108683333Y-54535300D01*
X109083333Y-54101966D02*
X109183333Y-54135300D01*
X109183333Y-54135300D02*
X109216666Y-54168633D01*
X109216666Y-54168633D02*
X109249999Y-54235300D01*
X109249999Y-54235300D02*
X109249999Y-54335300D01*
X109249999Y-54335300D02*
X109216666Y-54401966D01*
X109216666Y-54401966D02*
X109183333Y-54435300D01*
X109183333Y-54435300D02*
X109116666Y-54468633D01*
X109116666Y-54468633D02*
X108849999Y-54468633D01*
X108849999Y-54468633D02*
X108849999Y-53768633D01*
X108849999Y-53768633D02*
X109083333Y-53768633D01*
X109083333Y-53768633D02*
X109149999Y-53801966D01*
X109149999Y-53801966D02*
X109183333Y-53835300D01*
X109183333Y-53835300D02*
X109216666Y-53901966D01*
X109216666Y-53901966D02*
X109216666Y-53968633D01*
X109216666Y-53968633D02*
X109183333Y-54035300D01*
X109183333Y-54035300D02*
X109149999Y-54068633D01*
X109149999Y-54068633D02*
X109083333Y-54101966D01*
X109083333Y-54101966D02*
X108849999Y-54101966D01*
X92599999Y-53618633D02*
X92366666Y-53285300D01*
X92199999Y-53618633D02*
X92199999Y-52918633D01*
X92199999Y-52918633D02*
X92466666Y-52918633D01*
X92466666Y-52918633D02*
X92533333Y-52951966D01*
X92533333Y-52951966D02*
X92566666Y-52985300D01*
X92566666Y-52985300D02*
X92599999Y-53051966D01*
X92599999Y-53051966D02*
X92599999Y-53151966D01*
X92599999Y-53151966D02*
X92566666Y-53218633D01*
X92566666Y-53218633D02*
X92533333Y-53251966D01*
X92533333Y-53251966D02*
X92466666Y-53285300D01*
X92466666Y-53285300D02*
X92199999Y-53285300D01*
X92866666Y-52985300D02*
X92899999Y-52951966D01*
X92899999Y-52951966D02*
X92966666Y-52918633D01*
X92966666Y-52918633D02*
X93133333Y-52918633D01*
X93133333Y-52918633D02*
X93199999Y-52951966D01*
X93199999Y-52951966D02*
X93233333Y-52985300D01*
X93233333Y-52985300D02*
X93266666Y-53051966D01*
X93266666Y-53051966D02*
X93266666Y-53118633D01*
X93266666Y-53118633D02*
X93233333Y-53218633D01*
X93233333Y-53218633D02*
X92833333Y-53618633D01*
X92833333Y-53618633D02*
X93266666Y-53618633D01*
X93933333Y-53618633D02*
X93533333Y-53618633D01*
X93733333Y-53618633D02*
X93733333Y-52918633D01*
X93733333Y-52918633D02*
X93666666Y-53018633D01*
X93666666Y-53018633D02*
X93600000Y-53085300D01*
X93600000Y-53085300D02*
X93533333Y-53118633D01*
X94570000Y-42428633D02*
X94903333Y-42428633D01*
X94503333Y-42628633D02*
X94736667Y-41928633D01*
X94736667Y-41928633D02*
X94970000Y-42628633D01*
X95536667Y-42628633D02*
X95203333Y-42628633D01*
X95203333Y-42628633D02*
X95203333Y-41928633D01*
X69668633Y-61950000D02*
X69335300Y-62183333D01*
X69668633Y-62350000D02*
X68968633Y-62350000D01*
X68968633Y-62350000D02*
X68968633Y-62083333D01*
X68968633Y-62083333D02*
X69001966Y-62016667D01*
X69001966Y-62016667D02*
X69035300Y-61983333D01*
X69035300Y-61983333D02*
X69101966Y-61950000D01*
X69101966Y-61950000D02*
X69201966Y-61950000D01*
X69201966Y-61950000D02*
X69268633Y-61983333D01*
X69268633Y-61983333D02*
X69301966Y-62016667D01*
X69301966Y-62016667D02*
X69335300Y-62083333D01*
X69335300Y-62083333D02*
X69335300Y-62350000D01*
X69668633Y-61283333D02*
X69668633Y-61683333D01*
X69668633Y-61483333D02*
X68968633Y-61483333D01*
X68968633Y-61483333D02*
X69068633Y-61550000D01*
X69068633Y-61550000D02*
X69135300Y-61616667D01*
X69135300Y-61616667D02*
X69168633Y-61683333D01*
X68968633Y-60850000D02*
X68968633Y-60783333D01*
X68968633Y-60783333D02*
X69001966Y-60716666D01*
X69001966Y-60716666D02*
X69035300Y-60683333D01*
X69035300Y-60683333D02*
X69101966Y-60650000D01*
X69101966Y-60650000D02*
X69235300Y-60616666D01*
X69235300Y-60616666D02*
X69401966Y-60616666D01*
X69401966Y-60616666D02*
X69535300Y-60650000D01*
X69535300Y-60650000D02*
X69601966Y-60683333D01*
X69601966Y-60683333D02*
X69635300Y-60716666D01*
X69635300Y-60716666D02*
X69668633Y-60783333D01*
X69668633Y-60783333D02*
X69668633Y-60850000D01*
X69668633Y-60850000D02*
X69635300Y-60916666D01*
X69635300Y-60916666D02*
X69601966Y-60950000D01*
X69601966Y-60950000D02*
X69535300Y-60983333D01*
X69535300Y-60983333D02*
X69401966Y-61016666D01*
X69401966Y-61016666D02*
X69235300Y-61016666D01*
X69235300Y-61016666D02*
X69101966Y-60983333D01*
X69101966Y-60983333D02*
X69035300Y-60950000D01*
X69035300Y-60950000D02*
X69001966Y-60916666D01*
X69001966Y-60916666D02*
X68968633Y-60850000D01*
X102399999Y-68118633D02*
X102166666Y-67785300D01*
X101999999Y-68118633D02*
X101999999Y-67418633D01*
X101999999Y-67418633D02*
X102266666Y-67418633D01*
X102266666Y-67418633D02*
X102333333Y-67451966D01*
X102333333Y-67451966D02*
X102366666Y-67485300D01*
X102366666Y-67485300D02*
X102399999Y-67551966D01*
X102399999Y-67551966D02*
X102399999Y-67651966D01*
X102399999Y-67651966D02*
X102366666Y-67718633D01*
X102366666Y-67718633D02*
X102333333Y-67751966D01*
X102333333Y-67751966D02*
X102266666Y-67785300D01*
X102266666Y-67785300D02*
X101999999Y-67785300D01*
X102666666Y-67485300D02*
X102699999Y-67451966D01*
X102699999Y-67451966D02*
X102766666Y-67418633D01*
X102766666Y-67418633D02*
X102933333Y-67418633D01*
X102933333Y-67418633D02*
X102999999Y-67451966D01*
X102999999Y-67451966D02*
X103033333Y-67485300D01*
X103033333Y-67485300D02*
X103066666Y-67551966D01*
X103066666Y-67551966D02*
X103066666Y-67618633D01*
X103066666Y-67618633D02*
X103033333Y-67718633D01*
X103033333Y-67718633D02*
X102633333Y-68118633D01*
X102633333Y-68118633D02*
X103066666Y-68118633D01*
X103500000Y-67418633D02*
X103566666Y-67418633D01*
X103566666Y-67418633D02*
X103633333Y-67451966D01*
X103633333Y-67451966D02*
X103666666Y-67485300D01*
X103666666Y-67485300D02*
X103700000Y-67551966D01*
X103700000Y-67551966D02*
X103733333Y-67685300D01*
X103733333Y-67685300D02*
X103733333Y-67851966D01*
X103733333Y-67851966D02*
X103700000Y-67985300D01*
X103700000Y-67985300D02*
X103666666Y-68051966D01*
X103666666Y-68051966D02*
X103633333Y-68085300D01*
X103633333Y-68085300D02*
X103566666Y-68118633D01*
X103566666Y-68118633D02*
X103500000Y-68118633D01*
X103500000Y-68118633D02*
X103433333Y-68085300D01*
X103433333Y-68085300D02*
X103400000Y-68051966D01*
X103400000Y-68051966D02*
X103366666Y-67985300D01*
X103366666Y-67985300D02*
X103333333Y-67851966D01*
X103333333Y-67851966D02*
X103333333Y-67685300D01*
X103333333Y-67685300D02*
X103366666Y-67551966D01*
X103366666Y-67551966D02*
X103400000Y-67485300D01*
X103400000Y-67485300D02*
X103433333Y-67451966D01*
X103433333Y-67451966D02*
X103500000Y-67418633D01*
X50446666Y-54808633D02*
X50446666Y-55308633D01*
X50446666Y-55308633D02*
X50413333Y-55408633D01*
X50413333Y-55408633D02*
X50346666Y-55475300D01*
X50346666Y-55475300D02*
X50246666Y-55508633D01*
X50246666Y-55508633D02*
X50180000Y-55508633D01*
X51079999Y-55041966D02*
X51079999Y-55508633D01*
X50913333Y-54775300D02*
X50746666Y-55275300D01*
X50746666Y-55275300D02*
X51179999Y-55275300D01*
X82349999Y-46551966D02*
X82316666Y-46585300D01*
X82316666Y-46585300D02*
X82216666Y-46618633D01*
X82216666Y-46618633D02*
X82149999Y-46618633D01*
X82149999Y-46618633D02*
X82049999Y-46585300D01*
X82049999Y-46585300D02*
X81983333Y-46518633D01*
X81983333Y-46518633D02*
X81949999Y-46451966D01*
X81949999Y-46451966D02*
X81916666Y-46318633D01*
X81916666Y-46318633D02*
X81916666Y-46218633D01*
X81916666Y-46218633D02*
X81949999Y-46085300D01*
X81949999Y-46085300D02*
X81983333Y-46018633D01*
X81983333Y-46018633D02*
X82049999Y-45951966D01*
X82049999Y-45951966D02*
X82149999Y-45918633D01*
X82149999Y-45918633D02*
X82216666Y-45918633D01*
X82216666Y-45918633D02*
X82316666Y-45951966D01*
X82316666Y-45951966D02*
X82349999Y-45985300D01*
X83016666Y-46618633D02*
X82616666Y-46618633D01*
X82816666Y-46618633D02*
X82816666Y-45918633D01*
X82816666Y-45918633D02*
X82749999Y-46018633D01*
X82749999Y-46018633D02*
X82683333Y-46085300D01*
X82683333Y-46085300D02*
X82616666Y-46118633D01*
X83616666Y-45918633D02*
X83483333Y-45918633D01*
X83483333Y-45918633D02*
X83416666Y-45951966D01*
X83416666Y-45951966D02*
X83383333Y-45985300D01*
X83383333Y-45985300D02*
X83316666Y-46085300D01*
X83316666Y-46085300D02*
X83283333Y-46218633D01*
X83283333Y-46218633D02*
X83283333Y-46485300D01*
X83283333Y-46485300D02*
X83316666Y-46551966D01*
X83316666Y-46551966D02*
X83350000Y-46585300D01*
X83350000Y-46585300D02*
X83416666Y-46618633D01*
X83416666Y-46618633D02*
X83550000Y-46618633D01*
X83550000Y-46618633D02*
X83616666Y-46585300D01*
X83616666Y-46585300D02*
X83650000Y-46551966D01*
X83650000Y-46551966D02*
X83683333Y-46485300D01*
X83683333Y-46485300D02*
X83683333Y-46318633D01*
X83683333Y-46318633D02*
X83650000Y-46251966D01*
X83650000Y-46251966D02*
X83616666Y-46218633D01*
X83616666Y-46218633D02*
X83550000Y-46185300D01*
X83550000Y-46185300D02*
X83416666Y-46185300D01*
X83416666Y-46185300D02*
X83350000Y-46218633D01*
X83350000Y-46218633D02*
X83316666Y-46251966D01*
X83316666Y-46251966D02*
X83283333Y-46318633D01*
X97399999Y-69168633D02*
X97166666Y-68835300D01*
X96999999Y-69168633D02*
X96999999Y-68468633D01*
X96999999Y-68468633D02*
X97266666Y-68468633D01*
X97266666Y-68468633D02*
X97333333Y-68501966D01*
X97333333Y-68501966D02*
X97366666Y-68535300D01*
X97366666Y-68535300D02*
X97399999Y-68601966D01*
X97399999Y-68601966D02*
X97399999Y-68701966D01*
X97399999Y-68701966D02*
X97366666Y-68768633D01*
X97366666Y-68768633D02*
X97333333Y-68801966D01*
X97333333Y-68801966D02*
X97266666Y-68835300D01*
X97266666Y-68835300D02*
X96999999Y-68835300D01*
X98066666Y-69168633D02*
X97666666Y-69168633D01*
X97866666Y-69168633D02*
X97866666Y-68468633D01*
X97866666Y-68468633D02*
X97799999Y-68568633D01*
X97799999Y-68568633D02*
X97733333Y-68635300D01*
X97733333Y-68635300D02*
X97666666Y-68668633D01*
X98400000Y-69168633D02*
X98533333Y-69168633D01*
X98533333Y-69168633D02*
X98600000Y-69135300D01*
X98600000Y-69135300D02*
X98633333Y-69101966D01*
X98633333Y-69101966D02*
X98700000Y-69001966D01*
X98700000Y-69001966D02*
X98733333Y-68868633D01*
X98733333Y-68868633D02*
X98733333Y-68601966D01*
X98733333Y-68601966D02*
X98700000Y-68535300D01*
X98700000Y-68535300D02*
X98666666Y-68501966D01*
X98666666Y-68501966D02*
X98600000Y-68468633D01*
X98600000Y-68468633D02*
X98466666Y-68468633D01*
X98466666Y-68468633D02*
X98400000Y-68501966D01*
X98400000Y-68501966D02*
X98366666Y-68535300D01*
X98366666Y-68535300D02*
X98333333Y-68601966D01*
X98333333Y-68601966D02*
X98333333Y-68768633D01*
X98333333Y-68768633D02*
X98366666Y-68835300D01*
X98366666Y-68835300D02*
X98400000Y-68868633D01*
X98400000Y-68868633D02*
X98466666Y-68901966D01*
X98466666Y-68901966D02*
X98600000Y-68901966D01*
X98600000Y-68901966D02*
X98666666Y-68868633D01*
X98666666Y-68868633D02*
X98700000Y-68835300D01*
X98700000Y-68835300D02*
X98733333Y-68768633D01*
X69886666Y-63138633D02*
X69886666Y-63638633D01*
X69886666Y-63638633D02*
X69853333Y-63738633D01*
X69853333Y-63738633D02*
X69786666Y-63805300D01*
X69786666Y-63805300D02*
X69686666Y-63838633D01*
X69686666Y-63838633D02*
X69620000Y-63838633D01*
X70586666Y-63838633D02*
X70186666Y-63838633D01*
X70386666Y-63838633D02*
X70386666Y-63138633D01*
X70386666Y-63138633D02*
X70319999Y-63238633D01*
X70319999Y-63238633D02*
X70253333Y-63305300D01*
X70253333Y-63305300D02*
X70186666Y-63338633D01*
X98376667Y-33898633D02*
X98710000Y-33898633D01*
X98310000Y-34098633D02*
X98543334Y-33398633D01*
X98543334Y-33398633D02*
X98776667Y-34098633D01*
X99010000Y-34098633D02*
X99010000Y-33398633D01*
X99010000Y-33731966D02*
X99410000Y-33731966D01*
X99410000Y-34098633D02*
X99410000Y-33398633D01*
X82649999Y-58968633D02*
X82416666Y-58635300D01*
X82249999Y-58968633D02*
X82249999Y-58268633D01*
X82249999Y-58268633D02*
X82516666Y-58268633D01*
X82516666Y-58268633D02*
X82583333Y-58301966D01*
X82583333Y-58301966D02*
X82616666Y-58335300D01*
X82616666Y-58335300D02*
X82649999Y-58401966D01*
X82649999Y-58401966D02*
X82649999Y-58501966D01*
X82649999Y-58501966D02*
X82616666Y-58568633D01*
X82616666Y-58568633D02*
X82583333Y-58601966D01*
X82583333Y-58601966D02*
X82516666Y-58635300D01*
X82516666Y-58635300D02*
X82249999Y-58635300D01*
X83316666Y-58968633D02*
X82916666Y-58968633D01*
X83116666Y-58968633D02*
X83116666Y-58268633D01*
X83116666Y-58268633D02*
X83049999Y-58368633D01*
X83049999Y-58368633D02*
X82983333Y-58435300D01*
X82983333Y-58435300D02*
X82916666Y-58468633D01*
X83950000Y-58268633D02*
X83616666Y-58268633D01*
X83616666Y-58268633D02*
X83583333Y-58601966D01*
X83583333Y-58601966D02*
X83616666Y-58568633D01*
X83616666Y-58568633D02*
X83683333Y-58535300D01*
X83683333Y-58535300D02*
X83850000Y-58535300D01*
X83850000Y-58535300D02*
X83916666Y-58568633D01*
X83916666Y-58568633D02*
X83950000Y-58601966D01*
X83950000Y-58601966D02*
X83983333Y-58668633D01*
X83983333Y-58668633D02*
X83983333Y-58835300D01*
X83983333Y-58835300D02*
X83950000Y-58901966D01*
X83950000Y-58901966D02*
X83916666Y-58935300D01*
X83916666Y-58935300D02*
X83850000Y-58968633D01*
X83850000Y-58968633D02*
X83683333Y-58968633D01*
X83683333Y-58968633D02*
X83616666Y-58935300D01*
X83616666Y-58935300D02*
X83583333Y-58901966D01*
X66673333Y-42581966D02*
X66640000Y-42615300D01*
X66640000Y-42615300D02*
X66540000Y-42648633D01*
X66540000Y-42648633D02*
X66473333Y-42648633D01*
X66473333Y-42648633D02*
X66373333Y-42615300D01*
X66373333Y-42615300D02*
X66306667Y-42548633D01*
X66306667Y-42548633D02*
X66273333Y-42481966D01*
X66273333Y-42481966D02*
X66240000Y-42348633D01*
X66240000Y-42348633D02*
X66240000Y-42248633D01*
X66240000Y-42248633D02*
X66273333Y-42115300D01*
X66273333Y-42115300D02*
X66306667Y-42048633D01*
X66306667Y-42048633D02*
X66373333Y-41981966D01*
X66373333Y-41981966D02*
X66473333Y-41948633D01*
X66473333Y-41948633D02*
X66540000Y-41948633D01*
X66540000Y-41948633D02*
X66640000Y-41981966D01*
X66640000Y-41981966D02*
X66673333Y-42015300D01*
X66906667Y-41948633D02*
X67340000Y-41948633D01*
X67340000Y-41948633D02*
X67106667Y-42215300D01*
X67106667Y-42215300D02*
X67206667Y-42215300D01*
X67206667Y-42215300D02*
X67273333Y-42248633D01*
X67273333Y-42248633D02*
X67306667Y-42281966D01*
X67306667Y-42281966D02*
X67340000Y-42348633D01*
X67340000Y-42348633D02*
X67340000Y-42515300D01*
X67340000Y-42515300D02*
X67306667Y-42581966D01*
X67306667Y-42581966D02*
X67273333Y-42615300D01*
X67273333Y-42615300D02*
X67206667Y-42648633D01*
X67206667Y-42648633D02*
X67006667Y-42648633D01*
X67006667Y-42648633D02*
X66940000Y-42615300D01*
X66940000Y-42615300D02*
X66906667Y-42581966D01*
X91451966Y-52000000D02*
X91485300Y-52033333D01*
X91485300Y-52033333D02*
X91518633Y-52133333D01*
X91518633Y-52133333D02*
X91518633Y-52200000D01*
X91518633Y-52200000D02*
X91485300Y-52300000D01*
X91485300Y-52300000D02*
X91418633Y-52366667D01*
X91418633Y-52366667D02*
X91351966Y-52400000D01*
X91351966Y-52400000D02*
X91218633Y-52433333D01*
X91218633Y-52433333D02*
X91118633Y-52433333D01*
X91118633Y-52433333D02*
X90985300Y-52400000D01*
X90985300Y-52400000D02*
X90918633Y-52366667D01*
X90918633Y-52366667D02*
X90851966Y-52300000D01*
X90851966Y-52300000D02*
X90818633Y-52200000D01*
X90818633Y-52200000D02*
X90818633Y-52133333D01*
X90818633Y-52133333D02*
X90851966Y-52033333D01*
X90851966Y-52033333D02*
X90885300Y-52000000D01*
X91518633Y-51333333D02*
X91518633Y-51733333D01*
X91518633Y-51533333D02*
X90818633Y-51533333D01*
X90818633Y-51533333D02*
X90918633Y-51600000D01*
X90918633Y-51600000D02*
X90985300Y-51666667D01*
X90985300Y-51666667D02*
X91018633Y-51733333D01*
X91051966Y-50733333D02*
X91518633Y-50733333D01*
X90785300Y-50900000D02*
X91285300Y-51066666D01*
X91285300Y-51066666D02*
X91285300Y-50633333D01*
X72871966Y-48930000D02*
X72905300Y-48963333D01*
X72905300Y-48963333D02*
X72938633Y-49063333D01*
X72938633Y-49063333D02*
X72938633Y-49130000D01*
X72938633Y-49130000D02*
X72905300Y-49230000D01*
X72905300Y-49230000D02*
X72838633Y-49296667D01*
X72838633Y-49296667D02*
X72771966Y-49330000D01*
X72771966Y-49330000D02*
X72638633Y-49363333D01*
X72638633Y-49363333D02*
X72538633Y-49363333D01*
X72538633Y-49363333D02*
X72405300Y-49330000D01*
X72405300Y-49330000D02*
X72338633Y-49296667D01*
X72338633Y-49296667D02*
X72271966Y-49230000D01*
X72271966Y-49230000D02*
X72238633Y-49130000D01*
X72238633Y-49130000D02*
X72238633Y-49063333D01*
X72238633Y-49063333D02*
X72271966Y-48963333D01*
X72271966Y-48963333D02*
X72305300Y-48930000D01*
X72938633Y-48263333D02*
X72938633Y-48663333D01*
X72938633Y-48463333D02*
X72238633Y-48463333D01*
X72238633Y-48463333D02*
X72338633Y-48530000D01*
X72338633Y-48530000D02*
X72405300Y-48596667D01*
X72405300Y-48596667D02*
X72438633Y-48663333D01*
X72238633Y-47830000D02*
X72238633Y-47763333D01*
X72238633Y-47763333D02*
X72271966Y-47696666D01*
X72271966Y-47696666D02*
X72305300Y-47663333D01*
X72305300Y-47663333D02*
X72371966Y-47630000D01*
X72371966Y-47630000D02*
X72505300Y-47596666D01*
X72505300Y-47596666D02*
X72671966Y-47596666D01*
X72671966Y-47596666D02*
X72805300Y-47630000D01*
X72805300Y-47630000D02*
X72871966Y-47663333D01*
X72871966Y-47663333D02*
X72905300Y-47696666D01*
X72905300Y-47696666D02*
X72938633Y-47763333D01*
X72938633Y-47763333D02*
X72938633Y-47830000D01*
X72938633Y-47830000D02*
X72905300Y-47896666D01*
X72905300Y-47896666D02*
X72871966Y-47930000D01*
X72871966Y-47930000D02*
X72805300Y-47963333D01*
X72805300Y-47963333D02*
X72671966Y-47996666D01*
X72671966Y-47996666D02*
X72505300Y-47996666D01*
X72505300Y-47996666D02*
X72371966Y-47963333D01*
X72371966Y-47963333D02*
X72305300Y-47930000D01*
X72305300Y-47930000D02*
X72271966Y-47896666D01*
X72271966Y-47896666D02*
X72238633Y-47830000D01*
X72941966Y-46420000D02*
X72975300Y-46453333D01*
X72975300Y-46453333D02*
X73008633Y-46553333D01*
X73008633Y-46553333D02*
X73008633Y-46620000D01*
X73008633Y-46620000D02*
X72975300Y-46720000D01*
X72975300Y-46720000D02*
X72908633Y-46786667D01*
X72908633Y-46786667D02*
X72841966Y-46820000D01*
X72841966Y-46820000D02*
X72708633Y-46853333D01*
X72708633Y-46853333D02*
X72608633Y-46853333D01*
X72608633Y-46853333D02*
X72475300Y-46820000D01*
X72475300Y-46820000D02*
X72408633Y-46786667D01*
X72408633Y-46786667D02*
X72341966Y-46720000D01*
X72341966Y-46720000D02*
X72308633Y-46620000D01*
X72308633Y-46620000D02*
X72308633Y-46553333D01*
X72308633Y-46553333D02*
X72341966Y-46453333D01*
X72341966Y-46453333D02*
X72375300Y-46420000D01*
X73008633Y-45753333D02*
X73008633Y-46153333D01*
X73008633Y-45953333D02*
X72308633Y-45953333D01*
X72308633Y-45953333D02*
X72408633Y-46020000D01*
X72408633Y-46020000D02*
X72475300Y-46086667D01*
X72475300Y-46086667D02*
X72508633Y-46153333D01*
X73008633Y-45420000D02*
X73008633Y-45286666D01*
X73008633Y-45286666D02*
X72975300Y-45220000D01*
X72975300Y-45220000D02*
X72941966Y-45186666D01*
X72941966Y-45186666D02*
X72841966Y-45120000D01*
X72841966Y-45120000D02*
X72708633Y-45086666D01*
X72708633Y-45086666D02*
X72441966Y-45086666D01*
X72441966Y-45086666D02*
X72375300Y-45120000D01*
X72375300Y-45120000D02*
X72341966Y-45153333D01*
X72341966Y-45153333D02*
X72308633Y-45220000D01*
X72308633Y-45220000D02*
X72308633Y-45353333D01*
X72308633Y-45353333D02*
X72341966Y-45420000D01*
X72341966Y-45420000D02*
X72375300Y-45453333D01*
X72375300Y-45453333D02*
X72441966Y-45486666D01*
X72441966Y-45486666D02*
X72608633Y-45486666D01*
X72608633Y-45486666D02*
X72675300Y-45453333D01*
X72675300Y-45453333D02*
X72708633Y-45420000D01*
X72708633Y-45420000D02*
X72741966Y-45353333D01*
X72741966Y-45353333D02*
X72741966Y-45220000D01*
X72741966Y-45220000D02*
X72708633Y-45153333D01*
X72708633Y-45153333D02*
X72675300Y-45120000D01*
X72675300Y-45120000D02*
X72608633Y-45086666D01*
X105836667Y-67181966D02*
X105936667Y-67215300D01*
X105936667Y-67215300D02*
X105970000Y-67248633D01*
X105970000Y-67248633D02*
X106003333Y-67315300D01*
X106003333Y-67315300D02*
X106003333Y-67415300D01*
X106003333Y-67415300D02*
X105970000Y-67481966D01*
X105970000Y-67481966D02*
X105936667Y-67515300D01*
X105936667Y-67515300D02*
X105870000Y-67548633D01*
X105870000Y-67548633D02*
X105603333Y-67548633D01*
X105603333Y-67548633D02*
X105603333Y-66848633D01*
X105603333Y-66848633D02*
X105836667Y-66848633D01*
X105836667Y-66848633D02*
X105903333Y-66881966D01*
X105903333Y-66881966D02*
X105936667Y-66915300D01*
X105936667Y-66915300D02*
X105970000Y-66981966D01*
X105970000Y-66981966D02*
X105970000Y-67048633D01*
X105970000Y-67048633D02*
X105936667Y-67115300D01*
X105936667Y-67115300D02*
X105903333Y-67148633D01*
X105903333Y-67148633D02*
X105836667Y-67181966D01*
X105836667Y-67181966D02*
X105603333Y-67181966D01*
X106303333Y-67181966D02*
X106536667Y-67181966D01*
X106636667Y-67548633D02*
X106303333Y-67548633D01*
X106303333Y-67548633D02*
X106303333Y-66848633D01*
X106303333Y-66848633D02*
X106636667Y-66848633D01*
X106936666Y-67548633D02*
X106936666Y-66848633D01*
X106936666Y-66848633D02*
X107170000Y-67348633D01*
X107170000Y-67348633D02*
X107403333Y-66848633D01*
X107403333Y-66848633D02*
X107403333Y-67548633D01*
X107970000Y-67181966D02*
X107736666Y-67181966D01*
X107736666Y-67548633D02*
X107736666Y-66848633D01*
X107736666Y-66848633D02*
X108070000Y-66848633D01*
X108170000Y-67615300D02*
X108703333Y-67615300D01*
X109269999Y-67481966D02*
X109236666Y-67515300D01*
X109236666Y-67515300D02*
X109136666Y-67548633D01*
X109136666Y-67548633D02*
X109069999Y-67548633D01*
X109069999Y-67548633D02*
X108969999Y-67515300D01*
X108969999Y-67515300D02*
X108903333Y-67448633D01*
X108903333Y-67448633D02*
X108869999Y-67381966D01*
X108869999Y-67381966D02*
X108836666Y-67248633D01*
X108836666Y-67248633D02*
X108836666Y-67148633D01*
X108836666Y-67148633D02*
X108869999Y-67015300D01*
X108869999Y-67015300D02*
X108903333Y-66948633D01*
X108903333Y-66948633D02*
X108969999Y-66881966D01*
X108969999Y-66881966D02*
X109069999Y-66848633D01*
X109069999Y-66848633D02*
X109136666Y-66848633D01*
X109136666Y-66848633D02*
X109236666Y-66881966D01*
X109236666Y-66881966D02*
X109269999Y-66915300D01*
X79459999Y-62768633D02*
X79226666Y-62435300D01*
X79059999Y-62768633D02*
X79059999Y-62068633D01*
X79059999Y-62068633D02*
X79326666Y-62068633D01*
X79326666Y-62068633D02*
X79393333Y-62101966D01*
X79393333Y-62101966D02*
X79426666Y-62135300D01*
X79426666Y-62135300D02*
X79459999Y-62201966D01*
X79459999Y-62201966D02*
X79459999Y-62301966D01*
X79459999Y-62301966D02*
X79426666Y-62368633D01*
X79426666Y-62368633D02*
X79393333Y-62401966D01*
X79393333Y-62401966D02*
X79326666Y-62435300D01*
X79326666Y-62435300D02*
X79059999Y-62435300D01*
X79726666Y-62135300D02*
X79759999Y-62101966D01*
X79759999Y-62101966D02*
X79826666Y-62068633D01*
X79826666Y-62068633D02*
X79993333Y-62068633D01*
X79993333Y-62068633D02*
X80059999Y-62101966D01*
X80059999Y-62101966D02*
X80093333Y-62135300D01*
X80093333Y-62135300D02*
X80126666Y-62201966D01*
X80126666Y-62201966D02*
X80126666Y-62268633D01*
X80126666Y-62268633D02*
X80093333Y-62368633D01*
X80093333Y-62368633D02*
X79693333Y-62768633D01*
X79693333Y-62768633D02*
X80126666Y-62768633D01*
X80726666Y-62068633D02*
X80593333Y-62068633D01*
X80593333Y-62068633D02*
X80526666Y-62101966D01*
X80526666Y-62101966D02*
X80493333Y-62135300D01*
X80493333Y-62135300D02*
X80426666Y-62235300D01*
X80426666Y-62235300D02*
X80393333Y-62368633D01*
X80393333Y-62368633D02*
X80393333Y-62635300D01*
X80393333Y-62635300D02*
X80426666Y-62701966D01*
X80426666Y-62701966D02*
X80460000Y-62735300D01*
X80460000Y-62735300D02*
X80526666Y-62768633D01*
X80526666Y-62768633D02*
X80660000Y-62768633D01*
X80660000Y-62768633D02*
X80726666Y-62735300D01*
X80726666Y-62735300D02*
X80760000Y-62701966D01*
X80760000Y-62701966D02*
X80793333Y-62635300D01*
X80793333Y-62635300D02*
X80793333Y-62468633D01*
X80793333Y-62468633D02*
X80760000Y-62401966D01*
X80760000Y-62401966D02*
X80726666Y-62368633D01*
X80726666Y-62368633D02*
X80660000Y-62335300D01*
X80660000Y-62335300D02*
X80526666Y-62335300D01*
X80526666Y-62335300D02*
X80460000Y-62368633D01*
X80460000Y-62368633D02*
X80426666Y-62401966D01*
X80426666Y-62401966D02*
X80393333Y-62468633D01*
X49726666Y-53238633D02*
X50126666Y-53238633D01*
X49926666Y-53938633D02*
X49926666Y-53238633D01*
X50259999Y-53238633D02*
X50493333Y-53938633D01*
X50493333Y-53938633D02*
X50726666Y-53238633D01*
X50926666Y-53905300D02*
X51026666Y-53938633D01*
X51026666Y-53938633D02*
X51193333Y-53938633D01*
X51193333Y-53938633D02*
X51259999Y-53905300D01*
X51259999Y-53905300D02*
X51293333Y-53871966D01*
X51293333Y-53871966D02*
X51326666Y-53805300D01*
X51326666Y-53805300D02*
X51326666Y-53738633D01*
X51326666Y-53738633D02*
X51293333Y-53671966D01*
X51293333Y-53671966D02*
X51259999Y-53638633D01*
X51259999Y-53638633D02*
X51193333Y-53605300D01*
X51193333Y-53605300D02*
X51059999Y-53571966D01*
X51059999Y-53571966D02*
X50993333Y-53538633D01*
X50993333Y-53538633D02*
X50959999Y-53505300D01*
X50959999Y-53505300D02*
X50926666Y-53438633D01*
X50926666Y-53438633D02*
X50926666Y-53371966D01*
X50926666Y-53371966D02*
X50959999Y-53305300D01*
X50959999Y-53305300D02*
X50993333Y-53271966D01*
X50993333Y-53271966D02*
X51059999Y-53238633D01*
X51059999Y-53238633D02*
X51226666Y-53238633D01*
X51226666Y-53238633D02*
X51326666Y-53271966D01*
X72851966Y-54250000D02*
X72885300Y-54283333D01*
X72885300Y-54283333D02*
X72918633Y-54383333D01*
X72918633Y-54383333D02*
X72918633Y-54450000D01*
X72918633Y-54450000D02*
X72885300Y-54550000D01*
X72885300Y-54550000D02*
X72818633Y-54616667D01*
X72818633Y-54616667D02*
X72751966Y-54650000D01*
X72751966Y-54650000D02*
X72618633Y-54683333D01*
X72618633Y-54683333D02*
X72518633Y-54683333D01*
X72518633Y-54683333D02*
X72385300Y-54650000D01*
X72385300Y-54650000D02*
X72318633Y-54616667D01*
X72318633Y-54616667D02*
X72251966Y-54550000D01*
X72251966Y-54550000D02*
X72218633Y-54450000D01*
X72218633Y-54450000D02*
X72218633Y-54383333D01*
X72218633Y-54383333D02*
X72251966Y-54283333D01*
X72251966Y-54283333D02*
X72285300Y-54250000D01*
X72918633Y-53583333D02*
X72918633Y-53983333D01*
X72918633Y-53783333D02*
X72218633Y-53783333D01*
X72218633Y-53783333D02*
X72318633Y-53850000D01*
X72318633Y-53850000D02*
X72385300Y-53916667D01*
X72385300Y-53916667D02*
X72418633Y-53983333D01*
X72218633Y-53350000D02*
X72218633Y-52916666D01*
X72218633Y-52916666D02*
X72485300Y-53150000D01*
X72485300Y-53150000D02*
X72485300Y-53050000D01*
X72485300Y-53050000D02*
X72518633Y-52983333D01*
X72518633Y-52983333D02*
X72551966Y-52950000D01*
X72551966Y-52950000D02*
X72618633Y-52916666D01*
X72618633Y-52916666D02*
X72785300Y-52916666D01*
X72785300Y-52916666D02*
X72851966Y-52950000D01*
X72851966Y-52950000D02*
X72885300Y-52983333D01*
X72885300Y-52983333D02*
X72918633Y-53050000D01*
X72918633Y-53050000D02*
X72918633Y-53250000D01*
X72918633Y-53250000D02*
X72885300Y-53316666D01*
X72885300Y-53316666D02*
X72851966Y-53350000D01*
X71051966Y-54666666D02*
X71085300Y-54699999D01*
X71085300Y-54699999D02*
X71118633Y-54799999D01*
X71118633Y-54799999D02*
X71118633Y-54866666D01*
X71118633Y-54866666D02*
X71085300Y-54966666D01*
X71085300Y-54966666D02*
X71018633Y-55033333D01*
X71018633Y-55033333D02*
X70951966Y-55066666D01*
X70951966Y-55066666D02*
X70818633Y-55099999D01*
X70818633Y-55099999D02*
X70718633Y-55099999D01*
X70718633Y-55099999D02*
X70585300Y-55066666D01*
X70585300Y-55066666D02*
X70518633Y-55033333D01*
X70518633Y-55033333D02*
X70451966Y-54966666D01*
X70451966Y-54966666D02*
X70418633Y-54866666D01*
X70418633Y-54866666D02*
X70418633Y-54799999D01*
X70418633Y-54799999D02*
X70451966Y-54699999D01*
X70451966Y-54699999D02*
X70485300Y-54666666D01*
X70418633Y-54033333D02*
X70418633Y-54366666D01*
X70418633Y-54366666D02*
X70751966Y-54399999D01*
X70751966Y-54399999D02*
X70718633Y-54366666D01*
X70718633Y-54366666D02*
X70685300Y-54299999D01*
X70685300Y-54299999D02*
X70685300Y-54133333D01*
X70685300Y-54133333D02*
X70718633Y-54066666D01*
X70718633Y-54066666D02*
X70751966Y-54033333D01*
X70751966Y-54033333D02*
X70818633Y-53999999D01*
X70818633Y-53999999D02*
X70985300Y-53999999D01*
X70985300Y-53999999D02*
X71051966Y-54033333D01*
X71051966Y-54033333D02*
X71085300Y-54066666D01*
X71085300Y-54066666D02*
X71118633Y-54133333D01*
X71118633Y-54133333D02*
X71118633Y-54299999D01*
X71118633Y-54299999D02*
X71085300Y-54366666D01*
X71085300Y-54366666D02*
X71051966Y-54399999D01*
X97983333Y-44118633D02*
X97750000Y-43785300D01*
X97583333Y-44118633D02*
X97583333Y-43418633D01*
X97583333Y-43418633D02*
X97850000Y-43418633D01*
X97850000Y-43418633D02*
X97916667Y-43451966D01*
X97916667Y-43451966D02*
X97950000Y-43485300D01*
X97950000Y-43485300D02*
X97983333Y-43551966D01*
X97983333Y-43551966D02*
X97983333Y-43651966D01*
X97983333Y-43651966D02*
X97950000Y-43718633D01*
X97950000Y-43718633D02*
X97916667Y-43751966D01*
X97916667Y-43751966D02*
X97850000Y-43785300D01*
X97850000Y-43785300D02*
X97583333Y-43785300D01*
X98216667Y-43418633D02*
X98650000Y-43418633D01*
X98650000Y-43418633D02*
X98416667Y-43685300D01*
X98416667Y-43685300D02*
X98516667Y-43685300D01*
X98516667Y-43685300D02*
X98583333Y-43718633D01*
X98583333Y-43718633D02*
X98616667Y-43751966D01*
X98616667Y-43751966D02*
X98650000Y-43818633D01*
X98650000Y-43818633D02*
X98650000Y-43985300D01*
X98650000Y-43985300D02*
X98616667Y-44051966D01*
X98616667Y-44051966D02*
X98583333Y-44085300D01*
X98583333Y-44085300D02*
X98516667Y-44118633D01*
X98516667Y-44118633D02*
X98316667Y-44118633D01*
X98316667Y-44118633D02*
X98250000Y-44085300D01*
X98250000Y-44085300D02*
X98216667Y-44051966D01*
X95553333Y-67421966D02*
X95520000Y-67455300D01*
X95520000Y-67455300D02*
X95420000Y-67488633D01*
X95420000Y-67488633D02*
X95353333Y-67488633D01*
X95353333Y-67488633D02*
X95253333Y-67455300D01*
X95253333Y-67455300D02*
X95186667Y-67388633D01*
X95186667Y-67388633D02*
X95153333Y-67321966D01*
X95153333Y-67321966D02*
X95120000Y-67188633D01*
X95120000Y-67188633D02*
X95120000Y-67088633D01*
X95120000Y-67088633D02*
X95153333Y-66955300D01*
X95153333Y-66955300D02*
X95186667Y-66888633D01*
X95186667Y-66888633D02*
X95253333Y-66821966D01*
X95253333Y-66821966D02*
X95353333Y-66788633D01*
X95353333Y-66788633D02*
X95420000Y-66788633D01*
X95420000Y-66788633D02*
X95520000Y-66821966D01*
X95520000Y-66821966D02*
X95553333Y-66855300D01*
X96186667Y-67488633D02*
X95853333Y-67488633D01*
X95853333Y-67488633D02*
X95853333Y-66788633D01*
X76766667Y-58151966D02*
X76700000Y-58118633D01*
X76700000Y-58118633D02*
X76600000Y-58118633D01*
X76600000Y-58118633D02*
X76500000Y-58151966D01*
X76500000Y-58151966D02*
X76433334Y-58218633D01*
X76433334Y-58218633D02*
X76400000Y-58285300D01*
X76400000Y-58285300D02*
X76366667Y-58418633D01*
X76366667Y-58418633D02*
X76366667Y-58518633D01*
X76366667Y-58518633D02*
X76400000Y-58651966D01*
X76400000Y-58651966D02*
X76433334Y-58718633D01*
X76433334Y-58718633D02*
X76500000Y-58785300D01*
X76500000Y-58785300D02*
X76600000Y-58818633D01*
X76600000Y-58818633D02*
X76666667Y-58818633D01*
X76666667Y-58818633D02*
X76766667Y-58785300D01*
X76766667Y-58785300D02*
X76800000Y-58751966D01*
X76800000Y-58751966D02*
X76800000Y-58518633D01*
X76800000Y-58518633D02*
X76666667Y-58518633D01*
X77500000Y-58818633D02*
X77266667Y-58485300D01*
X77100000Y-58818633D02*
X77100000Y-58118633D01*
X77100000Y-58118633D02*
X77366667Y-58118633D01*
X77366667Y-58118633D02*
X77433334Y-58151966D01*
X77433334Y-58151966D02*
X77466667Y-58185300D01*
X77466667Y-58185300D02*
X77500000Y-58251966D01*
X77500000Y-58251966D02*
X77500000Y-58351966D01*
X77500000Y-58351966D02*
X77466667Y-58418633D01*
X77466667Y-58418633D02*
X77433334Y-58451966D01*
X77433334Y-58451966D02*
X77366667Y-58485300D01*
X77366667Y-58485300D02*
X77100000Y-58485300D01*
X77800000Y-58818633D02*
X77800000Y-58118633D01*
X77800000Y-58118633D02*
X78200000Y-58818633D01*
X78200000Y-58818633D02*
X78200000Y-58118633D01*
X82349999Y-45151966D02*
X82316666Y-45185300D01*
X82316666Y-45185300D02*
X82216666Y-45218633D01*
X82216666Y-45218633D02*
X82149999Y-45218633D01*
X82149999Y-45218633D02*
X82049999Y-45185300D01*
X82049999Y-45185300D02*
X81983333Y-45118633D01*
X81983333Y-45118633D02*
X81949999Y-45051966D01*
X81949999Y-45051966D02*
X81916666Y-44918633D01*
X81916666Y-44918633D02*
X81916666Y-44818633D01*
X81916666Y-44818633D02*
X81949999Y-44685300D01*
X81949999Y-44685300D02*
X81983333Y-44618633D01*
X81983333Y-44618633D02*
X82049999Y-44551966D01*
X82049999Y-44551966D02*
X82149999Y-44518633D01*
X82149999Y-44518633D02*
X82216666Y-44518633D01*
X82216666Y-44518633D02*
X82316666Y-44551966D01*
X82316666Y-44551966D02*
X82349999Y-44585300D01*
X83016666Y-45218633D02*
X82616666Y-45218633D01*
X82816666Y-45218633D02*
X82816666Y-44518633D01*
X82816666Y-44518633D02*
X82749999Y-44618633D01*
X82749999Y-44618633D02*
X82683333Y-44685300D01*
X82683333Y-44685300D02*
X82616666Y-44718633D01*
X83650000Y-44518633D02*
X83316666Y-44518633D01*
X83316666Y-44518633D02*
X83283333Y-44851966D01*
X83283333Y-44851966D02*
X83316666Y-44818633D01*
X83316666Y-44818633D02*
X83383333Y-44785300D01*
X83383333Y-44785300D02*
X83550000Y-44785300D01*
X83550000Y-44785300D02*
X83616666Y-44818633D01*
X83616666Y-44818633D02*
X83650000Y-44851966D01*
X83650000Y-44851966D02*
X83683333Y-44918633D01*
X83683333Y-44918633D02*
X83683333Y-45085300D01*
X83683333Y-45085300D02*
X83650000Y-45151966D01*
X83650000Y-45151966D02*
X83616666Y-45185300D01*
X83616666Y-45185300D02*
X83550000Y-45218633D01*
X83550000Y-45218633D02*
X83383333Y-45218633D01*
X83383333Y-45218633D02*
X83316666Y-45185300D01*
X83316666Y-45185300D02*
X83283333Y-45151966D01*
X66823333Y-37251966D02*
X66790000Y-37285300D01*
X66790000Y-37285300D02*
X66690000Y-37318633D01*
X66690000Y-37318633D02*
X66623333Y-37318633D01*
X66623333Y-37318633D02*
X66523333Y-37285300D01*
X66523333Y-37285300D02*
X66456667Y-37218633D01*
X66456667Y-37218633D02*
X66423333Y-37151966D01*
X66423333Y-37151966D02*
X66390000Y-37018633D01*
X66390000Y-37018633D02*
X66390000Y-36918633D01*
X66390000Y-36918633D02*
X66423333Y-36785300D01*
X66423333Y-36785300D02*
X66456667Y-36718633D01*
X66456667Y-36718633D02*
X66523333Y-36651966D01*
X66523333Y-36651966D02*
X66623333Y-36618633D01*
X66623333Y-36618633D02*
X66690000Y-36618633D01*
X66690000Y-36618633D02*
X66790000Y-36651966D01*
X66790000Y-36651966D02*
X66823333Y-36685300D01*
X67490000Y-37318633D02*
X67090000Y-37318633D01*
X67290000Y-37318633D02*
X67290000Y-36618633D01*
X67290000Y-36618633D02*
X67223333Y-36718633D01*
X67223333Y-36718633D02*
X67156667Y-36785300D01*
X67156667Y-36785300D02*
X67090000Y-36818633D01*
X82599999Y-39368633D02*
X82366666Y-39035300D01*
X82199999Y-39368633D02*
X82199999Y-38668633D01*
X82199999Y-38668633D02*
X82466666Y-38668633D01*
X82466666Y-38668633D02*
X82533333Y-38701966D01*
X82533333Y-38701966D02*
X82566666Y-38735300D01*
X82566666Y-38735300D02*
X82599999Y-38801966D01*
X82599999Y-38801966D02*
X82599999Y-38901966D01*
X82599999Y-38901966D02*
X82566666Y-38968633D01*
X82566666Y-38968633D02*
X82533333Y-39001966D01*
X82533333Y-39001966D02*
X82466666Y-39035300D01*
X82466666Y-39035300D02*
X82199999Y-39035300D01*
X83266666Y-39368633D02*
X82866666Y-39368633D01*
X83066666Y-39368633D02*
X83066666Y-38668633D01*
X83066666Y-38668633D02*
X82999999Y-38768633D01*
X82999999Y-38768633D02*
X82933333Y-38835300D01*
X82933333Y-38835300D02*
X82866666Y-38868633D01*
X83866666Y-38901966D02*
X83866666Y-39368633D01*
X83700000Y-38635300D02*
X83533333Y-39135300D01*
X83533333Y-39135300D02*
X83966666Y-39135300D01*
X82649999Y-56018633D02*
X82416666Y-55685300D01*
X82249999Y-56018633D02*
X82249999Y-55318633D01*
X82249999Y-55318633D02*
X82516666Y-55318633D01*
X82516666Y-55318633D02*
X82583333Y-55351966D01*
X82583333Y-55351966D02*
X82616666Y-55385300D01*
X82616666Y-55385300D02*
X82649999Y-55451966D01*
X82649999Y-55451966D02*
X82649999Y-55551966D01*
X82649999Y-55551966D02*
X82616666Y-55618633D01*
X82616666Y-55618633D02*
X82583333Y-55651966D01*
X82583333Y-55651966D02*
X82516666Y-55685300D01*
X82516666Y-55685300D02*
X82249999Y-55685300D01*
X83316666Y-56018633D02*
X82916666Y-56018633D01*
X83116666Y-56018633D02*
X83116666Y-55318633D01*
X83116666Y-55318633D02*
X83049999Y-55418633D01*
X83049999Y-55418633D02*
X82983333Y-55485300D01*
X82983333Y-55485300D02*
X82916666Y-55518633D01*
X83583333Y-55385300D02*
X83616666Y-55351966D01*
X83616666Y-55351966D02*
X83683333Y-55318633D01*
X83683333Y-55318633D02*
X83850000Y-55318633D01*
X83850000Y-55318633D02*
X83916666Y-55351966D01*
X83916666Y-55351966D02*
X83950000Y-55385300D01*
X83950000Y-55385300D02*
X83983333Y-55451966D01*
X83983333Y-55451966D02*
X83983333Y-55518633D01*
X83983333Y-55518633D02*
X83950000Y-55618633D01*
X83950000Y-55618633D02*
X83550000Y-56018633D01*
X83550000Y-56018633D02*
X83983333Y-56018633D01*
X67416666Y-53118633D02*
X67416666Y-53685300D01*
X67416666Y-53685300D02*
X67450000Y-53751966D01*
X67450000Y-53751966D02*
X67483333Y-53785300D01*
X67483333Y-53785300D02*
X67550000Y-53818633D01*
X67550000Y-53818633D02*
X67683333Y-53818633D01*
X67683333Y-53818633D02*
X67750000Y-53785300D01*
X67750000Y-53785300D02*
X67783333Y-53751966D01*
X67783333Y-53751966D02*
X67816666Y-53685300D01*
X67816666Y-53685300D02*
X67816666Y-53118633D01*
X68116666Y-53185300D02*
X68149999Y-53151966D01*
X68149999Y-53151966D02*
X68216666Y-53118633D01*
X68216666Y-53118633D02*
X68383333Y-53118633D01*
X68383333Y-53118633D02*
X68449999Y-53151966D01*
X68449999Y-53151966D02*
X68483333Y-53185300D01*
X68483333Y-53185300D02*
X68516666Y-53251966D01*
X68516666Y-53251966D02*
X68516666Y-53318633D01*
X68516666Y-53318633D02*
X68483333Y-53418633D01*
X68483333Y-53418633D02*
X68083333Y-53818633D01*
X68083333Y-53818633D02*
X68516666Y-53818633D01*
X82649999Y-57518633D02*
X82416666Y-57185300D01*
X82249999Y-57518633D02*
X82249999Y-56818633D01*
X82249999Y-56818633D02*
X82516666Y-56818633D01*
X82516666Y-56818633D02*
X82583333Y-56851966D01*
X82583333Y-56851966D02*
X82616666Y-56885300D01*
X82616666Y-56885300D02*
X82649999Y-56951966D01*
X82649999Y-56951966D02*
X82649999Y-57051966D01*
X82649999Y-57051966D02*
X82616666Y-57118633D01*
X82616666Y-57118633D02*
X82583333Y-57151966D01*
X82583333Y-57151966D02*
X82516666Y-57185300D01*
X82516666Y-57185300D02*
X82249999Y-57185300D01*
X83316666Y-57518633D02*
X82916666Y-57518633D01*
X83116666Y-57518633D02*
X83116666Y-56818633D01*
X83116666Y-56818633D02*
X83049999Y-56918633D01*
X83049999Y-56918633D02*
X82983333Y-56985300D01*
X82983333Y-56985300D02*
X82916666Y-57018633D01*
X83550000Y-56818633D02*
X83983333Y-56818633D01*
X83983333Y-56818633D02*
X83750000Y-57085300D01*
X83750000Y-57085300D02*
X83850000Y-57085300D01*
X83850000Y-57085300D02*
X83916666Y-57118633D01*
X83916666Y-57118633D02*
X83950000Y-57151966D01*
X83950000Y-57151966D02*
X83983333Y-57218633D01*
X83983333Y-57218633D02*
X83983333Y-57385300D01*
X83983333Y-57385300D02*
X83950000Y-57451966D01*
X83950000Y-57451966D02*
X83916666Y-57485300D01*
X83916666Y-57485300D02*
X83850000Y-57518633D01*
X83850000Y-57518633D02*
X83650000Y-57518633D01*
X83650000Y-57518633D02*
X83583333Y-57485300D01*
X83583333Y-57485300D02*
X83550000Y-57451966D01*
X76837500Y-63068633D02*
X76604167Y-62735300D01*
X76437500Y-63068633D02*
X76437500Y-62368633D01*
X76437500Y-62368633D02*
X76704167Y-62368633D01*
X76704167Y-62368633D02*
X76770834Y-62401966D01*
X76770834Y-62401966D02*
X76804167Y-62435300D01*
X76804167Y-62435300D02*
X76837500Y-62501966D01*
X76837500Y-62501966D02*
X76837500Y-62601966D01*
X76837500Y-62601966D02*
X76804167Y-62668633D01*
X76804167Y-62668633D02*
X76770834Y-62701966D01*
X76770834Y-62701966D02*
X76704167Y-62735300D01*
X76704167Y-62735300D02*
X76437500Y-62735300D01*
X77137500Y-62701966D02*
X77370834Y-62701966D01*
X77470834Y-63068633D02*
X77137500Y-63068633D01*
X77137500Y-63068633D02*
X77137500Y-62368633D01*
X77137500Y-62368633D02*
X77470834Y-62368633D01*
X77770833Y-63068633D02*
X77770833Y-62368633D01*
X77770833Y-62368633D02*
X77937500Y-62368633D01*
X77937500Y-62368633D02*
X78037500Y-62401966D01*
X78037500Y-62401966D02*
X78104167Y-62468633D01*
X78104167Y-62468633D02*
X78137500Y-62535300D01*
X78137500Y-62535300D02*
X78170833Y-62668633D01*
X78170833Y-62668633D02*
X78170833Y-62768633D01*
X78170833Y-62768633D02*
X78137500Y-62901966D01*
X78137500Y-62901966D02*
X78104167Y-62968633D01*
X78104167Y-62968633D02*
X78037500Y-63035300D01*
X78037500Y-63035300D02*
X77937500Y-63068633D01*
X77937500Y-63068633D02*
X77770833Y-63068633D01*
X98730000Y-58911966D02*
X98696667Y-58945300D01*
X98696667Y-58945300D02*
X98596667Y-58978633D01*
X98596667Y-58978633D02*
X98530000Y-58978633D01*
X98530000Y-58978633D02*
X98430000Y-58945300D01*
X98430000Y-58945300D02*
X98363334Y-58878633D01*
X98363334Y-58878633D02*
X98330000Y-58811966D01*
X98330000Y-58811966D02*
X98296667Y-58678633D01*
X98296667Y-58678633D02*
X98296667Y-58578633D01*
X98296667Y-58578633D02*
X98330000Y-58445300D01*
X98330000Y-58445300D02*
X98363334Y-58378633D01*
X98363334Y-58378633D02*
X98430000Y-58311966D01*
X98430000Y-58311966D02*
X98530000Y-58278633D01*
X98530000Y-58278633D02*
X98596667Y-58278633D01*
X98596667Y-58278633D02*
X98696667Y-58311966D01*
X98696667Y-58311966D02*
X98730000Y-58345300D01*
X99030000Y-58978633D02*
X99030000Y-58278633D01*
X99030000Y-58611966D02*
X99430000Y-58611966D01*
X99430000Y-58978633D02*
X99430000Y-58278633D01*
X63668633Y-61666666D02*
X63335300Y-61899999D01*
X63668633Y-62066666D02*
X62968633Y-62066666D01*
X62968633Y-62066666D02*
X62968633Y-61799999D01*
X62968633Y-61799999D02*
X63001966Y-61733333D01*
X63001966Y-61733333D02*
X63035300Y-61699999D01*
X63035300Y-61699999D02*
X63101966Y-61666666D01*
X63101966Y-61666666D02*
X63201966Y-61666666D01*
X63201966Y-61666666D02*
X63268633Y-61699999D01*
X63268633Y-61699999D02*
X63301966Y-61733333D01*
X63301966Y-61733333D02*
X63335300Y-61799999D01*
X63335300Y-61799999D02*
X63335300Y-62066666D01*
X63268633Y-61266666D02*
X63235300Y-61333333D01*
X63235300Y-61333333D02*
X63201966Y-61366666D01*
X63201966Y-61366666D02*
X63135300Y-61399999D01*
X63135300Y-61399999D02*
X63101966Y-61399999D01*
X63101966Y-61399999D02*
X63035300Y-61366666D01*
X63035300Y-61366666D02*
X63001966Y-61333333D01*
X63001966Y-61333333D02*
X62968633Y-61266666D01*
X62968633Y-61266666D02*
X62968633Y-61133333D01*
X62968633Y-61133333D02*
X63001966Y-61066666D01*
X63001966Y-61066666D02*
X63035300Y-61033333D01*
X63035300Y-61033333D02*
X63101966Y-60999999D01*
X63101966Y-60999999D02*
X63135300Y-60999999D01*
X63135300Y-60999999D02*
X63201966Y-61033333D01*
X63201966Y-61033333D02*
X63235300Y-61066666D01*
X63235300Y-61066666D02*
X63268633Y-61133333D01*
X63268633Y-61133333D02*
X63268633Y-61266666D01*
X63268633Y-61266666D02*
X63301966Y-61333333D01*
X63301966Y-61333333D02*
X63335300Y-61366666D01*
X63335300Y-61366666D02*
X63401966Y-61399999D01*
X63401966Y-61399999D02*
X63535300Y-61399999D01*
X63535300Y-61399999D02*
X63601966Y-61366666D01*
X63601966Y-61366666D02*
X63635300Y-61333333D01*
X63635300Y-61333333D02*
X63668633Y-61266666D01*
X63668633Y-61266666D02*
X63668633Y-61133333D01*
X63668633Y-61133333D02*
X63635300Y-61066666D01*
X63635300Y-61066666D02*
X63601966Y-61033333D01*
X63601966Y-61033333D02*
X63535300Y-60999999D01*
X63535300Y-60999999D02*
X63401966Y-60999999D01*
X63401966Y-60999999D02*
X63335300Y-61033333D01*
X63335300Y-61033333D02*
X63301966Y-61066666D01*
X63301966Y-61066666D02*
X63268633Y-61133333D01*
X102293333Y-55528633D02*
X102060000Y-55195300D01*
X101893333Y-55528633D02*
X101893333Y-54828633D01*
X101893333Y-54828633D02*
X102160000Y-54828633D01*
X102160000Y-54828633D02*
X102226667Y-54861966D01*
X102226667Y-54861966D02*
X102260000Y-54895300D01*
X102260000Y-54895300D02*
X102293333Y-54961966D01*
X102293333Y-54961966D02*
X102293333Y-55061966D01*
X102293333Y-55061966D02*
X102260000Y-55128633D01*
X102260000Y-55128633D02*
X102226667Y-55161966D01*
X102226667Y-55161966D02*
X102160000Y-55195300D01*
X102160000Y-55195300D02*
X101893333Y-55195300D01*
X102526667Y-54828633D02*
X102993333Y-54828633D01*
X102993333Y-54828633D02*
X102693333Y-55528633D01*
X70216666Y-37918633D02*
X70216666Y-38485300D01*
X70216666Y-38485300D02*
X70250000Y-38551966D01*
X70250000Y-38551966D02*
X70283333Y-38585300D01*
X70283333Y-38585300D02*
X70350000Y-38618633D01*
X70350000Y-38618633D02*
X70483333Y-38618633D01*
X70483333Y-38618633D02*
X70550000Y-38585300D01*
X70550000Y-38585300D02*
X70583333Y-38551966D01*
X70583333Y-38551966D02*
X70616666Y-38485300D01*
X70616666Y-38485300D02*
X70616666Y-37918633D01*
X71316666Y-38618633D02*
X70916666Y-38618633D01*
X71116666Y-38618633D02*
X71116666Y-37918633D01*
X71116666Y-37918633D02*
X71049999Y-38018633D01*
X71049999Y-38018633D02*
X70983333Y-38085300D01*
X70983333Y-38085300D02*
X70916666Y-38118633D01*
X59821966Y-56576666D02*
X59855300Y-56609999D01*
X59855300Y-56609999D02*
X59888633Y-56709999D01*
X59888633Y-56709999D02*
X59888633Y-56776666D01*
X59888633Y-56776666D02*
X59855300Y-56876666D01*
X59855300Y-56876666D02*
X59788633Y-56943333D01*
X59788633Y-56943333D02*
X59721966Y-56976666D01*
X59721966Y-56976666D02*
X59588633Y-57009999D01*
X59588633Y-57009999D02*
X59488633Y-57009999D01*
X59488633Y-57009999D02*
X59355300Y-56976666D01*
X59355300Y-56976666D02*
X59288633Y-56943333D01*
X59288633Y-56943333D02*
X59221966Y-56876666D01*
X59221966Y-56876666D02*
X59188633Y-56776666D01*
X59188633Y-56776666D02*
X59188633Y-56709999D01*
X59188633Y-56709999D02*
X59221966Y-56609999D01*
X59221966Y-56609999D02*
X59255300Y-56576666D01*
X59488633Y-56176666D02*
X59455300Y-56243333D01*
X59455300Y-56243333D02*
X59421966Y-56276666D01*
X59421966Y-56276666D02*
X59355300Y-56309999D01*
X59355300Y-56309999D02*
X59321966Y-56309999D01*
X59321966Y-56309999D02*
X59255300Y-56276666D01*
X59255300Y-56276666D02*
X59221966Y-56243333D01*
X59221966Y-56243333D02*
X59188633Y-56176666D01*
X59188633Y-56176666D02*
X59188633Y-56043333D01*
X59188633Y-56043333D02*
X59221966Y-55976666D01*
X59221966Y-55976666D02*
X59255300Y-55943333D01*
X59255300Y-55943333D02*
X59321966Y-55909999D01*
X59321966Y-55909999D02*
X59355300Y-55909999D01*
X59355300Y-55909999D02*
X59421966Y-55943333D01*
X59421966Y-55943333D02*
X59455300Y-55976666D01*
X59455300Y-55976666D02*
X59488633Y-56043333D01*
X59488633Y-56043333D02*
X59488633Y-56176666D01*
X59488633Y-56176666D02*
X59521966Y-56243333D01*
X59521966Y-56243333D02*
X59555300Y-56276666D01*
X59555300Y-56276666D02*
X59621966Y-56309999D01*
X59621966Y-56309999D02*
X59755300Y-56309999D01*
X59755300Y-56309999D02*
X59821966Y-56276666D01*
X59821966Y-56276666D02*
X59855300Y-56243333D01*
X59855300Y-56243333D02*
X59888633Y-56176666D01*
X59888633Y-56176666D02*
X59888633Y-56043333D01*
X59888633Y-56043333D02*
X59855300Y-55976666D01*
X59855300Y-55976666D02*
X59821966Y-55943333D01*
X59821966Y-55943333D02*
X59755300Y-55909999D01*
X59755300Y-55909999D02*
X59621966Y-55909999D01*
X59621966Y-55909999D02*
X59555300Y-55943333D01*
X59555300Y-55943333D02*
X59521966Y-55976666D01*
X59521966Y-55976666D02*
X59488633Y-56043333D01*
X98673334Y-46061966D02*
X98773334Y-46095300D01*
X98773334Y-46095300D02*
X98806667Y-46128633D01*
X98806667Y-46128633D02*
X98840000Y-46195300D01*
X98840000Y-46195300D02*
X98840000Y-46295300D01*
X98840000Y-46295300D02*
X98806667Y-46361966D01*
X98806667Y-46361966D02*
X98773334Y-46395300D01*
X98773334Y-46395300D02*
X98706667Y-46428633D01*
X98706667Y-46428633D02*
X98440000Y-46428633D01*
X98440000Y-46428633D02*
X98440000Y-45728633D01*
X98440000Y-45728633D02*
X98673334Y-45728633D01*
X98673334Y-45728633D02*
X98740000Y-45761966D01*
X98740000Y-45761966D02*
X98773334Y-45795300D01*
X98773334Y-45795300D02*
X98806667Y-45861966D01*
X98806667Y-45861966D02*
X98806667Y-45928633D01*
X98806667Y-45928633D02*
X98773334Y-45995300D01*
X98773334Y-45995300D02*
X98740000Y-46028633D01*
X98740000Y-46028633D02*
X98673334Y-46061966D01*
X98673334Y-46061966D02*
X98440000Y-46061966D01*
X99140000Y-46428633D02*
X99140000Y-45728633D01*
X99140000Y-46061966D02*
X99540000Y-46061966D01*
X99540000Y-46428633D02*
X99540000Y-45728633D01*
X65489999Y-38371966D02*
X65456666Y-38405300D01*
X65456666Y-38405300D02*
X65356666Y-38438633D01*
X65356666Y-38438633D02*
X65289999Y-38438633D01*
X65289999Y-38438633D02*
X65189999Y-38405300D01*
X65189999Y-38405300D02*
X65123333Y-38338633D01*
X65123333Y-38338633D02*
X65089999Y-38271966D01*
X65089999Y-38271966D02*
X65056666Y-38138633D01*
X65056666Y-38138633D02*
X65056666Y-38038633D01*
X65056666Y-38038633D02*
X65089999Y-37905300D01*
X65089999Y-37905300D02*
X65123333Y-37838633D01*
X65123333Y-37838633D02*
X65189999Y-37771966D01*
X65189999Y-37771966D02*
X65289999Y-37738633D01*
X65289999Y-37738633D02*
X65356666Y-37738633D01*
X65356666Y-37738633D02*
X65456666Y-37771966D01*
X65456666Y-37771966D02*
X65489999Y-37805300D01*
X65756666Y-37805300D02*
X65789999Y-37771966D01*
X65789999Y-37771966D02*
X65856666Y-37738633D01*
X65856666Y-37738633D02*
X66023333Y-37738633D01*
X66023333Y-37738633D02*
X66089999Y-37771966D01*
X66089999Y-37771966D02*
X66123333Y-37805300D01*
X66123333Y-37805300D02*
X66156666Y-37871966D01*
X66156666Y-37871966D02*
X66156666Y-37938633D01*
X66156666Y-37938633D02*
X66123333Y-38038633D01*
X66123333Y-38038633D02*
X65723333Y-38438633D01*
X65723333Y-38438633D02*
X66156666Y-38438633D01*
X66423333Y-37805300D02*
X66456666Y-37771966D01*
X66456666Y-37771966D02*
X66523333Y-37738633D01*
X66523333Y-37738633D02*
X66690000Y-37738633D01*
X66690000Y-37738633D02*
X66756666Y-37771966D01*
X66756666Y-37771966D02*
X66790000Y-37805300D01*
X66790000Y-37805300D02*
X66823333Y-37871966D01*
X66823333Y-37871966D02*
X66823333Y-37938633D01*
X66823333Y-37938633D02*
X66790000Y-38038633D01*
X66790000Y-38038633D02*
X66390000Y-38438633D01*
X66390000Y-38438633D02*
X66823333Y-38438633D01*
X79499999Y-59168633D02*
X79266666Y-58835300D01*
X79099999Y-59168633D02*
X79099999Y-58468633D01*
X79099999Y-58468633D02*
X79366666Y-58468633D01*
X79366666Y-58468633D02*
X79433333Y-58501966D01*
X79433333Y-58501966D02*
X79466666Y-58535300D01*
X79466666Y-58535300D02*
X79499999Y-58601966D01*
X79499999Y-58601966D02*
X79499999Y-58701966D01*
X79499999Y-58701966D02*
X79466666Y-58768633D01*
X79466666Y-58768633D02*
X79433333Y-58801966D01*
X79433333Y-58801966D02*
X79366666Y-58835300D01*
X79366666Y-58835300D02*
X79099999Y-58835300D01*
X79766666Y-58535300D02*
X79799999Y-58501966D01*
X79799999Y-58501966D02*
X79866666Y-58468633D01*
X79866666Y-58468633D02*
X80033333Y-58468633D01*
X80033333Y-58468633D02*
X80099999Y-58501966D01*
X80099999Y-58501966D02*
X80133333Y-58535300D01*
X80133333Y-58535300D02*
X80166666Y-58601966D01*
X80166666Y-58601966D02*
X80166666Y-58668633D01*
X80166666Y-58668633D02*
X80133333Y-58768633D01*
X80133333Y-58768633D02*
X79733333Y-59168633D01*
X79733333Y-59168633D02*
X80166666Y-59168633D01*
X80800000Y-58468633D02*
X80466666Y-58468633D01*
X80466666Y-58468633D02*
X80433333Y-58801966D01*
X80433333Y-58801966D02*
X80466666Y-58768633D01*
X80466666Y-58768633D02*
X80533333Y-58735300D01*
X80533333Y-58735300D02*
X80700000Y-58735300D01*
X80700000Y-58735300D02*
X80766666Y-58768633D01*
X80766666Y-58768633D02*
X80800000Y-58801966D01*
X80800000Y-58801966D02*
X80833333Y-58868633D01*
X80833333Y-58868633D02*
X80833333Y-59035300D01*
X80833333Y-59035300D02*
X80800000Y-59101966D01*
X80800000Y-59101966D02*
X80766666Y-59135300D01*
X80766666Y-59135300D02*
X80700000Y-59168633D01*
X80700000Y-59168633D02*
X80533333Y-59168633D01*
X80533333Y-59168633D02*
X80466666Y-59135300D01*
X80466666Y-59135300D02*
X80433333Y-59101966D01*
D13*
X73124819Y-34513333D02*
X73839104Y-34513333D01*
X73839104Y-34513333D02*
X73981961Y-34560952D01*
X73981961Y-34560952D02*
X74077200Y-34656190D01*
X74077200Y-34656190D02*
X74124819Y-34799047D01*
X74124819Y-34799047D02*
X74124819Y-34894285D01*
X73124819Y-34132380D02*
X73124819Y-33513333D01*
X73124819Y-33513333D02*
X73505771Y-33846666D01*
X73505771Y-33846666D02*
X73505771Y-33703809D01*
X73505771Y-33703809D02*
X73553390Y-33608571D01*
X73553390Y-33608571D02*
X73601009Y-33560952D01*
X73601009Y-33560952D02*
X73696247Y-33513333D01*
X73696247Y-33513333D02*
X73934342Y-33513333D01*
X73934342Y-33513333D02*
X74029580Y-33560952D01*
X74029580Y-33560952D02*
X74077200Y-33608571D01*
X74077200Y-33608571D02*
X74124819Y-33703809D01*
X74124819Y-33703809D02*
X74124819Y-33989523D01*
X74124819Y-33989523D02*
X74077200Y-34084761D01*
X74077200Y-34084761D02*
X74029580Y-34132380D01*
D11*
X88516666Y-47168633D02*
X88516666Y-47735300D01*
X88516666Y-47735300D02*
X88550000Y-47801966D01*
X88550000Y-47801966D02*
X88583333Y-47835300D01*
X88583333Y-47835300D02*
X88650000Y-47868633D01*
X88650000Y-47868633D02*
X88783333Y-47868633D01*
X88783333Y-47868633D02*
X88850000Y-47835300D01*
X88850000Y-47835300D02*
X88883333Y-47801966D01*
X88883333Y-47801966D02*
X88916666Y-47735300D01*
X88916666Y-47735300D02*
X88916666Y-47168633D01*
X89183333Y-47168633D02*
X89616666Y-47168633D01*
X89616666Y-47168633D02*
X89383333Y-47435300D01*
X89383333Y-47435300D02*
X89483333Y-47435300D01*
X89483333Y-47435300D02*
X89549999Y-47468633D01*
X89549999Y-47468633D02*
X89583333Y-47501966D01*
X89583333Y-47501966D02*
X89616666Y-47568633D01*
X89616666Y-47568633D02*
X89616666Y-47735300D01*
X89616666Y-47735300D02*
X89583333Y-47801966D01*
X89583333Y-47801966D02*
X89549999Y-47835300D01*
X89549999Y-47835300D02*
X89483333Y-47868633D01*
X89483333Y-47868633D02*
X89283333Y-47868633D01*
X89283333Y-47868633D02*
X89216666Y-47835300D01*
X89216666Y-47835300D02*
X89183333Y-47801966D01*
X75430000Y-47730000D02*
X75430000Y-47730000D01*
X75530000Y-47730000D02*
X75530000Y-47730000D01*
D14*
X76480000Y-46880000D02*
X76480000Y-46230000D01*
X76480000Y-48080000D02*
X76480000Y-48730000D01*
X79480000Y-46880000D02*
X79480000Y-46230000D01*
X79480000Y-48730000D02*
X79480000Y-48080000D01*
D11*
X75430000Y-47730000D02*
G75*
G02*
X75530000Y-47730000I50000J0D01*
G01*
X75530000Y-47730000D02*
G75*
G02*
X75430000Y-47730000I-50000J0D01*
G01*
D10*
X85334413Y-41493746D02*
X85808929Y-41493746D01*
X85334413Y-42538746D02*
X85808929Y-42538746D01*
X60075000Y-53551920D02*
X60075000Y-53833080D01*
X61095000Y-53551920D02*
X61095000Y-53833080D01*
X65715000Y-61661141D02*
X65715000Y-61353859D01*
X66475000Y-61661141D02*
X66475000Y-61353859D01*
X91600000Y-35800436D02*
X91600000Y-38854564D01*
X94320000Y-35800436D02*
X94320000Y-38854564D01*
X58625000Y-48798748D02*
X58625000Y-49321252D01*
X60095000Y-48798748D02*
X60095000Y-49321252D01*
X99988641Y-55945000D02*
X99681359Y-55945000D01*
X99988641Y-56705000D02*
X99681359Y-56705000D01*
X60720000Y-42882878D02*
X60720000Y-43682122D01*
X61840000Y-42882878D02*
X61840000Y-43682122D01*
X99893641Y-43520000D02*
X99586359Y-43520000D01*
X99893641Y-44280000D02*
X99586359Y-44280000D01*
X63940000Y-47622162D02*
X63940000Y-47837834D01*
X64660000Y-47622162D02*
X64660000Y-47837834D01*
X82474171Y-51803166D02*
X82474171Y-52084326D01*
X83494171Y-51803166D02*
X83494171Y-52084326D01*
X91600000Y-60640436D02*
X91600000Y-63694564D01*
X94320000Y-60640436D02*
X94320000Y-63694564D01*
D15*
X95770000Y-50589325D02*
X95770000Y-50774325D01*
X95770000Y-53889325D02*
X95770000Y-53704325D01*
X95770000Y-53889325D02*
X99070000Y-53889325D01*
X99070000Y-50589325D02*
X95770000Y-50589325D01*
X99070000Y-50774325D02*
X99070000Y-50589325D01*
X99070000Y-53889325D02*
X99070000Y-53704325D01*
D14*
X94920000Y-51264325D02*
G75*
G02*
X94720000Y-51264325I-100000J0D01*
G01*
X94720000Y-51264325D02*
G75*
G02*
X94920000Y-51264325I100000J0D01*
G01*
D15*
X99900000Y-48500000D02*
X99900000Y-52500000D01*
X99900000Y-52500000D02*
X103900000Y-52500000D01*
X103900000Y-48500000D02*
X99900000Y-48500000D01*
X103900000Y-52500000D02*
X103900000Y-48500000D01*
D10*
X66200000Y-46550000D02*
X66200000Y-49850000D01*
X66200000Y-49850000D02*
X70200000Y-49850000D01*
D15*
X48500000Y-62750000D02*
X48500000Y-66750000D01*
X48500000Y-66750000D02*
X52500000Y-66750000D01*
X52500000Y-62750000D02*
X48500000Y-62750000D01*
X52500000Y-66750000D02*
X52500000Y-62750000D01*
D10*
X85334413Y-40023746D02*
X85808929Y-40023746D01*
X85334413Y-41068746D02*
X85808929Y-41068746D01*
X61636359Y-40620000D02*
X61943641Y-40620000D01*
X61636359Y-41380000D02*
X61943641Y-41380000D01*
X47150000Y-32380000D02*
X47150000Y-35130000D01*
X47150000Y-40900000D02*
X47150000Y-38150000D01*
X54605563Y-32380000D02*
X47150000Y-32380000D01*
X54605563Y-40900000D02*
X47150000Y-40900000D01*
X55670000Y-33444437D02*
X54605563Y-32380000D01*
X55670000Y-33444437D02*
X55670000Y-35130000D01*
X55670000Y-39835563D02*
X54605563Y-40900000D01*
X55670000Y-39835563D02*
X55670000Y-38150000D01*
X56410000Y-39650000D02*
X56410000Y-38650000D01*
X56910000Y-39150000D02*
X55910000Y-39150000D01*
X100913641Y-42395000D02*
X100606359Y-42395000D01*
X100913641Y-43155000D02*
X100606359Y-43155000D01*
D11*
X75500000Y-53925000D02*
X75500000Y-53925000D01*
X75600000Y-53925000D02*
X75600000Y-53925000D01*
D14*
X76550000Y-53075000D02*
X76550000Y-52425000D01*
X76550000Y-54275000D02*
X76550000Y-54925000D01*
X79550000Y-53075000D02*
X79550000Y-52425000D01*
X79550000Y-54925000D02*
X79550000Y-54275000D01*
D11*
X75500000Y-53925000D02*
G75*
G02*
X75600000Y-53925000I50000J0D01*
G01*
X75600000Y-53925000D02*
G75*
G02*
X75500000Y-53925000I-50000J0D01*
G01*
D10*
X60720000Y-48622878D02*
X60720000Y-49422122D01*
X61840000Y-48622878D02*
X61840000Y-49422122D01*
X98813641Y-54820000D02*
X98506359Y-54820000D01*
X98813641Y-55580000D02*
X98506359Y-55580000D01*
X96790000Y-55712164D02*
X96790000Y-55927836D01*
X97510000Y-55712164D02*
X97510000Y-55927836D01*
D15*
X99900000Y-60800000D02*
X99900000Y-64800000D01*
X99900000Y-64800000D02*
X103900000Y-64800000D01*
X103900000Y-60800000D02*
X99900000Y-60800000D01*
X103900000Y-64800000D02*
X103900000Y-60800000D01*
D10*
X70430000Y-66520000D02*
X70430000Y-69180000D01*
X83190000Y-66520000D02*
X70430000Y-66520000D01*
X83190000Y-66520000D02*
X83190000Y-69180000D01*
X83190000Y-69180000D02*
X70430000Y-69180000D01*
X84460000Y-66520000D02*
X85790000Y-66520000D01*
X85790000Y-66520000D02*
X85790000Y-67850000D01*
X99888641Y-68520000D02*
X99581359Y-68520000D01*
X99888641Y-69280000D02*
X99581359Y-69280000D01*
X60058748Y-45395000D02*
X60581252Y-45395000D01*
X60058748Y-46865000D02*
X60581252Y-46865000D01*
X47190000Y-41340000D02*
X47190000Y-44090000D01*
X47190000Y-49860000D02*
X47190000Y-47110000D01*
X54645563Y-41340000D02*
X47190000Y-41340000D01*
X54645563Y-49860000D02*
X47190000Y-49860000D01*
X55710000Y-42404437D02*
X54645563Y-41340000D01*
X55710000Y-42404437D02*
X55710000Y-44090000D01*
X55710000Y-48795563D02*
X54645563Y-49860000D01*
X55710000Y-48795563D02*
X55710000Y-47110000D01*
X56450000Y-48610000D02*
X56450000Y-47610000D01*
X56950000Y-48110000D02*
X55950000Y-48110000D01*
X96540000Y-43312164D02*
X96540000Y-43527836D01*
X97260000Y-43312164D02*
X97260000Y-43527836D01*
X96040000Y-68312164D02*
X96040000Y-68527836D01*
X96760000Y-68312164D02*
X96760000Y-68527836D01*
X69035580Y-43680000D02*
X68754420Y-43680000D01*
X69035580Y-44700000D02*
X68754420Y-44700000D01*
D15*
X99900000Y-35900000D02*
X99900000Y-39900000D01*
X99900000Y-39900000D02*
X103900000Y-39900000D01*
X103900000Y-35900000D02*
X99900000Y-35900000D01*
X103900000Y-39900000D02*
X103900000Y-35900000D01*
D10*
X69040000Y-58030580D02*
X69040000Y-57749420D01*
X70060000Y-58030580D02*
X70060000Y-57749420D01*
X86546091Y-53366246D02*
X86827251Y-53366246D01*
X86546091Y-54386246D02*
X86827251Y-54386246D01*
X106725000Y-42625000D02*
X107420000Y-42625000D01*
X106725000Y-43310000D02*
X106725000Y-42625000D01*
X106725000Y-43995000D02*
X106725000Y-43870000D01*
X106725000Y-43995000D02*
X106811724Y-43995000D01*
X106725000Y-43995000D02*
X108115000Y-43995000D01*
X108028276Y-43995000D02*
X108115000Y-43995000D01*
X108115000Y-43995000D02*
X108115000Y-43870000D01*
X68015000Y-61671141D02*
X68015000Y-61363859D01*
X68775000Y-61671141D02*
X68775000Y-61363859D01*
X106705000Y-55025000D02*
X107400000Y-55025000D01*
X106705000Y-55710000D02*
X106705000Y-55025000D01*
X106705000Y-56395000D02*
X106705000Y-56270000D01*
X106705000Y-56395000D02*
X106791724Y-56395000D01*
X106705000Y-56395000D02*
X108095000Y-56395000D01*
X108008276Y-56395000D02*
X108095000Y-56395000D01*
X108095000Y-56395000D02*
X108095000Y-56270000D01*
X91710000Y-48094761D02*
X91710000Y-51148889D01*
X94430000Y-48094761D02*
X94430000Y-51148889D01*
D15*
X95650000Y-38304325D02*
X95650000Y-38489325D01*
X95650000Y-41604325D02*
X95650000Y-41419325D01*
X95650000Y-41604325D02*
X98950000Y-41604325D01*
X98950000Y-38304325D02*
X95650000Y-38304325D01*
X98950000Y-38489325D02*
X98950000Y-38304325D01*
X98950000Y-41604325D02*
X98950000Y-41419325D01*
D14*
X94800000Y-38979325D02*
G75*
G02*
X94600000Y-38979325I-100000J0D01*
G01*
X94600000Y-38979325D02*
G75*
G02*
X94800000Y-38979325I100000J0D01*
G01*
D10*
X67075000Y-61666141D02*
X67075000Y-61358859D01*
X67835000Y-61666141D02*
X67835000Y-61358859D01*
X100913641Y-67395000D02*
X100606359Y-67395000D01*
X100913641Y-68155000D02*
X100606359Y-68155000D01*
D15*
X48650000Y-55870000D02*
X48650000Y-59870000D01*
X48650000Y-59870000D02*
X52650000Y-59870000D01*
X52650000Y-55870000D02*
X48650000Y-55870000D01*
X52650000Y-59870000D02*
X52650000Y-55870000D01*
D10*
X85133591Y-45816246D02*
X85414751Y-45816246D01*
X85133591Y-46836246D02*
X85414751Y-46836246D01*
X98693641Y-67395000D02*
X98386359Y-67395000D01*
X98693641Y-68155000D02*
X98386359Y-68155000D01*
X56575000Y-64055000D02*
X56575000Y-69255000D01*
X66795000Y-64055000D02*
X56575000Y-64055000D01*
X66795000Y-64055000D02*
X66795000Y-66655000D01*
X66795000Y-66655000D02*
X69395000Y-66655000D01*
X68065000Y-64055000D02*
X69395000Y-64055000D01*
X69395000Y-64055000D02*
X69395000Y-65385000D01*
X69395000Y-66655000D02*
X69395000Y-69255000D01*
X69395000Y-69255000D02*
X56575000Y-69255000D01*
D15*
X95640000Y-34434325D02*
X95640000Y-34619325D01*
X95640000Y-37549325D02*
X95640000Y-37734325D01*
X95640000Y-37734325D02*
X98940000Y-37734325D01*
X98940000Y-34434325D02*
X95640000Y-34434325D01*
X98940000Y-34434325D02*
X98940000Y-34619325D01*
X98940000Y-37734325D02*
X98940000Y-37549325D01*
D14*
X99990000Y-37059325D02*
G75*
G02*
X99790000Y-37059325I-100000J0D01*
G01*
X99790000Y-37059325D02*
G75*
G02*
X99990000Y-37059325I100000J0D01*
G01*
D10*
X85341913Y-58143746D02*
X85816429Y-58143746D01*
X85341913Y-59188746D02*
X85816429Y-59188746D01*
X69035580Y-41775000D02*
X68754420Y-41775000D01*
X69035580Y-42795000D02*
X68754420Y-42795000D01*
X89490000Y-51705580D02*
X89490000Y-51424420D01*
X90510000Y-51705580D02*
X90510000Y-51424420D01*
X71240002Y-48592836D02*
X71240002Y-48377164D01*
X71960002Y-48592836D02*
X71960002Y-48377164D01*
X73300000Y-45654420D02*
X73300000Y-45935580D01*
X74320000Y-45654420D02*
X74320000Y-45935580D01*
X106725000Y-68105000D02*
X107420000Y-68105000D01*
X106725000Y-68790000D02*
X106725000Y-68105000D01*
X106725000Y-69475000D02*
X106725000Y-69350000D01*
X106725000Y-69475000D02*
X106811724Y-69475000D01*
X106725000Y-69475000D02*
X108115000Y-69475000D01*
X108028276Y-69475000D02*
X108115000Y-69475000D01*
X108115000Y-69475000D02*
X108115000Y-69350000D01*
X80063641Y-61070000D02*
X79756359Y-61070000D01*
X80063641Y-61830000D02*
X79756359Y-61830000D01*
D16*
X49015000Y-50760500D02*
X49015000Y-51177060D01*
X49015000Y-52502940D02*
X49015000Y-52919500D01*
X49015000Y-52919500D02*
X52063000Y-52919500D01*
X52063000Y-50760500D02*
X49015000Y-50760500D01*
X52063000Y-51177060D02*
X52063000Y-50760500D01*
X52063000Y-52919500D02*
X52063000Y-52502940D01*
D10*
X73290000Y-53940580D02*
X73290000Y-53659420D01*
X74310000Y-53940580D02*
X74310000Y-53659420D01*
X69045000Y-54391920D02*
X69045000Y-54673080D01*
X70065000Y-54391920D02*
X70065000Y-54673080D01*
X98688641Y-42395000D02*
X98381359Y-42395000D01*
X98688641Y-43155000D02*
X98381359Y-43155000D01*
D15*
X95652220Y-63146899D02*
X95652220Y-63331899D01*
X95652220Y-66446899D02*
X95652220Y-66261899D01*
X95652220Y-66446899D02*
X98952220Y-66446899D01*
X98952220Y-63146899D02*
X95652220Y-63146899D01*
X98952220Y-63331899D02*
X98952220Y-63146899D01*
X98952220Y-66446899D02*
X98952220Y-66261899D01*
D14*
X94802220Y-63821899D02*
G75*
G02*
X94602220Y-63821899I-100000J0D01*
G01*
X94602220Y-63821899D02*
G75*
G02*
X94802220Y-63821899I100000J0D01*
G01*
D10*
X75802500Y-59015000D02*
X75802500Y-60485000D01*
X75802500Y-60485000D02*
X78087500Y-60485000D01*
X78087500Y-59015000D02*
X75802500Y-59015000D01*
X85412251Y-44356246D02*
X85131091Y-44356246D01*
X85412251Y-45376246D02*
X85131091Y-45376246D01*
X69195580Y-36495000D02*
X68914420Y-36495000D01*
X69195580Y-37515000D02*
X68914420Y-37515000D01*
X85334413Y-38543746D02*
X85808929Y-38543746D01*
X85334413Y-39588746D02*
X85808929Y-39588746D01*
X85341913Y-55213746D02*
X85816429Y-55213746D01*
X85341913Y-56258746D02*
X85816429Y-56258746D01*
X62285000Y-53970000D02*
X62285000Y-54445000D01*
X62285000Y-59190000D02*
X62285000Y-58715000D01*
X62760000Y-53970000D02*
X62285000Y-53970000D01*
X62760000Y-59190000D02*
X62285000Y-59190000D01*
X67030000Y-53970000D02*
X67505000Y-53970000D01*
X67030000Y-59190000D02*
X67505000Y-59190000D01*
X67505000Y-53970000D02*
X67505000Y-54445000D01*
X85351913Y-56673746D02*
X85826429Y-56673746D01*
X85351913Y-57718746D02*
X85826429Y-57718746D01*
X75802500Y-60715000D02*
X75802500Y-62185000D01*
X75802500Y-62185000D02*
X78087500Y-62185000D01*
X78087500Y-60715000D02*
X75802500Y-60715000D01*
D15*
X95649720Y-59336899D02*
X95649720Y-59521899D01*
X95649720Y-62451899D02*
X95649720Y-62636899D01*
X95649720Y-62636899D02*
X98949720Y-62636899D01*
X98949720Y-59336899D02*
X95649720Y-59336899D01*
X98949720Y-59336899D02*
X98949720Y-59521899D01*
X98949720Y-62636899D02*
X98949720Y-62451899D01*
D14*
X99999720Y-61961899D02*
G75*
G02*
X99799720Y-61961899I-100000J0D01*
G01*
X99799720Y-61961899D02*
G75*
G02*
X99999720Y-61961899I100000J0D01*
G01*
D10*
X64770000Y-61658641D02*
X64770000Y-61351359D01*
X65530000Y-61658641D02*
X65530000Y-61351359D01*
X101013641Y-54820000D02*
X100706359Y-54820000D01*
X101013641Y-55580000D02*
X100706359Y-55580000D01*
D12*
X67625000Y-41100000D02*
G75*
G02*
X67375000Y-41100000I-125000J0D01*
G01*
X67375000Y-41100000D02*
G75*
G02*
X67625000Y-41100000I125000J0D01*
G01*
D10*
X60245000Y-56530336D02*
X60245000Y-56314664D01*
X60965000Y-56530336D02*
X60965000Y-56314664D01*
D15*
X95770000Y-46759325D02*
X95770000Y-46944325D01*
X95770000Y-49874325D02*
X95770000Y-50059325D01*
X95770000Y-50059325D02*
X99070000Y-50059325D01*
X99070000Y-46759325D02*
X95770000Y-46759325D01*
X99070000Y-46759325D02*
X99070000Y-46944325D01*
X99070000Y-50059325D02*
X99070000Y-49874325D01*
D14*
X100120000Y-49384325D02*
G75*
G02*
X99920000Y-49384325I-100000J0D01*
G01*
X99920000Y-49384325D02*
G75*
G02*
X100120000Y-49384325I100000J0D01*
G01*
D10*
X65804420Y-38755000D02*
X66085580Y-38755000D01*
X65804420Y-39775000D02*
X66085580Y-39775000D01*
X80113641Y-59370000D02*
X79806359Y-59370000D01*
X80113641Y-60130000D02*
X79806359Y-60130000D01*
X74280000Y-35510000D02*
X74280000Y-34180000D01*
X75610000Y-35510000D02*
X74280000Y-35510000D01*
X76880000Y-32850000D02*
X89640000Y-32850000D01*
X76880000Y-35510000D02*
X76880000Y-32850000D01*
X76880000Y-35510000D02*
X89640000Y-35510000D01*
X89640000Y-35510000D02*
X89640000Y-32850000D01*
D14*
X84389999Y-47991245D02*
X84389999Y-48241247D01*
X84389999Y-47991245D02*
X84640001Y-47991245D01*
X84389999Y-51741245D02*
X84389999Y-51991247D01*
X84389999Y-51991247D02*
X84640001Y-51991247D01*
X88139999Y-47991245D02*
X88390001Y-47991245D01*
X88139999Y-51991247D02*
X88390001Y-51991247D01*
X88390001Y-47991245D02*
X88390001Y-48241247D01*
X88390001Y-51741245D02*
X88390001Y-51991247D01*
D12*
X87765001Y-47235181D02*
G75*
G02*
X87514999Y-47235181I-125001J0D01*
G01*
X87514999Y-47235181D02*
G75*
G02*
X87765001Y-47235181I125001J0D01*
G01*
%LPC*%
D17*
X96420000Y-53384325D02*
X95520000Y-53384325D01*
X95520000Y-53044325D01*
X96420000Y-53044325D01*
X96420000Y-53384325D01*
G36*
X96420000Y-53384325D02*
G01*
X95520000Y-53384325D01*
X95520000Y-53044325D01*
X96420000Y-53044325D01*
X96420000Y-53384325D01*
G37*
X96420000Y-52734325D02*
X95520000Y-52734325D01*
X95520000Y-52394325D01*
X95970000Y-52394325D01*
X95970000Y-52084325D01*
X95520000Y-52084325D01*
X95520000Y-51744325D01*
X95970000Y-51744325D01*
X95970000Y-51434325D01*
X95520000Y-51434325D01*
X95520000Y-51094325D01*
X96420000Y-51094325D01*
X96420000Y-52734325D01*
G36*
X96420000Y-52734325D02*
G01*
X95520000Y-52734325D01*
X95520000Y-52394325D01*
X95970000Y-52394325D01*
X95970000Y-52084325D01*
X95520000Y-52084325D01*
X95520000Y-51744325D01*
X95970000Y-51744325D01*
X95970000Y-51434325D01*
X95520000Y-51434325D01*
X95520000Y-51094325D01*
X96420000Y-51094325D01*
X96420000Y-52734325D01*
G37*
X99320000Y-51434325D02*
X98670000Y-51434325D01*
X98670000Y-51744325D01*
X99320000Y-51744325D01*
X99320000Y-52084325D01*
X98670000Y-52084325D01*
X98670000Y-52394325D01*
X99320000Y-52394325D01*
X99320000Y-52734325D01*
X98670000Y-52734325D01*
X98670000Y-53044325D01*
X99320000Y-53044325D01*
X99320000Y-53384325D01*
X96960000Y-53384325D01*
X96960000Y-51094325D01*
X99320000Y-51094325D01*
X99320000Y-51434325D01*
G36*
X99320000Y-51434325D02*
G01*
X98670000Y-51434325D01*
X98670000Y-51744325D01*
X99320000Y-51744325D01*
X99320000Y-52084325D01*
X98670000Y-52084325D01*
X98670000Y-52394325D01*
X99320000Y-52394325D01*
X99320000Y-52734325D01*
X98670000Y-52734325D01*
X98670000Y-53044325D01*
X99320000Y-53044325D01*
X99320000Y-53384325D01*
X96960000Y-53384325D01*
X96960000Y-51094325D01*
X99320000Y-51094325D01*
X99320000Y-51434325D01*
G37*
X96300000Y-41099325D02*
X95400000Y-41099325D01*
X95400000Y-40759325D01*
X96300000Y-40759325D01*
X96300000Y-41099325D01*
G36*
X96300000Y-41099325D02*
G01*
X95400000Y-41099325D01*
X95400000Y-40759325D01*
X96300000Y-40759325D01*
X96300000Y-41099325D01*
G37*
X96300000Y-40449325D02*
X95400000Y-40449325D01*
X95400000Y-40109325D01*
X95850000Y-40109325D01*
X95850000Y-39799325D01*
X95400000Y-39799325D01*
X95400000Y-39459325D01*
X95850000Y-39459325D01*
X95850000Y-39149325D01*
X95400000Y-39149325D01*
X95400000Y-38809325D01*
X96300000Y-38809325D01*
X96300000Y-40449325D01*
G36*
X96300000Y-40449325D02*
G01*
X95400000Y-40449325D01*
X95400000Y-40109325D01*
X95850000Y-40109325D01*
X95850000Y-39799325D01*
X95400000Y-39799325D01*
X95400000Y-39459325D01*
X95850000Y-39459325D01*
X95850000Y-39149325D01*
X95400000Y-39149325D01*
X95400000Y-38809325D01*
X96300000Y-38809325D01*
X96300000Y-40449325D01*
G37*
X99200000Y-39149325D02*
X98550000Y-39149325D01*
X98550000Y-39459325D01*
X99200000Y-39459325D01*
X99200000Y-39799325D01*
X98550000Y-39799325D01*
X98550000Y-40109325D01*
X99200000Y-40109325D01*
X99200000Y-40449325D01*
X98550000Y-40449325D01*
X98550000Y-40759325D01*
X99200000Y-40759325D01*
X99200000Y-41099325D01*
X96840000Y-41099325D01*
X96840000Y-38809325D01*
X99200000Y-38809325D01*
X99200000Y-39149325D01*
G36*
X99200000Y-39149325D02*
G01*
X98550000Y-39149325D01*
X98550000Y-39459325D01*
X99200000Y-39459325D01*
X99200000Y-39799325D01*
X98550000Y-39799325D01*
X98550000Y-40109325D01*
X99200000Y-40109325D01*
X99200000Y-40449325D01*
X98550000Y-40449325D01*
X98550000Y-40759325D01*
X99200000Y-40759325D01*
X99200000Y-41099325D01*
X96840000Y-41099325D01*
X96840000Y-38809325D01*
X99200000Y-38809325D01*
X99200000Y-39149325D01*
G37*
X99190000Y-35279325D02*
X98290000Y-35279325D01*
X98290000Y-34939325D01*
X99190000Y-34939325D01*
X99190000Y-35279325D01*
G36*
X99190000Y-35279325D02*
G01*
X98290000Y-35279325D01*
X98290000Y-34939325D01*
X99190000Y-34939325D01*
X99190000Y-35279325D01*
G37*
X99190000Y-35929325D02*
X98740000Y-35929325D01*
X98740000Y-36239325D01*
X99190000Y-36239325D01*
X99190000Y-36579325D01*
X98740000Y-36579325D01*
X98740000Y-36889325D01*
X99190000Y-36889325D01*
X99190000Y-37229325D01*
X98290000Y-37229325D01*
X98290000Y-35589325D01*
X99190000Y-35589325D01*
X99190000Y-35929325D01*
G36*
X99190000Y-35929325D02*
G01*
X98740000Y-35929325D01*
X98740000Y-36239325D01*
X99190000Y-36239325D01*
X99190000Y-36579325D01*
X98740000Y-36579325D01*
X98740000Y-36889325D01*
X99190000Y-36889325D01*
X99190000Y-37229325D01*
X98290000Y-37229325D01*
X98290000Y-35589325D01*
X99190000Y-35589325D01*
X99190000Y-35929325D01*
G37*
X97750000Y-37229325D02*
X95390000Y-37229325D01*
X95390000Y-36889325D01*
X96040000Y-36889325D01*
X96040000Y-36579325D01*
X95390000Y-36579325D01*
X95390000Y-36239325D01*
X96040000Y-36239325D01*
X96040000Y-35929325D01*
X95390000Y-35929325D01*
X95390000Y-35589325D01*
X96040000Y-35589325D01*
X96040000Y-35279325D01*
X95390000Y-35279325D01*
X95390000Y-34939325D01*
X97750000Y-34939325D01*
X97750000Y-37229325D01*
G36*
X97750000Y-37229325D02*
G01*
X95390000Y-37229325D01*
X95390000Y-36889325D01*
X96040000Y-36889325D01*
X96040000Y-36579325D01*
X95390000Y-36579325D01*
X95390000Y-36239325D01*
X96040000Y-36239325D01*
X96040000Y-35929325D01*
X95390000Y-35929325D01*
X95390000Y-35589325D01*
X96040000Y-35589325D01*
X96040000Y-35279325D01*
X95390000Y-35279325D01*
X95390000Y-34939325D01*
X97750000Y-34939325D01*
X97750000Y-37229325D01*
G37*
X96302220Y-65941899D02*
X95402220Y-65941899D01*
X95402220Y-65601899D01*
X96302220Y-65601899D01*
X96302220Y-65941899D01*
G36*
X96302220Y-65941899D02*
G01*
X95402220Y-65941899D01*
X95402220Y-65601899D01*
X96302220Y-65601899D01*
X96302220Y-65941899D01*
G37*
X96302220Y-65291899D02*
X95402220Y-65291899D01*
X95402220Y-64951899D01*
X95852220Y-64951899D01*
X95852220Y-64641899D01*
X95402220Y-64641899D01*
X95402220Y-64301899D01*
X95852220Y-64301899D01*
X95852220Y-63991899D01*
X95402220Y-63991899D01*
X95402220Y-63651899D01*
X96302220Y-63651899D01*
X96302220Y-65291899D01*
G36*
X96302220Y-65291899D02*
G01*
X95402220Y-65291899D01*
X95402220Y-64951899D01*
X95852220Y-64951899D01*
X95852220Y-64641899D01*
X95402220Y-64641899D01*
X95402220Y-64301899D01*
X95852220Y-64301899D01*
X95852220Y-63991899D01*
X95402220Y-63991899D01*
X95402220Y-63651899D01*
X96302220Y-63651899D01*
X96302220Y-65291899D01*
G37*
X99202220Y-63991899D02*
X98552220Y-63991899D01*
X98552220Y-64301899D01*
X99202220Y-64301899D01*
X99202220Y-64641899D01*
X98552220Y-64641899D01*
X98552220Y-64951899D01*
X99202220Y-64951899D01*
X99202220Y-65291899D01*
X98552220Y-65291899D01*
X98552220Y-65601899D01*
X99202220Y-65601899D01*
X99202220Y-65941899D01*
X96842220Y-65941899D01*
X96842220Y-63651899D01*
X99202220Y-63651899D01*
X99202220Y-63991899D01*
G36*
X99202220Y-63991899D02*
G01*
X98552220Y-63991899D01*
X98552220Y-64301899D01*
X99202220Y-64301899D01*
X99202220Y-64641899D01*
X98552220Y-64641899D01*
X98552220Y-64951899D01*
X99202220Y-64951899D01*
X99202220Y-65291899D01*
X98552220Y-65291899D01*
X98552220Y-65601899D01*
X99202220Y-65601899D01*
X99202220Y-65941899D01*
X96842220Y-65941899D01*
X96842220Y-63651899D01*
X99202220Y-63651899D01*
X99202220Y-63991899D01*
G37*
X99199720Y-60181899D02*
X98299720Y-60181899D01*
X98299720Y-59841899D01*
X99199720Y-59841899D01*
X99199720Y-60181899D01*
G36*
X99199720Y-60181899D02*
G01*
X98299720Y-60181899D01*
X98299720Y-59841899D01*
X99199720Y-59841899D01*
X99199720Y-60181899D01*
G37*
X99199720Y-60831899D02*
X98749720Y-60831899D01*
X98749720Y-61141899D01*
X99199720Y-61141899D01*
X99199720Y-61481899D01*
X98749720Y-61481899D01*
X98749720Y-61791899D01*
X99199720Y-61791899D01*
X99199720Y-62131899D01*
X98299720Y-62131899D01*
X98299720Y-60491899D01*
X99199720Y-60491899D01*
X99199720Y-60831899D01*
G36*
X99199720Y-60831899D02*
G01*
X98749720Y-60831899D01*
X98749720Y-61141899D01*
X99199720Y-61141899D01*
X99199720Y-61481899D01*
X98749720Y-61481899D01*
X98749720Y-61791899D01*
X99199720Y-61791899D01*
X99199720Y-62131899D01*
X98299720Y-62131899D01*
X98299720Y-60491899D01*
X99199720Y-60491899D01*
X99199720Y-60831899D01*
G37*
X97759720Y-62131899D02*
X95399720Y-62131899D01*
X95399720Y-61791899D01*
X96049720Y-61791899D01*
X96049720Y-61481899D01*
X95399720Y-61481899D01*
X95399720Y-61141899D01*
X96049720Y-61141899D01*
X96049720Y-60831899D01*
X95399720Y-60831899D01*
X95399720Y-60491899D01*
X96049720Y-60491899D01*
X96049720Y-60181899D01*
X95399720Y-60181899D01*
X95399720Y-59841899D01*
X97759720Y-59841899D01*
X97759720Y-62131899D01*
G36*
X97759720Y-62131899D02*
G01*
X95399720Y-62131899D01*
X95399720Y-61791899D01*
X96049720Y-61791899D01*
X96049720Y-61481899D01*
X95399720Y-61481899D01*
X95399720Y-61141899D01*
X96049720Y-61141899D01*
X96049720Y-60831899D01*
X95399720Y-60831899D01*
X95399720Y-60491899D01*
X96049720Y-60491899D01*
X96049720Y-60181899D01*
X95399720Y-60181899D01*
X95399720Y-59841899D01*
X97759720Y-59841899D01*
X97759720Y-62131899D01*
G37*
X99320000Y-47604325D02*
X98420000Y-47604325D01*
X98420000Y-47264325D01*
X99320000Y-47264325D01*
X99320000Y-47604325D01*
G36*
X99320000Y-47604325D02*
G01*
X98420000Y-47604325D01*
X98420000Y-47264325D01*
X99320000Y-47264325D01*
X99320000Y-47604325D01*
G37*
X99320000Y-48254325D02*
X98870000Y-48254325D01*
X98870000Y-48564325D01*
X99320000Y-48564325D01*
X99320000Y-48904325D01*
X98870000Y-48904325D01*
X98870000Y-49214325D01*
X99320000Y-49214325D01*
X99320000Y-49554325D01*
X98420000Y-49554325D01*
X98420000Y-47914325D01*
X99320000Y-47914325D01*
X99320000Y-48254325D01*
G36*
X99320000Y-48254325D02*
G01*
X98870000Y-48254325D01*
X98870000Y-48564325D01*
X99320000Y-48564325D01*
X99320000Y-48904325D01*
X98870000Y-48904325D01*
X98870000Y-49214325D01*
X99320000Y-49214325D01*
X99320000Y-49554325D01*
X98420000Y-49554325D01*
X98420000Y-47914325D01*
X99320000Y-47914325D01*
X99320000Y-48254325D01*
G37*
X97880000Y-49554325D02*
X95520000Y-49554325D01*
X95520000Y-49214325D01*
X96170000Y-49214325D01*
X96170000Y-48904325D01*
X95520000Y-48904325D01*
X95520000Y-48564325D01*
X96170000Y-48564325D01*
X96170000Y-48254325D01*
X95520000Y-48254325D01*
X95520000Y-47914325D01*
X96170000Y-47914325D01*
X96170000Y-47604325D01*
X95520000Y-47604325D01*
X95520000Y-47264325D01*
X97880000Y-47264325D01*
X97880000Y-49554325D01*
G36*
X97880000Y-49554325D02*
G01*
X95520000Y-49554325D01*
X95520000Y-49214325D01*
X96170000Y-49214325D01*
X96170000Y-48904325D01*
X95520000Y-48904325D01*
X95520000Y-48564325D01*
X96170000Y-48564325D01*
X96170000Y-48254325D01*
X95520000Y-48254325D01*
X95520000Y-47914325D01*
X96170000Y-47914325D01*
X96170000Y-47604325D01*
X95520000Y-47604325D01*
X95520000Y-47264325D01*
X97880000Y-47264325D01*
X97880000Y-49554325D01*
G37*
D18*
X76430000Y-47730000D03*
D19*
X76980000Y-48780000D03*
X77480000Y-48780000D03*
X77980000Y-48780000D03*
X78480000Y-48780000D03*
X78980000Y-48780000D03*
D18*
X79530000Y-47730000D03*
X79530000Y-47230000D03*
D19*
X78980000Y-46180000D03*
X78480000Y-46180000D03*
X77980000Y-46180000D03*
X77480000Y-46180000D03*
X76980000Y-46180000D03*
D18*
X76430000Y-47230000D03*
D20*
X77980000Y-47480000D03*
D21*
X84746671Y-42016246D03*
X86396671Y-42016246D03*
D22*
X60585000Y-52917500D03*
X60585000Y-54467500D03*
D23*
X66095000Y-62017500D03*
X66095000Y-60997500D03*
D24*
X92960000Y-35015000D03*
X92960000Y-39640000D03*
D25*
X59360000Y-48110000D03*
X59360000Y-50010000D03*
D26*
X100345000Y-56325000D03*
X99325000Y-56325000D03*
D27*
X61280000Y-42220000D03*
X61280000Y-44345000D03*
D26*
X100250000Y-43900000D03*
X99230000Y-43900000D03*
D28*
X64300000Y-47249998D03*
X64300000Y-48209998D03*
D22*
X82984171Y-51168746D03*
X82984171Y-52718746D03*
D24*
X92960000Y-59855000D03*
X92960000Y-64480000D03*
D29*
X101900000Y-50500000D03*
D30*
X67100000Y-49050000D03*
X69300000Y-49050000D03*
X69300000Y-47350000D03*
X67100000Y-47350000D03*
D29*
X50500000Y-64750000D03*
D21*
X84746671Y-40546246D03*
X86396671Y-40546246D03*
D31*
X61280000Y-41000000D03*
X62300000Y-41000000D03*
D32*
X54660000Y-36640000D03*
X48160000Y-36640000D03*
D26*
X101270000Y-42775000D03*
X100250000Y-42775000D03*
D18*
X76500000Y-53925000D03*
D19*
X77050000Y-54975000D03*
X77550000Y-54975000D03*
X78050000Y-54975000D03*
X78550000Y-54975000D03*
X79050000Y-54975000D03*
D18*
X79600000Y-53925000D03*
X79600000Y-53425000D03*
D19*
X79050000Y-52375000D03*
X78550000Y-52375000D03*
X78050000Y-52375000D03*
X77550000Y-52375000D03*
X77050000Y-52375000D03*
D18*
X76500000Y-53425000D03*
D20*
X78050000Y-53675000D03*
D27*
X61280000Y-47960000D03*
X61280000Y-50085000D03*
D26*
X99170000Y-55200000D03*
X98150000Y-55200000D03*
D28*
X97150000Y-55340000D03*
X97150000Y-56300000D03*
D29*
X101900000Y-62800000D03*
D33*
X84460000Y-67850000D03*
D34*
X81920000Y-67850000D03*
X79380000Y-67850000D03*
X76840000Y-67850000D03*
X74300000Y-67850000D03*
X71760000Y-67850000D03*
D26*
X100245000Y-68900000D03*
X99225000Y-68900000D03*
D35*
X59370000Y-46130000D03*
X61270000Y-46130000D03*
D32*
X54700000Y-45600000D03*
X48200000Y-45600000D03*
D28*
X96900000Y-42940000D03*
X96900000Y-43900000D03*
X96400000Y-67940000D03*
X96400000Y-68900000D03*
D36*
X69670000Y-44190000D03*
X68120000Y-44190000D03*
D29*
X101900000Y-37900000D03*
D37*
X69550000Y-58665000D03*
X69550000Y-57115000D03*
D38*
X85911671Y-53876246D03*
X87461671Y-53876246D03*
D39*
X107420000Y-43310000D03*
D23*
X68395000Y-62027500D03*
X68395000Y-61007500D03*
D39*
X107400000Y-55710000D03*
D24*
X93070000Y-47309325D03*
X93070000Y-51934325D03*
D23*
X67455000Y-62022500D03*
X67455000Y-61002500D03*
D26*
X101270000Y-67775000D03*
X100250000Y-67775000D03*
D29*
X50650000Y-57870000D03*
D38*
X84499171Y-46326246D03*
X86049171Y-46326246D03*
D26*
X99050000Y-67775000D03*
X98030000Y-67775000D03*
D33*
X68065000Y-65385000D03*
D34*
X68065000Y-67925000D03*
X65525000Y-65385000D03*
X65525000Y-67925000D03*
X62985000Y-65385000D03*
X62985000Y-67925000D03*
X60445000Y-65385000D03*
X60445000Y-67925000D03*
X57905000Y-65385000D03*
X57905000Y-67925000D03*
D21*
X84754171Y-58666246D03*
X86404171Y-58666246D03*
D36*
X69670000Y-42285000D03*
X68120000Y-42285000D03*
D37*
X90000000Y-52340000D03*
X90000000Y-50790000D03*
D40*
X71600002Y-48965000D03*
X71600002Y-48005000D03*
D22*
X73810000Y-45020000D03*
X73810000Y-46570000D03*
D39*
X107420000Y-68790000D03*
D26*
X80420000Y-61450000D03*
X79400000Y-61450000D03*
D41*
X52190000Y-51840000D03*
X48888000Y-51840000D03*
D37*
X73800000Y-54575000D03*
X73800000Y-53025000D03*
D22*
X69555000Y-53757500D03*
X69555000Y-55307500D03*
D26*
X99045000Y-42775000D03*
X98025000Y-42775000D03*
D42*
X76500000Y-59750000D03*
X78075000Y-59750000D03*
D36*
X86046671Y-44866246D03*
X84496671Y-44866246D03*
X69830000Y-37005000D03*
X68280000Y-37005000D03*
D21*
X84746671Y-39066246D03*
X86396671Y-39066246D03*
X84754171Y-55736246D03*
X86404171Y-55736246D03*
D43*
X67332500Y-58330000D03*
X67332500Y-57830000D03*
X67332500Y-57330000D03*
X67332500Y-56830000D03*
X67332500Y-56330000D03*
X67332500Y-55830000D03*
X67332500Y-55330000D03*
X67332500Y-54830000D03*
D44*
X66645000Y-54142500D03*
X66145000Y-54142500D03*
X65645000Y-54142500D03*
X65145000Y-54142500D03*
X64645000Y-54142500D03*
X64145000Y-54142500D03*
X63645000Y-54142500D03*
X63145000Y-54142500D03*
D43*
X62457500Y-54830000D03*
X62457500Y-55330000D03*
X62457500Y-55830000D03*
X62457500Y-56330000D03*
X62457500Y-56830000D03*
X62457500Y-57330000D03*
X62457500Y-57830000D03*
X62457500Y-58330000D03*
D44*
X63145000Y-59017500D03*
X63645000Y-59017500D03*
X64145000Y-59017500D03*
X64645000Y-59017500D03*
X65145000Y-59017500D03*
X65645000Y-59017500D03*
X66145000Y-59017500D03*
X66645000Y-59017500D03*
D45*
X64895000Y-56580000D03*
D21*
X84764171Y-57196246D03*
X86414171Y-57196246D03*
D42*
X76500000Y-61450000D03*
X78075000Y-61450000D03*
D23*
X65150000Y-62015000D03*
X65150000Y-60995000D03*
D26*
X101370000Y-55200000D03*
X100350000Y-55200000D03*
D46*
X68175000Y-40800000D03*
X68825000Y-40800000D03*
X69475000Y-40800000D03*
X69475000Y-38700000D03*
X68825000Y-38700000D03*
X68175000Y-38700000D03*
D47*
X68825000Y-39750000D03*
D40*
X60605000Y-56902500D03*
X60605000Y-55942500D03*
D38*
X65170000Y-39265000D03*
X66720000Y-39265000D03*
D26*
X80470000Y-59750000D03*
X79450000Y-59750000D03*
D33*
X75610000Y-34180000D03*
D34*
X78150000Y-34180000D03*
X80690000Y-34180000D03*
X83230000Y-34180000D03*
X85770000Y-34180000D03*
X88310000Y-34180000D03*
D48*
X87640001Y-48111246D03*
X87140002Y-48111246D03*
X86640001Y-48111246D03*
X86140001Y-48111246D03*
X85640000Y-48111246D03*
X85140001Y-48111246D03*
D49*
X84538754Y-48741246D03*
X84538754Y-49241245D03*
X84538754Y-49741246D03*
X84538754Y-50241246D03*
X84538754Y-50741247D03*
X84538754Y-51241246D03*
D48*
X85140000Y-51871246D03*
X85639999Y-51871246D03*
X86140000Y-51871246D03*
X86640000Y-51871246D03*
X87140001Y-51871246D03*
X87640000Y-51871246D03*
D49*
X88241246Y-51241246D03*
X88241246Y-50741247D03*
X88241246Y-50241246D03*
X88241246Y-49741246D03*
X88241246Y-49241245D03*
X88241246Y-48741246D03*
D50*
X86390000Y-49991246D03*
%LPD*%
M02*
