G04 #@! TF.GenerationSoftware,KiCad,Pcbnew,8.0.1*
G04 #@! TF.CreationDate,2024-05-08T18:23:48+03:00*
G04 #@! TF.ProjectId,esc,6573632e-6b69-4636-9164-5f7063625858,rev?*
G04 #@! TF.SameCoordinates,Original*
G04 #@! TF.FileFunction,Copper,L4,Bot*
G04 #@! TF.FilePolarity,Positive*
%FSLAX46Y46*%
G04 Gerber Fmt 4.6, Leading zero omitted, Abs format (unit mm)*
G04 Created by KiCad (PCBNEW 8.0.1) date 2024-05-08 18:23:48*
%MOMM*%
%LPD*%
G01*
G04 APERTURE LIST*
G04 #@! TA.AperFunction,ComponentPad*
%ADD10R,1.700000X1.700000*%
G04 #@! TD*
G04 #@! TA.AperFunction,ComponentPad*
%ADD11C,1.755000*%
G04 #@! TD*
G04 #@! TA.AperFunction,ComponentPad*
%ADD12O,1.700000X1.700000*%
G04 #@! TD*
G04 #@! TA.AperFunction,ViaPad*
%ADD13C,0.800000*%
G04 #@! TD*
G04 #@! TA.AperFunction,Conductor*
%ADD14C,0.250000*%
G04 #@! TD*
G04 APERTURE END LIST*
D10*
X106520000Y-43160000D03*
X106500000Y-55560000D03*
X106550000Y-68300000D03*
D11*
X102030000Y-50100000D03*
X50500000Y-64750000D03*
X101900000Y-62500000D03*
D10*
X84460000Y-67850000D03*
D12*
X81920000Y-67850000D03*
X79380000Y-67850000D03*
X76840000Y-67850000D03*
X74300000Y-67850000D03*
X71760000Y-67850000D03*
D11*
X101900000Y-37900000D03*
X50650000Y-57870000D03*
D10*
X68065000Y-65385000D03*
D12*
X68065000Y-67925000D03*
X65525000Y-65385000D03*
X65525000Y-67925000D03*
X62985000Y-65385000D03*
X62985000Y-67925000D03*
X60445000Y-65385000D03*
X60445000Y-67925000D03*
X57905000Y-65385000D03*
X57905000Y-67925000D03*
D10*
X75610000Y-34180000D03*
D12*
X78150000Y-34180000D03*
X80690000Y-34180000D03*
X83230000Y-34180000D03*
X85770000Y-34180000D03*
X88310000Y-34180000D03*
D13*
X99600000Y-65100000D03*
X100400000Y-63700000D03*
X99600000Y-64200000D03*
X99600000Y-62400000D03*
X99600000Y-63300000D03*
X99600000Y-61500000D03*
X100400000Y-62800000D03*
X100400000Y-61900000D03*
X99600000Y-60600000D03*
X99700000Y-52590000D03*
X100500000Y-51190000D03*
X99700000Y-51690000D03*
X99700000Y-49890000D03*
X99700000Y-50790000D03*
X99700000Y-48990000D03*
X100500000Y-50290000D03*
X100500000Y-49390000D03*
X99700000Y-48090000D03*
X99600000Y-40200000D03*
X99600000Y-35700000D03*
X100400000Y-37900000D03*
X100400000Y-38800000D03*
X99600000Y-39300000D03*
X99600000Y-38400000D03*
X99600000Y-37500000D03*
X99600000Y-36600000D03*
X100400000Y-37000000D03*
X65930000Y-56580000D03*
X71450000Y-32610000D03*
X71335000Y-41055000D03*
X93840000Y-34980000D03*
X65550000Y-46550000D03*
X70800000Y-49780000D03*
X96250000Y-55340000D03*
X65930000Y-57610000D03*
X48640000Y-34820000D03*
X93890000Y-48430000D03*
X71475000Y-38975000D03*
X64090000Y-41110000D03*
X93930000Y-36180000D03*
X61420000Y-66850000D03*
X49670000Y-38470000D03*
X50500000Y-66180000D03*
X49370000Y-36590000D03*
X92110000Y-33700000D03*
X103790000Y-55170000D03*
X71520000Y-39915000D03*
X65930000Y-55550000D03*
X76970000Y-41840000D03*
X47770000Y-43780000D03*
X57850000Y-47650000D03*
X74540000Y-44100000D03*
X73410000Y-60800000D03*
X71435000Y-37030000D03*
X50500000Y-63300000D03*
X102910000Y-56020000D03*
X92820000Y-49350000D03*
X92820000Y-45100000D03*
X91640000Y-59810000D03*
X46590000Y-69260000D03*
X93830000Y-45980000D03*
X59340000Y-56780000D03*
X64895000Y-55550000D03*
X49450000Y-45550000D03*
X49600000Y-34830000D03*
X49020000Y-64760000D03*
X58970000Y-44670000D03*
X92140000Y-36230000D03*
X86390000Y-49991246D03*
X95936466Y-43466466D03*
X87210000Y-49990000D03*
X86390000Y-50820000D03*
X94640000Y-45310000D03*
X49750000Y-47430000D03*
X65500000Y-47650000D03*
X70165000Y-41365000D03*
X93080000Y-58760000D03*
X92850000Y-46010000D03*
X64895000Y-56580000D03*
X46640000Y-61210000D03*
X63860000Y-56580000D03*
X60023000Y-52072672D03*
X103380000Y-68585000D03*
X46920000Y-47430000D03*
X71810000Y-53100000D03*
X94440000Y-32530000D03*
X94083966Y-68363966D03*
X48790000Y-47420000D03*
X46820000Y-36640000D03*
X52010000Y-64750000D03*
X48720000Y-43780000D03*
X103780000Y-42890000D03*
X93040000Y-33700000D03*
X92900000Y-47320000D03*
X83550000Y-43590000D03*
X64830000Y-41520000D03*
X62550000Y-43220000D03*
X47334000Y-51835000D03*
X88610000Y-58480000D03*
X94060000Y-33670000D03*
X92830000Y-48460000D03*
X63860000Y-57610000D03*
X74250000Y-48120000D03*
X91315000Y-68410000D03*
X71880000Y-49888000D03*
X47760000Y-38460000D03*
X75070000Y-60760000D03*
X48190000Y-45600000D03*
X46770000Y-34830000D03*
X72600000Y-49080000D03*
X63860000Y-55550000D03*
X94090000Y-58710000D03*
X75760000Y-55480000D03*
X64300000Y-46300000D03*
X93930000Y-47330000D03*
X70470000Y-59310000D03*
X85570000Y-49990000D03*
X59170000Y-66750000D03*
X48710000Y-38460000D03*
X93920000Y-49340000D03*
X80810412Y-57816421D03*
X69125000Y-51685000D03*
X47319000Y-50535000D03*
X49680000Y-43790000D03*
X102565000Y-43570000D03*
X57940000Y-46140000D03*
X93040000Y-36210000D03*
X56960000Y-56555000D03*
X46840000Y-38470000D03*
X56610000Y-59520000D03*
X71350000Y-58775000D03*
X74640000Y-55470000D03*
X81326523Y-49113095D03*
X90400000Y-65500000D03*
X64895000Y-57610000D03*
X69890000Y-52048000D03*
X75000000Y-61680000D03*
X83580000Y-45640000D03*
X69790000Y-51192000D03*
X58200000Y-41550000D03*
X92170000Y-34970000D03*
X70970000Y-44180000D03*
X72060000Y-51840000D03*
X46850000Y-43790000D03*
X48110000Y-36640000D03*
X91630000Y-58720000D03*
X91600000Y-60920000D03*
X71400000Y-35655000D03*
X104290000Y-67800000D03*
X93050000Y-60950000D03*
X56950000Y-66850000D03*
X46900000Y-45600000D03*
X47840000Y-47420000D03*
X70405000Y-66065000D03*
X93070000Y-59850000D03*
X94030000Y-59850000D03*
X80540000Y-54760000D03*
X62560000Y-47115000D03*
X86390000Y-49170000D03*
X59405000Y-52640000D03*
X94023579Y-60885519D03*
X71400000Y-46320000D03*
X47690000Y-34820000D03*
X71245000Y-41960000D03*
X84510000Y-43760000D03*
X86040000Y-43640000D03*
X54880000Y-47470000D03*
X53140000Y-38510000D03*
X54650000Y-45610000D03*
X97380000Y-59310000D03*
X54000000Y-34710000D03*
X96600000Y-34380000D03*
X96750000Y-46750000D03*
X53380000Y-36610000D03*
X54590000Y-36650000D03*
X54850000Y-34710000D03*
X53140000Y-34730000D03*
X54060000Y-43670000D03*
X95870000Y-45880000D03*
X96520000Y-58460000D03*
X97410000Y-60980000D03*
X50640000Y-56390000D03*
X54820000Y-38510000D03*
X53440000Y-45570000D03*
X55720000Y-36590000D03*
X96730000Y-48390000D03*
X97410000Y-36090000D03*
X97460000Y-33480000D03*
X50650000Y-59360000D03*
X95720000Y-34380000D03*
X95830000Y-46750000D03*
X96580000Y-33510000D03*
X53200000Y-43690000D03*
X97450000Y-34400000D03*
X97650000Y-45880000D03*
X96510000Y-59330000D03*
X96560000Y-36080000D03*
X96740000Y-45900000D03*
X54050000Y-47470000D03*
X96550000Y-61010000D03*
X52130000Y-57870000D03*
X49180000Y-57860000D03*
X53990000Y-38510000D03*
X86980000Y-43690000D03*
X95690000Y-33550000D03*
X97620000Y-48370000D03*
X95700000Y-59300000D03*
X97670000Y-46750000D03*
X97380000Y-58460000D03*
X54910000Y-43670000D03*
X55780000Y-45550000D03*
X95710000Y-58460000D03*
X87550000Y-45680000D03*
X53200000Y-47470000D03*
X94160000Y-43445000D03*
X89780000Y-54410000D03*
X92570000Y-42550000D03*
X90758966Y-46231034D03*
X84520000Y-53790000D03*
X95100000Y-56075000D03*
X90700000Y-56000000D03*
X93100000Y-56000000D03*
X59500000Y-59593546D03*
X93900000Y-44575000D03*
X90682000Y-39160000D03*
X64450000Y-42680000D03*
X62188300Y-53285603D03*
X75240000Y-54076500D03*
X63541034Y-52658966D03*
X78970000Y-44180000D03*
X65493000Y-52950000D03*
X77728966Y-49928966D03*
X75830000Y-57496466D03*
X61683196Y-54068873D03*
X62840300Y-51770000D03*
X72925000Y-59075000D03*
X79070000Y-51160000D03*
X72075000Y-61475000D03*
X64581967Y-52515000D03*
X75450000Y-44941500D03*
X98650000Y-32900000D03*
X94010000Y-41780000D03*
X98860000Y-45400000D03*
X94310000Y-55348000D03*
X93722000Y-53597812D03*
X88860000Y-41810000D03*
X88660000Y-53230000D03*
X89114491Y-51688500D03*
X83350000Y-54000000D03*
X83860294Y-51893246D03*
X66856082Y-43720000D03*
X81710000Y-59220000D03*
X81700000Y-60750000D03*
X59510000Y-54440000D03*
X70820000Y-57120000D03*
X73795000Y-52055000D03*
X66030000Y-44560000D03*
X66093918Y-40810000D03*
X66040000Y-43720000D03*
X66906082Y-41640000D03*
X66846082Y-44560000D03*
X66560000Y-62570000D03*
X66910000Y-40810000D03*
X70750000Y-55390000D03*
X72690000Y-46550000D03*
X66090000Y-41640000D03*
X87970000Y-42520000D03*
X94480000Y-65770000D03*
X61055292Y-59172640D03*
X94710000Y-56998000D03*
X60023000Y-55610784D03*
X57510000Y-54670000D03*
X66900000Y-52700000D03*
X75826010Y-45788819D03*
X75540000Y-48910000D03*
X76900000Y-44031500D03*
X70760000Y-51630000D03*
X77813771Y-40767871D03*
X89454966Y-46410000D03*
X81170000Y-50340000D03*
X90760000Y-49640000D03*
X79960000Y-40700000D03*
X81610000Y-48230500D03*
X90310000Y-48600000D03*
X77398000Y-56185000D03*
X89395000Y-48205000D03*
X90030000Y-40950000D03*
X88050000Y-37098000D03*
X87362966Y-44772062D03*
X78740000Y-40730000D03*
X79930000Y-44838777D03*
X77634138Y-44838777D03*
X88086095Y-46688479D03*
X80740000Y-53060000D03*
X89454966Y-44960000D03*
X88940000Y-40360000D03*
X86890000Y-37098000D03*
X80890000Y-40715000D03*
X79202000Y-56125000D03*
X81530000Y-45680000D03*
X87170000Y-46550000D03*
X57578000Y-61375000D03*
X57578000Y-57550000D03*
X59495000Y-58666546D03*
X62790000Y-61170000D03*
X89155000Y-37100000D03*
X63726510Y-60849788D03*
X91650000Y-55125000D03*
X92960000Y-66400000D03*
X90200000Y-67420000D03*
X70287500Y-64512500D03*
X64660000Y-60651336D03*
X68210000Y-59070000D03*
X63440000Y-49433000D03*
D14*
X91789000Y-46339000D02*
X87970000Y-42520000D01*
X91789000Y-52934159D02*
X91789000Y-46339000D01*
X92302000Y-53447159D02*
X91789000Y-52934159D01*
X94480000Y-65431000D02*
X92302000Y-63253000D01*
X92302000Y-63253000D02*
X92302000Y-53447159D01*
X94480000Y-65770000D02*
X94480000Y-65431000D01*
X92166000Y-45116000D02*
X88860000Y-41810000D01*
X92985811Y-53597812D02*
X92166000Y-52778001D01*
X92166000Y-52778001D02*
X92166000Y-45116000D01*
X93722000Y-53597812D02*
X92985811Y-53597812D01*
X92960000Y-66400000D02*
X91940000Y-67420000D01*
X91940000Y-67420000D02*
X90200000Y-67420000D01*
X75610000Y-37505000D02*
X75610000Y-34180000D01*
X77813771Y-39708771D02*
X75610000Y-37505000D01*
X77813771Y-40767871D02*
X77813771Y-39708771D01*
X80138000Y-52458000D02*
X80740000Y-53060000D01*
X80138000Y-47442000D02*
X80138000Y-52458000D01*
X80378000Y-47202000D02*
X80138000Y-47442000D01*
X87572574Y-47202000D02*
X80378000Y-47202000D01*
X88086095Y-46688479D02*
X87572574Y-47202000D01*
X88086521Y-46688479D02*
X89454966Y-45320034D01*
X89454966Y-45320034D02*
X89454966Y-44960000D01*
X88086095Y-46688479D02*
X88086521Y-46688479D01*
X88310000Y-35430000D02*
X88310000Y-34180000D01*
X88120000Y-35620000D02*
X88310000Y-35430000D01*
X84376842Y-35620000D02*
X88120000Y-35620000D01*
X82883000Y-37962000D02*
X82883000Y-37113842D01*
X80890000Y-39955000D02*
X82883000Y-37962000D01*
X82883000Y-37113842D02*
X84376842Y-35620000D01*
X80890000Y-40715000D02*
X80890000Y-39955000D01*
X78150000Y-39160000D02*
X78150000Y-34180000D01*
X78740000Y-39750000D02*
X78150000Y-39160000D01*
X78740000Y-40730000D02*
X78740000Y-39750000D01*
X80690000Y-39475000D02*
X80690000Y-34180000D01*
X79960000Y-40205000D02*
X80690000Y-39475000D01*
X79960000Y-40700000D02*
X79960000Y-40205000D01*
X62420000Y-66720000D02*
X81595000Y-66720000D01*
X81595000Y-66720000D02*
X81920000Y-67045000D01*
X61775000Y-66075000D02*
X62420000Y-66720000D01*
X61775000Y-62650000D02*
X61775000Y-66075000D01*
X81920000Y-67045000D02*
X81920000Y-67850000D01*
X60500000Y-61375000D02*
X61775000Y-62650000D01*
X57578000Y-61375000D02*
X60500000Y-61375000D01*
X69720000Y-63945000D02*
X70287500Y-64512500D01*
X64660000Y-62745000D02*
X65860000Y-63945000D01*
X64660000Y-60651336D02*
X64660000Y-62745000D01*
X65860000Y-63945000D02*
X69720000Y-63945000D01*
X63521842Y-54720000D02*
X62870715Y-54068873D01*
X72470000Y-54720000D02*
X63521842Y-54720000D01*
X75246466Y-57496466D02*
X72470000Y-54720000D01*
X62870715Y-54068873D02*
X61683196Y-54068873D01*
X75830000Y-57496466D02*
X75246466Y-57496466D01*
X74973500Y-54343000D02*
X75240000Y-54076500D01*
X63678000Y-54343000D02*
X74973500Y-54343000D01*
X62620603Y-53285603D02*
X63678000Y-54343000D01*
X62188300Y-53285603D02*
X62620603Y-53285603D01*
X73535000Y-51160000D02*
X79070000Y-51160000D01*
X72835000Y-51860000D02*
X73535000Y-51160000D01*
X72369000Y-53966000D02*
X72835000Y-53500000D01*
X62800000Y-52840000D02*
X63920000Y-53960000D01*
X63920000Y-53960000D02*
X72245000Y-53960000D01*
X62800000Y-51810300D02*
X62800000Y-52840000D01*
X72835000Y-53500000D02*
X72835000Y-51860000D01*
X72245000Y-53960000D02*
X72251000Y-53966000D01*
X72251000Y-53966000D02*
X72369000Y-53966000D01*
X62840300Y-51770000D02*
X62800000Y-51810300D01*
X88769000Y-47579000D02*
X89395000Y-48205000D01*
X80711000Y-47579000D02*
X88769000Y-47579000D01*
X80515000Y-51912932D02*
X80515000Y-47775000D01*
X81392000Y-52789932D02*
X80515000Y-51912932D01*
X81392000Y-55230068D02*
X81392000Y-52789932D01*
X79482068Y-57140000D02*
X81392000Y-55230068D01*
X77775000Y-57140000D02*
X79482068Y-57140000D01*
X77398000Y-56763000D02*
X77775000Y-57140000D01*
X77398000Y-56185000D02*
X77398000Y-56763000D01*
X80515000Y-47775000D02*
X80711000Y-47579000D01*
X79761000Y-47285842D02*
X80496842Y-46550000D01*
X79761000Y-54994000D02*
X79761000Y-47285842D01*
X79202000Y-56125000D02*
X79202000Y-55553000D01*
X79202000Y-55553000D02*
X79761000Y-54994000D01*
X78170000Y-43380000D02*
X78970000Y-44180000D01*
X70770000Y-43380000D02*
X78170000Y-43380000D01*
X63541034Y-50608966D02*
X70770000Y-43380000D01*
X63541034Y-52658966D02*
X63541034Y-50608966D01*
X81365000Y-45680000D02*
X80496842Y-46548158D01*
X80496842Y-46548158D02*
X80496842Y-46550000D01*
X81530000Y-45680000D02*
X81365000Y-45680000D01*
X80496842Y-46550000D02*
X87170000Y-46550000D01*
X93265000Y-42550000D02*
X92570000Y-42550000D01*
X94160000Y-43445000D02*
X93265000Y-42550000D01*
X93672932Y-44575000D02*
X93900000Y-44575000D01*
X90682000Y-41584068D02*
X93672932Y-44575000D01*
X90682000Y-39160000D02*
X90682000Y-41584068D01*
X60819266Y-58014546D02*
X62790000Y-59985280D01*
X59544546Y-58014546D02*
X60819266Y-58014546D01*
X56640000Y-55110000D02*
X59544546Y-58014546D01*
X56640000Y-51500000D02*
X56640000Y-55110000D01*
X65137000Y-43003000D02*
X56640000Y-51500000D01*
X79989068Y-43003000D02*
X65137000Y-43003000D01*
X83260000Y-37270000D02*
X83260000Y-39732068D01*
X88365000Y-36310000D02*
X84220000Y-36310000D01*
X84220000Y-36310000D02*
X83260000Y-37270000D01*
X62790000Y-59985280D02*
X62790000Y-61170000D01*
X89155000Y-37100000D02*
X88365000Y-36310000D01*
X83260000Y-39732068D02*
X79989068Y-43003000D01*
X90030000Y-39078000D02*
X90030000Y-40950000D01*
X88050000Y-37098000D02*
X90030000Y-39078000D01*
X83860294Y-53489706D02*
X83350000Y-54000000D01*
X83860294Y-51893246D02*
X83860294Y-53489706D01*
X91412000Y-52778000D02*
X89780000Y-54410000D01*
X91412000Y-46884068D02*
X91412000Y-52778000D01*
X90758966Y-46231034D02*
X91412000Y-46884068D01*
X90700000Y-56000000D02*
X86730000Y-56000000D01*
X95025000Y-56000000D02*
X93100000Y-56000000D01*
X95100000Y-56075000D02*
X95025000Y-56000000D01*
X86730000Y-56000000D02*
X84520000Y-53790000D01*
X64450000Y-42910000D02*
X64450000Y-42680000D01*
X56263000Y-51097000D02*
X64450000Y-42910000D01*
X56263000Y-57224568D02*
X56263000Y-51097000D01*
X59500000Y-59593546D02*
X58631978Y-59593546D01*
X58631978Y-59593546D02*
X56263000Y-57224568D01*
X65493000Y-51528090D02*
X65493000Y-52950000D01*
X66481090Y-50540000D02*
X65493000Y-51528090D01*
X77117932Y-50540000D02*
X66481090Y-50540000D01*
X77728966Y-49928966D02*
X77117932Y-50540000D01*
X75797068Y-58900000D02*
X76746000Y-57951068D01*
X72075000Y-64075000D02*
X72075000Y-61475000D01*
X76746000Y-57951068D02*
X76746000Y-53484000D01*
X76746000Y-53484000D02*
X79070000Y-51160000D01*
X68065000Y-65385000D02*
X70765000Y-65385000D01*
X70765000Y-65385000D02*
X72075000Y-64075000D01*
X73100000Y-58900000D02*
X75797068Y-58900000D01*
X72925000Y-59075000D02*
X73100000Y-58900000D01*
X64581967Y-52515000D02*
X64581967Y-51468033D01*
X71108500Y-44941500D02*
X75450000Y-44941500D01*
X64581967Y-51468033D02*
X71108500Y-44941500D01*
X98640000Y-40700000D02*
X98640000Y-32910000D01*
X94030000Y-41800000D02*
X97540000Y-41800000D01*
X94010000Y-41780000D02*
X94030000Y-41800000D01*
X98640000Y-32910000D02*
X98650000Y-32900000D01*
X97540000Y-41800000D02*
X98640000Y-40700000D01*
X94310000Y-54670000D02*
X94310000Y-55348000D01*
X98860000Y-45400000D02*
X98860000Y-50120000D01*
X98860000Y-50120000D02*
X94310000Y-54670000D01*
X88660000Y-53230000D02*
X88660000Y-52142991D01*
X88660000Y-52142991D02*
X89114491Y-51688500D01*
X57130000Y-60670000D02*
X54960000Y-62840000D01*
X98575000Y-58115000D02*
X97458000Y-56998000D01*
X61055292Y-59172640D02*
X59557932Y-60670000D01*
X94270000Y-69100000D02*
X98575000Y-64795000D01*
X98575000Y-64795000D02*
X98575000Y-58115000D01*
X59557932Y-60670000D02*
X57130000Y-60670000D01*
X97458000Y-56998000D02*
X94710000Y-56998000D01*
X54960000Y-62840000D02*
X54960000Y-67310000D01*
X54960000Y-67310000D02*
X56750000Y-69100000D01*
X56750000Y-69100000D02*
X94270000Y-69100000D01*
X60023000Y-55610784D02*
X58450784Y-55610784D01*
X58450784Y-55610784D02*
X57510000Y-54670000D01*
X76900000Y-44031500D02*
X76690000Y-44241500D01*
X76690000Y-44241500D02*
X76690000Y-47760000D01*
X75826010Y-45788819D02*
X75826010Y-48623990D01*
X70420000Y-52700000D02*
X70760000Y-52360000D01*
X66900000Y-52700000D02*
X70420000Y-52700000D01*
X76690000Y-47760000D02*
X75635000Y-48815000D01*
X75540000Y-48910000D02*
X75635000Y-48815000D01*
X75826010Y-48623990D02*
X75635000Y-48815000D01*
X70760000Y-52360000D02*
X70760000Y-51630000D01*
X88067774Y-48333000D02*
X89374774Y-49640000D01*
X90962000Y-47917034D02*
X90962000Y-49438000D01*
X90962000Y-49438000D02*
X90760000Y-49640000D01*
X89374774Y-49640000D02*
X90760000Y-49640000D01*
X81612568Y-50340000D02*
X83619568Y-48333000D01*
X81170000Y-50340000D02*
X81612568Y-50340000D01*
X89454966Y-46410000D02*
X90962000Y-47917034D01*
X83619568Y-48333000D02*
X88067774Y-48333000D01*
X81884500Y-47956000D02*
X81610000Y-48230500D01*
X88223932Y-47956000D02*
X81884500Y-47956000D01*
X90310000Y-48600000D02*
X89918000Y-48992000D01*
X89259932Y-48992000D02*
X88223932Y-47956000D01*
X89918000Y-48992000D02*
X89259932Y-48992000D01*
X87296251Y-44838777D02*
X79930000Y-44838777D01*
X79930000Y-44838777D02*
X77634138Y-44838777D01*
X87362966Y-44772062D02*
X87296251Y-44838777D01*
X88517932Y-40360000D02*
X88940000Y-40360000D01*
X86890000Y-38732068D02*
X88517932Y-40360000D01*
X86890000Y-37098000D02*
X86890000Y-38732068D01*
X58694546Y-58666546D02*
X57578000Y-57550000D01*
X59495000Y-58666546D02*
X58694546Y-58666546D01*
X63726510Y-60849788D02*
X63726510Y-60453490D01*
X64180664Y-59999336D02*
X88982732Y-59999336D01*
X63726510Y-60453490D02*
X64180664Y-59999336D01*
X91650000Y-57332068D02*
X91650000Y-55125000D01*
X88982732Y-59999336D02*
X91650000Y-57332068D01*
X60675000Y-55705000D02*
X64095000Y-59125000D01*
X63440000Y-49433000D02*
X62967000Y-49433000D01*
X62967000Y-49433000D02*
X60675000Y-51725000D01*
X64095000Y-59125000D02*
X68155000Y-59125000D01*
X60675000Y-51725000D02*
X60675000Y-55705000D01*
X68155000Y-59125000D02*
X68210000Y-59070000D01*
G04 #@! TA.AperFunction,Conductor*
G36*
X56951751Y-61340377D02*
G01*
X57007684Y-61382249D01*
X57031356Y-61440372D01*
X57041670Y-61518708D01*
X57041671Y-61518712D01*
X57097137Y-61652622D01*
X57097138Y-61652624D01*
X57097139Y-61652625D01*
X57185379Y-61767621D01*
X57300375Y-61855861D01*
X57300376Y-61855861D01*
X57300377Y-61855862D01*
X57345013Y-61874350D01*
X57434291Y-61911330D01*
X57561280Y-61928048D01*
X57577999Y-61930250D01*
X57578000Y-61930250D01*
X57578001Y-61930250D01*
X57592977Y-61928278D01*
X57721709Y-61911330D01*
X57855625Y-61855861D01*
X57970621Y-61767621D01*
X58023267Y-61699011D01*
X58079693Y-61657811D01*
X58121641Y-61650500D01*
X60334523Y-61650500D01*
X60401562Y-61670185D01*
X60422204Y-61686819D01*
X61463181Y-62727796D01*
X61496666Y-62789119D01*
X61499500Y-62815477D01*
X61499500Y-64746257D01*
X61479815Y-64813296D01*
X61427011Y-64859051D01*
X61357853Y-64868995D01*
X61294297Y-64839970D01*
X61279647Y-64824922D01*
X61155883Y-64674116D01*
X61003539Y-64549090D01*
X61003532Y-64549086D01*
X60829733Y-64456188D01*
X60829727Y-64456186D01*
X60641132Y-64398976D01*
X60641129Y-64398975D01*
X60445000Y-64379659D01*
X60248870Y-64398975D01*
X60060266Y-64456188D01*
X59886467Y-64549086D01*
X59886460Y-64549090D01*
X59734116Y-64674116D01*
X59609090Y-64826460D01*
X59609086Y-64826467D01*
X59516188Y-65000266D01*
X59458975Y-65188870D01*
X59439659Y-65385000D01*
X59458975Y-65581129D01*
X59470329Y-65618557D01*
X59486451Y-65671706D01*
X59516188Y-65769733D01*
X59609086Y-65943532D01*
X59609090Y-65943539D01*
X59734116Y-66095883D01*
X59886460Y-66220909D01*
X59886467Y-66220913D01*
X60060266Y-66313811D01*
X60060269Y-66313811D01*
X60060273Y-66313814D01*
X60248868Y-66371024D01*
X60445000Y-66390341D01*
X60641132Y-66371024D01*
X60829727Y-66313814D01*
X60843731Y-66306329D01*
X60947504Y-66250861D01*
X61003538Y-66220910D01*
X61155883Y-66095883D01*
X61279647Y-65945077D01*
X61337393Y-65905743D01*
X61407237Y-65903872D01*
X61467005Y-65940060D01*
X61497721Y-66002815D01*
X61499500Y-66023742D01*
X61499500Y-66129800D01*
X61518427Y-66175492D01*
X61529935Y-66203275D01*
X61541442Y-66231057D01*
X62263942Y-66953558D01*
X62263944Y-66953560D01*
X62325896Y-66979220D01*
X62365200Y-66995500D01*
X62474800Y-66995500D01*
X67273945Y-66995500D01*
X67340984Y-67015185D01*
X67386739Y-67067989D01*
X67396683Y-67137147D01*
X67367658Y-67200703D01*
X67358365Y-67209750D01*
X67358424Y-67209809D01*
X67354118Y-67214114D01*
X67229090Y-67366460D01*
X67229086Y-67366467D01*
X67136188Y-67540266D01*
X67078975Y-67728870D01*
X67059659Y-67925000D01*
X67078975Y-68121129D01*
X67136188Y-68309733D01*
X67229086Y-68483532D01*
X67229090Y-68483539D01*
X67342587Y-68621835D01*
X67369900Y-68686145D01*
X67358109Y-68755013D01*
X67310957Y-68806573D01*
X67246734Y-68824500D01*
X56915478Y-68824500D01*
X56848439Y-68804815D01*
X56827797Y-68788181D01*
X55271819Y-67232203D01*
X55238334Y-67170880D01*
X55235500Y-67144522D01*
X55235500Y-65385000D01*
X56899659Y-65385000D01*
X56918975Y-65581129D01*
X56930329Y-65618557D01*
X56946451Y-65671706D01*
X56976188Y-65769733D01*
X57069086Y-65943532D01*
X57069090Y-65943539D01*
X57194116Y-66095883D01*
X57346460Y-66220909D01*
X57346467Y-66220913D01*
X57520266Y-66313811D01*
X57520269Y-66313811D01*
X57520273Y-66313814D01*
X57708868Y-66371024D01*
X57905000Y-66390341D01*
X58101132Y-66371024D01*
X58289727Y-66313814D01*
X58303731Y-66306329D01*
X58407504Y-66250861D01*
X58463538Y-66220910D01*
X58615883Y-66095883D01*
X58740910Y-65943538D01*
X58833814Y-65769727D01*
X58891024Y-65581132D01*
X58910341Y-65385000D01*
X58891024Y-65188868D01*
X58833814Y-65000273D01*
X58833811Y-65000269D01*
X58833811Y-65000266D01*
X58740913Y-64826467D01*
X58740909Y-64826460D01*
X58615883Y-64674116D01*
X58463539Y-64549090D01*
X58463532Y-64549086D01*
X58289733Y-64456188D01*
X58289727Y-64456186D01*
X58101132Y-64398976D01*
X58101129Y-64398975D01*
X57905000Y-64379659D01*
X57708870Y-64398975D01*
X57520266Y-64456188D01*
X57346467Y-64549086D01*
X57346460Y-64549090D01*
X57194116Y-64674116D01*
X57069090Y-64826460D01*
X57069086Y-64826467D01*
X56976188Y-65000266D01*
X56918975Y-65188870D01*
X56899659Y-65385000D01*
X55235500Y-65385000D01*
X55235500Y-63005477D01*
X55255185Y-62938438D01*
X55271819Y-62917796D01*
X56042077Y-62147538D01*
X56820738Y-61368876D01*
X56882059Y-61335393D01*
X56951751Y-61340377D01*
G37*
G04 #@! TD.AperFunction*
G04 #@! TA.AperFunction,Conductor*
G36*
X73511843Y-67015185D02*
G01*
X73557598Y-67067989D01*
X73567542Y-67137147D01*
X73540657Y-67198165D01*
X73464090Y-67291460D01*
X73464086Y-67291467D01*
X73371188Y-67465266D01*
X73313975Y-67653870D01*
X73294659Y-67850000D01*
X73313975Y-68046129D01*
X73371188Y-68234733D01*
X73464086Y-68408532D01*
X73464090Y-68408539D01*
X73589116Y-68560883D01*
X73642443Y-68604647D01*
X73681777Y-68662392D01*
X73683648Y-68732237D01*
X73647461Y-68792005D01*
X73584705Y-68822721D01*
X73563778Y-68824500D01*
X68883266Y-68824500D01*
X68816227Y-68804815D01*
X68770472Y-68752011D01*
X68760528Y-68682853D01*
X68787413Y-68621835D01*
X68900909Y-68483539D01*
X68900913Y-68483532D01*
X68993811Y-68309733D01*
X68993811Y-68309732D01*
X68993814Y-68309727D01*
X69051024Y-68121132D01*
X69070341Y-67925000D01*
X69051024Y-67728868D01*
X68993814Y-67540273D01*
X68993811Y-67540269D01*
X68993811Y-67540266D01*
X68900913Y-67366467D01*
X68900909Y-67366460D01*
X68775881Y-67214114D01*
X68771576Y-67209809D01*
X68772787Y-67208597D01*
X68738054Y-67157603D01*
X68736186Y-67087759D01*
X68772376Y-67027992D01*
X68835133Y-66997278D01*
X68856055Y-66995500D01*
X73444804Y-66995500D01*
X73511843Y-67015185D01*
G37*
G04 #@! TD.AperFunction*
G04 #@! TA.AperFunction,Conductor*
G36*
X94459392Y-56295185D02*
G01*
X94505147Y-56347989D01*
X94515091Y-56417147D01*
X94486066Y-56480703D01*
X94439805Y-56514061D01*
X94432375Y-56517139D01*
X94337433Y-56589991D01*
X94317379Y-56605379D01*
X94229137Y-56720377D01*
X94173671Y-56854287D01*
X94173670Y-56854291D01*
X94159400Y-56962684D01*
X94154750Y-56998000D01*
X94169242Y-57108079D01*
X94173670Y-57141708D01*
X94173671Y-57141712D01*
X94229137Y-57275622D01*
X94229138Y-57275624D01*
X94229139Y-57275625D01*
X94317379Y-57390621D01*
X94432375Y-57478861D01*
X94566291Y-57534330D01*
X94693280Y-57551048D01*
X94709999Y-57553250D01*
X94710000Y-57553250D01*
X94710001Y-57553250D01*
X94724977Y-57551278D01*
X94853709Y-57534330D01*
X94987625Y-57478861D01*
X95102621Y-57390621D01*
X95155267Y-57322011D01*
X95211693Y-57280811D01*
X95253641Y-57273500D01*
X97292523Y-57273500D01*
X97359562Y-57293185D01*
X97380204Y-57309819D01*
X98263181Y-58192796D01*
X98296666Y-58254119D01*
X98299500Y-58280477D01*
X98299500Y-64629522D01*
X98279815Y-64696561D01*
X98263181Y-64717203D01*
X94192204Y-68788181D01*
X94130881Y-68821666D01*
X94104523Y-68824500D01*
X85584500Y-68824500D01*
X85517461Y-68804815D01*
X85471706Y-68752011D01*
X85460500Y-68700500D01*
X85460500Y-67420000D01*
X89644750Y-67420000D01*
X89650711Y-67465273D01*
X89663670Y-67563708D01*
X89663671Y-67563712D01*
X89719137Y-67697622D01*
X89719138Y-67697624D01*
X89719139Y-67697625D01*
X89807379Y-67812621D01*
X89922375Y-67900861D01*
X90056291Y-67956330D01*
X90183280Y-67973048D01*
X90199999Y-67975250D01*
X90200000Y-67975250D01*
X90200001Y-67975250D01*
X90214977Y-67973278D01*
X90343709Y-67956330D01*
X90477625Y-67900861D01*
X90592621Y-67812621D01*
X90645267Y-67744011D01*
X90701693Y-67702811D01*
X90743641Y-67695500D01*
X91994799Y-67695500D01*
X91994800Y-67695500D01*
X92096058Y-67653557D01*
X92173557Y-67576058D01*
X92770395Y-66979218D01*
X92831716Y-66945735D01*
X92874260Y-66943962D01*
X92959999Y-66955250D01*
X92960000Y-66955250D01*
X92960001Y-66955250D01*
X92974977Y-66953278D01*
X93103709Y-66936330D01*
X93237625Y-66880861D01*
X93352621Y-66792621D01*
X93440861Y-66677625D01*
X93496330Y-66543709D01*
X93515250Y-66400000D01*
X93496330Y-66256291D01*
X93457531Y-66162620D01*
X93440862Y-66122377D01*
X93440861Y-66122376D01*
X93440861Y-66122375D01*
X93352621Y-66007379D01*
X93237625Y-65919139D01*
X93237624Y-65919138D01*
X93237622Y-65919137D01*
X93103712Y-65863671D01*
X93103710Y-65863670D01*
X93103709Y-65863670D01*
X93031854Y-65854210D01*
X92960001Y-65844750D01*
X92959999Y-65844750D01*
X92816291Y-65863670D01*
X92816287Y-65863671D01*
X92682377Y-65919137D01*
X92567379Y-66007379D01*
X92479137Y-66122377D01*
X92423671Y-66256287D01*
X92423670Y-66256291D01*
X92404750Y-66399999D01*
X92404750Y-66400002D01*
X92416037Y-66485738D01*
X92405271Y-66554773D01*
X92380779Y-66589604D01*
X91862204Y-67108181D01*
X91800881Y-67141666D01*
X91774523Y-67144500D01*
X90743641Y-67144500D01*
X90676602Y-67124815D01*
X90645268Y-67095990D01*
X90592621Y-67027379D01*
X90477625Y-66939139D01*
X90477624Y-66939138D01*
X90477622Y-66939137D01*
X90343712Y-66883671D01*
X90343710Y-66883670D01*
X90343709Y-66883670D01*
X90271854Y-66874210D01*
X90200001Y-66864750D01*
X90199999Y-66864750D01*
X90056291Y-66883670D01*
X90056287Y-66883671D01*
X89922377Y-66939137D01*
X89807379Y-67027379D01*
X89719137Y-67142377D01*
X89663671Y-67276287D01*
X89663670Y-67276291D01*
X89651799Y-67366462D01*
X89644750Y-67420000D01*
X85460500Y-67420000D01*
X85460500Y-66985177D01*
X85451768Y-66941282D01*
X85451767Y-66941281D01*
X85451767Y-66941278D01*
X85418504Y-66891496D01*
X85406793Y-66883671D01*
X85368724Y-66858234D01*
X85368717Y-66858231D01*
X85324822Y-66849500D01*
X85324820Y-66849500D01*
X83595180Y-66849500D01*
X83595178Y-66849500D01*
X83551282Y-66858231D01*
X83551275Y-66858234D01*
X83501496Y-66891495D01*
X83501495Y-66891496D01*
X83468234Y-66941275D01*
X83468231Y-66941282D01*
X83459500Y-66985177D01*
X83459500Y-68700500D01*
X83439815Y-68767539D01*
X83387011Y-68813294D01*
X83335500Y-68824500D01*
X82656222Y-68824500D01*
X82589183Y-68804815D01*
X82543428Y-68752011D01*
X82533484Y-68682853D01*
X82562509Y-68619297D01*
X82577557Y-68604647D01*
X82630883Y-68560883D01*
X82755909Y-68408539D01*
X82755913Y-68408532D01*
X82848811Y-68234733D01*
X82848811Y-68234732D01*
X82848814Y-68234727D01*
X82906024Y-68046132D01*
X82925341Y-67850000D01*
X82906024Y-67653868D01*
X82848814Y-67465273D01*
X82848811Y-67465269D01*
X82848811Y-67465266D01*
X82755913Y-67291467D01*
X82755909Y-67291460D01*
X82630883Y-67139116D01*
X82478539Y-67014090D01*
X82478532Y-67014086D01*
X82304728Y-66921186D01*
X82163739Y-66878417D01*
X82112054Y-66847438D01*
X81751059Y-66486444D01*
X81751058Y-66486443D01*
X81649800Y-66444500D01*
X69177870Y-66444500D01*
X69110831Y-66424815D01*
X69065076Y-66372011D01*
X69055132Y-66302853D01*
X69056253Y-66296308D01*
X69065500Y-66249822D01*
X69065500Y-65784500D01*
X69085185Y-65717461D01*
X69137989Y-65671706D01*
X69189500Y-65660500D01*
X70819799Y-65660500D01*
X70819800Y-65660500D01*
X70921058Y-65618557D01*
X70998557Y-65541058D01*
X70998556Y-65541058D01*
X71057125Y-65482489D01*
X72308558Y-64231058D01*
X72308558Y-64231056D01*
X72308560Y-64231055D01*
X72331311Y-64176126D01*
X72350500Y-64129800D01*
X72350500Y-64020200D01*
X72350500Y-62018641D01*
X72370185Y-61951602D01*
X72399009Y-61920268D01*
X72467621Y-61867621D01*
X72555861Y-61752625D01*
X72611330Y-61618709D01*
X72630250Y-61475000D01*
X72611330Y-61331291D01*
X72555861Y-61197375D01*
X72467621Y-61082379D01*
X72352625Y-60994139D01*
X72352624Y-60994138D01*
X72352622Y-60994137D01*
X72218712Y-60938671D01*
X72218710Y-60938670D01*
X72218709Y-60938670D01*
X72144940Y-60928958D01*
X72075001Y-60919750D01*
X72074999Y-60919750D01*
X71931291Y-60938670D01*
X71931287Y-60938671D01*
X71797377Y-60994137D01*
X71682379Y-61082379D01*
X71594137Y-61197377D01*
X71538671Y-61331287D01*
X71538670Y-61331291D01*
X71519750Y-61474999D01*
X71519750Y-61475000D01*
X71538670Y-61618708D01*
X71538671Y-61618712D01*
X71594137Y-61752622D01*
X71594138Y-61752624D01*
X71594139Y-61752625D01*
X71682379Y-61867621D01*
X71750988Y-61920267D01*
X71792189Y-61976693D01*
X71799500Y-62018641D01*
X71799500Y-63909522D01*
X71779815Y-63976561D01*
X71763181Y-63997203D01*
X71039626Y-64720758D01*
X70978303Y-64754243D01*
X70908611Y-64749259D01*
X70852678Y-64707387D01*
X70828261Y-64641923D01*
X70829006Y-64616891D01*
X70832202Y-64592621D01*
X70842750Y-64512500D01*
X70842749Y-64512496D01*
X70840548Y-64495780D01*
X70823830Y-64368791D01*
X70777450Y-64256819D01*
X70768362Y-64234877D01*
X70768361Y-64234876D01*
X70768361Y-64234875D01*
X70680121Y-64119879D01*
X70565125Y-64031639D01*
X70565124Y-64031638D01*
X70565122Y-64031637D01*
X70431212Y-63976171D01*
X70431210Y-63976170D01*
X70431209Y-63976170D01*
X70359354Y-63966710D01*
X70287501Y-63957250D01*
X70287497Y-63957250D01*
X70201759Y-63968537D01*
X70132724Y-63957771D01*
X70097894Y-63933279D01*
X69876059Y-63711444D01*
X69876055Y-63711441D01*
X69861690Y-63705491D01*
X69774800Y-63669500D01*
X66025478Y-63669500D01*
X65958439Y-63649815D01*
X65937797Y-63633181D01*
X64971819Y-62667203D01*
X64938334Y-62605880D01*
X64935500Y-62579522D01*
X64935500Y-62570000D01*
X66004750Y-62570000D01*
X66022065Y-62701521D01*
X66023670Y-62713708D01*
X66023671Y-62713712D01*
X66079137Y-62847622D01*
X66079138Y-62847624D01*
X66079139Y-62847625D01*
X66167379Y-62962621D01*
X66282375Y-63050861D01*
X66282376Y-63050861D01*
X66282377Y-63050862D01*
X66327013Y-63069350D01*
X66416291Y-63106330D01*
X66543280Y-63123048D01*
X66559999Y-63125250D01*
X66560000Y-63125250D01*
X66560001Y-63125250D01*
X66574977Y-63123278D01*
X66703709Y-63106330D01*
X66837625Y-63050861D01*
X66952621Y-62962621D01*
X67040861Y-62847625D01*
X67096330Y-62713709D01*
X67115250Y-62570000D01*
X67096330Y-62426291D01*
X67043389Y-62298478D01*
X67040862Y-62292377D01*
X67040861Y-62292376D01*
X67040861Y-62292375D01*
X66952621Y-62177379D01*
X66837625Y-62089139D01*
X66837624Y-62089138D01*
X66837622Y-62089137D01*
X66703712Y-62033671D01*
X66703710Y-62033670D01*
X66703709Y-62033670D01*
X66589555Y-62018641D01*
X66560001Y-62014750D01*
X66559999Y-62014750D01*
X66416291Y-62033670D01*
X66416287Y-62033671D01*
X66282377Y-62089137D01*
X66167379Y-62177379D01*
X66079137Y-62292377D01*
X66023671Y-62426287D01*
X66023670Y-62426291D01*
X66014764Y-62493941D01*
X66004750Y-62570000D01*
X64935500Y-62570000D01*
X64935500Y-61194977D01*
X64955185Y-61127938D01*
X64984009Y-61096604D01*
X65052621Y-61043957D01*
X65140861Y-60928961D01*
X65196330Y-60795045D01*
X65215250Y-60651336D01*
X65196330Y-60507627D01*
X65174192Y-60454180D01*
X65170923Y-60446288D01*
X65163454Y-60376819D01*
X65194729Y-60314340D01*
X65254819Y-60278688D01*
X65285484Y-60274836D01*
X81119269Y-60274836D01*
X81186308Y-60294521D01*
X81232063Y-60347325D01*
X81242007Y-60416483D01*
X81221777Y-60464512D01*
X81223203Y-60465336D01*
X81219138Y-60472376D01*
X81163671Y-60606287D01*
X81163670Y-60606291D01*
X81147420Y-60729723D01*
X81144750Y-60750000D01*
X81163494Y-60892375D01*
X81163670Y-60893708D01*
X81163671Y-60893712D01*
X81219137Y-61027622D01*
X81219138Y-61027624D01*
X81219139Y-61027625D01*
X81307379Y-61142621D01*
X81422375Y-61230861D01*
X81556291Y-61286330D01*
X81683236Y-61303043D01*
X81699999Y-61305250D01*
X81700000Y-61305250D01*
X81700001Y-61305250D01*
X81714977Y-61303278D01*
X81843709Y-61286330D01*
X81977625Y-61230861D01*
X82092621Y-61142621D01*
X82180861Y-61027625D01*
X82236330Y-60893709D01*
X82255250Y-60750000D01*
X82236330Y-60606291D01*
X82180861Y-60472375D01*
X82180858Y-60472371D01*
X82176797Y-60465336D01*
X82178500Y-60464352D01*
X82157161Y-60409154D01*
X82171199Y-60340709D01*
X82220013Y-60290719D01*
X82280731Y-60274836D01*
X89037531Y-60274836D01*
X89037532Y-60274836D01*
X89138790Y-60232893D01*
X89216289Y-60155394D01*
X89216288Y-60155394D01*
X89274857Y-60096825D01*
X89274856Y-60096825D01*
X91814821Y-57556862D01*
X91876142Y-57523379D01*
X91945834Y-57528363D01*
X92001767Y-57570235D01*
X92026184Y-57635699D01*
X92026500Y-57644545D01*
X92026500Y-63307800D01*
X92068443Y-63409058D01*
X92068444Y-63409059D01*
X93988508Y-65329124D01*
X94021993Y-65390447D01*
X94017009Y-65460139D01*
X94003091Y-65485270D01*
X94003203Y-65485335D01*
X93999587Y-65491597D01*
X93999204Y-65492290D01*
X93999138Y-65492375D01*
X93943671Y-65626287D01*
X93943670Y-65626291D01*
X93924750Y-65769999D01*
X93924750Y-65770000D01*
X93943670Y-65913708D01*
X93943671Y-65913712D01*
X93999137Y-66047622D01*
X93999138Y-66047624D01*
X93999139Y-66047625D01*
X94087379Y-66162621D01*
X94202375Y-66250861D01*
X94202376Y-66250861D01*
X94202377Y-66250862D01*
X94215484Y-66256291D01*
X94336291Y-66306330D01*
X94463280Y-66323048D01*
X94479999Y-66325250D01*
X94480000Y-66325250D01*
X94480001Y-66325250D01*
X94494977Y-66323278D01*
X94623709Y-66306330D01*
X94757625Y-66250861D01*
X94872621Y-66162621D01*
X94960861Y-66047625D01*
X95016330Y-65913709D01*
X95035250Y-65770000D01*
X95016330Y-65626291D01*
X94960963Y-65492621D01*
X94960862Y-65492377D01*
X94960861Y-65492376D01*
X94960861Y-65492375D01*
X94872621Y-65377379D01*
X94757625Y-65289139D01*
X94729420Y-65277456D01*
X94689192Y-65250576D01*
X92613819Y-63175203D01*
X92580334Y-63113880D01*
X92577500Y-63087522D01*
X92577500Y-61010000D01*
X95994750Y-61010000D01*
X96009954Y-61125487D01*
X96013670Y-61153708D01*
X96013671Y-61153712D01*
X96069137Y-61287622D01*
X96069138Y-61287624D01*
X96069139Y-61287625D01*
X96157379Y-61402621D01*
X96272375Y-61490861D01*
X96406291Y-61546330D01*
X96530024Y-61562620D01*
X96549999Y-61565250D01*
X96550000Y-61565250D01*
X96550001Y-61565250D01*
X96569976Y-61562620D01*
X96693709Y-61546330D01*
X96827625Y-61490861D01*
X96924062Y-61416861D01*
X96989230Y-61391667D01*
X97057675Y-61405705D01*
X97075035Y-61416862D01*
X97132373Y-61460860D01*
X97132374Y-61460860D01*
X97132375Y-61460861D01*
X97266291Y-61516330D01*
X97393280Y-61533048D01*
X97409999Y-61535250D01*
X97410000Y-61535250D01*
X97410001Y-61535250D01*
X97424977Y-61533278D01*
X97553709Y-61516330D01*
X97687625Y-61460861D01*
X97802621Y-61372621D01*
X97890861Y-61257625D01*
X97946330Y-61123709D01*
X97965250Y-60980000D01*
X97946330Y-60836291D01*
X97890861Y-60702375D01*
X97802621Y-60587379D01*
X97687625Y-60499139D01*
X97687624Y-60499138D01*
X97687622Y-60499137D01*
X97553712Y-60443671D01*
X97553710Y-60443670D01*
X97553709Y-60443670D01*
X97481854Y-60434210D01*
X97410001Y-60424750D01*
X97409999Y-60424750D01*
X97266291Y-60443670D01*
X97266287Y-60443671D01*
X97132376Y-60499138D01*
X97132374Y-60499139D01*
X97035937Y-60573138D01*
X96970768Y-60598332D01*
X96902323Y-60584293D01*
X96884964Y-60573137D01*
X96827626Y-60529139D01*
X96827623Y-60529138D01*
X96693712Y-60473671D01*
X96693710Y-60473670D01*
X96693709Y-60473670D01*
X96568359Y-60457167D01*
X96550001Y-60454750D01*
X96549999Y-60454750D01*
X96406291Y-60473670D01*
X96406287Y-60473671D01*
X96272377Y-60529137D01*
X96157379Y-60617379D01*
X96069137Y-60732377D01*
X96013671Y-60866287D01*
X96013670Y-60866291D01*
X95997137Y-60991873D01*
X95994750Y-61010000D01*
X92577500Y-61010000D01*
X92577500Y-59300000D01*
X95144750Y-59300000D01*
X95153137Y-59363708D01*
X95163670Y-59443708D01*
X95163671Y-59443712D01*
X95219137Y-59577622D01*
X95219138Y-59577624D01*
X95219139Y-59577625D01*
X95307379Y-59692621D01*
X95422375Y-59780861D01*
X95556291Y-59836330D01*
X95683280Y-59853048D01*
X95699999Y-59855250D01*
X95700000Y-59855250D01*
X95700001Y-59855250D01*
X95714977Y-59853278D01*
X95843709Y-59836330D01*
X95977625Y-59780861D01*
X96009965Y-59756044D01*
X96075132Y-59730851D01*
X96143577Y-59744889D01*
X96160937Y-59756045D01*
X96206311Y-59790861D01*
X96232375Y-59810861D01*
X96366291Y-59866330D01*
X96493280Y-59883048D01*
X96509999Y-59885250D01*
X96510000Y-59885250D01*
X96510001Y-59885250D01*
X96524977Y-59883278D01*
X96653709Y-59866330D01*
X96787625Y-59810861D01*
X96882547Y-59738024D01*
X96947714Y-59712831D01*
X97016159Y-59726869D01*
X97033513Y-59738021D01*
X97102375Y-59790861D01*
X97236291Y-59846330D01*
X97363280Y-59863048D01*
X97379999Y-59865250D01*
X97380000Y-59865250D01*
X97380001Y-59865250D01*
X97394977Y-59863278D01*
X97523709Y-59846330D01*
X97657625Y-59790861D01*
X97772621Y-59702621D01*
X97860861Y-59587625D01*
X97916330Y-59453709D01*
X97935250Y-59310000D01*
X97933933Y-59300000D01*
X97929922Y-59269532D01*
X97916330Y-59166291D01*
X97860861Y-59032375D01*
X97860860Y-59032374D01*
X97860860Y-59032373D01*
X97805699Y-58960487D01*
X97780504Y-58895318D01*
X97794542Y-58826873D01*
X97805699Y-58809513D01*
X97818848Y-58792377D01*
X97860861Y-58737625D01*
X97916330Y-58603709D01*
X97935250Y-58460000D01*
X97916330Y-58316291D01*
X97878337Y-58224566D01*
X97860862Y-58182377D01*
X97860861Y-58182376D01*
X97860861Y-58182375D01*
X97772621Y-58067379D01*
X97657625Y-57979139D01*
X97657624Y-57979138D01*
X97657622Y-57979137D01*
X97523712Y-57923671D01*
X97523710Y-57923670D01*
X97523709Y-57923670D01*
X97451854Y-57914210D01*
X97380001Y-57904750D01*
X97379999Y-57904750D01*
X97236291Y-57923670D01*
X97236287Y-57923671D01*
X97102376Y-57979138D01*
X97102374Y-57979139D01*
X97025486Y-58038138D01*
X96960317Y-58063332D01*
X96891872Y-58049294D01*
X96874514Y-58038138D01*
X96797625Y-57979139D01*
X96797623Y-57979138D01*
X96663712Y-57923671D01*
X96663710Y-57923670D01*
X96663709Y-57923670D01*
X96591854Y-57914210D01*
X96520001Y-57904750D01*
X96519999Y-57904750D01*
X96376291Y-57923670D01*
X96376287Y-57923671D01*
X96242377Y-57979137D01*
X96222127Y-57994675D01*
X96190485Y-58018955D01*
X96125318Y-58044149D01*
X96056873Y-58030111D01*
X96039518Y-58018958D01*
X95987625Y-57979139D01*
X95987624Y-57979138D01*
X95987622Y-57979137D01*
X95853712Y-57923671D01*
X95853710Y-57923670D01*
X95853709Y-57923670D01*
X95781854Y-57914210D01*
X95710001Y-57904750D01*
X95709999Y-57904750D01*
X95566291Y-57923670D01*
X95566287Y-57923671D01*
X95432377Y-57979137D01*
X95317379Y-58067379D01*
X95229137Y-58182377D01*
X95173671Y-58316287D01*
X95173670Y-58316291D01*
X95156871Y-58443893D01*
X95154750Y-58460000D01*
X95173237Y-58600423D01*
X95173670Y-58603708D01*
X95173671Y-58603712D01*
X95206790Y-58683670D01*
X95229139Y-58737625D01*
X95271150Y-58792375D01*
X95275464Y-58797996D01*
X95300659Y-58863165D01*
X95286621Y-58931610D01*
X95275465Y-58948969D01*
X95219139Y-59022374D01*
X95219138Y-59022376D01*
X95163671Y-59156287D01*
X95163670Y-59156291D01*
X95155283Y-59219999D01*
X95144750Y-59300000D01*
X92577500Y-59300000D01*
X92577500Y-56544408D01*
X92597185Y-56477369D01*
X92649989Y-56431614D01*
X92719147Y-56421670D01*
X92776985Y-56446032D01*
X92822375Y-56480861D01*
X92956291Y-56536330D01*
X93083280Y-56553048D01*
X93099999Y-56555250D01*
X93100000Y-56555250D01*
X93100001Y-56555250D01*
X93114977Y-56553278D01*
X93243709Y-56536330D01*
X93377625Y-56480861D01*
X93492621Y-56392621D01*
X93545267Y-56324011D01*
X93601693Y-56282811D01*
X93643641Y-56275500D01*
X94392353Y-56275500D01*
X94459392Y-56295185D01*
G37*
G04 #@! TD.AperFunction*
G04 #@! TA.AperFunction,Conductor*
G36*
X57664773Y-55224727D02*
G01*
X57699604Y-55249219D01*
X58294725Y-55844341D01*
X58294730Y-55844343D01*
X58317249Y-55853671D01*
X58317250Y-55853671D01*
X58395984Y-55886284D01*
X59479359Y-55886284D01*
X59546398Y-55905969D01*
X59577731Y-55934793D01*
X59630379Y-56003405D01*
X59745375Y-56091645D01*
X59879291Y-56147114D01*
X60006280Y-56163832D01*
X60022999Y-56166034D01*
X60023000Y-56166034D01*
X60023001Y-56166034D01*
X60037977Y-56164062D01*
X60166709Y-56147114D01*
X60300625Y-56091645D01*
X60380635Y-56030250D01*
X60422070Y-55998457D01*
X60423727Y-56000616D01*
X60473319Y-55973523D01*
X60543012Y-55978491D01*
X60587386Y-56007002D01*
X63938938Y-59358555D01*
X63938939Y-59358555D01*
X63938941Y-59358557D01*
X63968595Y-59370839D01*
X63968597Y-59370841D01*
X63968598Y-59370841D01*
X63989570Y-59379527D01*
X64040200Y-59400500D01*
X67708562Y-59400500D01*
X67775601Y-59420185D01*
X67806937Y-59449013D01*
X67810543Y-59453712D01*
X67817379Y-59462621D01*
X67862997Y-59497625D01*
X67867995Y-59501460D01*
X67909197Y-59557888D01*
X67913352Y-59627634D01*
X67879139Y-59688555D01*
X67817422Y-59721307D01*
X67792508Y-59723836D01*
X64235464Y-59723836D01*
X64125864Y-59723836D01*
X64125862Y-59723836D01*
X64125860Y-59723837D01*
X64024608Y-59765775D01*
X64024606Y-59765777D01*
X63671248Y-60119137D01*
X63570452Y-60219933D01*
X63531702Y-60258683D01*
X63492952Y-60297432D01*
X63482786Y-60321975D01*
X63443713Y-60372895D01*
X63333889Y-60457166D01*
X63333888Y-60457167D01*
X63287875Y-60517133D01*
X63231447Y-60558335D01*
X63161701Y-60562490D01*
X63100781Y-60528277D01*
X63068029Y-60466560D01*
X63065500Y-60441646D01*
X63065500Y-59930481D01*
X63065500Y-59930480D01*
X63061820Y-59921596D01*
X63023558Y-59829222D01*
X60975324Y-57780989D01*
X60975322Y-57780988D01*
X60958670Y-57774090D01*
X60874066Y-57739046D01*
X59710024Y-57739046D01*
X59642985Y-57719361D01*
X59622343Y-57702727D01*
X57347807Y-55428191D01*
X57314322Y-55366868D01*
X57319306Y-55297176D01*
X57361178Y-55241243D01*
X57426642Y-55216826D01*
X57451673Y-55217570D01*
X57456140Y-55218159D01*
X57509999Y-55225250D01*
X57510000Y-55225250D01*
X57510001Y-55225250D01*
X57563860Y-55218159D01*
X57595738Y-55213962D01*
X57664773Y-55224727D01*
G37*
G04 #@! TD.AperFunction*
G04 #@! TA.AperFunction,Conductor*
G36*
X61155703Y-54268190D02*
G01*
X61189060Y-54314449D01*
X61202335Y-54346498D01*
X61290575Y-54461494D01*
X61405571Y-54549734D01*
X61405572Y-54549734D01*
X61405573Y-54549735D01*
X61446179Y-54566554D01*
X61539487Y-54605203D01*
X61666476Y-54621921D01*
X61683195Y-54624123D01*
X61683196Y-54624123D01*
X61683197Y-54624123D01*
X61698173Y-54622151D01*
X61826905Y-54605203D01*
X61960821Y-54549734D01*
X62075817Y-54461494D01*
X62128463Y-54392884D01*
X62184889Y-54351684D01*
X62226837Y-54344373D01*
X62705238Y-54344373D01*
X62772277Y-54364058D01*
X62792918Y-54380691D01*
X63082225Y-54669999D01*
X63365784Y-54953558D01*
X63365786Y-54953560D01*
X63432728Y-54981287D01*
X63467042Y-54995500D01*
X70131972Y-54995500D01*
X70199011Y-55015185D01*
X70244766Y-55067989D01*
X70254710Y-55137147D01*
X70246534Y-55166948D01*
X70240479Y-55181568D01*
X70213670Y-55246290D01*
X70213670Y-55246291D01*
X70200280Y-55348000D01*
X70194750Y-55390000D01*
X70212177Y-55522372D01*
X70213670Y-55533708D01*
X70213671Y-55533712D01*
X70269137Y-55667622D01*
X70269138Y-55667624D01*
X70269139Y-55667625D01*
X70357379Y-55782621D01*
X70472375Y-55870861D01*
X70472376Y-55870861D01*
X70472377Y-55870862D01*
X70509610Y-55886284D01*
X70606291Y-55926330D01*
X70733280Y-55943048D01*
X70749999Y-55945250D01*
X70750000Y-55945250D01*
X70750001Y-55945250D01*
X70764977Y-55943278D01*
X70893709Y-55926330D01*
X71027625Y-55870861D01*
X71142621Y-55782621D01*
X71230861Y-55667625D01*
X71286330Y-55533709D01*
X71305250Y-55390000D01*
X71286330Y-55246291D01*
X71253466Y-55166951D01*
X71245998Y-55097483D01*
X71277273Y-55035004D01*
X71337362Y-54999352D01*
X71368028Y-54995500D01*
X72304523Y-54995500D01*
X72371562Y-55015185D01*
X72392204Y-55031819D01*
X75012909Y-57652524D01*
X75090408Y-57730023D01*
X75191666Y-57771966D01*
X75286359Y-57771966D01*
X75353398Y-57791651D01*
X75384731Y-57820475D01*
X75437379Y-57889087D01*
X75552375Y-57977327D01*
X75552376Y-57977327D01*
X75552377Y-57977328D01*
X75597013Y-57995816D01*
X75686291Y-58032796D01*
X75813280Y-58049514D01*
X75829999Y-58051716D01*
X75830000Y-58051716D01*
X75958119Y-58034848D01*
X76027151Y-58045613D01*
X76079407Y-58091993D01*
X76098293Y-58159261D01*
X76077813Y-58226062D01*
X76061983Y-58245468D01*
X75719272Y-58588181D01*
X75657949Y-58621666D01*
X75631591Y-58624500D01*
X73284285Y-58624500D01*
X73217246Y-58604815D01*
X73208801Y-58598877D01*
X73202629Y-58594141D01*
X73202623Y-58594138D01*
X73068712Y-58538671D01*
X73068710Y-58538670D01*
X73068709Y-58538670D01*
X72996854Y-58529210D01*
X72925001Y-58519750D01*
X72924999Y-58519750D01*
X72781291Y-58538670D01*
X72781287Y-58538671D01*
X72647377Y-58594137D01*
X72532379Y-58682379D01*
X72444137Y-58797377D01*
X72388671Y-58931287D01*
X72388670Y-58931291D01*
X72369750Y-59074999D01*
X72369750Y-59075000D01*
X72388670Y-59218708D01*
X72388671Y-59218712D01*
X72444137Y-59352622D01*
X72444138Y-59352624D01*
X72444139Y-59352625D01*
X72532379Y-59467621D01*
X72576481Y-59501462D01*
X72617682Y-59557888D01*
X72621837Y-59627634D01*
X72587624Y-59688555D01*
X72525907Y-59721307D01*
X72500993Y-59723836D01*
X68627491Y-59723836D01*
X68560452Y-59704151D01*
X68514697Y-59651347D01*
X68504753Y-59582189D01*
X68533778Y-59518633D01*
X68551998Y-59501465D01*
X68602621Y-59462621D01*
X68690861Y-59347625D01*
X68746330Y-59213709D01*
X68765250Y-59070000D01*
X68746330Y-58926291D01*
X68690861Y-58792375D01*
X68602621Y-58677379D01*
X68487625Y-58589139D01*
X68487624Y-58589138D01*
X68487622Y-58589137D01*
X68353712Y-58533671D01*
X68353710Y-58533670D01*
X68353709Y-58533670D01*
X68271395Y-58522833D01*
X68210001Y-58514750D01*
X68209999Y-58514750D01*
X68066291Y-58533670D01*
X68066287Y-58533671D01*
X67932377Y-58589137D01*
X67889985Y-58621666D01*
X67817379Y-58677379D01*
X67729139Y-58792375D01*
X67729138Y-58792377D01*
X67724192Y-58798823D01*
X67721910Y-58797072D01*
X67681402Y-58835708D01*
X67624567Y-58849500D01*
X64260478Y-58849500D01*
X64193439Y-58829815D01*
X64172797Y-58813181D01*
X62479616Y-57120000D01*
X70264750Y-57120000D01*
X70282427Y-57254271D01*
X70283670Y-57263708D01*
X70283671Y-57263712D01*
X70339137Y-57397622D01*
X70339138Y-57397624D01*
X70339139Y-57397625D01*
X70427379Y-57512621D01*
X70542375Y-57600861D01*
X70676291Y-57656330D01*
X70803280Y-57673048D01*
X70819999Y-57675250D01*
X70820000Y-57675250D01*
X70820001Y-57675250D01*
X70834977Y-57673278D01*
X70963709Y-57656330D01*
X71097625Y-57600861D01*
X71212621Y-57512621D01*
X71300861Y-57397625D01*
X71356330Y-57263709D01*
X71375250Y-57120000D01*
X71356330Y-56976291D01*
X71300861Y-56842375D01*
X71212621Y-56727379D01*
X71097625Y-56639139D01*
X71097624Y-56639138D01*
X71097622Y-56639137D01*
X70963712Y-56583671D01*
X70963710Y-56583670D01*
X70963709Y-56583670D01*
X70891854Y-56574210D01*
X70820001Y-56564750D01*
X70819999Y-56564750D01*
X70676291Y-56583670D01*
X70676287Y-56583671D01*
X70542377Y-56639137D01*
X70427379Y-56727379D01*
X70339137Y-56842377D01*
X70283671Y-56976287D01*
X70283670Y-56976291D01*
X70266085Y-57109863D01*
X70264750Y-57120000D01*
X62479616Y-57120000D01*
X60986819Y-55627203D01*
X60953334Y-55565880D01*
X60950500Y-55539522D01*
X60950500Y-54361903D01*
X60970185Y-54294864D01*
X61022989Y-54249109D01*
X61092147Y-54239165D01*
X61155703Y-54268190D01*
G37*
G04 #@! TD.AperFunction*
G04 #@! TA.AperFunction,Conductor*
G36*
X87969336Y-48628185D02*
G01*
X87989977Y-48644818D01*
X89218715Y-49873557D01*
X89218720Y-49873559D01*
X89245155Y-49884509D01*
X89245156Y-49884509D01*
X89319974Y-49915500D01*
X90216359Y-49915500D01*
X90283398Y-49935185D01*
X90314731Y-49964009D01*
X90367379Y-50032621D01*
X90482375Y-50120861D01*
X90616291Y-50176330D01*
X90735398Y-50192011D01*
X90759999Y-50195250D01*
X90760000Y-50195250D01*
X90760001Y-50195250D01*
X90784602Y-50192011D01*
X90903709Y-50176330D01*
X90965048Y-50150923D01*
X91034517Y-50143454D01*
X91096996Y-50174729D01*
X91132648Y-50234819D01*
X91136500Y-50265484D01*
X91136500Y-52612522D01*
X91116815Y-52679561D01*
X91100181Y-52700203D01*
X89969604Y-53830779D01*
X89908281Y-53864264D01*
X89865738Y-53866037D01*
X89780002Y-53854750D01*
X89779999Y-53854750D01*
X89636291Y-53873670D01*
X89636287Y-53873671D01*
X89502377Y-53929137D01*
X89387379Y-54017379D01*
X89299137Y-54132377D01*
X89243671Y-54266287D01*
X89243670Y-54266291D01*
X89228609Y-54380692D01*
X89224750Y-54410000D01*
X89238434Y-54513942D01*
X89243670Y-54553708D01*
X89243671Y-54553712D01*
X89299137Y-54687622D01*
X89299138Y-54687624D01*
X89299139Y-54687625D01*
X89387379Y-54802621D01*
X89502375Y-54890861D01*
X89636291Y-54946330D01*
X89763280Y-54963048D01*
X89779999Y-54965250D01*
X89780000Y-54965250D01*
X89780001Y-54965250D01*
X89794977Y-54963278D01*
X89923709Y-54946330D01*
X90057625Y-54890861D01*
X90172621Y-54802621D01*
X90260861Y-54687625D01*
X90316330Y-54553709D01*
X90335250Y-54410000D01*
X90331391Y-54380692D01*
X90323962Y-54324260D01*
X90334727Y-54255224D01*
X90359217Y-54220396D01*
X91434740Y-53144873D01*
X91496061Y-53111390D01*
X91565753Y-53116374D01*
X91610100Y-53144875D01*
X91990181Y-53524955D01*
X92023666Y-53586278D01*
X92026500Y-53612636D01*
X92026500Y-54499515D01*
X92006815Y-54566554D01*
X91954011Y-54612309D01*
X91884853Y-54622253D01*
X91855049Y-54614077D01*
X91822034Y-54600402D01*
X91793709Y-54588670D01*
X91721854Y-54579210D01*
X91650001Y-54569750D01*
X91649999Y-54569750D01*
X91506291Y-54588670D01*
X91506287Y-54588671D01*
X91372377Y-54644137D01*
X91257379Y-54732379D01*
X91169137Y-54847377D01*
X91113671Y-54981287D01*
X91113670Y-54981291D01*
X91096770Y-55109660D01*
X91094750Y-55125000D01*
X91110718Y-55246290D01*
X91113670Y-55268708D01*
X91113671Y-55268712D01*
X91152974Y-55363600D01*
X91160443Y-55433070D01*
X91129167Y-55495549D01*
X91069078Y-55531200D01*
X90999253Y-55528706D01*
X90981997Y-55520950D01*
X90977622Y-55519138D01*
X90920673Y-55495549D01*
X90843712Y-55463671D01*
X90843710Y-55463670D01*
X90843709Y-55463670D01*
X90771854Y-55454210D01*
X90700001Y-55444750D01*
X90699999Y-55444750D01*
X90556291Y-55463670D01*
X90556287Y-55463671D01*
X90422377Y-55519137D01*
X90324636Y-55594137D01*
X90307379Y-55607379D01*
X90254732Y-55675988D01*
X90198307Y-55717189D01*
X90156359Y-55724500D01*
X86895477Y-55724500D01*
X86828438Y-55704815D01*
X86807796Y-55688181D01*
X85099220Y-53979605D01*
X85065735Y-53918282D01*
X85063962Y-53875738D01*
X85064119Y-53874550D01*
X85075250Y-53790000D01*
X85056330Y-53646291D01*
X85000861Y-53512375D01*
X84912621Y-53397379D01*
X84797625Y-53309139D01*
X84797624Y-53309138D01*
X84797622Y-53309137D01*
X84663712Y-53253671D01*
X84663710Y-53253670D01*
X84663709Y-53253670D01*
X84591854Y-53244210D01*
X84520001Y-53234750D01*
X84519999Y-53234750D01*
X84376291Y-53253670D01*
X84307245Y-53282269D01*
X84237776Y-53289736D01*
X84175297Y-53258461D01*
X84158411Y-53230000D01*
X88104750Y-53230000D01*
X88111631Y-53282269D01*
X88123670Y-53373708D01*
X88123671Y-53373712D01*
X88179137Y-53507622D01*
X88179138Y-53507624D01*
X88179139Y-53507625D01*
X88267379Y-53622621D01*
X88382375Y-53710861D01*
X88516291Y-53766330D01*
X88643280Y-53783048D01*
X88659999Y-53785250D01*
X88660000Y-53785250D01*
X88660001Y-53785250D01*
X88674977Y-53783278D01*
X88803709Y-53766330D01*
X88937625Y-53710861D01*
X89052621Y-53622621D01*
X89140861Y-53507625D01*
X89196330Y-53373709D01*
X89215250Y-53230000D01*
X89196330Y-53086291D01*
X89151320Y-52977625D01*
X89140862Y-52952377D01*
X89140861Y-52952376D01*
X89140861Y-52952375D01*
X89052621Y-52837379D01*
X89052619Y-52837377D01*
X89052618Y-52837376D01*
X88984013Y-52784733D01*
X88942810Y-52728305D01*
X88935500Y-52686358D01*
X88935500Y-52361580D01*
X88955185Y-52294541D01*
X89007989Y-52248786D01*
X89075685Y-52238641D01*
X89091841Y-52240768D01*
X89114490Y-52243750D01*
X89114491Y-52243750D01*
X89114492Y-52243750D01*
X89137141Y-52240768D01*
X89258200Y-52224830D01*
X89392116Y-52169361D01*
X89507112Y-52081121D01*
X89595352Y-51966125D01*
X89650821Y-51832209D01*
X89669741Y-51688500D01*
X89669169Y-51684159D01*
X89660146Y-51615621D01*
X89650821Y-51544791D01*
X89596328Y-51413232D01*
X89595353Y-51410877D01*
X89595352Y-51410876D01*
X89595352Y-51410875D01*
X89507112Y-51295879D01*
X89392116Y-51207639D01*
X89392115Y-51207638D01*
X89392113Y-51207637D01*
X89258203Y-51152171D01*
X89258201Y-51152170D01*
X89258200Y-51152170D01*
X89186345Y-51142710D01*
X89114492Y-51133250D01*
X89114490Y-51133250D01*
X88970782Y-51152170D01*
X88970778Y-51152171D01*
X88836868Y-51207637D01*
X88721870Y-51295879D01*
X88633628Y-51410877D01*
X88578162Y-51544787D01*
X88578161Y-51544791D01*
X88559241Y-51688499D01*
X88559241Y-51688502D01*
X88570528Y-51774238D01*
X88559762Y-51843273D01*
X88535272Y-51878103D01*
X88503943Y-51909433D01*
X88426443Y-51986933D01*
X88384500Y-52088190D01*
X88384500Y-52686358D01*
X88364815Y-52753397D01*
X88335987Y-52784733D01*
X88267381Y-52837376D01*
X88179137Y-52952377D01*
X88123671Y-53086287D01*
X88123670Y-53086291D01*
X88104750Y-53230000D01*
X84158411Y-53230000D01*
X84139645Y-53198371D01*
X84135794Y-53167707D01*
X84135794Y-52436887D01*
X84155479Y-52369848D01*
X84184303Y-52338514D01*
X84252915Y-52285867D01*
X84341155Y-52170871D01*
X84396624Y-52036955D01*
X84415544Y-51893246D01*
X84415179Y-51890477D01*
X84407706Y-51833712D01*
X84396624Y-51749537D01*
X84347111Y-51630000D01*
X84341156Y-51615623D01*
X84341155Y-51615622D01*
X84341155Y-51615621D01*
X84252915Y-51500625D01*
X84137919Y-51412385D01*
X84137918Y-51412384D01*
X84137916Y-51412383D01*
X84004006Y-51356917D01*
X84004004Y-51356916D01*
X84004003Y-51356916D01*
X83932148Y-51347456D01*
X83860295Y-51337996D01*
X83860293Y-51337996D01*
X83716585Y-51356916D01*
X83716581Y-51356917D01*
X83582671Y-51412383D01*
X83467673Y-51500625D01*
X83379431Y-51615623D01*
X83323965Y-51749533D01*
X83323964Y-51749537D01*
X83305409Y-51890477D01*
X83305044Y-51893246D01*
X83314638Y-51966122D01*
X83323964Y-52036954D01*
X83323965Y-52036958D01*
X83379431Y-52170868D01*
X83379432Y-52170870D01*
X83379433Y-52170871D01*
X83467673Y-52285867D01*
X83536282Y-52338513D01*
X83577483Y-52394939D01*
X83584794Y-52436887D01*
X83584794Y-53324228D01*
X83565109Y-53391267D01*
X83548470Y-53411914D01*
X83539599Y-53420784D01*
X83478274Y-53454266D01*
X83435738Y-53456037D01*
X83350002Y-53444750D01*
X83349999Y-53444750D01*
X83206291Y-53463670D01*
X83206287Y-53463671D01*
X83072377Y-53519137D01*
X82957379Y-53607379D01*
X82869137Y-53722377D01*
X82813671Y-53856287D01*
X82813670Y-53856291D01*
X82796010Y-53990433D01*
X82794750Y-54000000D01*
X82812410Y-54134142D01*
X82813670Y-54143708D01*
X82813671Y-54143712D01*
X82869137Y-54277622D01*
X82869138Y-54277623D01*
X82869139Y-54277625D01*
X82957379Y-54392621D01*
X83072375Y-54480861D01*
X83206291Y-54536330D01*
X83333280Y-54553048D01*
X83349999Y-54555250D01*
X83350000Y-54555250D01*
X83350001Y-54555250D01*
X83364977Y-54553278D01*
X83493709Y-54536330D01*
X83627625Y-54480861D01*
X83742621Y-54392621D01*
X83830861Y-54277625D01*
X83878177Y-54163390D01*
X83922016Y-54108990D01*
X83988310Y-54086924D01*
X84056009Y-54104202D01*
X84091112Y-54135358D01*
X84127376Y-54182618D01*
X84127377Y-54182619D01*
X84127379Y-54182621D01*
X84242375Y-54270861D01*
X84242376Y-54270861D01*
X84242377Y-54270862D01*
X84287013Y-54289350D01*
X84376291Y-54326330D01*
X84503280Y-54343048D01*
X84519999Y-54345250D01*
X84520000Y-54345250D01*
X84520001Y-54345250D01*
X84557592Y-54340300D01*
X84605738Y-54333962D01*
X84674773Y-54344727D01*
X84709605Y-54369220D01*
X86496443Y-56156058D01*
X86573942Y-56233557D01*
X86675200Y-56275500D01*
X90156359Y-56275500D01*
X90223398Y-56295185D01*
X90254731Y-56324009D01*
X90307379Y-56392621D01*
X90422375Y-56480861D01*
X90556291Y-56536330D01*
X90683280Y-56553048D01*
X90699999Y-56555250D01*
X90700000Y-56555250D01*
X90700001Y-56555250D01*
X90714977Y-56553278D01*
X90843709Y-56536330D01*
X90977625Y-56480861D01*
X91092621Y-56392621D01*
X91152126Y-56315071D01*
X91208552Y-56273872D01*
X91278298Y-56269717D01*
X91339219Y-56303929D01*
X91371971Y-56365647D01*
X91374500Y-56390561D01*
X91374500Y-57166590D01*
X91354815Y-57233629D01*
X91338181Y-57254271D01*
X88904936Y-59687517D01*
X88843613Y-59721002D01*
X88817255Y-59723836D01*
X82268730Y-59723836D01*
X82201691Y-59704151D01*
X82155936Y-59651347D01*
X82145992Y-59582189D01*
X82170355Y-59524349D01*
X82186190Y-59503712D01*
X82190861Y-59497625D01*
X82246330Y-59363709D01*
X82265250Y-59220000D01*
X82265080Y-59218712D01*
X82259015Y-59172640D01*
X82246330Y-59076291D01*
X82190861Y-58942375D01*
X82102621Y-58827379D01*
X81987625Y-58739139D01*
X81987624Y-58739138D01*
X81987622Y-58739137D01*
X81853712Y-58683671D01*
X81853710Y-58683670D01*
X81853709Y-58683670D01*
X81781854Y-58674210D01*
X81710001Y-58664750D01*
X81709999Y-58664750D01*
X81566291Y-58683670D01*
X81566287Y-58683671D01*
X81432377Y-58739137D01*
X81317379Y-58827379D01*
X81229137Y-58942377D01*
X81173671Y-59076287D01*
X81173670Y-59076291D01*
X81154920Y-59218712D01*
X81154750Y-59220000D01*
X81172991Y-59358555D01*
X81173670Y-59363708D01*
X81173671Y-59363712D01*
X81229138Y-59497623D01*
X81229139Y-59497626D01*
X81249645Y-59524349D01*
X81274840Y-59589518D01*
X81260802Y-59657963D01*
X81211988Y-59707953D01*
X81151270Y-59723836D01*
X73349007Y-59723836D01*
X73281968Y-59704151D01*
X73236213Y-59651347D01*
X73226269Y-59582189D01*
X73255294Y-59518633D01*
X73273513Y-59501465D01*
X73317621Y-59467621D01*
X73405861Y-59352625D01*
X73428338Y-59298361D01*
X73447521Y-59252048D01*
X73491361Y-59197644D01*
X73557655Y-59175579D01*
X73562082Y-59175500D01*
X75851867Y-59175500D01*
X75851868Y-59175500D01*
X75953126Y-59133557D01*
X76030625Y-59056058D01*
X76030624Y-59056058D01*
X76089193Y-58997489D01*
X76979558Y-58107126D01*
X76979558Y-58107124D01*
X76979560Y-58107123D01*
X77002509Y-58051716D01*
X77021500Y-58005868D01*
X77021500Y-57896268D01*
X77021500Y-57075478D01*
X77041185Y-57008439D01*
X77093989Y-56962684D01*
X77163147Y-56952740D01*
X77226703Y-56981765D01*
X77233181Y-56987797D01*
X77618944Y-57373560D01*
X77677038Y-57397622D01*
X77720200Y-57415500D01*
X77720202Y-57415500D01*
X79536867Y-57415500D01*
X79536868Y-57415500D01*
X79638126Y-57373557D01*
X79715625Y-57296058D01*
X79715624Y-57296058D01*
X79774193Y-57237489D01*
X81625558Y-55386126D01*
X81625558Y-55386124D01*
X81625560Y-55386123D01*
X81647497Y-55333159D01*
X81667500Y-55284868D01*
X81667500Y-55175268D01*
X81667500Y-52735132D01*
X81634104Y-52654508D01*
X81625557Y-52633873D01*
X80826819Y-51835135D01*
X80793334Y-51773812D01*
X80790500Y-51747454D01*
X80790500Y-50964241D01*
X80810185Y-50897202D01*
X80862989Y-50851447D01*
X80932147Y-50841503D01*
X80961947Y-50849678D01*
X81026291Y-50876330D01*
X81153280Y-50893048D01*
X81169999Y-50895250D01*
X81170000Y-50895250D01*
X81170001Y-50895250D01*
X81184977Y-50893278D01*
X81313709Y-50876330D01*
X81447625Y-50820861D01*
X81562621Y-50732621D01*
X81625335Y-50650889D01*
X81676254Y-50611818D01*
X81768626Y-50573557D01*
X81846125Y-50496058D01*
X81846124Y-50496058D01*
X83697365Y-48644819D01*
X83758688Y-48611334D01*
X83785046Y-48608500D01*
X87902297Y-48608500D01*
X87969336Y-48628185D01*
G37*
G04 #@! TD.AperFunction*
G04 #@! TA.AperFunction,Conductor*
G36*
X56743703Y-55603764D02*
G01*
X56750181Y-55609796D01*
X58038882Y-56898498D01*
X58072367Y-56959821D01*
X58067383Y-57029513D01*
X58025511Y-57085446D01*
X57960047Y-57109863D01*
X57891774Y-57095011D01*
X57875714Y-57084554D01*
X57855625Y-57069139D01*
X57855623Y-57069138D01*
X57721712Y-57013671D01*
X57721710Y-57013670D01*
X57721709Y-57013670D01*
X57602686Y-56998000D01*
X57578001Y-56994750D01*
X57577999Y-56994750D01*
X57434291Y-57013670D01*
X57434287Y-57013671D01*
X57300377Y-57069137D01*
X57185379Y-57157379D01*
X57097138Y-57272376D01*
X57051961Y-57381444D01*
X57008120Y-57435847D01*
X56941826Y-57457912D01*
X56874126Y-57440633D01*
X56849719Y-57421672D01*
X56574819Y-57146772D01*
X56541334Y-57085449D01*
X56538500Y-57059091D01*
X56538500Y-55697477D01*
X56558185Y-55630438D01*
X56610989Y-55584683D01*
X56680147Y-55574739D01*
X56743703Y-55603764D01*
G37*
G04 #@! TD.AperFunction*
G04 #@! TA.AperFunction,Conductor*
G36*
X78172561Y-51455185D02*
G01*
X78218316Y-51507989D01*
X78228260Y-51577147D01*
X78199235Y-51640703D01*
X78193203Y-51647181D01*
X76589942Y-53250443D01*
X76512444Y-53327940D01*
X76512443Y-53327941D01*
X76512443Y-53327942D01*
X76508575Y-53337281D01*
X76470500Y-53429199D01*
X76470500Y-57061595D01*
X76450815Y-57128634D01*
X76398011Y-57174389D01*
X76328853Y-57184333D01*
X76265297Y-57155308D01*
X76248125Y-57137082D01*
X76230096Y-57113587D01*
X76222621Y-57103845D01*
X76107625Y-57015605D01*
X76107624Y-57015604D01*
X76107622Y-57015603D01*
X75973712Y-56960137D01*
X75973710Y-56960136D01*
X75973709Y-56960136D01*
X75901854Y-56950676D01*
X75830001Y-56941216D01*
X75829999Y-56941216D01*
X75686291Y-56960136D01*
X75686287Y-56960137D01*
X75552377Y-57015603D01*
X75437372Y-57103850D01*
X75431628Y-57109595D01*
X75430112Y-57108079D01*
X75382799Y-57142607D01*
X75313051Y-57146742D01*
X75253202Y-57113587D01*
X72969796Y-54830181D01*
X72936311Y-54768858D01*
X72941295Y-54699166D01*
X72983167Y-54643233D01*
X73048631Y-54618816D01*
X73057477Y-54618500D01*
X75028298Y-54618500D01*
X75028300Y-54618500D01*
X75028301Y-54618499D01*
X75040277Y-54616117D01*
X75040721Y-54618353D01*
X75088036Y-54613259D01*
X75088233Y-54611769D01*
X75096290Y-54612829D01*
X75096291Y-54612830D01*
X75161990Y-54621479D01*
X75239999Y-54631750D01*
X75240000Y-54631750D01*
X75240001Y-54631750D01*
X75254977Y-54629778D01*
X75383709Y-54612830D01*
X75517625Y-54557361D01*
X75632621Y-54469121D01*
X75720861Y-54354125D01*
X75776330Y-54220209D01*
X75795250Y-54076500D01*
X75776330Y-53932791D01*
X75720861Y-53798875D01*
X75632621Y-53683879D01*
X75517625Y-53595639D01*
X75517624Y-53595638D01*
X75517622Y-53595637D01*
X75383712Y-53540171D01*
X75383710Y-53540170D01*
X75383709Y-53540170D01*
X75268142Y-53524955D01*
X75240001Y-53521250D01*
X75239999Y-53521250D01*
X75096291Y-53540170D01*
X75096287Y-53540171D01*
X74962377Y-53595637D01*
X74847379Y-53683879D01*
X74759137Y-53798877D01*
X74703671Y-53932787D01*
X74703670Y-53932791D01*
X74700129Y-53959687D01*
X74671862Y-54023583D01*
X74613537Y-54062053D01*
X74577190Y-54067500D01*
X72956478Y-54067500D01*
X72889439Y-54047815D01*
X72843684Y-53995011D01*
X72833740Y-53925853D01*
X72862765Y-53862297D01*
X72868797Y-53855819D01*
X72958932Y-53765684D01*
X73068558Y-53656058D01*
X73068558Y-53656056D01*
X73068560Y-53656055D01*
X73089529Y-53605429D01*
X73110500Y-53554800D01*
X73110500Y-53445200D01*
X73110500Y-52432529D01*
X73130185Y-52365490D01*
X73182989Y-52319735D01*
X73252147Y-52309791D01*
X73315703Y-52338816D01*
X73332870Y-52357035D01*
X73402379Y-52447621D01*
X73517375Y-52535861D01*
X73651291Y-52591330D01*
X73778280Y-52608048D01*
X73794999Y-52610250D01*
X73795000Y-52610250D01*
X73795001Y-52610250D01*
X73809977Y-52608278D01*
X73938709Y-52591330D01*
X74072625Y-52535861D01*
X74187621Y-52447621D01*
X74275861Y-52332625D01*
X74331330Y-52198709D01*
X74350250Y-52055000D01*
X74331330Y-51911291D01*
X74275861Y-51777375D01*
X74187621Y-51662379D01*
X74181751Y-51657874D01*
X74140549Y-51601449D01*
X74136394Y-51531703D01*
X74170606Y-51470782D01*
X74232323Y-51438029D01*
X74257238Y-51435500D01*
X78105522Y-51435500D01*
X78172561Y-51455185D01*
G37*
G04 #@! TD.AperFunction*
G04 #@! TA.AperFunction,Conductor*
G36*
X80241703Y-53319055D02*
G01*
X80258876Y-53337281D01*
X80259137Y-53337622D01*
X80259139Y-53337625D01*
X80347379Y-53452621D01*
X80462375Y-53540861D01*
X80596291Y-53596330D01*
X80715398Y-53612011D01*
X80739999Y-53615250D01*
X80740000Y-53615250D01*
X80740001Y-53615250D01*
X80764602Y-53612011D01*
X80883709Y-53596330D01*
X80945048Y-53570923D01*
X81014517Y-53563454D01*
X81076996Y-53594729D01*
X81112648Y-53654819D01*
X81116500Y-53685484D01*
X81116500Y-55064590D01*
X81096815Y-55131629D01*
X81080181Y-55152271D01*
X79962454Y-56269997D01*
X79901131Y-56303482D01*
X79831439Y-56298498D01*
X79775506Y-56256626D01*
X79751089Y-56191162D01*
X79751833Y-56166140D01*
X79757250Y-56125000D01*
X79738330Y-55981291D01*
X79698977Y-55886283D01*
X79682862Y-55847377D01*
X79682861Y-55847376D01*
X79682861Y-55847375D01*
X79594621Y-55732379D01*
X79594618Y-55732376D01*
X79594616Y-55732374D01*
X79591109Y-55728867D01*
X79557624Y-55667544D01*
X79562608Y-55597852D01*
X79591106Y-55553508D01*
X79994557Y-55150059D01*
X80002897Y-55129923D01*
X80011291Y-55109660D01*
X80030775Y-55062621D01*
X80036500Y-55048800D01*
X80036500Y-53412768D01*
X80056185Y-53345729D01*
X80108989Y-53299974D01*
X80178147Y-53290030D01*
X80241703Y-53319055D01*
G37*
G04 #@! TD.AperFunction*
G04 #@! TA.AperFunction,Conductor*
G36*
X65508478Y-43298185D02*
G01*
X65554233Y-43350989D01*
X65564177Y-43420147D01*
X65556000Y-43449952D01*
X65503671Y-43576287D01*
X65503670Y-43576291D01*
X65495283Y-43639999D01*
X65484750Y-43720000D01*
X65493137Y-43783708D01*
X65503670Y-43863708D01*
X65503671Y-43863712D01*
X65546713Y-43967625D01*
X65559139Y-43997625D01*
X65600645Y-44051717D01*
X65605464Y-44057996D01*
X65630659Y-44123165D01*
X65616621Y-44191610D01*
X65605465Y-44208969D01*
X65549139Y-44282374D01*
X65549138Y-44282376D01*
X65493671Y-44416287D01*
X65493670Y-44416291D01*
X65480706Y-44514764D01*
X65474750Y-44560000D01*
X65488705Y-44666000D01*
X65493670Y-44703708D01*
X65493671Y-44703712D01*
X65549137Y-44837622D01*
X65549138Y-44837624D01*
X65549139Y-44837625D01*
X65637379Y-44952621D01*
X65752375Y-45040861D01*
X65752376Y-45040861D01*
X65752377Y-45040862D01*
X65788589Y-45055861D01*
X65886291Y-45096330D01*
X66010981Y-45112746D01*
X66029999Y-45115250D01*
X66030000Y-45115250D01*
X66030001Y-45115250D01*
X66049019Y-45112746D01*
X66173709Y-45096330D01*
X66307625Y-45040861D01*
X66362554Y-44998711D01*
X66427723Y-44973517D01*
X66496168Y-44987555D01*
X66513528Y-44998712D01*
X66568455Y-45040860D01*
X66568456Y-45040860D01*
X66568457Y-45040861D01*
X66702373Y-45096330D01*
X66827063Y-45112746D01*
X66846081Y-45115250D01*
X66846082Y-45115250D01*
X66846083Y-45115250D01*
X66865101Y-45112746D01*
X66989791Y-45096330D01*
X67123707Y-45040861D01*
X67238703Y-44952621D01*
X67326943Y-44837625D01*
X67382412Y-44703709D01*
X67401332Y-44560000D01*
X67382412Y-44416291D01*
X67326943Y-44282375D01*
X67280616Y-44222001D01*
X67255423Y-44156833D01*
X67269461Y-44088389D01*
X67280612Y-44071035D01*
X67336943Y-43997625D01*
X67392412Y-43863709D01*
X67411332Y-43720000D01*
X67392412Y-43576291D01*
X67371700Y-43526287D01*
X67340082Y-43449952D01*
X67332613Y-43380482D01*
X67363889Y-43318003D01*
X67423978Y-43282352D01*
X67454643Y-43278500D01*
X70182522Y-43278500D01*
X70249561Y-43298185D01*
X70295316Y-43350989D01*
X70305260Y-43420147D01*
X70276235Y-43483703D01*
X70270203Y-43490181D01*
X64203194Y-49557190D01*
X64141871Y-49590675D01*
X64072179Y-49585691D01*
X64016246Y-49543819D01*
X63991829Y-49478355D01*
X63992573Y-49453327D01*
X63995250Y-49433000D01*
X63976330Y-49289291D01*
X63920861Y-49155375D01*
X63832621Y-49040379D01*
X63717625Y-48952139D01*
X63717624Y-48952138D01*
X63717622Y-48952137D01*
X63583712Y-48896671D01*
X63583710Y-48896670D01*
X63583709Y-48896670D01*
X63511854Y-48887210D01*
X63440001Y-48877750D01*
X63439999Y-48877750D01*
X63296291Y-48896670D01*
X63296287Y-48896671D01*
X63162377Y-48952137D01*
X63047376Y-49040381D01*
X62994080Y-49109838D01*
X62937652Y-49151041D01*
X62919899Y-49155968D01*
X62912202Y-49157499D01*
X62912200Y-49157500D01*
X62844605Y-49185499D01*
X62810940Y-49199443D01*
X60518942Y-51491443D01*
X60441444Y-51568940D01*
X60399500Y-51670199D01*
X60399500Y-54985299D01*
X60379815Y-55052338D01*
X60327011Y-55098093D01*
X60257853Y-55108037D01*
X60228049Y-55099861D01*
X60195034Y-55086186D01*
X60166709Y-55074454D01*
X60076830Y-55062621D01*
X60023001Y-55055534D01*
X60022998Y-55055534D01*
X59985832Y-55060427D01*
X59916797Y-55049661D01*
X59864541Y-55003281D01*
X59845656Y-54936012D01*
X59866137Y-54869212D01*
X59894159Y-54839113D01*
X59902621Y-54832621D01*
X59990861Y-54717625D01*
X60046330Y-54583709D01*
X60065250Y-54440000D01*
X60046330Y-54296291D01*
X59990861Y-54162375D01*
X59902621Y-54047379D01*
X59787625Y-53959139D01*
X59787624Y-53959138D01*
X59787622Y-53959137D01*
X59653712Y-53903671D01*
X59653710Y-53903670D01*
X59653709Y-53903670D01*
X59572641Y-53892997D01*
X59510001Y-53884750D01*
X59509999Y-53884750D01*
X59366291Y-53903670D01*
X59366287Y-53903671D01*
X59232377Y-53959137D01*
X59117379Y-54047379D01*
X59029137Y-54162377D01*
X58973671Y-54296287D01*
X58973670Y-54296291D01*
X58964069Y-54369220D01*
X58954750Y-54440000D01*
X58971411Y-54566554D01*
X58973670Y-54583708D01*
X58973671Y-54583712D01*
X59029137Y-54717622D01*
X59029138Y-54717624D01*
X59029139Y-54717625D01*
X59117379Y-54832621D01*
X59232375Y-54920861D01*
X59366291Y-54976330D01*
X59510000Y-54995250D01*
X59547168Y-54990356D01*
X59616199Y-55001120D01*
X59668456Y-55047499D01*
X59687343Y-55114767D01*
X59666864Y-55181568D01*
X59638844Y-55211666D01*
X59630382Y-55218159D01*
X59630379Y-55218163D01*
X59577732Y-55286772D01*
X59521307Y-55327973D01*
X59479359Y-55335284D01*
X58616262Y-55335284D01*
X58549223Y-55315599D01*
X58528581Y-55298965D01*
X58089220Y-54859605D01*
X58055735Y-54798282D01*
X58053962Y-54755738D01*
X58065250Y-54670000D01*
X58065250Y-54669999D01*
X58058511Y-54618816D01*
X58046330Y-54526291D01*
X58009114Y-54436443D01*
X57990862Y-54392377D01*
X57990861Y-54392376D01*
X57990861Y-54392375D01*
X57902621Y-54277379D01*
X57787625Y-54189139D01*
X57787624Y-54189138D01*
X57787622Y-54189137D01*
X57653712Y-54133671D01*
X57653710Y-54133670D01*
X57653709Y-54133670D01*
X57581854Y-54124210D01*
X57510001Y-54114750D01*
X57509999Y-54114750D01*
X57366291Y-54133670D01*
X57366287Y-54133671D01*
X57232377Y-54189137D01*
X57191885Y-54220208D01*
X57117379Y-54277379D01*
X57117378Y-54277380D01*
X57114987Y-54279215D01*
X57049817Y-54304409D01*
X56981373Y-54290371D01*
X56931383Y-54241557D01*
X56915500Y-54180839D01*
X56915500Y-51665477D01*
X56935185Y-51598438D01*
X56951819Y-51577796D01*
X65214797Y-43314819D01*
X65276120Y-43281334D01*
X65302478Y-43278500D01*
X65441439Y-43278500D01*
X65508478Y-43298185D01*
G37*
G04 #@! TD.AperFunction*
G04 #@! TA.AperFunction,Conductor*
G36*
X73257561Y-50835185D02*
G01*
X73303316Y-50887989D01*
X73313260Y-50957147D01*
X73284235Y-51020703D01*
X73278203Y-51027181D01*
X72678942Y-51626443D01*
X72601444Y-51703940D01*
X72601443Y-51703941D01*
X72601443Y-51703942D01*
X72591138Y-51728820D01*
X72559500Y-51805199D01*
X72559500Y-53334522D01*
X72539815Y-53401561D01*
X72523181Y-53422203D01*
X72297204Y-53648181D01*
X72235881Y-53681666D01*
X72209523Y-53684500D01*
X65781676Y-53684500D01*
X65714637Y-53664815D01*
X65668882Y-53612011D01*
X65658938Y-53542853D01*
X65687963Y-53479297D01*
X65734224Y-53445939D01*
X65748743Y-53439924D01*
X65770625Y-53430861D01*
X65885621Y-53342621D01*
X65973861Y-53227625D01*
X66029330Y-53093709D01*
X66048250Y-52950000D01*
X66029330Y-52806291D01*
X65985388Y-52700203D01*
X65985304Y-52700000D01*
X66344750Y-52700000D01*
X66348476Y-52728305D01*
X66363670Y-52843708D01*
X66363671Y-52843712D01*
X66419137Y-52977622D01*
X66419138Y-52977624D01*
X66419139Y-52977625D01*
X66507379Y-53092621D01*
X66622375Y-53180861D01*
X66622376Y-53180861D01*
X66622377Y-53180862D01*
X66667013Y-53199350D01*
X66756291Y-53236330D01*
X66883280Y-53253048D01*
X66899999Y-53255250D01*
X66900000Y-53255250D01*
X66900001Y-53255250D01*
X66914977Y-53253278D01*
X67043709Y-53236330D01*
X67177625Y-53180861D01*
X67292621Y-53092621D01*
X67345267Y-53024011D01*
X67401693Y-52982811D01*
X67443641Y-52975500D01*
X70474799Y-52975500D01*
X70474800Y-52975500D01*
X70576058Y-52933557D01*
X70653557Y-52856058D01*
X70653556Y-52856058D01*
X70993558Y-52516058D01*
X71035500Y-52414800D01*
X71035500Y-52305200D01*
X71035500Y-52173641D01*
X71055185Y-52106602D01*
X71084009Y-52075268D01*
X71152621Y-52022621D01*
X71240861Y-51907625D01*
X71296330Y-51773709D01*
X71315250Y-51630000D01*
X71296330Y-51486291D01*
X71240861Y-51352375D01*
X71152621Y-51237379D01*
X71037625Y-51149139D01*
X71037624Y-51149138D01*
X71037622Y-51149137D01*
X70903712Y-51093671D01*
X70903710Y-51093670D01*
X70903709Y-51093670D01*
X70831854Y-51084210D01*
X70760001Y-51074750D01*
X70759999Y-51074750D01*
X70616291Y-51093670D01*
X70616287Y-51093671D01*
X70482377Y-51149137D01*
X70367379Y-51237379D01*
X70279137Y-51352377D01*
X70223671Y-51486287D01*
X70223670Y-51486291D01*
X70215832Y-51545829D01*
X70204750Y-51630000D01*
X70223093Y-51769330D01*
X70223670Y-51773708D01*
X70223671Y-51773712D01*
X70279137Y-51907622D01*
X70279138Y-51907624D01*
X70279139Y-51907625D01*
X70367379Y-52022621D01*
X70435988Y-52075267D01*
X70477189Y-52131693D01*
X70484500Y-52173641D01*
X70484500Y-52194522D01*
X70464815Y-52261561D01*
X70448185Y-52282198D01*
X70342202Y-52388182D01*
X70280882Y-52421666D01*
X70254523Y-52424500D01*
X67443641Y-52424500D01*
X67376602Y-52404815D01*
X67345268Y-52375990D01*
X67292621Y-52307379D01*
X67177625Y-52219139D01*
X67177624Y-52219138D01*
X67177622Y-52219137D01*
X67043712Y-52163671D01*
X67043710Y-52163670D01*
X67043709Y-52163670D01*
X66971854Y-52154210D01*
X66900001Y-52144750D01*
X66899999Y-52144750D01*
X66756291Y-52163670D01*
X66756287Y-52163671D01*
X66622377Y-52219137D01*
X66507379Y-52307379D01*
X66419137Y-52422377D01*
X66363671Y-52556287D01*
X66363670Y-52556291D01*
X66349505Y-52663886D01*
X66344750Y-52700000D01*
X65985304Y-52700000D01*
X65973862Y-52672377D01*
X65973861Y-52672376D01*
X65973861Y-52672375D01*
X65885621Y-52557379D01*
X65885619Y-52557377D01*
X65885618Y-52557376D01*
X65817013Y-52504733D01*
X65775810Y-52448305D01*
X65768500Y-52406358D01*
X65768500Y-51693567D01*
X65788185Y-51626528D01*
X65804819Y-51605886D01*
X66558887Y-50851819D01*
X66620210Y-50818334D01*
X66646568Y-50815500D01*
X73190522Y-50815500D01*
X73257561Y-50835185D01*
G37*
G04 #@! TD.AperFunction*
G04 #@! TA.AperFunction,Conductor*
G36*
X76341348Y-43675185D02*
G01*
X76387103Y-43727989D01*
X76397047Y-43797147D01*
X76388870Y-43826952D01*
X76363671Y-43887787D01*
X76363670Y-43887791D01*
X76344750Y-44031500D01*
X76361733Y-44160500D01*
X76363670Y-44175208D01*
X76363671Y-44175212D01*
X76405061Y-44275137D01*
X76414500Y-44322589D01*
X76414500Y-45295046D01*
X76394815Y-45362085D01*
X76342011Y-45407840D01*
X76272853Y-45417784D01*
X76215014Y-45393422D01*
X76103635Y-45307958D01*
X76039315Y-45281316D01*
X75984912Y-45237475D01*
X75962847Y-45171181D01*
X75972207Y-45119305D01*
X75986330Y-45085209D01*
X76005250Y-44941500D01*
X75986330Y-44797791D01*
X75930861Y-44663875D01*
X75842621Y-44548879D01*
X75727625Y-44460639D01*
X75727624Y-44460638D01*
X75727622Y-44460637D01*
X75593712Y-44405171D01*
X75593710Y-44405170D01*
X75593709Y-44405170D01*
X75492346Y-44391825D01*
X75450001Y-44386250D01*
X75449999Y-44386250D01*
X75306291Y-44405170D01*
X75306287Y-44405171D01*
X75172377Y-44460637D01*
X75064269Y-44543592D01*
X75057379Y-44548879D01*
X75004732Y-44617488D01*
X74948307Y-44658689D01*
X74906359Y-44666000D01*
X71053697Y-44666000D01*
X71007096Y-44685304D01*
X71007095Y-44685304D01*
X70952443Y-44707940D01*
X70952441Y-44707942D01*
X64425909Y-51234476D01*
X64348411Y-51311973D01*
X64306467Y-51413232D01*
X64306467Y-51971358D01*
X64286782Y-52038397D01*
X64257954Y-52069733D01*
X64189346Y-52122378D01*
X64189345Y-52122379D01*
X64100544Y-52238106D01*
X64044116Y-52279309D01*
X63974370Y-52283463D01*
X63926682Y-52260994D01*
X63865047Y-52213699D01*
X63823844Y-52157271D01*
X63816534Y-52115324D01*
X63816534Y-50774443D01*
X63836219Y-50707404D01*
X63852853Y-50686762D01*
X70847797Y-43691819D01*
X70909120Y-43658334D01*
X70935478Y-43655500D01*
X76274309Y-43655500D01*
X76341348Y-43675185D01*
G37*
G04 #@! TD.AperFunction*
G04 #@! TA.AperFunction,Conductor*
G36*
X77170703Y-45143264D02*
G01*
X77187871Y-45161486D01*
X77212664Y-45193796D01*
X77240532Y-45230115D01*
X77241517Y-45231398D01*
X77356513Y-45319638D01*
X77356514Y-45319638D01*
X77356515Y-45319639D01*
X77394803Y-45335498D01*
X77490429Y-45375107D01*
X77617418Y-45391825D01*
X77634137Y-45394027D01*
X77634138Y-45394027D01*
X77634139Y-45394027D01*
X77649115Y-45392055D01*
X77777847Y-45375107D01*
X77911763Y-45319638D01*
X78026759Y-45231398D01*
X78079405Y-45162788D01*
X78135831Y-45121588D01*
X78177779Y-45114277D01*
X79386359Y-45114277D01*
X79453398Y-45133962D01*
X79484731Y-45162786D01*
X79537379Y-45231398D01*
X79652375Y-45319638D01*
X79652376Y-45319638D01*
X79652377Y-45319639D01*
X79690665Y-45335498D01*
X79786291Y-45375107D01*
X79913280Y-45391825D01*
X79929999Y-45394027D01*
X79930000Y-45394027D01*
X79930001Y-45394027D01*
X79944977Y-45392055D01*
X80073709Y-45375107D01*
X80207625Y-45319638D01*
X80322621Y-45231398D01*
X80375267Y-45162788D01*
X80431693Y-45121588D01*
X80473641Y-45114277D01*
X81018758Y-45114277D01*
X81085797Y-45133962D01*
X81131552Y-45186766D01*
X81141496Y-45255924D01*
X81117133Y-45313764D01*
X81049139Y-45402373D01*
X81049138Y-45402376D01*
X80993671Y-45536287D01*
X80993670Y-45536291D01*
X80980147Y-45639000D01*
X80951880Y-45702896D01*
X80944889Y-45710494D01*
X80490135Y-46165250D01*
X80340784Y-46314601D01*
X80308322Y-46347063D01*
X80259366Y-46396018D01*
X80250942Y-46406282D01*
X79604942Y-47052285D01*
X79527444Y-47129782D01*
X79485500Y-47231041D01*
X79485500Y-50550669D01*
X79465815Y-50617708D01*
X79413011Y-50663463D01*
X79343853Y-50673407D01*
X79314049Y-50665231D01*
X79255856Y-50641127D01*
X79213709Y-50623670D01*
X79083627Y-50606544D01*
X79070001Y-50604750D01*
X79069999Y-50604750D01*
X78926291Y-50623670D01*
X78926287Y-50623671D01*
X78792377Y-50679137D01*
X78722676Y-50732621D01*
X78677379Y-50767379D01*
X78624732Y-50835988D01*
X78568307Y-50877189D01*
X78526359Y-50884500D01*
X77462410Y-50884500D01*
X77395371Y-50864815D01*
X77349616Y-50812011D01*
X77339672Y-50742853D01*
X77368697Y-50679297D01*
X77374729Y-50672819D01*
X77410048Y-50637499D01*
X77410061Y-50637484D01*
X77539361Y-50508184D01*
X77600682Y-50474701D01*
X77643226Y-50472928D01*
X77728965Y-50484216D01*
X77728966Y-50484216D01*
X77728967Y-50484216D01*
X77743943Y-50482244D01*
X77872675Y-50465296D01*
X78006591Y-50409827D01*
X78121587Y-50321587D01*
X78209827Y-50206591D01*
X78265296Y-50072675D01*
X78284216Y-49928966D01*
X78265296Y-49785257D01*
X78209827Y-49651341D01*
X78121587Y-49536345D01*
X78006591Y-49448105D01*
X78006590Y-49448104D01*
X78006588Y-49448103D01*
X77872678Y-49392637D01*
X77872676Y-49392636D01*
X77872675Y-49392636D01*
X77796605Y-49382621D01*
X77728967Y-49373716D01*
X77728965Y-49373716D01*
X77585257Y-49392636D01*
X77585253Y-49392637D01*
X77451343Y-49448103D01*
X77336345Y-49536345D01*
X77248103Y-49651343D01*
X77192637Y-49785253D01*
X77192636Y-49785257D01*
X77173716Y-49928965D01*
X77173716Y-49928968D01*
X77185003Y-50014704D01*
X77174237Y-50083739D01*
X77149746Y-50118569D01*
X77040137Y-50228180D01*
X76978814Y-50261666D01*
X76952455Y-50264500D01*
X66474477Y-50264500D01*
X66407438Y-50244815D01*
X66361683Y-50192011D01*
X66351739Y-50122853D01*
X66380764Y-50059297D01*
X66386796Y-50052819D01*
X68049616Y-48390000D01*
X69889616Y-46550000D01*
X72134750Y-46550000D01*
X72152981Y-46688479D01*
X72153670Y-46693708D01*
X72153671Y-46693712D01*
X72209137Y-46827622D01*
X72209138Y-46827624D01*
X72209139Y-46827625D01*
X72297379Y-46942621D01*
X72412375Y-47030861D01*
X72412376Y-47030861D01*
X72412377Y-47030862D01*
X72453231Y-47047784D01*
X72546291Y-47086330D01*
X72673280Y-47103048D01*
X72689999Y-47105250D01*
X72690000Y-47105250D01*
X72690001Y-47105250D01*
X72704977Y-47103278D01*
X72833709Y-47086330D01*
X72967625Y-47030861D01*
X73082621Y-46942621D01*
X73170861Y-46827625D01*
X73226330Y-46693709D01*
X73245250Y-46550000D01*
X73244561Y-46544770D01*
X73235106Y-46472950D01*
X73226330Y-46406291D01*
X73178706Y-46291314D01*
X73170862Y-46272377D01*
X73170861Y-46272376D01*
X73170861Y-46272375D01*
X73082621Y-46157379D01*
X72967625Y-46069139D01*
X72967624Y-46069138D01*
X72967622Y-46069137D01*
X72833712Y-46013671D01*
X72833710Y-46013670D01*
X72833709Y-46013670D01*
X72761854Y-46004210D01*
X72690001Y-45994750D01*
X72689999Y-45994750D01*
X72546291Y-46013670D01*
X72546287Y-46013671D01*
X72412377Y-46069137D01*
X72297379Y-46157379D01*
X72209137Y-46272377D01*
X72153671Y-46406287D01*
X72153670Y-46406291D01*
X72135439Y-46544770D01*
X72134750Y-46550000D01*
X69889616Y-46550000D01*
X71186297Y-45253319D01*
X71247620Y-45219834D01*
X71273978Y-45217000D01*
X74906359Y-45217000D01*
X74973398Y-45236685D01*
X75004731Y-45265509D01*
X75057379Y-45334121D01*
X75172375Y-45422361D01*
X75172376Y-45422361D01*
X75172377Y-45422362D01*
X75236693Y-45449002D01*
X75291097Y-45492842D01*
X75313162Y-45559136D01*
X75303803Y-45611012D01*
X75292827Y-45637512D01*
X75289679Y-45645112D01*
X75271223Y-45785304D01*
X75270760Y-45788819D01*
X75285620Y-45901693D01*
X75289680Y-45932527D01*
X75289681Y-45932531D01*
X75345147Y-46066441D01*
X75345148Y-46066443D01*
X75345149Y-46066444D01*
X75433389Y-46181440D01*
X75501998Y-46234086D01*
X75543199Y-46290512D01*
X75550510Y-46332460D01*
X75550510Y-48244621D01*
X75530825Y-48311660D01*
X75478021Y-48357415D01*
X75442697Y-48367560D01*
X75396291Y-48373670D01*
X75396287Y-48373671D01*
X75262377Y-48429137D01*
X75147379Y-48517379D01*
X75059137Y-48632377D01*
X75003671Y-48766287D01*
X75003670Y-48766291D01*
X74984750Y-48909999D01*
X74984750Y-48910000D01*
X75003670Y-49053708D01*
X75003671Y-49053712D01*
X75059137Y-49187622D01*
X75059138Y-49187624D01*
X75059139Y-49187625D01*
X75147379Y-49302621D01*
X75262375Y-49390861D01*
X75262376Y-49390861D01*
X75262377Y-49390862D01*
X75303393Y-49407851D01*
X75396291Y-49446330D01*
X75523280Y-49463048D01*
X75539999Y-49465250D01*
X75540000Y-49465250D01*
X75540001Y-49465250D01*
X75554977Y-49463278D01*
X75683709Y-49446330D01*
X75817625Y-49390861D01*
X75932621Y-49302621D01*
X76020861Y-49187625D01*
X76076330Y-49053709D01*
X76095250Y-48910000D01*
X76095136Y-48909137D01*
X76083962Y-48824260D01*
X76094727Y-48755224D01*
X76119217Y-48720396D01*
X76923557Y-47916059D01*
X76940360Y-47875492D01*
X76965500Y-47814800D01*
X76965500Y-45236977D01*
X76985185Y-45169938D01*
X77037989Y-45124183D01*
X77107147Y-45114239D01*
X77170703Y-45143264D01*
G37*
G04 #@! TD.AperFunction*
G04 #@! TA.AperFunction,Conductor*
G36*
X81051348Y-47874185D02*
G01*
X81097103Y-47926989D01*
X81107047Y-47996147D01*
X81098870Y-48025952D01*
X81073671Y-48086787D01*
X81073670Y-48086791D01*
X81054750Y-48230499D01*
X81054750Y-48230500D01*
X81073670Y-48374208D01*
X81073671Y-48374212D01*
X81129137Y-48508122D01*
X81129138Y-48508124D01*
X81129139Y-48508125D01*
X81217379Y-48623121D01*
X81332375Y-48711361D01*
X81332376Y-48711361D01*
X81332377Y-48711362D01*
X81377013Y-48729850D01*
X81466291Y-48766830D01*
X81593280Y-48783548D01*
X81609999Y-48785750D01*
X81610000Y-48785750D01*
X81610001Y-48785750D01*
X81624977Y-48783778D01*
X81753709Y-48766830D01*
X81887625Y-48711361D01*
X82002621Y-48623121D01*
X82090861Y-48508125D01*
X82146330Y-48374209D01*
X82150924Y-48339313D01*
X82179191Y-48275418D01*
X82237516Y-48236947D01*
X82273863Y-48231500D01*
X83032090Y-48231500D01*
X83099129Y-48251185D01*
X83144884Y-48303989D01*
X83154828Y-48373147D01*
X83125803Y-48436703D01*
X83119771Y-48443181D01*
X81669477Y-49893474D01*
X81608154Y-49926959D01*
X81538462Y-49921975D01*
X81506310Y-49904169D01*
X81447625Y-49859139D01*
X81447623Y-49859138D01*
X81313712Y-49803671D01*
X81313710Y-49803670D01*
X81313709Y-49803670D01*
X81241854Y-49794210D01*
X81170001Y-49784750D01*
X81169999Y-49784750D01*
X81026291Y-49803670D01*
X80961951Y-49830320D01*
X80892482Y-49837788D01*
X80830003Y-49806512D01*
X80794351Y-49746423D01*
X80790500Y-49715758D01*
X80790500Y-47978500D01*
X80810185Y-47911461D01*
X80862989Y-47865706D01*
X80914500Y-47854500D01*
X80984309Y-47854500D01*
X81051348Y-47874185D01*
G37*
G04 #@! TD.AperFunction*
G04 #@! TA.AperFunction,Conductor*
G36*
X86937556Y-45133962D02*
G01*
X86968890Y-45162787D01*
X86970345Y-45164683D01*
X87048948Y-45224997D01*
X87090150Y-45281424D01*
X87094305Y-45351170D01*
X87071840Y-45398854D01*
X87069140Y-45402372D01*
X87069138Y-45402376D01*
X87013671Y-45536287D01*
X87013670Y-45536291D01*
X87011774Y-45550696D01*
X86994750Y-45680000D01*
X87013670Y-45823709D01*
X87030490Y-45864316D01*
X87035227Y-45875753D01*
X87042695Y-45945222D01*
X87011419Y-46007701D01*
X86968118Y-46037765D01*
X86892377Y-46069138D01*
X86892375Y-46069139D01*
X86777379Y-46157379D01*
X86724732Y-46225988D01*
X86668307Y-46267189D01*
X86626359Y-46274500D01*
X82019161Y-46274500D01*
X81952122Y-46254815D01*
X81906367Y-46202011D01*
X81896423Y-46132853D01*
X81920785Y-46075013D01*
X81922619Y-46072622D01*
X81922621Y-46072621D01*
X82010861Y-45957625D01*
X82066330Y-45823709D01*
X82085250Y-45680000D01*
X82066330Y-45536291D01*
X82010861Y-45402375D01*
X82010860Y-45402374D01*
X82010860Y-45402373D01*
X81942867Y-45313764D01*
X81917672Y-45248595D01*
X81931710Y-45180150D01*
X81980524Y-45130160D01*
X82041242Y-45114277D01*
X86870517Y-45114277D01*
X86937556Y-45133962D01*
G37*
G04 #@! TD.AperFunction*
G04 #@! TA.AperFunction,Conductor*
G36*
X108443030Y-32029685D02*
G01*
X108488785Y-32082489D01*
X108499990Y-32134007D01*
X108498784Y-50474701D01*
X108497508Y-69876027D01*
X108477819Y-69943065D01*
X108425012Y-69988817D01*
X108373528Y-70000019D01*
X46114085Y-70009979D01*
X46047042Y-69990305D01*
X46001279Y-69937509D01*
X45990065Y-69885914D01*
X45990071Y-69876027D01*
X45991393Y-67364800D01*
X54684500Y-67364800D01*
X54707365Y-67420000D01*
X54726443Y-67466058D01*
X54726444Y-67466059D01*
X56593938Y-69333555D01*
X56593939Y-69333555D01*
X56593941Y-69333557D01*
X56623595Y-69345839D01*
X56623597Y-69345841D01*
X56623598Y-69345841D01*
X56644570Y-69354527D01*
X56695200Y-69375500D01*
X56695203Y-69375500D01*
X94324799Y-69375500D01*
X94324800Y-69375500D01*
X94426058Y-69333557D01*
X94503557Y-69256058D01*
X94503556Y-69256058D01*
X94562125Y-69197489D01*
X94562124Y-69197489D01*
X94594791Y-69164822D01*
X105549499Y-69164822D01*
X105558231Y-69208717D01*
X105558234Y-69208724D01*
X105591495Y-69258503D01*
X105591496Y-69258504D01*
X105641278Y-69291767D01*
X105641281Y-69291767D01*
X105641282Y-69291768D01*
X105685177Y-69300500D01*
X105685180Y-69300500D01*
X107414822Y-69300500D01*
X107458717Y-69291768D01*
X107458717Y-69291767D01*
X107458722Y-69291767D01*
X107508504Y-69258504D01*
X107541767Y-69208722D01*
X107541768Y-69208717D01*
X107550500Y-69164822D01*
X107550500Y-67435177D01*
X107541768Y-67391282D01*
X107541767Y-67391281D01*
X107541767Y-67391278D01*
X107508504Y-67341496D01*
X107508503Y-67341495D01*
X107458724Y-67308234D01*
X107458717Y-67308231D01*
X107414822Y-67299500D01*
X107414820Y-67299500D01*
X105685180Y-67299500D01*
X105685178Y-67299500D01*
X105641282Y-67308231D01*
X105641275Y-67308234D01*
X105591496Y-67341495D01*
X105591495Y-67341496D01*
X105558234Y-67391275D01*
X105558231Y-67391282D01*
X105549500Y-67435177D01*
X105549500Y-67435180D01*
X105549500Y-69164820D01*
X105549500Y-69164822D01*
X105549499Y-69164822D01*
X94594791Y-69164822D01*
X98808557Y-64951059D01*
X98823103Y-64915940D01*
X98856786Y-64874139D01*
X98850500Y-64847538D01*
X98850500Y-64452461D01*
X98870185Y-64385422D01*
X98922989Y-64339667D01*
X98992147Y-64329723D01*
X99055703Y-64358748D01*
X99089061Y-64405009D01*
X99119137Y-64477622D01*
X99119138Y-64477624D01*
X99119139Y-64477625D01*
X99193485Y-64574515D01*
X99218679Y-64639682D01*
X99204641Y-64708127D01*
X99193489Y-64725480D01*
X99171419Y-64754243D01*
X99119137Y-64822377D01*
X99089061Y-64894990D01*
X99054058Y-64938425D01*
X99060955Y-64976641D01*
X99060604Y-64979575D01*
X99044750Y-65099997D01*
X99044750Y-65100000D01*
X99063670Y-65243708D01*
X99063671Y-65243712D01*
X99119137Y-65377622D01*
X99119138Y-65377624D01*
X99119139Y-65377625D01*
X99207379Y-65492621D01*
X99322375Y-65580861D01*
X99456291Y-65636330D01*
X99583280Y-65653048D01*
X99599999Y-65655250D01*
X99600000Y-65655250D01*
X99600001Y-65655250D01*
X99614977Y-65653278D01*
X99743709Y-65636330D01*
X99877625Y-65580861D01*
X99992621Y-65492621D01*
X100080861Y-65377625D01*
X100136330Y-65243709D01*
X100155250Y-65100000D01*
X100136330Y-64956291D01*
X100099350Y-64867013D01*
X100080862Y-64822377D01*
X100080861Y-64822376D01*
X100080861Y-64822375D01*
X100006514Y-64725484D01*
X99981321Y-64660318D01*
X99995359Y-64591873D01*
X100006510Y-64574519D01*
X100080861Y-64477625D01*
X100136330Y-64343709D01*
X100136331Y-64343700D01*
X100138433Y-64335859D01*
X100140176Y-64336326D01*
X100164346Y-64281682D01*
X100222669Y-64243208D01*
X100275205Y-64238820D01*
X100378931Y-64252476D01*
X100399999Y-64255250D01*
X100400000Y-64255250D01*
X100400001Y-64255250D01*
X100414977Y-64253278D01*
X100543709Y-64236330D01*
X100677625Y-64180861D01*
X100792621Y-64092621D01*
X100880861Y-63977625D01*
X100936330Y-63843709D01*
X100955250Y-63700000D01*
X100936330Y-63556291D01*
X100889698Y-63443709D01*
X100880862Y-63422377D01*
X100880861Y-63422376D01*
X100880861Y-63422375D01*
X100806514Y-63325484D01*
X100781321Y-63260318D01*
X100795359Y-63191873D01*
X100806510Y-63174519D01*
X100864666Y-63098730D01*
X100921092Y-63057530D01*
X100990838Y-63053375D01*
X101051759Y-63087587D01*
X101058893Y-63095554D01*
X101169577Y-63230423D01*
X101326110Y-63358886D01*
X101504698Y-63454344D01*
X101698477Y-63513126D01*
X101900000Y-63532974D01*
X102101523Y-63513126D01*
X102295302Y-63454344D01*
X102473890Y-63358886D01*
X102630423Y-63230423D01*
X102758886Y-63073890D01*
X102854344Y-62895302D01*
X102913126Y-62701523D01*
X102932974Y-62500000D01*
X102913126Y-62298477D01*
X102854344Y-62104698D01*
X102758886Y-61926110D01*
X102754089Y-61920265D01*
X102630423Y-61769576D01*
X102473893Y-61641116D01*
X102473891Y-61641115D01*
X102473890Y-61641114D01*
X102295302Y-61545656D01*
X102198412Y-61516265D01*
X102101521Y-61486873D01*
X101900000Y-61467026D01*
X101698478Y-61486873D01*
X101504695Y-61545657D01*
X101326106Y-61641116D01*
X101169574Y-61769578D01*
X101149465Y-61794081D01*
X101091719Y-61833414D01*
X101021874Y-61835283D01*
X100962107Y-61799094D01*
X100939052Y-61762866D01*
X100936330Y-61756295D01*
X100936330Y-61756291D01*
X100880861Y-61622375D01*
X100792621Y-61507379D01*
X100677625Y-61419139D01*
X100677624Y-61419138D01*
X100677622Y-61419137D01*
X100543712Y-61363671D01*
X100543710Y-61363670D01*
X100543709Y-61363670D01*
X100471627Y-61354180D01*
X100400001Y-61344750D01*
X100399999Y-61344750D01*
X100256278Y-61363671D01*
X100256084Y-61363724D01*
X100255913Y-61363719D01*
X100248234Y-61364731D01*
X100248076Y-61363531D01*
X100186234Y-61362049D01*
X100128378Y-61322877D01*
X100109450Y-61291396D01*
X100080862Y-61222377D01*
X100080861Y-61222376D01*
X100080861Y-61222375D01*
X100006514Y-61125484D01*
X99981321Y-61060318D01*
X99995359Y-60991873D01*
X100006510Y-60974519D01*
X100080861Y-60877625D01*
X100136330Y-60743709D01*
X100155250Y-60600000D01*
X100155030Y-60598332D01*
X100151585Y-60572163D01*
X100136330Y-60456291D01*
X100091284Y-60347538D01*
X100080862Y-60322377D01*
X100080861Y-60322376D01*
X100080861Y-60322375D01*
X99992621Y-60207379D01*
X99877625Y-60119139D01*
X99877624Y-60119138D01*
X99877622Y-60119137D01*
X99743712Y-60063671D01*
X99743710Y-60063670D01*
X99743709Y-60063670D01*
X99671854Y-60054210D01*
X99600001Y-60044750D01*
X99599999Y-60044750D01*
X99456291Y-60063670D01*
X99456287Y-60063671D01*
X99322377Y-60119137D01*
X99207379Y-60207379D01*
X99119137Y-60322377D01*
X99089061Y-60394990D01*
X99045220Y-60449394D01*
X98978926Y-60471459D01*
X98911227Y-60454180D01*
X98863616Y-60403043D01*
X98850500Y-60347538D01*
X98850500Y-58060201D01*
X98850500Y-58060200D01*
X98839149Y-58032796D01*
X98808558Y-57958942D01*
X97614058Y-56764443D01*
X97612472Y-56763786D01*
X97602505Y-56759657D01*
X97512800Y-56722500D01*
X95525748Y-56722500D01*
X95458709Y-56702815D01*
X95412954Y-56650011D01*
X95403010Y-56580853D01*
X95432035Y-56517297D01*
X95450254Y-56500130D01*
X95492621Y-56467621D01*
X95525462Y-56424822D01*
X105499499Y-56424822D01*
X105508231Y-56468717D01*
X105508234Y-56468724D01*
X105540905Y-56517620D01*
X105541496Y-56518504D01*
X105591278Y-56551767D01*
X105591281Y-56551767D01*
X105591282Y-56551768D01*
X105635177Y-56560500D01*
X105635180Y-56560500D01*
X107364822Y-56560500D01*
X107408717Y-56551768D01*
X107408717Y-56551767D01*
X107408722Y-56551767D01*
X107458504Y-56518504D01*
X107491767Y-56468722D01*
X107493170Y-56461670D01*
X107500500Y-56424822D01*
X107500500Y-54695177D01*
X107491768Y-54651282D01*
X107491767Y-54651281D01*
X107491767Y-54651278D01*
X107458504Y-54601496D01*
X107439310Y-54588671D01*
X107408724Y-54568234D01*
X107408717Y-54568231D01*
X107364822Y-54559500D01*
X107364820Y-54559500D01*
X105635180Y-54559500D01*
X105635178Y-54559500D01*
X105591282Y-54568231D01*
X105591275Y-54568234D01*
X105541496Y-54601495D01*
X105541495Y-54601496D01*
X105508234Y-54651275D01*
X105508231Y-54651282D01*
X105499500Y-54695177D01*
X105499500Y-54695180D01*
X105499500Y-56424820D01*
X105499500Y-56424822D01*
X105499499Y-56424822D01*
X95525462Y-56424822D01*
X95580861Y-56352625D01*
X95636330Y-56218709D01*
X95655250Y-56075000D01*
X95636330Y-55931291D01*
X95580861Y-55797375D01*
X95492621Y-55682379D01*
X95377625Y-55594139D01*
X95377624Y-55594138D01*
X95377622Y-55594137D01*
X95243712Y-55538671D01*
X95243710Y-55538670D01*
X95243709Y-55538670D01*
X95119916Y-55522372D01*
X95100001Y-55519750D01*
X95099999Y-55519750D01*
X94998317Y-55533137D01*
X94929281Y-55522372D01*
X94877025Y-55475992D01*
X94858140Y-55408723D01*
X94859192Y-55394012D01*
X94859721Y-55389999D01*
X94865250Y-55348000D01*
X94846330Y-55204291D01*
X94790861Y-55070375D01*
X94702621Y-54955379D01*
X94651620Y-54916244D01*
X94610418Y-54859816D01*
X94606263Y-54790070D01*
X94639424Y-54730190D01*
X99074882Y-50294733D01*
X99136203Y-50261250D01*
X99205895Y-50266234D01*
X99261828Y-50308106D01*
X99286245Y-50373570D01*
X99271393Y-50441843D01*
X99260937Y-50457902D01*
X99219139Y-50512374D01*
X99219138Y-50512376D01*
X99163671Y-50646287D01*
X99163670Y-50646291D01*
X99144750Y-50790000D01*
X99162713Y-50926443D01*
X99163670Y-50933708D01*
X99163671Y-50933712D01*
X99219137Y-51067622D01*
X99219138Y-51067624D01*
X99219139Y-51067625D01*
X99293485Y-51164515D01*
X99318679Y-51229682D01*
X99304641Y-51298127D01*
X99293489Y-51315480D01*
X99245993Y-51377379D01*
X99219137Y-51412377D01*
X99163671Y-51546287D01*
X99163670Y-51546291D01*
X99144948Y-51688499D01*
X99144750Y-51690000D01*
X99163472Y-51832208D01*
X99163670Y-51833708D01*
X99163671Y-51833712D01*
X99219137Y-51967622D01*
X99219138Y-51967624D01*
X99219139Y-51967625D01*
X99293485Y-52064515D01*
X99318679Y-52129682D01*
X99304641Y-52198127D01*
X99293489Y-52215480D01*
X99270160Y-52245884D01*
X99219137Y-52312377D01*
X99163671Y-52446287D01*
X99163670Y-52446291D01*
X99151878Y-52535862D01*
X99144750Y-52590000D01*
X99154477Y-52663886D01*
X99163670Y-52733708D01*
X99163671Y-52733712D01*
X99219137Y-52867622D01*
X99219138Y-52867624D01*
X99219139Y-52867625D01*
X99307379Y-52982621D01*
X99422375Y-53070861D01*
X99422376Y-53070861D01*
X99422377Y-53070862D01*
X99459617Y-53086287D01*
X99556291Y-53126330D01*
X99683280Y-53143048D01*
X99699999Y-53145250D01*
X99700000Y-53145250D01*
X99700001Y-53145250D01*
X99714977Y-53143278D01*
X99843709Y-53126330D01*
X99977625Y-53070861D01*
X100092621Y-52982621D01*
X100180861Y-52867625D01*
X100236330Y-52733709D01*
X100255250Y-52590000D01*
X100236330Y-52446291D01*
X100189249Y-52332625D01*
X100180862Y-52312377D01*
X100180861Y-52312376D01*
X100180861Y-52312375D01*
X100106514Y-52215484D01*
X100081321Y-52150318D01*
X100095359Y-52081873D01*
X100106510Y-52064519D01*
X100180861Y-51967625D01*
X100236330Y-51833709D01*
X100236331Y-51833700D01*
X100238433Y-51825859D01*
X100240176Y-51826326D01*
X100264346Y-51771682D01*
X100322669Y-51733208D01*
X100375205Y-51728820D01*
X100478931Y-51742476D01*
X100499999Y-51745250D01*
X100500000Y-51745250D01*
X100500001Y-51745250D01*
X100514977Y-51743278D01*
X100643709Y-51726330D01*
X100777625Y-51670861D01*
X100892621Y-51582621D01*
X100980861Y-51467625D01*
X101036330Y-51333709D01*
X101055250Y-51190000D01*
X101036330Y-51046291D01*
X100980861Y-50912375D01*
X100906514Y-50815484D01*
X100881321Y-50750318D01*
X100895359Y-50681873D01*
X100906515Y-50664514D01*
X100942445Y-50617689D01*
X100998872Y-50576487D01*
X101068618Y-50572332D01*
X101129538Y-50606544D01*
X101150177Y-50634721D01*
X101171114Y-50673891D01*
X101299576Y-50830423D01*
X101434245Y-50940942D01*
X101456110Y-50958886D01*
X101634698Y-51054344D01*
X101828477Y-51113126D01*
X102030000Y-51132974D01*
X102231523Y-51113126D01*
X102425302Y-51054344D01*
X102603890Y-50958886D01*
X102760423Y-50830423D01*
X102888886Y-50673890D01*
X102984344Y-50495302D01*
X103043126Y-50301523D01*
X103062974Y-50100000D01*
X103043126Y-49898477D01*
X102984344Y-49704698D01*
X102888886Y-49526110D01*
X102888883Y-49526106D01*
X102760423Y-49369576D01*
X102603893Y-49241116D01*
X102603891Y-49241115D01*
X102603890Y-49241114D01*
X102425302Y-49145656D01*
X102328412Y-49116265D01*
X102231521Y-49086873D01*
X102030000Y-49067026D01*
X101828478Y-49086873D01*
X101634695Y-49145657D01*
X101456106Y-49241116D01*
X101299578Y-49369574D01*
X101268166Y-49407851D01*
X101210420Y-49447185D01*
X101140575Y-49449054D01*
X101080807Y-49412867D01*
X101050091Y-49350111D01*
X101049374Y-49345370D01*
X101041990Y-49289287D01*
X101036330Y-49246291D01*
X100990783Y-49136330D01*
X100980862Y-49112377D01*
X100980861Y-49112376D01*
X100980861Y-49112375D01*
X100892621Y-48997379D01*
X100777625Y-48909139D01*
X100777624Y-48909138D01*
X100777622Y-48909137D01*
X100643712Y-48853671D01*
X100643710Y-48853670D01*
X100643709Y-48853670D01*
X100571854Y-48844210D01*
X100500001Y-48834750D01*
X100499999Y-48834750D01*
X100356278Y-48853671D01*
X100356084Y-48853724D01*
X100355913Y-48853719D01*
X100348234Y-48854731D01*
X100348076Y-48853531D01*
X100286234Y-48852049D01*
X100228378Y-48812877D01*
X100209450Y-48781396D01*
X100180862Y-48712377D01*
X100180861Y-48712376D01*
X100180861Y-48712375D01*
X100106514Y-48615484D01*
X100081321Y-48550318D01*
X100095359Y-48481873D01*
X100106510Y-48464519D01*
X100180861Y-48367625D01*
X100236330Y-48233709D01*
X100255250Y-48090000D01*
X100236330Y-47946291D01*
X100184195Y-47820424D01*
X100180862Y-47812377D01*
X100180861Y-47812376D01*
X100180861Y-47812375D01*
X100092621Y-47697379D01*
X99977625Y-47609139D01*
X99977624Y-47609138D01*
X99977622Y-47609137D01*
X99843712Y-47553671D01*
X99843710Y-47553670D01*
X99843709Y-47553670D01*
X99771854Y-47544210D01*
X99700001Y-47534750D01*
X99699999Y-47534750D01*
X99556291Y-47553670D01*
X99556287Y-47553671D01*
X99422376Y-47609138D01*
X99422374Y-47609139D01*
X99334986Y-47676195D01*
X99269817Y-47701389D01*
X99201372Y-47687351D01*
X99151383Y-47638537D01*
X99135500Y-47577819D01*
X99135500Y-45943641D01*
X99155185Y-45876602D01*
X99184009Y-45845268D01*
X99252621Y-45792621D01*
X99340861Y-45677625D01*
X99396330Y-45543709D01*
X99415250Y-45400000D01*
X99415136Y-45399137D01*
X99407818Y-45343550D01*
X99396330Y-45256291D01*
X99349513Y-45143264D01*
X99340862Y-45122377D01*
X99340861Y-45122376D01*
X99340861Y-45122375D01*
X99252621Y-45007379D01*
X99137625Y-44919139D01*
X99137624Y-44919138D01*
X99137622Y-44919137D01*
X99003712Y-44863671D01*
X99003710Y-44863670D01*
X99003709Y-44863670D01*
X98931854Y-44854210D01*
X98860001Y-44844750D01*
X98859999Y-44844750D01*
X98716291Y-44863670D01*
X98716287Y-44863671D01*
X98582377Y-44919137D01*
X98467379Y-45007379D01*
X98379137Y-45122377D01*
X98323671Y-45256287D01*
X98323670Y-45256291D01*
X98304750Y-45399999D01*
X98304750Y-45400002D01*
X98312520Y-45459024D01*
X98301754Y-45528060D01*
X98255374Y-45580315D01*
X98188105Y-45599200D01*
X98121304Y-45578719D01*
X98091208Y-45550699D01*
X98042621Y-45487379D01*
X97927625Y-45399139D01*
X97927624Y-45399138D01*
X97927622Y-45399137D01*
X97793712Y-45343671D01*
X97793710Y-45343670D01*
X97793709Y-45343670D01*
X97707917Y-45332375D01*
X97650001Y-45324750D01*
X97649999Y-45324750D01*
X97506291Y-45343670D01*
X97506287Y-45343671D01*
X97372376Y-45399138D01*
X97372374Y-45399139D01*
X97257453Y-45487321D01*
X97192284Y-45512515D01*
X97123839Y-45498476D01*
X97106486Y-45487325D01*
X97017625Y-45419139D01*
X97017624Y-45419138D01*
X97017622Y-45419137D01*
X96883712Y-45363671D01*
X96883710Y-45363670D01*
X96883709Y-45363670D01*
X96799785Y-45352621D01*
X96740001Y-45344750D01*
X96739999Y-45344750D01*
X96596291Y-45363670D01*
X96596287Y-45363671D01*
X96462377Y-45419137D01*
X96453054Y-45426291D01*
X96393517Y-45471975D01*
X96328349Y-45497169D01*
X96259905Y-45483131D01*
X96242552Y-45471979D01*
X96147625Y-45399139D01*
X96147624Y-45399138D01*
X96147622Y-45399137D01*
X96013712Y-45343671D01*
X96013710Y-45343670D01*
X96013709Y-45343670D01*
X95927917Y-45332375D01*
X95870001Y-45324750D01*
X95869999Y-45324750D01*
X95726291Y-45343670D01*
X95726287Y-45343671D01*
X95592377Y-45399137D01*
X95477379Y-45487379D01*
X95389137Y-45602377D01*
X95333671Y-45736287D01*
X95333670Y-45736291D01*
X95314750Y-45880000D01*
X95332348Y-46013671D01*
X95333670Y-46023708D01*
X95333671Y-46023712D01*
X95389138Y-46157623D01*
X95389139Y-46157625D01*
X95431974Y-46213449D01*
X95457168Y-46278618D01*
X95443130Y-46347063D01*
X95431974Y-46364421D01*
X95349139Y-46472374D01*
X95349138Y-46472376D01*
X95293671Y-46606287D01*
X95293670Y-46606291D01*
X95282850Y-46688479D01*
X95274750Y-46750000D01*
X95285570Y-46832188D01*
X95293670Y-46893708D01*
X95293671Y-46893712D01*
X95349137Y-47027622D01*
X95349138Y-47027624D01*
X95349139Y-47027625D01*
X95437379Y-47142621D01*
X95552375Y-47230861D01*
X95552376Y-47230861D01*
X95552377Y-47230862D01*
X95597013Y-47249350D01*
X95686291Y-47286330D01*
X95813280Y-47303048D01*
X95829999Y-47305250D01*
X95830000Y-47305250D01*
X95830001Y-47305250D01*
X95844977Y-47303278D01*
X95973709Y-47286330D01*
X96107625Y-47230861D01*
X96214514Y-47148841D01*
X96279682Y-47123647D01*
X96348127Y-47137685D01*
X96365482Y-47148839D01*
X96392200Y-47169340D01*
X96472373Y-47230860D01*
X96472374Y-47230860D01*
X96472375Y-47230861D01*
X96606291Y-47286330D01*
X96733280Y-47303048D01*
X96749999Y-47305250D01*
X96750000Y-47305250D01*
X96750001Y-47305250D01*
X96764977Y-47303278D01*
X96893709Y-47286330D01*
X97027625Y-47230861D01*
X97134514Y-47148841D01*
X97199682Y-47123647D01*
X97268127Y-47137685D01*
X97285482Y-47148839D01*
X97312200Y-47169340D01*
X97392373Y-47230860D01*
X97392374Y-47230860D01*
X97392375Y-47230861D01*
X97526291Y-47286330D01*
X97653280Y-47303048D01*
X97669999Y-47305250D01*
X97670000Y-47305250D01*
X97670001Y-47305250D01*
X97684977Y-47303278D01*
X97813709Y-47286330D01*
X97947625Y-47230861D01*
X98062621Y-47142621D01*
X98150861Y-47027625D01*
X98206330Y-46893709D01*
X98225250Y-46750000D01*
X98206330Y-46606291D01*
X98150861Y-46472375D01*
X98078024Y-46377452D01*
X98052831Y-46312286D01*
X98066869Y-46243841D01*
X98078021Y-46226486D01*
X98130861Y-46157625D01*
X98186330Y-46023709D01*
X98205250Y-45880000D01*
X98197479Y-45820975D01*
X98208244Y-45751941D01*
X98254624Y-45699685D01*
X98321893Y-45680799D01*
X98388693Y-45701279D01*
X98418790Y-45729300D01*
X98467379Y-45792621D01*
X98535988Y-45845267D01*
X98577189Y-45901693D01*
X98584500Y-45943641D01*
X98584500Y-49954522D01*
X98564815Y-50021561D01*
X98548181Y-50042203D01*
X94153942Y-54436443D01*
X94076444Y-54513940D01*
X94076443Y-54513941D01*
X94076443Y-54513942D01*
X94064159Y-54543596D01*
X94034500Y-54615199D01*
X94034500Y-54804358D01*
X94014815Y-54871397D01*
X93985987Y-54902733D01*
X93917381Y-54955376D01*
X93829137Y-55070377D01*
X93773671Y-55204287D01*
X93773670Y-55204291D01*
X93754750Y-55348000D01*
X93762744Y-55408723D01*
X93773670Y-55491708D01*
X93773671Y-55491712D01*
X93799077Y-55553048D01*
X93806546Y-55622517D01*
X93775271Y-55684996D01*
X93715181Y-55720648D01*
X93684516Y-55724500D01*
X93643641Y-55724500D01*
X93576602Y-55704815D01*
X93545268Y-55675990D01*
X93492621Y-55607379D01*
X93377625Y-55519139D01*
X93377624Y-55519138D01*
X93377622Y-55519137D01*
X93243712Y-55463671D01*
X93243710Y-55463670D01*
X93243709Y-55463670D01*
X93171854Y-55454210D01*
X93100001Y-55444750D01*
X93099999Y-55444750D01*
X92956291Y-55463670D01*
X92956287Y-55463671D01*
X92822376Y-55519138D01*
X92822374Y-55519139D01*
X92776986Y-55553967D01*
X92711817Y-55579161D01*
X92643372Y-55565123D01*
X92593383Y-55516309D01*
X92577500Y-55455591D01*
X92577500Y-53878478D01*
X92597185Y-53811439D01*
X92649989Y-53765684D01*
X92719147Y-53755740D01*
X92782703Y-53784765D01*
X92789181Y-53790797D01*
X92829753Y-53831369D01*
X92931011Y-53873312D01*
X93178359Y-53873312D01*
X93245398Y-53892997D01*
X93276731Y-53921821D01*
X93329379Y-53990433D01*
X93444375Y-54078673D01*
X93578291Y-54134142D01*
X93705280Y-54150860D01*
X93721999Y-54153062D01*
X93722000Y-54153062D01*
X93722001Y-54153062D01*
X93736977Y-54151090D01*
X93865709Y-54134142D01*
X93999625Y-54078673D01*
X94114621Y-53990433D01*
X94202861Y-53875437D01*
X94258330Y-53741521D01*
X94277250Y-53597812D01*
X94275731Y-53586278D01*
X94273710Y-53570923D01*
X94258330Y-53454103D01*
X94210084Y-53337625D01*
X94202862Y-53320189D01*
X94202861Y-53320188D01*
X94202861Y-53320187D01*
X94114621Y-53205191D01*
X93999625Y-53116951D01*
X93999624Y-53116950D01*
X93999622Y-53116949D01*
X93865712Y-53061483D01*
X93865710Y-53061482D01*
X93865709Y-53061482D01*
X93788583Y-53051328D01*
X93722001Y-53042562D01*
X93721999Y-53042562D01*
X93578291Y-53061482D01*
X93578287Y-53061483D01*
X93444377Y-53116949D01*
X93361086Y-53180861D01*
X93329379Y-53205191D01*
X93276732Y-53273800D01*
X93220307Y-53315001D01*
X93178359Y-53322312D01*
X93151288Y-53322312D01*
X93084249Y-53302627D01*
X93063607Y-53285993D01*
X92477819Y-52700205D01*
X92444334Y-52638882D01*
X92441500Y-52612524D01*
X92441500Y-48390000D01*
X96174750Y-48390000D01*
X96193670Y-48533708D01*
X96193671Y-48533712D01*
X96249137Y-48667622D01*
X96249138Y-48667624D01*
X96249139Y-48667625D01*
X96337379Y-48782621D01*
X96452375Y-48870861D01*
X96586291Y-48926330D01*
X96713280Y-48943048D01*
X96729999Y-48945250D01*
X96730000Y-48945250D01*
X96730001Y-48945250D01*
X96744977Y-48943278D01*
X96873709Y-48926330D01*
X97007625Y-48870861D01*
X97112546Y-48790351D01*
X97177714Y-48765157D01*
X97246159Y-48779195D01*
X97263519Y-48790352D01*
X97342373Y-48850860D01*
X97342374Y-48850860D01*
X97342375Y-48850861D01*
X97476291Y-48906330D01*
X97603280Y-48923048D01*
X97619999Y-48925250D01*
X97620000Y-48925250D01*
X97620001Y-48925250D01*
X97634977Y-48923278D01*
X97763709Y-48906330D01*
X97897625Y-48850861D01*
X98012621Y-48762621D01*
X98100861Y-48647625D01*
X98156330Y-48513709D01*
X98175250Y-48370000D01*
X98156330Y-48226291D01*
X98100861Y-48092375D01*
X98012621Y-47977379D01*
X97897625Y-47889139D01*
X97897624Y-47889138D01*
X97897622Y-47889137D01*
X97763712Y-47833671D01*
X97763710Y-47833670D01*
X97763709Y-47833670D01*
X97663098Y-47820424D01*
X97620001Y-47814750D01*
X97619999Y-47814750D01*
X97476291Y-47833670D01*
X97476287Y-47833671D01*
X97342377Y-47889137D01*
X97307292Y-47916059D01*
X97237453Y-47969648D01*
X97172285Y-47994842D01*
X97103841Y-47980804D01*
X97086482Y-47969648D01*
X97007625Y-47909139D01*
X97007623Y-47909138D01*
X96873712Y-47853671D01*
X96873710Y-47853670D01*
X96873709Y-47853670D01*
X96801854Y-47844210D01*
X96730001Y-47834750D01*
X96729999Y-47834750D01*
X96586291Y-47853670D01*
X96586287Y-47853671D01*
X96452377Y-47909137D01*
X96337379Y-47997379D01*
X96249137Y-48112377D01*
X96193671Y-48246287D01*
X96193670Y-48246291D01*
X96174750Y-48389999D01*
X96174750Y-48390000D01*
X92441500Y-48390000D01*
X92441500Y-45061201D01*
X92441500Y-45061200D01*
X92399557Y-44959942D01*
X92322058Y-44882443D01*
X89439220Y-41999605D01*
X89405735Y-41938282D01*
X89403962Y-41895738D01*
X89415250Y-41810000D01*
X89415250Y-41809999D01*
X89411789Y-41783709D01*
X89396330Y-41666291D01*
X89358717Y-41575484D01*
X89340862Y-41532377D01*
X89340861Y-41532376D01*
X89340861Y-41532375D01*
X89252621Y-41417379D01*
X89137625Y-41329139D01*
X89137624Y-41329138D01*
X89137622Y-41329137D01*
X89003712Y-41273671D01*
X89003710Y-41273670D01*
X89003709Y-41273670D01*
X88912410Y-41261650D01*
X88860001Y-41254750D01*
X88859999Y-41254750D01*
X88716291Y-41273670D01*
X88716287Y-41273671D01*
X88582377Y-41329137D01*
X88467379Y-41417379D01*
X88379137Y-41532377D01*
X88323671Y-41666287D01*
X88323670Y-41666291D01*
X88304750Y-41809999D01*
X88304750Y-41810000D01*
X88311918Y-41864445D01*
X88301153Y-41933480D01*
X88254773Y-41985736D01*
X88187504Y-42004622D01*
X88141528Y-41995193D01*
X88113709Y-41983670D01*
X88041854Y-41974210D01*
X87970001Y-41964750D01*
X87969999Y-41964750D01*
X87826291Y-41983670D01*
X87826287Y-41983671D01*
X87692377Y-42039137D01*
X87577379Y-42127379D01*
X87489137Y-42242377D01*
X87433671Y-42376287D01*
X87433670Y-42376291D01*
X87414750Y-42519999D01*
X87414750Y-42520000D01*
X87433670Y-42663708D01*
X87433671Y-42663712D01*
X87489137Y-42797622D01*
X87489138Y-42797624D01*
X87489139Y-42797625D01*
X87577379Y-42912621D01*
X87692375Y-43000861D01*
X87826291Y-43056330D01*
X87941980Y-43071561D01*
X87969999Y-43075250D01*
X87970000Y-43075250D01*
X87970001Y-43075250D01*
X88007592Y-43070300D01*
X88055738Y-43063962D01*
X88124773Y-43074727D01*
X88159605Y-43099220D01*
X89302219Y-44241834D01*
X89335704Y-44303157D01*
X89330720Y-44372849D01*
X89288848Y-44428782D01*
X89261991Y-44444076D01*
X89177342Y-44479138D01*
X89062345Y-44567379D01*
X88974103Y-44682377D01*
X88918637Y-44816287D01*
X88918636Y-44816291D01*
X88900688Y-44952620D01*
X88899716Y-44960000D01*
X88917664Y-45096329D01*
X88918636Y-45103708D01*
X88918637Y-45103712D01*
X88974103Y-45237622D01*
X88974104Y-45237623D01*
X88974105Y-45237625D01*
X88983300Y-45249609D01*
X89008495Y-45314776D01*
X88994457Y-45383221D01*
X88972606Y-45412776D01*
X88276075Y-46109308D01*
X88214752Y-46142793D01*
X88172209Y-46144566D01*
X88124531Y-46138289D01*
X88060634Y-46110022D01*
X88022163Y-46051698D01*
X88021332Y-45981833D01*
X88028274Y-45965350D01*
X88027751Y-45965134D01*
X88059687Y-45888031D01*
X88086330Y-45823709D01*
X88105250Y-45680000D01*
X88086330Y-45536291D01*
X88032483Y-45406291D01*
X88030862Y-45402377D01*
X88030861Y-45402376D01*
X88030861Y-45402375D01*
X87942621Y-45287379D01*
X87942619Y-45287378D01*
X87942619Y-45287377D01*
X87905556Y-45258938D01*
X87864017Y-45227063D01*
X87822815Y-45170637D01*
X87818660Y-45100891D01*
X87841134Y-45053196D01*
X87843827Y-45049687D01*
X87899296Y-44915771D01*
X87918216Y-44772062D01*
X87899296Y-44628353D01*
X87843827Y-44494437D01*
X87755587Y-44379441D01*
X87640591Y-44291201D01*
X87640590Y-44291200D01*
X87640588Y-44291199D01*
X87506678Y-44235733D01*
X87506676Y-44235732D01*
X87506675Y-44235732D01*
X87491148Y-44233687D01*
X87427252Y-44205421D01*
X87388782Y-44147096D01*
X87387951Y-44077231D01*
X87408956Y-44035267D01*
X87460861Y-43967625D01*
X87516330Y-43833709D01*
X87535250Y-43690000D01*
X87516330Y-43546291D01*
X87460861Y-43412375D01*
X87372621Y-43297379D01*
X87257625Y-43209139D01*
X87257624Y-43209138D01*
X87257622Y-43209137D01*
X87123712Y-43153671D01*
X87123710Y-43153670D01*
X87123709Y-43153670D01*
X87051854Y-43144210D01*
X86980001Y-43134750D01*
X86979999Y-43134750D01*
X86836291Y-43153670D01*
X86836287Y-43153671D01*
X86702376Y-43209138D01*
X86702374Y-43209139D01*
X86612496Y-43278105D01*
X86547327Y-43303299D01*
X86478882Y-43289260D01*
X86438636Y-43255218D01*
X86432622Y-43247380D01*
X86432621Y-43247379D01*
X86317625Y-43159139D01*
X86317624Y-43159138D01*
X86317622Y-43159137D01*
X86183712Y-43103671D01*
X86183710Y-43103670D01*
X86183709Y-43103670D01*
X86111854Y-43094210D01*
X86040001Y-43084750D01*
X86039999Y-43084750D01*
X85896291Y-43103670D01*
X85896287Y-43103671D01*
X85762377Y-43159137D01*
X85647379Y-43247379D01*
X85559137Y-43362377D01*
X85503671Y-43496287D01*
X85503670Y-43496291D01*
X85484750Y-43639999D01*
X85484750Y-43640000D01*
X85503670Y-43783708D01*
X85503671Y-43783712D01*
X85559137Y-43917622D01*
X85559138Y-43917624D01*
X85559139Y-43917625D01*
X85647379Y-44032621D01*
X85762375Y-44120861D01*
X85896291Y-44176330D01*
X86023280Y-44193048D01*
X86039999Y-44195250D01*
X86040000Y-44195250D01*
X86040001Y-44195250D01*
X86054977Y-44193278D01*
X86183709Y-44176330D01*
X86317625Y-44120861D01*
X86407503Y-44051894D01*
X86472671Y-44026700D01*
X86541116Y-44040738D01*
X86581363Y-44074780D01*
X86587379Y-44082621D01*
X86702375Y-44170861D01*
X86702376Y-44170861D01*
X86702377Y-44170862D01*
X86724429Y-44179996D01*
X86836291Y-44226330D01*
X86851816Y-44228374D01*
X86915709Y-44256637D01*
X86954182Y-44314961D01*
X86955015Y-44384825D01*
X86934006Y-44426798D01*
X86882105Y-44494436D01*
X86878156Y-44501277D01*
X86827589Y-44549492D01*
X86770769Y-44563277D01*
X80473641Y-44563277D01*
X80406602Y-44543592D01*
X80375268Y-44514767D01*
X80322621Y-44446156D01*
X80207625Y-44357916D01*
X80207624Y-44357915D01*
X80207622Y-44357914D01*
X80073712Y-44302448D01*
X80073710Y-44302447D01*
X80073709Y-44302447D01*
X79985585Y-44290845D01*
X79930001Y-44283527D01*
X79929999Y-44283527D01*
X79786291Y-44302447D01*
X79691567Y-44341682D01*
X79622098Y-44349150D01*
X79559619Y-44317874D01*
X79523967Y-44257785D01*
X79521177Y-44210935D01*
X79525250Y-44180000D01*
X79525249Y-44179996D01*
X79521414Y-44150861D01*
X79506330Y-44036291D01*
X79457178Y-43917625D01*
X79450862Y-43902377D01*
X79450861Y-43902376D01*
X79450861Y-43902375D01*
X79362621Y-43787379D01*
X79247625Y-43699139D01*
X79247624Y-43699138D01*
X79247622Y-43699137D01*
X79113712Y-43643671D01*
X79113710Y-43643670D01*
X79113709Y-43643670D01*
X79041854Y-43634210D01*
X78970001Y-43624750D01*
X78969997Y-43624750D01*
X78884259Y-43636037D01*
X78815224Y-43625271D01*
X78780394Y-43600779D01*
X78669796Y-43490181D01*
X78636311Y-43428858D01*
X78641295Y-43359166D01*
X78683167Y-43303233D01*
X78748631Y-43278816D01*
X78757477Y-43278500D01*
X80043867Y-43278500D01*
X80043868Y-43278500D01*
X80145126Y-43236557D01*
X80222625Y-43159058D01*
X80222624Y-43159058D01*
X80281193Y-43100489D01*
X80281192Y-43100489D01*
X83493557Y-39888127D01*
X83515012Y-39836330D01*
X83535500Y-39786868D01*
X83535500Y-37435477D01*
X83555185Y-37368438D01*
X83571819Y-37347796D01*
X84297796Y-36621819D01*
X84359119Y-36588334D01*
X84385477Y-36585500D01*
X86337918Y-36585500D01*
X86404957Y-36605185D01*
X86450712Y-36657989D01*
X86460656Y-36727147D01*
X86436294Y-36784985D01*
X86429601Y-36793709D01*
X86409137Y-36820377D01*
X86353671Y-36954287D01*
X86353670Y-36954291D01*
X86334750Y-37098000D01*
X86344173Y-37169577D01*
X86353670Y-37241708D01*
X86353671Y-37241712D01*
X86409137Y-37375622D01*
X86409138Y-37375624D01*
X86409139Y-37375625D01*
X86497379Y-37490621D01*
X86565988Y-37543267D01*
X86607189Y-37599693D01*
X86614500Y-37641641D01*
X86614500Y-38786868D01*
X86633174Y-38831950D01*
X86633173Y-38831950D01*
X86656441Y-38888123D01*
X86656442Y-38888125D01*
X86656443Y-38888126D01*
X88361874Y-40593558D01*
X88424192Y-40619370D01*
X88475112Y-40658442D01*
X88547379Y-40752621D01*
X88662375Y-40840861D01*
X88662376Y-40840861D01*
X88662377Y-40840862D01*
X88699062Y-40856057D01*
X88796291Y-40896330D01*
X88923280Y-40913048D01*
X88939999Y-40915250D01*
X88940000Y-40915250D01*
X88940001Y-40915250D01*
X88954977Y-40913278D01*
X89083709Y-40896330D01*
X89217625Y-40840861D01*
X89282127Y-40791366D01*
X89347295Y-40766172D01*
X89415740Y-40780210D01*
X89465730Y-40829023D01*
X89481394Y-40897115D01*
X89480552Y-40905927D01*
X89479325Y-40915250D01*
X89474750Y-40950000D01*
X89487874Y-41049688D01*
X89493670Y-41093708D01*
X89493671Y-41093712D01*
X89549137Y-41227622D01*
X89549138Y-41227624D01*
X89549139Y-41227625D01*
X89637379Y-41342621D01*
X89752375Y-41430861D01*
X89752376Y-41430861D01*
X89752377Y-41430862D01*
X89797013Y-41449350D01*
X89886291Y-41486330D01*
X90008163Y-41502375D01*
X90029999Y-41505250D01*
X90030000Y-41505250D01*
X90030001Y-41505250D01*
X90051837Y-41502375D01*
X90173709Y-41486330D01*
X90235048Y-41460923D01*
X90304517Y-41453454D01*
X90366996Y-41484729D01*
X90402648Y-41544819D01*
X90406500Y-41575484D01*
X90406500Y-41638868D01*
X90448443Y-41740126D01*
X90448444Y-41740127D01*
X93324300Y-44615984D01*
X93357785Y-44677307D01*
X93359558Y-44687478D01*
X93363670Y-44718710D01*
X93419137Y-44852622D01*
X93419138Y-44852624D01*
X93419139Y-44852625D01*
X93507379Y-44967621D01*
X93622375Y-45055861D01*
X93622376Y-45055861D01*
X93622377Y-45055862D01*
X93654431Y-45069139D01*
X93756291Y-45111330D01*
X93883280Y-45128048D01*
X93899999Y-45130250D01*
X93900000Y-45130250D01*
X93900001Y-45130250D01*
X93914977Y-45128278D01*
X94043709Y-45111330D01*
X94177625Y-45055861D01*
X94292621Y-44967621D01*
X94380861Y-44852625D01*
X94436330Y-44718709D01*
X94455250Y-44575000D01*
X94436330Y-44431291D01*
X94380861Y-44297375D01*
X94292621Y-44182379D01*
X94292618Y-44182376D01*
X94292616Y-44182374D01*
X94286874Y-44176632D01*
X94288818Y-44174687D01*
X94255542Y-44129124D01*
X94251380Y-44059378D01*
X94270782Y-44024822D01*
X105519499Y-44024822D01*
X105528231Y-44068717D01*
X105528234Y-44068724D01*
X105545216Y-44094139D01*
X105561496Y-44118504D01*
X105611278Y-44151767D01*
X105611281Y-44151767D01*
X105611282Y-44151768D01*
X105655177Y-44160500D01*
X105655180Y-44160500D01*
X107384822Y-44160500D01*
X107428717Y-44151768D01*
X107428717Y-44151767D01*
X107428722Y-44151767D01*
X107478504Y-44118504D01*
X107511767Y-44068722D01*
X107515150Y-44051717D01*
X107520500Y-44024822D01*
X107520500Y-42295177D01*
X107511768Y-42251282D01*
X107511767Y-42251281D01*
X107511767Y-42251278D01*
X107478504Y-42201496D01*
X107478503Y-42201495D01*
X107428724Y-42168234D01*
X107428717Y-42168231D01*
X107384822Y-42159500D01*
X107384820Y-42159500D01*
X105655180Y-42159500D01*
X105655178Y-42159500D01*
X105611282Y-42168231D01*
X105611275Y-42168234D01*
X105561496Y-42201495D01*
X105561495Y-42201496D01*
X105528234Y-42251275D01*
X105528231Y-42251282D01*
X105519500Y-42295177D01*
X105519500Y-42295180D01*
X105519500Y-44024820D01*
X105519500Y-44024822D01*
X105519499Y-44024822D01*
X94270782Y-44024822D01*
X94285587Y-43998454D01*
X94324769Y-43972606D01*
X94437625Y-43925861D01*
X94552621Y-43837621D01*
X94640861Y-43722625D01*
X94696330Y-43588709D01*
X94715250Y-43445000D01*
X94715249Y-43444996D01*
X94708322Y-43392377D01*
X94696330Y-43301291D01*
X94640861Y-43167375D01*
X94552621Y-43052379D01*
X94437625Y-42964139D01*
X94437624Y-42964138D01*
X94437622Y-42964137D01*
X94303712Y-42908671D01*
X94303710Y-42908670D01*
X94303709Y-42908670D01*
X94231854Y-42899210D01*
X94160001Y-42889750D01*
X94159997Y-42889750D01*
X94074259Y-42901037D01*
X94005224Y-42890271D01*
X93970394Y-42865779D01*
X93493241Y-42388626D01*
X93462276Y-42331918D01*
X93425935Y-42319702D01*
X93421057Y-42316442D01*
X93409505Y-42311657D01*
X93319800Y-42274500D01*
X93113641Y-42274500D01*
X93046602Y-42254815D01*
X93015268Y-42225990D01*
X92962621Y-42157379D01*
X92847625Y-42069139D01*
X92847624Y-42069138D01*
X92847622Y-42069137D01*
X92713712Y-42013671D01*
X92713710Y-42013670D01*
X92713709Y-42013670D01*
X92606877Y-41999605D01*
X92570001Y-41994750D01*
X92569999Y-41994750D01*
X92426291Y-42013670D01*
X92426287Y-42013671D01*
X92292377Y-42069137D01*
X92177379Y-42157379D01*
X92089137Y-42272377D01*
X92063732Y-42333713D01*
X92019891Y-42388117D01*
X91953597Y-42410182D01*
X91885898Y-42392903D01*
X91861490Y-42373942D01*
X91267548Y-41780000D01*
X93454750Y-41780000D01*
X93469987Y-41895738D01*
X93473670Y-41923708D01*
X93473671Y-41923712D01*
X93529138Y-42057623D01*
X93529139Y-42057625D01*
X93593203Y-42141115D01*
X93610399Y-42185597D01*
X93640349Y-42192113D01*
X93656400Y-42202563D01*
X93732375Y-42260861D01*
X93866291Y-42316330D01*
X93993280Y-42333048D01*
X94009999Y-42335250D01*
X94010000Y-42335250D01*
X94010001Y-42335250D01*
X94024977Y-42333278D01*
X94153709Y-42316330D01*
X94287625Y-42260861D01*
X94402621Y-42172621D01*
X94439354Y-42124750D01*
X94439920Y-42124013D01*
X94496348Y-42082810D01*
X94538295Y-42075500D01*
X97594799Y-42075500D01*
X97594800Y-42075500D01*
X97696058Y-42033557D01*
X97773557Y-41956058D01*
X98873557Y-40856058D01*
X98876164Y-40849762D01*
X98879853Y-40840860D01*
X98910086Y-40767870D01*
X98915500Y-40754800D01*
X98915500Y-40577529D01*
X98935185Y-40510490D01*
X98987989Y-40464735D01*
X99057147Y-40454791D01*
X99120703Y-40483816D01*
X99137870Y-40502035D01*
X99207379Y-40592621D01*
X99322375Y-40680861D01*
X99456291Y-40736330D01*
X99580024Y-40752620D01*
X99599999Y-40755250D01*
X99600000Y-40755250D01*
X99600001Y-40755250D01*
X99619976Y-40752620D01*
X99743709Y-40736330D01*
X99877625Y-40680861D01*
X99992621Y-40592621D01*
X100080861Y-40477625D01*
X100136330Y-40343709D01*
X100155250Y-40200000D01*
X100136330Y-40056291D01*
X100080861Y-39922375D01*
X100006514Y-39825484D01*
X99981321Y-39760318D01*
X99995359Y-39691873D01*
X100006510Y-39674519D01*
X100080861Y-39577625D01*
X100136330Y-39443709D01*
X100136331Y-39443700D01*
X100138433Y-39435859D01*
X100140176Y-39436326D01*
X100164346Y-39381682D01*
X100222669Y-39343208D01*
X100275205Y-39338820D01*
X100378931Y-39352476D01*
X100399999Y-39355250D01*
X100400000Y-39355250D01*
X100400001Y-39355250D01*
X100414977Y-39353278D01*
X100543709Y-39336330D01*
X100677625Y-39280861D01*
X100792621Y-39192621D01*
X100880861Y-39077625D01*
X100936330Y-38943709D01*
X100955250Y-38800000D01*
X100944385Y-38717474D01*
X100955150Y-38648441D01*
X101001530Y-38596185D01*
X101068799Y-38577299D01*
X101135599Y-38597779D01*
X101163178Y-38622626D01*
X101169577Y-38630423D01*
X101275651Y-38717476D01*
X101326110Y-38758886D01*
X101504698Y-38854344D01*
X101698477Y-38913126D01*
X101900000Y-38932974D01*
X102101523Y-38913126D01*
X102295302Y-38854344D01*
X102473890Y-38758886D01*
X102630423Y-38630423D01*
X102758886Y-38473890D01*
X102854344Y-38295302D01*
X102913126Y-38101523D01*
X102932974Y-37900000D01*
X102913126Y-37698477D01*
X102854344Y-37504698D01*
X102758886Y-37326110D01*
X102737978Y-37300633D01*
X102630423Y-37169576D01*
X102473893Y-37041116D01*
X102473891Y-37041115D01*
X102473890Y-37041114D01*
X102295302Y-36945656D01*
X102195798Y-36915472D01*
X102101521Y-36886873D01*
X101900000Y-36867026D01*
X101698478Y-36886873D01*
X101504695Y-36945657D01*
X101326106Y-37041116D01*
X101169574Y-37169578D01*
X101163175Y-37177376D01*
X101105428Y-37216709D01*
X101035584Y-37218578D01*
X100975816Y-37182389D01*
X100945102Y-37119632D01*
X100944385Y-37082523D01*
X100945921Y-37070862D01*
X100955250Y-37000000D01*
X100936330Y-36856291D01*
X100880861Y-36722375D01*
X100792621Y-36607379D01*
X100677625Y-36519139D01*
X100677624Y-36519138D01*
X100677622Y-36519137D01*
X100543712Y-36463671D01*
X100543710Y-36463670D01*
X100543709Y-36463670D01*
X100454818Y-36451967D01*
X100400001Y-36444750D01*
X100399999Y-36444750D01*
X100256278Y-36463671D01*
X100256084Y-36463724D01*
X100255913Y-36463719D01*
X100248234Y-36464731D01*
X100248076Y-36463531D01*
X100186234Y-36462049D01*
X100128378Y-36422877D01*
X100109450Y-36391396D01*
X100080862Y-36322377D01*
X100080861Y-36322376D01*
X100080861Y-36322375D01*
X100006514Y-36225484D01*
X99981321Y-36160318D01*
X99995359Y-36091873D01*
X100006510Y-36074519D01*
X100080861Y-35977625D01*
X100136330Y-35843709D01*
X100155250Y-35700000D01*
X100136330Y-35556291D01*
X100080861Y-35422375D01*
X99992621Y-35307379D01*
X99877625Y-35219139D01*
X99877624Y-35219138D01*
X99877622Y-35219137D01*
X99743712Y-35163671D01*
X99743710Y-35163670D01*
X99743709Y-35163670D01*
X99666803Y-35153545D01*
X99600001Y-35144750D01*
X99599999Y-35144750D01*
X99456291Y-35163670D01*
X99456287Y-35163671D01*
X99322377Y-35219137D01*
X99298497Y-35237461D01*
X99207379Y-35307379D01*
X99207378Y-35307380D01*
X99207377Y-35307381D01*
X99137875Y-35397957D01*
X99081447Y-35439159D01*
X99011701Y-35443314D01*
X98950781Y-35409101D01*
X98918029Y-35347384D01*
X98915500Y-35322470D01*
X98915500Y-33451314D01*
X98935185Y-33384275D01*
X98964012Y-33352940D01*
X99042621Y-33292621D01*
X99130861Y-33177625D01*
X99186330Y-33043709D01*
X99205250Y-32900000D01*
X99186330Y-32756291D01*
X99130861Y-32622375D01*
X99042621Y-32507379D01*
X98927625Y-32419139D01*
X98927624Y-32419138D01*
X98927622Y-32419137D01*
X98793712Y-32363671D01*
X98793710Y-32363670D01*
X98793709Y-32363670D01*
X98721854Y-32354210D01*
X98650001Y-32344750D01*
X98649999Y-32344750D01*
X98506291Y-32363670D01*
X98506287Y-32363671D01*
X98372377Y-32419137D01*
X98257379Y-32507379D01*
X98169137Y-32622377D01*
X98113671Y-32756287D01*
X98113670Y-32756291D01*
X98094750Y-32900000D01*
X98109715Y-33013671D01*
X98114271Y-33048272D01*
X98103506Y-33117307D01*
X98057126Y-33169563D01*
X97989857Y-33188449D01*
X97923056Y-33167969D01*
X97892957Y-33139945D01*
X97866913Y-33106005D01*
X97852621Y-33087379D01*
X97737625Y-32999139D01*
X97737624Y-32999138D01*
X97737622Y-32999137D01*
X97603712Y-32943671D01*
X97603710Y-32943670D01*
X97603709Y-32943670D01*
X97531854Y-32934210D01*
X97460001Y-32924750D01*
X97459999Y-32924750D01*
X97316291Y-32943670D01*
X97316287Y-32943671D01*
X97182376Y-32999138D01*
X97182374Y-32999139D01*
X97075937Y-33080811D01*
X97010768Y-33106005D01*
X96942323Y-33091966D01*
X96924969Y-33080814D01*
X96857625Y-33029139D01*
X96857624Y-33029138D01*
X96857622Y-33029137D01*
X96723712Y-32973671D01*
X96723710Y-32973670D01*
X96723709Y-32973670D01*
X96651854Y-32964210D01*
X96580001Y-32954750D01*
X96579999Y-32954750D01*
X96436291Y-32973670D01*
X96436287Y-32973671D01*
X96302376Y-33029138D01*
X96302374Y-33029139D01*
X96184421Y-33119648D01*
X96119252Y-33144842D01*
X96050807Y-33130804D01*
X96033448Y-33119647D01*
X95967626Y-33069139D01*
X95967623Y-33069138D01*
X95833712Y-33013671D01*
X95833710Y-33013670D01*
X95833709Y-33013670D01*
X95761854Y-33004210D01*
X95690001Y-32994750D01*
X95689999Y-32994750D01*
X95546291Y-33013670D01*
X95546287Y-33013671D01*
X95412377Y-33069137D01*
X95297379Y-33157379D01*
X95209137Y-33272377D01*
X95153671Y-33406287D01*
X95153670Y-33406291D01*
X95134750Y-33549999D01*
X95134750Y-33550000D01*
X95153670Y-33693708D01*
X95153671Y-33693712D01*
X95209137Y-33827622D01*
X95209138Y-33827624D01*
X95209139Y-33827625D01*
X95271628Y-33909062D01*
X95296822Y-33974231D01*
X95282784Y-34042675D01*
X95271628Y-34060034D01*
X95239139Y-34102374D01*
X95239138Y-34102376D01*
X95183671Y-34236287D01*
X95183670Y-34236291D01*
X95164750Y-34379999D01*
X95164750Y-34380000D01*
X95183670Y-34523708D01*
X95183671Y-34523712D01*
X95239137Y-34657622D01*
X95239138Y-34657624D01*
X95239139Y-34657625D01*
X95327379Y-34772621D01*
X95442375Y-34860861D01*
X95442376Y-34860861D01*
X95442377Y-34860862D01*
X95487013Y-34879350D01*
X95576291Y-34916330D01*
X95703280Y-34933048D01*
X95719999Y-34935250D01*
X95720000Y-34935250D01*
X95720001Y-34935250D01*
X95734977Y-34933278D01*
X95863709Y-34916330D01*
X95997625Y-34860861D01*
X96084513Y-34794188D01*
X96149682Y-34768994D01*
X96218127Y-34783032D01*
X96235487Y-34794189D01*
X96322373Y-34860860D01*
X96322374Y-34860860D01*
X96322375Y-34860861D01*
X96456291Y-34916330D01*
X96583280Y-34933048D01*
X96599999Y-34935250D01*
X96600000Y-34935250D01*
X96600001Y-34935250D01*
X96614977Y-34933278D01*
X96743709Y-34916330D01*
X96877625Y-34860861D01*
X96936481Y-34815699D01*
X97001650Y-34790504D01*
X97070095Y-34804542D01*
X97087455Y-34815699D01*
X97172373Y-34880860D01*
X97172374Y-34880860D01*
X97172375Y-34880861D01*
X97306291Y-34936330D01*
X97433280Y-34953048D01*
X97449999Y-34955250D01*
X97450000Y-34955250D01*
X97450001Y-34955250D01*
X97464977Y-34953278D01*
X97593709Y-34936330D01*
X97727625Y-34880861D01*
X97842621Y-34792621D01*
X97930861Y-34677625D01*
X97986330Y-34543709D01*
X98005250Y-34400000D01*
X97986330Y-34256291D01*
X97930861Y-34122375D01*
X97930860Y-34122374D01*
X97930860Y-34122373D01*
X97874653Y-34049124D01*
X97853841Y-34022001D01*
X97828647Y-33956834D01*
X97842685Y-33888389D01*
X97853838Y-33871033D01*
X97940861Y-33757625D01*
X97996330Y-33623709D01*
X98015250Y-33480000D01*
X97996330Y-33336291D01*
X97996328Y-33336286D01*
X97995728Y-33331728D01*
X98006493Y-33262692D01*
X98052873Y-33210436D01*
X98120141Y-33191550D01*
X98186942Y-33212030D01*
X98217042Y-33240054D01*
X98257378Y-33292620D01*
X98257379Y-33292621D01*
X98315987Y-33337593D01*
X98357189Y-33394021D01*
X98364500Y-33435968D01*
X98364500Y-40534523D01*
X98344815Y-40601562D01*
X98328181Y-40622204D01*
X97462204Y-41488181D01*
X97400881Y-41521666D01*
X97374523Y-41524500D01*
X94568988Y-41524500D01*
X94501949Y-41504815D01*
X94470613Y-41475987D01*
X94425641Y-41417379D01*
X94402621Y-41387379D01*
X94287625Y-41299139D01*
X94287624Y-41299138D01*
X94287622Y-41299137D01*
X94153712Y-41243671D01*
X94153710Y-41243670D01*
X94153709Y-41243670D01*
X94081854Y-41234210D01*
X94010001Y-41224750D01*
X94009999Y-41224750D01*
X93866291Y-41243670D01*
X93866287Y-41243671D01*
X93732377Y-41299137D01*
X93617379Y-41387379D01*
X93529137Y-41502377D01*
X93473671Y-41636287D01*
X93473670Y-41636291D01*
X93454750Y-41780000D01*
X91267548Y-41780000D01*
X90993819Y-41506271D01*
X90960334Y-41444948D01*
X90957500Y-41418590D01*
X90957500Y-39703641D01*
X90977185Y-39636602D01*
X91006009Y-39605268D01*
X91074621Y-39552621D01*
X91162861Y-39437625D01*
X91218330Y-39303709D01*
X91237250Y-39160000D01*
X91235612Y-39147562D01*
X91235048Y-39143280D01*
X91218330Y-39016291D01*
X91162861Y-38882375D01*
X91074621Y-38767379D01*
X90959625Y-38679139D01*
X90959624Y-38679138D01*
X90959622Y-38679137D01*
X90825712Y-38623671D01*
X90825710Y-38623670D01*
X90825709Y-38623670D01*
X90753854Y-38614210D01*
X90682001Y-38604750D01*
X90681999Y-38604750D01*
X90538291Y-38623670D01*
X90538287Y-38623671D01*
X90404377Y-38679137D01*
X90289375Y-38767382D01*
X90286862Y-38769896D01*
X90284221Y-38771337D01*
X90282932Y-38772327D01*
X90282777Y-38772125D01*
X90225537Y-38803377D01*
X90155845Y-38798388D01*
X90111505Y-38769890D01*
X89193061Y-37851446D01*
X89159576Y-37790123D01*
X89164560Y-37720431D01*
X89206432Y-37664498D01*
X89264555Y-37640826D01*
X89298709Y-37636330D01*
X89432625Y-37580861D01*
X89547621Y-37492621D01*
X89635861Y-37377625D01*
X89691330Y-37243709D01*
X89710250Y-37100000D01*
X89691330Y-36956291D01*
X89649908Y-36856287D01*
X89635862Y-36822377D01*
X89635861Y-36822376D01*
X89635861Y-36822375D01*
X89547621Y-36707379D01*
X89432625Y-36619139D01*
X89432624Y-36619138D01*
X89432622Y-36619137D01*
X89298712Y-36563671D01*
X89298710Y-36563670D01*
X89298709Y-36563670D01*
X89226854Y-36554210D01*
X89155001Y-36544750D01*
X89154997Y-36544750D01*
X89069259Y-36556037D01*
X89000224Y-36545271D01*
X88965394Y-36520779D01*
X88524616Y-36080000D01*
X96004750Y-36080000D01*
X96023670Y-36223708D01*
X96023671Y-36223712D01*
X96079137Y-36357622D01*
X96079138Y-36357624D01*
X96079139Y-36357625D01*
X96167379Y-36472621D01*
X96282375Y-36560861D01*
X96282376Y-36560861D01*
X96282377Y-36560862D01*
X96289159Y-36563671D01*
X96416291Y-36616330D01*
X96543280Y-36633048D01*
X96559999Y-36635250D01*
X96560000Y-36635250D01*
X96560001Y-36635250D01*
X96574977Y-36633278D01*
X96703709Y-36616330D01*
X96837625Y-36560861D01*
X96902997Y-36510698D01*
X96968166Y-36485504D01*
X97036611Y-36499542D01*
X97053971Y-36510699D01*
X97132373Y-36570860D01*
X97132374Y-36570860D01*
X97132375Y-36570861D01*
X97266291Y-36626330D01*
X97393280Y-36643048D01*
X97409999Y-36645250D01*
X97410000Y-36645250D01*
X97410001Y-36645250D01*
X97424977Y-36643278D01*
X97553709Y-36626330D01*
X97687625Y-36570861D01*
X97802621Y-36482621D01*
X97890861Y-36367625D01*
X97946330Y-36233709D01*
X97965250Y-36090000D01*
X97963933Y-36080000D01*
X97957943Y-36034500D01*
X97946330Y-35946291D01*
X97890861Y-35812375D01*
X97802621Y-35697379D01*
X97687625Y-35609139D01*
X97687624Y-35609138D01*
X97687622Y-35609137D01*
X97553712Y-35553671D01*
X97553710Y-35553670D01*
X97553709Y-35553670D01*
X97481854Y-35544210D01*
X97410001Y-35534750D01*
X97409999Y-35534750D01*
X97266291Y-35553670D01*
X97266287Y-35553671D01*
X97132376Y-35609138D01*
X97132374Y-35609139D01*
X97067002Y-35659301D01*
X97001833Y-35684495D01*
X96933388Y-35670456D01*
X96916030Y-35659301D01*
X96837625Y-35599139D01*
X96837623Y-35599138D01*
X96703712Y-35543671D01*
X96703710Y-35543670D01*
X96703709Y-35543670D01*
X96631854Y-35534210D01*
X96560001Y-35524750D01*
X96559999Y-35524750D01*
X96416291Y-35543670D01*
X96416287Y-35543671D01*
X96282377Y-35599137D01*
X96167379Y-35687379D01*
X96079137Y-35802377D01*
X96023671Y-35936287D01*
X96023670Y-35936291D01*
X96004750Y-36079999D01*
X96004750Y-36080000D01*
X88524616Y-36080000D01*
X88521060Y-36076444D01*
X88521058Y-36076443D01*
X88514363Y-36073670D01*
X88514362Y-36073669D01*
X88419800Y-36034500D01*
X88394477Y-36034500D01*
X88327438Y-36014815D01*
X88281683Y-35962011D01*
X88271739Y-35892853D01*
X88300764Y-35829297D01*
X88306782Y-35822832D01*
X88353557Y-35776058D01*
X88353556Y-35776058D01*
X88543558Y-35586058D01*
X88585500Y-35484800D01*
X88585500Y-35375200D01*
X88585500Y-35233911D01*
X88605185Y-35166872D01*
X88657989Y-35121117D01*
X88673486Y-35115257D01*
X88694727Y-35108814D01*
X88868538Y-35015910D01*
X89020883Y-34890883D01*
X89145910Y-34738538D01*
X89238814Y-34564727D01*
X89296024Y-34376132D01*
X89315341Y-34180000D01*
X89296024Y-33983868D01*
X89238814Y-33795273D01*
X89238811Y-33795269D01*
X89238811Y-33795266D01*
X89145913Y-33621467D01*
X89145909Y-33621460D01*
X89020883Y-33469116D01*
X88868539Y-33344090D01*
X88868532Y-33344086D01*
X88694733Y-33251188D01*
X88694727Y-33251186D01*
X88506132Y-33193976D01*
X88506129Y-33193975D01*
X88310000Y-33174659D01*
X88113870Y-33193975D01*
X87925266Y-33251188D01*
X87751467Y-33344086D01*
X87751460Y-33344090D01*
X87599116Y-33469116D01*
X87474090Y-33621460D01*
X87474086Y-33621467D01*
X87381188Y-33795266D01*
X87323975Y-33983870D01*
X87304659Y-34180000D01*
X87323975Y-34376129D01*
X87381188Y-34564733D01*
X87474086Y-34738532D01*
X87474090Y-34738539D01*
X87599116Y-34890883D01*
X87751460Y-35015909D01*
X87751467Y-35015913D01*
X87929627Y-35111142D01*
X87979471Y-35160104D01*
X87994932Y-35228242D01*
X87971100Y-35293921D01*
X87915543Y-35336290D01*
X87871174Y-35344500D01*
X86208826Y-35344500D01*
X86141787Y-35324815D01*
X86096032Y-35272011D01*
X86086088Y-35202853D01*
X86115113Y-35139297D01*
X86150373Y-35111142D01*
X86328532Y-35015913D01*
X86328538Y-35015910D01*
X86480883Y-34890883D01*
X86605910Y-34738538D01*
X86698814Y-34564727D01*
X86756024Y-34376132D01*
X86775341Y-34180000D01*
X86756024Y-33983868D01*
X86698814Y-33795273D01*
X86698811Y-33795269D01*
X86698811Y-33795266D01*
X86605913Y-33621467D01*
X86605909Y-33621460D01*
X86480883Y-33469116D01*
X86328539Y-33344090D01*
X86328532Y-33344086D01*
X86154733Y-33251188D01*
X86154727Y-33251186D01*
X85966132Y-33193976D01*
X85966129Y-33193975D01*
X85770000Y-33174659D01*
X85573870Y-33193975D01*
X85385266Y-33251188D01*
X85211467Y-33344086D01*
X85211460Y-33344090D01*
X85059116Y-33469116D01*
X84934090Y-33621460D01*
X84934086Y-33621467D01*
X84841188Y-33795266D01*
X84783975Y-33983870D01*
X84764659Y-34180000D01*
X84783975Y-34376129D01*
X84841188Y-34564733D01*
X84934086Y-34738532D01*
X84934090Y-34738539D01*
X85059116Y-34890883D01*
X85211460Y-35015909D01*
X85211467Y-35015913D01*
X85389627Y-35111142D01*
X85439471Y-35160104D01*
X85454932Y-35228242D01*
X85431100Y-35293921D01*
X85375543Y-35336290D01*
X85331174Y-35344500D01*
X84431642Y-35344500D01*
X84322042Y-35344500D01*
X84322040Y-35344500D01*
X84322038Y-35344501D01*
X84220786Y-35386439D01*
X84220784Y-35386441D01*
X82726942Y-36880285D01*
X82649444Y-36957782D01*
X82607500Y-37059041D01*
X82607500Y-37796522D01*
X82587815Y-37863561D01*
X82571181Y-37884203D01*
X81177181Y-39278203D01*
X81115858Y-39311688D01*
X81046166Y-39306704D01*
X80990233Y-39264832D01*
X80965816Y-39199368D01*
X80965500Y-39190522D01*
X80965500Y-35233911D01*
X80985185Y-35166872D01*
X81037989Y-35121117D01*
X81053486Y-35115257D01*
X81074727Y-35108814D01*
X81248538Y-35015910D01*
X81400883Y-34890883D01*
X81525910Y-34738538D01*
X81618814Y-34564727D01*
X81676024Y-34376132D01*
X81695341Y-34180000D01*
X82224659Y-34180000D01*
X82243975Y-34376129D01*
X82301188Y-34564733D01*
X82394086Y-34738532D01*
X82394090Y-34738539D01*
X82519116Y-34890883D01*
X82671460Y-35015909D01*
X82671467Y-35015913D01*
X82845266Y-35108811D01*
X82845269Y-35108811D01*
X82845273Y-35108814D01*
X83033868Y-35166024D01*
X83230000Y-35185341D01*
X83426132Y-35166024D01*
X83614727Y-35108814D01*
X83614735Y-35108810D01*
X83705258Y-35060424D01*
X83788538Y-35015910D01*
X83940883Y-34890883D01*
X84065910Y-34738538D01*
X84158814Y-34564727D01*
X84216024Y-34376132D01*
X84235341Y-34180000D01*
X84216024Y-33983868D01*
X84158814Y-33795273D01*
X84158811Y-33795269D01*
X84158811Y-33795266D01*
X84065913Y-33621467D01*
X84065909Y-33621460D01*
X83940883Y-33469116D01*
X83788539Y-33344090D01*
X83788532Y-33344086D01*
X83614733Y-33251188D01*
X83614727Y-33251186D01*
X83426132Y-33193976D01*
X83426129Y-33193975D01*
X83230000Y-33174659D01*
X83033870Y-33193975D01*
X82845266Y-33251188D01*
X82671467Y-33344086D01*
X82671460Y-33344090D01*
X82519116Y-33469116D01*
X82394090Y-33621460D01*
X82394086Y-33621467D01*
X82301188Y-33795266D01*
X82243975Y-33983870D01*
X82224659Y-34180000D01*
X81695341Y-34180000D01*
X81676024Y-33983868D01*
X81618814Y-33795273D01*
X81618811Y-33795269D01*
X81618811Y-33795266D01*
X81525913Y-33621467D01*
X81525909Y-33621460D01*
X81400883Y-33469116D01*
X81248539Y-33344090D01*
X81248532Y-33344086D01*
X81074733Y-33251188D01*
X81074727Y-33251186D01*
X80886132Y-33193976D01*
X80886129Y-33193975D01*
X80690000Y-33174659D01*
X80493870Y-33193975D01*
X80305266Y-33251188D01*
X80131467Y-33344086D01*
X80131460Y-33344090D01*
X79979116Y-33469116D01*
X79854090Y-33621460D01*
X79854086Y-33621467D01*
X79761188Y-33795266D01*
X79703975Y-33983870D01*
X79684659Y-34180000D01*
X79703975Y-34376129D01*
X79761188Y-34564733D01*
X79854086Y-34738532D01*
X79854090Y-34738539D01*
X79979116Y-34890883D01*
X80131460Y-35015909D01*
X80131467Y-35015913D01*
X80305265Y-35108810D01*
X80305266Y-35108810D01*
X80305273Y-35108814D01*
X80326496Y-35115251D01*
X80384932Y-35153545D01*
X80413390Y-35217357D01*
X80414500Y-35233911D01*
X80414500Y-39309523D01*
X80394815Y-39376562D01*
X80378181Y-39397204D01*
X79726444Y-40048940D01*
X79684500Y-40150199D01*
X79684500Y-40156358D01*
X79664815Y-40223397D01*
X79635987Y-40254733D01*
X79567381Y-40307376D01*
X79479139Y-40422375D01*
X79458347Y-40472571D01*
X79414505Y-40526974D01*
X79348211Y-40549038D01*
X79280512Y-40531758D01*
X79232902Y-40480620D01*
X79229224Y-40472566D01*
X79225980Y-40464735D01*
X79220861Y-40452375D01*
X79132621Y-40337379D01*
X79132619Y-40337377D01*
X79132618Y-40337376D01*
X79064013Y-40284733D01*
X79022810Y-40228305D01*
X79015500Y-40186358D01*
X79015500Y-39695201D01*
X79015500Y-39695200D01*
X78973557Y-39593942D01*
X78896058Y-39516443D01*
X78461819Y-39082204D01*
X78428334Y-39020881D01*
X78425500Y-38994523D01*
X78425500Y-35233911D01*
X78445185Y-35166872D01*
X78497989Y-35121117D01*
X78513486Y-35115257D01*
X78534727Y-35108814D01*
X78708538Y-35015910D01*
X78860883Y-34890883D01*
X78985910Y-34738538D01*
X79078814Y-34564727D01*
X79136024Y-34376132D01*
X79155341Y-34180000D01*
X79136024Y-33983868D01*
X79078814Y-33795273D01*
X79078811Y-33795269D01*
X79078811Y-33795266D01*
X78985913Y-33621467D01*
X78985909Y-33621460D01*
X78860883Y-33469116D01*
X78708539Y-33344090D01*
X78708532Y-33344086D01*
X78534733Y-33251188D01*
X78534727Y-33251186D01*
X78346132Y-33193976D01*
X78346129Y-33193975D01*
X78150000Y-33174659D01*
X77953870Y-33193975D01*
X77765266Y-33251188D01*
X77591467Y-33344086D01*
X77591460Y-33344090D01*
X77439116Y-33469116D01*
X77314090Y-33621460D01*
X77314086Y-33621467D01*
X77221188Y-33795266D01*
X77163975Y-33983870D01*
X77144659Y-34180000D01*
X77163975Y-34376129D01*
X77221188Y-34564733D01*
X77314086Y-34738532D01*
X77314090Y-34738539D01*
X77439116Y-34890883D01*
X77591460Y-35015909D01*
X77591467Y-35015913D01*
X77765265Y-35108810D01*
X77765266Y-35108810D01*
X77765273Y-35108814D01*
X77786496Y-35115251D01*
X77844932Y-35153545D01*
X77873390Y-35217357D01*
X77874500Y-35233911D01*
X77874500Y-39080523D01*
X77854815Y-39147562D01*
X77802011Y-39193317D01*
X77732853Y-39203261D01*
X77669297Y-39174236D01*
X77662819Y-39168204D01*
X75921819Y-37427204D01*
X75888334Y-37365881D01*
X75885500Y-37339523D01*
X75885500Y-35304500D01*
X75905185Y-35237461D01*
X75957989Y-35191706D01*
X76009500Y-35180500D01*
X76474822Y-35180500D01*
X76518717Y-35171768D01*
X76518717Y-35171767D01*
X76518722Y-35171767D01*
X76568504Y-35138504D01*
X76601767Y-35088722D01*
X76610500Y-35044820D01*
X76610500Y-33315180D01*
X76610500Y-33315177D01*
X76601768Y-33271282D01*
X76601767Y-33271281D01*
X76601767Y-33271278D01*
X76568504Y-33221496D01*
X76568503Y-33221495D01*
X76518724Y-33188234D01*
X76518717Y-33188231D01*
X76474822Y-33179500D01*
X76474820Y-33179500D01*
X74745180Y-33179500D01*
X74745178Y-33179500D01*
X74701282Y-33188231D01*
X74701275Y-33188234D01*
X74651496Y-33221495D01*
X74651495Y-33221496D01*
X74618234Y-33271275D01*
X74618231Y-33271282D01*
X74609500Y-33315177D01*
X74609500Y-33315180D01*
X74609500Y-35044820D01*
X74609500Y-35044822D01*
X74609499Y-35044822D01*
X74618231Y-35088717D01*
X74618234Y-35088724D01*
X74651495Y-35138503D01*
X74651496Y-35138504D01*
X74701278Y-35171767D01*
X74701281Y-35171767D01*
X74701282Y-35171768D01*
X74745177Y-35180500D01*
X74745180Y-35180500D01*
X75210500Y-35180500D01*
X75277539Y-35200185D01*
X75323294Y-35252989D01*
X75334500Y-35304500D01*
X75334500Y-37559800D01*
X75360420Y-37622375D01*
X75360419Y-37622375D01*
X75376441Y-37661055D01*
X75376444Y-37661059D01*
X77501952Y-39786567D01*
X77535437Y-39847890D01*
X77538271Y-39874248D01*
X77538271Y-40224229D01*
X77518586Y-40291268D01*
X77489758Y-40322604D01*
X77421152Y-40375247D01*
X77332908Y-40490248D01*
X77277442Y-40624158D01*
X77277441Y-40624162D01*
X77260183Y-40755250D01*
X77258521Y-40767871D01*
X77268505Y-40843709D01*
X77277441Y-40911579D01*
X77277442Y-40911583D01*
X77332908Y-41045493D01*
X77332909Y-41045495D01*
X77332910Y-41045496D01*
X77421150Y-41160492D01*
X77536146Y-41248732D01*
X77536147Y-41248732D01*
X77536148Y-41248733D01*
X77542418Y-41251330D01*
X77670062Y-41304201D01*
X77797051Y-41320919D01*
X77813770Y-41323121D01*
X77813771Y-41323121D01*
X77813772Y-41323121D01*
X77828748Y-41321149D01*
X77957480Y-41304201D01*
X78091396Y-41248732D01*
X78206392Y-41160492D01*
X78206396Y-41160487D01*
X78212139Y-41154745D01*
X78273462Y-41121260D01*
X78343154Y-41126244D01*
X78375307Y-41144051D01*
X78462373Y-41210860D01*
X78462374Y-41210860D01*
X78462375Y-41210861D01*
X78596291Y-41266330D01*
X78723280Y-41283048D01*
X78739999Y-41285250D01*
X78740000Y-41285250D01*
X78740001Y-41285250D01*
X78754977Y-41283278D01*
X78883709Y-41266330D01*
X79017625Y-41210861D01*
X79132621Y-41122621D01*
X79220861Y-41007625D01*
X79241652Y-40957429D01*
X79285492Y-40903027D01*
X79351786Y-40880961D01*
X79419485Y-40898240D01*
X79467096Y-40949376D01*
X79470769Y-40957419D01*
X79479139Y-40977625D01*
X79567379Y-41092621D01*
X79682375Y-41180861D01*
X79816291Y-41236330D01*
X79943280Y-41253048D01*
X79959999Y-41255250D01*
X79960000Y-41255250D01*
X79960001Y-41255250D01*
X79974977Y-41253278D01*
X80103709Y-41236330D01*
X80237625Y-41180861D01*
X80339771Y-41102480D01*
X80404935Y-41077288D01*
X80473380Y-41091326D01*
X80490134Y-41103712D01*
X80490932Y-41102673D01*
X80497377Y-41107618D01*
X80497379Y-41107621D01*
X80612375Y-41195861D01*
X80746291Y-41251330D01*
X80868915Y-41267474D01*
X80889999Y-41270250D01*
X80889999Y-41270249D01*
X80890000Y-41270250D01*
X81033709Y-41251330D01*
X81033714Y-41251327D01*
X81037078Y-41250885D01*
X81106114Y-41261650D01*
X81158370Y-41308029D01*
X81177256Y-41375298D01*
X81156776Y-41442099D01*
X81140946Y-41461505D01*
X79911272Y-42691181D01*
X79849949Y-42724666D01*
X79823591Y-42727500D01*
X65120248Y-42727500D01*
X65053209Y-42707815D01*
X65007454Y-42655011D01*
X64997309Y-42619685D01*
X64986330Y-42536292D01*
X64986328Y-42536287D01*
X64983663Y-42529854D01*
X64930861Y-42402375D01*
X64842621Y-42287379D01*
X64727625Y-42199139D01*
X64727624Y-42199138D01*
X64727622Y-42199137D01*
X64593712Y-42143671D01*
X64593710Y-42143670D01*
X64593709Y-42143670D01*
X64521854Y-42134210D01*
X64450001Y-42124750D01*
X64449999Y-42124750D01*
X64306291Y-42143670D01*
X64306287Y-42143671D01*
X64172377Y-42199137D01*
X64057379Y-42287379D01*
X63969137Y-42402377D01*
X63913671Y-42536287D01*
X63913670Y-42536291D01*
X63894750Y-42680000D01*
X63900630Y-42724666D01*
X63913670Y-42823708D01*
X63913671Y-42823712D01*
X63950208Y-42911921D01*
X63957677Y-42981390D01*
X63926402Y-43043869D01*
X63923328Y-43047054D01*
X56106942Y-50863443D01*
X56029444Y-50940940D01*
X56029443Y-50940941D01*
X56029443Y-50940942D01*
X55987500Y-51042200D01*
X55987500Y-57279368D01*
X56005851Y-57323670D01*
X56029443Y-57380626D01*
X58475920Y-59827103D01*
X58577178Y-59869046D01*
X58686778Y-59869046D01*
X58956359Y-59869046D01*
X59023398Y-59888731D01*
X59054731Y-59917555D01*
X59107379Y-59986167D01*
X59222375Y-60074407D01*
X59356291Y-60129876D01*
X59418178Y-60138023D01*
X59482073Y-60166289D01*
X59520545Y-60224613D01*
X59521377Y-60294478D01*
X59489678Y-60348638D01*
X59480138Y-60358178D01*
X59418819Y-60391665D01*
X59392455Y-60394500D01*
X57075199Y-60394500D01*
X57042065Y-60408225D01*
X57008931Y-60421950D01*
X57008930Y-60421950D01*
X56973946Y-60436440D01*
X56973938Y-60436445D01*
X54803942Y-62606443D01*
X54726444Y-62683940D01*
X54726443Y-62683941D01*
X54726443Y-62683942D01*
X54719161Y-62701523D01*
X54688927Y-62774513D01*
X54684500Y-62785200D01*
X54684500Y-67364800D01*
X45991393Y-67364800D01*
X45996395Y-57860000D01*
X48624750Y-57860000D01*
X48633132Y-57923670D01*
X48643670Y-58003708D01*
X48643671Y-58003712D01*
X48699137Y-58137622D01*
X48699138Y-58137624D01*
X48699139Y-58137625D01*
X48787379Y-58252621D01*
X48902375Y-58340861D01*
X48902376Y-58340861D01*
X48902377Y-58340862D01*
X48926515Y-58350860D01*
X49036291Y-58396330D01*
X49163280Y-58413048D01*
X49179999Y-58415250D01*
X49180000Y-58415250D01*
X49180001Y-58415250D01*
X49194977Y-58413278D01*
X49323709Y-58396330D01*
X49457625Y-58340861D01*
X49539116Y-58278330D01*
X49604283Y-58253137D01*
X49672728Y-58267175D01*
X49722718Y-58315989D01*
X49723959Y-58318253D01*
X49736043Y-58340861D01*
X49775805Y-58415250D01*
X49791116Y-58443893D01*
X49919576Y-58600423D01*
X50076106Y-58728883D01*
X50076110Y-58728886D01*
X50204243Y-58797375D01*
X50205538Y-58798067D01*
X50255382Y-58847030D01*
X50270842Y-58915167D01*
X50247010Y-58980847D01*
X50245460Y-58982911D01*
X50169139Y-59082374D01*
X50169138Y-59082376D01*
X50113671Y-59216287D01*
X50113670Y-59216291D01*
X50098735Y-59329735D01*
X50094750Y-59360000D01*
X50108260Y-59462620D01*
X50113670Y-59503708D01*
X50113671Y-59503712D01*
X50169137Y-59637622D01*
X50169138Y-59637624D01*
X50169139Y-59637625D01*
X50257379Y-59752621D01*
X50372375Y-59840861D01*
X50372376Y-59840861D01*
X50372377Y-59840862D01*
X50389026Y-59847758D01*
X50506291Y-59896330D01*
X50633280Y-59913048D01*
X50649999Y-59915250D01*
X50650000Y-59915250D01*
X50650001Y-59915250D01*
X50664977Y-59913278D01*
X50793709Y-59896330D01*
X50927625Y-59840861D01*
X51042621Y-59752621D01*
X51130861Y-59637625D01*
X51186330Y-59503709D01*
X51205250Y-59360000D01*
X51186330Y-59216291D01*
X51130861Y-59082375D01*
X51054538Y-58982909D01*
X51029345Y-58917743D01*
X51043383Y-58849298D01*
X51092197Y-58799308D01*
X51094462Y-58798067D01*
X51095757Y-58797375D01*
X51223890Y-58728886D01*
X51380423Y-58600423D01*
X51508886Y-58443890D01*
X51575160Y-58319900D01*
X51624120Y-58270059D01*
X51692258Y-58254598D01*
X51757937Y-58278429D01*
X51760003Y-58279981D01*
X51852373Y-58350860D01*
X51852374Y-58350860D01*
X51852375Y-58350861D01*
X51986291Y-58406330D01*
X52113280Y-58423048D01*
X52129999Y-58425250D01*
X52130000Y-58425250D01*
X52130001Y-58425250D01*
X52144977Y-58423278D01*
X52273709Y-58406330D01*
X52407625Y-58350861D01*
X52522621Y-58262621D01*
X52610861Y-58147625D01*
X52666330Y-58013709D01*
X52685250Y-57870000D01*
X52683933Y-57860000D01*
X52678730Y-57820479D01*
X52666330Y-57726291D01*
X52614632Y-57601480D01*
X52610862Y-57592377D01*
X52610861Y-57592376D01*
X52610861Y-57592375D01*
X52522621Y-57477379D01*
X52407625Y-57389139D01*
X52407624Y-57389138D01*
X52407622Y-57389137D01*
X52273712Y-57333671D01*
X52273710Y-57333670D01*
X52273709Y-57333670D01*
X52201854Y-57324210D01*
X52130001Y-57314750D01*
X52129999Y-57314750D01*
X51986291Y-57333670D01*
X51986287Y-57333671D01*
X51852376Y-57389138D01*
X51852374Y-57389139D01*
X51760002Y-57460019D01*
X51694833Y-57485213D01*
X51626388Y-57471175D01*
X51576399Y-57422361D01*
X51575158Y-57420096D01*
X51508886Y-57296110D01*
X51419438Y-57187117D01*
X51380423Y-57139576D01*
X51223893Y-57011116D01*
X51223891Y-57011115D01*
X51223890Y-57011114D01*
X51133285Y-56962684D01*
X51092811Y-56941050D01*
X51042967Y-56892087D01*
X51027507Y-56823949D01*
X51051339Y-56758270D01*
X51052852Y-56756255D01*
X51120861Y-56667625D01*
X51176330Y-56533709D01*
X51195250Y-56390000D01*
X51176330Y-56246291D01*
X51120861Y-56112375D01*
X51032621Y-55997379D01*
X50917625Y-55909139D01*
X50917624Y-55909138D01*
X50917622Y-55909137D01*
X50783712Y-55853671D01*
X50783710Y-55853670D01*
X50783709Y-55853670D01*
X50711854Y-55844210D01*
X50640001Y-55834750D01*
X50639999Y-55834750D01*
X50496291Y-55853670D01*
X50496287Y-55853671D01*
X50362377Y-55909137D01*
X50247379Y-55997379D01*
X50159137Y-56112377D01*
X50103671Y-56246287D01*
X50103670Y-56246291D01*
X50093438Y-56324013D01*
X50084750Y-56390000D01*
X50101488Y-56517139D01*
X50103670Y-56533708D01*
X50103671Y-56533712D01*
X50159137Y-56667622D01*
X50159138Y-56667623D01*
X50159139Y-56667625D01*
X50232927Y-56763787D01*
X50258121Y-56828956D01*
X50244083Y-56897400D01*
X50195269Y-56947390D01*
X50193006Y-56948631D01*
X50076104Y-57011117D01*
X49919576Y-57139576D01*
X49791116Y-57296106D01*
X49731540Y-57407564D01*
X49682577Y-57457408D01*
X49614439Y-57472868D01*
X49548760Y-57449036D01*
X49546744Y-57447523D01*
X49457625Y-57379139D01*
X49457624Y-57379138D01*
X49457622Y-57379137D01*
X49323712Y-57323671D01*
X49323710Y-57323670D01*
X49323709Y-57323670D01*
X49251854Y-57314210D01*
X49180001Y-57304750D01*
X49179999Y-57304750D01*
X49036291Y-57323670D01*
X49036287Y-57323671D01*
X48902377Y-57379137D01*
X48787379Y-57467379D01*
X48699137Y-57582377D01*
X48643671Y-57716287D01*
X48643670Y-57716291D01*
X48624750Y-57860000D01*
X45996395Y-57860000D01*
X46001863Y-47470000D01*
X52644750Y-47470000D01*
X52663670Y-47613708D01*
X52663671Y-47613712D01*
X52719137Y-47747622D01*
X52719138Y-47747624D01*
X52719139Y-47747625D01*
X52807379Y-47862621D01*
X52922375Y-47950861D01*
X53056291Y-48006330D01*
X53183280Y-48023048D01*
X53199999Y-48025250D01*
X53200000Y-48025250D01*
X53200001Y-48025250D01*
X53214977Y-48023278D01*
X53343709Y-48006330D01*
X53477625Y-47950861D01*
X53549513Y-47895698D01*
X53614682Y-47870504D01*
X53683127Y-47884542D01*
X53700487Y-47895699D01*
X53772373Y-47950860D01*
X53772374Y-47950860D01*
X53772375Y-47950861D01*
X53906291Y-48006330D01*
X54033280Y-48023048D01*
X54049999Y-48025250D01*
X54050000Y-48025250D01*
X54050001Y-48025250D01*
X54064977Y-48023278D01*
X54193709Y-48006330D01*
X54327625Y-47950861D01*
X54389514Y-47903371D01*
X54454682Y-47878177D01*
X54523127Y-47892215D01*
X54540483Y-47903369D01*
X54602375Y-47950861D01*
X54736291Y-48006330D01*
X54863280Y-48023048D01*
X54879999Y-48025250D01*
X54880000Y-48025250D01*
X54880001Y-48025250D01*
X54894977Y-48023278D01*
X55023709Y-48006330D01*
X55157625Y-47950861D01*
X55272621Y-47862621D01*
X55360861Y-47747625D01*
X55416330Y-47613709D01*
X55435250Y-47470000D01*
X55416330Y-47326291D01*
X55374295Y-47224809D01*
X55360862Y-47192377D01*
X55360861Y-47192376D01*
X55360861Y-47192375D01*
X55272621Y-47077379D01*
X55157625Y-46989139D01*
X55157624Y-46989138D01*
X55157622Y-46989137D01*
X55023712Y-46933671D01*
X55023710Y-46933670D01*
X55023709Y-46933670D01*
X54951854Y-46924210D01*
X54880001Y-46914750D01*
X54879999Y-46914750D01*
X54736291Y-46933670D01*
X54736287Y-46933671D01*
X54602376Y-46989138D01*
X54602374Y-46989139D01*
X54540486Y-47036628D01*
X54475317Y-47061822D01*
X54406872Y-47047784D01*
X54389514Y-47036628D01*
X54327625Y-46989139D01*
X54327623Y-46989138D01*
X54193712Y-46933671D01*
X54193710Y-46933670D01*
X54193709Y-46933670D01*
X54121854Y-46924210D01*
X54050001Y-46914750D01*
X54049999Y-46914750D01*
X53906291Y-46933670D01*
X53906287Y-46933671D01*
X53772376Y-46989138D01*
X53772374Y-46989139D01*
X53700486Y-47044301D01*
X53635317Y-47069495D01*
X53566872Y-47055456D01*
X53549514Y-47044301D01*
X53477625Y-46989139D01*
X53477623Y-46989138D01*
X53343712Y-46933671D01*
X53343710Y-46933670D01*
X53343709Y-46933670D01*
X53271854Y-46924210D01*
X53200001Y-46914750D01*
X53199999Y-46914750D01*
X53056291Y-46933670D01*
X53056287Y-46933671D01*
X52922377Y-46989137D01*
X52807379Y-47077379D01*
X52719137Y-47192377D01*
X52663671Y-47326287D01*
X52663670Y-47326291D01*
X52644750Y-47469999D01*
X52644750Y-47470000D01*
X46001863Y-47470000D01*
X46002272Y-46693708D01*
X46002863Y-45570000D01*
X52884750Y-45570000D01*
X52902246Y-45702896D01*
X52903670Y-45713708D01*
X52903671Y-45713712D01*
X52959137Y-45847622D01*
X52959138Y-45847624D01*
X52959139Y-45847625D01*
X53047379Y-45962621D01*
X53162375Y-46050861D01*
X53162376Y-46050861D01*
X53162377Y-46050862D01*
X53199989Y-46066441D01*
X53296291Y-46106330D01*
X53423280Y-46123048D01*
X53439999Y-46125250D01*
X53440000Y-46125250D01*
X53440001Y-46125250D01*
X53454977Y-46123278D01*
X53583709Y-46106330D01*
X53717625Y-46050861D01*
X53832621Y-45962621D01*
X53920861Y-45847625D01*
X53922151Y-45844510D01*
X53923944Y-45842284D01*
X53924925Y-45840586D01*
X53925189Y-45840738D01*
X53965984Y-45790104D01*
X54032276Y-45768032D01*
X54099977Y-45785304D01*
X54147593Y-45836437D01*
X54151276Y-45844500D01*
X54169138Y-45887623D01*
X54169139Y-45887625D01*
X54257379Y-46002621D01*
X54372375Y-46090861D01*
X54506291Y-46146330D01*
X54633280Y-46163048D01*
X54649999Y-46165250D01*
X54650000Y-46165250D01*
X54650001Y-46165250D01*
X54664977Y-46163278D01*
X54793709Y-46146330D01*
X54927625Y-46090861D01*
X55042621Y-46002621D01*
X55130861Y-45887625D01*
X55130861Y-45887622D01*
X55135808Y-45881177D01*
X55137162Y-45882216D01*
X55180653Y-45840745D01*
X55249259Y-45827519D01*
X55314125Y-45853484D01*
X55335851Y-45875469D01*
X55355974Y-45901693D01*
X55379636Y-45932531D01*
X55387379Y-45942621D01*
X55502375Y-46030861D01*
X55636291Y-46086330D01*
X55763280Y-46103048D01*
X55779999Y-46105250D01*
X55780000Y-46105250D01*
X55780001Y-46105250D01*
X55794977Y-46103278D01*
X55923709Y-46086330D01*
X56057625Y-46030861D01*
X56172621Y-45942621D01*
X56260861Y-45827625D01*
X56316330Y-45693709D01*
X56335250Y-45550000D01*
X56316330Y-45406291D01*
X56274995Y-45306499D01*
X56260862Y-45272377D01*
X56260861Y-45272376D01*
X56260861Y-45272375D01*
X56172621Y-45157379D01*
X56057625Y-45069139D01*
X56057624Y-45069138D01*
X56057622Y-45069137D01*
X55923712Y-45013671D01*
X55923710Y-45013670D01*
X55923709Y-45013670D01*
X55810094Y-44998712D01*
X55780001Y-44994750D01*
X55779999Y-44994750D01*
X55636291Y-45013670D01*
X55636287Y-45013671D01*
X55502377Y-45069137D01*
X55424184Y-45129137D01*
X55387379Y-45157379D01*
X55299139Y-45272375D01*
X55299138Y-45272377D01*
X55294192Y-45278823D01*
X55292840Y-45277785D01*
X55249323Y-45319266D01*
X55180714Y-45332478D01*
X55115854Y-45306499D01*
X55094148Y-45284530D01*
X55042621Y-45217379D01*
X54927625Y-45129139D01*
X54927624Y-45129138D01*
X54927622Y-45129137D01*
X54793712Y-45073671D01*
X54793710Y-45073670D01*
X54793709Y-45073670D01*
X54721854Y-45064210D01*
X54650001Y-45054750D01*
X54649999Y-45054750D01*
X54506291Y-45073670D01*
X54506287Y-45073671D01*
X54372377Y-45129137D01*
X54297274Y-45186766D01*
X54257379Y-45217379D01*
X54169139Y-45332375D01*
X54169138Y-45332376D01*
X54169138Y-45332377D01*
X54167845Y-45335499D01*
X54166047Y-45337729D01*
X54165075Y-45339414D01*
X54164812Y-45339262D01*
X54124003Y-45389903D01*
X54057709Y-45411967D01*
X53990010Y-45394687D01*
X53942400Y-45343550D01*
X53938723Y-45335498D01*
X53920862Y-45292377D01*
X53920861Y-45292376D01*
X53920861Y-45292375D01*
X53832621Y-45177379D01*
X53717625Y-45089139D01*
X53717624Y-45089138D01*
X53717622Y-45089137D01*
X53583712Y-45033671D01*
X53583710Y-45033670D01*
X53583709Y-45033670D01*
X53511854Y-45024210D01*
X53440001Y-45014750D01*
X53439999Y-45014750D01*
X53296291Y-45033670D01*
X53296287Y-45033671D01*
X53162377Y-45089137D01*
X53047379Y-45177379D01*
X52959137Y-45292377D01*
X52903671Y-45426287D01*
X52903670Y-45426291D01*
X52894339Y-45497169D01*
X52884750Y-45570000D01*
X46002863Y-45570000D01*
X46003853Y-43690000D01*
X52644750Y-43690000D01*
X52662780Y-43826952D01*
X52663670Y-43833708D01*
X52663671Y-43833712D01*
X52719137Y-43967622D01*
X52719138Y-43967624D01*
X52719139Y-43967625D01*
X52807379Y-44082621D01*
X52922375Y-44170861D01*
X52922376Y-44170861D01*
X52922377Y-44170862D01*
X52944429Y-44179996D01*
X53056291Y-44226330D01*
X53183280Y-44243048D01*
X53199999Y-44245250D01*
X53200000Y-44245250D01*
X53200001Y-44245250D01*
X53214977Y-44243278D01*
X53343709Y-44226330D01*
X53477625Y-44170861D01*
X53567546Y-44101861D01*
X53632715Y-44076668D01*
X53701159Y-44090706D01*
X53718518Y-44101862D01*
X53743277Y-44120860D01*
X53782375Y-44150861D01*
X53916291Y-44206330D01*
X54043280Y-44223048D01*
X54059999Y-44225250D01*
X54060000Y-44225250D01*
X54060001Y-44225250D01*
X54074977Y-44223278D01*
X54203709Y-44206330D01*
X54337625Y-44150861D01*
X54409513Y-44095698D01*
X54474682Y-44070504D01*
X54543127Y-44084542D01*
X54560487Y-44095699D01*
X54632373Y-44150860D01*
X54632374Y-44150860D01*
X54632375Y-44150861D01*
X54766291Y-44206330D01*
X54893280Y-44223048D01*
X54909999Y-44225250D01*
X54910000Y-44225250D01*
X54910001Y-44225250D01*
X54924977Y-44223278D01*
X55053709Y-44206330D01*
X55187625Y-44150861D01*
X55302621Y-44062621D01*
X55390861Y-43947625D01*
X55446330Y-43813709D01*
X55465250Y-43670000D01*
X55446330Y-43526291D01*
X55390861Y-43392375D01*
X55302621Y-43277379D01*
X55187625Y-43189139D01*
X55187624Y-43189138D01*
X55187622Y-43189137D01*
X55053712Y-43133671D01*
X55053710Y-43133670D01*
X55053709Y-43133670D01*
X54981854Y-43124210D01*
X54910001Y-43114750D01*
X54909999Y-43114750D01*
X54766291Y-43133670D01*
X54766287Y-43133671D01*
X54632376Y-43189138D01*
X54632374Y-43189139D01*
X54560486Y-43244301D01*
X54495317Y-43269495D01*
X54426872Y-43255456D01*
X54409514Y-43244301D01*
X54337625Y-43189139D01*
X54337623Y-43189138D01*
X54203712Y-43133671D01*
X54203710Y-43133670D01*
X54203709Y-43133670D01*
X54131854Y-43124210D01*
X54060001Y-43114750D01*
X54059999Y-43114750D01*
X53916291Y-43133670D01*
X53916287Y-43133671D01*
X53782377Y-43189137D01*
X53742843Y-43219473D01*
X53692453Y-43258138D01*
X53627285Y-43283332D01*
X53558841Y-43269294D01*
X53541482Y-43258138D01*
X53477625Y-43209139D01*
X53477623Y-43209138D01*
X53343712Y-43153671D01*
X53343710Y-43153670D01*
X53343709Y-43153670D01*
X53271854Y-43144210D01*
X53200001Y-43134750D01*
X53199999Y-43134750D01*
X53056291Y-43153670D01*
X53056287Y-43153671D01*
X52922377Y-43209137D01*
X52807379Y-43297379D01*
X52719137Y-43412377D01*
X52663671Y-43546287D01*
X52663670Y-43546291D01*
X52650850Y-43643670D01*
X52644750Y-43690000D01*
X46003853Y-43690000D01*
X46004932Y-41640000D01*
X65534750Y-41640000D01*
X65553670Y-41783708D01*
X65553671Y-41783712D01*
X65609137Y-41917622D01*
X65609138Y-41917624D01*
X65609139Y-41917625D01*
X65697379Y-42032621D01*
X65812375Y-42120861D01*
X65812376Y-42120861D01*
X65812377Y-42120862D01*
X65821764Y-42124750D01*
X65946291Y-42176330D01*
X66066173Y-42192113D01*
X66089999Y-42195250D01*
X66090000Y-42195250D01*
X66090001Y-42195250D01*
X66113827Y-42192113D01*
X66233709Y-42176330D01*
X66367625Y-42120861D01*
X66422554Y-42078711D01*
X66487723Y-42053517D01*
X66556168Y-42067555D01*
X66573528Y-42078712D01*
X66628455Y-42120860D01*
X66628456Y-42120860D01*
X66628457Y-42120861D01*
X66762373Y-42176330D01*
X66882255Y-42192113D01*
X66906081Y-42195250D01*
X66906082Y-42195250D01*
X66906083Y-42195250D01*
X66929909Y-42192113D01*
X67049791Y-42176330D01*
X67183707Y-42120861D01*
X67298703Y-42032621D01*
X67386943Y-41917625D01*
X67442412Y-41783709D01*
X67461332Y-41640000D01*
X67442412Y-41496291D01*
X67386943Y-41362375D01*
X67341412Y-41303038D01*
X67316218Y-41237871D01*
X67330256Y-41169426D01*
X67341413Y-41152066D01*
X67345332Y-41146959D01*
X67390861Y-41087625D01*
X67446330Y-40953709D01*
X67465250Y-40810000D01*
X67446330Y-40666291D01*
X67390861Y-40532375D01*
X67302621Y-40417379D01*
X67187625Y-40329139D01*
X67187624Y-40329138D01*
X67187622Y-40329137D01*
X67053712Y-40273671D01*
X67053710Y-40273670D01*
X67053709Y-40273670D01*
X66962205Y-40261623D01*
X66910001Y-40254750D01*
X66909999Y-40254750D01*
X66766291Y-40273670D01*
X66766287Y-40273671D01*
X66632376Y-40329138D01*
X66632374Y-40329139D01*
X66577445Y-40371288D01*
X66512276Y-40396482D01*
X66443831Y-40382444D01*
X66426473Y-40371288D01*
X66371543Y-40329139D01*
X66371541Y-40329138D01*
X66237630Y-40273671D01*
X66237628Y-40273670D01*
X66237627Y-40273670D01*
X66146123Y-40261623D01*
X66093919Y-40254750D01*
X66093917Y-40254750D01*
X65950209Y-40273670D01*
X65950205Y-40273671D01*
X65816295Y-40329137D01*
X65701297Y-40417379D01*
X65613055Y-40532377D01*
X65557589Y-40666287D01*
X65557588Y-40666291D01*
X65538668Y-40810000D01*
X65550915Y-40903027D01*
X65557588Y-40953708D01*
X65557589Y-40953712D01*
X65613056Y-41087623D01*
X65613057Y-41087626D01*
X65649926Y-41135674D01*
X65656354Y-41144051D01*
X65658586Y-41146959D01*
X65683781Y-41212128D01*
X65669743Y-41280573D01*
X65658587Y-41297932D01*
X65609139Y-41362374D01*
X65609138Y-41362376D01*
X65553671Y-41496287D01*
X65553670Y-41496291D01*
X65534750Y-41639999D01*
X65534750Y-41640000D01*
X46004932Y-41640000D01*
X46006579Y-38510000D01*
X52584750Y-38510000D01*
X52602976Y-38648441D01*
X52603670Y-38653708D01*
X52603671Y-38653712D01*
X52659137Y-38787622D01*
X52659138Y-38787624D01*
X52659139Y-38787625D01*
X52747379Y-38902621D01*
X52862375Y-38990861D01*
X52996291Y-39046330D01*
X53123280Y-39063048D01*
X53139999Y-39065250D01*
X53140000Y-39065250D01*
X53140001Y-39065250D01*
X53154977Y-39063278D01*
X53283709Y-39046330D01*
X53417625Y-38990861D01*
X53489513Y-38935698D01*
X53554682Y-38910504D01*
X53623127Y-38924542D01*
X53640487Y-38935699D01*
X53712373Y-38990860D01*
X53712374Y-38990860D01*
X53712375Y-38990861D01*
X53846291Y-39046330D01*
X53973280Y-39063048D01*
X53989999Y-39065250D01*
X53990000Y-39065250D01*
X53990001Y-39065250D01*
X54004977Y-39063278D01*
X54133709Y-39046330D01*
X54267625Y-38990861D01*
X54329514Y-38943371D01*
X54394682Y-38918177D01*
X54463127Y-38932215D01*
X54480483Y-38943369D01*
X54542375Y-38990861D01*
X54676291Y-39046330D01*
X54803280Y-39063048D01*
X54819999Y-39065250D01*
X54820000Y-39065250D01*
X54820001Y-39065250D01*
X54834977Y-39063278D01*
X54963709Y-39046330D01*
X55097625Y-38990861D01*
X55212621Y-38902621D01*
X55300861Y-38787625D01*
X55356330Y-38653709D01*
X55375250Y-38510000D01*
X55356330Y-38366291D01*
X55300861Y-38232375D01*
X55212621Y-38117379D01*
X55097625Y-38029139D01*
X55097624Y-38029138D01*
X55097622Y-38029137D01*
X54963712Y-37973671D01*
X54963710Y-37973670D01*
X54963709Y-37973670D01*
X54891854Y-37964210D01*
X54820001Y-37954750D01*
X54819999Y-37954750D01*
X54676291Y-37973670D01*
X54676287Y-37973671D01*
X54542376Y-38029138D01*
X54542374Y-38029139D01*
X54480486Y-38076628D01*
X54415317Y-38101822D01*
X54346872Y-38087784D01*
X54329514Y-38076628D01*
X54267625Y-38029139D01*
X54267623Y-38029138D01*
X54133712Y-37973671D01*
X54133710Y-37973670D01*
X54133709Y-37973670D01*
X54061854Y-37964210D01*
X53990001Y-37954750D01*
X53989999Y-37954750D01*
X53846291Y-37973670D01*
X53846287Y-37973671D01*
X53712376Y-38029138D01*
X53712374Y-38029139D01*
X53640486Y-38084301D01*
X53575317Y-38109495D01*
X53506872Y-38095456D01*
X53489514Y-38084301D01*
X53417625Y-38029139D01*
X53417623Y-38029138D01*
X53283712Y-37973671D01*
X53283710Y-37973670D01*
X53283709Y-37973670D01*
X53211854Y-37964210D01*
X53140001Y-37954750D01*
X53139999Y-37954750D01*
X52996291Y-37973670D01*
X52996287Y-37973671D01*
X52862377Y-38029137D01*
X52747379Y-38117379D01*
X52659137Y-38232377D01*
X52603671Y-38366287D01*
X52603670Y-38366291D01*
X52584750Y-38510000D01*
X46006579Y-38510000D01*
X46007579Y-36610000D01*
X52824750Y-36610000D01*
X52842353Y-36743709D01*
X52843670Y-36753708D01*
X52843671Y-36753712D01*
X52899137Y-36887622D01*
X52899138Y-36887624D01*
X52899139Y-36887625D01*
X52987379Y-37002621D01*
X53102375Y-37090861D01*
X53236291Y-37146330D01*
X53363280Y-37163048D01*
X53379999Y-37165250D01*
X53380000Y-37165250D01*
X53380001Y-37165250D01*
X53394977Y-37163278D01*
X53523709Y-37146330D01*
X53657625Y-37090861D01*
X53772621Y-37002621D01*
X53860861Y-36887625D01*
X53862151Y-36884510D01*
X53863944Y-36882284D01*
X53864925Y-36880586D01*
X53865189Y-36880738D01*
X53905984Y-36830104D01*
X53972276Y-36808032D01*
X54039977Y-36825304D01*
X54087593Y-36876437D01*
X54091276Y-36884500D01*
X54109138Y-36927623D01*
X54109139Y-36927625D01*
X54197379Y-37042621D01*
X54312375Y-37130861D01*
X54446291Y-37186330D01*
X54573280Y-37203048D01*
X54589999Y-37205250D01*
X54590000Y-37205250D01*
X54590001Y-37205250D01*
X54604977Y-37203278D01*
X54733709Y-37186330D01*
X54867625Y-37130861D01*
X54982621Y-37042621D01*
X55070861Y-36927625D01*
X55070861Y-36927622D01*
X55075808Y-36921177D01*
X55077162Y-36922216D01*
X55120653Y-36880745D01*
X55189259Y-36867519D01*
X55254125Y-36893484D01*
X55275851Y-36915469D01*
X55285179Y-36927625D01*
X55305640Y-36954291D01*
X55327379Y-36982621D01*
X55442375Y-37070861D01*
X55442376Y-37070861D01*
X55442377Y-37070862D01*
X55470530Y-37082523D01*
X55576291Y-37126330D01*
X55703280Y-37143048D01*
X55719999Y-37145250D01*
X55720000Y-37145250D01*
X55720001Y-37145250D01*
X55734977Y-37143278D01*
X55863709Y-37126330D01*
X55997625Y-37070861D01*
X56112621Y-36982621D01*
X56200861Y-36867625D01*
X56256330Y-36733709D01*
X56275250Y-36590000D01*
X56256330Y-36446291D01*
X56209145Y-36332375D01*
X56200862Y-36312377D01*
X56200861Y-36312376D01*
X56200861Y-36312375D01*
X56112621Y-36197379D01*
X55997625Y-36109139D01*
X55997624Y-36109138D01*
X55997622Y-36109137D01*
X55863712Y-36053671D01*
X55863710Y-36053670D01*
X55863709Y-36053670D01*
X55791854Y-36044210D01*
X55720001Y-36034750D01*
X55719999Y-36034750D01*
X55576291Y-36053670D01*
X55576287Y-36053671D01*
X55442377Y-36109137D01*
X55364184Y-36169137D01*
X55327379Y-36197379D01*
X55239139Y-36312375D01*
X55239138Y-36312377D01*
X55234192Y-36318823D01*
X55232840Y-36317785D01*
X55189323Y-36359266D01*
X55120714Y-36372478D01*
X55055854Y-36346499D01*
X55034148Y-36324530D01*
X54982621Y-36257379D01*
X54867625Y-36169139D01*
X54867624Y-36169138D01*
X54867622Y-36169137D01*
X54733712Y-36113671D01*
X54733710Y-36113670D01*
X54733709Y-36113670D01*
X54661854Y-36104210D01*
X54590001Y-36094750D01*
X54589999Y-36094750D01*
X54446291Y-36113670D01*
X54446287Y-36113671D01*
X54312377Y-36169137D01*
X54241258Y-36223709D01*
X54197379Y-36257379D01*
X54109139Y-36372375D01*
X54109138Y-36372376D01*
X54109138Y-36372377D01*
X54107845Y-36375499D01*
X54106047Y-36377729D01*
X54105075Y-36379414D01*
X54104812Y-36379262D01*
X54064003Y-36429903D01*
X53997709Y-36451967D01*
X53930010Y-36434687D01*
X53882400Y-36383550D01*
X53878723Y-36375498D01*
X53860862Y-36332377D01*
X53860861Y-36332376D01*
X53860861Y-36332375D01*
X53772621Y-36217379D01*
X53657625Y-36129139D01*
X53657624Y-36129138D01*
X53657622Y-36129137D01*
X53523712Y-36073671D01*
X53523710Y-36073670D01*
X53523709Y-36073670D01*
X53451854Y-36064210D01*
X53380001Y-36054750D01*
X53379999Y-36054750D01*
X53236291Y-36073670D01*
X53236287Y-36073671D01*
X53102377Y-36129137D01*
X52987379Y-36217379D01*
X52899137Y-36332377D01*
X52843671Y-36466287D01*
X52843670Y-36466291D01*
X52826067Y-36600000D01*
X52824750Y-36610000D01*
X46007579Y-36610000D01*
X46008569Y-34730000D01*
X52584750Y-34730000D01*
X52601978Y-34860861D01*
X52603670Y-34873708D01*
X52603671Y-34873712D01*
X52659137Y-35007622D01*
X52659138Y-35007624D01*
X52659139Y-35007625D01*
X52747379Y-35122621D01*
X52862375Y-35210861D01*
X52996291Y-35266330D01*
X53123280Y-35283048D01*
X53139999Y-35285250D01*
X53140000Y-35285250D01*
X53140001Y-35285250D01*
X53154977Y-35283278D01*
X53283709Y-35266330D01*
X53417625Y-35210861D01*
X53507546Y-35141861D01*
X53572715Y-35116668D01*
X53641159Y-35130706D01*
X53658518Y-35141862D01*
X53658629Y-35141947D01*
X53722375Y-35190861D01*
X53856291Y-35246330D01*
X53983280Y-35263048D01*
X53999999Y-35265250D01*
X54000000Y-35265250D01*
X54000001Y-35265250D01*
X54014977Y-35263278D01*
X54143709Y-35246330D01*
X54277625Y-35190861D01*
X54349513Y-35135698D01*
X54414682Y-35110504D01*
X54483127Y-35124542D01*
X54500487Y-35135699D01*
X54572373Y-35190860D01*
X54572374Y-35190860D01*
X54572375Y-35190861D01*
X54706291Y-35246330D01*
X54833280Y-35263048D01*
X54849999Y-35265250D01*
X54850000Y-35265250D01*
X54850001Y-35265250D01*
X54864977Y-35263278D01*
X54993709Y-35246330D01*
X55127625Y-35190861D01*
X55242621Y-35102621D01*
X55330861Y-34987625D01*
X55386330Y-34853709D01*
X55405250Y-34710000D01*
X55386330Y-34566291D01*
X55330861Y-34432375D01*
X55242621Y-34317379D01*
X55127625Y-34229139D01*
X55127624Y-34229138D01*
X55127622Y-34229137D01*
X54993712Y-34173671D01*
X54993710Y-34173670D01*
X54993709Y-34173670D01*
X54921854Y-34164210D01*
X54850001Y-34154750D01*
X54849999Y-34154750D01*
X54706291Y-34173670D01*
X54706287Y-34173671D01*
X54572376Y-34229138D01*
X54572374Y-34229139D01*
X54500486Y-34284301D01*
X54435317Y-34309495D01*
X54366872Y-34295456D01*
X54349514Y-34284301D01*
X54277625Y-34229139D01*
X54277623Y-34229138D01*
X54143712Y-34173671D01*
X54143710Y-34173670D01*
X54143709Y-34173670D01*
X54071854Y-34164210D01*
X54000001Y-34154750D01*
X53999999Y-34154750D01*
X53856291Y-34173670D01*
X53856287Y-34173671D01*
X53722377Y-34229137D01*
X53686995Y-34256287D01*
X53632453Y-34298138D01*
X53567285Y-34323332D01*
X53498841Y-34309294D01*
X53481482Y-34298138D01*
X53417625Y-34249139D01*
X53417623Y-34249138D01*
X53283712Y-34193671D01*
X53283710Y-34193670D01*
X53283709Y-34193670D01*
X53179877Y-34180000D01*
X53140001Y-34174750D01*
X53139999Y-34174750D01*
X52996291Y-34193670D01*
X52996287Y-34193671D01*
X52862377Y-34249137D01*
X52747379Y-34337379D01*
X52659137Y-34452377D01*
X52603671Y-34586287D01*
X52603670Y-34586291D01*
X52594279Y-34657625D01*
X52584750Y-34730000D01*
X46008569Y-34730000D01*
X46009935Y-32133935D01*
X46029655Y-32066906D01*
X46082483Y-32021179D01*
X46133935Y-32010000D01*
X108375991Y-32010000D01*
X108443030Y-32029685D01*
G37*
G04 #@! TD.AperFunction*
M02*
