G04 #@! TF.GenerationSoftware,KiCad,Pcbnew,7.0.6*
G04 #@! TF.CreationDate,2024-04-19T17:17:32+03:00*
G04 #@! TF.ProjectId,esc,6573632e-6b69-4636-9164-5f7063625858,rev?*
G04 #@! TF.SameCoordinates,Original*
G04 #@! TF.FileFunction,Copper,L3,Inr*
G04 #@! TF.FilePolarity,Positive*
%FSLAX46Y46*%
G04 Gerber Fmt 4.6, Leading zero omitted, Abs format (unit mm)*
G04 Created by KiCad (PCBNEW 7.0.6) date 2024-04-19 17:17:32*
%MOMM*%
%LPD*%
G01*
G04 APERTURE LIST*
G04 #@! TA.AperFunction,ComponentPad*
%ADD10R,1.700000X1.700000*%
G04 #@! TD*
G04 #@! TA.AperFunction,ComponentPad*
%ADD11O,1.700000X1.700000*%
G04 #@! TD*
G04 #@! TA.AperFunction,ViaPad*
%ADD12C,0.800000*%
G04 #@! TD*
G04 APERTURE END LIST*
D10*
X81370000Y-67950000D03*
D11*
X78830000Y-67950000D03*
X76290000Y-67950000D03*
X73750000Y-67950000D03*
X71210000Y-67950000D03*
D10*
X57305000Y-67965000D03*
D11*
X57305000Y-65425000D03*
X59845000Y-67965000D03*
X59845000Y-65425000D03*
X62385000Y-67965000D03*
X62385000Y-65425000D03*
X64925000Y-67965000D03*
X64925000Y-65425000D03*
X67465000Y-67965000D03*
X67465000Y-65425000D03*
D12*
X94311500Y-54490000D03*
X88860000Y-41810000D03*
X87970000Y-42520000D03*
X93660000Y-66090000D03*
X88660000Y-53230000D03*
X89114491Y-51688500D03*
X83350000Y-54000000D03*
X84240000Y-52060000D03*
X90414256Y-48665517D03*
X81610000Y-48230500D03*
X90760000Y-49640000D03*
X81127500Y-49600000D03*
X89090000Y-46670000D03*
X77634138Y-44838777D03*
X88086095Y-46688479D03*
X87170000Y-46550000D03*
X89530000Y-48340000D03*
X75540000Y-48910000D03*
X70760000Y-51630000D03*
X75700000Y-46330000D03*
X79620000Y-56080000D03*
X77106176Y-56798265D03*
X80740000Y-53060000D03*
X78701500Y-56480000D03*
X77180000Y-44031500D03*
X67280000Y-53841500D03*
X77420000Y-57670000D03*
X75240000Y-54076500D03*
X79070000Y-51160000D03*
X78970000Y-44180000D03*
X75450000Y-44941500D03*
X76950000Y-50360000D03*
X62310000Y-60900000D03*
X63257024Y-60890760D03*
X64180000Y-60810000D03*
X59910000Y-59600000D03*
X60845653Y-58963000D03*
X60110803Y-58311500D03*
X59400000Y-57660000D03*
X61850000Y-54150000D03*
X62188300Y-53285603D03*
X62330000Y-52370000D03*
X63297681Y-52301186D03*
X64224164Y-52295158D03*
X65150000Y-52260000D03*
X66140000Y-52490000D03*
X64610000Y-46570000D03*
X65426082Y-46570000D03*
X65430000Y-45760000D03*
X64613918Y-45760000D03*
X65430000Y-44950000D03*
X64613918Y-44950000D03*
X65426082Y-44140000D03*
X64610000Y-44140000D03*
X54300000Y-35820000D03*
X53490000Y-35820000D03*
X54300000Y-36630000D03*
X53490000Y-36630000D03*
X55130000Y-35820000D03*
X54300000Y-37460000D03*
X55950000Y-37460000D03*
X55130000Y-37460000D03*
X55130000Y-36630000D03*
X55950000Y-35820000D03*
X55950000Y-36630000D03*
X53490000Y-37460000D03*
X54290000Y-44780000D03*
X53480000Y-44780000D03*
X54290000Y-45590000D03*
X53480000Y-45590000D03*
X55120000Y-44780000D03*
X54290000Y-46420000D03*
X55940000Y-46420000D03*
X55120000Y-46420000D03*
X55120000Y-45590000D03*
X55940000Y-44780000D03*
X55940000Y-45590000D03*
X53480000Y-46420000D03*
X96570000Y-61810000D03*
X96570000Y-60980000D03*
X97400000Y-61810000D03*
X97400000Y-60980000D03*
X97400000Y-60160000D03*
X96570000Y-60160000D03*
X95760000Y-60160000D03*
X95760000Y-61810000D03*
X95760000Y-60980000D03*
X96690000Y-49220000D03*
X96690000Y-48390000D03*
X97520000Y-49220000D03*
X97520000Y-48390000D03*
X97520000Y-47570000D03*
X96690000Y-47570000D03*
X95880000Y-47570000D03*
X95880000Y-49220000D03*
X95880000Y-48390000D03*
X96530000Y-36910000D03*
X97360000Y-36910000D03*
X96530000Y-35260000D03*
X95720000Y-35260000D03*
X97360000Y-35260000D03*
X96530000Y-36080000D03*
X97360000Y-36080000D03*
X95720000Y-36080000D03*
X95720000Y-36910000D03*
X52340000Y-58720000D03*
X51530000Y-57900000D03*
X54000000Y-60370000D03*
X49880000Y-58720000D03*
X53160000Y-58720000D03*
X52340000Y-59550000D03*
X53160000Y-60370000D03*
X53160000Y-57900000D03*
X49880000Y-57900000D03*
X54000000Y-58720000D03*
X51530000Y-58720000D03*
X50710000Y-57900000D03*
X54000000Y-59550000D03*
X49070000Y-58720000D03*
X52340000Y-60370000D03*
X51530000Y-60370000D03*
X50710000Y-58720000D03*
X49070000Y-57900000D03*
X52340000Y-57900000D03*
X49070000Y-54600000D03*
X53160000Y-54600000D03*
X52340000Y-54600000D03*
X49880000Y-54600000D03*
X51530000Y-54600000D03*
X50710000Y-54600000D03*
X54000000Y-55420000D03*
X50710000Y-55420000D03*
X49070000Y-55420000D03*
X49880000Y-55420000D03*
X53160000Y-55420000D03*
X52340000Y-55420000D03*
X51530000Y-55420000D03*
X54000000Y-57070000D03*
X52340000Y-56250000D03*
X54000000Y-56250000D03*
X52340000Y-57070000D03*
X53160000Y-57070000D03*
X51530000Y-57070000D03*
X49880000Y-56250000D03*
X51530000Y-56250000D03*
X50710000Y-56250000D03*
X50710000Y-57070000D03*
X49880000Y-57070000D03*
X53160000Y-56250000D03*
X49070000Y-57070000D03*
X49070000Y-56250000D03*
X54000000Y-54600000D03*
X51530000Y-59550000D03*
X50710000Y-59550000D03*
X49070000Y-60370000D03*
X53160000Y-59550000D03*
X49070000Y-59550000D03*
X54000000Y-57900000D03*
X49880000Y-60370000D03*
X50710000Y-60370000D03*
X49880000Y-59550000D03*
G04 #@! TA.AperFunction,Conductor*
G36*
X81792010Y-43719807D02*
G01*
X81837876Y-43772514D01*
X81849187Y-43825068D01*
X81827228Y-47206805D01*
X81807109Y-47273715D01*
X81754009Y-47319126D01*
X81703231Y-47330000D01*
X81515354Y-47330000D01*
X81482897Y-47336898D01*
X81330197Y-47369355D01*
X81330192Y-47369357D01*
X81157270Y-47446348D01*
X81157265Y-47446351D01*
X81004129Y-47557611D01*
X80877466Y-47698285D01*
X80782821Y-47862215D01*
X80782818Y-47862222D01*
X80734965Y-48009500D01*
X80724326Y-48042244D01*
X80704540Y-48230500D01*
X80724326Y-48418756D01*
X80724327Y-48418759D01*
X80782818Y-48598777D01*
X80782821Y-48598784D01*
X80791563Y-48613925D01*
X80808036Y-48681825D01*
X80785183Y-48747852D01*
X80734614Y-48789204D01*
X80701406Y-48803989D01*
X80674770Y-48815849D01*
X80674768Y-48815849D01*
X80674764Y-48815852D01*
X80521629Y-48927111D01*
X80394966Y-49067785D01*
X80300321Y-49231715D01*
X80300318Y-49231722D01*
X80241827Y-49411740D01*
X80241826Y-49411744D01*
X80222040Y-49600000D01*
X80241826Y-49788256D01*
X80241827Y-49788259D01*
X80300318Y-49968277D01*
X80300321Y-49968284D01*
X80394967Y-50132216D01*
X80509574Y-50259500D01*
X80521629Y-50272888D01*
X80674765Y-50384148D01*
X80674770Y-50384151D01*
X80847692Y-50461142D01*
X80847697Y-50461144D01*
X81032854Y-50500500D01*
X81032855Y-50500500D01*
X81222144Y-50500500D01*
X81222146Y-50500500D01*
X81407303Y-50461144D01*
X81580230Y-50384151D01*
X81609194Y-50363107D01*
X81674998Y-50339627D01*
X81743052Y-50355451D01*
X81791748Y-50405556D01*
X81806076Y-50464230D01*
X81792082Y-52619296D01*
X81771963Y-52686206D01*
X81718863Y-52731617D01*
X81649641Y-52741112D01*
X81586275Y-52711675D01*
X81560698Y-52680491D01*
X81559408Y-52678256D01*
X81472533Y-52527784D01*
X81345871Y-52387112D01*
X81345870Y-52387111D01*
X81192734Y-52275851D01*
X81192729Y-52275848D01*
X81019807Y-52198857D01*
X81019802Y-52198855D01*
X80874001Y-52167865D01*
X80834646Y-52159500D01*
X80645354Y-52159500D01*
X80612897Y-52166398D01*
X80460197Y-52198855D01*
X80460192Y-52198857D01*
X80287270Y-52275848D01*
X80287265Y-52275851D01*
X80134129Y-52387111D01*
X80007466Y-52527785D01*
X79912821Y-52691715D01*
X79912818Y-52691722D01*
X79858699Y-52858284D01*
X79854326Y-52871744D01*
X79834540Y-53060000D01*
X79854326Y-53248256D01*
X79854327Y-53248259D01*
X79912818Y-53428277D01*
X79912821Y-53428284D01*
X80007467Y-53592216D01*
X80062417Y-53653244D01*
X80134129Y-53732888D01*
X80287265Y-53844148D01*
X80287270Y-53844151D01*
X80460192Y-53921142D01*
X80460197Y-53921144D01*
X80645354Y-53960500D01*
X80645355Y-53960500D01*
X80834644Y-53960500D01*
X80834646Y-53960500D01*
X81019803Y-53921144D01*
X81192730Y-53844151D01*
X81345871Y-53732888D01*
X81472533Y-53592216D01*
X81554901Y-53449550D01*
X81605465Y-53401337D01*
X81674072Y-53388113D01*
X81738937Y-53414081D01*
X81779466Y-53470995D01*
X81786283Y-53512357D01*
X81779777Y-54514388D01*
X81775000Y-55250000D01*
X83401000Y-55250000D01*
X83468039Y-55269685D01*
X83513794Y-55322489D01*
X83525000Y-55374000D01*
X83525000Y-69851000D01*
X83505315Y-69918039D01*
X83452511Y-69963794D01*
X83401000Y-69975000D01*
X55624000Y-69975000D01*
X55556961Y-69955315D01*
X55511206Y-69902511D01*
X55500000Y-69851000D01*
X55500000Y-68862870D01*
X55954500Y-68862870D01*
X55954501Y-68862876D01*
X55960908Y-68922483D01*
X56011202Y-69057328D01*
X56011206Y-69057335D01*
X56097452Y-69172544D01*
X56097455Y-69172547D01*
X56212664Y-69258793D01*
X56212671Y-69258797D01*
X56347517Y-69309091D01*
X56347516Y-69309091D01*
X56354444Y-69309835D01*
X56407127Y-69315500D01*
X58202872Y-69315499D01*
X58262483Y-69309091D01*
X58397331Y-69258796D01*
X58512546Y-69172546D01*
X58598796Y-69057331D01*
X58647810Y-68925916D01*
X58689681Y-68869984D01*
X58755145Y-68845566D01*
X58823418Y-68860417D01*
X58851673Y-68881569D01*
X58973599Y-69003495D01*
X59070384Y-69071265D01*
X59167165Y-69139032D01*
X59167167Y-69139033D01*
X59167170Y-69139035D01*
X59381337Y-69238903D01*
X59609592Y-69300063D01*
X59786034Y-69315500D01*
X59844999Y-69320659D01*
X59845000Y-69320659D01*
X59845001Y-69320659D01*
X59903966Y-69315500D01*
X60080408Y-69300063D01*
X60308663Y-69238903D01*
X60522830Y-69139035D01*
X60716401Y-69003495D01*
X60883495Y-68836401D01*
X61013424Y-68650842D01*
X61068002Y-68607217D01*
X61137500Y-68600023D01*
X61199855Y-68631546D01*
X61216575Y-68650842D01*
X61346500Y-68836395D01*
X61346505Y-68836401D01*
X61513599Y-69003495D01*
X61610384Y-69071265D01*
X61707165Y-69139032D01*
X61707167Y-69139033D01*
X61707170Y-69139035D01*
X61921337Y-69238903D01*
X62149592Y-69300063D01*
X62326034Y-69315500D01*
X62384999Y-69320659D01*
X62385000Y-69320659D01*
X62385001Y-69320659D01*
X62443966Y-69315500D01*
X62620408Y-69300063D01*
X62848663Y-69238903D01*
X63062830Y-69139035D01*
X63256401Y-69003495D01*
X63423495Y-68836401D01*
X63553424Y-68650842D01*
X63608002Y-68607217D01*
X63677500Y-68600023D01*
X63739855Y-68631546D01*
X63756575Y-68650842D01*
X63886500Y-68836395D01*
X63886505Y-68836401D01*
X64053599Y-69003495D01*
X64150384Y-69071265D01*
X64247165Y-69139032D01*
X64247167Y-69139033D01*
X64247170Y-69139035D01*
X64461337Y-69238903D01*
X64689592Y-69300063D01*
X64866034Y-69315500D01*
X64924999Y-69320659D01*
X64925000Y-69320659D01*
X64925001Y-69320659D01*
X64983966Y-69315500D01*
X65160408Y-69300063D01*
X65388663Y-69238903D01*
X65602830Y-69139035D01*
X65796401Y-69003495D01*
X65963495Y-68836401D01*
X66093424Y-68650842D01*
X66148002Y-68607217D01*
X66217500Y-68600023D01*
X66279855Y-68631546D01*
X66296575Y-68650842D01*
X66426500Y-68836395D01*
X66426505Y-68836401D01*
X66593599Y-69003495D01*
X66690384Y-69071265D01*
X66787165Y-69139032D01*
X66787167Y-69139033D01*
X66787170Y-69139035D01*
X67001337Y-69238903D01*
X67229592Y-69300063D01*
X67406034Y-69315500D01*
X67464999Y-69320659D01*
X67465000Y-69320659D01*
X67465001Y-69320659D01*
X67523966Y-69315500D01*
X67700408Y-69300063D01*
X67928663Y-69238903D01*
X68142830Y-69139035D01*
X68336401Y-69003495D01*
X68503495Y-68836401D01*
X68639035Y-68642830D01*
X68738903Y-68428663D01*
X68800063Y-68200408D01*
X68820659Y-67965000D01*
X68819347Y-67950000D01*
X69854341Y-67950000D01*
X69874936Y-68185403D01*
X69874938Y-68185413D01*
X69936094Y-68413655D01*
X69936096Y-68413659D01*
X69936097Y-68413663D01*
X70016004Y-68585023D01*
X70035965Y-68627830D01*
X70035967Y-68627834D01*
X70052078Y-68650842D01*
X70171505Y-68821401D01*
X70338599Y-68988495D01*
X70435384Y-69056265D01*
X70532165Y-69124032D01*
X70532167Y-69124033D01*
X70532170Y-69124035D01*
X70746337Y-69223903D01*
X70974592Y-69285063D01*
X71146016Y-69300061D01*
X71209999Y-69305659D01*
X71210000Y-69305659D01*
X71210001Y-69305659D01*
X71249234Y-69302226D01*
X71445408Y-69285063D01*
X71673663Y-69223903D01*
X71887830Y-69124035D01*
X72081401Y-68988495D01*
X72248495Y-68821401D01*
X72378424Y-68635842D01*
X72433002Y-68592217D01*
X72502500Y-68585023D01*
X72564855Y-68616546D01*
X72581575Y-68635842D01*
X72711500Y-68821395D01*
X72711505Y-68821401D01*
X72878599Y-68988495D01*
X72975384Y-69056265D01*
X73072165Y-69124032D01*
X73072167Y-69124033D01*
X73072170Y-69124035D01*
X73286337Y-69223903D01*
X73514592Y-69285063D01*
X73686016Y-69300061D01*
X73749999Y-69305659D01*
X73750000Y-69305659D01*
X73750001Y-69305659D01*
X73789234Y-69302226D01*
X73985408Y-69285063D01*
X74213663Y-69223903D01*
X74427830Y-69124035D01*
X74621401Y-68988495D01*
X74788495Y-68821401D01*
X74918424Y-68635842D01*
X74973002Y-68592217D01*
X75042500Y-68585023D01*
X75104855Y-68616546D01*
X75121575Y-68635842D01*
X75251500Y-68821395D01*
X75251505Y-68821401D01*
X75418599Y-68988495D01*
X75515384Y-69056265D01*
X75612165Y-69124032D01*
X75612167Y-69124033D01*
X75612170Y-69124035D01*
X75826337Y-69223903D01*
X76054592Y-69285063D01*
X76226016Y-69300061D01*
X76289999Y-69305659D01*
X76290000Y-69305659D01*
X76290001Y-69305659D01*
X76329234Y-69302226D01*
X76525408Y-69285063D01*
X76753663Y-69223903D01*
X76967830Y-69124035D01*
X77161401Y-68988495D01*
X77328495Y-68821401D01*
X77458424Y-68635842D01*
X77513002Y-68592217D01*
X77582500Y-68585023D01*
X77644855Y-68616546D01*
X77661575Y-68635842D01*
X77791500Y-68821395D01*
X77791505Y-68821401D01*
X77958599Y-68988495D01*
X78055384Y-69056265D01*
X78152165Y-69124032D01*
X78152167Y-69124033D01*
X78152170Y-69124035D01*
X78366337Y-69223903D01*
X78594592Y-69285063D01*
X78766016Y-69300061D01*
X78829999Y-69305659D01*
X78830000Y-69305659D01*
X78830001Y-69305659D01*
X78869234Y-69302226D01*
X79065408Y-69285063D01*
X79293663Y-69223903D01*
X79507830Y-69124035D01*
X79701401Y-68988495D01*
X79868495Y-68821401D01*
X80004035Y-68627830D01*
X80103903Y-68413663D01*
X80165063Y-68185408D01*
X80185659Y-67950000D01*
X80165063Y-67714592D01*
X80107922Y-67501335D01*
X80103905Y-67486344D01*
X80103904Y-67486343D01*
X80103903Y-67486337D01*
X80004035Y-67272171D01*
X79998425Y-67264158D01*
X79868494Y-67078597D01*
X79701402Y-66911506D01*
X79701395Y-66911501D01*
X79507834Y-66775967D01*
X79507830Y-66775965D01*
X79468129Y-66757452D01*
X79293663Y-66676097D01*
X79293659Y-66676096D01*
X79293655Y-66676094D01*
X79065413Y-66614938D01*
X79065403Y-66614936D01*
X78830001Y-66594341D01*
X78829999Y-66594341D01*
X78594596Y-66614936D01*
X78594586Y-66614938D01*
X78366344Y-66676094D01*
X78366335Y-66676098D01*
X78152171Y-66775964D01*
X78152169Y-66775965D01*
X77958597Y-66911505D01*
X77791505Y-67078597D01*
X77661575Y-67264158D01*
X77606998Y-67307783D01*
X77537500Y-67314977D01*
X77475145Y-67283454D01*
X77458425Y-67264158D01*
X77328494Y-67078597D01*
X77161402Y-66911506D01*
X77161395Y-66911501D01*
X76967834Y-66775967D01*
X76967830Y-66775965D01*
X76928129Y-66757452D01*
X76753663Y-66676097D01*
X76753659Y-66676096D01*
X76753655Y-66676094D01*
X76525413Y-66614938D01*
X76525403Y-66614936D01*
X76290001Y-66594341D01*
X76289999Y-66594341D01*
X76054596Y-66614936D01*
X76054586Y-66614938D01*
X75826344Y-66676094D01*
X75826335Y-66676098D01*
X75612171Y-66775964D01*
X75612169Y-66775965D01*
X75418597Y-66911505D01*
X75251505Y-67078597D01*
X75121575Y-67264158D01*
X75066998Y-67307783D01*
X74997500Y-67314977D01*
X74935145Y-67283454D01*
X74918425Y-67264158D01*
X74788494Y-67078597D01*
X74621402Y-66911506D01*
X74621395Y-66911501D01*
X74427834Y-66775967D01*
X74427830Y-66775965D01*
X74388129Y-66757452D01*
X74213663Y-66676097D01*
X74213659Y-66676096D01*
X74213655Y-66676094D01*
X73985413Y-66614938D01*
X73985403Y-66614936D01*
X73750001Y-66594341D01*
X73749999Y-66594341D01*
X73514596Y-66614936D01*
X73514586Y-66614938D01*
X73286344Y-66676094D01*
X73286335Y-66676098D01*
X73072171Y-66775964D01*
X73072169Y-66775965D01*
X72878597Y-66911505D01*
X72711505Y-67078597D01*
X72581575Y-67264158D01*
X72526998Y-67307783D01*
X72457500Y-67314977D01*
X72395145Y-67283454D01*
X72378425Y-67264158D01*
X72248494Y-67078597D01*
X72081402Y-66911506D01*
X72081395Y-66911501D01*
X71887834Y-66775967D01*
X71887830Y-66775965D01*
X71848129Y-66757452D01*
X71673663Y-66676097D01*
X71673659Y-66676096D01*
X71673655Y-66676094D01*
X71445413Y-66614938D01*
X71445403Y-66614936D01*
X71210001Y-66594341D01*
X71209999Y-66594341D01*
X70974596Y-66614936D01*
X70974586Y-66614938D01*
X70746344Y-66676094D01*
X70746335Y-66676098D01*
X70532171Y-66775964D01*
X70532169Y-66775965D01*
X70338597Y-66911505D01*
X70171505Y-67078597D01*
X70035965Y-67272169D01*
X70035964Y-67272171D01*
X69936098Y-67486335D01*
X69936094Y-67486344D01*
X69874938Y-67714586D01*
X69874936Y-67714596D01*
X69854341Y-67949999D01*
X69854341Y-67950000D01*
X68819347Y-67950000D01*
X68800063Y-67729592D01*
X68738903Y-67501337D01*
X68639035Y-67287171D01*
X68636433Y-67283454D01*
X68503494Y-67093597D01*
X68336402Y-66926506D01*
X68336401Y-66926505D01*
X68150842Y-66796575D01*
X68150841Y-66796574D01*
X68107216Y-66741997D01*
X68100024Y-66672498D01*
X68131546Y-66610144D01*
X68150836Y-66593428D01*
X68336401Y-66463495D01*
X68503495Y-66296401D01*
X68639035Y-66102830D01*
X68738903Y-65888663D01*
X68800063Y-65660408D01*
X68820659Y-65425000D01*
X68800063Y-65189592D01*
X68738903Y-64961337D01*
X68639035Y-64747171D01*
X68633425Y-64739158D01*
X68503494Y-64553597D01*
X68336402Y-64386506D01*
X68336395Y-64386501D01*
X68142834Y-64250967D01*
X68142830Y-64250965D01*
X68142829Y-64250964D01*
X67928663Y-64151097D01*
X67928659Y-64151096D01*
X67928655Y-64151094D01*
X67700413Y-64089938D01*
X67700403Y-64089936D01*
X67465001Y-64069341D01*
X67464999Y-64069341D01*
X67229596Y-64089936D01*
X67229586Y-64089938D01*
X67001344Y-64151094D01*
X67001335Y-64151098D01*
X66787171Y-64250964D01*
X66787169Y-64250965D01*
X66593597Y-64386505D01*
X66426505Y-64553597D01*
X66296575Y-64739158D01*
X66241998Y-64782783D01*
X66172500Y-64789977D01*
X66110145Y-64758454D01*
X66093425Y-64739158D01*
X65963494Y-64553597D01*
X65796402Y-64386506D01*
X65796395Y-64386501D01*
X65602834Y-64250967D01*
X65602830Y-64250965D01*
X65602830Y-64250964D01*
X65388663Y-64151097D01*
X65388659Y-64151096D01*
X65388655Y-64151094D01*
X65160413Y-64089938D01*
X65160403Y-64089936D01*
X64925001Y-64069341D01*
X64924999Y-64069341D01*
X64689596Y-64089936D01*
X64689586Y-64089938D01*
X64461344Y-64151094D01*
X64461335Y-64151098D01*
X64247171Y-64250964D01*
X64247169Y-64250965D01*
X64053597Y-64386505D01*
X63886505Y-64553597D01*
X63756575Y-64739158D01*
X63701998Y-64782783D01*
X63632500Y-64789977D01*
X63570145Y-64758454D01*
X63553425Y-64739158D01*
X63423494Y-64553597D01*
X63256402Y-64386506D01*
X63256395Y-64386501D01*
X63062834Y-64250967D01*
X63062830Y-64250965D01*
X63062829Y-64250964D01*
X62848663Y-64151097D01*
X62848659Y-64151096D01*
X62848655Y-64151094D01*
X62620413Y-64089938D01*
X62620403Y-64089936D01*
X62385001Y-64069341D01*
X62384999Y-64069341D01*
X62149596Y-64089936D01*
X62149586Y-64089938D01*
X61921344Y-64151094D01*
X61921335Y-64151098D01*
X61707171Y-64250964D01*
X61707169Y-64250965D01*
X61513597Y-64386505D01*
X61346505Y-64553597D01*
X61216575Y-64739158D01*
X61161998Y-64782783D01*
X61092500Y-64789977D01*
X61030145Y-64758454D01*
X61013425Y-64739158D01*
X60883494Y-64553597D01*
X60716402Y-64386506D01*
X60716395Y-64386501D01*
X60522834Y-64250967D01*
X60522830Y-64250965D01*
X60522829Y-64250964D01*
X60308663Y-64151097D01*
X60308659Y-64151096D01*
X60308655Y-64151094D01*
X60080413Y-64089938D01*
X60080403Y-64089936D01*
X59845001Y-64069341D01*
X59844999Y-64069341D01*
X59609596Y-64089936D01*
X59609586Y-64089938D01*
X59381344Y-64151094D01*
X59381335Y-64151098D01*
X59167171Y-64250964D01*
X59167169Y-64250965D01*
X58973597Y-64386505D01*
X58806505Y-64553597D01*
X58670965Y-64747169D01*
X58670964Y-64747171D01*
X58571098Y-64961335D01*
X58571094Y-64961344D01*
X58509938Y-65189586D01*
X58509936Y-65189596D01*
X58489341Y-65424999D01*
X58489341Y-65425000D01*
X58509936Y-65660403D01*
X58509938Y-65660413D01*
X58571094Y-65888655D01*
X58571096Y-65888659D01*
X58571097Y-65888663D01*
X58575000Y-65897032D01*
X58670965Y-66102830D01*
X58670967Y-66102834D01*
X58779281Y-66257521D01*
X58806504Y-66296400D01*
X58806506Y-66296402D01*
X58973597Y-66463493D01*
X58973603Y-66463498D01*
X59159158Y-66593425D01*
X59202783Y-66648002D01*
X59209977Y-66717500D01*
X59178454Y-66779855D01*
X59159158Y-66796575D01*
X58973600Y-66926503D01*
X58851673Y-67048430D01*
X58790350Y-67081914D01*
X58720658Y-67076930D01*
X58664725Y-67035058D01*
X58647810Y-67004081D01*
X58598797Y-66872671D01*
X58598793Y-66872664D01*
X58512547Y-66757455D01*
X58512544Y-66757452D01*
X58397335Y-66671206D01*
X58397328Y-66671202D01*
X58262482Y-66620908D01*
X58262483Y-66620908D01*
X58202883Y-66614501D01*
X58202881Y-66614500D01*
X58202873Y-66614500D01*
X58202864Y-66614500D01*
X56407129Y-66614500D01*
X56407123Y-66614501D01*
X56347516Y-66620908D01*
X56212671Y-66671202D01*
X56212664Y-66671206D01*
X56097455Y-66757452D01*
X56097452Y-66757455D01*
X56011206Y-66872664D01*
X56011202Y-66872671D01*
X55960908Y-67007517D01*
X55954501Y-67067116D01*
X55954500Y-67067135D01*
X55954500Y-68862870D01*
X55500000Y-68862870D01*
X55500000Y-60900000D01*
X61404540Y-60900000D01*
X61424326Y-61088256D01*
X61424327Y-61088259D01*
X61482818Y-61268277D01*
X61482821Y-61268284D01*
X61577467Y-61432216D01*
X61704129Y-61572888D01*
X61857265Y-61684148D01*
X61857270Y-61684151D01*
X62030192Y-61761142D01*
X62030197Y-61761144D01*
X62215354Y-61800500D01*
X62215355Y-61800500D01*
X62404644Y-61800500D01*
X62404646Y-61800500D01*
X62589803Y-61761144D01*
X62743452Y-61692733D01*
X62812702Y-61683449D01*
X62844324Y-61692734D01*
X62977216Y-61751902D01*
X62977221Y-61751904D01*
X63162378Y-61791260D01*
X63162379Y-61791260D01*
X63351668Y-61791260D01*
X63351670Y-61791260D01*
X63536827Y-61751904D01*
X63709754Y-61674911D01*
X63727410Y-61662082D01*
X63793214Y-61638602D01*
X63850732Y-61649121D01*
X63900192Y-61671142D01*
X63900197Y-61671144D01*
X64085354Y-61710500D01*
X64085355Y-61710500D01*
X64274644Y-61710500D01*
X64274646Y-61710500D01*
X64459803Y-61671144D01*
X64632730Y-61594151D01*
X64785871Y-61482888D01*
X64912533Y-61342216D01*
X65007179Y-61178284D01*
X65065674Y-60998256D01*
X65085460Y-60810000D01*
X65065674Y-60621744D01*
X65007179Y-60441716D01*
X64912533Y-60277784D01*
X64785871Y-60137112D01*
X64785870Y-60137111D01*
X64632734Y-60025851D01*
X64632729Y-60025848D01*
X64459807Y-59948857D01*
X64459802Y-59948855D01*
X64314000Y-59917865D01*
X64274646Y-59909500D01*
X64085354Y-59909500D01*
X64052897Y-59916398D01*
X63900197Y-59948855D01*
X63900192Y-59948857D01*
X63727269Y-60025849D01*
X63709608Y-60038680D01*
X63643801Y-60062157D01*
X63586292Y-60051639D01*
X63536826Y-60029615D01*
X63391024Y-59998625D01*
X63351670Y-59990260D01*
X63162378Y-59990260D01*
X63118907Y-59999500D01*
X62977223Y-60029615D01*
X62823571Y-60098026D01*
X62754321Y-60107310D01*
X62722699Y-60098025D01*
X62589807Y-60038857D01*
X62589802Y-60038855D01*
X62444000Y-60007865D01*
X62404646Y-59999500D01*
X62215354Y-59999500D01*
X62182897Y-60006398D01*
X62030197Y-60038855D01*
X62030192Y-60038857D01*
X61857270Y-60115848D01*
X61857265Y-60115851D01*
X61704129Y-60227111D01*
X61577466Y-60367785D01*
X61482821Y-60531715D01*
X61482818Y-60531722D01*
X61424327Y-60711740D01*
X61424326Y-60711744D01*
X61404540Y-60900000D01*
X55500000Y-60900000D01*
X55500000Y-57660000D01*
X58494540Y-57660000D01*
X58514326Y-57848256D01*
X58514327Y-57848259D01*
X58572818Y-58028277D01*
X58572821Y-58028284D01*
X58667467Y-58192216D01*
X58755613Y-58290112D01*
X58794129Y-58332888D01*
X58947265Y-58444148D01*
X58947270Y-58444151D01*
X59120192Y-58521142D01*
X59120193Y-58521142D01*
X59120197Y-58521144D01*
X59170352Y-58531804D01*
X59231832Y-58564995D01*
X59262501Y-58614775D01*
X59283622Y-58679780D01*
X59283623Y-58679781D01*
X59283624Y-58679784D01*
X59326885Y-58754715D01*
X59334456Y-58767828D01*
X59350928Y-58835728D01*
X59328075Y-58901755D01*
X59308151Y-58921879D01*
X59308953Y-58922769D01*
X59304123Y-58927116D01*
X59177466Y-59067785D01*
X59082821Y-59231715D01*
X59082818Y-59231722D01*
X59050471Y-59331277D01*
X59024326Y-59411744D01*
X59004540Y-59600000D01*
X59024326Y-59788256D01*
X59024327Y-59788259D01*
X59082818Y-59968277D01*
X59082821Y-59968284D01*
X59177467Y-60132216D01*
X59262911Y-60227111D01*
X59304129Y-60272888D01*
X59457265Y-60384148D01*
X59457270Y-60384151D01*
X59630192Y-60461142D01*
X59630197Y-60461144D01*
X59815354Y-60500500D01*
X59815355Y-60500500D01*
X60004644Y-60500500D01*
X60004646Y-60500500D01*
X60189803Y-60461144D01*
X60362730Y-60384151D01*
X60515871Y-60272888D01*
X60642533Y-60132216D01*
X60737179Y-59968284D01*
X60743385Y-59949182D01*
X60782824Y-59891506D01*
X60847182Y-59864308D01*
X60861317Y-59863500D01*
X60940297Y-59863500D01*
X60940299Y-59863500D01*
X61125456Y-59824144D01*
X61298383Y-59747151D01*
X61451524Y-59635888D01*
X61578186Y-59495216D01*
X61672832Y-59331284D01*
X61731327Y-59151256D01*
X61751113Y-58963000D01*
X61731327Y-58774744D01*
X61672832Y-58594716D01*
X61578186Y-58430784D01*
X61451524Y-58290112D01*
X61451523Y-58290111D01*
X61298387Y-58178851D01*
X61298382Y-58178848D01*
X61125460Y-58101857D01*
X61125456Y-58101856D01*
X61049469Y-58085704D01*
X60987988Y-58052511D01*
X60957320Y-58002732D01*
X60937984Y-57943221D01*
X60937981Y-57943215D01*
X60888930Y-57858256D01*
X60843336Y-57779284D01*
X60716674Y-57638612D01*
X60716673Y-57638611D01*
X60563537Y-57527351D01*
X60563532Y-57527348D01*
X60390610Y-57450357D01*
X60390608Y-57450356D01*
X60340449Y-57439694D01*
X60278968Y-57406500D01*
X60248301Y-57356722D01*
X60227181Y-57291721D01*
X60227178Y-57291715D01*
X60211264Y-57264151D01*
X60132533Y-57127784D01*
X60005871Y-56987112D01*
X60005058Y-56986521D01*
X59852734Y-56875851D01*
X59852729Y-56875848D01*
X59679807Y-56798857D01*
X59679802Y-56798855D01*
X59677026Y-56798265D01*
X76200716Y-56798265D01*
X76220502Y-56986521D01*
X76220503Y-56986524D01*
X76278994Y-57166542D01*
X76278997Y-57166549D01*
X76373643Y-57330481D01*
X76468252Y-57435555D01*
X76494824Y-57465066D01*
X76525054Y-57528057D01*
X76525995Y-57560998D01*
X76515591Y-57659999D01*
X76514540Y-57670000D01*
X76534326Y-57858256D01*
X76534327Y-57858259D01*
X76592818Y-58038277D01*
X76592821Y-58038284D01*
X76687467Y-58202216D01*
X76766609Y-58290112D01*
X76814129Y-58342888D01*
X76967265Y-58454148D01*
X76967270Y-58454151D01*
X77140192Y-58531142D01*
X77140197Y-58531144D01*
X77325354Y-58570500D01*
X77325355Y-58570500D01*
X77514644Y-58570500D01*
X77514646Y-58570500D01*
X77699803Y-58531144D01*
X77872730Y-58454151D01*
X78025871Y-58342888D01*
X78152533Y-58202216D01*
X78247179Y-58038284D01*
X78305674Y-57858256D01*
X78325460Y-57670000D01*
X78305746Y-57482437D01*
X78318315Y-57413712D01*
X78366047Y-57362688D01*
X78433787Y-57345570D01*
X78454843Y-57348189D01*
X78606854Y-57380500D01*
X78606855Y-57380500D01*
X78796144Y-57380500D01*
X78796146Y-57380500D01*
X78981303Y-57341144D01*
X79154230Y-57264151D01*
X79307371Y-57152888D01*
X79425740Y-57021425D01*
X79485227Y-56984777D01*
X79518855Y-56982060D01*
X79518855Y-56980500D01*
X79714644Y-56980500D01*
X79714646Y-56980500D01*
X79899803Y-56941144D01*
X80072730Y-56864151D01*
X80225871Y-56752888D01*
X80352533Y-56612216D01*
X80447179Y-56448284D01*
X80505674Y-56268256D01*
X80525460Y-56080000D01*
X80505674Y-55891744D01*
X80447179Y-55711716D01*
X80352533Y-55547784D01*
X80225871Y-55407112D01*
X80225867Y-55407109D01*
X80072734Y-55295851D01*
X80072729Y-55295848D01*
X79899807Y-55218857D01*
X79899802Y-55218855D01*
X79754001Y-55187865D01*
X79714646Y-55179500D01*
X79525354Y-55179500D01*
X79492897Y-55186398D01*
X79340197Y-55218855D01*
X79340192Y-55218857D01*
X79167270Y-55295848D01*
X79167265Y-55295851D01*
X79014132Y-55407109D01*
X78895760Y-55538574D01*
X78836273Y-55575222D01*
X78802644Y-55577958D01*
X78802644Y-55579500D01*
X78796146Y-55579500D01*
X78606854Y-55579500D01*
X78574397Y-55586398D01*
X78421697Y-55618855D01*
X78421692Y-55618857D01*
X78248770Y-55695848D01*
X78248765Y-55695851D01*
X78095629Y-55807111D01*
X77968965Y-55947785D01*
X77889668Y-56085133D01*
X77839101Y-56133349D01*
X77770494Y-56146572D01*
X77709396Y-56123451D01*
X77558910Y-56014116D01*
X77558905Y-56014113D01*
X77385983Y-55937122D01*
X77385978Y-55937120D01*
X77240177Y-55906130D01*
X77200822Y-55897765D01*
X77011530Y-55897765D01*
X76979073Y-55904663D01*
X76826373Y-55937120D01*
X76826368Y-55937122D01*
X76653446Y-56014113D01*
X76653441Y-56014116D01*
X76500305Y-56125376D01*
X76373642Y-56266050D01*
X76278997Y-56429980D01*
X76278994Y-56429987D01*
X76220503Y-56610005D01*
X76220502Y-56610009D01*
X76200716Y-56798265D01*
X59677026Y-56798265D01*
X59534000Y-56767865D01*
X59494646Y-56759500D01*
X59305354Y-56759500D01*
X59272897Y-56766398D01*
X59120197Y-56798855D01*
X59120192Y-56798857D01*
X58947270Y-56875848D01*
X58947265Y-56875851D01*
X58794129Y-56987111D01*
X58667466Y-57127785D01*
X58572821Y-57291715D01*
X58572818Y-57291722D01*
X58514518Y-57471153D01*
X58514326Y-57471744D01*
X58494540Y-57660000D01*
X55500000Y-57660000D01*
X55500000Y-54150000D01*
X60944540Y-54150000D01*
X60964326Y-54338256D01*
X60964327Y-54338259D01*
X61022818Y-54518277D01*
X61022821Y-54518284D01*
X61117467Y-54682216D01*
X61209250Y-54784151D01*
X61244129Y-54822888D01*
X61397265Y-54934148D01*
X61397270Y-54934151D01*
X61570192Y-55011142D01*
X61570197Y-55011144D01*
X61755354Y-55050500D01*
X61755355Y-55050500D01*
X61944644Y-55050500D01*
X61944646Y-55050500D01*
X62129803Y-55011144D01*
X62302730Y-54934151D01*
X62455871Y-54822888D01*
X62582533Y-54682216D01*
X62677179Y-54518284D01*
X62735674Y-54338256D01*
X62755460Y-54150000D01*
X62746989Y-54069405D01*
X62759558Y-54000677D01*
X62790565Y-53964199D01*
X62789341Y-53962840D01*
X62794165Y-53958494D01*
X62794171Y-53958491D01*
X62920833Y-53817819D01*
X63015479Y-53653887D01*
X63073974Y-53473859D01*
X63090909Y-53312723D01*
X63117493Y-53248110D01*
X63174791Y-53208125D01*
X63214230Y-53201686D01*
X63392325Y-53201686D01*
X63392327Y-53201686D01*
X63577484Y-53162330D01*
X63717259Y-53100097D01*
X63786504Y-53090812D01*
X63818122Y-53100096D01*
X63944361Y-53156302D01*
X64129518Y-53195658D01*
X64129519Y-53195658D01*
X64318808Y-53195658D01*
X64318810Y-53195658D01*
X64503967Y-53156302D01*
X64676131Y-53079648D01*
X64745378Y-53070364D01*
X64776995Y-53079647D01*
X64870197Y-53121144D01*
X65055354Y-53160500D01*
X65055355Y-53160500D01*
X65244644Y-53160500D01*
X65244646Y-53160500D01*
X65415796Y-53124121D01*
X65485461Y-53129437D01*
X65528813Y-53159080D01*
X65529300Y-53158540D01*
X65533334Y-53162172D01*
X65533727Y-53162441D01*
X65534130Y-53162889D01*
X65687265Y-53274148D01*
X65687270Y-53274151D01*
X65860192Y-53351142D01*
X65860197Y-53351144D01*
X66045354Y-53390500D01*
X66045355Y-53390500D01*
X66234644Y-53390500D01*
X66234646Y-53390500D01*
X66287797Y-53379202D01*
X66357461Y-53384517D01*
X66413195Y-53426654D01*
X66437301Y-53492234D01*
X66431507Y-53538809D01*
X66394327Y-53653239D01*
X66394327Y-53653240D01*
X66394326Y-53653244D01*
X66374540Y-53841500D01*
X66394326Y-54029756D01*
X66394327Y-54029759D01*
X66452818Y-54209777D01*
X66452821Y-54209784D01*
X66547467Y-54373716D01*
X66611451Y-54444777D01*
X66674129Y-54514388D01*
X66827265Y-54625648D01*
X66827270Y-54625651D01*
X67000192Y-54702642D01*
X67000197Y-54702644D01*
X67185354Y-54742000D01*
X67185355Y-54742000D01*
X67374644Y-54742000D01*
X67374646Y-54742000D01*
X67559803Y-54702644D01*
X67732730Y-54625651D01*
X67885871Y-54514388D01*
X68012533Y-54373716D01*
X68107179Y-54209784D01*
X68150486Y-54076500D01*
X74334540Y-54076500D01*
X74354326Y-54264756D01*
X74354327Y-54264759D01*
X74412818Y-54444777D01*
X74412821Y-54444784D01*
X74507467Y-54608716D01*
X74627477Y-54742000D01*
X74634129Y-54749388D01*
X74787265Y-54860648D01*
X74787270Y-54860651D01*
X74960192Y-54937642D01*
X74960197Y-54937644D01*
X75145354Y-54977000D01*
X75145355Y-54977000D01*
X75334644Y-54977000D01*
X75334646Y-54977000D01*
X75519803Y-54937644D01*
X75692730Y-54860651D01*
X75845871Y-54749388D01*
X75972533Y-54608716D01*
X76067179Y-54444784D01*
X76125674Y-54264756D01*
X76145460Y-54076500D01*
X76125674Y-53888244D01*
X76067179Y-53708216D01*
X75972533Y-53544284D01*
X75845871Y-53403612D01*
X75827824Y-53390500D01*
X75692734Y-53292351D01*
X75692729Y-53292348D01*
X75519807Y-53215357D01*
X75519802Y-53215355D01*
X75374001Y-53184365D01*
X75334646Y-53176000D01*
X75145354Y-53176000D01*
X75112897Y-53182898D01*
X74960197Y-53215355D01*
X74960192Y-53215357D01*
X74787270Y-53292348D01*
X74787265Y-53292351D01*
X74634129Y-53403611D01*
X74507466Y-53544285D01*
X74412821Y-53708215D01*
X74412818Y-53708222D01*
X74354327Y-53888240D01*
X74354326Y-53888244D01*
X74334540Y-54076500D01*
X68150486Y-54076500D01*
X68165674Y-54029756D01*
X68185460Y-53841500D01*
X68165674Y-53653244D01*
X68107179Y-53473216D01*
X68012533Y-53309284D01*
X67885871Y-53168612D01*
X67877993Y-53162888D01*
X67732734Y-53057351D01*
X67732729Y-53057348D01*
X67559807Y-52980357D01*
X67559802Y-52980355D01*
X67414001Y-52949365D01*
X67374646Y-52941000D01*
X67185354Y-52941000D01*
X67132201Y-52952297D01*
X67062536Y-52946981D01*
X67006803Y-52904843D01*
X66982698Y-52839263D01*
X66988491Y-52792690D01*
X67025674Y-52678256D01*
X67045460Y-52490000D01*
X67025674Y-52301744D01*
X66967179Y-52121716D01*
X66872533Y-51957784D01*
X66745871Y-51817112D01*
X66745870Y-51817111D01*
X66592734Y-51705851D01*
X66592729Y-51705848D01*
X66422374Y-51630000D01*
X69854540Y-51630000D01*
X69874326Y-51818256D01*
X69874327Y-51818259D01*
X69932818Y-51998277D01*
X69932821Y-51998284D01*
X70027467Y-52162216D01*
X70060458Y-52198856D01*
X70154129Y-52302888D01*
X70307265Y-52414148D01*
X70307270Y-52414151D01*
X70480192Y-52491142D01*
X70480197Y-52491144D01*
X70665354Y-52530500D01*
X70665355Y-52530500D01*
X70854644Y-52530500D01*
X70854646Y-52530500D01*
X71039803Y-52491144D01*
X71212730Y-52414151D01*
X71365871Y-52302888D01*
X71492533Y-52162216D01*
X71587179Y-51998284D01*
X71645674Y-51818256D01*
X71665460Y-51630000D01*
X71645674Y-51441744D01*
X71587179Y-51261716D01*
X71492533Y-51097784D01*
X71365871Y-50957112D01*
X71365870Y-50957111D01*
X71212734Y-50845851D01*
X71212729Y-50845848D01*
X71039807Y-50768857D01*
X71039802Y-50768855D01*
X70894001Y-50737865D01*
X70854646Y-50729500D01*
X70665354Y-50729500D01*
X70632897Y-50736398D01*
X70480197Y-50768855D01*
X70480192Y-50768857D01*
X70307270Y-50845848D01*
X70307265Y-50845851D01*
X70154129Y-50957111D01*
X70027466Y-51097785D01*
X69932821Y-51261715D01*
X69932818Y-51261722D01*
X69874327Y-51441740D01*
X69874326Y-51441744D01*
X69854540Y-51630000D01*
X66422374Y-51630000D01*
X66419807Y-51628857D01*
X66419802Y-51628855D01*
X66274001Y-51597865D01*
X66234646Y-51589500D01*
X66045354Y-51589500D01*
X66045353Y-51589500D01*
X65874204Y-51625878D01*
X65804537Y-51620562D01*
X65761187Y-51590918D01*
X65760700Y-51591460D01*
X65756662Y-51587824D01*
X65756272Y-51587558D01*
X65755871Y-51587112D01*
X65674901Y-51528284D01*
X65602734Y-51475851D01*
X65602729Y-51475848D01*
X65429807Y-51398857D01*
X65429802Y-51398855D01*
X65284000Y-51367865D01*
X65244646Y-51359500D01*
X65055354Y-51359500D01*
X65022897Y-51366398D01*
X64870197Y-51398855D01*
X64870192Y-51398857D01*
X64698035Y-51475508D01*
X64628785Y-51484793D01*
X64597163Y-51475508D01*
X64503970Y-51434015D01*
X64503966Y-51434013D01*
X64358165Y-51403023D01*
X64318810Y-51394658D01*
X64129518Y-51394658D01*
X64109768Y-51398856D01*
X63944361Y-51434013D01*
X63944356Y-51434015D01*
X63804589Y-51496245D01*
X63735339Y-51505530D01*
X63703717Y-51496245D01*
X63577488Y-51440043D01*
X63577483Y-51440041D01*
X63431681Y-51409051D01*
X63392327Y-51400686D01*
X63203035Y-51400686D01*
X63170578Y-51407584D01*
X63017878Y-51440041D01*
X63017873Y-51440043D01*
X62844949Y-51517035D01*
X62820499Y-51534799D01*
X62754692Y-51558277D01*
X62697182Y-51547759D01*
X62609802Y-51508855D01*
X62454511Y-51475848D01*
X62424646Y-51469500D01*
X62235354Y-51469500D01*
X62207088Y-51475508D01*
X62050197Y-51508855D01*
X62050192Y-51508857D01*
X61877270Y-51585848D01*
X61877265Y-51585851D01*
X61724129Y-51697111D01*
X61597466Y-51837785D01*
X61502821Y-52001715D01*
X61502818Y-52001722D01*
X61450671Y-52162216D01*
X61444326Y-52181744D01*
X61424540Y-52370000D01*
X61444326Y-52558256D01*
X61444327Y-52558259D01*
X61472147Y-52643881D01*
X61474142Y-52713722D01*
X61458223Y-52747302D01*
X61459016Y-52747760D01*
X61361121Y-52917318D01*
X61361118Y-52917325D01*
X61311393Y-53070364D01*
X61302626Y-53097347D01*
X61291660Y-53201686D01*
X61282840Y-53285603D01*
X61291310Y-53366198D01*
X61278740Y-53434928D01*
X61247738Y-53471412D01*
X61248957Y-53472765D01*
X61244128Y-53477112D01*
X61117466Y-53617785D01*
X61022821Y-53781715D01*
X61022818Y-53781722D01*
X60965383Y-53958491D01*
X60964326Y-53961744D01*
X60944540Y-54150000D01*
X55500000Y-54150000D01*
X55500000Y-51124000D01*
X55519685Y-51056961D01*
X55572489Y-51011206D01*
X55624000Y-51000000D01*
X58249999Y-51000000D01*
X58250000Y-51000000D01*
X58206759Y-48910000D01*
X74634540Y-48910000D01*
X74654326Y-49098256D01*
X74654327Y-49098259D01*
X74712818Y-49278277D01*
X74712821Y-49278284D01*
X74807467Y-49442216D01*
X74921135Y-49568457D01*
X74934129Y-49582888D01*
X75087265Y-49694148D01*
X75087270Y-49694151D01*
X75260192Y-49771142D01*
X75260197Y-49771144D01*
X75445354Y-49810500D01*
X75445355Y-49810500D01*
X75634644Y-49810500D01*
X75634646Y-49810500D01*
X75819803Y-49771144D01*
X75992730Y-49694151D01*
X76040988Y-49659089D01*
X76106790Y-49635610D01*
X76174844Y-49651434D01*
X76223540Y-49701539D01*
X76237416Y-49770017D01*
X76218487Y-49820869D01*
X76220716Y-49822156D01*
X76122821Y-49991715D01*
X76122818Y-49991722D01*
X76064327Y-50171740D01*
X76064326Y-50171744D01*
X76044540Y-50360000D01*
X76064326Y-50548256D01*
X76064327Y-50548259D01*
X76122818Y-50728277D01*
X76122821Y-50728284D01*
X76217467Y-50892216D01*
X76344128Y-51032887D01*
X76344129Y-51032888D01*
X76497265Y-51144148D01*
X76497270Y-51144151D01*
X76670192Y-51221142D01*
X76670197Y-51221144D01*
X76855354Y-51260500D01*
X76855355Y-51260500D01*
X77044644Y-51260500D01*
X77044646Y-51260500D01*
X77229803Y-51221144D01*
X77367133Y-51160000D01*
X78164540Y-51160000D01*
X78184326Y-51348256D01*
X78184327Y-51348259D01*
X78242818Y-51528277D01*
X78242821Y-51528284D01*
X78337467Y-51692216D01*
X78449923Y-51817111D01*
X78464129Y-51832888D01*
X78617265Y-51944148D01*
X78617270Y-51944151D01*
X78790192Y-52021142D01*
X78790197Y-52021144D01*
X78975354Y-52060500D01*
X78975355Y-52060500D01*
X79164644Y-52060500D01*
X79164646Y-52060500D01*
X79349803Y-52021144D01*
X79522730Y-51944151D01*
X79675871Y-51832888D01*
X79802533Y-51692216D01*
X79897179Y-51528284D01*
X79955674Y-51348256D01*
X79975460Y-51160000D01*
X79955674Y-50971744D01*
X79897179Y-50791716D01*
X79802533Y-50627784D01*
X79675871Y-50487112D01*
X79644377Y-50464230D01*
X79522734Y-50375851D01*
X79522729Y-50375848D01*
X79349807Y-50298857D01*
X79349802Y-50298855D01*
X79204000Y-50267865D01*
X79164646Y-50259500D01*
X78975354Y-50259500D01*
X78942897Y-50266398D01*
X78790197Y-50298855D01*
X78790192Y-50298857D01*
X78617270Y-50375848D01*
X78617265Y-50375851D01*
X78464129Y-50487111D01*
X78337466Y-50627785D01*
X78242821Y-50791715D01*
X78242818Y-50791722D01*
X78189080Y-50957112D01*
X78184326Y-50971744D01*
X78164540Y-51160000D01*
X77367133Y-51160000D01*
X77402730Y-51144151D01*
X77555871Y-51032888D01*
X77682533Y-50892216D01*
X77777179Y-50728284D01*
X77835674Y-50548256D01*
X77855460Y-50360000D01*
X77835674Y-50171744D01*
X77777179Y-49991716D01*
X77682533Y-49827784D01*
X77555871Y-49687112D01*
X77555870Y-49687111D01*
X77402734Y-49575851D01*
X77402729Y-49575848D01*
X77229807Y-49498857D01*
X77229802Y-49498855D01*
X77084000Y-49467865D01*
X77044646Y-49459500D01*
X76855354Y-49459500D01*
X76822897Y-49466398D01*
X76670197Y-49498855D01*
X76670192Y-49498857D01*
X76497270Y-49575848D01*
X76497265Y-49575851D01*
X76449013Y-49610909D01*
X76383207Y-49634389D01*
X76315153Y-49618563D01*
X76266458Y-49568457D01*
X76252583Y-49499979D01*
X76271547Y-49449150D01*
X76269284Y-49447844D01*
X76293071Y-49406642D01*
X76367179Y-49278284D01*
X76425674Y-49098256D01*
X76445460Y-48910000D01*
X76425674Y-48721744D01*
X76367179Y-48541716D01*
X76272533Y-48377784D01*
X76145871Y-48237112D01*
X76145870Y-48237111D01*
X75992734Y-48125851D01*
X75992729Y-48125848D01*
X75819807Y-48048857D01*
X75819802Y-48048855D01*
X75674000Y-48017865D01*
X75634646Y-48009500D01*
X75445354Y-48009500D01*
X75412897Y-48016398D01*
X75260197Y-48048855D01*
X75260192Y-48048857D01*
X75087270Y-48125848D01*
X75087265Y-48125851D01*
X74934129Y-48237111D01*
X74807466Y-48377785D01*
X74712821Y-48541715D01*
X74712818Y-48541722D01*
X74654327Y-48721740D01*
X74654326Y-48721744D01*
X74634540Y-48910000D01*
X58206759Y-48910000D01*
X58102613Y-43876298D01*
X58120906Y-43808867D01*
X58172752Y-43762029D01*
X58226324Y-43749734D01*
X76170149Y-43711957D01*
X76237229Y-43731501D01*
X76283095Y-43784208D01*
X76293729Y-43848916D01*
X76286379Y-43918856D01*
X76274540Y-44031500D01*
X76291762Y-44195358D01*
X76279192Y-44264088D01*
X76231460Y-44315111D01*
X76163720Y-44332229D01*
X76097479Y-44310006D01*
X76076291Y-44291291D01*
X76055870Y-44268611D01*
X75902734Y-44157351D01*
X75902729Y-44157348D01*
X75729807Y-44080357D01*
X75729802Y-44080355D01*
X75584000Y-44049365D01*
X75544646Y-44041000D01*
X75355354Y-44041000D01*
X75322897Y-44047898D01*
X75170197Y-44080355D01*
X75170192Y-44080357D01*
X74997270Y-44157348D01*
X74997265Y-44157351D01*
X74844129Y-44268611D01*
X74717466Y-44409285D01*
X74622821Y-44573215D01*
X74622818Y-44573222D01*
X74564327Y-44753240D01*
X74564326Y-44753244D01*
X74544540Y-44941500D01*
X74564326Y-45129756D01*
X74564327Y-45129759D01*
X74622818Y-45309777D01*
X74622821Y-45309784D01*
X74717467Y-45473716D01*
X74822170Y-45590000D01*
X74844129Y-45614388D01*
X74915285Y-45666086D01*
X74957951Y-45721416D01*
X74963930Y-45791029D01*
X74949788Y-45828403D01*
X74881970Y-45945868D01*
X74874803Y-45958284D01*
X74872820Y-45961718D01*
X74872818Y-45961722D01*
X74814327Y-46141740D01*
X74814326Y-46141744D01*
X74794540Y-46330000D01*
X74814326Y-46518256D01*
X74814327Y-46518259D01*
X74872818Y-46698277D01*
X74872821Y-46698284D01*
X74967467Y-46862216D01*
X75048504Y-46952216D01*
X75094129Y-47002888D01*
X75247265Y-47114148D01*
X75247270Y-47114151D01*
X75420192Y-47191142D01*
X75420197Y-47191144D01*
X75605354Y-47230500D01*
X75605355Y-47230500D01*
X75794644Y-47230500D01*
X75794646Y-47230500D01*
X75979803Y-47191144D01*
X76152730Y-47114151D01*
X76305871Y-47002888D01*
X76432533Y-46862216D01*
X76527179Y-46698284D01*
X76585674Y-46518256D01*
X76605460Y-46330000D01*
X76585674Y-46141744D01*
X76527179Y-45961716D01*
X76432533Y-45797784D01*
X76305871Y-45657112D01*
X76234712Y-45605412D01*
X76192048Y-45550083D01*
X76186069Y-45480470D01*
X76200212Y-45443095D01*
X76224086Y-45401744D01*
X76277179Y-45309784D01*
X76335674Y-45129756D01*
X76355460Y-44941500D01*
X76338237Y-44777637D01*
X76350806Y-44708912D01*
X76398538Y-44657888D01*
X76466278Y-44640770D01*
X76532520Y-44662992D01*
X76553706Y-44681707D01*
X76574129Y-44704388D01*
X76641368Y-44753240D01*
X76681498Y-44782396D01*
X76724163Y-44837726D01*
X76731933Y-44869752D01*
X76739076Y-44937712D01*
X76748464Y-45027033D01*
X76748465Y-45027036D01*
X76806956Y-45207054D01*
X76806959Y-45207061D01*
X76901605Y-45370993D01*
X77000179Y-45480470D01*
X77028267Y-45511665D01*
X77181403Y-45622925D01*
X77181408Y-45622928D01*
X77354330Y-45699919D01*
X77354335Y-45699921D01*
X77539492Y-45739277D01*
X77539493Y-45739277D01*
X77728782Y-45739277D01*
X77728784Y-45739277D01*
X77913941Y-45699921D01*
X78086868Y-45622928D01*
X78240009Y-45511665D01*
X78366671Y-45370993D01*
X78461317Y-45207061D01*
X78494783Y-45104062D01*
X78534220Y-45046388D01*
X78598579Y-45019189D01*
X78663150Y-45029101D01*
X78690197Y-45041144D01*
X78875354Y-45080500D01*
X78875355Y-45080500D01*
X79064644Y-45080500D01*
X79064646Y-45080500D01*
X79249803Y-45041144D01*
X79422730Y-44964151D01*
X79575871Y-44852888D01*
X79702533Y-44712216D01*
X79797179Y-44548284D01*
X79855674Y-44368256D01*
X79875460Y-44180000D01*
X79855674Y-43991744D01*
X79814931Y-43866353D01*
X79812937Y-43796513D01*
X79849017Y-43736680D01*
X79911718Y-43705852D01*
X79932594Y-43704036D01*
X81724930Y-43700263D01*
X81792010Y-43719807D01*
G37*
G04 #@! TD.AperFunction*
G04 #@! TA.AperFunction,Conductor*
G36*
X105842522Y-32020193D02*
G01*
X105888286Y-32072990D01*
X105899500Y-32124520D01*
X105899500Y-69865520D01*
X105879815Y-69932559D01*
X105827011Y-69978314D01*
X105775521Y-69989520D01*
X84153189Y-69993129D01*
X84086146Y-69973456D01*
X84040382Y-69920659D01*
X84030998Y-69855474D01*
X84030184Y-69855416D01*
X84030451Y-69851673D01*
X84030427Y-69851504D01*
X84030500Y-69851000D01*
X84030500Y-66090000D01*
X92754540Y-66090000D01*
X92774326Y-66278256D01*
X92774327Y-66278259D01*
X92832818Y-66458277D01*
X92832821Y-66458284D01*
X92927467Y-66622216D01*
X93054129Y-66762888D01*
X93207265Y-66874148D01*
X93207270Y-66874151D01*
X93380192Y-66951142D01*
X93380197Y-66951144D01*
X93565354Y-66990500D01*
X93565355Y-66990500D01*
X93754644Y-66990500D01*
X93754646Y-66990500D01*
X93939803Y-66951144D01*
X94112730Y-66874151D01*
X94265871Y-66762888D01*
X94392533Y-66622216D01*
X94487179Y-66458284D01*
X94545674Y-66278256D01*
X94565460Y-66090000D01*
X94545674Y-65901744D01*
X94487179Y-65721716D01*
X94392533Y-65557784D01*
X94265871Y-65417112D01*
X94265870Y-65417111D01*
X94112734Y-65305851D01*
X94112729Y-65305848D01*
X93939807Y-65228857D01*
X93939802Y-65228855D01*
X93794001Y-65197865D01*
X93754646Y-65189500D01*
X93565354Y-65189500D01*
X93532897Y-65196398D01*
X93380197Y-65228855D01*
X93380192Y-65228857D01*
X93207270Y-65305848D01*
X93207265Y-65305851D01*
X93054129Y-65417111D01*
X92927466Y-65557785D01*
X92832821Y-65721715D01*
X92832818Y-65721722D01*
X92774327Y-65901740D01*
X92774326Y-65901744D01*
X92754540Y-66090000D01*
X84030500Y-66090000D01*
X84030500Y-55374000D01*
X84018947Y-55266544D01*
X84007741Y-55215033D01*
X84007637Y-55214722D01*
X83973616Y-55112502D01*
X83973613Y-55112496D01*
X83915593Y-55022216D01*
X83895825Y-54991457D01*
X83855286Y-54944673D01*
X83826262Y-54881118D01*
X83825000Y-54863471D01*
X83825000Y-54831152D01*
X83844685Y-54764113D01*
X83876115Y-54730834D01*
X83948478Y-54678259D01*
X83955871Y-54672888D01*
X84082533Y-54532216D01*
X84106906Y-54490000D01*
X93406040Y-54490000D01*
X93425826Y-54678256D01*
X93425827Y-54678259D01*
X93484318Y-54858277D01*
X93484321Y-54858284D01*
X93578967Y-55022216D01*
X93660256Y-55112496D01*
X93705629Y-55162888D01*
X93858765Y-55274148D01*
X93858770Y-55274151D01*
X94031692Y-55351142D01*
X94031697Y-55351144D01*
X94216854Y-55390500D01*
X94216855Y-55390500D01*
X94406144Y-55390500D01*
X94406146Y-55390500D01*
X94591303Y-55351144D01*
X94764230Y-55274151D01*
X94917371Y-55162888D01*
X95044033Y-55022216D01*
X95138679Y-54858284D01*
X95197174Y-54678256D01*
X95216960Y-54490000D01*
X95197174Y-54301744D01*
X95138679Y-54121716D01*
X95044033Y-53957784D01*
X94917371Y-53817112D01*
X94909977Y-53811740D01*
X94764234Y-53705851D01*
X94764229Y-53705848D01*
X94591307Y-53628857D01*
X94591302Y-53628855D01*
X94445500Y-53597865D01*
X94406146Y-53589500D01*
X94216854Y-53589500D01*
X94184397Y-53596398D01*
X94031697Y-53628855D01*
X94031692Y-53628857D01*
X93858770Y-53705848D01*
X93858765Y-53705851D01*
X93705629Y-53817111D01*
X93578966Y-53957785D01*
X93484321Y-54121715D01*
X93484318Y-54121722D01*
X93427395Y-54296915D01*
X93425826Y-54301744D01*
X93406040Y-54490000D01*
X84106906Y-54490000D01*
X84177179Y-54368284D01*
X84235674Y-54188256D01*
X84255460Y-54000000D01*
X84235674Y-53811744D01*
X84177179Y-53631716D01*
X84082533Y-53467784D01*
X83955871Y-53327112D01*
X83955870Y-53327111D01*
X83822208Y-53230000D01*
X87754540Y-53230000D01*
X87774326Y-53418256D01*
X87774327Y-53418259D01*
X87832818Y-53598277D01*
X87832821Y-53598284D01*
X87927467Y-53762216D01*
X87976895Y-53817111D01*
X88054129Y-53902888D01*
X88207265Y-54014148D01*
X88207270Y-54014151D01*
X88380192Y-54091142D01*
X88380197Y-54091144D01*
X88565354Y-54130500D01*
X88565355Y-54130500D01*
X88754644Y-54130500D01*
X88754646Y-54130500D01*
X88939803Y-54091144D01*
X89112730Y-54014151D01*
X89265871Y-53902888D01*
X89392533Y-53762216D01*
X89487179Y-53598284D01*
X89545674Y-53418256D01*
X89565460Y-53230000D01*
X89545674Y-53041744D01*
X89487179Y-52861716D01*
X89477038Y-52844151D01*
X89393712Y-52699824D01*
X89377239Y-52631924D01*
X89400092Y-52565897D01*
X89450660Y-52524547D01*
X89567221Y-52472651D01*
X89720362Y-52361388D01*
X89847024Y-52220716D01*
X89941670Y-52056784D01*
X90000165Y-51876756D01*
X90019951Y-51688500D01*
X90000165Y-51500244D01*
X89941670Y-51320216D01*
X89847024Y-51156284D01*
X89720362Y-51015612D01*
X89720361Y-51015611D01*
X89567225Y-50904351D01*
X89567220Y-50904348D01*
X89394298Y-50827357D01*
X89394293Y-50827355D01*
X89248492Y-50796365D01*
X89209137Y-50788000D01*
X89019845Y-50788000D01*
X88987388Y-50794898D01*
X88834688Y-50827355D01*
X88834683Y-50827357D01*
X88661761Y-50904348D01*
X88661756Y-50904351D01*
X88508620Y-51015611D01*
X88381957Y-51156285D01*
X88287312Y-51320215D01*
X88287309Y-51320222D01*
X88228818Y-51500240D01*
X88228817Y-51500244D01*
X88209031Y-51688500D01*
X88228817Y-51876756D01*
X88228818Y-51876759D01*
X88287309Y-52056777D01*
X88287311Y-52056781D01*
X88287312Y-52056784D01*
X88289169Y-52060000D01*
X88380779Y-52218675D01*
X88397251Y-52286575D01*
X88374398Y-52352602D01*
X88323828Y-52393953D01*
X88207267Y-52445850D01*
X88207265Y-52445851D01*
X88054129Y-52557111D01*
X87927466Y-52697785D01*
X87832821Y-52861715D01*
X87832818Y-52861722D01*
X87774327Y-53041740D01*
X87774326Y-53041744D01*
X87754540Y-53230000D01*
X83822208Y-53230000D01*
X83802734Y-53215851D01*
X83802729Y-53215848D01*
X83629807Y-53138857D01*
X83629802Y-53138855D01*
X83484000Y-53107865D01*
X83444646Y-53099500D01*
X83255354Y-53099500D01*
X83222897Y-53106398D01*
X83070197Y-53138855D01*
X83070192Y-53138857D01*
X82897270Y-53215848D01*
X82897265Y-53215851D01*
X82744129Y-53327111D01*
X82617465Y-53467785D01*
X82522809Y-53631735D01*
X82472242Y-53679951D01*
X82403635Y-53693173D01*
X82338770Y-53667205D01*
X82298242Y-53610291D01*
X82291425Y-53568933D01*
X82291772Y-53515639D01*
X82285054Y-53430153D01*
X82285055Y-53430154D01*
X82278237Y-53388790D01*
X82278236Y-53388789D01*
X82262601Y-53327112D01*
X82257163Y-53305658D01*
X82257162Y-53305657D01*
X82257162Y-53305655D01*
X82191235Y-53177778D01*
X82191233Y-53177775D01*
X82191232Y-53177773D01*
X82165317Y-53141382D01*
X82142466Y-53075356D01*
X82158937Y-53007456D01*
X82173143Y-52987644D01*
X82195436Y-52962252D01*
X82242136Y-52861722D01*
X82256052Y-52831766D01*
X82276171Y-52764856D01*
X82297571Y-52622578D01*
X82301224Y-52060000D01*
X83334540Y-52060000D01*
X83354326Y-52248256D01*
X83354327Y-52248259D01*
X83412818Y-52428277D01*
X83412821Y-52428284D01*
X83507467Y-52592216D01*
X83602521Y-52697784D01*
X83634129Y-52732888D01*
X83787265Y-52844148D01*
X83787270Y-52844151D01*
X83960192Y-52921142D01*
X83960197Y-52921144D01*
X84145354Y-52960500D01*
X84145355Y-52960500D01*
X84334644Y-52960500D01*
X84334646Y-52960500D01*
X84519803Y-52921144D01*
X84692730Y-52844151D01*
X84845871Y-52732888D01*
X84972533Y-52592216D01*
X85067179Y-52428284D01*
X85125674Y-52248256D01*
X85145460Y-52060000D01*
X85125674Y-51871744D01*
X85067179Y-51691716D01*
X84972533Y-51527784D01*
X84845871Y-51387112D01*
X84845870Y-51387111D01*
X84692734Y-51275851D01*
X84692729Y-51275848D01*
X84519807Y-51198857D01*
X84519802Y-51198855D01*
X84374001Y-51167865D01*
X84334646Y-51159500D01*
X84145354Y-51159500D01*
X84112897Y-51166398D01*
X83960197Y-51198855D01*
X83960192Y-51198857D01*
X83787270Y-51275848D01*
X83787265Y-51275851D01*
X83634129Y-51387111D01*
X83507466Y-51527785D01*
X83412821Y-51691715D01*
X83412818Y-51691722D01*
X83354327Y-51871740D01*
X83354326Y-51871744D01*
X83334540Y-52060000D01*
X82301224Y-52060000D01*
X82311565Y-50467512D01*
X82311564Y-50467507D01*
X82311564Y-50467499D01*
X82297147Y-50344319D01*
X82297145Y-50344307D01*
X82282819Y-50285642D01*
X82282818Y-50285641D01*
X82282818Y-50285638D01*
X82238824Y-50169647D01*
X82154251Y-50053247D01*
X82154247Y-50053243D01*
X82154244Y-50053239D01*
X82135076Y-50033516D01*
X82102470Y-49971721D01*
X82100000Y-49947096D01*
X82100000Y-49050754D01*
X82119685Y-48983715D01*
X82151115Y-48950436D01*
X82160583Y-48943556D01*
X82215871Y-48903388D01*
X82342533Y-48762716D01*
X82437179Y-48598784D01*
X82495674Y-48418756D01*
X82515460Y-48230500D01*
X82495674Y-48042244D01*
X82437179Y-47862216D01*
X82342533Y-47698284D01*
X82278000Y-47626613D01*
X82247770Y-47563622D01*
X82256395Y-47494286D01*
X82257673Y-47491442D01*
X82291198Y-47419275D01*
X82311317Y-47352365D01*
X82332717Y-47210087D01*
X82337003Y-46550000D01*
X86264540Y-46550000D01*
X86284326Y-46738256D01*
X86284327Y-46738259D01*
X86342818Y-46918277D01*
X86342821Y-46918284D01*
X86437467Y-47082216D01*
X86545515Y-47202215D01*
X86564129Y-47222888D01*
X86717265Y-47334148D01*
X86717270Y-47334151D01*
X86890192Y-47411142D01*
X86890197Y-47411144D01*
X87075354Y-47450500D01*
X87075355Y-47450500D01*
X87264644Y-47450500D01*
X87264646Y-47450500D01*
X87449803Y-47411144D01*
X87449805Y-47411142D01*
X87455987Y-47409135D01*
X87456748Y-47411478D01*
X87514977Y-47403664D01*
X87569063Y-47425912D01*
X87602906Y-47450500D01*
X87633365Y-47472630D01*
X87806287Y-47549621D01*
X87806292Y-47549623D01*
X87991449Y-47588979D01*
X87991450Y-47588979D01*
X88180739Y-47588979D01*
X88180741Y-47588979D01*
X88365898Y-47549623D01*
X88538825Y-47472630D01*
X88538833Y-47472623D01*
X88544452Y-47469381D01*
X88545889Y-47471871D01*
X88599843Y-47452599D01*
X88657403Y-47463115D01*
X88810188Y-47531140D01*
X88810197Y-47531144D01*
X88810206Y-47531146D01*
X88811454Y-47531552D01*
X88812092Y-47531988D01*
X88816134Y-47533788D01*
X88815805Y-47534526D01*
X88869131Y-47570987D01*
X88896332Y-47635344D01*
X88884421Y-47704191D01*
X88865291Y-47732457D01*
X88797466Y-47807784D01*
X88702821Y-47971715D01*
X88702818Y-47971722D01*
X88650318Y-48133302D01*
X88644326Y-48151744D01*
X88624540Y-48340000D01*
X88644326Y-48528256D01*
X88644327Y-48528259D01*
X88702818Y-48708277D01*
X88702821Y-48708284D01*
X88797467Y-48872216D01*
X88924128Y-49012887D01*
X88924129Y-49012888D01*
X89077265Y-49124148D01*
X89077270Y-49124151D01*
X89250192Y-49201142D01*
X89250197Y-49201144D01*
X89435354Y-49240500D01*
X89435355Y-49240500D01*
X89624642Y-49240500D01*
X89624646Y-49240500D01*
X89634848Y-49238331D01*
X89704512Y-49243646D01*
X89752778Y-49276648D01*
X89808384Y-49338404D01*
X89822796Y-49348875D01*
X89865461Y-49404205D01*
X89873231Y-49462153D01*
X89858744Y-49600000D01*
X89854540Y-49640000D01*
X89874326Y-49828256D01*
X89874327Y-49828259D01*
X89932818Y-50008277D01*
X89932821Y-50008284D01*
X90027467Y-50172216D01*
X90129593Y-50285638D01*
X90154129Y-50312888D01*
X90307265Y-50424148D01*
X90307270Y-50424151D01*
X90480192Y-50501142D01*
X90480197Y-50501144D01*
X90665354Y-50540500D01*
X90665355Y-50540500D01*
X90854644Y-50540500D01*
X90854646Y-50540500D01*
X91039803Y-50501144D01*
X91212730Y-50424151D01*
X91365871Y-50312888D01*
X91492533Y-50172216D01*
X91587179Y-50008284D01*
X91645674Y-49828256D01*
X91665460Y-49640000D01*
X91645674Y-49451744D01*
X91587179Y-49271716D01*
X91492533Y-49107784D01*
X91365871Y-48967112D01*
X91365870Y-48967111D01*
X91365864Y-48967106D01*
X91351459Y-48956640D01*
X91308793Y-48901311D01*
X91301023Y-48843365D01*
X91319716Y-48665517D01*
X91299930Y-48477261D01*
X91241435Y-48297233D01*
X91146789Y-48133301D01*
X91020127Y-47992629D01*
X90991343Y-47971716D01*
X90866990Y-47881368D01*
X90866985Y-47881365D01*
X90694063Y-47804374D01*
X90694058Y-47804372D01*
X90548257Y-47773382D01*
X90508902Y-47765017D01*
X90319610Y-47765017D01*
X90312062Y-47766621D01*
X90309400Y-47767187D01*
X90239734Y-47761867D01*
X90191477Y-47728868D01*
X90135871Y-47667112D01*
X90080129Y-47626613D01*
X89982734Y-47555851D01*
X89982729Y-47555848D01*
X89809805Y-47478856D01*
X89808536Y-47478444D01*
X89807895Y-47478006D01*
X89803866Y-47476212D01*
X89804194Y-47475474D01*
X89750862Y-47439004D01*
X89723666Y-47374644D01*
X89735583Y-47305799D01*
X89754706Y-47277544D01*
X89822533Y-47202216D01*
X89917179Y-47038284D01*
X89975674Y-46858256D01*
X89995460Y-46670000D01*
X89975674Y-46481744D01*
X89917179Y-46301716D01*
X89822533Y-46137784D01*
X89695871Y-45997112D01*
X89695870Y-45997111D01*
X89542734Y-45885851D01*
X89542729Y-45885848D01*
X89369807Y-45808857D01*
X89369802Y-45808855D01*
X89224000Y-45777865D01*
X89184646Y-45769500D01*
X88995354Y-45769500D01*
X88962897Y-45776398D01*
X88810197Y-45808855D01*
X88810192Y-45808857D01*
X88637267Y-45885850D01*
X88631642Y-45889098D01*
X88630211Y-45886619D01*
X88576180Y-45905884D01*
X88518692Y-45895364D01*
X88365902Y-45827336D01*
X88365897Y-45827334D01*
X88220095Y-45796344D01*
X88180741Y-45787979D01*
X87991449Y-45787979D01*
X87952094Y-45796344D01*
X87806293Y-45827334D01*
X87800109Y-45829344D01*
X87799348Y-45827004D01*
X87741094Y-45834811D01*
X87687031Y-45812566D01*
X87622730Y-45765849D01*
X87622729Y-45765848D01*
X87449807Y-45688857D01*
X87449802Y-45688855D01*
X87304000Y-45657865D01*
X87264646Y-45649500D01*
X87075354Y-45649500D01*
X87042897Y-45656398D01*
X86890197Y-45688855D01*
X86890192Y-45688857D01*
X86717270Y-45765848D01*
X86717265Y-45765851D01*
X86564129Y-45877111D01*
X86437466Y-46017785D01*
X86342821Y-46181715D01*
X86342818Y-46181722D01*
X86303830Y-46301716D01*
X86284326Y-46361744D01*
X86264540Y-46550000D01*
X82337003Y-46550000D01*
X82354676Y-43828350D01*
X82347074Y-43754624D01*
X82343372Y-43718711D01*
X82343371Y-43718709D01*
X82343371Y-43718707D01*
X82332060Y-43666153D01*
X82297251Y-43561552D01*
X82219208Y-43440676D01*
X82173342Y-43387969D01*
X82064413Y-43293982D01*
X82064412Y-43293981D01*
X81983071Y-43257040D01*
X81933410Y-43234486D01*
X81902001Y-43225334D01*
X81866338Y-43214944D01*
X81866333Y-43214942D01*
X81866330Y-43214942D01*
X81866324Y-43214941D01*
X81866325Y-43214941D01*
X81866320Y-43214940D01*
X81723867Y-43194764D01*
X81723866Y-43194764D01*
X79920828Y-43198560D01*
X79920829Y-43198560D01*
X79899447Y-43199510D01*
X79867910Y-43202254D01*
X79825524Y-43207755D01*
X79825514Y-43207757D01*
X79688692Y-43252212D01*
X79688690Y-43252213D01*
X79688683Y-43252216D01*
X79688681Y-43252217D01*
X79625980Y-43283045D01*
X79625976Y-43283047D01*
X79625973Y-43283048D01*
X79562932Y-43326156D01*
X79523150Y-43353358D01*
X79456702Y-43374949D01*
X79453160Y-43375000D01*
X79402260Y-43375000D01*
X79351824Y-43364279D01*
X79249807Y-43318857D01*
X79249802Y-43318855D01*
X79081333Y-43283047D01*
X79064646Y-43279500D01*
X78875354Y-43279500D01*
X78858667Y-43283047D01*
X78690197Y-43318855D01*
X78690192Y-43318857D01*
X78588176Y-43364279D01*
X78537740Y-43375000D01*
X77848718Y-43375000D01*
X77781679Y-43355315D01*
X77775833Y-43351318D01*
X77632734Y-43247351D01*
X77632729Y-43247348D01*
X77459807Y-43170357D01*
X77459802Y-43170355D01*
X77314001Y-43139365D01*
X77274646Y-43131000D01*
X77085354Y-43131000D01*
X77052897Y-43137898D01*
X76900197Y-43170355D01*
X76900192Y-43170357D01*
X76727271Y-43247348D01*
X76651117Y-43302677D01*
X76585310Y-43326156D01*
X76517256Y-43310330D01*
X76511413Y-43306815D01*
X76509631Y-43305675D01*
X76429620Y-43269338D01*
X76378629Y-43246180D01*
X76338492Y-43234486D01*
X76311557Y-43226638D01*
X76311552Y-43226636D01*
X76311549Y-43226636D01*
X76311543Y-43226635D01*
X76311544Y-43226635D01*
X76311539Y-43226634D01*
X76169086Y-43206458D01*
X76169085Y-43206458D01*
X74537831Y-43209892D01*
X58225250Y-43244235D01*
X58113261Y-43257040D01*
X58113248Y-43257043D01*
X58059684Y-43269335D01*
X58059672Y-43269339D01*
X57953290Y-43306653D01*
X57833886Y-43386929D01*
X57782040Y-43433766D01*
X57690091Y-43544426D01*
X57690086Y-43544435D01*
X57633041Y-43676512D01*
X57633037Y-43676522D01*
X57614748Y-43743939D01*
X57597221Y-43886754D01*
X57597220Y-43886766D01*
X57619043Y-44941498D01*
X57701151Y-48909998D01*
X57701367Y-48920456D01*
X57731150Y-50359998D01*
X57731314Y-50367940D01*
X57713019Y-50435370D01*
X57661172Y-50482206D01*
X57607341Y-50494500D01*
X55624000Y-50494500D01*
X55623991Y-50494500D01*
X55623990Y-50494501D01*
X55516549Y-50506052D01*
X55516537Y-50506054D01*
X55465027Y-50517260D01*
X55362502Y-50551383D01*
X55362496Y-50551386D01*
X55241462Y-50629171D01*
X55241451Y-50629179D01*
X55188659Y-50674923D01*
X55094433Y-50783664D01*
X55094430Y-50783668D01*
X55034664Y-50914534D01*
X55014978Y-50981575D01*
X55014976Y-50981580D01*
X54994500Y-51124001D01*
X54994500Y-69852149D01*
X54974815Y-69919188D01*
X54922011Y-69964943D01*
X54870832Y-69976149D01*
X46173506Y-69999467D01*
X46109600Y-69999477D01*
X46042558Y-69979803D01*
X45996795Y-69927006D01*
X45985581Y-69875398D01*
X45995991Y-54057156D01*
X46011181Y-42520000D01*
X87064540Y-42520000D01*
X87084326Y-42708256D01*
X87084327Y-42708259D01*
X87142818Y-42888277D01*
X87142821Y-42888284D01*
X87237467Y-43052216D01*
X87308405Y-43131000D01*
X87364129Y-43192888D01*
X87517265Y-43304148D01*
X87517270Y-43304151D01*
X87690192Y-43381142D01*
X87690197Y-43381144D01*
X87875354Y-43420500D01*
X87875355Y-43420500D01*
X88064644Y-43420500D01*
X88064646Y-43420500D01*
X88249803Y-43381144D01*
X88422730Y-43304151D01*
X88575871Y-43192888D01*
X88702533Y-43052216D01*
X88797179Y-42888284D01*
X88827105Y-42796181D01*
X88866542Y-42738506D01*
X88930901Y-42711308D01*
X88945036Y-42710500D01*
X88954644Y-42710500D01*
X88954646Y-42710500D01*
X89139803Y-42671144D01*
X89312730Y-42594151D01*
X89465871Y-42482888D01*
X89592533Y-42342216D01*
X89687179Y-42178284D01*
X89745674Y-41998256D01*
X89765460Y-41810000D01*
X89745674Y-41621744D01*
X89687179Y-41441716D01*
X89592533Y-41277784D01*
X89465871Y-41137112D01*
X89465870Y-41137111D01*
X89312734Y-41025851D01*
X89312729Y-41025848D01*
X89139807Y-40948857D01*
X89139802Y-40948855D01*
X88994001Y-40917865D01*
X88954646Y-40909500D01*
X88765354Y-40909500D01*
X88732897Y-40916398D01*
X88580197Y-40948855D01*
X88580192Y-40948857D01*
X88407270Y-41025848D01*
X88407265Y-41025851D01*
X88254129Y-41137111D01*
X88127466Y-41277785D01*
X88032821Y-41441715D01*
X88032818Y-41441721D01*
X88002895Y-41533818D01*
X87963458Y-41591494D01*
X87899099Y-41618692D01*
X87884964Y-41619500D01*
X87875354Y-41619500D01*
X87864816Y-41621740D01*
X87690197Y-41658855D01*
X87690192Y-41658857D01*
X87517270Y-41735848D01*
X87517265Y-41735851D01*
X87364129Y-41847111D01*
X87237466Y-41987785D01*
X87142821Y-42151715D01*
X87142818Y-42151722D01*
X87084899Y-42329981D01*
X87084326Y-42331744D01*
X87064540Y-42520000D01*
X46011181Y-42520000D01*
X46012211Y-41737915D01*
X66213273Y-41737915D01*
X66223196Y-41895637D01*
X66223196Y-41895640D01*
X66256539Y-41998256D01*
X66272033Y-42045941D01*
X66356714Y-42179377D01*
X66471918Y-42287562D01*
X66471920Y-42287563D01*
X66471922Y-42287565D01*
X66610404Y-42363695D01*
X66610408Y-42363697D01*
X66763481Y-42403000D01*
X66763484Y-42403000D01*
X66881848Y-42403000D01*
X66881850Y-42403000D01*
X66881855Y-42402999D01*
X66881859Y-42402999D01*
X66894588Y-42401390D01*
X66999292Y-42388164D01*
X67146232Y-42329986D01*
X67274087Y-42237094D01*
X67296636Y-42209836D01*
X67354534Y-42170730D01*
X67424385Y-42169132D01*
X67477061Y-42198484D01*
X67571918Y-42287562D01*
X67571920Y-42287563D01*
X67571922Y-42287565D01*
X67710404Y-42363695D01*
X67710408Y-42363697D01*
X67863481Y-42403000D01*
X67863484Y-42403000D01*
X67981848Y-42403000D01*
X67981850Y-42403000D01*
X67981855Y-42402999D01*
X67981859Y-42402999D01*
X67994588Y-42401390D01*
X68099292Y-42388164D01*
X68246232Y-42329986D01*
X68374087Y-42237094D01*
X68474824Y-42115323D01*
X68542114Y-41972326D01*
X68571727Y-41817088D01*
X68561804Y-41659362D01*
X68512967Y-41509059D01*
X68428286Y-41375623D01*
X68313082Y-41267438D01*
X68313079Y-41267436D01*
X68313077Y-41267434D01*
X68174595Y-41191304D01*
X68174587Y-41191301D01*
X68021521Y-41152000D01*
X68021519Y-41152000D01*
X67903150Y-41152000D01*
X67903140Y-41152000D01*
X67785708Y-41166836D01*
X67785706Y-41166836D01*
X67638769Y-41225013D01*
X67638760Y-41225018D01*
X67510916Y-41317902D01*
X67488362Y-41345165D01*
X67430461Y-41384271D01*
X67360610Y-41385866D01*
X67307937Y-41356514D01*
X67213082Y-41267438D01*
X67213079Y-41267436D01*
X67213077Y-41267434D01*
X67074595Y-41191304D01*
X67074587Y-41191301D01*
X66921521Y-41152000D01*
X66921519Y-41152000D01*
X66803150Y-41152000D01*
X66803140Y-41152000D01*
X66685708Y-41166836D01*
X66685706Y-41166836D01*
X66538769Y-41225013D01*
X66538760Y-41225018D01*
X66410916Y-41317902D01*
X66410915Y-41317903D01*
X66310174Y-41439678D01*
X66242887Y-41582671D01*
X66242885Y-41582674D01*
X66228257Y-41659362D01*
X66213273Y-41737912D01*
X66213273Y-41737914D01*
X66213273Y-41737915D01*
X46012211Y-41737915D01*
X46024837Y-32148743D01*
X46044610Y-32081730D01*
X46097474Y-32036045D01*
X46148744Y-32024907D01*
X63955469Y-32011534D01*
X70857633Y-32006350D01*
X105775481Y-32000520D01*
X105842522Y-32020193D01*
G37*
G04 #@! TD.AperFunction*
M02*
