G04 #@! TF.GenerationSoftware,KiCad,Pcbnew,8.0.1*
G04 #@! TF.CreationDate,2024-04-29T17:35:37+03:00*
G04 #@! TF.ProjectId,esc,6573632e-6b69-4636-9164-5f7063625858,rev?*
G04 #@! TF.SameCoordinates,Original*
G04 #@! TF.FileFunction,Copper,L1,Top*
G04 #@! TF.FilePolarity,Positive*
%FSLAX46Y46*%
G04 Gerber Fmt 4.6, Leading zero omitted, Abs format (unit mm)*
G04 Created by KiCad (PCBNEW 8.0.1) date 2024-04-29 17:35:37*
%MOMM*%
%LPD*%
G01*
G04 APERTURE LIST*
G04 Aperture macros list*
%AMRoundRect*
0 Rectangle with rounded corners*
0 $1 Rounding radius*
0 $2 $3 $4 $5 $6 $7 $8 $9 X,Y pos of 4 corners*
0 Add a 4 corners polygon primitive as box body*
4,1,4,$2,$3,$4,$5,$6,$7,$8,$9,$2,$3,0*
0 Add four circle primitives for the rounded corners*
1,1,$1+$1,$2,$3*
1,1,$1+$1,$4,$5*
1,1,$1+$1,$6,$7*
1,1,$1+$1,$8,$9*
0 Add four rect primitives between the rounded corners*
20,1,$1+$1,$2,$3,$4,$5,0*
20,1,$1+$1,$4,$5,$6,$7,0*
20,1,$1+$1,$6,$7,$8,$9,0*
20,1,$1+$1,$8,$9,$2,$3,0*%
G04 Aperture macros list end*
G04 #@! TA.AperFunction,SMDPad,CuDef*
%ADD10R,1.700000X1.100000*%
G04 #@! TD*
G04 #@! TA.AperFunction,SMDPad,CuDef*
%ADD11R,0.350000X0.600000*%
G04 #@! TD*
G04 #@! TA.AperFunction,SMDPad,CuDef*
%ADD12RoundRect,0.218750X-0.218750X-0.256250X0.218750X-0.256250X0.218750X0.256250X-0.218750X0.256250X0*%
G04 #@! TD*
G04 #@! TA.AperFunction,SMDPad,CuDef*
%ADD13RoundRect,0.135000X0.135000X0.185000X-0.135000X0.185000X-0.135000X-0.185000X0.135000X-0.185000X0*%
G04 #@! TD*
G04 #@! TA.AperFunction,ComponentPad*
%ADD14C,1.755000*%
G04 #@! TD*
G04 #@! TA.AperFunction,SMDPad,CuDef*
%ADD15R,1.400000X1.200000*%
G04 #@! TD*
G04 #@! TA.AperFunction,SMDPad,CuDef*
%ADD16R,0.900000X0.240000*%
G04 #@! TD*
G04 #@! TA.AperFunction,SMDPad,CuDef*
%ADD17R,0.240000X0.900000*%
G04 #@! TD*
G04 #@! TA.AperFunction,SMDPad,CuDef*
%ADD18R,1.400000X0.900000*%
G04 #@! TD*
G04 #@! TA.AperFunction,SMDPad,CuDef*
%ADD19RoundRect,0.200000X-0.200000X-0.275000X0.200000X-0.275000X0.200000X0.275000X-0.200000X0.275000X0*%
G04 #@! TD*
G04 #@! TA.AperFunction,SMDPad,CuDef*
%ADD20RoundRect,0.225000X-0.250000X0.225000X-0.250000X-0.225000X0.250000X-0.225000X0.250000X0.225000X0*%
G04 #@! TD*
G04 #@! TA.AperFunction,SMDPad,CuDef*
%ADD21RoundRect,0.135000X0.185000X-0.135000X0.185000X0.135000X-0.185000X0.135000X-0.185000X-0.135000X0*%
G04 #@! TD*
G04 #@! TA.AperFunction,SMDPad,CuDef*
%ADD22RoundRect,0.250000X-1.075000X0.362500X-1.075000X-0.362500X1.075000X-0.362500X1.075000X0.362500X0*%
G04 #@! TD*
G04 #@! TA.AperFunction,SMDPad,CuDef*
%ADD23R,3.600000X2.000000*%
G04 #@! TD*
G04 #@! TA.AperFunction,SMDPad,CuDef*
%ADD24RoundRect,0.140000X-0.170000X0.140000X-0.170000X-0.140000X0.170000X-0.140000X0.170000X0.140000X0*%
G04 #@! TD*
G04 #@! TA.AperFunction,SMDPad,CuDef*
%ADD25R,0.900000X1.640000*%
G04 #@! TD*
G04 #@! TA.AperFunction,SMDPad,CuDef*
%ADD26R,0.900000X0.340000*%
G04 #@! TD*
G04 #@! TA.AperFunction,SMDPad,CuDef*
%ADD27R,2.360000X2.290000*%
G04 #@! TD*
G04 #@! TA.AperFunction,SMDPad,CuDef*
%ADD28RoundRect,0.135000X-0.135000X-0.185000X0.135000X-0.185000X0.135000X0.185000X-0.135000X0.185000X0*%
G04 #@! TD*
G04 #@! TA.AperFunction,SMDPad,CuDef*
%ADD29RoundRect,0.250000X1.500000X1.000000X-1.500000X1.000000X-1.500000X-1.000000X1.500000X-1.000000X0*%
G04 #@! TD*
G04 #@! TA.AperFunction,ComponentPad*
%ADD30R,1.700000X1.700000*%
G04 #@! TD*
G04 #@! TA.AperFunction,ComponentPad*
%ADD31O,1.700000X1.700000*%
G04 #@! TD*
G04 #@! TA.AperFunction,SMDPad,CuDef*
%ADD32RoundRect,0.225000X-0.225000X-0.250000X0.225000X-0.250000X0.225000X0.250000X-0.225000X0.250000X0*%
G04 #@! TD*
G04 #@! TA.AperFunction,SMDPad,CuDef*
%ADD33RoundRect,0.225000X0.225000X0.250000X-0.225000X0.250000X-0.225000X-0.250000X0.225000X-0.250000X0*%
G04 #@! TD*
G04 #@! TA.AperFunction,SMDPad,CuDef*
%ADD34RoundRect,0.225000X0.250000X-0.225000X0.250000X0.225000X-0.250000X0.225000X-0.250000X-0.225000X0*%
G04 #@! TD*
G04 #@! TA.AperFunction,SMDPad,CuDef*
%ADD35RoundRect,0.140000X0.170000X-0.140000X0.170000X0.140000X-0.170000X0.140000X-0.170000X-0.140000X0*%
G04 #@! TD*
G04 #@! TA.AperFunction,SMDPad,CuDef*
%ADD36R,0.812800X0.660400*%
G04 #@! TD*
G04 #@! TA.AperFunction,SMDPad,CuDef*
%ADD37RoundRect,0.062500X0.375000X0.062500X-0.375000X0.062500X-0.375000X-0.062500X0.375000X-0.062500X0*%
G04 #@! TD*
G04 #@! TA.AperFunction,SMDPad,CuDef*
%ADD38RoundRect,0.062500X0.062500X0.375000X-0.062500X0.375000X-0.062500X-0.375000X0.062500X-0.375000X0*%
G04 #@! TD*
G04 #@! TA.AperFunction,SMDPad,CuDef*
%ADD39R,3.100000X3.100000*%
G04 #@! TD*
G04 #@! TA.AperFunction,SMDPad,CuDef*
%ADD40R,0.242473X0.809638*%
G04 #@! TD*
G04 #@! TA.AperFunction,SMDPad,CuDef*
%ADD41R,0.809638X0.242473*%
G04 #@! TD*
G04 #@! TA.AperFunction,SMDPad,CuDef*
%ADD42R,2.550000X2.550000*%
G04 #@! TD*
G04 #@! TA.AperFunction,ViaPad*
%ADD43C,0.800000*%
G04 #@! TD*
G04 #@! TA.AperFunction,Conductor*
%ADD44C,0.250000*%
G04 #@! TD*
G04 #@! TA.AperFunction,Conductor*
%ADD45C,0.500000*%
G04 #@! TD*
G04 #@! TA.AperFunction,Conductor*
%ADD46C,0.700000*%
G04 #@! TD*
G04 #@! TA.AperFunction,Conductor*
%ADD47C,0.300000*%
G04 #@! TD*
G04 #@! TA.AperFunction,Conductor*
%ADD48C,0.200000*%
G04 #@! TD*
G04 APERTURE END LIST*
D10*
X67125000Y-39900000D03*
D11*
X66475000Y-38850000D03*
X67125000Y-38850000D03*
X67775000Y-38850000D03*
X67775000Y-40950000D03*
X67125000Y-40950000D03*
X66475000Y-40950000D03*
D12*
X76500000Y-61450000D03*
X78075000Y-61450000D03*
X76500000Y-59750000D03*
X78075000Y-59750000D03*
D13*
X80420000Y-61450000D03*
X79400000Y-61450000D03*
X80470000Y-59750000D03*
X79450000Y-59750000D03*
D14*
X104250000Y-62900000D03*
X104250000Y-50600000D03*
X104250000Y-38000000D03*
X50500000Y-64750000D03*
X50750000Y-55550000D03*
D15*
X67100000Y-47350000D03*
X69300000Y-47350000D03*
X69300000Y-49050000D03*
X67100000Y-49050000D03*
D16*
X76430000Y-47730000D03*
D17*
X76980000Y-48780000D03*
X77480000Y-48780000D03*
X77980000Y-48780000D03*
X78480000Y-48780000D03*
X78980000Y-48780000D03*
D16*
X79530000Y-47730000D03*
X79530000Y-47230000D03*
D17*
X78980000Y-46180000D03*
X78480000Y-46180000D03*
X77980000Y-46180000D03*
X77480000Y-46180000D03*
X76980000Y-46180000D03*
D16*
X76430000Y-47230000D03*
D18*
X77980000Y-47480000D03*
D19*
X84746671Y-42016246D03*
X86396671Y-42016246D03*
D20*
X60585000Y-52917500D03*
X60585000Y-54467500D03*
D21*
X66095000Y-62017500D03*
X66095000Y-60997500D03*
D22*
X92960000Y-35015000D03*
X92960000Y-39640000D03*
D13*
X100345000Y-56325000D03*
X99325000Y-56325000D03*
D23*
X60350000Y-44500000D03*
X60350000Y-47900000D03*
D13*
X100250000Y-43900000D03*
X99230000Y-43900000D03*
D24*
X64300000Y-47249998D03*
X64300000Y-48209998D03*
D20*
X82984171Y-51168746D03*
X82984171Y-52718746D03*
D22*
X92960000Y-59855000D03*
X92960000Y-64480000D03*
D25*
X95970000Y-51914325D03*
D26*
X95970000Y-53214325D03*
D27*
X98140000Y-52239325D03*
D19*
X84746671Y-40546246D03*
X86396671Y-40546246D03*
D28*
X60350000Y-42150000D03*
X61370000Y-42150000D03*
D29*
X54660000Y-36640000D03*
X48160000Y-36640000D03*
D13*
X101270000Y-42775000D03*
X100250000Y-42775000D03*
D16*
X76500000Y-53925000D03*
D17*
X77050000Y-54975000D03*
X77550000Y-54975000D03*
X78050000Y-54975000D03*
X78550000Y-54975000D03*
X79050000Y-54975000D03*
D16*
X79600000Y-53925000D03*
X79600000Y-53425000D03*
D17*
X79050000Y-52375000D03*
X78550000Y-52375000D03*
X78050000Y-52375000D03*
X77550000Y-52375000D03*
X77050000Y-52375000D03*
D16*
X76500000Y-53425000D03*
D18*
X78050000Y-53675000D03*
D13*
X99170000Y-55200000D03*
X98150000Y-55200000D03*
D24*
X97150000Y-55340000D03*
X97150000Y-56300000D03*
D30*
X84460000Y-67850000D03*
D31*
X81920000Y-67850000D03*
X79380000Y-67850000D03*
X76840000Y-67850000D03*
X74300000Y-67850000D03*
X71760000Y-67850000D03*
D13*
X100245000Y-68900000D03*
X99225000Y-68900000D03*
D32*
X58850000Y-50150000D03*
X60400000Y-50150000D03*
D29*
X54700000Y-45600000D03*
X48200000Y-45600000D03*
D24*
X96900000Y-42940000D03*
X96900000Y-43900000D03*
X96400000Y-67940000D03*
X96400000Y-68900000D03*
D33*
X67970000Y-44340000D03*
X66420000Y-44340000D03*
D34*
X69550000Y-58665000D03*
X69550000Y-57115000D03*
D32*
X85911671Y-53876246D03*
X87461671Y-53876246D03*
D21*
X68395000Y-62027500D03*
X68395000Y-61007500D03*
D22*
X93070000Y-47309325D03*
X93070000Y-51934325D03*
D25*
X95850000Y-39629325D03*
D26*
X95850000Y-40929325D03*
D27*
X98020000Y-39954325D03*
D21*
X67455000Y-62022500D03*
X67455000Y-61002500D03*
D13*
X101270000Y-67775000D03*
X100250000Y-67775000D03*
D32*
X84499171Y-46326246D03*
X86049171Y-46326246D03*
D13*
X99050000Y-67775000D03*
X98030000Y-67775000D03*
D30*
X68065000Y-65385000D03*
D31*
X68065000Y-67925000D03*
X65525000Y-65385000D03*
X65525000Y-67925000D03*
X62985000Y-65385000D03*
X62985000Y-67925000D03*
X60445000Y-65385000D03*
X60445000Y-67925000D03*
X57905000Y-65385000D03*
X57905000Y-67925000D03*
D25*
X98740000Y-36409325D03*
D26*
X98740000Y-35109325D03*
D27*
X96570000Y-36084325D03*
D19*
X84754171Y-58666246D03*
X86404171Y-58666246D03*
D33*
X67970000Y-42435000D03*
X66420000Y-42435000D03*
D34*
X90000000Y-52340000D03*
X90000000Y-50790000D03*
D35*
X71600002Y-48965000D03*
X71600002Y-48005000D03*
D20*
X73810000Y-45020000D03*
X73810000Y-46570000D03*
D36*
X60164000Y-37145000D03*
X63466000Y-37145000D03*
D34*
X73800000Y-54575000D03*
X73800000Y-53025000D03*
D20*
X69555000Y-53757500D03*
X69555000Y-55307500D03*
D13*
X99045000Y-42775000D03*
X98025000Y-42775000D03*
D25*
X95852220Y-64471899D03*
D26*
X95852220Y-65771899D03*
D27*
X98022220Y-64796899D03*
D33*
X86046671Y-44866246D03*
X84496671Y-44866246D03*
X68130000Y-37155000D03*
X66580000Y-37155000D03*
D19*
X84746671Y-39066246D03*
X86396671Y-39066246D03*
X84754171Y-55736246D03*
X86404171Y-55736246D03*
D37*
X67332500Y-58330000D03*
X67332500Y-57830000D03*
X67332500Y-57330000D03*
X67332500Y-56830000D03*
X67332500Y-56330000D03*
X67332500Y-55830000D03*
X67332500Y-55330000D03*
X67332500Y-54830000D03*
D38*
X66645000Y-54142500D03*
X66145000Y-54142500D03*
X65645000Y-54142500D03*
X65145000Y-54142500D03*
X64645000Y-54142500D03*
X64145000Y-54142500D03*
X63645000Y-54142500D03*
X63145000Y-54142500D03*
D37*
X62457500Y-54830000D03*
X62457500Y-55330000D03*
X62457500Y-55830000D03*
X62457500Y-56330000D03*
X62457500Y-56830000D03*
X62457500Y-57330000D03*
X62457500Y-57830000D03*
X62457500Y-58330000D03*
D38*
X63145000Y-59017500D03*
X63645000Y-59017500D03*
X64145000Y-59017500D03*
X64645000Y-59017500D03*
X65145000Y-59017500D03*
X65645000Y-59017500D03*
X66145000Y-59017500D03*
X66645000Y-59017500D03*
D39*
X64895000Y-56580000D03*
D19*
X84764171Y-57196246D03*
X86414171Y-57196246D03*
D25*
X98749720Y-61311899D03*
D26*
X98749720Y-60011899D03*
D27*
X96579720Y-60986899D03*
D21*
X65150000Y-62015000D03*
X65150000Y-60995000D03*
D13*
X101370000Y-55200000D03*
X100350000Y-55200000D03*
D35*
X60605000Y-56902500D03*
X60605000Y-55942500D03*
D25*
X98870000Y-48734325D03*
D26*
X98870000Y-47434325D03*
D27*
X96700000Y-48409325D03*
D32*
X63470000Y-39415000D03*
X65020000Y-39415000D03*
D40*
X87640001Y-48111246D03*
X87140002Y-48111246D03*
X86640001Y-48111246D03*
X86140001Y-48111246D03*
X85640000Y-48111246D03*
X85140001Y-48111246D03*
D41*
X84538754Y-48741246D03*
X84538754Y-49241245D03*
X84538754Y-49741246D03*
X84538754Y-50241246D03*
X84538754Y-50741247D03*
X84538754Y-51241246D03*
D40*
X85140000Y-51871246D03*
X85639999Y-51871246D03*
X86140000Y-51871246D03*
X86640000Y-51871246D03*
X87140001Y-51871246D03*
X87640000Y-51871246D03*
D41*
X88241246Y-51241246D03*
X88241246Y-50741247D03*
X88241246Y-50241246D03*
X88241246Y-49741246D03*
X88241246Y-49241245D03*
X88241246Y-48741246D03*
D42*
X86390000Y-49991246D03*
D43*
X75100000Y-60650000D03*
X75150000Y-61850000D03*
X81700000Y-60750000D03*
X81700000Y-59750000D03*
X65500000Y-47650000D03*
X65550000Y-46550000D03*
X46950000Y-35790000D03*
X49410000Y-36600000D03*
X65930000Y-56580000D03*
X66090000Y-62900000D03*
X47760000Y-37430000D03*
X68880000Y-40790000D03*
X92962220Y-33810000D03*
X71175000Y-49940000D03*
X64895000Y-55550000D03*
X49410000Y-44770000D03*
X96250000Y-55340000D03*
X65930000Y-57610000D03*
X58850000Y-51100000D03*
X68895000Y-39265000D03*
X62050000Y-40100000D03*
X47760000Y-46410000D03*
X93990000Y-48530000D03*
X48590000Y-44770000D03*
X102475000Y-55200000D03*
X69495000Y-40015000D03*
X48590000Y-37430000D03*
X92040000Y-34620000D03*
X49410000Y-37430000D03*
X74200000Y-43675000D03*
X65125000Y-62975000D03*
X69340000Y-37170000D03*
X47760000Y-35790000D03*
X49410000Y-45580000D03*
X92040000Y-35433101D03*
X83900000Y-47880000D03*
X49410000Y-46410000D03*
X92970000Y-34620000D03*
X47760000Y-44770000D03*
X48590000Y-36600000D03*
X92040000Y-61130000D03*
X92037780Y-60313101D03*
X57862500Y-51287500D03*
X86390000Y-49991246D03*
X95950000Y-43300000D03*
X92037780Y-59500000D03*
X87210000Y-49990000D03*
X86390000Y-50820000D03*
X65930000Y-55550000D03*
X92042220Y-36250000D03*
X69220000Y-43365000D03*
X69745000Y-41490000D03*
X93870000Y-58700000D03*
X92972220Y-36250000D03*
X93877780Y-60323101D03*
X46950000Y-45580000D03*
X63860000Y-55550000D03*
X64895000Y-56580000D03*
X63860000Y-56580000D03*
X60350000Y-51840000D03*
X49410000Y-35790000D03*
X95050000Y-67900000D03*
X80780000Y-54270000D03*
X102150000Y-42725000D03*
X83450000Y-44866246D03*
X63200000Y-40800000D03*
X46950000Y-44770000D03*
X58610000Y-37140000D03*
X63860000Y-57610000D03*
X93882220Y-36260000D03*
X93872220Y-33820000D03*
X72440000Y-54570000D03*
X48590000Y-46410000D03*
X72700000Y-48960000D03*
X46950000Y-36600000D03*
X93070000Y-46080000D03*
X93987780Y-47713101D03*
X72675000Y-47965000D03*
X64300000Y-46300000D03*
X70410000Y-59443500D03*
X85570000Y-49990000D03*
X93077780Y-47703101D03*
X48590000Y-35790000D03*
X69560000Y-52590000D03*
X58595000Y-35840000D03*
X92970000Y-61130000D03*
X93987780Y-46900000D03*
X71350000Y-58775000D03*
X80510000Y-48060000D03*
X46950000Y-37430000D03*
X64895000Y-57610000D03*
X92030000Y-58690000D03*
X83470000Y-46326246D03*
X69700000Y-50650000D03*
X47760000Y-36600000D03*
X69190000Y-44360000D03*
X92970000Y-35433101D03*
X92140000Y-46080000D03*
X93880000Y-34630000D03*
X93080000Y-48520000D03*
X68520000Y-35590000D03*
X46950000Y-46410000D03*
X102275000Y-67800000D03*
X92032220Y-33810000D03*
X92960000Y-58690000D03*
X93877780Y-59510000D03*
X92147780Y-46890000D03*
X92967780Y-59500000D03*
X48590000Y-45580000D03*
X59483882Y-56737302D03*
X86390000Y-49170000D03*
X59475000Y-52700000D03*
X47760000Y-45580000D03*
X92147780Y-47703101D03*
X93980000Y-46090000D03*
X93880000Y-35443101D03*
X92150000Y-48520000D03*
X92967780Y-60313101D03*
X72610000Y-45020000D03*
X69335000Y-42435000D03*
X93077780Y-46890000D03*
X84475000Y-43575000D03*
X93880000Y-61140000D03*
X95720000Y-35260000D03*
X95880000Y-49220000D03*
X55940000Y-46420000D03*
X86050000Y-43570000D03*
X55130000Y-35820000D03*
X95720000Y-36910000D03*
X53490000Y-37460000D03*
X97360000Y-36910000D03*
X95880000Y-47570000D03*
X55940000Y-45590000D03*
X53480000Y-45590000D03*
X55120000Y-46420000D03*
X55950000Y-35820000D03*
X97520000Y-48390000D03*
X95760000Y-60980000D03*
X53490000Y-35820000D03*
X53480000Y-46420000D03*
X96690000Y-48390000D03*
X96570000Y-60980000D03*
X95880000Y-48390000D03*
X97400000Y-60980000D03*
X54290000Y-46420000D03*
X55940000Y-44780000D03*
X95760000Y-61810000D03*
X96570000Y-61810000D03*
X96530000Y-35260000D03*
X55120000Y-45590000D03*
X96690000Y-49220000D03*
X97400000Y-61810000D03*
X96530000Y-36080000D03*
X55130000Y-36630000D03*
X55950000Y-36630000D03*
X54300000Y-35820000D03*
X97360000Y-36080000D03*
X95760000Y-60160000D03*
X97520000Y-47570000D03*
X55950000Y-37460000D03*
X96530000Y-36910000D03*
X95720000Y-36080000D03*
X53490000Y-36630000D03*
X97400000Y-60160000D03*
X53480000Y-44780000D03*
X97360000Y-35260000D03*
X96690000Y-47570000D03*
X54300000Y-36630000D03*
X54300000Y-37460000D03*
X55130000Y-37460000D03*
X54290000Y-44780000D03*
X97520000Y-49220000D03*
X54290000Y-45590000D03*
X96570000Y-60160000D03*
X87310000Y-45420000D03*
X55120000Y-44780000D03*
X94800000Y-43500000D03*
X89780000Y-54410000D03*
X92570000Y-42550000D03*
X89680000Y-45460000D03*
X84520000Y-53790000D03*
X95100000Y-56075000D03*
X90700000Y-56000000D03*
X93100000Y-56000000D03*
X60110803Y-58311500D03*
X93900000Y-44575000D03*
X88580000Y-37750000D03*
X63350000Y-44300000D03*
X62188300Y-53285603D03*
X75240000Y-54076500D03*
X63541034Y-52658966D03*
X78970000Y-44180000D03*
X65493000Y-52350000D03*
X76950000Y-50360000D03*
X76278534Y-57496466D03*
X61683196Y-54068873D03*
X62825000Y-50950000D03*
X72925000Y-59075000D03*
X79070000Y-51160000D03*
X72075000Y-61475000D03*
X64350000Y-52150000D03*
X75450000Y-44941500D03*
X94100000Y-53225000D03*
X88860000Y-41810000D03*
X88660000Y-53230000D03*
X89114491Y-51688500D03*
X83350000Y-54000000D03*
X84240000Y-52060000D03*
X65150000Y-43090000D03*
X64333918Y-43090000D03*
X59670000Y-55330000D03*
X70820000Y-57120000D03*
X73820000Y-51780000D03*
X64330000Y-44710000D03*
X64330000Y-42280000D03*
X65150000Y-43900000D03*
X65146082Y-44710000D03*
X64300000Y-62010000D03*
X65146082Y-42280000D03*
X70760000Y-55630000D03*
X72690000Y-46550000D03*
X64333918Y-43900000D03*
X87970000Y-42520000D03*
X93660000Y-65875000D03*
X60845653Y-58963000D03*
X98575000Y-58400000D03*
X67338000Y-53800000D03*
X75700000Y-46330000D03*
X75540000Y-48910000D03*
X76900000Y-44031500D03*
X70760000Y-51630000D03*
X81127500Y-49600000D03*
X90760000Y-49640000D03*
X81610000Y-48230500D03*
X90414256Y-48665517D03*
X77398000Y-56452221D03*
X89530000Y-48340000D03*
X89090000Y-46670000D03*
X77634138Y-44838777D03*
X88086095Y-46688479D03*
X80740000Y-53060000D03*
X79620000Y-56080000D03*
X87170000Y-46550000D03*
X57688500Y-61440000D03*
X57620000Y-57659500D03*
X59400000Y-57660000D03*
X61850000Y-60590000D03*
X88750000Y-36650000D03*
X63391500Y-60650000D03*
X91650000Y-55125000D03*
X92330000Y-66690000D03*
X90200000Y-67420000D03*
X67450000Y-63500000D03*
X64337272Y-60651336D03*
X67525000Y-59125000D03*
X62875000Y-47150000D03*
D44*
X94150000Y-56225000D02*
X93178754Y-57196246D01*
X94150000Y-55800000D02*
X94150000Y-56225000D01*
X96152000Y-53798000D02*
X94150000Y-55800000D01*
X96546325Y-53798000D02*
X96152000Y-53798000D01*
X93178754Y-57196246D02*
X86414171Y-57196246D01*
X96708000Y-53636325D02*
X96546325Y-53798000D01*
X96708000Y-50842325D02*
X96708000Y-53636325D01*
X97310325Y-50240000D02*
X96708000Y-50842325D01*
X96492932Y-54175000D02*
X98150000Y-54175000D01*
X95100000Y-55567932D02*
X96492932Y-54175000D01*
X95100000Y-56075000D02*
X95100000Y-55567932D01*
D45*
X98150000Y-53650000D02*
X98150000Y-55200000D01*
X98150000Y-53650000D02*
X98150000Y-52249325D01*
X98150000Y-54175000D02*
X98150000Y-53650000D01*
D44*
X97150000Y-56975000D02*
X97150000Y-56300000D01*
X98575000Y-58400000D02*
X97150000Y-56975000D01*
X93975000Y-67400000D02*
X94525000Y-66850000D01*
X82000000Y-58250000D02*
X91150000Y-67400000D01*
X82000000Y-52152917D02*
X82000000Y-58250000D01*
X91150000Y-67400000D02*
X93975000Y-67400000D01*
X94525000Y-66850000D02*
X97655000Y-66850000D01*
X82984171Y-51168746D02*
X82000000Y-52152917D01*
X97655000Y-66850000D02*
X98030000Y-66475000D01*
D45*
X98030000Y-66475000D02*
X98030000Y-67775000D01*
X98030000Y-66150000D02*
X98030000Y-66475000D01*
X98030000Y-66150000D02*
X98030000Y-64804679D01*
X98030000Y-64804679D02*
X98022220Y-64796899D01*
D44*
X96400000Y-69225000D02*
X96400000Y-68900000D01*
X96178000Y-69447000D02*
X96400000Y-69225000D01*
X71472000Y-69447000D02*
X96178000Y-69447000D01*
X62400000Y-66700000D02*
X68725000Y-66700000D01*
X61775000Y-66075000D02*
X62400000Y-66700000D01*
X61775000Y-62225000D02*
X61775000Y-66075000D01*
X61198000Y-61648000D02*
X61775000Y-62225000D01*
X62132500Y-59017500D02*
X61198000Y-59952000D01*
X68725000Y-66700000D02*
X71472000Y-69447000D01*
X63145000Y-59017500D02*
X62132500Y-59017500D01*
X61198000Y-59952000D02*
X61198000Y-61648000D01*
X65585000Y-38850000D02*
X66475000Y-38850000D01*
X65020000Y-39415000D02*
X65585000Y-38850000D01*
X68880000Y-40790000D02*
X67935000Y-40790000D01*
X67935000Y-40790000D02*
X67775000Y-40950000D01*
X67240000Y-40015000D02*
X67125000Y-39900000D01*
X69495000Y-40015000D02*
X67240000Y-40015000D01*
X68260000Y-39900000D02*
X67125000Y-39900000D01*
X68895000Y-39265000D02*
X68260000Y-39900000D01*
X67125000Y-38850000D02*
X67125000Y-39900000D01*
X67775000Y-38350000D02*
X66580000Y-37155000D01*
X67775000Y-38850000D02*
X67775000Y-38350000D01*
X66475000Y-37260000D02*
X66580000Y-37155000D01*
X66475000Y-38850000D02*
X66475000Y-37260000D01*
X62735000Y-39415000D02*
X63470000Y-39415000D01*
X62050000Y-40100000D02*
X62735000Y-39415000D01*
X63200000Y-39685000D02*
X63470000Y-39415000D01*
X63200000Y-40800000D02*
X63200000Y-39685000D01*
X62985000Y-62402932D02*
X62985000Y-65385000D01*
X64029932Y-61358000D02*
X62985000Y-62402932D01*
X64787000Y-61358000D02*
X64029932Y-61358000D01*
X65150000Y-60995000D02*
X64787000Y-61358000D01*
X92960000Y-39010000D02*
X92960000Y-39640000D01*
X90600000Y-36650000D02*
X92960000Y-39010000D01*
X88750000Y-36650000D02*
X90600000Y-36650000D01*
X75900000Y-61450000D02*
X75100000Y-60650000D01*
X76500000Y-61450000D02*
X75900000Y-61450000D01*
X76500000Y-61450000D02*
X75550000Y-61450000D01*
X75550000Y-61450000D02*
X75150000Y-61850000D01*
X81470000Y-60750000D02*
X80470000Y-59750000D01*
X81700000Y-60750000D02*
X81470000Y-60750000D01*
X80470000Y-59750000D02*
X81700000Y-59750000D01*
X79693000Y-60723000D02*
X80420000Y-61450000D01*
X77473000Y-60723000D02*
X79693000Y-60723000D01*
X76500000Y-59750000D02*
X77473000Y-60723000D01*
X79400000Y-61450000D02*
X78075000Y-61450000D01*
X78075000Y-59750000D02*
X79450000Y-59750000D01*
X75450000Y-59750000D02*
X76500000Y-59750000D01*
X73530000Y-57830000D02*
X75450000Y-59750000D01*
X67332500Y-58330000D02*
X67769999Y-58330000D01*
X84460000Y-64760000D02*
X84460000Y-67850000D01*
X82275000Y-62575000D02*
X84460000Y-64760000D01*
X67769999Y-58330000D02*
X72014999Y-62575000D01*
X72014999Y-62575000D02*
X82275000Y-62575000D01*
X79380000Y-66830000D02*
X79380000Y-67850000D01*
X69015000Y-62975000D02*
X75525000Y-62975000D01*
X75525000Y-62975000D02*
X79380000Y-66830000D01*
X68395000Y-62355000D02*
X69015000Y-62975000D01*
X68395000Y-62027500D02*
X68395000Y-62355000D01*
X76840000Y-66790000D02*
X76840000Y-67850000D01*
X73460000Y-63410000D02*
X76840000Y-66790000D01*
X67455000Y-62022500D02*
X68842500Y-63410000D01*
X68842500Y-63410000D02*
X73460000Y-63410000D01*
X73000000Y-68500000D02*
X73570000Y-69070000D01*
X73000000Y-67225000D02*
X73000000Y-68500000D01*
X69562000Y-63787000D02*
X73000000Y-67225000D01*
X88550000Y-69070000D02*
X90200000Y-67420000D01*
X67737000Y-63787000D02*
X69562000Y-63787000D01*
X73570000Y-69070000D02*
X88550000Y-69070000D01*
X67450000Y-63500000D02*
X67737000Y-63787000D01*
X63645000Y-59455000D02*
X63645000Y-59017500D01*
X62510000Y-60590000D02*
X63645000Y-59455000D01*
X61850000Y-60590000D02*
X62510000Y-60590000D01*
X63416540Y-60650000D02*
X64145000Y-59921540D01*
X63391500Y-60650000D02*
X63416540Y-60650000D01*
X64145000Y-59921540D02*
X64145000Y-59017500D01*
X64645000Y-52445000D02*
X64645000Y-54142500D01*
X64350000Y-52150000D02*
X64645000Y-52445000D01*
X64145000Y-53262932D02*
X64145000Y-54142500D01*
X63541034Y-52658966D02*
X64145000Y-53262932D01*
X63645000Y-53685000D02*
X63645000Y-54142500D01*
X62858603Y-52908603D02*
X62868603Y-52908603D01*
X62868603Y-52908603D02*
X63645000Y-53685000D01*
X62825000Y-52875000D02*
X62858603Y-52908603D01*
X62825000Y-50950000D02*
X62825000Y-52875000D01*
X65145000Y-52698000D02*
X65145000Y-54142500D01*
X65493000Y-52350000D02*
X65145000Y-52698000D01*
X66145000Y-51395000D02*
X64900000Y-50150000D01*
X66145000Y-54142500D02*
X66145000Y-51395000D01*
X64900000Y-50150000D02*
X60400000Y-50150000D01*
X65550000Y-46550000D02*
X66300000Y-46550000D01*
X66300000Y-46550000D02*
X67100000Y-47350000D01*
X66800000Y-47650000D02*
X67100000Y-47350000D01*
X65500000Y-47650000D02*
X66800000Y-47650000D01*
X68650000Y-47350000D02*
X69300000Y-47350000D01*
X68200000Y-52166841D02*
X68200000Y-47800000D01*
X68527000Y-52493841D02*
X68200000Y-52166841D01*
X68527000Y-55063000D02*
X68527000Y-52493841D01*
X68260000Y-55330000D02*
X68527000Y-55063000D01*
X68200000Y-47800000D02*
X68650000Y-47350000D01*
X67332500Y-55330000D02*
X68260000Y-55330000D01*
X67720000Y-54830000D02*
X67332500Y-54830000D01*
X68150000Y-54400000D02*
X67720000Y-54830000D01*
X68150000Y-52650000D02*
X68150000Y-54400000D01*
X67100000Y-51600000D02*
X68150000Y-52650000D01*
X67100000Y-49050000D02*
X67100000Y-51600000D01*
D45*
X71300000Y-47350000D02*
X69300000Y-47350000D01*
X71600002Y-47650002D02*
X71300000Y-47350000D01*
D44*
X70285000Y-49050000D02*
X69300000Y-49050000D01*
X71175000Y-49940000D02*
X70285000Y-49050000D01*
X69700000Y-49450000D02*
X69300000Y-49050000D01*
X69700000Y-50650000D02*
X69700000Y-49450000D01*
D45*
X64300000Y-48540000D02*
X64810000Y-49050000D01*
X64810000Y-49050000D02*
X67100000Y-49050000D01*
X64300000Y-48209998D02*
X64300000Y-48540000D01*
D44*
X74200000Y-43675000D02*
X73810000Y-44065000D01*
X71600002Y-48965000D02*
X72695000Y-48965000D01*
X67970000Y-44340000D02*
X67970000Y-44015000D01*
X68865000Y-40805000D02*
X68880000Y-40790000D01*
X69550000Y-59030000D02*
X69550000Y-58665000D01*
X70410000Y-59443500D02*
X69963500Y-59443500D01*
X102475000Y-55200000D02*
X101370000Y-55200000D01*
X84475000Y-44844575D02*
X84496671Y-44866246D01*
X59483882Y-56737302D02*
X59649080Y-56902500D01*
X95050000Y-67900000D02*
X96360000Y-67900000D01*
X68130000Y-37155000D02*
X69325000Y-37155000D01*
X71240000Y-58665000D02*
X71350000Y-58775000D01*
X66095000Y-62895000D02*
X66090000Y-62900000D01*
X68130000Y-35980000D02*
X68520000Y-35590000D01*
X73810000Y-44065000D02*
X73810000Y-45020000D01*
X83450000Y-44866246D02*
X84496671Y-44866246D01*
X101270000Y-42775000D02*
X102100000Y-42775000D01*
X67332500Y-56330000D02*
X65145000Y-56330000D01*
X60585000Y-52075000D02*
X60585000Y-52917500D01*
X79530000Y-47730000D02*
X80180000Y-47730000D01*
X96360000Y-67900000D02*
X96400000Y-67940000D01*
X65145000Y-56330000D02*
X64895000Y-56580000D01*
X62457500Y-56830000D02*
X64645000Y-56830000D01*
X96250000Y-55340000D02*
X97150000Y-55340000D01*
X69560000Y-52590000D02*
X69555000Y-52595000D01*
X57862500Y-51287500D02*
X58850000Y-50300000D01*
X80435000Y-53925000D02*
X80780000Y-54270000D01*
X67970000Y-42435000D02*
X68790000Y-41615000D01*
X65645000Y-57330000D02*
X64895000Y-56580000D01*
X69170000Y-44340000D02*
X67970000Y-44340000D01*
X62457500Y-56830000D02*
X60677500Y-56830000D01*
X73810000Y-45020000D02*
X72610000Y-45020000D01*
X60677500Y-56830000D02*
X60605000Y-56902500D01*
X58850000Y-51100000D02*
X58850000Y-50150000D01*
X66095000Y-62017500D02*
X66082500Y-62017500D01*
X96310000Y-42940000D02*
X96900000Y-42940000D01*
X64645000Y-56830000D02*
X64895000Y-56580000D01*
X60585000Y-52917500D02*
X59692500Y-52917500D01*
X102250000Y-67775000D02*
X102275000Y-67800000D01*
X67332500Y-57330000D02*
X65645000Y-57330000D01*
X68620000Y-43365000D02*
X69220000Y-43365000D01*
X60350000Y-51840000D02*
X60585000Y-52075000D01*
X68130000Y-37155000D02*
X68130000Y-35980000D01*
X83470000Y-46326246D02*
X84499171Y-46326246D01*
X69335000Y-42435000D02*
X67970000Y-42435000D01*
X59900000Y-37145000D02*
X58595000Y-35840000D01*
X58615000Y-37145000D02*
X58610000Y-37140000D01*
X69620000Y-41615000D02*
X69745000Y-41490000D01*
X68790000Y-41615000D02*
X69620000Y-41615000D01*
X66082500Y-62017500D02*
X65125000Y-62975000D01*
X59649080Y-56902500D02*
X60605000Y-56902500D01*
X83900000Y-47880000D02*
X84131246Y-48111246D01*
X69555000Y-52595000D02*
X69555000Y-53757500D01*
X69963500Y-59443500D02*
X69550000Y-59030000D01*
X79600000Y-53925000D02*
X80435000Y-53925000D01*
X72440000Y-54570000D02*
X72445000Y-54575000D01*
X102100000Y-42775000D02*
X102150000Y-42725000D01*
X66095000Y-62017500D02*
X66095000Y-62895000D01*
X60164000Y-37145000D02*
X58615000Y-37145000D01*
X80180000Y-47730000D02*
X80510000Y-48060000D01*
X58850000Y-50300000D02*
X58850000Y-50150000D01*
X95950000Y-43300000D02*
X96310000Y-42940000D01*
X72445000Y-54575000D02*
X73800000Y-54575000D01*
X69550000Y-58665000D02*
X71240000Y-58665000D01*
X71675000Y-48965000D02*
X72675000Y-47965000D01*
X59692500Y-52917500D02*
X59475000Y-52700000D01*
X60164000Y-37145000D02*
X59900000Y-37145000D01*
X84131246Y-48111246D02*
X85140001Y-48111246D01*
X69325000Y-37155000D02*
X69340000Y-37170000D01*
X101270000Y-67775000D02*
X102250000Y-67775000D01*
X67970000Y-44015000D02*
X68620000Y-43365000D01*
X69190000Y-44360000D02*
X69170000Y-44340000D01*
X64300000Y-46300000D02*
X64300000Y-47249998D01*
X84475000Y-43575000D02*
X84475000Y-44844575D01*
D45*
X71600002Y-48005000D02*
X71600002Y-47650002D01*
D44*
X86050000Y-43570000D02*
X86050000Y-44862917D01*
X86140001Y-48111246D02*
X86140001Y-46417076D01*
X87310000Y-45420000D02*
X86955417Y-45420000D01*
D46*
X66570000Y-37145000D02*
X66580000Y-37155000D01*
D44*
X86140001Y-46417076D02*
X86049171Y-46326246D01*
X86050000Y-44862917D02*
X86046671Y-44866246D01*
X86955417Y-45420000D02*
X86049171Y-46326246D01*
D46*
X86046671Y-44866246D02*
X86046671Y-46323746D01*
X86046671Y-46323746D02*
X86049171Y-46326246D01*
D44*
X95750000Y-42175000D02*
X97194325Y-42175000D01*
D45*
X98020000Y-42770000D02*
X98025000Y-42775000D01*
D44*
X94800000Y-43500000D02*
X94800000Y-43125000D01*
X87640000Y-52190000D02*
X87790000Y-52340000D01*
X87640000Y-51871246D02*
X87640000Y-52190000D01*
X94800000Y-43125000D02*
X95750000Y-42175000D01*
X90000000Y-52340000D02*
X90000000Y-54190000D01*
D45*
X98020000Y-39954325D02*
X98020000Y-42770000D01*
D44*
X87790000Y-52340000D02*
X90000000Y-52340000D01*
X98020000Y-41349325D02*
X98020000Y-39954325D01*
X90000000Y-54190000D02*
X89780000Y-54410000D01*
X97194325Y-42175000D02*
X98020000Y-41349325D01*
X92570000Y-42570000D02*
X92570000Y-42550000D01*
X89680000Y-45460000D02*
X92570000Y-42570000D01*
X89951247Y-50741247D02*
X90000000Y-50790000D01*
X88241246Y-50741247D02*
X89951247Y-50741247D01*
D45*
X98150000Y-52249325D02*
X98140000Y-52239325D01*
D44*
X86140000Y-52810000D02*
X86140000Y-51871246D01*
X85910000Y-53874575D02*
X85910000Y-53040000D01*
X84606246Y-53876246D02*
X84520000Y-53790000D01*
X93100000Y-56000000D02*
X90700000Y-56000000D01*
X85911671Y-53876246D02*
X84606246Y-53876246D01*
X98140000Y-52785000D02*
X98140000Y-52239325D01*
X85910000Y-53040000D02*
X86140000Y-52810000D01*
X85911671Y-53876246D02*
X85910000Y-53874575D01*
X87460000Y-53874575D02*
X87460000Y-53150000D01*
X87460000Y-53150000D02*
X87140001Y-52830001D01*
X87461671Y-53876246D02*
X87460000Y-53874575D01*
X87140001Y-52830001D02*
X87140001Y-51871246D01*
X84538754Y-51241246D02*
X83056671Y-51241246D01*
X83056671Y-51241246D02*
X82984171Y-51168746D01*
X85447318Y-52718746D02*
X82984171Y-52718746D01*
X85639999Y-52526065D02*
X85447318Y-52718746D01*
X85639999Y-51871246D02*
X85639999Y-52526065D01*
X95750000Y-44575000D02*
X96425000Y-43900000D01*
X63350000Y-44300000D02*
X63350000Y-45042068D01*
X71257932Y-45450000D02*
X78957932Y-37750000D01*
X62457500Y-57830000D02*
X62420000Y-57830000D01*
X62410000Y-57840000D02*
X62420000Y-57830000D01*
D45*
X99230000Y-43900000D02*
X96900000Y-43900000D01*
D44*
X78957932Y-37750000D02*
X88580000Y-37750000D01*
X63350000Y-45042068D02*
X63757932Y-45450000D01*
X61473159Y-57830000D02*
X60991659Y-58311500D01*
X63757932Y-45450000D02*
X71257932Y-45450000D01*
X60991659Y-58311500D02*
X60110803Y-58311500D01*
X93900000Y-44575000D02*
X95750000Y-44575000D01*
X62457500Y-57830000D02*
X61473159Y-57830000D01*
X96425000Y-43900000D02*
X96900000Y-43900000D01*
X65150000Y-60995000D02*
X65150000Y-59022500D01*
D45*
X65152500Y-60997500D02*
X65150000Y-60995000D01*
D44*
X65150000Y-59022500D02*
X65145000Y-59017500D01*
D45*
X66095000Y-60997500D02*
X65152500Y-60997500D01*
D44*
X62712445Y-53285603D02*
X62188300Y-53285603D01*
X75391500Y-53925000D02*
X75240000Y-54076500D01*
X61613000Y-51188000D02*
X60032000Y-51188000D01*
D47*
X57905000Y-65385000D02*
X57990000Y-65385000D01*
D44*
X62188300Y-51763300D02*
X61613000Y-51188000D01*
X63145000Y-54142500D02*
X63145000Y-53718158D01*
D47*
X57990000Y-65385000D02*
X58370000Y-65005000D01*
D44*
X62188300Y-53285603D02*
X62188300Y-51763300D01*
X58370000Y-52850000D02*
X58370000Y-65005000D01*
X63145000Y-53718158D02*
X62712445Y-53285603D01*
X76500000Y-53925000D02*
X75391500Y-53925000D01*
X60032000Y-51188000D02*
X58370000Y-52850000D01*
X78970000Y-46170000D02*
X78980000Y-46180000D01*
X78970000Y-44180000D02*
X78970000Y-46170000D01*
X77980000Y-49330000D02*
X77980000Y-48780000D01*
X76950000Y-50360000D02*
X77980000Y-49330000D01*
D47*
X60445000Y-65385000D02*
X60445000Y-64905000D01*
D44*
X77600000Y-57300000D02*
X78050000Y-56850000D01*
X61379823Y-53765500D02*
X59784500Y-53765500D01*
X59784500Y-53765500D02*
X58748000Y-54802000D01*
X62100000Y-54830000D02*
X62457500Y-54830000D01*
X58748000Y-54802000D02*
X58748000Y-63208000D01*
X61683196Y-54068873D02*
X61379823Y-53765500D01*
X76475000Y-57300000D02*
X77600000Y-57300000D01*
X78050000Y-56850000D02*
X78050000Y-54975000D01*
X58748000Y-63208000D02*
X60445000Y-64905000D01*
X76278534Y-57496466D02*
X76475000Y-57300000D01*
X61683196Y-54413196D02*
X62100000Y-54830000D01*
X61683196Y-54068873D02*
X61683196Y-54413196D01*
X79070000Y-51160000D02*
X79050000Y-51180000D01*
X72075000Y-59925000D02*
X72925000Y-59075000D01*
X72075000Y-61475000D02*
X72075000Y-59925000D01*
X79050000Y-51180000D02*
X79050000Y-52375000D01*
X75450000Y-44941500D02*
X76815500Y-44941500D01*
X77480000Y-45606000D02*
X77480000Y-46180000D01*
X76815500Y-44941500D02*
X77480000Y-45606000D01*
X89813754Y-55736246D02*
X91412000Y-54138000D01*
X91412000Y-45758000D02*
X95400000Y-41770000D01*
X98038000Y-37683325D02*
X98038000Y-35332000D01*
X97701325Y-38020000D02*
X98038000Y-37683325D01*
X98038000Y-35332000D02*
X98260675Y-35109325D01*
X96800000Y-38020000D02*
X97701325Y-38020000D01*
X86404171Y-55736246D02*
X89813754Y-55736246D01*
X98260675Y-35109325D02*
X98740000Y-35109325D01*
X96588000Y-41315325D02*
X96588000Y-38232000D01*
X95400000Y-41770000D02*
X96133325Y-41770000D01*
X91412000Y-54138000D02*
X91412000Y-45758000D01*
X96588000Y-38232000D02*
X96800000Y-38020000D01*
X96133325Y-41770000D02*
X96588000Y-41315325D01*
D48*
X98193000Y-50007000D02*
X98193000Y-47597000D01*
X98193000Y-47597000D02*
X98355675Y-47434325D01*
X98355675Y-47434325D02*
X98870000Y-47434325D01*
X97960000Y-50240000D02*
X98193000Y-50007000D01*
X97310325Y-50240000D02*
X97960000Y-50240000D01*
D44*
X86396671Y-39066246D02*
X89136246Y-39066246D01*
X90999325Y-40929325D02*
X95850000Y-40929325D01*
X89136246Y-39066246D02*
X90999325Y-40929325D01*
X86404171Y-58666246D02*
X87108754Y-58666246D01*
X87108754Y-58666246D02*
X88125000Y-57650000D01*
X88125000Y-57650000D02*
X96387821Y-57650000D01*
X96387821Y-57650000D02*
X98749720Y-60011899D01*
X95275000Y-53225000D02*
X95285675Y-53214325D01*
X86396671Y-40546246D02*
X87596246Y-40546246D01*
X94100000Y-53225000D02*
X95275000Y-53225000D01*
X95285675Y-53214325D02*
X95970000Y-53214325D01*
X87596246Y-40546246D02*
X88860000Y-41810000D01*
X84754171Y-55736246D02*
X84754171Y-55325829D01*
X88660000Y-54000000D02*
X88660000Y-53230000D01*
X87650754Y-55009246D02*
X88660000Y-54000000D01*
X85070754Y-55009246D02*
X87650754Y-55009246D01*
X84754171Y-55325829D02*
X85070754Y-55009246D01*
X88241246Y-51241246D02*
X88667237Y-51241246D01*
X88667237Y-51241246D02*
X89114491Y-51688500D01*
X84538754Y-50741247D02*
X83706252Y-50741247D01*
X83706252Y-50741247D02*
X82262000Y-49296995D01*
X82262000Y-41550917D02*
X84746671Y-39066246D01*
X82262000Y-49296995D02*
X82262000Y-41550917D01*
X83850777Y-50241246D02*
X82650000Y-49040469D01*
X84538754Y-50241246D02*
X83850777Y-50241246D01*
X82650000Y-49040469D02*
X82650000Y-42642917D01*
X82650000Y-42642917D02*
X84746671Y-40546246D01*
X84102171Y-55187829D02*
X84686754Y-54603246D01*
X86720000Y-51951246D02*
X86640000Y-51871246D01*
X84686754Y-54603246D02*
X86546754Y-54603246D01*
X86546754Y-54603246D02*
X86720000Y-54430000D01*
X84764171Y-57196246D02*
X84102171Y-56534246D01*
X86720000Y-54430000D02*
X86720000Y-51951246D01*
X84102171Y-56534246D02*
X84102171Y-55187829D01*
X83200000Y-47560000D02*
X83532000Y-47228000D01*
X83200000Y-49057311D02*
X83200000Y-47560000D01*
X84538754Y-49741246D02*
X83883935Y-49741246D01*
X83532000Y-47228000D02*
X84746997Y-47228000D01*
X84746997Y-47228000D02*
X85320000Y-46654997D01*
X85320000Y-46654997D02*
X85320000Y-42230000D01*
X85320000Y-42230000D02*
X85106246Y-42016246D01*
X85106246Y-42016246D02*
X84746671Y-42016246D01*
X83883935Y-49741246D02*
X83200000Y-49057311D01*
X85140000Y-51871246D02*
X84428754Y-51871246D01*
X83350000Y-58250000D02*
X83766246Y-58666246D01*
X84428754Y-51871246D02*
X84240000Y-52060000D01*
X83766246Y-58666246D02*
X84754171Y-58666246D01*
X83350000Y-54000000D02*
X83350000Y-58250000D01*
X62457500Y-55330000D02*
X60840000Y-55330000D01*
X74470000Y-47230000D02*
X76430000Y-47230000D01*
X72690000Y-46550000D02*
X73790000Y-46550000D01*
X68815658Y-55307500D02*
X69555000Y-55307500D01*
X59670000Y-54580000D02*
X59670000Y-55330000D01*
X68293158Y-55830000D02*
X68815658Y-55307500D01*
X69550000Y-57115000D02*
X70815000Y-57115000D01*
X60840000Y-55330000D02*
X60585000Y-55075000D01*
X74200000Y-53425000D02*
X76500000Y-53425000D01*
X60585000Y-55075000D02*
X60585000Y-54467500D01*
X73790000Y-46550000D02*
X73810000Y-46570000D01*
X70815000Y-57115000D02*
X70820000Y-57120000D01*
X59782500Y-54467500D02*
X59670000Y-54580000D01*
X73820000Y-53005000D02*
X73800000Y-53025000D01*
X73820000Y-51780000D02*
X73820000Y-53005000D01*
X73800000Y-53025000D02*
X74200000Y-53425000D01*
X67332500Y-55830000D02*
X68293158Y-55830000D01*
X64305000Y-62015000D02*
X64300000Y-62010000D01*
X65150000Y-62015000D02*
X64305000Y-62015000D01*
X69265000Y-56830000D02*
X69550000Y-57115000D01*
X70437500Y-55307500D02*
X70760000Y-55630000D01*
X67332500Y-56830000D02*
X69265000Y-56830000D01*
X73810000Y-46570000D02*
X74470000Y-47230000D01*
X60585000Y-54467500D02*
X59782500Y-54467500D01*
X69555000Y-55307500D02*
X70437500Y-55307500D01*
X95150000Y-65775000D02*
X95300000Y-65775000D01*
X93660000Y-65875000D02*
X95050000Y-65875000D01*
X87466246Y-42016246D02*
X87970000Y-42520000D01*
X95300000Y-65775000D02*
X95303101Y-65771899D01*
X95050000Y-65875000D02*
X95150000Y-65775000D01*
X86396671Y-42016246D02*
X87466246Y-42016246D01*
X95303101Y-65771899D02*
X95852220Y-65771899D01*
X61172500Y-55942500D02*
X60605000Y-55942500D01*
X61560000Y-56330000D02*
X61172500Y-55942500D01*
X62457500Y-56330000D02*
X61560000Y-56330000D01*
X67327000Y-60557000D02*
X66769072Y-60557000D01*
X67455000Y-60685000D02*
X67327000Y-60557000D01*
X67455000Y-61002500D02*
X67455000Y-60685000D01*
X65645000Y-59432928D02*
X65645000Y-59017500D01*
X66769072Y-60557000D02*
X65645000Y-59432928D01*
X66145000Y-59399770D02*
X66925230Y-60180000D01*
X66145000Y-59017500D02*
X66145000Y-59399770D01*
X68395000Y-60665000D02*
X68395000Y-61007500D01*
X66925230Y-60180000D02*
X67910000Y-60180000D01*
X67910000Y-60180000D02*
X68395000Y-60665000D01*
D45*
X99325000Y-56325000D02*
X97175000Y-56325000D01*
D44*
X61910000Y-58330000D02*
X61277000Y-58963000D01*
X61277000Y-58963000D02*
X60845653Y-58963000D01*
X62457500Y-58330000D02*
X61910000Y-58330000D01*
D45*
X97175000Y-56325000D02*
X97150000Y-56300000D01*
D44*
X61950000Y-47900000D02*
X60350000Y-47900000D01*
X60350000Y-47900000D02*
X60350000Y-50100000D01*
X60350000Y-50100000D02*
X60400000Y-50150000D01*
D45*
X99225000Y-68900000D02*
X96400000Y-68900000D01*
D44*
X75540000Y-50140000D02*
X74600000Y-51080000D01*
X78480000Y-50100000D02*
X77500000Y-51080000D01*
X78701500Y-56480000D02*
X78550000Y-56328500D01*
X78550000Y-51675000D02*
X77955000Y-51080000D01*
X78480000Y-48780000D02*
X78480000Y-50100000D01*
X78701500Y-57578500D02*
X78701500Y-56480000D01*
X71310000Y-51080000D02*
X70760000Y-51630000D01*
X76182000Y-58322000D02*
X77958000Y-58322000D01*
X76980000Y-46180000D02*
X75850000Y-46180000D01*
X70760000Y-54680000D02*
X70760000Y-51630000D01*
X66987500Y-53800000D02*
X66645000Y-54142500D01*
X78480000Y-44720000D02*
X78480000Y-46180000D01*
X75790000Y-56820000D02*
X74680000Y-56820000D01*
X74600000Y-51080000D02*
X71310000Y-51080000D01*
X75540000Y-48910000D02*
X75540000Y-50140000D01*
X78550000Y-56328500D02*
X78550000Y-54975000D01*
X77050000Y-55560000D02*
X75790000Y-56820000D01*
X77500000Y-51080000D02*
X77020000Y-51080000D01*
X74680000Y-56820000D02*
X72900000Y-56820000D01*
X77791500Y-44031500D02*
X78480000Y-44720000D01*
X77050000Y-54975000D02*
X77050000Y-55560000D01*
X77958000Y-58322000D02*
X78701500Y-57578500D01*
X75850000Y-46180000D02*
X75700000Y-46330000D01*
X77020000Y-51080000D02*
X74600000Y-51080000D01*
X76900000Y-44031500D02*
X77791500Y-44031500D01*
X74680000Y-56820000D02*
X76182000Y-58322000D01*
X72900000Y-56820000D02*
X70760000Y-54680000D01*
X77955000Y-51080000D02*
X77020000Y-51080000D01*
X67338000Y-53800000D02*
X66987500Y-53800000D01*
X78550000Y-52375000D02*
X78550000Y-51675000D01*
X80580000Y-49600000D02*
X79760000Y-48780000D01*
X90658754Y-49741246D02*
X88241246Y-49741246D01*
X81127500Y-49600000D02*
X80580000Y-49600000D01*
X90760000Y-49640000D02*
X90658754Y-49741246D01*
X79760000Y-48780000D02*
X78980000Y-48780000D01*
X80609500Y-47230000D02*
X79530000Y-47230000D01*
X88241246Y-49241245D02*
X89838528Y-49241245D01*
X81610000Y-48230500D02*
X80609500Y-47230000D01*
X89838528Y-49241245D02*
X90414256Y-48665517D01*
X88242492Y-48740000D02*
X88241246Y-48741246D01*
X77398000Y-56452221D02*
X77550000Y-56300221D01*
X89130000Y-48740000D02*
X88242492Y-48740000D01*
X89530000Y-48340000D02*
X89130000Y-48740000D01*
X77550000Y-56300221D02*
X77550000Y-54975000D01*
X89090000Y-46670000D02*
X88419521Y-47340479D01*
X87640001Y-47667731D02*
X87640001Y-48111246D01*
X77980000Y-46180000D02*
X77980000Y-45184639D01*
X88419521Y-47340479D02*
X87967253Y-47340479D01*
X77980000Y-45184639D02*
X77634138Y-44838777D01*
X87967253Y-47340479D02*
X87640001Y-47667731D01*
X79600000Y-53425000D02*
X80375000Y-53425000D01*
X80375000Y-53425000D02*
X80740000Y-53060000D01*
X88086095Y-46688479D02*
X87140002Y-47634572D01*
X87140002Y-47634572D02*
X87140002Y-48111246D01*
X87170000Y-46550000D02*
X86640001Y-47079999D01*
X86640001Y-47079999D02*
X86640001Y-48111246D01*
X79050000Y-54975000D02*
X79050000Y-55510000D01*
X79050000Y-55510000D02*
X79620000Y-56080000D01*
X57620000Y-57659500D02*
X57620000Y-61371500D01*
X61440000Y-57330000D02*
X61150000Y-57620000D01*
X61150000Y-57620000D02*
X61110000Y-57660000D01*
X61110000Y-57660000D02*
X59400000Y-57660000D01*
X62457500Y-57330000D02*
X61440000Y-57330000D01*
X57620000Y-61371500D02*
X57688500Y-61440000D01*
X93075000Y-51939325D02*
X93070000Y-51934325D01*
X91650000Y-55125000D02*
X93075000Y-53700000D01*
X93075000Y-53700000D02*
X93075000Y-51939325D01*
X64337272Y-60651336D02*
X64645000Y-60343608D01*
X92330000Y-65110000D02*
X92960000Y-64480000D01*
X64645000Y-60343608D02*
X64645000Y-59017500D01*
X92330000Y-66690000D02*
X92330000Y-65110000D01*
X60350000Y-42150000D02*
X60350000Y-44500000D01*
X66645000Y-59017500D02*
X67417500Y-59017500D01*
X67417500Y-59017500D02*
X67525000Y-59125000D01*
X62875000Y-47150000D02*
X62698000Y-46973000D01*
X62698000Y-46973000D02*
X62698000Y-42898000D01*
X61950000Y-42150000D02*
X61370000Y-42150000D01*
X62698000Y-42898000D02*
X61950000Y-42150000D01*
X73530000Y-57830000D02*
X67332500Y-57830000D01*
D45*
X100250000Y-42775000D02*
X100250000Y-43900000D01*
X99045000Y-42775000D02*
X100250000Y-42775000D01*
X99170000Y-55200000D02*
X100350000Y-55200000D01*
X100345000Y-56325000D02*
X100345000Y-55205000D01*
X100345000Y-55205000D02*
X100350000Y-55200000D01*
X100250000Y-67775000D02*
X100250000Y-68895000D01*
X99050000Y-67775000D02*
X100250000Y-67775000D01*
X100250000Y-68895000D02*
X100245000Y-68900000D01*
G04 #@! TA.AperFunction,Conductor*
G36*
X94563039Y-45539685D02*
G01*
X94608794Y-45592489D01*
X94620000Y-45644000D01*
X94620000Y-48856000D01*
X94600315Y-48923039D01*
X94547511Y-48968794D01*
X94496000Y-48980000D01*
X92161500Y-48980000D01*
X92094461Y-48960315D01*
X92048706Y-48907511D01*
X92037500Y-48856000D01*
X92037500Y-46068452D01*
X92057185Y-46001413D01*
X92073819Y-45980771D01*
X92498271Y-45556319D01*
X92559594Y-45522834D01*
X92585952Y-45520000D01*
X94496000Y-45520000D01*
X94563039Y-45539685D01*
G37*
G04 #@! TD.AperFunction*
G04 #@! TA.AperFunction,Conductor*
G36*
X96280736Y-50171319D02*
G01*
X96326810Y-50223845D01*
X96337174Y-50292941D01*
X96308535Y-50356672D01*
X96302013Y-50363721D01*
X96222139Y-50443595D01*
X96222138Y-50443597D01*
X96153690Y-50546033D01*
X96153688Y-50546038D01*
X96131240Y-50600234D01*
X96106538Y-50659869D01*
X96106535Y-50659881D01*
X96082500Y-50780714D01*
X96082500Y-52419825D01*
X96062815Y-52486864D01*
X96010011Y-52532619D01*
X95958500Y-52543825D01*
X95472129Y-52543825D01*
X95472123Y-52543826D01*
X95412516Y-52550233D01*
X95330010Y-52581007D01*
X95286677Y-52588825D01*
X95224069Y-52588825D01*
X95182376Y-52597118D01*
X95158186Y-52599500D01*
X94803748Y-52599500D01*
X94736709Y-52579815D01*
X94711600Y-52558474D01*
X94705873Y-52552114D01*
X94705869Y-52552110D01*
X94552734Y-52440851D01*
X94552729Y-52440848D01*
X94379807Y-52363857D01*
X94379802Y-52363855D01*
X94234001Y-52332865D01*
X94194646Y-52324500D01*
X94005354Y-52324500D01*
X93972897Y-52331398D01*
X93820197Y-52363855D01*
X93820192Y-52363857D01*
X93647270Y-52440848D01*
X93647265Y-52440851D01*
X93494135Y-52552106D01*
X93494128Y-52552112D01*
X93421002Y-52633326D01*
X93361515Y-52669974D01*
X93329409Y-52674352D01*
X92162056Y-52679587D01*
X92094929Y-52660203D01*
X92048938Y-52607605D01*
X92037500Y-52555588D01*
X92037500Y-50300652D01*
X92057185Y-50233613D01*
X92109989Y-50187858D01*
X92160740Y-50176655D01*
X96213581Y-50152043D01*
X96280736Y-50171319D01*
G37*
G04 #@! TD.AperFunction*
G04 #@! TA.AperFunction,Conductor*
G36*
X51367560Y-43419948D02*
G01*
X51413557Y-43472542D01*
X51425000Y-43524570D01*
X51425000Y-47726572D01*
X51405315Y-47793611D01*
X51352511Y-47839366D01*
X51301574Y-47850571D01*
X46148872Y-47874426D01*
X46081742Y-47855052D01*
X46035743Y-47802460D01*
X46024300Y-47751128D01*
X46024161Y-47726572D01*
X46002216Y-43842296D01*
X46002215Y-43841789D01*
X46002408Y-43548224D01*
X46022137Y-43481198D01*
X46074971Y-43435478D01*
X46125838Y-43424307D01*
X51300432Y-43400571D01*
X51367560Y-43419948D01*
G37*
G04 #@! TD.AperFunction*
G04 #@! TA.AperFunction,Conductor*
G36*
X94455259Y-33269685D02*
G01*
X94501014Y-33322489D01*
X94512220Y-33374000D01*
X94512220Y-36586000D01*
X94492535Y-36653039D01*
X94439731Y-36698794D01*
X94388220Y-36710000D01*
X91595952Y-36710000D01*
X91528913Y-36690315D01*
X91508271Y-36673681D01*
X91448539Y-36613949D01*
X91415054Y-36552626D01*
X91412220Y-36526268D01*
X91412220Y-33374000D01*
X91431905Y-33306961D01*
X91484709Y-33261206D01*
X91536220Y-33250000D01*
X94388220Y-33250000D01*
X94455259Y-33269685D01*
G37*
G04 #@! TD.AperFunction*
G04 #@! TA.AperFunction,Conductor*
G36*
X94453039Y-58295185D02*
G01*
X94498794Y-58347989D01*
X94510000Y-58399500D01*
X94510000Y-61466000D01*
X94490315Y-61533039D01*
X94437511Y-61578794D01*
X94386000Y-61590000D01*
X91534000Y-61590000D01*
X91466961Y-61570315D01*
X91421206Y-61517511D01*
X91410000Y-61466000D01*
X91410000Y-58399500D01*
X91429685Y-58332461D01*
X91482489Y-58286706D01*
X91534000Y-58275500D01*
X94386000Y-58275500D01*
X94453039Y-58295185D01*
G37*
G04 #@! TD.AperFunction*
G04 #@! TA.AperFunction,Conductor*
G36*
X51392560Y-34044948D02*
G01*
X51438557Y-34097542D01*
X51450000Y-34149570D01*
X51450000Y-38851569D01*
X51430315Y-38918608D01*
X51377511Y-38964363D01*
X51326571Y-38975568D01*
X46149571Y-38999425D01*
X46082442Y-38980049D01*
X46036444Y-38927457D01*
X46025000Y-38875426D01*
X46025000Y-34173317D01*
X46044685Y-34106278D01*
X46097489Y-34060523D01*
X46148427Y-34049318D01*
X51325432Y-34025571D01*
X51392560Y-34044948D01*
G37*
G04 #@! TD.AperFunction*
G04 #@! TA.AperFunction,Conductor*
G36*
X68166865Y-32009585D02*
G01*
X68233838Y-32029495D01*
X68279414Y-32082453D01*
X68290446Y-32133134D01*
X68299472Y-34621487D01*
X68280031Y-34688598D01*
X68227393Y-34734544D01*
X68225910Y-34735216D01*
X68067267Y-34805850D01*
X68067265Y-34805851D01*
X67914129Y-34917111D01*
X67787466Y-35057785D01*
X67692821Y-35221715D01*
X67692818Y-35221722D01*
X67664855Y-35307785D01*
X67634326Y-35401744D01*
X67614540Y-35590000D01*
X67613861Y-35596463D01*
X67612095Y-35596277D01*
X67594855Y-35654992D01*
X67593643Y-35656843D01*
X67575688Y-35683714D01*
X67575685Y-35683719D01*
X67552848Y-35738855D01*
X67528539Y-35797541D01*
X67528535Y-35797555D01*
X67504500Y-35918389D01*
X67504500Y-36230452D01*
X67484815Y-36297491D01*
X67457410Y-36327719D01*
X67451958Y-36332029D01*
X67332029Y-36451959D01*
X67243001Y-36596294D01*
X67242996Y-36596305D01*
X67189651Y-36757290D01*
X67179500Y-36856647D01*
X67179500Y-37453337D01*
X67179501Y-37453355D01*
X67189650Y-37552707D01*
X67189651Y-37552710D01*
X67242996Y-37713694D01*
X67242998Y-37713699D01*
X67333487Y-37860403D01*
X67351927Y-37927795D01*
X67331005Y-37994459D01*
X67277363Y-38039229D01*
X67227948Y-38049500D01*
X66902130Y-38049500D01*
X66902123Y-38049501D01*
X66842516Y-38055908D01*
X66707671Y-38106202D01*
X66707664Y-38106206D01*
X66592455Y-38192452D01*
X66592452Y-38192455D01*
X66506206Y-38307664D01*
X66506202Y-38307671D01*
X66455908Y-38442517D01*
X66449501Y-38502116D01*
X66449501Y-38502123D01*
X66449500Y-38502135D01*
X66449500Y-38725500D01*
X66429815Y-38792539D01*
X66377011Y-38838294D01*
X66325501Y-38849500D01*
X66227130Y-38849500D01*
X66227123Y-38849501D01*
X66167516Y-38855908D01*
X66032671Y-38906202D01*
X66032664Y-38906206D01*
X65917455Y-38992452D01*
X65917452Y-38992455D01*
X65831206Y-39107664D01*
X65831202Y-39107671D01*
X65782274Y-39238856D01*
X65780909Y-39242517D01*
X65774500Y-39302127D01*
X65774500Y-39627170D01*
X65774501Y-39870500D01*
X65754817Y-39937539D01*
X65702013Y-39983294D01*
X65650501Y-39994500D01*
X64521830Y-39994500D01*
X64454791Y-39974815D01*
X64409036Y-39922011D01*
X64399092Y-39852853D01*
X64404123Y-39831498D01*
X64405682Y-39826789D01*
X64410349Y-39812708D01*
X64420500Y-39713345D01*
X64420499Y-39116656D01*
X64419580Y-39107664D01*
X64410349Y-39017292D01*
X64410348Y-39017289D01*
X64402119Y-38992455D01*
X64357003Y-38856303D01*
X64356999Y-38856297D01*
X64356998Y-38856294D01*
X64267970Y-38711959D01*
X64267967Y-38711955D01*
X64148044Y-38592032D01*
X64148040Y-38592029D01*
X64003705Y-38503001D01*
X64003699Y-38502998D01*
X64003697Y-38502997D01*
X64001075Y-38502128D01*
X63842709Y-38449651D01*
X63743346Y-38439500D01*
X63196662Y-38439500D01*
X63196644Y-38439501D01*
X63097292Y-38449650D01*
X63097289Y-38449651D01*
X62936305Y-38502996D01*
X62936294Y-38503001D01*
X62791959Y-38592029D01*
X62672033Y-38711954D01*
X62645682Y-38754674D01*
X62593732Y-38801397D01*
X62564341Y-38811190D01*
X62552557Y-38813534D01*
X62552547Y-38813537D01*
X62438716Y-38860687D01*
X62438707Y-38860692D01*
X62336268Y-38929140D01*
X62292705Y-38972703D01*
X62249142Y-39016267D01*
X62249139Y-39016269D01*
X62249139Y-39016270D01*
X62102227Y-39163182D01*
X62040907Y-39196666D01*
X62014548Y-39199500D01*
X61955354Y-39199500D01*
X61922897Y-39206398D01*
X61770197Y-39238855D01*
X61770192Y-39238857D01*
X61597270Y-39315848D01*
X61597265Y-39315851D01*
X61444129Y-39427111D01*
X61317466Y-39567785D01*
X61222821Y-39731715D01*
X61222818Y-39731722D01*
X61177727Y-39870500D01*
X61164326Y-39911744D01*
X61144540Y-40100000D01*
X61149063Y-40143040D01*
X61136495Y-40211768D01*
X61088763Y-40262792D01*
X61025743Y-40280000D01*
X58000000Y-40280000D01*
X57932783Y-49663349D01*
X57926493Y-49701462D01*
X57909651Y-49752291D01*
X57899500Y-49851647D01*
X57899500Y-50263000D01*
X57879815Y-50330039D01*
X57827011Y-50375794D01*
X57775500Y-50387000D01*
X57767854Y-50387000D01*
X57735397Y-50393898D01*
X57582697Y-50426355D01*
X57582692Y-50426357D01*
X57409770Y-50503348D01*
X57409765Y-50503351D01*
X57256632Y-50614609D01*
X57156341Y-50725993D01*
X57096854Y-50762641D01*
X57066646Y-50766996D01*
X55399999Y-50800000D01*
X55424668Y-60075340D01*
X55405161Y-60142432D01*
X55352479Y-60188327D01*
X55300340Y-60199670D01*
X46148672Y-60175459D01*
X46081685Y-60155597D01*
X46036070Y-60102672D01*
X46025000Y-60051459D01*
X46025000Y-48503932D01*
X46044685Y-48436893D01*
X46097489Y-48391138D01*
X46148426Y-48379933D01*
X46151205Y-48379920D01*
X46151212Y-48379921D01*
X51303914Y-48356066D01*
X51410176Y-48344267D01*
X51461113Y-48333062D01*
X51562504Y-48299185D01*
X51683543Y-48221397D01*
X51736347Y-48175642D01*
X51830567Y-48066908D01*
X51890338Y-47936031D01*
X51910023Y-47868992D01*
X51910024Y-47868988D01*
X51930500Y-47726572D01*
X51930500Y-43524570D01*
X51918700Y-43415986D01*
X51907257Y-43363958D01*
X51907256Y-43363954D01*
X51907256Y-43363953D01*
X51872410Y-43260449D01*
X51872408Y-43260443D01*
X51794066Y-43139761D01*
X51794065Y-43139760D01*
X51794064Y-43139758D01*
X51748066Y-43087164D01*
X51653419Y-43005909D01*
X51638903Y-42993447D01*
X51638899Y-42993445D01*
X51507752Y-42934276D01*
X51443053Y-42915601D01*
X51441320Y-42915062D01*
X51440623Y-42914899D01*
X51440622Y-42914899D01*
X51440620Y-42914898D01*
X51440617Y-42914898D01*
X51298126Y-42895077D01*
X51298114Y-42895076D01*
X51298113Y-42895076D01*
X51242598Y-42895330D01*
X46128005Y-42918791D01*
X46060876Y-42899414D01*
X46014879Y-42846820D01*
X46003447Y-42793128D01*
X46003845Y-42763441D01*
X46045943Y-39627170D01*
X46066526Y-39560404D01*
X46119939Y-39515362D01*
X46169358Y-39504839D01*
X51328900Y-39481063D01*
X51435167Y-39469265D01*
X51486107Y-39458060D01*
X51587504Y-39424182D01*
X51708543Y-39346394D01*
X51727045Y-39330361D01*
X51790599Y-39301336D01*
X51807700Y-39300074D01*
X51825000Y-39300000D01*
X51824569Y-39276193D01*
X51843035Y-39208813D01*
X51854837Y-39192746D01*
X51855567Y-39191905D01*
X51915338Y-39061028D01*
X51935023Y-38993989D01*
X51935024Y-38993985D01*
X51955500Y-38851569D01*
X51955500Y-35840000D01*
X57689540Y-35840000D01*
X57709326Y-36028256D01*
X57709327Y-36028259D01*
X57767818Y-36208277D01*
X57767821Y-36208284D01*
X57862466Y-36372215D01*
X57901311Y-36415357D01*
X57931541Y-36478349D01*
X57922915Y-36547684D01*
X57901312Y-36581300D01*
X57877470Y-36607778D01*
X57877465Y-36607785D01*
X57782821Y-36771715D01*
X57782818Y-36771722D01*
X57755222Y-36856655D01*
X57724326Y-36951744D01*
X57704540Y-37140000D01*
X57724326Y-37328256D01*
X57724327Y-37328259D01*
X57782818Y-37508277D01*
X57782821Y-37508284D01*
X57877467Y-37672216D01*
X57914817Y-37713697D01*
X58004129Y-37812888D01*
X58157265Y-37924148D01*
X58157270Y-37924151D01*
X58330192Y-38001142D01*
X58330197Y-38001144D01*
X58515354Y-38040500D01*
X58515355Y-38040500D01*
X58704644Y-38040500D01*
X58704646Y-38040500D01*
X58889803Y-38001144D01*
X59062730Y-37924151D01*
X59215871Y-37812888D01*
X59215883Y-37812873D01*
X59216112Y-37812669D01*
X59216290Y-37812583D01*
X59221129Y-37809068D01*
X59221771Y-37809951D01*
X59279099Y-37782428D01*
X59348435Y-37791041D01*
X59393566Y-37826698D01*
X59393787Y-37826478D01*
X59395669Y-37828360D01*
X59398366Y-37830491D01*
X59400054Y-37832746D01*
X59515269Y-37918996D01*
X59515270Y-37918996D01*
X59515271Y-37918997D01*
X59650117Y-37969291D01*
X59650116Y-37969291D01*
X59657044Y-37970035D01*
X59709727Y-37975700D01*
X60498837Y-37975699D01*
X60565876Y-37995383D01*
X60586518Y-38012018D01*
X60621200Y-38046700D01*
X63008800Y-38046700D01*
X63008800Y-36243300D01*
X60621200Y-36243300D01*
X60586519Y-36277981D01*
X60525196Y-36311466D01*
X60498838Y-36314300D01*
X60005253Y-36314300D01*
X59938214Y-36294615D01*
X59917572Y-36277981D01*
X59533960Y-35894369D01*
X59500475Y-35833046D01*
X59498323Y-35819668D01*
X59480674Y-35651744D01*
X59422179Y-35471716D01*
X59327533Y-35307784D01*
X59200871Y-35167112D01*
X59200870Y-35167111D01*
X59047734Y-35055851D01*
X59047729Y-35055848D01*
X58874807Y-34978857D01*
X58874802Y-34978855D01*
X58729001Y-34947865D01*
X58689646Y-34939500D01*
X58500354Y-34939500D01*
X58467897Y-34946398D01*
X58315197Y-34978855D01*
X58315192Y-34978857D01*
X58142270Y-35055848D01*
X58142265Y-35055851D01*
X57989129Y-35167111D01*
X57862466Y-35307785D01*
X57767821Y-35471715D01*
X57767818Y-35471722D01*
X57719401Y-35620735D01*
X57709326Y-35651744D01*
X57689540Y-35840000D01*
X51955500Y-35840000D01*
X51955500Y-34149570D01*
X51943700Y-34040986D01*
X51932257Y-33988958D01*
X51932256Y-33988954D01*
X51932256Y-33988953D01*
X51897410Y-33885449D01*
X51897408Y-33885443D01*
X51819066Y-33764761D01*
X51819065Y-33764760D01*
X51819064Y-33764758D01*
X51773066Y-33712164D01*
X51663905Y-33618449D01*
X51663906Y-33618449D01*
X51663903Y-33618447D01*
X51624576Y-33600704D01*
X51532752Y-33559276D01*
X51468053Y-33540601D01*
X51466320Y-33540062D01*
X51465623Y-33539899D01*
X51465622Y-33539899D01*
X51465620Y-33539898D01*
X51465617Y-33539898D01*
X51323126Y-33520077D01*
X51323114Y-33520076D01*
X51323113Y-33520076D01*
X51299582Y-33520183D01*
X46146107Y-33543822D01*
X46142826Y-33544012D01*
X46142755Y-33542780D01*
X46078861Y-33531448D01*
X46027583Y-33483989D01*
X46010086Y-33416911D01*
X46046324Y-32130478D01*
X46067888Y-32064024D01*
X46121959Y-32019774D01*
X46170255Y-32009974D01*
X67302070Y-32006672D01*
X68166865Y-32009585D01*
G37*
G04 #@! TD.AperFunction*
G04 #@! TA.AperFunction,Conductor*
G36*
X67856655Y-38130500D02*
G01*
X68188652Y-38130499D01*
X68255690Y-38150184D01*
X68301445Y-38202988D01*
X68312650Y-38254049D01*
X68313604Y-38516879D01*
X68294163Y-38583989D01*
X68281755Y-38600301D01*
X68162467Y-38732783D01*
X68130876Y-38787501D01*
X68080309Y-38835716D01*
X68023489Y-38849500D01*
X67924499Y-38849500D01*
X67857460Y-38829815D01*
X67811705Y-38777011D01*
X67800499Y-38725500D01*
X67800499Y-38502129D01*
X67800498Y-38502123D01*
X67800497Y-38502116D01*
X67794091Y-38442517D01*
X67792966Y-38439500D01*
X67740697Y-38299359D01*
X67743794Y-38298203D01*
X67732360Y-38245665D01*
X67756771Y-38180198D01*
X67812700Y-38138321D01*
X67856045Y-38130499D01*
X67856645Y-38130499D01*
X67856655Y-38130500D01*
G37*
G04 #@! TD.AperFunction*
G04 #@! TA.AperFunction,Conductor*
G36*
X109390934Y-57204197D02*
G01*
X109457953Y-57223951D01*
X109503653Y-57276802D01*
X109514806Y-57328391D01*
X109501173Y-66050000D01*
X109500194Y-66676194D01*
X109480405Y-66743202D01*
X109427529Y-66788875D01*
X109376194Y-66800000D01*
X99924000Y-66800000D01*
X99856961Y-66780315D01*
X99811206Y-66727511D01*
X99800000Y-66676000D01*
X99800000Y-66050000D01*
X96926720Y-66050000D01*
X96859681Y-66030315D01*
X96813926Y-65977511D01*
X96802720Y-65926000D01*
X96802719Y-65598011D01*
X96802721Y-65597266D01*
X96805043Y-65210803D01*
X96810065Y-65176618D01*
X96826741Y-65119828D01*
X96826742Y-65119821D01*
X96826743Y-65119819D01*
X96826744Y-65119815D01*
X96847220Y-64977399D01*
X96847220Y-63678325D01*
X96866905Y-63611286D01*
X96919709Y-63565531D01*
X96971220Y-63554325D01*
X98205000Y-63554325D01*
X98228522Y-62327231D01*
X98236314Y-62286292D01*
X98253811Y-62239382D01*
X98260220Y-62179772D01*
X98260219Y-62096235D01*
X98266288Y-62057916D01*
X98285674Y-61998256D01*
X98305460Y-61810000D01*
X98285674Y-61621744D01*
X98266287Y-61562081D01*
X98260219Y-61523763D01*
X98260219Y-61266236D01*
X98266288Y-61227917D01*
X98285674Y-61168256D01*
X98305460Y-60980000D01*
X98288576Y-60819357D01*
X98301146Y-60750629D01*
X98348878Y-60699606D01*
X98411897Y-60682398D01*
X99247591Y-60682398D01*
X99247592Y-60682398D01*
X99307203Y-60675990D01*
X99442051Y-60625695D01*
X99557266Y-60539445D01*
X99605316Y-60475257D01*
X99661245Y-60433389D01*
X99702970Y-60425581D01*
X99800000Y-60424325D01*
X99804808Y-57318259D01*
X99824596Y-57251251D01*
X99877471Y-57205578D01*
X99928933Y-57194452D01*
X109390934Y-57204197D01*
G37*
G04 #@! TD.AperFunction*
G04 #@! TA.AperFunction,Conductor*
G36*
X109419776Y-44534252D02*
G01*
X109486792Y-44554006D01*
X109532492Y-44606857D01*
X109543644Y-44658765D01*
X109504675Y-54075234D01*
X109484713Y-54142192D01*
X109431720Y-54187728D01*
X109379398Y-54198714D01*
X99922735Y-54101264D01*
X99855902Y-54080890D01*
X99810694Y-54027617D01*
X99800013Y-53977257D01*
X99800065Y-53508953D01*
X97457303Y-53505227D01*
X97390295Y-53485436D01*
X97344624Y-53432559D01*
X97333500Y-53381227D01*
X97333500Y-51152777D01*
X97353185Y-51085738D01*
X97369819Y-51065096D01*
X97414215Y-51020700D01*
X97475538Y-50987215D01*
X97501896Y-50984381D01*
X98334159Y-50984381D01*
X98338464Y-50759779D01*
X98359429Y-50693131D01*
X98374755Y-50674480D01*
X98440520Y-50608716D01*
X98440520Y-50608715D01*
X98457958Y-50591277D01*
X98457959Y-50591274D01*
X98673520Y-50375716D01*
X98752577Y-50238784D01*
X98793501Y-50086057D01*
X98793501Y-49927942D01*
X98793501Y-49920347D01*
X98793500Y-49920329D01*
X98793500Y-48228824D01*
X98813185Y-48161785D01*
X98865989Y-48116030D01*
X98917500Y-48104824D01*
X99367871Y-48104824D01*
X99367872Y-48104824D01*
X99427483Y-48098416D01*
X99562331Y-48048121D01*
X99677546Y-47961871D01*
X99721084Y-47903710D01*
X99777016Y-47861840D01*
X99788952Y-47859598D01*
X99794157Y-47854381D01*
X99794159Y-47854381D01*
X99795005Y-47783881D01*
X99802812Y-47742046D01*
X99814091Y-47711808D01*
X99820500Y-47652198D01*
X99820499Y-47216453D01*
X99814091Y-47156842D01*
X99810985Y-47148516D01*
X99803176Y-47103697D01*
X99830514Y-44827781D01*
X99851001Y-44760988D01*
X99904351Y-44715871D01*
X99973624Y-44706759D01*
X99989097Y-44710198D01*
X100014796Y-44717665D01*
X100050819Y-44720500D01*
X100449180Y-44720499D01*
X100485204Y-44717665D01*
X100639393Y-44672869D01*
X100777598Y-44591135D01*
X100806942Y-44561790D01*
X100868262Y-44528306D01*
X100894738Y-44525473D01*
X109419776Y-44534252D01*
G37*
G04 #@! TD.AperFunction*
G04 #@! TA.AperFunction,Conductor*
G36*
X96372405Y-62730034D02*
G01*
X96418479Y-62782560D01*
X96430000Y-62834755D01*
X96430000Y-63326116D01*
X96410315Y-63393155D01*
X96405269Y-63400424D01*
X96398423Y-63409569D01*
X96398422Y-63409570D01*
X96348128Y-63544416D01*
X96341721Y-63604015D01*
X96341720Y-63604034D01*
X96341720Y-64977399D01*
X96322035Y-65044438D01*
X96269231Y-65090193D01*
X96217720Y-65101399D01*
X95354349Y-65101399D01*
X95354343Y-65101400D01*
X95294736Y-65107807D01*
X95203916Y-65141682D01*
X95160583Y-65149500D01*
X95088392Y-65149500D01*
X95066767Y-65153801D01*
X95045142Y-65158103D01*
X94982981Y-65170467D01*
X94967547Y-65173537D01*
X94967545Y-65173538D01*
X94878165Y-65210561D01*
X94830712Y-65220000D01*
X94330781Y-65220000D01*
X94263742Y-65200315D01*
X94257896Y-65196318D01*
X94112734Y-65090851D01*
X94112729Y-65090848D01*
X93939807Y-65013857D01*
X93939802Y-65013855D01*
X93794001Y-64982865D01*
X93754646Y-64974500D01*
X93565354Y-64974500D01*
X93532897Y-64981398D01*
X93380197Y-65013855D01*
X93380192Y-65013857D01*
X93207270Y-65090848D01*
X93207265Y-65090851D01*
X93062104Y-65196318D01*
X92996298Y-65219798D01*
X92989219Y-65220000D01*
X91633803Y-65220000D01*
X91566764Y-65200315D01*
X91521009Y-65147511D01*
X91509807Y-65097042D01*
X91509755Y-65090848D01*
X91491044Y-62864283D01*
X91510165Y-62797082D01*
X91562583Y-62750885D01*
X91614285Y-62739245D01*
X96305249Y-62710757D01*
X96372405Y-62730034D01*
G37*
G04 #@! TD.AperFunction*
G04 #@! TA.AperFunction,Conductor*
G36*
X95946510Y-37879685D02*
G01*
X95992265Y-37932489D01*
X96002209Y-38001647D01*
X95994032Y-38031454D01*
X95986538Y-38049545D01*
X95986535Y-38049553D01*
X95962500Y-38170389D01*
X95962500Y-40134825D01*
X95942815Y-40201864D01*
X95890011Y-40247619D01*
X95838500Y-40258825D01*
X95352129Y-40258825D01*
X95352123Y-40258826D01*
X95292516Y-40265233D01*
X95210010Y-40296007D01*
X95166677Y-40303825D01*
X91626392Y-40303825D01*
X91559353Y-40284140D01*
X91513598Y-40231336D01*
X91502401Y-40178349D01*
X91527743Y-38049553D01*
X91528541Y-37982522D01*
X91549022Y-37915724D01*
X91602367Y-37870600D01*
X91652532Y-37860000D01*
X95879471Y-37860000D01*
X95946510Y-37879685D01*
G37*
G04 #@! TD.AperFunction*
G04 #@! TA.AperFunction,Conductor*
G36*
X66007895Y-40519685D02*
G01*
X66043957Y-40555108D01*
X66094399Y-40630601D01*
X66177260Y-40685966D01*
X66177264Y-40685967D01*
X66250321Y-40700499D01*
X66250324Y-40700500D01*
X66250326Y-40700500D01*
X67186700Y-40700500D01*
X67253739Y-40720185D01*
X67299494Y-40772989D01*
X67310700Y-40824232D01*
X67313151Y-41959533D01*
X67305333Y-42003134D01*
X67275589Y-42082881D01*
X67275587Y-42082889D01*
X67269500Y-42139498D01*
X67269500Y-42730481D01*
X67269501Y-42730490D01*
X67275587Y-42787112D01*
X67307398Y-42872399D01*
X67315216Y-42915465D01*
X67317242Y-43853565D01*
X67309424Y-43897166D01*
X67275589Y-43987882D01*
X67275587Y-43987889D01*
X67269500Y-44044498D01*
X67269500Y-44635481D01*
X67269501Y-44635490D01*
X67275587Y-44692112D01*
X67311537Y-44788496D01*
X67319355Y-44831563D01*
X67319611Y-44950233D01*
X67300071Y-45017314D01*
X67247366Y-45063183D01*
X67195611Y-45074500D01*
X64033592Y-45074500D01*
X63966553Y-45054815D01*
X63920798Y-45002011D01*
X63909592Y-44950768D01*
X63909242Y-44788496D01*
X63908996Y-44674175D01*
X63927269Y-44611442D01*
X63926735Y-44611162D01*
X63928118Y-44608525D01*
X63928535Y-44607097D01*
X63930119Y-44604714D01*
X63930217Y-44604526D01*
X63930220Y-44604523D01*
X63986237Y-44456818D01*
X64005278Y-44300000D01*
X63986237Y-44143182D01*
X63930220Y-43995477D01*
X63929329Y-43994186D01*
X63928968Y-43993092D01*
X63926733Y-43988833D01*
X63927441Y-43988461D01*
X63907446Y-43927831D01*
X63907379Y-43924013D01*
X63907227Y-43853565D01*
X63900401Y-40685966D01*
X63900268Y-40624267D01*
X63919808Y-40557185D01*
X63972514Y-40511317D01*
X64024268Y-40500000D01*
X65940856Y-40500000D01*
X66007895Y-40519685D01*
G37*
G04 #@! TD.AperFunction*
G04 #@! TA.AperFunction,Conductor*
G36*
X109140600Y-32456561D02*
G01*
X109207618Y-32476315D01*
X109253318Y-32529167D01*
X109264469Y-32580098D01*
X109299535Y-41975537D01*
X109280101Y-42042650D01*
X109227468Y-42088601D01*
X109175536Y-42100000D01*
X102854198Y-42100000D01*
X102787159Y-42080315D01*
X102762049Y-42058973D01*
X102755871Y-42052112D01*
X102755864Y-42052106D01*
X102602734Y-41940851D01*
X102602729Y-41940848D01*
X102429807Y-41863857D01*
X102429802Y-41863855D01*
X102278082Y-41831607D01*
X102244646Y-41824500D01*
X102055354Y-41824500D01*
X102022897Y-41831398D01*
X101870197Y-41863855D01*
X101870192Y-41863857D01*
X101697268Y-41940849D01*
X101675340Y-41956781D01*
X101609534Y-41980260D01*
X101567863Y-41975539D01*
X101505204Y-41957335D01*
X101505197Y-41957334D01*
X101469181Y-41954500D01*
X101070830Y-41954500D01*
X101070808Y-41954501D01*
X101034794Y-41957335D01*
X100880611Y-42002129D01*
X100880604Y-42002132D01*
X100823119Y-42036128D01*
X100755395Y-42053309D01*
X100696881Y-42036128D01*
X100639395Y-42002132D01*
X100639388Y-42002129D01*
X100485208Y-41957335D01*
X100485202Y-41957334D01*
X100449181Y-41954500D01*
X100050830Y-41954500D01*
X100050808Y-41954501D01*
X100014794Y-41957335D01*
X99860611Y-42002129D01*
X99860606Y-42002131D01*
X99851982Y-42007232D01*
X99788861Y-42024500D01*
X99724000Y-42024500D01*
X99656961Y-42004815D01*
X99611206Y-41952011D01*
X99600000Y-41900500D01*
X99600000Y-41100000D01*
X97336451Y-41080854D01*
X97269581Y-41060603D01*
X97224274Y-41007414D01*
X97213500Y-40956858D01*
X97213500Y-38930690D01*
X97233185Y-38863651D01*
X97285989Y-38817896D01*
X97337500Y-38806690D01*
X98254008Y-38806690D01*
X98254009Y-38806690D01*
X98261687Y-38393304D01*
X98282614Y-38326645D01*
X98297977Y-38307937D01*
X98523857Y-38082059D01*
X98545581Y-38049548D01*
X98592311Y-37979611D01*
X98639463Y-37865777D01*
X98663500Y-37744931D01*
X98663500Y-35903824D01*
X98683185Y-35836785D01*
X98735989Y-35791030D01*
X98787500Y-35779824D01*
X99237871Y-35779824D01*
X99237872Y-35779824D01*
X99297483Y-35773416D01*
X99432331Y-35723121D01*
X99547546Y-35636871D01*
X99554750Y-35627246D01*
X99610680Y-35585374D01*
X99652257Y-35577565D01*
X99714009Y-35576690D01*
X99656434Y-32573197D01*
X99674830Y-32505793D01*
X99726747Y-32459035D01*
X99780537Y-32446821D01*
X109140600Y-32456561D01*
G37*
G04 #@! TD.AperFunction*
M02*
