G04 #@! TF.GenerationSoftware,KiCad,Pcbnew,8.0.1*
G04 #@! TF.CreationDate,2024-05-05T00:07:08+03:00*
G04 #@! TF.ProjectId,esc,6573632e-6b69-4636-9164-5f7063625858,rev?*
G04 #@! TF.SameCoordinates,Original*
G04 #@! TF.FileFunction,Copper,L1,Top*
G04 #@! TF.FilePolarity,Positive*
%FSLAX46Y46*%
G04 Gerber Fmt 4.6, Leading zero omitted, Abs format (unit mm)*
G04 Created by KiCad (PCBNEW 8.0.1) date 2024-05-05 00:07:08*
%MOMM*%
%LPD*%
G01*
G04 APERTURE LIST*
G04 Aperture macros list*
%AMRoundRect*
0 Rectangle with rounded corners*
0 $1 Rounding radius*
0 $2 $3 $4 $5 $6 $7 $8 $9 X,Y pos of 4 corners*
0 Add a 4 corners polygon primitive as box body*
4,1,4,$2,$3,$4,$5,$6,$7,$8,$9,$2,$3,0*
0 Add four circle primitives for the rounded corners*
1,1,$1+$1,$2,$3*
1,1,$1+$1,$4,$5*
1,1,$1+$1,$6,$7*
1,1,$1+$1,$8,$9*
0 Add four rect primitives between the rounded corners*
20,1,$1+$1,$2,$3,$4,$5,0*
20,1,$1+$1,$4,$5,$6,$7,0*
20,1,$1+$1,$6,$7,$8,$9,0*
20,1,$1+$1,$8,$9,$2,$3,0*%
G04 Aperture macros list end*
%ADD10C,0.100000*%
G04 #@! TA.AperFunction,NonConductor*
%ADD11C,0.100000*%
G04 #@! TD*
G04 #@! TA.AperFunction,SMDPad,CuDef*
%ADD12R,0.900000X0.240000*%
G04 #@! TD*
G04 #@! TA.AperFunction,SMDPad,CuDef*
%ADD13R,0.240000X0.900000*%
G04 #@! TD*
G04 #@! TA.AperFunction,SMDPad,CuDef*
%ADD14R,1.400000X0.900000*%
G04 #@! TD*
G04 #@! TA.AperFunction,SMDPad,CuDef*
%ADD15RoundRect,0.200000X-0.200000X-0.275000X0.200000X-0.275000X0.200000X0.275000X-0.200000X0.275000X0*%
G04 #@! TD*
G04 #@! TA.AperFunction,SMDPad,CuDef*
%ADD16RoundRect,0.225000X-0.250000X0.225000X-0.250000X-0.225000X0.250000X-0.225000X0.250000X0.225000X0*%
G04 #@! TD*
G04 #@! TA.AperFunction,SMDPad,CuDef*
%ADD17RoundRect,0.135000X0.185000X-0.135000X0.185000X0.135000X-0.185000X0.135000X-0.185000X-0.135000X0*%
G04 #@! TD*
G04 #@! TA.AperFunction,SMDPad,CuDef*
%ADD18RoundRect,0.250000X-1.075000X0.362500X-1.075000X-0.362500X1.075000X-0.362500X1.075000X0.362500X0*%
G04 #@! TD*
G04 #@! TA.AperFunction,SMDPad,CuDef*
%ADD19RoundRect,0.250000X-0.475000X0.250000X-0.475000X-0.250000X0.475000X-0.250000X0.475000X0.250000X0*%
G04 #@! TD*
G04 #@! TA.AperFunction,SMDPad,CuDef*
%ADD20RoundRect,0.135000X0.135000X0.185000X-0.135000X0.185000X-0.135000X-0.185000X0.135000X-0.185000X0*%
G04 #@! TD*
G04 #@! TA.AperFunction,SMDPad,CuDef*
%ADD21RoundRect,0.218750X-0.381250X0.218750X-0.381250X-0.218750X0.381250X-0.218750X0.381250X0.218750X0*%
G04 #@! TD*
G04 #@! TA.AperFunction,SMDPad,CuDef*
%ADD22RoundRect,0.140000X-0.170000X0.140000X-0.170000X-0.140000X0.170000X-0.140000X0.170000X0.140000X0*%
G04 #@! TD*
G04 #@! TA.AperFunction,SMDPad,CuDef*
%ADD23R,0.900000X1.640000*%
G04 #@! TD*
G04 #@! TA.AperFunction,SMDPad,CuDef*
%ADD24R,0.900000X0.340000*%
G04 #@! TD*
G04 #@! TA.AperFunction,SMDPad,CuDef*
%ADD25R,2.360000X2.290000*%
G04 #@! TD*
G04 #@! TA.AperFunction,ComponentPad*
%ADD26C,1.755000*%
G04 #@! TD*
G04 #@! TA.AperFunction,SMDPad,CuDef*
%ADD27R,1.400000X1.200000*%
G04 #@! TD*
G04 #@! TA.AperFunction,SMDPad,CuDef*
%ADD28RoundRect,0.135000X-0.135000X-0.185000X0.135000X-0.185000X0.135000X0.185000X-0.135000X0.185000X0*%
G04 #@! TD*
G04 #@! TA.AperFunction,SMDPad,CuDef*
%ADD29RoundRect,0.250000X1.500000X1.000000X-1.500000X1.000000X-1.500000X-1.000000X1.500000X-1.000000X0*%
G04 #@! TD*
G04 #@! TA.AperFunction,ComponentPad*
%ADD30R,1.700000X1.700000*%
G04 #@! TD*
G04 #@! TA.AperFunction,ComponentPad*
%ADD31O,1.700000X1.700000*%
G04 #@! TD*
G04 #@! TA.AperFunction,SMDPad,CuDef*
%ADD32RoundRect,0.250000X-0.250000X-0.475000X0.250000X-0.475000X0.250000X0.475000X-0.250000X0.475000X0*%
G04 #@! TD*
G04 #@! TA.AperFunction,SMDPad,CuDef*
%ADD33RoundRect,0.225000X0.225000X0.250000X-0.225000X0.250000X-0.225000X-0.250000X0.225000X-0.250000X0*%
G04 #@! TD*
G04 #@! TA.AperFunction,SMDPad,CuDef*
%ADD34RoundRect,0.225000X0.250000X-0.225000X0.250000X0.225000X-0.250000X0.225000X-0.250000X-0.225000X0*%
G04 #@! TD*
G04 #@! TA.AperFunction,SMDPad,CuDef*
%ADD35RoundRect,0.225000X-0.225000X-0.250000X0.225000X-0.250000X0.225000X0.250000X-0.225000X0.250000X0*%
G04 #@! TD*
G04 #@! TA.AperFunction,ComponentPad*
%ADD36R,0.850000X0.850000*%
G04 #@! TD*
G04 #@! TA.AperFunction,SMDPad,CuDef*
%ADD37RoundRect,0.140000X0.170000X-0.140000X0.170000X0.140000X-0.170000X0.140000X-0.170000X-0.140000X0*%
G04 #@! TD*
G04 #@! TA.AperFunction,SMDPad,CuDef*
%ADD38R,0.812800X0.660400*%
G04 #@! TD*
G04 #@! TA.AperFunction,SMDPad,CuDef*
%ADD39RoundRect,0.218750X-0.218750X-0.256250X0.218750X-0.256250X0.218750X0.256250X-0.218750X0.256250X0*%
G04 #@! TD*
G04 #@! TA.AperFunction,SMDPad,CuDef*
%ADD40RoundRect,0.062500X0.375000X0.062500X-0.375000X0.062500X-0.375000X-0.062500X0.375000X-0.062500X0*%
G04 #@! TD*
G04 #@! TA.AperFunction,SMDPad,CuDef*
%ADD41RoundRect,0.062500X0.062500X0.375000X-0.062500X0.375000X-0.062500X-0.375000X0.062500X-0.375000X0*%
G04 #@! TD*
G04 #@! TA.AperFunction,SMDPad,CuDef*
%ADD42R,3.100000X3.100000*%
G04 #@! TD*
G04 #@! TA.AperFunction,SMDPad,CuDef*
%ADD43R,0.350000X0.600000*%
G04 #@! TD*
G04 #@! TA.AperFunction,SMDPad,CuDef*
%ADD44R,1.700000X1.100000*%
G04 #@! TD*
G04 #@! TA.AperFunction,SMDPad,CuDef*
%ADD45R,0.242473X0.809638*%
G04 #@! TD*
G04 #@! TA.AperFunction,SMDPad,CuDef*
%ADD46R,0.809638X0.242473*%
G04 #@! TD*
G04 #@! TA.AperFunction,SMDPad,CuDef*
%ADD47R,2.550000X2.550000*%
G04 #@! TD*
G04 #@! TA.AperFunction,ViaPad*
%ADD48C,0.800000*%
G04 #@! TD*
G04 #@! TA.AperFunction,Conductor*
%ADD49C,0.250000*%
G04 #@! TD*
G04 #@! TA.AperFunction,Conductor*
%ADD50C,0.500000*%
G04 #@! TD*
G04 #@! TA.AperFunction,Conductor*
%ADD51C,0.700000*%
G04 #@! TD*
G04 #@! TA.AperFunction,Conductor*
%ADD52C,0.300000*%
G04 #@! TD*
G04 APERTURE END LIST*
D10*
D11*
G36*
X84117595Y-64557729D02*
G01*
X84140436Y-64561900D01*
X84162818Y-64569913D01*
X84184743Y-64581770D01*
X84195534Y-64589139D01*
X84209226Y-64604936D01*
X84213706Y-64625384D01*
X84212667Y-64636391D01*
X84206112Y-64656500D01*
X84195325Y-64674217D01*
X84183099Y-64688203D01*
X84167884Y-64701173D01*
X84151252Y-64711069D01*
X84130325Y-64720898D01*
X84111374Y-64729245D01*
X84091763Y-64737111D01*
X84072645Y-64743632D01*
X84062482Y-64746370D01*
X84040080Y-64749926D01*
X84018937Y-64750389D01*
X83999052Y-64747757D01*
X83977443Y-64740776D01*
X83957546Y-64729583D01*
X83949532Y-64723366D01*
X83938305Y-64706621D01*
X83936169Y-64693833D01*
X83959383Y-64693833D01*
X83966388Y-64704852D01*
X83971984Y-64709618D01*
X83991469Y-64720209D01*
X84012829Y-64726077D01*
X84033055Y-64727337D01*
X84054717Y-64724980D01*
X84061169Y-64723642D01*
X84081371Y-64717422D01*
X84100381Y-64710038D01*
X84119996Y-64701601D01*
X84139025Y-64692900D01*
X84155719Y-64682551D01*
X84166243Y-64673281D01*
X84179024Y-64657707D01*
X84186830Y-64639983D01*
X84184348Y-64619798D01*
X84177158Y-64612074D01*
X84158976Y-64600446D01*
X84140350Y-64592019D01*
X84121283Y-64586793D01*
X84101772Y-64584769D01*
X84081819Y-64585947D01*
X84061424Y-64590326D01*
X84040586Y-64597907D01*
X84019305Y-64608689D01*
X84002439Y-64619700D01*
X83986510Y-64632994D01*
X83983590Y-64635838D01*
X83970279Y-64651406D01*
X83960899Y-64669001D01*
X83959480Y-64673626D01*
X83959383Y-64693833D01*
X83936169Y-64693833D01*
X83934986Y-64686748D01*
X83937166Y-64671761D01*
X83944522Y-64652292D01*
X83955403Y-64634762D01*
X83968610Y-64619124D01*
X83971984Y-64615666D01*
X83987156Y-64602028D01*
X84004021Y-64589765D01*
X84009150Y-64586514D01*
X84027868Y-64576312D01*
X84046328Y-64568273D01*
X84070542Y-64560915D01*
X84094297Y-64557401D01*
X84117595Y-64557729D01*
G37*
G36*
X84262392Y-64702525D02*
G01*
X84285232Y-64706696D01*
X84307615Y-64714710D01*
X84329540Y-64726566D01*
X84340331Y-64733935D01*
X84354023Y-64749732D01*
X84358503Y-64770181D01*
X84357463Y-64781188D01*
X84350909Y-64801297D01*
X84340122Y-64819014D01*
X84327896Y-64832999D01*
X84312681Y-64845969D01*
X84296049Y-64855865D01*
X84275121Y-64865694D01*
X84256170Y-64874042D01*
X84236559Y-64881908D01*
X84217442Y-64888429D01*
X84207278Y-64891167D01*
X84184877Y-64894723D01*
X84163734Y-64895185D01*
X84143849Y-64892553D01*
X84122239Y-64885572D01*
X84102342Y-64874380D01*
X84094329Y-64868162D01*
X84083102Y-64851417D01*
X84080966Y-64838629D01*
X84104179Y-64838629D01*
X84111185Y-64849648D01*
X84116780Y-64854415D01*
X84136266Y-64865006D01*
X84157625Y-64870874D01*
X84177852Y-64872133D01*
X84199513Y-64869776D01*
X84205966Y-64868438D01*
X84226168Y-64862219D01*
X84245177Y-64854835D01*
X84264793Y-64846397D01*
X84283821Y-64837697D01*
X84300516Y-64827348D01*
X84311040Y-64818077D01*
X84323821Y-64802504D01*
X84331626Y-64784780D01*
X84329144Y-64764594D01*
X84321955Y-64756871D01*
X84303772Y-64745242D01*
X84285147Y-64736815D01*
X84266079Y-64731590D01*
X84246569Y-64729566D01*
X84226616Y-64730743D01*
X84206220Y-64735123D01*
X84185382Y-64742703D01*
X84164102Y-64753486D01*
X84147235Y-64764496D01*
X84131306Y-64777790D01*
X84128386Y-64780635D01*
X84115076Y-64796203D01*
X84105696Y-64813798D01*
X84104277Y-64818423D01*
X84104179Y-64838629D01*
X84080966Y-64838629D01*
X84079783Y-64831544D01*
X84081963Y-64816558D01*
X84089319Y-64797088D01*
X84100199Y-64779558D01*
X84113406Y-64763920D01*
X84116780Y-64760463D01*
X84131953Y-64746824D01*
X84148817Y-64734561D01*
X84153947Y-64731310D01*
X84172664Y-64721109D01*
X84191125Y-64713069D01*
X84215338Y-64705712D01*
X84239094Y-64702197D01*
X84262392Y-64702525D01*
G37*
D10*
D11*
G36*
X82739558Y-63200396D02*
G01*
X82719149Y-63206298D01*
X82697851Y-63206418D01*
X82676588Y-63202396D01*
X82662186Y-63197909D01*
X82643922Y-63190466D01*
X82626286Y-63181307D01*
X82608917Y-63168986D01*
X82603742Y-63164197D01*
X82597041Y-63150864D01*
X82632619Y-63143749D01*
X82630132Y-63155217D01*
X82646652Y-63167365D01*
X82665004Y-63175925D01*
X82673999Y-63179188D01*
X82693921Y-63184481D01*
X82713998Y-63185543D01*
X82727538Y-63182021D01*
X82738107Y-63175181D01*
X82736184Y-63155318D01*
X82733893Y-63152868D01*
X82718293Y-63140688D01*
X82699749Y-63130382D01*
X82683187Y-63122886D01*
X82663217Y-63117391D01*
X82642345Y-63115973D01*
X82620272Y-63117154D01*
X82617628Y-63117429D01*
X82598155Y-63120347D01*
X82576770Y-63125759D01*
X82556819Y-63133334D01*
X82538303Y-63143070D01*
X82525955Y-63151348D01*
X82510757Y-63164197D01*
X82497645Y-63180318D01*
X82490482Y-63200189D01*
X82495315Y-63221141D01*
X82504678Y-63233141D01*
X82520741Y-63245669D01*
X82541108Y-63255427D01*
X82561368Y-63261444D01*
X82584617Y-63265538D01*
X82605367Y-63267429D01*
X82628031Y-63268090D01*
X82640079Y-63267959D01*
X82640287Y-63291516D01*
X82620308Y-63291661D01*
X82595426Y-63290532D01*
X82572553Y-63287892D01*
X82551687Y-63283740D01*
X82532828Y-63278078D01*
X82512079Y-63268874D01*
X82494466Y-63257310D01*
X82485404Y-63249238D01*
X82472746Y-63232616D01*
X82466246Y-63212877D01*
X82465854Y-63201502D01*
X82470543Y-63181574D01*
X82480986Y-63163340D01*
X82493901Y-63148447D01*
X82508698Y-63135200D01*
X82512553Y-63132143D01*
X82530043Y-63120451D01*
X82548679Y-63110712D01*
X82568462Y-63102926D01*
X82589390Y-63097092D01*
X82611465Y-63093211D01*
X82619078Y-63092352D01*
X82639630Y-63090899D01*
X82660600Y-63091157D01*
X82680980Y-63093893D01*
X82696243Y-63098500D01*
X82715384Y-63107805D01*
X82732393Y-63118620D01*
X82748640Y-63132263D01*
X82749989Y-63133594D01*
X82763197Y-63150441D01*
X82767496Y-63170915D01*
X82758072Y-63187685D01*
X82741669Y-63199322D01*
X82739558Y-63200396D01*
G37*
G36*
X82909777Y-63370615D02*
G01*
X82889368Y-63376517D01*
X82868070Y-63376637D01*
X82846807Y-63372615D01*
X82832405Y-63368128D01*
X82814141Y-63360685D01*
X82796505Y-63351526D01*
X82779136Y-63339204D01*
X82773961Y-63334416D01*
X82767260Y-63321083D01*
X82802837Y-63313968D01*
X82800350Y-63325435D01*
X82816870Y-63337584D01*
X82835223Y-63346144D01*
X82844218Y-63349407D01*
X82864140Y-63354700D01*
X82884217Y-63355762D01*
X82897756Y-63352239D01*
X82908326Y-63345400D01*
X82906403Y-63325537D01*
X82904112Y-63323087D01*
X82888512Y-63310907D01*
X82869968Y-63300600D01*
X82853406Y-63293105D01*
X82833435Y-63287610D01*
X82812564Y-63286192D01*
X82790491Y-63287372D01*
X82787846Y-63287647D01*
X82768374Y-63290566D01*
X82746989Y-63295978D01*
X82727038Y-63303553D01*
X82708522Y-63313289D01*
X82696174Y-63321567D01*
X82680976Y-63334416D01*
X82667864Y-63350537D01*
X82660701Y-63370408D01*
X82665534Y-63391359D01*
X82674897Y-63403360D01*
X82690960Y-63415887D01*
X82711327Y-63425646D01*
X82731587Y-63431663D01*
X82754835Y-63435757D01*
X82775586Y-63437648D01*
X82798249Y-63438309D01*
X82810298Y-63438178D01*
X82810505Y-63461735D01*
X82790527Y-63461880D01*
X82765645Y-63460751D01*
X82742772Y-63458110D01*
X82721905Y-63453959D01*
X82703047Y-63448296D01*
X82682297Y-63439093D01*
X82664685Y-63427529D01*
X82655623Y-63419456D01*
X82642965Y-63402835D01*
X82636465Y-63383095D01*
X82636073Y-63371721D01*
X82640762Y-63351792D01*
X82651204Y-63333559D01*
X82664120Y-63318665D01*
X82678917Y-63305419D01*
X82682772Y-63302362D01*
X82700262Y-63290670D01*
X82718898Y-63280931D01*
X82738680Y-63273145D01*
X82759609Y-63267311D01*
X82781684Y-63263430D01*
X82789297Y-63262571D01*
X82809849Y-63261117D01*
X82830818Y-63261375D01*
X82851199Y-63264112D01*
X82866462Y-63268719D01*
X82885603Y-63278023D01*
X82902612Y-63288839D01*
X82918859Y-63302482D01*
X82920208Y-63303813D01*
X82933416Y-63320660D01*
X82937715Y-63341133D01*
X82928291Y-63357904D01*
X82911888Y-63369541D01*
X82909777Y-63370615D01*
G37*
D10*
D11*
G36*
X83697595Y-64147729D02*
G01*
X83720436Y-64151900D01*
X83742818Y-64159913D01*
X83764743Y-64171770D01*
X83775534Y-64179139D01*
X83789226Y-64194936D01*
X83793706Y-64215384D01*
X83792667Y-64226391D01*
X83786112Y-64246500D01*
X83775325Y-64264217D01*
X83763099Y-64278203D01*
X83747884Y-64291173D01*
X83731252Y-64301069D01*
X83710325Y-64310898D01*
X83691374Y-64319245D01*
X83671763Y-64327111D01*
X83652645Y-64333632D01*
X83642482Y-64336370D01*
X83620080Y-64339926D01*
X83598937Y-64340389D01*
X83579052Y-64337757D01*
X83557443Y-64330776D01*
X83537546Y-64319583D01*
X83529532Y-64313366D01*
X83518305Y-64296621D01*
X83516169Y-64283833D01*
X83539383Y-64283833D01*
X83546388Y-64294852D01*
X83551984Y-64299618D01*
X83571469Y-64310209D01*
X83592829Y-64316077D01*
X83613055Y-64317337D01*
X83634717Y-64314980D01*
X83641169Y-64313642D01*
X83661371Y-64307422D01*
X83680381Y-64300038D01*
X83699996Y-64291601D01*
X83719025Y-64282900D01*
X83735719Y-64272551D01*
X83746243Y-64263281D01*
X83759024Y-64247707D01*
X83766830Y-64229983D01*
X83764348Y-64209798D01*
X83757158Y-64202074D01*
X83738976Y-64190446D01*
X83720350Y-64182019D01*
X83701283Y-64176793D01*
X83681772Y-64174769D01*
X83661819Y-64175947D01*
X83641424Y-64180326D01*
X83620586Y-64187907D01*
X83599305Y-64198689D01*
X83582439Y-64209700D01*
X83566510Y-64222994D01*
X83563590Y-64225838D01*
X83550279Y-64241406D01*
X83540899Y-64259001D01*
X83539480Y-64263626D01*
X83539383Y-64283833D01*
X83516169Y-64283833D01*
X83514986Y-64276748D01*
X83517166Y-64261761D01*
X83524522Y-64242292D01*
X83535403Y-64224762D01*
X83548610Y-64209124D01*
X83551984Y-64205666D01*
X83567156Y-64192028D01*
X83584021Y-64179765D01*
X83589150Y-64176514D01*
X83607868Y-64166312D01*
X83626328Y-64158273D01*
X83650542Y-64150915D01*
X83674297Y-64147401D01*
X83697595Y-64147729D01*
G37*
G36*
X83842392Y-64292525D02*
G01*
X83865232Y-64296696D01*
X83887615Y-64304710D01*
X83909540Y-64316566D01*
X83920331Y-64323935D01*
X83934023Y-64339732D01*
X83938503Y-64360181D01*
X83937463Y-64371188D01*
X83930909Y-64391297D01*
X83920122Y-64409014D01*
X83907896Y-64422999D01*
X83892681Y-64435969D01*
X83876049Y-64445865D01*
X83855121Y-64455694D01*
X83836170Y-64464042D01*
X83816559Y-64471908D01*
X83797442Y-64478429D01*
X83787278Y-64481167D01*
X83764877Y-64484723D01*
X83743734Y-64485185D01*
X83723849Y-64482553D01*
X83702239Y-64475572D01*
X83682342Y-64464380D01*
X83674329Y-64458162D01*
X83663102Y-64441417D01*
X83660966Y-64428629D01*
X83684179Y-64428629D01*
X83691185Y-64439648D01*
X83696780Y-64444415D01*
X83716266Y-64455006D01*
X83737625Y-64460874D01*
X83757852Y-64462133D01*
X83779513Y-64459776D01*
X83785966Y-64458438D01*
X83806168Y-64452219D01*
X83825177Y-64444835D01*
X83844793Y-64436397D01*
X83863821Y-64427697D01*
X83880516Y-64417348D01*
X83891040Y-64408077D01*
X83903821Y-64392504D01*
X83911626Y-64374780D01*
X83909144Y-64354594D01*
X83901955Y-64346871D01*
X83883772Y-64335242D01*
X83865147Y-64326815D01*
X83846079Y-64321590D01*
X83826569Y-64319566D01*
X83806616Y-64320743D01*
X83786220Y-64325123D01*
X83765382Y-64332703D01*
X83744102Y-64343486D01*
X83727235Y-64354496D01*
X83711306Y-64367790D01*
X83708386Y-64370635D01*
X83695076Y-64386203D01*
X83685696Y-64403798D01*
X83684277Y-64408423D01*
X83684179Y-64428629D01*
X83660966Y-64428629D01*
X83659783Y-64421544D01*
X83661963Y-64406558D01*
X83669319Y-64387088D01*
X83680199Y-64369558D01*
X83693406Y-64353920D01*
X83696780Y-64350463D01*
X83711953Y-64336824D01*
X83728817Y-64324561D01*
X83733947Y-64321310D01*
X83752664Y-64311109D01*
X83771125Y-64303069D01*
X83795338Y-64295712D01*
X83819094Y-64292197D01*
X83842392Y-64292525D01*
G37*
D10*
D11*
G36*
X82701076Y-62819405D02*
G01*
X82624602Y-62895879D01*
X82644606Y-62893989D01*
X82664721Y-62893395D01*
X82684948Y-62894099D01*
X82705286Y-62896099D01*
X82725736Y-62899396D01*
X82732578Y-62900784D01*
X82754283Y-62906500D01*
X82773278Y-62913432D01*
X82791667Y-62922845D01*
X82808122Y-62935333D01*
X82809674Y-62936845D01*
X82822028Y-62954204D01*
X82824957Y-62974204D01*
X82817931Y-62993207D01*
X82816720Y-62995150D01*
X82805036Y-63010991D01*
X82797170Y-63019536D01*
X82781471Y-63032898D01*
X82763646Y-63043710D01*
X82743697Y-63051971D01*
X82721622Y-63057683D01*
X82697422Y-63060844D01*
X82676532Y-63061537D01*
X82659972Y-63060986D01*
X82638270Y-63058230D01*
X82616858Y-63052642D01*
X82595736Y-63044220D01*
X82574904Y-63032964D01*
X82558447Y-63021920D01*
X82542176Y-63009062D01*
X82526091Y-62994390D01*
X82378324Y-63142157D01*
X82362435Y-63126268D01*
X82511722Y-62976982D01*
X82543500Y-62976982D01*
X82557923Y-62990165D01*
X82576103Y-63004381D01*
X82594453Y-63016079D01*
X82612971Y-63025262D01*
X82631657Y-63031928D01*
X82654304Y-63036606D01*
X82661907Y-63037359D01*
X82685516Y-63037951D01*
X82707165Y-63036400D01*
X82726855Y-63032708D01*
X82747895Y-63025449D01*
X82766113Y-63015106D01*
X82779139Y-63004131D01*
X82791836Y-62989073D01*
X82795028Y-62984373D01*
X82798472Y-62964782D01*
X82791160Y-62953701D01*
X82775190Y-62941982D01*
X82755581Y-62933291D01*
X82734245Y-62927018D01*
X82712851Y-62922630D01*
X82705083Y-62921370D01*
X82682037Y-62918422D01*
X82660409Y-62916882D01*
X82640199Y-62916751D01*
X82618413Y-62918378D01*
X82598558Y-62921923D01*
X82543500Y-62976982D01*
X82511722Y-62976982D01*
X82577074Y-62911630D01*
X82571754Y-62906310D01*
X82587022Y-62901682D01*
X82685187Y-62803516D01*
X82701076Y-62819405D01*
G37*
G36*
X83117228Y-63235557D02*
G01*
X83040754Y-63312031D01*
X83060758Y-63310140D01*
X83080873Y-63309547D01*
X83101099Y-63310251D01*
X83121438Y-63312251D01*
X83141888Y-63315548D01*
X83148730Y-63316936D01*
X83170435Y-63322652D01*
X83189430Y-63329584D01*
X83207818Y-63338997D01*
X83224274Y-63351485D01*
X83225826Y-63352997D01*
X83238180Y-63370356D01*
X83241109Y-63390356D01*
X83234082Y-63409359D01*
X83232872Y-63411302D01*
X83221187Y-63427142D01*
X83213322Y-63435688D01*
X83197622Y-63449050D01*
X83179798Y-63459861D01*
X83159848Y-63468123D01*
X83137774Y-63473834D01*
X83113574Y-63476996D01*
X83092684Y-63477689D01*
X83076124Y-63477137D01*
X83054422Y-63474382D01*
X83033010Y-63468794D01*
X83011888Y-63460372D01*
X82991056Y-63449116D01*
X82974599Y-63438071D01*
X82958328Y-63425213D01*
X82942243Y-63410542D01*
X82794476Y-63558309D01*
X82778587Y-63542420D01*
X82927875Y-63393133D01*
X82959652Y-63393133D01*
X82974075Y-63406317D01*
X82992255Y-63420532D01*
X83010605Y-63432231D01*
X83029123Y-63441414D01*
X83047809Y-63448080D01*
X83070456Y-63452757D01*
X83078059Y-63453511D01*
X83101668Y-63454103D01*
X83123317Y-63452552D01*
X83143006Y-63448859D01*
X83164047Y-63441601D01*
X83182265Y-63431258D01*
X83195291Y-63420283D01*
X83207988Y-63405225D01*
X83211180Y-63400525D01*
X83214624Y-63380934D01*
X83207312Y-63369853D01*
X83191342Y-63358134D01*
X83171733Y-63349443D01*
X83150396Y-63343170D01*
X83129003Y-63338782D01*
X83121235Y-63337522D01*
X83098189Y-63334574D01*
X83076560Y-63333034D01*
X83056351Y-63332903D01*
X83034565Y-63334530D01*
X83014710Y-63338075D01*
X82959652Y-63393133D01*
X82927875Y-63393133D01*
X82993226Y-63327782D01*
X82987906Y-63322462D01*
X83003173Y-63317834D01*
X83101339Y-63219668D01*
X83117228Y-63235557D01*
G37*
G36*
X83755549Y-63873877D02*
G01*
X83679075Y-63950351D01*
X83699078Y-63948461D01*
X83719193Y-63947868D01*
X83739420Y-63948571D01*
X83759759Y-63950571D01*
X83780209Y-63953869D01*
X83787050Y-63955256D01*
X83808756Y-63960972D01*
X83827750Y-63967905D01*
X83846139Y-63977317D01*
X83862594Y-63989805D01*
X83864146Y-63991317D01*
X83876500Y-64008677D01*
X83879430Y-64028676D01*
X83872403Y-64047679D01*
X83871193Y-64049623D01*
X83859508Y-64065463D01*
X83851642Y-64074009D01*
X83835943Y-64087370D01*
X83818118Y-64098182D01*
X83798169Y-64106444D01*
X83776094Y-64112155D01*
X83751895Y-64115316D01*
X83731005Y-64116009D01*
X83714445Y-64115458D01*
X83692743Y-64112703D01*
X83671330Y-64107114D01*
X83650208Y-64098692D01*
X83629376Y-64087437D01*
X83612920Y-64076392D01*
X83596649Y-64063534D01*
X83580563Y-64048863D01*
X83432796Y-64196630D01*
X83416907Y-64180741D01*
X83566194Y-64031454D01*
X83597972Y-64031454D01*
X83612395Y-64044638D01*
X83630576Y-64058853D01*
X83648925Y-64070552D01*
X83667443Y-64079734D01*
X83686130Y-64086400D01*
X83708776Y-64091078D01*
X83716379Y-64091832D01*
X83739988Y-64092423D01*
X83761637Y-64090873D01*
X83781327Y-64087180D01*
X83802367Y-64079921D01*
X83820586Y-64069579D01*
X83833612Y-64058603D01*
X83846308Y-64043545D01*
X83849501Y-64038846D01*
X83852944Y-64019254D01*
X83845632Y-64008173D01*
X83829662Y-63996455D01*
X83810054Y-63987763D01*
X83788717Y-63981490D01*
X83767324Y-63977102D01*
X83759556Y-63975843D01*
X83736509Y-63972894D01*
X83714881Y-63971354D01*
X83694671Y-63971223D01*
X83672886Y-63972851D01*
X83653031Y-63976395D01*
X83597972Y-64031454D01*
X83566194Y-64031454D01*
X83631546Y-63966102D01*
X83626227Y-63960783D01*
X83641494Y-63956154D01*
X83739660Y-63857988D01*
X83755549Y-63873877D01*
G37*
G36*
X84171701Y-64290029D02*
G01*
X84095227Y-64366503D01*
X84115230Y-64364613D01*
X84135345Y-64364019D01*
X84155572Y-64364723D01*
X84175910Y-64366723D01*
X84196361Y-64370021D01*
X84203202Y-64371408D01*
X84224907Y-64377124D01*
X84243902Y-64384057D01*
X84262291Y-64393469D01*
X84278746Y-64405957D01*
X84280298Y-64407469D01*
X84292652Y-64424829D01*
X84295582Y-64444828D01*
X84288555Y-64463831D01*
X84287344Y-64465774D01*
X84275660Y-64481615D01*
X84267794Y-64490160D01*
X84252095Y-64503522D01*
X84234270Y-64514334D01*
X84214321Y-64522595D01*
X84192246Y-64528307D01*
X84168046Y-64531468D01*
X84147157Y-64532161D01*
X84130597Y-64531610D01*
X84108894Y-64528855D01*
X84087482Y-64523266D01*
X84066360Y-64514844D01*
X84045528Y-64503588D01*
X84029072Y-64492544D01*
X84012801Y-64479686D01*
X83996715Y-64465014D01*
X83848948Y-64612782D01*
X83833059Y-64596893D01*
X83982346Y-64447606D01*
X84014124Y-64447606D01*
X84028547Y-64460790D01*
X84046728Y-64475005D01*
X84065077Y-64486704D01*
X84083595Y-64495886D01*
X84102282Y-64502552D01*
X84124928Y-64507230D01*
X84132531Y-64507984D01*
X84156140Y-64508575D01*
X84177789Y-64507024D01*
X84197479Y-64503332D01*
X84218519Y-64496073D01*
X84236738Y-64485730D01*
X84249764Y-64474755D01*
X84262460Y-64459697D01*
X84265653Y-64454998D01*
X84269096Y-64435406D01*
X84261784Y-64424325D01*
X84245814Y-64412607D01*
X84226206Y-64403915D01*
X84204869Y-64397642D01*
X84183475Y-64393254D01*
X84175707Y-64391994D01*
X84152661Y-64389046D01*
X84131033Y-64387506D01*
X84110823Y-64387375D01*
X84089037Y-64389003D01*
X84069182Y-64392547D01*
X84014124Y-64447606D01*
X83982346Y-64447606D01*
X84047698Y-64382254D01*
X84042379Y-64376935D01*
X84057646Y-64372306D01*
X84155812Y-64274140D01*
X84171701Y-64290029D01*
G37*
D10*
D11*
G36*
X83169558Y-63620396D02*
G01*
X83149149Y-63626298D01*
X83127851Y-63626418D01*
X83106588Y-63622396D01*
X83092186Y-63617909D01*
X83073922Y-63610466D01*
X83056286Y-63601307D01*
X83038917Y-63588986D01*
X83033742Y-63584197D01*
X83027041Y-63570864D01*
X83062619Y-63563749D01*
X83060132Y-63575217D01*
X83076652Y-63587365D01*
X83095004Y-63595925D01*
X83103999Y-63599188D01*
X83123921Y-63604481D01*
X83143998Y-63605543D01*
X83157538Y-63602021D01*
X83168107Y-63595181D01*
X83166184Y-63575318D01*
X83163893Y-63572868D01*
X83148293Y-63560688D01*
X83129749Y-63550382D01*
X83113187Y-63542886D01*
X83093217Y-63537391D01*
X83072345Y-63535973D01*
X83050272Y-63537154D01*
X83047628Y-63537429D01*
X83028155Y-63540347D01*
X83006770Y-63545759D01*
X82986819Y-63553334D01*
X82968303Y-63563070D01*
X82955955Y-63571348D01*
X82940757Y-63584197D01*
X82927645Y-63600318D01*
X82920482Y-63620189D01*
X82925315Y-63641141D01*
X82934678Y-63653141D01*
X82950741Y-63665669D01*
X82971108Y-63675427D01*
X82991368Y-63681444D01*
X83014617Y-63685538D01*
X83035367Y-63687429D01*
X83058031Y-63688090D01*
X83070079Y-63687959D01*
X83070287Y-63711516D01*
X83050308Y-63711661D01*
X83025426Y-63710532D01*
X83002553Y-63707892D01*
X82981687Y-63703740D01*
X82962828Y-63698078D01*
X82942079Y-63688874D01*
X82924466Y-63677310D01*
X82915404Y-63669238D01*
X82902746Y-63652616D01*
X82896246Y-63632877D01*
X82895854Y-63621502D01*
X82900543Y-63601574D01*
X82910986Y-63583340D01*
X82923901Y-63568447D01*
X82938698Y-63555200D01*
X82942553Y-63552143D01*
X82960043Y-63540451D01*
X82978679Y-63530712D01*
X82998462Y-63522926D01*
X83019390Y-63517092D01*
X83041465Y-63513211D01*
X83049078Y-63512352D01*
X83069630Y-63510899D01*
X83090600Y-63511157D01*
X83110980Y-63513893D01*
X83126243Y-63518500D01*
X83145384Y-63527805D01*
X83162393Y-63538620D01*
X83178640Y-63552263D01*
X83179989Y-63553594D01*
X83193197Y-63570441D01*
X83197496Y-63590915D01*
X83188072Y-63607685D01*
X83171669Y-63619322D01*
X83169558Y-63620396D01*
G37*
G36*
X83339777Y-63790615D02*
G01*
X83319368Y-63796517D01*
X83298070Y-63796637D01*
X83276807Y-63792615D01*
X83262405Y-63788128D01*
X83244141Y-63780685D01*
X83226505Y-63771526D01*
X83209136Y-63759204D01*
X83203961Y-63754416D01*
X83197260Y-63741083D01*
X83232837Y-63733968D01*
X83230350Y-63745435D01*
X83246870Y-63757584D01*
X83265223Y-63766144D01*
X83274218Y-63769407D01*
X83294140Y-63774700D01*
X83314217Y-63775762D01*
X83327756Y-63772239D01*
X83338326Y-63765400D01*
X83336403Y-63745537D01*
X83334112Y-63743087D01*
X83318512Y-63730907D01*
X83299968Y-63720600D01*
X83283406Y-63713105D01*
X83263435Y-63707610D01*
X83242564Y-63706192D01*
X83220491Y-63707372D01*
X83217846Y-63707647D01*
X83198374Y-63710566D01*
X83176989Y-63715978D01*
X83157038Y-63723553D01*
X83138522Y-63733289D01*
X83126174Y-63741567D01*
X83110976Y-63754416D01*
X83097864Y-63770537D01*
X83090701Y-63790408D01*
X83095534Y-63811359D01*
X83104897Y-63823360D01*
X83120960Y-63835887D01*
X83141327Y-63845646D01*
X83161587Y-63851663D01*
X83184835Y-63855757D01*
X83205586Y-63857648D01*
X83228249Y-63858309D01*
X83240298Y-63858178D01*
X83240505Y-63881735D01*
X83220527Y-63881880D01*
X83195645Y-63880751D01*
X83172772Y-63878110D01*
X83151905Y-63873959D01*
X83133047Y-63868296D01*
X83112297Y-63859093D01*
X83094685Y-63847529D01*
X83085623Y-63839456D01*
X83072965Y-63822835D01*
X83066465Y-63803095D01*
X83066073Y-63791721D01*
X83070762Y-63771792D01*
X83081204Y-63753559D01*
X83094120Y-63738665D01*
X83108917Y-63725419D01*
X83112772Y-63722362D01*
X83130262Y-63710670D01*
X83148898Y-63700931D01*
X83168680Y-63693145D01*
X83189609Y-63687311D01*
X83211684Y-63683430D01*
X83219297Y-63682571D01*
X83239849Y-63681117D01*
X83260818Y-63681375D01*
X83281199Y-63684112D01*
X83296462Y-63688719D01*
X83315603Y-63698023D01*
X83332612Y-63708839D01*
X83348859Y-63722482D01*
X83350208Y-63723813D01*
X83363416Y-63740660D01*
X83367715Y-63761133D01*
X83358291Y-63777904D01*
X83341888Y-63789541D01*
X83339777Y-63790615D01*
G37*
D12*
X76430000Y-47730000D03*
D13*
X76980000Y-48780000D03*
X77480000Y-48780000D03*
X77980000Y-48780000D03*
X78480000Y-48780000D03*
X78980000Y-48780000D03*
D12*
X79530000Y-47730000D03*
X79530000Y-47230000D03*
D13*
X78980000Y-46180000D03*
X78480000Y-46180000D03*
X77980000Y-46180000D03*
X77480000Y-46180000D03*
X76980000Y-46180000D03*
D12*
X76430000Y-47230000D03*
D14*
X77980000Y-47480000D03*
D15*
X84746671Y-42016246D03*
X86396671Y-42016246D03*
D16*
X60585000Y-52917500D03*
X60585000Y-54467500D03*
D17*
X66095000Y-62017500D03*
X66095000Y-60997500D03*
D18*
X92960000Y-35015000D03*
X92960000Y-39640000D03*
D19*
X59360000Y-48110000D03*
X59360000Y-50010000D03*
D20*
X100345000Y-56325000D03*
X99325000Y-56325000D03*
D21*
X61280000Y-42220000D03*
X61280000Y-44345000D03*
D20*
X100250000Y-43900000D03*
X99230000Y-43900000D03*
D22*
X64300000Y-47249998D03*
X64300000Y-48209998D03*
D16*
X82984171Y-51168746D03*
X82984171Y-52718746D03*
D18*
X92960000Y-59855000D03*
X92960000Y-64480000D03*
D23*
X95970000Y-51914325D03*
D24*
X95970000Y-53214325D03*
D25*
X98140000Y-52239325D03*
D26*
X101900000Y-50500000D03*
D27*
X67100000Y-49050000D03*
X69300000Y-49050000D03*
X69300000Y-47350000D03*
X67100000Y-47350000D03*
D26*
X50500000Y-64750000D03*
D15*
X84746671Y-40546246D03*
X86396671Y-40546246D03*
D28*
X61280000Y-41000000D03*
X62300000Y-41000000D03*
D29*
X54660000Y-36640000D03*
X48160000Y-36640000D03*
D20*
X101270000Y-42775000D03*
X100250000Y-42775000D03*
D12*
X76500000Y-53925000D03*
D13*
X77050000Y-54975000D03*
X77550000Y-54975000D03*
X78050000Y-54975000D03*
X78550000Y-54975000D03*
X79050000Y-54975000D03*
D12*
X79600000Y-53925000D03*
X79600000Y-53425000D03*
D13*
X79050000Y-52375000D03*
X78550000Y-52375000D03*
X78050000Y-52375000D03*
X77550000Y-52375000D03*
X77050000Y-52375000D03*
D12*
X76500000Y-53425000D03*
D14*
X78050000Y-53675000D03*
D21*
X61280000Y-47960000D03*
X61280000Y-50085000D03*
D20*
X99170000Y-55200000D03*
X98150000Y-55200000D03*
D22*
X97150000Y-55340000D03*
X97150000Y-56300000D03*
D26*
X101900000Y-62800000D03*
D30*
X84460000Y-67850000D03*
D31*
X81920000Y-67850000D03*
X79380000Y-67850000D03*
X76840000Y-67850000D03*
X74300000Y-67850000D03*
X71760000Y-67850000D03*
D20*
X100245000Y-68900000D03*
X99225000Y-68900000D03*
D32*
X59370000Y-46130000D03*
X61270000Y-46130000D03*
D29*
X54700000Y-45600000D03*
X48200000Y-45600000D03*
D22*
X96900000Y-42940000D03*
X96900000Y-43900000D03*
X96400000Y-67940000D03*
X96400000Y-68900000D03*
D33*
X69670000Y-44190000D03*
X68120000Y-44190000D03*
D26*
X101900000Y-37900000D03*
D34*
X69550000Y-58665000D03*
X69550000Y-57115000D03*
D35*
X85911671Y-53876246D03*
X87461671Y-53876246D03*
D36*
X107420000Y-43310000D03*
D17*
X68395000Y-62027500D03*
X68395000Y-61007500D03*
D36*
X107400000Y-55710000D03*
D18*
X93070000Y-47309325D03*
X93070000Y-51934325D03*
D23*
X95850000Y-39629325D03*
D24*
X95850000Y-40929325D03*
D25*
X98020000Y-39954325D03*
D17*
X67455000Y-62022500D03*
X67455000Y-61002500D03*
D20*
X101270000Y-67775000D03*
X100250000Y-67775000D03*
D26*
X50650000Y-57870000D03*
D35*
X84499171Y-46326246D03*
X86049171Y-46326246D03*
D20*
X99050000Y-67775000D03*
X98030000Y-67775000D03*
D30*
X68065000Y-65385000D03*
D31*
X68065000Y-67925000D03*
X65525000Y-65385000D03*
X65525000Y-67925000D03*
X62985000Y-65385000D03*
X62985000Y-67925000D03*
X60445000Y-65385000D03*
X60445000Y-67925000D03*
X57905000Y-65385000D03*
X57905000Y-67925000D03*
D23*
X98740000Y-36409325D03*
D24*
X98740000Y-35109325D03*
D25*
X96570000Y-36084325D03*
D15*
X84754171Y-58666246D03*
X86404171Y-58666246D03*
D33*
X69670000Y-42285000D03*
X68120000Y-42285000D03*
D34*
X90000000Y-52340000D03*
X90000000Y-50790000D03*
D37*
X71600002Y-48965000D03*
X71600002Y-48005000D03*
D16*
X73810000Y-45020000D03*
X73810000Y-46570000D03*
D36*
X107420000Y-68790000D03*
D20*
X80420000Y-61450000D03*
X79400000Y-61450000D03*
D38*
X52190000Y-51840000D03*
X48888000Y-51840000D03*
D34*
X73800000Y-54575000D03*
X73800000Y-53025000D03*
D16*
X69555000Y-53757500D03*
X69555000Y-55307500D03*
D20*
X99045000Y-42775000D03*
X98025000Y-42775000D03*
D23*
X95852220Y-64471899D03*
D24*
X95852220Y-65771899D03*
D25*
X98022220Y-64796899D03*
D39*
X76500000Y-59750000D03*
X78075000Y-59750000D03*
D33*
X86046671Y-44866246D03*
X84496671Y-44866246D03*
X69830000Y-37005000D03*
X68280000Y-37005000D03*
D15*
X84746671Y-39066246D03*
X86396671Y-39066246D03*
X84754171Y-55736246D03*
X86404171Y-55736246D03*
D40*
X67332500Y-58330000D03*
X67332500Y-57830000D03*
X67332500Y-57330000D03*
X67332500Y-56830000D03*
X67332500Y-56330000D03*
X67332500Y-55830000D03*
X67332500Y-55330000D03*
X67332500Y-54830000D03*
D41*
X66645000Y-54142500D03*
X66145000Y-54142500D03*
X65645000Y-54142500D03*
X65145000Y-54142500D03*
X64645000Y-54142500D03*
X64145000Y-54142500D03*
X63645000Y-54142500D03*
X63145000Y-54142500D03*
D40*
X62457500Y-54830000D03*
X62457500Y-55330000D03*
X62457500Y-55830000D03*
X62457500Y-56330000D03*
X62457500Y-56830000D03*
X62457500Y-57330000D03*
X62457500Y-57830000D03*
X62457500Y-58330000D03*
D41*
X63145000Y-59017500D03*
X63645000Y-59017500D03*
X64145000Y-59017500D03*
X64645000Y-59017500D03*
X65145000Y-59017500D03*
X65645000Y-59017500D03*
X66145000Y-59017500D03*
X66645000Y-59017500D03*
D42*
X64895000Y-56580000D03*
D15*
X84764171Y-57196246D03*
X86414171Y-57196246D03*
D39*
X76500000Y-61450000D03*
X78075000Y-61450000D03*
D23*
X98749720Y-61311899D03*
D24*
X98749720Y-60011899D03*
D25*
X96579720Y-60986899D03*
D17*
X65150000Y-62015000D03*
X65150000Y-60995000D03*
D20*
X101370000Y-55200000D03*
X100350000Y-55200000D03*
D43*
X68175000Y-40800000D03*
X68825000Y-40800000D03*
X69475000Y-40800000D03*
X69475000Y-38700000D03*
X68825000Y-38700000D03*
X68175000Y-38700000D03*
D44*
X68825000Y-39750000D03*
D37*
X60605000Y-56902500D03*
X60605000Y-55942500D03*
D23*
X98870000Y-48734325D03*
D24*
X98870000Y-47434325D03*
D25*
X96700000Y-48409325D03*
D35*
X65170000Y-39265000D03*
X66720000Y-39265000D03*
D20*
X80470000Y-59750000D03*
X79450000Y-59750000D03*
D30*
X75610000Y-34180000D03*
D31*
X78150000Y-34180000D03*
X80690000Y-34180000D03*
X83230000Y-34180000D03*
X85770000Y-34180000D03*
X88310000Y-34180000D03*
D45*
X87640001Y-48111246D03*
X87140002Y-48111246D03*
X86640001Y-48111246D03*
X86140001Y-48111246D03*
X85640000Y-48111246D03*
X85140001Y-48111246D03*
D46*
X84538754Y-48741246D03*
X84538754Y-49241245D03*
X84538754Y-49741246D03*
X84538754Y-50241246D03*
X84538754Y-50741247D03*
X84538754Y-51241246D03*
D45*
X85140000Y-51871246D03*
X85639999Y-51871246D03*
X86140000Y-51871246D03*
X86640000Y-51871246D03*
X87140001Y-51871246D03*
X87640000Y-51871246D03*
D46*
X88241246Y-51241246D03*
X88241246Y-50741247D03*
X88241246Y-50241246D03*
X88241246Y-49741246D03*
X88241246Y-49241245D03*
X88241246Y-48741246D03*
D47*
X86390000Y-49991246D03*
D48*
X65930000Y-56580000D03*
X73670000Y-64500000D03*
X66000000Y-63430000D03*
X71450000Y-32610000D03*
X57410000Y-52570000D03*
X70580000Y-40640000D03*
X93840000Y-34980000D03*
X65550000Y-46550000D03*
X70800000Y-49780000D03*
X76680000Y-64460000D03*
X96250000Y-55340000D03*
X65930000Y-57610000D03*
X48640000Y-34820000D03*
X93890000Y-48430000D03*
X70595000Y-39115000D03*
X63850000Y-40840000D03*
X93930000Y-36180000D03*
X61420000Y-66850000D03*
X49670000Y-38470000D03*
X50500000Y-66180000D03*
X80440000Y-64460000D03*
X49370000Y-36590000D03*
X85670000Y-64510000D03*
X92110000Y-33700000D03*
X103790000Y-55170000D03*
X71195000Y-39865000D03*
X65930000Y-55550000D03*
X76970000Y-41840000D03*
X47770000Y-43780000D03*
X57800000Y-48150000D03*
X74540000Y-44100000D03*
X64880000Y-63380000D03*
X73410000Y-60800000D03*
X71040000Y-37020000D03*
X109030000Y-68840000D03*
X50500000Y-63300000D03*
X103790000Y-56280000D03*
X92820000Y-49350000D03*
X92820000Y-45100000D03*
X91640000Y-59810000D03*
X46590000Y-69260000D03*
X93830000Y-45980000D03*
X64895000Y-55550000D03*
X49450000Y-45550000D03*
X49600000Y-34830000D03*
X49020000Y-64760000D03*
X58970000Y-44670000D03*
X92140000Y-36230000D03*
X86390000Y-49991246D03*
X95950000Y-43300000D03*
X87210000Y-49990000D03*
X86390000Y-50820000D03*
X94640000Y-45310000D03*
X49750000Y-47430000D03*
X65500000Y-47650000D03*
X71445000Y-41340000D03*
X93080000Y-58760000D03*
X92850000Y-46010000D03*
X64895000Y-56580000D03*
X46640000Y-61210000D03*
X63860000Y-56580000D03*
X59930000Y-51840000D03*
X104320000Y-68780000D03*
X46920000Y-47430000D03*
X71810000Y-53100000D03*
X94440000Y-32530000D03*
X94450000Y-67910000D03*
X48790000Y-47420000D03*
X46820000Y-36640000D03*
X52010000Y-64750000D03*
X48720000Y-43780000D03*
X103720000Y-42770000D03*
X93040000Y-33700000D03*
X92900000Y-47320000D03*
X83330000Y-44100000D03*
X108970000Y-55760000D03*
X64840000Y-41160000D03*
X62550000Y-43220000D03*
X47334000Y-51835000D03*
X88610000Y-58480000D03*
X94060000Y-33670000D03*
X92830000Y-48460000D03*
X63860000Y-57610000D03*
X74250000Y-48120000D03*
X91300000Y-68210000D03*
X71880000Y-49888000D03*
X47760000Y-38460000D03*
X75070000Y-60760000D03*
X48190000Y-45600000D03*
X46770000Y-34830000D03*
X72600000Y-49080000D03*
X63860000Y-55550000D03*
X94090000Y-58710000D03*
X75760000Y-55480000D03*
X64300000Y-46300000D03*
X93930000Y-47330000D03*
X70470000Y-59310000D03*
X85570000Y-49990000D03*
X59170000Y-66750000D03*
X48710000Y-38460000D03*
X93920000Y-49340000D03*
X80810412Y-57816421D03*
X69090000Y-51970000D03*
X47319000Y-50535000D03*
X49680000Y-43790000D03*
X102580000Y-43780000D03*
X57940000Y-46140000D03*
X93040000Y-36210000D03*
X46840000Y-38470000D03*
X56610000Y-59520000D03*
X71350000Y-58775000D03*
X81326523Y-49113095D03*
X91470000Y-66440000D03*
X64895000Y-57610000D03*
X75150000Y-61850000D03*
X83302000Y-45620000D03*
X69790000Y-51250000D03*
X58200000Y-41550000D03*
X92170000Y-34970000D03*
X70970000Y-44180000D03*
X72060000Y-51840000D03*
X46850000Y-43790000D03*
X48110000Y-36640000D03*
X91630000Y-58720000D03*
X91600000Y-60920000D03*
X71160000Y-35610000D03*
X104290000Y-67800000D03*
X93050000Y-60950000D03*
X56950000Y-66850000D03*
X46900000Y-45600000D03*
X47840000Y-47420000D03*
X70440000Y-67330000D03*
X93070000Y-59850000D03*
X94030000Y-59850000D03*
X108970000Y-43320000D03*
X80540000Y-54760000D03*
X62640000Y-48000000D03*
X59520000Y-56704674D03*
X86390000Y-49170000D03*
X59475000Y-52700000D03*
X94023579Y-60885519D03*
X71770000Y-46190000D03*
X47690000Y-34820000D03*
X71035000Y-42285000D03*
X84510000Y-43760000D03*
X86970000Y-43600000D03*
X54880000Y-47470000D03*
X53140000Y-38510000D03*
X54650000Y-45610000D03*
X97380000Y-59310000D03*
X54000000Y-34710000D03*
X96600000Y-34380000D03*
X96750000Y-46750000D03*
X53380000Y-36610000D03*
X54590000Y-36650000D03*
X54850000Y-34710000D03*
X53140000Y-34730000D03*
X54060000Y-43670000D03*
X95870000Y-45880000D03*
X96520000Y-58460000D03*
X97410000Y-60980000D03*
X50640000Y-56390000D03*
X54820000Y-38510000D03*
X53440000Y-45570000D03*
X55720000Y-36590000D03*
X96730000Y-48390000D03*
X97410000Y-36090000D03*
X97460000Y-33480000D03*
X50650000Y-59360000D03*
X95720000Y-34380000D03*
X95830000Y-46750000D03*
X96580000Y-33510000D03*
X53200000Y-43690000D03*
X97450000Y-34400000D03*
X97650000Y-45880000D03*
X96510000Y-59330000D03*
X96560000Y-36080000D03*
X96740000Y-45900000D03*
X54050000Y-47470000D03*
X96550000Y-61010000D03*
X52130000Y-57870000D03*
X49180000Y-57860000D03*
X53990000Y-38510000D03*
X87740000Y-44280000D03*
X95690000Y-33550000D03*
X97620000Y-48370000D03*
X95700000Y-59300000D03*
X97670000Y-46750000D03*
X97380000Y-58460000D03*
X54910000Y-43670000D03*
X55780000Y-45550000D03*
X95710000Y-58460000D03*
X87081063Y-45627274D03*
X53200000Y-47470000D03*
X94800000Y-43500000D03*
X89780000Y-54410000D03*
X92570000Y-42550000D03*
X90758966Y-46231034D03*
X84520000Y-53790000D03*
X95100000Y-56075000D03*
X90700000Y-56000000D03*
X93100000Y-56000000D03*
X59747945Y-59574012D03*
X93900000Y-44575000D03*
X90916034Y-39923966D03*
X64450000Y-42680000D03*
X62188300Y-53285603D03*
X75240000Y-54076500D03*
X63541034Y-52658966D03*
X78970000Y-44180000D03*
X65493000Y-52350000D03*
X76950000Y-50360000D03*
X76278534Y-57496466D03*
X61683196Y-54068873D03*
X62825000Y-50950000D03*
X72925000Y-59075000D03*
X79070000Y-51160000D03*
X72075000Y-61475000D03*
X64350000Y-52150000D03*
X75450000Y-44941500D03*
X98650000Y-32900000D03*
X94010000Y-41780000D03*
X98860000Y-45400000D03*
X94310000Y-55348000D03*
X94100000Y-53225000D03*
X88860000Y-41810000D03*
X88660000Y-53230000D03*
X89114491Y-51688500D03*
X83350000Y-54000000D03*
X84240000Y-52060000D03*
X66856082Y-43720000D03*
X81710000Y-59220000D03*
X81700000Y-60750000D03*
X59670000Y-55330000D03*
X70820000Y-57120000D03*
X75550000Y-51960000D03*
X66030000Y-44560000D03*
X66093918Y-40810000D03*
X66040000Y-43720000D03*
X66906082Y-41640000D03*
X66846082Y-44560000D03*
X64270000Y-62590000D03*
X66910000Y-40810000D03*
X70920000Y-56120000D03*
X72690000Y-46550000D03*
X66090000Y-41640000D03*
X87970000Y-42520000D03*
X94290000Y-65875000D03*
X60250000Y-60450000D03*
X94710000Y-56998000D03*
X66900000Y-52700000D03*
X75700000Y-46330000D03*
X75540000Y-48910000D03*
X76900000Y-44031500D03*
X70760000Y-51630000D03*
X78118314Y-41379590D03*
X89454966Y-46410000D03*
X81170000Y-50340000D03*
X90758966Y-47560000D03*
X90760000Y-49640000D03*
X79965789Y-41251883D03*
X81610000Y-48230500D03*
X90310000Y-48600000D03*
X77398000Y-56452221D03*
X89395000Y-48205000D03*
X90030000Y-40950000D03*
X89700000Y-37730000D03*
X88260000Y-45650000D03*
X79038994Y-41271503D03*
X79930000Y-44838777D03*
X77634138Y-44838777D03*
X88086095Y-46688479D03*
X80740000Y-53060000D03*
X89454966Y-44960000D03*
X88940000Y-40360000D03*
X86890000Y-37098000D03*
X80890000Y-41180000D03*
X79620000Y-56080000D03*
X81530000Y-45680000D03*
X87170000Y-46550000D03*
X57688500Y-61850000D03*
X57550000Y-57000000D03*
X59891326Y-58008674D03*
X61850000Y-60590000D03*
X90715000Y-37165000D03*
X63391500Y-60650000D03*
X91650000Y-55125000D03*
X90300000Y-64000000D03*
X90200000Y-67420000D03*
X70287500Y-64512500D03*
X64337272Y-60651336D03*
X68210000Y-59070000D03*
X63390000Y-49390000D03*
D49*
X64880000Y-63380000D02*
X64880000Y-63232500D01*
X66800000Y-47650000D02*
X67100000Y-47350000D01*
X103715000Y-42775000D02*
X101270000Y-42775000D01*
X71160000Y-35610000D02*
X69830000Y-36940000D01*
X94450000Y-67910000D02*
X96370000Y-67910000D01*
X104265000Y-67775000D02*
X101270000Y-67775000D01*
X63850000Y-40585000D02*
X65170000Y-39265000D01*
X59370000Y-45070000D02*
X59370000Y-46130000D01*
X70595000Y-39115000D02*
X69960000Y-39750000D01*
X103760000Y-55200000D02*
X101370000Y-55200000D01*
X80035000Y-53925000D02*
X80540000Y-54430000D01*
X70565000Y-40655000D02*
X70580000Y-40640000D01*
X59930000Y-51840000D02*
X60585000Y-52495000D01*
X70800000Y-49780000D02*
X70070000Y-49050000D01*
X68825000Y-38700000D02*
X68825000Y-39750000D01*
X69830000Y-59310000D02*
X69550000Y-59030000D01*
X72940000Y-45020000D02*
X73810000Y-45020000D01*
X74540000Y-44100000D02*
X74540000Y-44290000D01*
X83330000Y-44780000D02*
X83330000Y-44100000D01*
X85195573Y-48796819D02*
X86390000Y-49991246D01*
X69830000Y-37005000D02*
X71025000Y-37005000D01*
X71240000Y-58665000D02*
X71350000Y-58775000D01*
X85195573Y-48166818D02*
X85195573Y-48796819D01*
X79600000Y-53925000D02*
X80035000Y-53925000D01*
X67332500Y-56330000D02*
X65145000Y-56330000D01*
X80540000Y-54430000D02*
X80540000Y-54760000D01*
X69550000Y-59030000D02*
X69550000Y-58665000D01*
X71675000Y-48965000D02*
X71880000Y-49170000D01*
X64840000Y-41160000D02*
X64900000Y-41100000D01*
X65145000Y-56330000D02*
X64895000Y-56580000D01*
X71600002Y-49608002D02*
X71600002Y-48965000D01*
X68940000Y-39865000D02*
X68825000Y-39750000D01*
X57940000Y-46690000D02*
X57940000Y-46140000D01*
X84510000Y-43760000D02*
X84496671Y-43773329D01*
X62457500Y-56830000D02*
X64645000Y-56830000D01*
X96250000Y-55340000D02*
X97150000Y-55340000D01*
X75760000Y-61450000D02*
X76500000Y-61450000D01*
X65550000Y-46550000D02*
X66300000Y-46550000D01*
X69730000Y-44180000D02*
X69690000Y-44140000D01*
X57840000Y-48110000D02*
X57800000Y-48150000D01*
X70970000Y-44180000D02*
X69730000Y-44180000D01*
X69670000Y-43865000D02*
X69670000Y-44190000D01*
X59370000Y-46130000D02*
X57950000Y-46130000D01*
X69090000Y-51970000D02*
X69555000Y-52435000D01*
X69670000Y-42285000D02*
X70490000Y-41465000D01*
X65645000Y-57330000D02*
X64895000Y-56580000D01*
X74540000Y-44290000D02*
X73810000Y-45020000D01*
X62457500Y-56830000D02*
X60677500Y-56830000D01*
X69790000Y-51250000D02*
X69790000Y-49540000D01*
X60677500Y-56830000D02*
X60605000Y-56902500D01*
X69790000Y-49540000D02*
X69300000Y-49050000D01*
X96310000Y-42940000D02*
X96900000Y-42940000D01*
X69960000Y-39750000D02*
X68825000Y-39750000D01*
X84499171Y-46326246D02*
X84499171Y-45949171D01*
X64645000Y-56830000D02*
X64895000Y-56580000D01*
X59360000Y-48110000D02*
X57840000Y-48110000D01*
X71770000Y-46190000D02*
X72940000Y-45020000D01*
X71880000Y-49170000D02*
X72590000Y-49170000D01*
X84499171Y-45949171D02*
X83330000Y-44780000D01*
X60585000Y-52917500D02*
X59692500Y-52917500D01*
X83302000Y-45620000D02*
X84008246Y-46326246D01*
X67332500Y-57330000D02*
X65645000Y-57330000D01*
X71035000Y-42285000D02*
X69670000Y-42285000D01*
X85140001Y-48111246D02*
X85195573Y-48166818D01*
X48624000Y-51840000D02*
X47319000Y-50535000D01*
X70580000Y-40640000D02*
X69635000Y-40640000D01*
X47339000Y-51840000D02*
X47334000Y-51835000D01*
X71320000Y-41465000D02*
X71445000Y-41340000D01*
X60585000Y-52495000D02*
X60585000Y-52917500D01*
X69635000Y-40640000D02*
X69475000Y-40800000D01*
X83330000Y-44100000D02*
X84096246Y-44866246D01*
X70490000Y-41465000D02*
X71320000Y-41465000D01*
X69555000Y-52435000D02*
X69555000Y-53757500D01*
X59360000Y-48110000D02*
X57940000Y-46690000D01*
X70470000Y-59310000D02*
X69830000Y-59310000D01*
X75550000Y-61450000D02*
X75150000Y-61850000D01*
X70070000Y-49050000D02*
X69300000Y-49050000D01*
X104290000Y-67800000D02*
X104265000Y-67775000D01*
X48888000Y-51840000D02*
X47339000Y-51840000D01*
X95950000Y-43300000D02*
X96310000Y-42940000D01*
X84008246Y-46326246D02*
X84499171Y-46326246D01*
X69550000Y-58665000D02*
X71240000Y-58665000D01*
X71880000Y-49888000D02*
X71600002Y-49608002D01*
X59692500Y-52917500D02*
X59475000Y-52700000D01*
X81326523Y-49113095D02*
X79943428Y-47730000D01*
X64880000Y-63232500D02*
X66095000Y-62017500D01*
X84496671Y-43773329D02*
X84496671Y-44866246D01*
X63850000Y-40840000D02*
X63850000Y-40585000D01*
X69830000Y-36940000D02*
X69830000Y-37005000D01*
X103790000Y-55170000D02*
X103760000Y-55200000D01*
X48888000Y-51840000D02*
X48624000Y-51840000D01*
X103720000Y-42770000D02*
X103715000Y-42775000D01*
X65500000Y-47650000D02*
X66800000Y-47650000D01*
X76500000Y-61450000D02*
X75550000Y-61450000D01*
X66095000Y-63335000D02*
X66095000Y-62017500D01*
X58970000Y-44670000D02*
X59370000Y-45070000D01*
X59717826Y-56902500D02*
X60605000Y-56902500D01*
X71025000Y-37005000D02*
X71040000Y-37020000D01*
X96370000Y-67910000D02*
X96400000Y-67940000D01*
X75070000Y-60760000D02*
X75760000Y-61450000D01*
X57950000Y-46130000D02*
X57940000Y-46140000D01*
X64300000Y-46300000D02*
X64300000Y-47249998D01*
X66000000Y-63430000D02*
X66095000Y-63335000D01*
X64900000Y-41100000D02*
X64900000Y-39535000D01*
X79943428Y-47730000D02*
X79530000Y-47730000D01*
X84096246Y-44866246D02*
X84496671Y-44866246D01*
X66300000Y-46550000D02*
X67100000Y-47350000D01*
X80540000Y-54760000D02*
X80320000Y-54530000D01*
X71195000Y-39865000D02*
X68940000Y-39865000D01*
X59520000Y-56704674D02*
X59717826Y-56902500D01*
D50*
X71600002Y-47650002D02*
X71300000Y-47350000D01*
D49*
X68527000Y-52493841D02*
X68200000Y-52166841D01*
D50*
X71600002Y-48005000D02*
X71600002Y-47650002D01*
X71300000Y-47350000D02*
X69300000Y-47350000D01*
D49*
X68527000Y-55063000D02*
X68527000Y-52493841D01*
X67332500Y-55330000D02*
X68260000Y-55330000D01*
X68200000Y-47800000D02*
X68650000Y-47350000D01*
X68260000Y-55330000D02*
X68527000Y-55063000D01*
X68200000Y-52166841D02*
X68200000Y-47800000D01*
X68650000Y-47350000D02*
X69300000Y-47350000D01*
D50*
X64300000Y-48540000D02*
X64810000Y-49050000D01*
X64810000Y-49050000D02*
X67100000Y-49050000D01*
D49*
X68150000Y-54400000D02*
X67720000Y-54830000D01*
D50*
X64300000Y-48209998D02*
X64300000Y-48540000D01*
D49*
X68150000Y-52650000D02*
X68150000Y-54400000D01*
X67100000Y-49050000D02*
X67100000Y-51600000D01*
X67720000Y-54830000D02*
X67332500Y-54830000D01*
X67100000Y-51600000D02*
X68150000Y-52650000D01*
X69475000Y-38200000D02*
X68280000Y-37005000D01*
X69475000Y-38700000D02*
X69475000Y-38200000D01*
X86140001Y-48111246D02*
X86140001Y-46417076D01*
X86748143Y-45627274D02*
X86049171Y-46326246D01*
X87153754Y-44866246D02*
X87740000Y-44280000D01*
X86970000Y-43600000D02*
X86380000Y-43600000D01*
D51*
X68270000Y-36995000D02*
X68280000Y-37005000D01*
D49*
X86140001Y-46417076D02*
X86049171Y-46326246D01*
X68175000Y-38700000D02*
X68175000Y-37110000D01*
X68175000Y-37110000D02*
X68280000Y-37005000D01*
X67285000Y-38700000D02*
X68175000Y-38700000D01*
X86046671Y-44866246D02*
X87153754Y-44866246D01*
X86380000Y-43600000D02*
X86046671Y-43933329D01*
D51*
X86046671Y-44866246D02*
X86046671Y-46323746D01*
D49*
X66720000Y-39265000D02*
X67285000Y-38700000D01*
X87081063Y-45627274D02*
X86748143Y-45627274D01*
D51*
X86046671Y-46323746D02*
X86049171Y-46326246D01*
D49*
X86046671Y-43933329D02*
X86046671Y-44866246D01*
X95750000Y-42175000D02*
X97194325Y-42175000D01*
D50*
X98020000Y-42770000D02*
X98025000Y-42775000D01*
D49*
X90758966Y-44381034D02*
X92570000Y-42570000D01*
X94800000Y-43500000D02*
X94800000Y-43125000D01*
X87640000Y-52190000D02*
X87790000Y-52340000D01*
X87640000Y-51871246D02*
X87640000Y-52190000D01*
X94800000Y-43125000D02*
X95750000Y-42175000D01*
X90000000Y-52340000D02*
X90000000Y-54190000D01*
D50*
X98020000Y-39954325D02*
X98020000Y-42770000D01*
D49*
X87790000Y-52340000D02*
X90000000Y-52340000D01*
X98020000Y-41349325D02*
X98020000Y-39954325D01*
X90000000Y-54190000D02*
X89780000Y-54410000D01*
X97194325Y-42175000D02*
X98020000Y-41349325D01*
X92570000Y-42570000D02*
X92570000Y-42550000D01*
X90758966Y-46231034D02*
X90758966Y-44381034D01*
X89951247Y-50741247D02*
X90000000Y-50790000D01*
X88241246Y-50741247D02*
X89951247Y-50741247D01*
D50*
X98150000Y-52249325D02*
X98140000Y-52239325D01*
D49*
X95100000Y-55567932D02*
X96492932Y-54175000D01*
X86140000Y-52810000D02*
X86140000Y-51871246D01*
X85910000Y-53874575D02*
X85910000Y-53040000D01*
D50*
X98150000Y-53650000D02*
X98150000Y-52249325D01*
D49*
X84606246Y-53876246D02*
X84520000Y-53790000D01*
X93100000Y-56000000D02*
X90700000Y-56000000D01*
D50*
X98150000Y-53650000D02*
X98150000Y-55200000D01*
D49*
X96492932Y-54175000D02*
X98150000Y-54175000D01*
X85911671Y-53876246D02*
X84606246Y-53876246D01*
X95100000Y-56075000D02*
X95100000Y-55567932D01*
X98140000Y-52785000D02*
X98140000Y-52239325D01*
X85910000Y-53040000D02*
X86140000Y-52810000D01*
X85911671Y-53876246D02*
X85910000Y-53874575D01*
D50*
X98150000Y-54175000D02*
X98150000Y-53650000D01*
D49*
X87460000Y-53874575D02*
X87460000Y-53150000D01*
X87460000Y-53150000D02*
X87140001Y-52830001D01*
X87461671Y-53876246D02*
X87460000Y-53874575D01*
X87140001Y-52830001D02*
X87140001Y-51871246D01*
X91150000Y-67400000D02*
X93975000Y-67400000D01*
D50*
X98030000Y-66150000D02*
X98030000Y-66475000D01*
X98030000Y-66150000D02*
X98030000Y-64804679D01*
D49*
X82000000Y-51450000D02*
X82000000Y-58250000D01*
D50*
X98030000Y-64804679D02*
X98022220Y-64796899D01*
D49*
X97655000Y-66850000D02*
X98030000Y-66475000D01*
X82281254Y-51168746D02*
X82000000Y-51450000D01*
X84538754Y-51241246D02*
X83056671Y-51241246D01*
X83056671Y-51241246D02*
X82984171Y-51168746D01*
X82000000Y-58250000D02*
X91150000Y-67400000D01*
D50*
X98030000Y-66475000D02*
X98030000Y-67775000D01*
D49*
X94525000Y-66850000D02*
X97655000Y-66850000D01*
X93975000Y-67400000D02*
X94525000Y-66850000D01*
X82984171Y-51168746D02*
X82281254Y-51168746D01*
X85447318Y-52718746D02*
X82984171Y-52718746D01*
X85639999Y-52526065D02*
X85447318Y-52718746D01*
X85639999Y-51871246D02*
X85639999Y-52526065D01*
X88742068Y-37750000D02*
X79540000Y-37750000D01*
X71840000Y-45450000D02*
X65400000Y-45450000D01*
X65400000Y-45450000D02*
X64450000Y-44500000D01*
X95750000Y-44575000D02*
X96425000Y-43900000D01*
X59747945Y-59555214D02*
X61473159Y-57830000D01*
X62457500Y-57830000D02*
X62420000Y-57830000D01*
X62410000Y-57840000D02*
X62420000Y-57830000D01*
D50*
X99230000Y-43900000D02*
X96900000Y-43900000D01*
D49*
X64450000Y-44500000D02*
X64450000Y-42680000D01*
X59747945Y-59574012D02*
X59747945Y-59555214D01*
X96900000Y-43900000D02*
X97472000Y-44472000D01*
X79540000Y-37750000D02*
X71840000Y-45450000D01*
X97472000Y-44472000D02*
X106258000Y-44472000D01*
X106258000Y-44472000D02*
X107420000Y-43310000D01*
X61473159Y-57830000D02*
X62457500Y-57830000D01*
X93900000Y-44575000D02*
X95750000Y-44575000D01*
X90916034Y-39923966D02*
X88742068Y-37750000D01*
X96425000Y-43900000D02*
X96900000Y-43900000D01*
X65150000Y-60995000D02*
X64787000Y-61358000D01*
X65150000Y-60995000D02*
X65150000Y-59022500D01*
X64029932Y-61358000D02*
X62985000Y-62402932D01*
X62985000Y-62402932D02*
X62985000Y-65385000D01*
D50*
X65152500Y-60997500D02*
X65150000Y-60995000D01*
D49*
X64787000Y-61358000D02*
X64029932Y-61358000D01*
X65150000Y-59022500D02*
X65145000Y-59017500D01*
D50*
X66095000Y-60997500D02*
X65152500Y-60997500D01*
D49*
X62712445Y-53285603D02*
X62188300Y-53285603D01*
X75391500Y-53925000D02*
X75240000Y-54076500D01*
D52*
X57905000Y-65385000D02*
X57990000Y-65385000D01*
D49*
X61613000Y-51188000D02*
X59462000Y-51188000D01*
X63145000Y-54142500D02*
X63145000Y-53718158D01*
D52*
X57990000Y-65385000D02*
X58370000Y-65005000D01*
D49*
X58370000Y-52280000D02*
X58370000Y-65005000D01*
X62188300Y-53285603D02*
X62188300Y-51763300D01*
X63145000Y-53718158D02*
X62712445Y-53285603D01*
X76500000Y-53925000D02*
X75391500Y-53925000D01*
X59462000Y-51188000D02*
X58370000Y-52280000D01*
X62188300Y-51763300D02*
X61613000Y-51188000D01*
X63541034Y-52658966D02*
X64145000Y-53262932D01*
X78970000Y-46170000D02*
X78980000Y-46180000D01*
X78970000Y-44180000D02*
X78970000Y-46170000D01*
X64145000Y-53262932D02*
X64145000Y-54142500D01*
X77980000Y-49330000D02*
X77980000Y-48780000D01*
X65493000Y-52350000D02*
X65145000Y-52698000D01*
X76950000Y-50360000D02*
X77980000Y-49330000D01*
X65145000Y-52698000D02*
X65145000Y-54142500D01*
D52*
X60445000Y-65385000D02*
X60445000Y-64905000D01*
D49*
X77600000Y-57300000D02*
X78050000Y-56850000D01*
X61379823Y-53765500D02*
X59784500Y-53765500D01*
X59784500Y-53765500D02*
X58748000Y-54802000D01*
X62100000Y-54830000D02*
X62457500Y-54830000D01*
X58748000Y-54802000D02*
X58748000Y-63208000D01*
X61683196Y-54068873D02*
X61379823Y-53765500D01*
X76475000Y-57300000D02*
X77600000Y-57300000D01*
X78050000Y-56850000D02*
X78050000Y-54975000D01*
X58748000Y-63208000D02*
X60445000Y-64905000D01*
X76278534Y-57496466D02*
X76475000Y-57300000D01*
X61683196Y-54413196D02*
X62100000Y-54830000D01*
X61683196Y-54068873D02*
X61683196Y-54413196D01*
X62825000Y-50950000D02*
X62825000Y-52875000D01*
X63645000Y-53685000D02*
X63645000Y-54142500D01*
X79070000Y-51160000D02*
X79050000Y-51180000D01*
X72075000Y-59925000D02*
X72925000Y-59075000D01*
X62825000Y-52875000D02*
X62858603Y-52908603D01*
X62868603Y-52908603D02*
X63645000Y-53685000D01*
X72075000Y-61475000D02*
X72075000Y-59925000D01*
X79050000Y-51180000D02*
X79050000Y-52375000D01*
X62858603Y-52908603D02*
X62868603Y-52908603D01*
X75450000Y-44941500D02*
X76815500Y-44941500D01*
X64645000Y-52445000D02*
X64645000Y-54142500D01*
X64350000Y-52150000D02*
X64645000Y-52445000D01*
X77480000Y-45606000D02*
X77480000Y-46180000D01*
X76815500Y-44941500D02*
X77480000Y-45606000D01*
X76840000Y-65890000D02*
X76840000Y-67850000D01*
X67455000Y-62022500D02*
X68842500Y-63410000D01*
X68842500Y-63410000D02*
X74380000Y-63410000D01*
X74380000Y-63410000D02*
X76850000Y-65880000D01*
X79380000Y-67850000D02*
X79380000Y-65780000D01*
X79380000Y-65780000D02*
X76575000Y-62975000D01*
X69015000Y-62975000D02*
X68395000Y-62355000D01*
X68395000Y-62355000D02*
X68395000Y-62027500D01*
X76575000Y-62975000D02*
X69015000Y-62975000D01*
X93570000Y-42680000D02*
X91412000Y-44838000D01*
X98650000Y-35019325D02*
X98740000Y-35109325D01*
X93570000Y-42220000D02*
X93570000Y-42680000D01*
X91412000Y-49910068D02*
X90750000Y-50572068D01*
X90750000Y-50572068D02*
X90750000Y-54800000D01*
X98650000Y-32900000D02*
X98650000Y-35019325D01*
X90750000Y-54800000D02*
X89813754Y-55736246D01*
X91412000Y-44838000D02*
X91412000Y-49910068D01*
X94010000Y-41780000D02*
X93570000Y-42220000D01*
X89813754Y-55736246D02*
X86404171Y-55736246D01*
X94310000Y-56065000D02*
X93178754Y-57196246D01*
X93178754Y-57196246D02*
X86414171Y-57196246D01*
X94310000Y-55348000D02*
X94310000Y-56065000D01*
X98860000Y-47424325D02*
X98870000Y-47434325D01*
X98860000Y-45400000D02*
X98860000Y-47424325D01*
X86396671Y-39066246D02*
X89136246Y-39066246D01*
X90999325Y-40929325D02*
X95850000Y-40929325D01*
X89136246Y-39066246D02*
X90999325Y-40929325D01*
X88125000Y-57650000D02*
X98090000Y-57650000D01*
X87108754Y-58666246D02*
X88125000Y-57650000D01*
X98090000Y-57650000D02*
X98749720Y-58309720D01*
X98749720Y-58309720D02*
X98749720Y-60011899D01*
X86404171Y-58666246D02*
X87108754Y-58666246D01*
X95275000Y-53225000D02*
X95285675Y-53214325D01*
X86396671Y-40546246D02*
X87596246Y-40546246D01*
X94100000Y-53225000D02*
X95275000Y-53225000D01*
X95285675Y-53214325D02*
X95970000Y-53214325D01*
X87596246Y-40546246D02*
X88860000Y-41810000D01*
X87650754Y-55009246D02*
X88660000Y-54000000D01*
X84754171Y-55195829D02*
X84940754Y-55009246D01*
X88241246Y-51241246D02*
X88667237Y-51241246D01*
X88660000Y-54000000D02*
X88660000Y-53230000D01*
X84754171Y-55736246D02*
X84754171Y-55195829D01*
X84940754Y-55009246D02*
X87650754Y-55009246D01*
X88667237Y-51241246D02*
X89114491Y-51688500D01*
X82262000Y-40308000D02*
X83503754Y-39066246D01*
X83801247Y-50741247D02*
X82262000Y-49202000D01*
X84538754Y-50741247D02*
X83801247Y-50741247D01*
X82262000Y-49202000D02*
X82262000Y-40308000D01*
X83503754Y-39066246D02*
X84746671Y-39066246D01*
X83663754Y-40546246D02*
X84746671Y-40546246D01*
X83850777Y-50241246D02*
X82650000Y-49040469D01*
X84538754Y-50241246D02*
X83850777Y-50241246D01*
X82650000Y-49040469D02*
X82650000Y-41560000D01*
X82650000Y-41560000D02*
X83663754Y-40546246D01*
X86720000Y-51951246D02*
X86640000Y-51871246D01*
X84196754Y-54603246D02*
X86546754Y-54603246D01*
X83727000Y-56577000D02*
X83727000Y-55073000D01*
X86546754Y-54603246D02*
X86720000Y-54430000D01*
X84764171Y-57196246D02*
X84346246Y-57196246D01*
X84346246Y-57196246D02*
X83727000Y-56577000D01*
X86720000Y-54430000D02*
X86720000Y-51951246D01*
X83727000Y-55073000D02*
X84196754Y-54603246D01*
X83532000Y-47228000D02*
X83200000Y-47560000D01*
X84746671Y-42016246D02*
X84746671Y-42796671D01*
X83200000Y-49057311D02*
X83883935Y-49741246D01*
X84746997Y-47228000D02*
X83532000Y-47228000D01*
X83200000Y-47560000D02*
X83200000Y-49057311D01*
X85240000Y-46734997D02*
X84746997Y-47228000D01*
X84746671Y-42796671D02*
X85240000Y-43290000D01*
X83883935Y-49741246D02*
X84538754Y-49741246D01*
X85240000Y-43290000D02*
X85240000Y-46734997D01*
X85140000Y-51871246D02*
X84428754Y-51871246D01*
X83350000Y-58250000D02*
X83766246Y-58666246D01*
X84428754Y-51871246D02*
X84240000Y-52060000D01*
X83766246Y-58666246D02*
X84754171Y-58666246D01*
X83350000Y-54000000D02*
X83350000Y-58250000D01*
X62457500Y-55330000D02*
X60840000Y-55330000D01*
X74470000Y-47230000D02*
X76430000Y-47230000D01*
X72690000Y-46550000D02*
X73790000Y-46550000D01*
X68815658Y-55307500D02*
X69555000Y-55307500D01*
X59670000Y-54580000D02*
X59670000Y-55330000D01*
X81470000Y-60750000D02*
X80470000Y-59750000D01*
X70107500Y-55307500D02*
X69555000Y-55307500D01*
X68293158Y-55830000D02*
X68815658Y-55307500D01*
X69550000Y-57115000D02*
X70815000Y-57115000D01*
X60840000Y-55330000D02*
X60585000Y-55075000D01*
X74200000Y-53425000D02*
X76500000Y-53425000D01*
X74865000Y-51960000D02*
X73800000Y-53025000D01*
X60585000Y-55075000D02*
X60585000Y-54467500D01*
X75550000Y-51960000D02*
X74865000Y-51960000D01*
X70920000Y-56120000D02*
X70107500Y-55307500D01*
X73790000Y-46550000D02*
X73810000Y-46570000D01*
X70815000Y-57115000D02*
X70820000Y-57120000D01*
X59782500Y-54467500D02*
X59670000Y-54580000D01*
X73800000Y-53025000D02*
X74200000Y-53425000D01*
X67332500Y-55830000D02*
X68293158Y-55830000D01*
X64270000Y-62590000D02*
X64845000Y-62015000D01*
X69265000Y-56830000D02*
X69550000Y-57115000D01*
X81710000Y-59220000D02*
X81180000Y-59750000D01*
X81700000Y-60750000D02*
X81470000Y-60750000D01*
X67332500Y-56830000D02*
X69265000Y-56830000D01*
X73810000Y-46570000D02*
X74470000Y-47230000D01*
X60585000Y-54467500D02*
X59782500Y-54467500D01*
X64845000Y-62015000D02*
X65150000Y-62015000D01*
X81180000Y-59750000D02*
X80470000Y-59750000D01*
X94290000Y-65875000D02*
X95050000Y-65875000D01*
X95150000Y-65775000D02*
X95300000Y-65775000D01*
X95300000Y-65775000D02*
X95303101Y-65771899D01*
X87466246Y-42016246D02*
X87970000Y-42520000D01*
X95303101Y-65771899D02*
X95852220Y-65771899D01*
X86396671Y-42016246D02*
X87466246Y-42016246D01*
X95050000Y-65875000D02*
X95150000Y-65775000D01*
X61172500Y-55942500D02*
X60605000Y-55942500D01*
X61560000Y-56330000D02*
X61172500Y-55942500D01*
X62457500Y-56330000D02*
X61560000Y-56330000D01*
X67327000Y-60557000D02*
X66769072Y-60557000D01*
X67455000Y-60685000D02*
X67327000Y-60557000D01*
X67455000Y-61002500D02*
X67455000Y-60685000D01*
X65645000Y-59432928D02*
X65645000Y-59017500D01*
X66769072Y-60557000D02*
X65645000Y-59432928D01*
X66145000Y-59399770D02*
X66925230Y-60180000D01*
X66145000Y-59017500D02*
X66145000Y-59399770D01*
X68395000Y-60665000D02*
X68395000Y-61007500D01*
X66925230Y-60180000D02*
X67910000Y-60180000D01*
X67910000Y-60180000D02*
X68395000Y-60665000D01*
D50*
X99325000Y-56325000D02*
X97175000Y-56325000D01*
D49*
X106178000Y-56932000D02*
X107400000Y-55710000D01*
X94710000Y-56998000D02*
X96452000Y-56998000D01*
X61910000Y-58330000D02*
X62457500Y-58330000D01*
X97150000Y-56300000D02*
X97782000Y-56932000D01*
X60250000Y-60450000D02*
X60250000Y-59990000D01*
D50*
X97175000Y-56325000D02*
X97150000Y-56300000D01*
D49*
X60250000Y-59990000D02*
X61910000Y-58330000D01*
X96452000Y-56998000D02*
X97150000Y-56300000D01*
X97782000Y-56932000D02*
X106178000Y-56932000D01*
X59360000Y-50010000D02*
X61205000Y-50010000D01*
X61205000Y-50010000D02*
X61280000Y-50085000D01*
X66145000Y-54142500D02*
X66145000Y-51395000D01*
X61280000Y-50085000D02*
X64835000Y-50085000D01*
X64835000Y-50085000D02*
X66145000Y-51395000D01*
X62132500Y-59017500D02*
X61198000Y-59952000D01*
X68725000Y-66700000D02*
X71472000Y-69447000D01*
X61775000Y-62225000D02*
X61775000Y-66075000D01*
X63145000Y-59017500D02*
X62132500Y-59017500D01*
X96178000Y-69447000D02*
X96400000Y-69225000D01*
X96400000Y-68900000D02*
X96428028Y-68900000D01*
X96972000Y-69472000D02*
X106738000Y-69472000D01*
X106738000Y-69472000D02*
X107420000Y-68790000D01*
X61198000Y-59952000D02*
X61198000Y-61648000D01*
X71472000Y-69447000D02*
X96178000Y-69447000D01*
X96400000Y-69225000D02*
X96400000Y-68900000D01*
X61198000Y-61648000D02*
X61775000Y-62225000D01*
X61775000Y-66075000D02*
X62400000Y-66700000D01*
X96400000Y-68900000D02*
X96972000Y-69472000D01*
D50*
X99225000Y-68900000D02*
X96400000Y-68900000D01*
D49*
X62400000Y-66700000D02*
X68725000Y-66700000D01*
X75540000Y-50140000D02*
X74600000Y-51080000D01*
X78480000Y-50100000D02*
X77500000Y-51080000D01*
X66650000Y-54137500D02*
X66645000Y-54142500D01*
X78701500Y-56480000D02*
X78550000Y-56328500D01*
X78550000Y-51675000D02*
X77955000Y-51080000D01*
X78480000Y-48780000D02*
X78480000Y-50100000D01*
X78701500Y-57578500D02*
X78701500Y-56480000D01*
X71310000Y-51080000D02*
X70760000Y-51630000D01*
X76182000Y-58322000D02*
X77958000Y-58322000D01*
X76980000Y-46180000D02*
X75850000Y-46180000D01*
X74680000Y-56820000D02*
X73470000Y-56820000D01*
X78480000Y-44720000D02*
X78480000Y-46180000D01*
X75790000Y-56820000D02*
X74680000Y-56820000D01*
X74600000Y-51080000D02*
X71310000Y-51080000D01*
X75540000Y-48910000D02*
X75540000Y-50140000D01*
X78550000Y-56328500D02*
X78550000Y-54975000D01*
X77050000Y-55560000D02*
X75790000Y-56820000D01*
X77500000Y-51080000D02*
X77020000Y-51080000D01*
X66650000Y-52950000D02*
X66650000Y-54137500D01*
X66900000Y-52700000D02*
X66650000Y-52950000D01*
X77791500Y-44031500D02*
X78480000Y-44720000D01*
X77050000Y-54975000D02*
X77050000Y-55560000D01*
X77958000Y-58322000D02*
X78701500Y-57578500D01*
X75850000Y-46180000D02*
X75700000Y-46330000D01*
X77020000Y-51080000D02*
X74600000Y-51080000D01*
X76900000Y-44031500D02*
X77791500Y-44031500D01*
X74680000Y-56820000D02*
X76182000Y-58322000D01*
X73470000Y-56820000D02*
X70760000Y-54110000D01*
X70760000Y-54110000D02*
X70760000Y-51630000D01*
X77955000Y-51080000D02*
X77020000Y-51080000D01*
X78550000Y-52375000D02*
X78550000Y-51675000D01*
X90760000Y-49640000D02*
X91029034Y-49370966D01*
X81170000Y-50340000D02*
X79880000Y-50340000D01*
X88392000Y-43952000D02*
X88392000Y-44819102D01*
X87388000Y-42948000D02*
X88392000Y-43952000D01*
X86699932Y-42948000D02*
X87388000Y-42948000D01*
X79696158Y-38127000D02*
X85187000Y-38127000D01*
X78980000Y-49440000D02*
X78980000Y-48780000D01*
X85187000Y-38127000D02*
X85600000Y-38540000D01*
X90658754Y-49741246D02*
X88241246Y-49741246D01*
X89454966Y-45882068D02*
X89454966Y-46410000D01*
X91029034Y-47830068D02*
X90758966Y-47560000D01*
X86687932Y-42960000D02*
X86699932Y-42948000D01*
X90760000Y-49640000D02*
X90658754Y-49741246D01*
X78118314Y-39704844D02*
X79696158Y-38127000D01*
X91029034Y-49370966D02*
X91029034Y-47830068D01*
X86000000Y-42960000D02*
X86687932Y-42960000D01*
X88392000Y-44819102D02*
X89454966Y-45882068D01*
X79880000Y-50340000D02*
X78980000Y-49440000D01*
X85600000Y-38540000D02*
X85600000Y-42560000D01*
X85600000Y-42560000D02*
X86000000Y-42960000D01*
X78118314Y-41379590D02*
X78118314Y-39704844D01*
X90310000Y-48600000D02*
X89668755Y-49241245D01*
X80609500Y-47230000D02*
X79530000Y-47230000D01*
X81610000Y-48230500D02*
X80609500Y-47230000D01*
X79965789Y-41251883D02*
X80620000Y-41906094D01*
X80620000Y-41906094D02*
X80620000Y-47240500D01*
X89668755Y-49241245D02*
X88241246Y-49241245D01*
X88318000Y-36348000D02*
X86518000Y-36348000D01*
X90106966Y-47493034D02*
X90106966Y-41026966D01*
X90106966Y-41026966D02*
X90030000Y-40950000D01*
X77398000Y-56452221D02*
X77550000Y-56300221D01*
X89395000Y-48205000D02*
X88860000Y-48740000D01*
X88860000Y-48740000D02*
X88242492Y-48740000D01*
X85770000Y-35600000D02*
X85770000Y-34180000D01*
X89700000Y-37730000D02*
X88318000Y-36348000D01*
X86518000Y-36348000D02*
X85770000Y-35600000D01*
X88242492Y-48740000D02*
X88241246Y-48741246D01*
X89395000Y-48205000D02*
X90106966Y-47493034D01*
X77550000Y-56300221D02*
X77550000Y-54975000D01*
X87640001Y-47689999D02*
X87640001Y-48111246D01*
X88738095Y-46958547D02*
X88356163Y-47340479D01*
X88738095Y-46128095D02*
X88738095Y-46958547D01*
X87989521Y-47340479D02*
X87640001Y-47689999D01*
X77980000Y-46180000D02*
X77980000Y-45184639D01*
X77980000Y-45184639D02*
X77634138Y-44838777D01*
X79038994Y-41271503D02*
X79930000Y-42162509D01*
X79930000Y-42162509D02*
X79930000Y-44838777D01*
X88356163Y-47340479D02*
X87989521Y-47340479D01*
X88260000Y-45650000D02*
X88738095Y-46128095D01*
X79600000Y-53425000D02*
X80375000Y-53425000D01*
X89512000Y-41539932D02*
X88940000Y-40967932D01*
X86890000Y-37098000D02*
X84558000Y-37098000D01*
X80375000Y-53425000D02*
X80740000Y-53060000D01*
X88086095Y-46688479D02*
X87140002Y-47634572D01*
X84558000Y-37098000D02*
X83230000Y-35770000D01*
X89512000Y-44902966D02*
X89512000Y-41539932D01*
X89454966Y-44960000D02*
X89512000Y-44902966D01*
X88940000Y-40967932D02*
X88940000Y-40360000D01*
X87140002Y-47634572D02*
X87140002Y-48111246D01*
X83230000Y-35770000D02*
X83230000Y-34180000D01*
X87170000Y-46550000D02*
X86640001Y-47079999D01*
X86640001Y-47079999D02*
X86640001Y-48111246D01*
X81530000Y-41820000D02*
X81530000Y-45680000D01*
X80890000Y-41180000D02*
X81530000Y-41820000D01*
X79050000Y-54975000D02*
X79050000Y-55510000D01*
X79050000Y-55510000D02*
X79620000Y-56080000D01*
X60761326Y-58008674D02*
X61440000Y-57330000D01*
X57620000Y-57070000D02*
X57550000Y-57000000D01*
X57620000Y-61781500D02*
X57620000Y-57070000D01*
X59891326Y-58008674D02*
X60761326Y-58008674D01*
X61440000Y-57330000D02*
X62457500Y-57330000D01*
X57688500Y-61850000D02*
X57620000Y-61781500D01*
X61850000Y-60590000D02*
X62510000Y-60590000D01*
X91550000Y-38000000D02*
X92450000Y-38000000D01*
X92450000Y-38000000D02*
X92960000Y-38510000D01*
X62510000Y-60590000D02*
X63645000Y-59455000D01*
X90715000Y-37165000D02*
X91550000Y-38000000D01*
X92960000Y-38510000D02*
X92960000Y-39640000D01*
X63645000Y-59455000D02*
X63645000Y-59017500D01*
X92550000Y-50400000D02*
X93070000Y-50920000D01*
X91850000Y-50400000D02*
X92550000Y-50400000D01*
X64145000Y-59921540D02*
X64145000Y-59017500D01*
X91200000Y-54675000D02*
X91200000Y-51050000D01*
X91200000Y-51050000D02*
X91850000Y-50400000D01*
X63391500Y-60650000D02*
X63416540Y-60650000D01*
X93070000Y-50920000D02*
X93070000Y-51934325D01*
X63416540Y-60650000D02*
X64145000Y-59921540D01*
X91650000Y-55125000D02*
X91200000Y-54675000D01*
X93075000Y-51939325D02*
X93070000Y-51934325D01*
X90300000Y-64000000D02*
X90300000Y-63400000D01*
X64337272Y-60651336D02*
X64645000Y-60343608D01*
X90700000Y-63000000D02*
X92550000Y-63000000D01*
X64645000Y-60343608D02*
X64645000Y-59017500D01*
X90300000Y-63400000D02*
X90700000Y-63000000D01*
X70287500Y-64512500D02*
X73000000Y-67225000D01*
X73000000Y-68500000D02*
X73570000Y-69070000D01*
X88550000Y-69070000D02*
X90200000Y-67420000D01*
X92960000Y-63410000D02*
X92960000Y-64480000D01*
X73570000Y-69070000D02*
X88550000Y-69070000D01*
X73000000Y-67225000D02*
X73000000Y-68500000D01*
X92550000Y-63000000D02*
X92960000Y-63410000D01*
X61280000Y-41000000D02*
X61280000Y-42220000D01*
X63390000Y-49390000D02*
X63390000Y-41710000D01*
X62680000Y-41000000D02*
X62300000Y-41000000D01*
X67890000Y-58330000D02*
X67332500Y-58330000D01*
X68210000Y-58650000D02*
X67890000Y-58330000D01*
X68210000Y-59070000D02*
X68210000Y-58650000D01*
X63390000Y-41710000D02*
X62680000Y-41000000D01*
X77473000Y-60723000D02*
X79693000Y-60723000D01*
X73530000Y-57830000D02*
X67332500Y-57830000D01*
X75450000Y-59750000D02*
X76500000Y-59750000D01*
X73530000Y-57830000D02*
X75450000Y-59750000D01*
X76500000Y-59750000D02*
X77473000Y-60723000D01*
X79693000Y-60723000D02*
X80420000Y-61450000D01*
X66645000Y-59017500D02*
X66645000Y-59366612D01*
X66645000Y-59366612D02*
X67081388Y-59803000D01*
X69242999Y-59803000D02*
X72014999Y-62575000D01*
X72014999Y-62575000D02*
X81285000Y-62575000D01*
X67081388Y-59803000D02*
X69242999Y-59803000D01*
X84460000Y-65750000D02*
X84460000Y-67850000D01*
X81285000Y-62575000D02*
X84460000Y-65750000D01*
D50*
X100250000Y-42775000D02*
X100250000Y-43900000D01*
X99045000Y-42775000D02*
X100250000Y-42775000D01*
X99170000Y-55200000D02*
X100350000Y-55200000D01*
X100345000Y-56325000D02*
X100345000Y-55205000D01*
X100345000Y-55205000D02*
X100350000Y-55200000D01*
X100250000Y-67775000D02*
X100250000Y-68895000D01*
X99050000Y-67775000D02*
X100250000Y-67775000D01*
X100250000Y-68895000D02*
X100245000Y-68900000D01*
D49*
X78075000Y-59750000D02*
X79450000Y-59750000D01*
X79400000Y-61450000D02*
X78075000Y-61450000D01*
X61280000Y-46140000D02*
X61270000Y-46130000D01*
X61280000Y-46120000D02*
X61270000Y-46130000D01*
X61280000Y-47960000D02*
X61280000Y-46140000D01*
X61280000Y-44345000D02*
X61280000Y-46120000D01*
G04 #@! TA.AperFunction,Conductor*
G36*
X96492405Y-50170034D02*
G01*
X96538479Y-50222560D01*
X96550000Y-50274755D01*
X96550000Y-52616000D01*
X96530315Y-52683039D01*
X96477511Y-52728794D01*
X96426000Y-52740000D01*
X95631362Y-52740000D01*
X95564323Y-52720315D01*
X95543681Y-52703681D01*
X95510000Y-52670000D01*
X94300000Y-52670000D01*
X94230072Y-52670313D01*
X94116828Y-52670821D01*
X94100093Y-52669762D01*
X94100000Y-52669750D01*
X94099998Y-52669750D01*
X94099996Y-52669750D01*
X94098757Y-52669913D01*
X94083137Y-52670972D01*
X92070223Y-52679999D01*
X92069667Y-52680000D01*
X91734000Y-52680000D01*
X91666961Y-52660315D01*
X91621206Y-52607511D01*
X91610000Y-52556000D01*
X91610000Y-50303249D01*
X91629685Y-50236210D01*
X91682489Y-50190455D01*
X91733244Y-50179251D01*
X96425249Y-50150757D01*
X96492405Y-50170034D01*
G37*
G04 #@! TD.AperFunction*
G04 #@! TA.AperFunction,Conductor*
G36*
X51367560Y-43419948D02*
G01*
X51413557Y-43472542D01*
X51425000Y-43524570D01*
X51425000Y-47726572D01*
X51405315Y-47793611D01*
X51352511Y-47839366D01*
X51301574Y-47850571D01*
X46148872Y-47874426D01*
X46081742Y-47855052D01*
X46035743Y-47802460D01*
X46024300Y-47751128D01*
X46024161Y-47726572D01*
X46002216Y-43842296D01*
X46002215Y-43841789D01*
X46002408Y-43548224D01*
X46022137Y-43481198D01*
X46074971Y-43435478D01*
X46125838Y-43424307D01*
X51300432Y-43400571D01*
X51367560Y-43419948D01*
G37*
G04 #@! TD.AperFunction*
G04 #@! TA.AperFunction,Conductor*
G36*
X94512220Y-36710000D02*
G01*
X91492114Y-36710000D01*
X91447533Y-36632784D01*
X91412220Y-36593565D01*
X91412220Y-33250000D01*
X94512220Y-33250000D01*
X94512220Y-36710000D01*
G37*
G04 #@! TD.AperFunction*
G04 #@! TA.AperFunction,Conductor*
G36*
X97822751Y-32021514D02*
G01*
X97868514Y-32074311D01*
X97879728Y-32126070D01*
X97870232Y-37254507D01*
X97850423Y-37321510D01*
X97797535Y-37367167D01*
X97744518Y-37378265D01*
X95700011Y-37350000D01*
X95700000Y-37350000D01*
X95393310Y-37350000D01*
X95326271Y-37330315D01*
X95280516Y-37277511D01*
X95269312Y-37226691D01*
X95240874Y-32126909D01*
X95260184Y-32059761D01*
X95312732Y-32013713D01*
X95364852Y-32002218D01*
X96625036Y-32002018D01*
X97755709Y-32001840D01*
X97822751Y-32021514D01*
G37*
G04 #@! TD.AperFunction*
G04 #@! TA.AperFunction,Conductor*
G36*
X51392560Y-34044948D02*
G01*
X51438557Y-34097542D01*
X51450000Y-34149570D01*
X51450000Y-38851569D01*
X51430315Y-38918608D01*
X51377511Y-38964363D01*
X51326571Y-38975568D01*
X46149571Y-38999425D01*
X46082442Y-38980049D01*
X46036444Y-38927457D01*
X46025000Y-38875426D01*
X46025000Y-34173317D01*
X46044685Y-34106278D01*
X46097489Y-34060523D01*
X46148427Y-34049318D01*
X51325432Y-34025571D01*
X51392560Y-34044948D01*
G37*
G04 #@! TD.AperFunction*
G04 #@! TA.AperFunction,Conductor*
G36*
X70466789Y-32009660D02*
G01*
X70533774Y-32029530D01*
X70579383Y-32082460D01*
X70590446Y-32133210D01*
X70601048Y-35055771D01*
X70581607Y-35122882D01*
X70573324Y-35133237D01*
X70573864Y-35133667D01*
X70569518Y-35139116D01*
X70479547Y-35282302D01*
X70479545Y-35282305D01*
X70423685Y-35441943D01*
X70404751Y-35609997D01*
X70404751Y-35610004D01*
X70406448Y-35625067D01*
X70394393Y-35693888D01*
X70370909Y-35726630D01*
X69954360Y-36143181D01*
X69893037Y-36176666D01*
X69866679Y-36179500D01*
X69567272Y-36179500D01*
X69454764Y-36194313D01*
X69454763Y-36194313D01*
X69314770Y-36252300D01*
X69194549Y-36344549D01*
X69102300Y-36464770D01*
X69044313Y-36604763D01*
X69044313Y-36604764D01*
X69029500Y-36717272D01*
X69029500Y-37292727D01*
X69036737Y-37347690D01*
X69044313Y-37405236D01*
X69102302Y-37545233D01*
X69194549Y-37665451D01*
X69314767Y-37757698D01*
X69454764Y-37815687D01*
X69567280Y-37830500D01*
X69567287Y-37830500D01*
X70092713Y-37830500D01*
X70092720Y-37830500D01*
X70205236Y-37815687D01*
X70345233Y-37757698D01*
X70411534Y-37706822D01*
X70476703Y-37681628D01*
X70545148Y-37695666D01*
X70595138Y-37744480D01*
X70611020Y-37804748D01*
X70612622Y-38246501D01*
X70593181Y-38313612D01*
X70540543Y-38359558D01*
X70502508Y-38370171D01*
X70426943Y-38378686D01*
X70267305Y-38434545D01*
X70267302Y-38434547D01*
X70124115Y-38524518D01*
X70124109Y-38524523D01*
X70004523Y-38644109D01*
X70004518Y-38644115D01*
X69914543Y-38787309D01*
X69912534Y-38791481D01*
X69865710Y-38843339D01*
X69798283Y-38861650D01*
X69782939Y-38860381D01*
X69776393Y-38859427D01*
X69708260Y-38849500D01*
X69708255Y-38849500D01*
X69474500Y-38849500D01*
X69407461Y-38829815D01*
X69361706Y-38777011D01*
X69350500Y-38725500D01*
X69350500Y-38366739D01*
X69340573Y-38298608D01*
X69315100Y-38246501D01*
X69289198Y-38193517D01*
X69289196Y-38193515D01*
X69289196Y-38193514D01*
X69206485Y-38110803D01*
X69101391Y-38059426D01*
X69033261Y-38049500D01*
X69033260Y-38049500D01*
X68616740Y-38049500D01*
X68616739Y-38049500D01*
X68548608Y-38059426D01*
X68443514Y-38110803D01*
X68360803Y-38193514D01*
X68309426Y-38298608D01*
X68299500Y-38366739D01*
X68299500Y-38725500D01*
X68279815Y-38792539D01*
X68227011Y-38838294D01*
X68175500Y-38849500D01*
X67941739Y-38849500D01*
X67873608Y-38859426D01*
X67768514Y-38910803D01*
X67685803Y-38993514D01*
X67634426Y-39098608D01*
X67624500Y-39166739D01*
X67624500Y-39870500D01*
X67604815Y-39937539D01*
X67552011Y-39983294D01*
X67500500Y-39994500D01*
X66003199Y-39994500D01*
X65936160Y-39974815D01*
X65890405Y-39922011D01*
X65880461Y-39852853D01*
X65895814Y-39808497D01*
X65897697Y-39805234D01*
X65897696Y-39805234D01*
X65897698Y-39805233D01*
X65955687Y-39665236D01*
X65970500Y-39552720D01*
X65970500Y-38977280D01*
X65955687Y-38864764D01*
X65897698Y-38724767D01*
X65805451Y-38604549D01*
X65685233Y-38512302D01*
X65685229Y-38512300D01*
X65621801Y-38486027D01*
X65545236Y-38454313D01*
X65531171Y-38452461D01*
X65432727Y-38439500D01*
X65432720Y-38439500D01*
X64907280Y-38439500D01*
X64907272Y-38439500D01*
X64794764Y-38454313D01*
X64794763Y-38454313D01*
X64654770Y-38512300D01*
X64654767Y-38512301D01*
X64654767Y-38512302D01*
X64534549Y-38604549D01*
X64442300Y-38724770D01*
X64384313Y-38864763D01*
X64384313Y-38864764D01*
X64369500Y-38977272D01*
X64369500Y-39341678D01*
X64349815Y-39408717D01*
X64333181Y-39429359D01*
X63666439Y-40096100D01*
X63619714Y-40125460D01*
X63522308Y-40159544D01*
X63522300Y-40159548D01*
X63379115Y-40249518D01*
X63374818Y-40252946D01*
X63310132Y-40279355D01*
X63297504Y-40280000D01*
X57070000Y-40280000D01*
X56996890Y-50535002D01*
X56995878Y-50676884D01*
X56975716Y-50743781D01*
X56922587Y-50789159D01*
X56871881Y-50800000D01*
X55400000Y-50800000D01*
X55412602Y-55538584D01*
X55424668Y-60075528D01*
X55405161Y-60142620D01*
X55352479Y-60188515D01*
X55300527Y-60199858D01*
X46620918Y-60190001D01*
X46619026Y-60189984D01*
X46132120Y-60182001D01*
X46065412Y-60161220D01*
X46020529Y-60107673D01*
X46010153Y-60057864D01*
X46022126Y-50535002D01*
X46563751Y-50535002D01*
X46582685Y-50703056D01*
X46638545Y-50862694D01*
X46638547Y-50862697D01*
X46728518Y-51005884D01*
X46728523Y-51005890D01*
X46827452Y-51104819D01*
X46860937Y-51166142D01*
X46855953Y-51235834D01*
X46827452Y-51280181D01*
X46743523Y-51364109D01*
X46743518Y-51364115D01*
X46653547Y-51507302D01*
X46653545Y-51507305D01*
X46597685Y-51666943D01*
X46578751Y-51834997D01*
X46578751Y-51835002D01*
X46597685Y-52003056D01*
X46653545Y-52162694D01*
X46653547Y-52162697D01*
X46743518Y-52305884D01*
X46743523Y-52305890D01*
X46863109Y-52425476D01*
X46863115Y-52425481D01*
X47006302Y-52515452D01*
X47006305Y-52515454D01*
X47006309Y-52515455D01*
X47006310Y-52515456D01*
X47021297Y-52520700D01*
X47165943Y-52571314D01*
X47333997Y-52590249D01*
X47334000Y-52590249D01*
X47334003Y-52590249D01*
X47502056Y-52571314D01*
X47505811Y-52570000D01*
X47661690Y-52515456D01*
X47661692Y-52515454D01*
X47661694Y-52515454D01*
X47661697Y-52515452D01*
X47804884Y-52425481D01*
X47804885Y-52425480D01*
X47804890Y-52425477D01*
X47878548Y-52351819D01*
X47939871Y-52318334D01*
X47966229Y-52315500D01*
X48085087Y-52315500D01*
X48152126Y-52335185D01*
X48183479Y-52370430D01*
X48186432Y-52368322D01*
X48192402Y-52376684D01*
X48275114Y-52459396D01*
X48275115Y-52459396D01*
X48275117Y-52459398D01*
X48380207Y-52510773D01*
X48412321Y-52515452D01*
X48448339Y-52520700D01*
X49221200Y-52520700D01*
X49288239Y-52540385D01*
X49333994Y-52593189D01*
X49345200Y-52644700D01*
X49345200Y-52741700D01*
X51732800Y-52741700D01*
X51732800Y-50938300D01*
X49345200Y-50938300D01*
X49345200Y-51035300D01*
X49325515Y-51102339D01*
X49272711Y-51148094D01*
X49221200Y-51159300D01*
X48667120Y-51159300D01*
X48600081Y-51139615D01*
X48579439Y-51122981D01*
X48108090Y-50651631D01*
X48074605Y-50590308D01*
X48072551Y-50550067D01*
X48074249Y-50535000D01*
X48060927Y-50416762D01*
X48055314Y-50366943D01*
X47999454Y-50207305D01*
X47999452Y-50207302D01*
X47909481Y-50064115D01*
X47909476Y-50064109D01*
X47789890Y-49944523D01*
X47789884Y-49944518D01*
X47646697Y-49854547D01*
X47646694Y-49854545D01*
X47487056Y-49798685D01*
X47319003Y-49779751D01*
X47318997Y-49779751D01*
X47150943Y-49798685D01*
X46991305Y-49854545D01*
X46991302Y-49854547D01*
X46848115Y-49944518D01*
X46848109Y-49944523D01*
X46728523Y-50064109D01*
X46728518Y-50064115D01*
X46638547Y-50207302D01*
X46638545Y-50207305D01*
X46582685Y-50366943D01*
X46563751Y-50534997D01*
X46563751Y-50535002D01*
X46022126Y-50535002D01*
X46024680Y-48503773D01*
X46044449Y-48436762D01*
X46097310Y-48391074D01*
X46148106Y-48379934D01*
X46151202Y-48379919D01*
X46151212Y-48379921D01*
X51303914Y-48356066D01*
X51410176Y-48344267D01*
X51461113Y-48333062D01*
X51562504Y-48299185D01*
X51683543Y-48221397D01*
X51736347Y-48175642D01*
X51830567Y-48066908D01*
X51890338Y-47936031D01*
X51910023Y-47868992D01*
X51910024Y-47868988D01*
X51930500Y-47726572D01*
X51930500Y-43524570D01*
X51921710Y-43443687D01*
X51918702Y-43416001D01*
X51918699Y-43415981D01*
X51907256Y-43363954D01*
X51907256Y-43363953D01*
X51872410Y-43260449D01*
X51872408Y-43260443D01*
X51794066Y-43139761D01*
X51794065Y-43139760D01*
X51794064Y-43139758D01*
X51748066Y-43087164D01*
X51638905Y-42993449D01*
X51638906Y-42993449D01*
X51638903Y-42993447D01*
X51638684Y-42993348D01*
X51507752Y-42934276D01*
X51443053Y-42915601D01*
X51441320Y-42915062D01*
X51440623Y-42914899D01*
X51440622Y-42914899D01*
X51440620Y-42914898D01*
X51440617Y-42914898D01*
X51298126Y-42895077D01*
X51298114Y-42895076D01*
X51298113Y-42895076D01*
X51242598Y-42895330D01*
X46128005Y-42918791D01*
X46060876Y-42899414D01*
X46014879Y-42846820D01*
X46003447Y-42793128D01*
X46003845Y-42763441D01*
X46045943Y-39627170D01*
X46066526Y-39560404D01*
X46119939Y-39515362D01*
X46169358Y-39504839D01*
X51328900Y-39481063D01*
X51435167Y-39469265D01*
X51486107Y-39458060D01*
X51587504Y-39424182D01*
X51708543Y-39346394D01*
X51727045Y-39330361D01*
X51790599Y-39301336D01*
X51807700Y-39300074D01*
X51825000Y-39300000D01*
X51824569Y-39276193D01*
X51843035Y-39208813D01*
X51854837Y-39192746D01*
X51855567Y-39191905D01*
X51915338Y-39061028D01*
X51935023Y-38993989D01*
X51935024Y-38993985D01*
X51955500Y-38851569D01*
X51955500Y-34149570D01*
X51943700Y-34040986D01*
X51932257Y-33988958D01*
X51932256Y-33988954D01*
X51932256Y-33988953D01*
X51897410Y-33885449D01*
X51897408Y-33885443D01*
X51819066Y-33764761D01*
X51819065Y-33764760D01*
X51819064Y-33764758D01*
X51773066Y-33712164D01*
X51663905Y-33618449D01*
X51663906Y-33618449D01*
X51663903Y-33618447D01*
X51624576Y-33600704D01*
X51532752Y-33559276D01*
X51468053Y-33540601D01*
X51466320Y-33540062D01*
X51465623Y-33539899D01*
X51465622Y-33539899D01*
X51465620Y-33539898D01*
X51465617Y-33539898D01*
X51323126Y-33520077D01*
X51323114Y-33520076D01*
X51323113Y-33520076D01*
X51299582Y-33520183D01*
X46146107Y-33543822D01*
X46142826Y-33544012D01*
X46142755Y-33542780D01*
X46078861Y-33531448D01*
X46027583Y-33483989D01*
X46010086Y-33416911D01*
X46046324Y-32130477D01*
X46067888Y-32064023D01*
X46121959Y-32019773D01*
X46170253Y-32009973D01*
X69260815Y-32006334D01*
X70466789Y-32009660D01*
G37*
G04 #@! TD.AperFunction*
G04 #@! TA.AperFunction,Conductor*
G36*
X60602308Y-40712743D02*
G01*
X60648180Y-40765446D01*
X60659500Y-40817207D01*
X60659500Y-41231439D01*
X60659501Y-41231448D01*
X60665715Y-41289261D01*
X60686048Y-41343774D01*
X60691032Y-41413466D01*
X60657548Y-41474789D01*
X60617329Y-41501665D01*
X60611675Y-41504007D01*
X60611668Y-41504011D01*
X60492757Y-41595254D01*
X60401510Y-41714170D01*
X60344152Y-41852645D01*
X60344152Y-41852646D01*
X60329501Y-41963927D01*
X60329500Y-41963945D01*
X60329500Y-42476062D01*
X60344150Y-42587346D01*
X60344152Y-42587354D01*
X60391624Y-42701963D01*
X60401511Y-42725831D01*
X60492756Y-42844744D01*
X60611669Y-42935989D01*
X60750146Y-42993348D01*
X60861439Y-43008000D01*
X61698560Y-43007999D01*
X61698562Y-43007999D01*
X61809846Y-42993349D01*
X61809845Y-42993349D01*
X61809854Y-42993348D01*
X61948331Y-42935989D01*
X62067244Y-42844744D01*
X62158489Y-42725831D01*
X62215848Y-42587354D01*
X62230500Y-42476061D01*
X62230499Y-41963940D01*
X62230497Y-41963927D01*
X62215849Y-41852653D01*
X62215848Y-41852652D01*
X62215848Y-41852646D01*
X62211417Y-41841950D01*
X62203949Y-41772483D01*
X62235224Y-41710003D01*
X62295313Y-41674351D01*
X62325979Y-41670499D01*
X62481439Y-41670499D01*
X62481442Y-41670499D01*
X62539262Y-41664284D01*
X62561148Y-41656120D01*
X62630834Y-41651134D01*
X62692158Y-41684616D01*
X62878181Y-41870639D01*
X62911666Y-41931962D01*
X62914500Y-41958320D01*
X62914500Y-48752771D01*
X62894815Y-48819810D01*
X62878181Y-48840452D01*
X62799523Y-48919109D01*
X62799518Y-48919115D01*
X62709547Y-49062302D01*
X62709545Y-49062305D01*
X62653685Y-49221943D01*
X62634751Y-49389997D01*
X62634751Y-49390002D01*
X62643947Y-49471616D01*
X62631893Y-49540438D01*
X62584544Y-49591817D01*
X62520727Y-49609500D01*
X62242913Y-49609500D01*
X62175874Y-49589815D01*
X62144537Y-49560987D01*
X62067244Y-49460256D01*
X61948331Y-49369011D01*
X61809854Y-49311652D01*
X61698561Y-49297000D01*
X60861437Y-49297000D01*
X60750153Y-49311650D01*
X60750145Y-49311652D01*
X60611667Y-49369011D01*
X60508777Y-49447962D01*
X60443608Y-49473156D01*
X60375163Y-49459117D01*
X60334916Y-49425074D01*
X60263282Y-49331718D01*
X60137841Y-49235464D01*
X60105198Y-49221943D01*
X59991762Y-49174956D01*
X59991760Y-49174955D01*
X59874370Y-49159501D01*
X59874367Y-49159500D01*
X59874361Y-49159500D01*
X59874354Y-49159500D01*
X58845636Y-49159500D01*
X58728246Y-49174953D01*
X58728237Y-49174956D01*
X58582160Y-49235463D01*
X58456718Y-49331718D01*
X58360463Y-49457160D01*
X58299956Y-49603237D01*
X58299955Y-49603239D01*
X58284500Y-49720638D01*
X58284500Y-50299363D01*
X58299953Y-50416753D01*
X58299956Y-50416762D01*
X58348747Y-50534555D01*
X58360464Y-50562841D01*
X58456718Y-50688282D01*
X58582159Y-50784536D01*
X58728238Y-50845044D01*
X58836171Y-50859253D01*
X58900067Y-50887519D01*
X58938538Y-50945843D01*
X58939370Y-51015708D01*
X58907666Y-51069873D01*
X58078036Y-51899505D01*
X57989506Y-51988034D01*
X57989504Y-51988037D01*
X57926905Y-52096463D01*
X57925719Y-52100890D01*
X57901003Y-52193132D01*
X57894500Y-52217400D01*
X57894500Y-56150664D01*
X57874815Y-56217703D01*
X57822011Y-56263458D01*
X57752853Y-56273402D01*
X57729546Y-56267706D01*
X57718057Y-56263686D01*
X57550003Y-56244751D01*
X57549997Y-56244751D01*
X57381943Y-56263685D01*
X57222305Y-56319545D01*
X57222302Y-56319547D01*
X57079115Y-56409518D01*
X57079109Y-56409523D01*
X56959523Y-56529109D01*
X56959518Y-56529115D01*
X56869547Y-56672302D01*
X56869545Y-56672305D01*
X56813685Y-56831943D01*
X56794751Y-56999997D01*
X56794751Y-57000002D01*
X56813685Y-57168056D01*
X56869545Y-57327694D01*
X56869547Y-57327697D01*
X56959518Y-57470884D01*
X56959523Y-57470890D01*
X57079110Y-57590477D01*
X57086470Y-57595102D01*
X57132762Y-57647433D01*
X57144500Y-57700096D01*
X57144500Y-61281271D01*
X57124815Y-61348310D01*
X57108181Y-61368952D01*
X57098023Y-61379109D01*
X57098018Y-61379115D01*
X57008047Y-61522302D01*
X57008045Y-61522305D01*
X56952185Y-61681943D01*
X56933251Y-61849997D01*
X56933251Y-61850002D01*
X56952185Y-62018056D01*
X57008045Y-62177694D01*
X57008047Y-62177697D01*
X57098018Y-62320884D01*
X57098023Y-62320890D01*
X57217609Y-62440476D01*
X57217615Y-62440481D01*
X57360802Y-62530452D01*
X57360805Y-62530454D01*
X57360809Y-62530455D01*
X57360810Y-62530456D01*
X57433413Y-62555860D01*
X57520443Y-62586314D01*
X57688497Y-62605249D01*
X57688500Y-62605249D01*
X57688502Y-62605249D01*
X57756616Y-62597574D01*
X57825438Y-62609628D01*
X57876817Y-62656977D01*
X57894500Y-62720794D01*
X57894500Y-64062699D01*
X57874815Y-64129738D01*
X57822011Y-64175493D01*
X57793286Y-64184588D01*
X57766261Y-64189640D01*
X57575060Y-64225382D01*
X57471770Y-64265397D01*
X57367601Y-64305752D01*
X57367595Y-64305754D01*
X57178439Y-64422874D01*
X57178437Y-64422876D01*
X57014020Y-64572761D01*
X56879943Y-64750308D01*
X56879938Y-64750316D01*
X56780775Y-64949461D01*
X56780769Y-64949476D01*
X56719885Y-65163462D01*
X56719884Y-65163464D01*
X56699357Y-65384999D01*
X56699357Y-65385000D01*
X56719884Y-65606535D01*
X56719885Y-65606537D01*
X56780769Y-65820523D01*
X56780775Y-65820538D01*
X56879938Y-66019683D01*
X56879943Y-66019691D01*
X57014020Y-66197238D01*
X57178437Y-66347123D01*
X57178439Y-66347125D01*
X57367595Y-66464245D01*
X57367596Y-66464245D01*
X57367599Y-66464247D01*
X57575060Y-66544618D01*
X57793757Y-66585500D01*
X57793759Y-66585500D01*
X58016241Y-66585500D01*
X58016243Y-66585500D01*
X58234940Y-66544618D01*
X58442401Y-66464247D01*
X58631562Y-66347124D01*
X58781635Y-66210314D01*
X58795979Y-66197238D01*
X58824500Y-66159471D01*
X58930058Y-66019689D01*
X59029229Y-65820528D01*
X59055734Y-65727371D01*
X59093013Y-65668278D01*
X59156323Y-65638721D01*
X59225562Y-65648083D01*
X59278749Y-65693393D01*
X59294266Y-65727372D01*
X59320769Y-65820523D01*
X59320775Y-65820538D01*
X59419938Y-66019683D01*
X59419943Y-66019691D01*
X59554020Y-66197238D01*
X59718437Y-66347123D01*
X59718439Y-66347125D01*
X59907595Y-66464245D01*
X59907596Y-66464245D01*
X59907599Y-66464247D01*
X60115060Y-66544618D01*
X60333757Y-66585500D01*
X60333759Y-66585500D01*
X60556241Y-66585500D01*
X60556243Y-66585500D01*
X60774940Y-66544618D01*
X60982401Y-66464247D01*
X61171562Y-66347124D01*
X61196245Y-66324621D01*
X61259047Y-66294005D01*
X61328434Y-66302202D01*
X61382375Y-66346611D01*
X61387167Y-66354254D01*
X61394505Y-66366964D01*
X62019504Y-66991963D01*
X62019505Y-66991964D01*
X62108036Y-67080495D01*
X62216464Y-67143095D01*
X62337399Y-67175500D01*
X66896844Y-67175500D01*
X66963883Y-67195185D01*
X67009638Y-67247989D01*
X67019582Y-67317147D01*
X67007844Y-67354772D01*
X66940775Y-67489461D01*
X66940769Y-67489476D01*
X66879885Y-67703462D01*
X66879884Y-67703464D01*
X66859357Y-67924999D01*
X66859357Y-67925000D01*
X66879884Y-68146535D01*
X66879885Y-68146537D01*
X66940769Y-68360523D01*
X66940775Y-68360538D01*
X67039938Y-68559683D01*
X67039943Y-68559691D01*
X67174020Y-68737238D01*
X67338437Y-68887123D01*
X67338439Y-68887125D01*
X67527595Y-69004245D01*
X67527596Y-69004245D01*
X67527599Y-69004247D01*
X67735060Y-69084618D01*
X67953757Y-69125500D01*
X67953759Y-69125500D01*
X68176241Y-69125500D01*
X68176243Y-69125500D01*
X68394940Y-69084618D01*
X68602401Y-69004247D01*
X68791562Y-68887124D01*
X68955981Y-68737236D01*
X69090058Y-68559689D01*
X69189229Y-68360528D01*
X69247516Y-68155667D01*
X69284795Y-68096576D01*
X69348104Y-68067018D01*
X69417344Y-68076380D01*
X69454463Y-68101922D01*
X71087164Y-69734622D01*
X71087185Y-69734645D01*
X71142960Y-69790420D01*
X71176445Y-69851743D01*
X71171461Y-69921435D01*
X71129589Y-69977368D01*
X71064125Y-70001785D01*
X71055318Y-70002101D01*
X46114297Y-70009960D01*
X46047251Y-69990297D01*
X46001480Y-69937507D01*
X45990258Y-69885702D01*
X45991441Y-69316391D01*
X46001242Y-64596777D01*
X46009307Y-60713742D01*
X46029131Y-60646744D01*
X46082030Y-60601099D01*
X46133307Y-60590000D01*
X55830001Y-60590000D01*
X55830000Y-60589999D01*
X55829010Y-60281334D01*
X55800401Y-51365170D01*
X55819870Y-51298071D01*
X55872527Y-51252146D01*
X55925167Y-51240777D01*
X57410000Y-51250000D01*
X57427255Y-48216062D01*
X60329500Y-48216062D01*
X60344150Y-48327346D01*
X60344152Y-48327354D01*
X60392691Y-48444539D01*
X60401511Y-48465831D01*
X60492756Y-48584744D01*
X60611669Y-48675989D01*
X60750146Y-48733348D01*
X60861439Y-48748000D01*
X61698560Y-48747999D01*
X61698562Y-48747999D01*
X61809846Y-48733349D01*
X61809845Y-48733349D01*
X61809854Y-48733348D01*
X61948331Y-48675989D01*
X62067244Y-48584744D01*
X62158489Y-48465831D01*
X62215848Y-48327354D01*
X62230500Y-48216061D01*
X62230499Y-47703940D01*
X62230313Y-47702530D01*
X62215849Y-47592653D01*
X62215848Y-47592652D01*
X62215848Y-47592646D01*
X62158489Y-47454169D01*
X62067244Y-47335256D01*
X61948331Y-47244011D01*
X61948329Y-47244010D01*
X61941882Y-47239063D01*
X61943450Y-47237018D01*
X61904089Y-47195738D01*
X61890866Y-47127131D01*
X61916834Y-47062266D01*
X61938813Y-47040547D01*
X61948282Y-47033282D01*
X62044536Y-46907841D01*
X62105044Y-46761762D01*
X62120500Y-46644361D01*
X62120499Y-45615640D01*
X62120499Y-45615639D01*
X62120499Y-45615636D01*
X62105046Y-45498246D01*
X62105044Y-45498239D01*
X62105044Y-45498238D01*
X62044536Y-45352159D01*
X62044535Y-45352158D01*
X62044535Y-45352157D01*
X61943745Y-45220805D01*
X61918551Y-45155636D01*
X61932589Y-45087191D01*
X61966632Y-45046945D01*
X62067244Y-44969744D01*
X62158489Y-44850831D01*
X62215848Y-44712354D01*
X62230500Y-44601061D01*
X62230499Y-44088940D01*
X62230046Y-44085500D01*
X62215849Y-43977653D01*
X62215848Y-43977652D01*
X62215848Y-43977646D01*
X62158489Y-43839169D01*
X62067244Y-43720256D01*
X61948331Y-43629011D01*
X61809854Y-43571652D01*
X61698561Y-43557000D01*
X60861437Y-43557000D01*
X60750153Y-43571650D01*
X60750145Y-43571652D01*
X60611670Y-43629010D01*
X60492756Y-43720256D01*
X60401510Y-43839170D01*
X60344152Y-43977645D01*
X60344152Y-43977646D01*
X60329500Y-44088931D01*
X60329500Y-44601062D01*
X60344150Y-44712346D01*
X60344152Y-44712354D01*
X60377127Y-44791964D01*
X60401511Y-44850831D01*
X60492756Y-44969744D01*
X60581980Y-45038208D01*
X60623181Y-45094632D01*
X60627336Y-45164378D01*
X60596469Y-45220120D01*
X60596666Y-45220271D01*
X60595660Y-45221581D01*
X60594179Y-45224257D01*
X60591721Y-45226714D01*
X60495463Y-45352160D01*
X60434956Y-45498237D01*
X60434955Y-45498239D01*
X60422390Y-45593687D01*
X60419501Y-45615636D01*
X60419500Y-45615645D01*
X60419500Y-46644363D01*
X60434953Y-46761753D01*
X60434956Y-46761762D01*
X60455293Y-46810861D01*
X60495464Y-46907841D01*
X60591718Y-47033282D01*
X60610801Y-47047925D01*
X60652004Y-47104350D01*
X60656159Y-47174096D01*
X60621948Y-47235017D01*
X60610802Y-47244675D01*
X60492758Y-47335254D01*
X60492757Y-47335255D01*
X60492756Y-47335256D01*
X60460876Y-47376803D01*
X60401510Y-47454170D01*
X60344152Y-47592645D01*
X60344152Y-47592646D01*
X60329500Y-47703931D01*
X60329500Y-48216062D01*
X57427255Y-48216062D01*
X57469300Y-40823020D01*
X57489366Y-40756095D01*
X57542429Y-40710642D01*
X57593021Y-40699727D01*
X60535230Y-40693208D01*
X60602308Y-40712743D01*
G37*
G04 #@! TD.AperFunction*
G04 #@! TA.AperFunction,Conductor*
G36*
X109306947Y-67189361D02*
G01*
X109373891Y-67209367D01*
X109419392Y-67262390D01*
X109430351Y-67313375D01*
X109430246Y-68123589D01*
X109430017Y-69866064D01*
X109410324Y-69933101D01*
X109357514Y-69978849D01*
X109306056Y-69990048D01*
X107191145Y-69990714D01*
X107124099Y-69971051D01*
X107078328Y-69918261D01*
X107068363Y-69849106D01*
X107097367Y-69785541D01*
X107103411Y-69779047D01*
X107280640Y-69601819D01*
X107341963Y-69568334D01*
X107368321Y-69565500D01*
X107878261Y-69565500D01*
X107900971Y-69562191D01*
X107946393Y-69555573D01*
X108051483Y-69504198D01*
X108134198Y-69421483D01*
X108185573Y-69316393D01*
X108195500Y-69248260D01*
X108195500Y-68331740D01*
X108185573Y-68263607D01*
X108134198Y-68158517D01*
X108134196Y-68158515D01*
X108134196Y-68158514D01*
X108051485Y-68075803D01*
X108027883Y-68064265D01*
X107946393Y-68024427D01*
X107946391Y-68024426D01*
X107878261Y-68014500D01*
X107878260Y-68014500D01*
X106961740Y-68014500D01*
X106961739Y-68014500D01*
X106893608Y-68024426D01*
X106788514Y-68075803D01*
X106705803Y-68158514D01*
X106654426Y-68263608D01*
X106644500Y-68331739D01*
X106644500Y-68841679D01*
X106624815Y-68908718D01*
X106608181Y-68929360D01*
X106577360Y-68960181D01*
X106516037Y-68993666D01*
X106489679Y-68996500D01*
X100989500Y-68996500D01*
X100922461Y-68976815D01*
X100876706Y-68924011D01*
X100865500Y-68872501D01*
X100865499Y-68668561D01*
X100865498Y-68668551D01*
X100864005Y-68654665D01*
X100859284Y-68610738D01*
X100858317Y-68608145D01*
X100850500Y-68564814D01*
X100850500Y-68123589D01*
X100858319Y-68080253D01*
X100864284Y-68064262D01*
X100869634Y-68014500D01*
X100870499Y-68006459D01*
X100870499Y-68006448D01*
X100870500Y-68006443D01*
X100870499Y-67543558D01*
X100864284Y-67485738D01*
X100864284Y-67485737D01*
X100864283Y-67485734D01*
X100815494Y-67354929D01*
X100814655Y-67353809D01*
X100814165Y-67352496D01*
X100811243Y-67347144D01*
X100812012Y-67346723D01*
X100790239Y-67288344D01*
X100805092Y-67220072D01*
X100854498Y-67170667D01*
X100913923Y-67155500D01*
X102243987Y-67155500D01*
X102244580Y-67155500D01*
X109306947Y-67189361D01*
G37*
G04 #@! TD.AperFunction*
G04 #@! TA.AperFunction,Conductor*
G36*
X66860808Y-61403134D02*
G01*
X66872396Y-61416507D01*
X66888628Y-61438191D01*
X66913044Y-61503656D01*
X66898191Y-61571928D01*
X66888628Y-61586809D01*
X66839507Y-61652428D01*
X66839506Y-61652430D01*
X66839505Y-61652432D01*
X66790716Y-61783238D01*
X66790715Y-61783241D01*
X66784500Y-61841040D01*
X66784500Y-62203938D01*
X66784501Y-62203948D01*
X66790715Y-62261762D01*
X66790716Y-62261765D01*
X66839505Y-62392570D01*
X66839506Y-62392571D01*
X66923168Y-62504331D01*
X67034927Y-62587992D01*
X67034928Y-62587992D01*
X67034932Y-62587995D01*
X67165738Y-62636784D01*
X67223557Y-62643000D01*
X67351677Y-62642999D01*
X67418717Y-62662683D01*
X67439359Y-62679318D01*
X68462004Y-63701963D01*
X68462005Y-63701964D01*
X68550536Y-63790495D01*
X68658964Y-63853095D01*
X68779899Y-63885500D01*
X69570752Y-63885500D01*
X69637791Y-63905185D01*
X69683546Y-63957989D01*
X69693490Y-64027147D01*
X69675746Y-64075472D01*
X69607045Y-64184807D01*
X69551185Y-64344443D01*
X69532251Y-64512497D01*
X69532251Y-64512502D01*
X69551185Y-64680556D01*
X69607045Y-64840194D01*
X69607047Y-64840197D01*
X69697018Y-64983384D01*
X69697023Y-64983390D01*
X69816609Y-65102976D01*
X69816615Y-65102981D01*
X69959802Y-65192952D01*
X69959805Y-65192954D01*
X69959809Y-65192955D01*
X69959810Y-65192956D01*
X70032413Y-65218360D01*
X70119443Y-65248814D01*
X70213091Y-65259365D01*
X70287500Y-65267749D01*
X70302564Y-65266051D01*
X70371384Y-65278104D01*
X70404131Y-65301590D01*
X72488181Y-67385640D01*
X72521666Y-67446963D01*
X72524500Y-67473321D01*
X72524500Y-68437399D01*
X72524500Y-68562601D01*
X72556905Y-68683536D01*
X72604686Y-68766297D01*
X72615774Y-68785501D01*
X72632246Y-68853401D01*
X72609393Y-68919428D01*
X72554471Y-68962618D01*
X72508386Y-68971500D01*
X71720320Y-68971500D01*
X71653281Y-68951815D01*
X71632639Y-68935181D01*
X69245374Y-66547916D01*
X69211889Y-66486593D01*
X69216873Y-66416901D01*
X69221655Y-66405775D01*
X69255572Y-66336395D01*
X69255573Y-66336392D01*
X69257902Y-66320411D01*
X69265500Y-66268260D01*
X69265500Y-64501740D01*
X69255573Y-64433607D01*
X69204198Y-64328517D01*
X69204196Y-64328515D01*
X69204196Y-64328514D01*
X69121485Y-64245803D01*
X69016391Y-64194426D01*
X68948261Y-64184500D01*
X68948260Y-64184500D01*
X67181740Y-64184500D01*
X67181739Y-64184500D01*
X67113608Y-64194426D01*
X67008514Y-64245803D01*
X66925803Y-64328514D01*
X66874426Y-64433608D01*
X66864500Y-64501739D01*
X66864500Y-64854578D01*
X66844815Y-64921617D01*
X66792011Y-64967372D01*
X66722853Y-64977316D01*
X66659297Y-64948291D01*
X66629500Y-64909850D01*
X66550061Y-64750316D01*
X66550056Y-64750308D01*
X66415979Y-64572761D01*
X66251562Y-64422876D01*
X66251560Y-64422874D01*
X66062404Y-64305754D01*
X66062398Y-64305752D01*
X66057321Y-64303785D01*
X65854940Y-64225382D01*
X65636243Y-64184500D01*
X65413757Y-64184500D01*
X65195060Y-64225382D01*
X65091770Y-64265397D01*
X64987601Y-64305752D01*
X64987595Y-64305754D01*
X64798439Y-64422874D01*
X64798437Y-64422876D01*
X64634020Y-64572761D01*
X64499943Y-64750308D01*
X64499938Y-64750316D01*
X64400775Y-64949461D01*
X64400769Y-64949476D01*
X64374266Y-65042627D01*
X64336987Y-65101721D01*
X64273677Y-65131278D01*
X64204438Y-65121916D01*
X64151251Y-65076606D01*
X64135734Y-65042627D01*
X64124239Y-65002229D01*
X64109229Y-64949472D01*
X64095359Y-64921617D01*
X64010061Y-64750316D01*
X64010056Y-64750308D01*
X63875979Y-64572761D01*
X63711562Y-64422876D01*
X63711560Y-64422874D01*
X63519223Y-64303785D01*
X63472587Y-64251757D01*
X63460500Y-64198358D01*
X63460500Y-63140615D01*
X63480185Y-63073576D01*
X63532989Y-63027821D01*
X63602147Y-63017877D01*
X63665703Y-63046902D01*
X63674499Y-63056065D01*
X63674599Y-63055966D01*
X63799109Y-63180476D01*
X63799115Y-63180481D01*
X63942302Y-63270452D01*
X63942305Y-63270454D01*
X63942309Y-63270455D01*
X63942310Y-63270456D01*
X64014913Y-63295860D01*
X64101943Y-63326314D01*
X64269997Y-63345249D01*
X64270000Y-63345249D01*
X64270003Y-63345249D01*
X64438056Y-63326314D01*
X64438059Y-63326313D01*
X64597690Y-63270456D01*
X64597692Y-63270454D01*
X64597694Y-63270454D01*
X64597697Y-63270452D01*
X64740884Y-63180481D01*
X64740885Y-63180480D01*
X64740890Y-63180477D01*
X64860477Y-63060890D01*
X64868979Y-63047360D01*
X64950452Y-62917697D01*
X64950455Y-62917691D01*
X64950456Y-62917690D01*
X65006313Y-62758059D01*
X65006657Y-62755001D01*
X65007716Y-62745613D01*
X65034784Y-62681200D01*
X65092379Y-62641646D01*
X65130936Y-62635499D01*
X65381439Y-62635499D01*
X65381442Y-62635499D01*
X65439262Y-62629284D01*
X65570068Y-62580495D01*
X65570068Y-62580494D01*
X65570070Y-62580494D01*
X65570071Y-62580493D01*
X65681831Y-62496831D01*
X65765492Y-62385072D01*
X65765491Y-62385072D01*
X65765495Y-62385068D01*
X65814284Y-62254262D01*
X65816607Y-62232647D01*
X65820499Y-62196459D01*
X65820499Y-62196452D01*
X65820500Y-62196443D01*
X65820499Y-61833558D01*
X65814284Y-61775738D01*
X65814283Y-61775734D01*
X65813050Y-61770513D01*
X65816791Y-61700743D01*
X65857659Y-61644072D01*
X65922678Y-61618492D01*
X65933707Y-61617999D01*
X66326442Y-61617999D01*
X66384262Y-61611784D01*
X66515068Y-61562995D01*
X66515068Y-61562994D01*
X66515070Y-61562994D01*
X66515071Y-61562993D01*
X66626830Y-61479332D01*
X66630072Y-61475002D01*
X66673860Y-61416506D01*
X66729793Y-61374635D01*
X66799485Y-61369649D01*
X66860808Y-61403134D01*
G37*
G04 #@! TD.AperFunction*
G04 #@! TA.AperFunction,Conductor*
G36*
X97363926Y-67345185D02*
G01*
X97409681Y-67397989D01*
X97419625Y-67467147D01*
X97416852Y-67478027D01*
X97417501Y-67478181D01*
X97415716Y-67485736D01*
X97409500Y-67543540D01*
X97409500Y-68006439D01*
X97409501Y-68006448D01*
X97415715Y-68064262D01*
X97415716Y-68064265D01*
X97441043Y-68132165D01*
X97446029Y-68201856D01*
X97412545Y-68263180D01*
X97351222Y-68296666D01*
X97324862Y-68299500D01*
X96761301Y-68299500D01*
X96717968Y-68291682D01*
X96675338Y-68275782D01*
X96675337Y-68275781D01*
X96675335Y-68275781D01*
X96616915Y-68269500D01*
X96616905Y-68269500D01*
X96183087Y-68269500D01*
X96183081Y-68269501D01*
X96124664Y-68275780D01*
X95992514Y-68325069D01*
X95992507Y-68325073D01*
X95879597Y-68409597D01*
X95795073Y-68522507D01*
X95795069Y-68522514D01*
X95745782Y-68654661D01*
X95745781Y-68654665D01*
X95739500Y-68713085D01*
X95739500Y-68841679D01*
X95739501Y-68847499D01*
X95719817Y-68914539D01*
X95667013Y-68960294D01*
X95615501Y-68971500D01*
X89620321Y-68971500D01*
X89553282Y-68951815D01*
X89507527Y-68899011D01*
X89497583Y-68829853D01*
X89526608Y-68766297D01*
X89532640Y-68759819D01*
X89642771Y-68649687D01*
X90083369Y-68209088D01*
X90144690Y-68175605D01*
X90184931Y-68173551D01*
X90200000Y-68175249D01*
X90200001Y-68175248D01*
X90200002Y-68175249D01*
X90200003Y-68175249D01*
X90368056Y-68156314D01*
X90437070Y-68132165D01*
X90527690Y-68100456D01*
X90527692Y-68100454D01*
X90527694Y-68100454D01*
X90527697Y-68100452D01*
X90670884Y-68010481D01*
X90670885Y-68010480D01*
X90670890Y-68010477D01*
X90790477Y-67890890D01*
X90795812Y-67882399D01*
X90848143Y-67836108D01*
X90917197Y-67825458D01*
X90962804Y-67840982D01*
X90966464Y-67843095D01*
X91087399Y-67875500D01*
X91087401Y-67875500D01*
X94037599Y-67875500D01*
X94037601Y-67875500D01*
X94158536Y-67843095D01*
X94266964Y-67780495D01*
X94685640Y-67361819D01*
X94746963Y-67328334D01*
X94773321Y-67325500D01*
X97296887Y-67325500D01*
X97363926Y-67345185D01*
G37*
G04 #@! TD.AperFunction*
G04 #@! TA.AperFunction,Conductor*
G36*
X82571812Y-59497554D02*
G01*
X82590343Y-59512802D01*
X89730406Y-66652865D01*
X89763891Y-66714188D01*
X89758907Y-66783880D01*
X89730406Y-66828227D01*
X89609523Y-66949109D01*
X89609518Y-66949115D01*
X89519547Y-67092302D01*
X89519545Y-67092305D01*
X89463685Y-67251943D01*
X89444751Y-67419997D01*
X89444751Y-67420004D01*
X89446448Y-67435067D01*
X89434393Y-67503888D01*
X89410909Y-67536630D01*
X88389360Y-68558181D01*
X88328037Y-68591666D01*
X88301679Y-68594500D01*
X85784500Y-68594500D01*
X85717461Y-68574815D01*
X85671706Y-68522011D01*
X85660500Y-68470500D01*
X85660500Y-66966739D01*
X85653355Y-66917702D01*
X85650573Y-66898607D01*
X85599198Y-66793517D01*
X85599196Y-66793515D01*
X85599196Y-66793514D01*
X85516485Y-66710803D01*
X85411391Y-66659426D01*
X85343261Y-66649500D01*
X85343260Y-66649500D01*
X85059500Y-66649500D01*
X84992461Y-66629815D01*
X84946706Y-66577011D01*
X84935500Y-66525500D01*
X84935500Y-65687400D01*
X84924940Y-65647989D01*
X84903095Y-65566464D01*
X84840495Y-65458036D01*
X84751964Y-65369505D01*
X84610726Y-65228267D01*
X84577241Y-65166944D01*
X84582225Y-65097252D01*
X84610726Y-65052905D01*
X84886381Y-64777250D01*
X84772596Y-64663465D01*
X84739111Y-64602142D01*
X84744095Y-64532450D01*
X84772595Y-64488103D01*
X84822563Y-64438137D01*
X84822563Y-64438136D01*
X82679869Y-62295442D01*
X82679868Y-62295442D01*
X82266565Y-62708744D01*
X82205242Y-62742229D01*
X82135550Y-62737245D01*
X82091203Y-62708744D01*
X81576965Y-62194506D01*
X81576964Y-62194505D01*
X81468536Y-62131905D01*
X81468537Y-62131905D01*
X81428224Y-62121103D01*
X81347601Y-62099500D01*
X81347599Y-62099500D01*
X81061465Y-62099500D01*
X80994426Y-62079815D01*
X80948671Y-62027011D01*
X80938727Y-61957853D01*
X80962198Y-61901189D01*
X80985495Y-61870068D01*
X81034284Y-61739262D01*
X81037365Y-61710601D01*
X81040499Y-61681459D01*
X81040499Y-61681452D01*
X81040500Y-61681443D01*
X81040499Y-61446325D01*
X81060183Y-61379287D01*
X81112987Y-61333532D01*
X81182146Y-61323588D01*
X81230471Y-61341333D01*
X81372302Y-61430452D01*
X81372305Y-61430454D01*
X81372309Y-61430455D01*
X81372310Y-61430456D01*
X81408699Y-61443189D01*
X81531943Y-61486314D01*
X81699997Y-61505249D01*
X81700000Y-61505249D01*
X81700003Y-61505249D01*
X81868056Y-61486314D01*
X81873723Y-61484331D01*
X82027690Y-61430456D01*
X82027692Y-61430454D01*
X82027694Y-61430454D01*
X82027697Y-61430452D01*
X82170884Y-61340481D01*
X82170885Y-61340480D01*
X82170890Y-61340477D01*
X82290477Y-61220890D01*
X82290481Y-61220884D01*
X82380452Y-61077697D01*
X82380454Y-61077694D01*
X82380454Y-61077692D01*
X82380456Y-61077690D01*
X82436313Y-60918059D01*
X82436313Y-60918058D01*
X82436314Y-60918056D01*
X82455249Y-60750002D01*
X82455249Y-60749997D01*
X82436314Y-60581943D01*
X82388687Y-60445833D01*
X82380456Y-60422310D01*
X82380455Y-60422309D01*
X82380454Y-60422305D01*
X82380452Y-60422302D01*
X82290481Y-60279115D01*
X82290476Y-60279109D01*
X82170890Y-60159523D01*
X82170887Y-60159521D01*
X82065235Y-60093134D01*
X82018944Y-60040799D01*
X82008297Y-59971746D01*
X82036672Y-59907897D01*
X82065233Y-59883149D01*
X82180890Y-59810477D01*
X82300477Y-59690890D01*
X82316443Y-59665481D01*
X82390452Y-59547698D01*
X82390940Y-59546685D01*
X82391429Y-59546143D01*
X82394162Y-59541794D01*
X82394923Y-59542272D01*
X82437761Y-59494824D01*
X82505187Y-59476509D01*
X82571812Y-59497554D01*
G37*
G04 #@! TD.AperFunction*
G04 #@! TA.AperFunction,Conductor*
G36*
X74198718Y-63905185D02*
G01*
X74219360Y-63921819D01*
X76328181Y-66030640D01*
X76361666Y-66091963D01*
X76364500Y-66118321D01*
X76364500Y-66663358D01*
X76344815Y-66730397D01*
X76305777Y-66768785D01*
X76113439Y-66887874D01*
X76113437Y-66887876D01*
X75949020Y-67037761D01*
X75814943Y-67215308D01*
X75814938Y-67215316D01*
X75715775Y-67414461D01*
X75715769Y-67414476D01*
X75689266Y-67507627D01*
X75651987Y-67566721D01*
X75588677Y-67596278D01*
X75519438Y-67586916D01*
X75466251Y-67541606D01*
X75450734Y-67507627D01*
X75424230Y-67414476D01*
X75424229Y-67414472D01*
X75423641Y-67413291D01*
X75325061Y-67215316D01*
X75325056Y-67215308D01*
X75190979Y-67037761D01*
X75026562Y-66887876D01*
X75026560Y-66887874D01*
X74837404Y-66770754D01*
X74837398Y-66770752D01*
X74832321Y-66768785D01*
X74629940Y-66690382D01*
X74411243Y-66649500D01*
X74188757Y-66649500D01*
X73970060Y-66690382D01*
X73866770Y-66730397D01*
X73762601Y-66770752D01*
X73762595Y-66770754D01*
X73573441Y-66887873D01*
X73554857Y-66904815D01*
X73540721Y-66917702D01*
X73536380Y-66921659D01*
X73473575Y-66952275D01*
X73404188Y-66944077D01*
X73365161Y-66917702D01*
X71076590Y-64629131D01*
X71043105Y-64567808D01*
X71041051Y-64527567D01*
X71042749Y-64512500D01*
X71032651Y-64422876D01*
X71023814Y-64344443D01*
X70992436Y-64254771D01*
X70967956Y-64184810D01*
X70899253Y-64075471D01*
X70880254Y-64008236D01*
X70900621Y-63941400D01*
X70953889Y-63896186D01*
X71004248Y-63885500D01*
X74131679Y-63885500D01*
X74198718Y-63905185D01*
G37*
G04 #@! TD.AperFunction*
G04 #@! TA.AperFunction,Conductor*
G36*
X76393718Y-63470185D02*
G01*
X76414360Y-63486819D01*
X78868181Y-65940640D01*
X78901666Y-66001963D01*
X78904500Y-66028321D01*
X78904500Y-66663358D01*
X78884815Y-66730397D01*
X78845777Y-66768785D01*
X78653439Y-66887874D01*
X78653437Y-66887876D01*
X78489020Y-67037761D01*
X78354943Y-67215308D01*
X78354938Y-67215316D01*
X78255775Y-67414461D01*
X78255769Y-67414476D01*
X78229266Y-67507627D01*
X78191987Y-67566721D01*
X78128677Y-67596278D01*
X78059438Y-67586916D01*
X78006251Y-67541606D01*
X77990734Y-67507627D01*
X77964230Y-67414476D01*
X77964229Y-67414472D01*
X77963641Y-67413291D01*
X77865061Y-67215316D01*
X77865056Y-67215308D01*
X77730979Y-67037761D01*
X77566562Y-66887876D01*
X77566560Y-66887874D01*
X77374223Y-66768785D01*
X77327587Y-66716757D01*
X77315500Y-66663358D01*
X77315500Y-65996244D01*
X77319726Y-65964148D01*
X77325500Y-65942601D01*
X77325500Y-65817399D01*
X77293095Y-65696464D01*
X77230495Y-65588036D01*
X75304640Y-63662181D01*
X75271155Y-63600858D01*
X75276139Y-63531166D01*
X75318011Y-63475233D01*
X75383475Y-63450816D01*
X75392321Y-63450500D01*
X76326679Y-63450500D01*
X76393718Y-63470185D01*
G37*
G04 #@! TD.AperFunction*
G04 #@! TA.AperFunction,Conductor*
G36*
X81103718Y-63070185D02*
G01*
X81124360Y-63086819D01*
X83948181Y-65910640D01*
X83981666Y-65971963D01*
X83984500Y-65998321D01*
X83984500Y-66525500D01*
X83964815Y-66592539D01*
X83912011Y-66638294D01*
X83860500Y-66649500D01*
X83576739Y-66649500D01*
X83508608Y-66659426D01*
X83403514Y-66710803D01*
X83320803Y-66793514D01*
X83269426Y-66898608D01*
X83259500Y-66966739D01*
X83259500Y-67319578D01*
X83239815Y-67386617D01*
X83187011Y-67432372D01*
X83117853Y-67442316D01*
X83054297Y-67413291D01*
X83024500Y-67374850D01*
X82945061Y-67215316D01*
X82945056Y-67215308D01*
X82810979Y-67037761D01*
X82646562Y-66887876D01*
X82646560Y-66887874D01*
X82457404Y-66770754D01*
X82457398Y-66770752D01*
X82452321Y-66768785D01*
X82249940Y-66690382D01*
X82031243Y-66649500D01*
X81808757Y-66649500D01*
X81590060Y-66690382D01*
X81486770Y-66730397D01*
X81382601Y-66770752D01*
X81382595Y-66770754D01*
X81193439Y-66887874D01*
X81193437Y-66887876D01*
X81029020Y-67037761D01*
X80894943Y-67215308D01*
X80894938Y-67215316D01*
X80795775Y-67414461D01*
X80795769Y-67414476D01*
X80769266Y-67507627D01*
X80731987Y-67566721D01*
X80668677Y-67596278D01*
X80599438Y-67586916D01*
X80546251Y-67541606D01*
X80530734Y-67507627D01*
X80504230Y-67414476D01*
X80504229Y-67414472D01*
X80503641Y-67413291D01*
X80405061Y-67215316D01*
X80405056Y-67215308D01*
X80270979Y-67037761D01*
X80106562Y-66887876D01*
X80106560Y-66887874D01*
X79914223Y-66768785D01*
X79867587Y-66716757D01*
X79855500Y-66663358D01*
X79855500Y-65717400D01*
X79854424Y-65713383D01*
X79823095Y-65596464D01*
X79760495Y-65488036D01*
X79671964Y-65399505D01*
X77534640Y-63262181D01*
X77501155Y-63200858D01*
X77506139Y-63131166D01*
X77548011Y-63075233D01*
X77613475Y-63050816D01*
X77622321Y-63050500D01*
X81036679Y-63050500D01*
X81103718Y-63070185D01*
G37*
G04 #@! TD.AperFunction*
G04 #@! TA.AperFunction,Conductor*
G36*
X94843146Y-58145185D02*
G01*
X94888901Y-58197989D01*
X94900104Y-58250340D01*
X94873057Y-62241538D01*
X94852919Y-62308443D01*
X94799806Y-62353839D01*
X94749813Y-62364696D01*
X91612118Y-62383752D01*
X91536209Y-62392425D01*
X91536202Y-62392426D01*
X91484495Y-62404067D01*
X91426863Y-62422311D01*
X91327536Y-62484177D01*
X91327532Y-62484180D01*
X91316928Y-62493527D01*
X91253618Y-62523085D01*
X91234940Y-62524500D01*
X90762601Y-62524500D01*
X90637399Y-62524500D01*
X90556775Y-62546103D01*
X90516463Y-62556905D01*
X90408037Y-62619504D01*
X90408034Y-62619506D01*
X89919506Y-63108034D01*
X89919504Y-63108037D01*
X89856905Y-63216463D01*
X89824500Y-63337400D01*
X89824500Y-63362771D01*
X89804815Y-63429810D01*
X89788181Y-63450452D01*
X89709523Y-63529109D01*
X89709518Y-63529115D01*
X89619547Y-63672302D01*
X89619545Y-63672305D01*
X89563685Y-63831943D01*
X89544751Y-63999997D01*
X89544751Y-64000002D01*
X89563685Y-64168056D01*
X89619545Y-64327694D01*
X89619547Y-64327697D01*
X89709518Y-64470884D01*
X89709523Y-64470890D01*
X89829109Y-64590476D01*
X89829115Y-64590481D01*
X89972302Y-64680452D01*
X89972305Y-64680454D01*
X89972309Y-64680455D01*
X89972310Y-64680456D01*
X90006067Y-64692268D01*
X90131943Y-64736314D01*
X90299997Y-64755249D01*
X90300000Y-64755249D01*
X90300003Y-64755249D01*
X90468056Y-64736314D01*
X90468059Y-64736313D01*
X90627690Y-64680456D01*
X90627692Y-64680454D01*
X90627694Y-64680454D01*
X90627697Y-64680452D01*
X90770884Y-64590481D01*
X90770885Y-64590480D01*
X90770890Y-64590477D01*
X90890477Y-64470890D01*
X90920191Y-64423599D01*
X90972525Y-64377308D01*
X91041578Y-64366659D01*
X91105427Y-64395034D01*
X91143799Y-64453423D01*
X91149181Y-64488529D01*
X91154320Y-65100040D01*
X91162751Y-65174066D01*
X91162753Y-65174073D01*
X91173957Y-65224550D01*
X91191305Y-65280464D01*
X91204219Y-65301590D01*
X91252340Y-65380314D01*
X91252345Y-65380320D01*
X91252346Y-65380321D01*
X91298082Y-65433104D01*
X91298088Y-65433110D01*
X91298095Y-65433118D01*
X91361278Y-65490411D01*
X91466605Y-65541414D01*
X91533644Y-65561099D01*
X91533645Y-65561099D01*
X91533648Y-65561100D01*
X91563512Y-65565393D01*
X91633803Y-65575500D01*
X93429740Y-65575500D01*
X93496779Y-65595185D01*
X93542534Y-65647989D01*
X93552960Y-65713383D01*
X93534751Y-65874996D01*
X93534751Y-65875002D01*
X93553685Y-66043056D01*
X93609545Y-66202694D01*
X93609547Y-66202697D01*
X93699518Y-66345884D01*
X93699523Y-66345890D01*
X93819110Y-66465477D01*
X93832851Y-66474111D01*
X93944126Y-66544030D01*
X93990417Y-66596365D01*
X94001065Y-66665419D01*
X93972690Y-66729267D01*
X93965842Y-66736697D01*
X93814358Y-66888182D01*
X93753037Y-66921666D01*
X93726679Y-66924500D01*
X91398321Y-66924500D01*
X91331282Y-66904815D01*
X91310640Y-66888181D01*
X83775886Y-59353427D01*
X83742401Y-59292104D01*
X83747385Y-59222412D01*
X83789257Y-59166479D01*
X83854721Y-59142062D01*
X83863567Y-59141746D01*
X83957085Y-59141746D01*
X84024124Y-59161431D01*
X84063809Y-59207230D01*
X84065652Y-59206194D01*
X84069809Y-59213587D01*
X84161248Y-59334168D01*
X84281827Y-59425606D01*
X84281828Y-59425606D01*
X84281829Y-59425607D01*
X84422607Y-59481123D01*
X84511069Y-59491746D01*
X84511074Y-59491746D01*
X84997268Y-59491746D01*
X84997273Y-59491746D01*
X85085735Y-59481123D01*
X85226513Y-59425607D01*
X85347093Y-59334168D01*
X85438532Y-59213588D01*
X85463817Y-59149469D01*
X85506722Y-59094327D01*
X85572630Y-59071134D01*
X85640614Y-59087254D01*
X85689091Y-59137571D01*
X85694521Y-59149460D01*
X85707995Y-59183628D01*
X85719810Y-59213589D01*
X85811248Y-59334168D01*
X85931827Y-59425606D01*
X85931828Y-59425606D01*
X85931829Y-59425607D01*
X86072607Y-59481123D01*
X86161069Y-59491746D01*
X86161074Y-59491746D01*
X86647268Y-59491746D01*
X86647273Y-59491746D01*
X86735735Y-59481123D01*
X86876513Y-59425607D01*
X86997093Y-59334168D01*
X87088532Y-59213588D01*
X87088533Y-59213584D01*
X87092690Y-59206194D01*
X87094496Y-59207209D01*
X87130398Y-59161054D01*
X87170768Y-59141902D01*
X87171350Y-59141746D01*
X87171355Y-59141746D01*
X87292290Y-59109341D01*
X87400718Y-59046741D01*
X88285640Y-58161819D01*
X88346963Y-58128334D01*
X88373321Y-58125500D01*
X94776107Y-58125500D01*
X94843146Y-58145185D01*
G37*
G04 #@! TD.AperFunction*
G04 #@! TA.AperFunction,Conductor*
G36*
X73859722Y-58835128D02*
G01*
X73877204Y-58849663D01*
X75158036Y-60130495D01*
X75266464Y-60193095D01*
X75387399Y-60225500D01*
X75512601Y-60225500D01*
X75673257Y-60225500D01*
X75740296Y-60245185D01*
X75780644Y-60287500D01*
X75784007Y-60293326D01*
X75788182Y-60298767D01*
X75875256Y-60412244D01*
X75994169Y-60503489D01*
X76132646Y-60560848D01*
X76243939Y-60575500D01*
X76601678Y-60575499D01*
X76668717Y-60595183D01*
X76689359Y-60611818D01*
X77181036Y-61103495D01*
X77181037Y-61103496D01*
X77181039Y-61103497D01*
X77224998Y-61128876D01*
X77273215Y-61179442D01*
X77287000Y-61236264D01*
X77287000Y-61743562D01*
X77301650Y-61854846D01*
X77301652Y-61854853D01*
X77331970Y-61928047D01*
X77339439Y-61997516D01*
X77308164Y-62059996D01*
X77248075Y-62095648D01*
X77217409Y-62099500D01*
X72793319Y-62099500D01*
X72726280Y-62079815D01*
X72680525Y-62027011D01*
X72670581Y-61957853D01*
X72688325Y-61909528D01*
X72722679Y-61854854D01*
X72755456Y-61802690D01*
X72811313Y-61643059D01*
X72811313Y-61643058D01*
X72811314Y-61643056D01*
X72830249Y-61475002D01*
X72830249Y-61474997D01*
X72811314Y-61306943D01*
X72775730Y-61205249D01*
X72755456Y-61147310D01*
X72755455Y-61147309D01*
X72755454Y-61147305D01*
X72755452Y-61147302D01*
X72665481Y-61004115D01*
X72665476Y-61004109D01*
X72586819Y-60925452D01*
X72553334Y-60864129D01*
X72550500Y-60837771D01*
X72550500Y-60173320D01*
X72570185Y-60106281D01*
X72586819Y-60085639D01*
X72697209Y-59975249D01*
X72808369Y-59864088D01*
X72869690Y-59830605D01*
X72909931Y-59828551D01*
X72925000Y-59830249D01*
X72925001Y-59830248D01*
X72925002Y-59830249D01*
X72925003Y-59830249D01*
X73093056Y-59811314D01*
X73124212Y-59800412D01*
X73252690Y-59755456D01*
X73252692Y-59755454D01*
X73252694Y-59755454D01*
X73252697Y-59755452D01*
X73395884Y-59665481D01*
X73395885Y-59665480D01*
X73395890Y-59665477D01*
X73515477Y-59545890D01*
X73516348Y-59544504D01*
X73605452Y-59402697D01*
X73605454Y-59402694D01*
X73605454Y-59402692D01*
X73605456Y-59402690D01*
X73661313Y-59243059D01*
X73661313Y-59243058D01*
X73661314Y-59243056D01*
X73680249Y-59075002D01*
X73680249Y-59074997D01*
X73666303Y-58951228D01*
X73678357Y-58882406D01*
X73725706Y-58831027D01*
X73793316Y-58813402D01*
X73859722Y-58835128D01*
G37*
G04 #@! TD.AperFunction*
G04 #@! TA.AperFunction,Conductor*
G36*
X72400810Y-58325185D02*
G01*
X72446565Y-58377989D01*
X72456509Y-58447147D01*
X72427484Y-58510703D01*
X72421452Y-58517181D01*
X72334523Y-58604109D01*
X72334518Y-58604115D01*
X72244547Y-58747302D01*
X72244545Y-58747305D01*
X72188685Y-58906943D01*
X72169751Y-59074997D01*
X72169751Y-59075004D01*
X72171448Y-59090067D01*
X72159393Y-59158888D01*
X72135909Y-59191630D01*
X71765595Y-59561945D01*
X71765594Y-59561945D01*
X71765595Y-59561946D01*
X71694503Y-59633037D01*
X71631905Y-59741463D01*
X71631905Y-59741464D01*
X71601835Y-59853687D01*
X71599500Y-59862400D01*
X71599500Y-60837771D01*
X71579815Y-60904810D01*
X71563181Y-60925452D01*
X71484523Y-61004109D01*
X71484521Y-61004111D01*
X71425262Y-61098422D01*
X71372928Y-61144712D01*
X71303874Y-61155360D01*
X71240026Y-61126985D01*
X71232588Y-61120130D01*
X69534964Y-59422506D01*
X69534963Y-59422505D01*
X69426535Y-59359905D01*
X69426536Y-59359905D01*
X69386223Y-59349103D01*
X69305600Y-59327500D01*
X69305598Y-59327500D01*
X69074992Y-59327500D01*
X69007953Y-59307815D01*
X68962198Y-59255011D01*
X68951772Y-59189617D01*
X68965249Y-59070003D01*
X68965249Y-59069997D01*
X68946314Y-58901943D01*
X68909768Y-58797500D01*
X68890456Y-58742310D01*
X68890455Y-58742309D01*
X68890454Y-58742305D01*
X68890452Y-58742302D01*
X68800481Y-58599115D01*
X68800479Y-58599113D01*
X68800478Y-58599112D01*
X68800477Y-58599110D01*
X68718548Y-58517181D01*
X68685064Y-58455857D01*
X68690048Y-58386166D01*
X68731920Y-58330232D01*
X68797385Y-58305816D01*
X68806230Y-58305500D01*
X72333771Y-58305500D01*
X72400810Y-58325185D01*
G37*
G04 #@! TD.AperFunction*
G04 #@! TA.AperFunction,Conductor*
G36*
X81443834Y-53520047D02*
G01*
X81499767Y-53561919D01*
X81524184Y-53627383D01*
X81524500Y-53636229D01*
X81524500Y-58312601D01*
X81538129Y-58363466D01*
X81536466Y-58433316D01*
X81497303Y-58491178D01*
X81459309Y-58512600D01*
X81382313Y-58539542D01*
X81382302Y-58539547D01*
X81239115Y-58629518D01*
X81239109Y-58629523D01*
X81119523Y-58749109D01*
X81119518Y-58749115D01*
X81029547Y-58892302D01*
X81029542Y-58892313D01*
X80974503Y-59049603D01*
X80933781Y-59106379D01*
X80868828Y-59132126D01*
X80814129Y-59124830D01*
X80709262Y-59085716D01*
X80709260Y-59085715D01*
X80709258Y-59085715D01*
X80651451Y-59079500D01*
X80288561Y-59079500D01*
X80288551Y-59079501D01*
X80230737Y-59085715D01*
X80230734Y-59085716D01*
X80099929Y-59134505D01*
X80099929Y-59134506D01*
X80034309Y-59183628D01*
X79968845Y-59208044D01*
X79900572Y-59193192D01*
X79885691Y-59183628D01*
X79820071Y-59134507D01*
X79820070Y-59134506D01*
X79820068Y-59134505D01*
X79689262Y-59085716D01*
X79689260Y-59085715D01*
X79689258Y-59085715D01*
X79631451Y-59079500D01*
X79268561Y-59079500D01*
X79268551Y-59079501D01*
X79210737Y-59085715D01*
X79210734Y-59085716D01*
X79079929Y-59134505D01*
X79079929Y-59134506D01*
X78961069Y-59223484D01*
X78959169Y-59220946D01*
X78911528Y-59246941D01*
X78841838Y-59241934D01*
X78786833Y-59201253D01*
X78779449Y-59191630D01*
X78699744Y-59087756D01*
X78580831Y-58996511D01*
X78442354Y-58939152D01*
X78428442Y-58937320D01*
X78331068Y-58924500D01*
X78325933Y-58924500D01*
X78258894Y-58904815D01*
X78213139Y-58852011D01*
X78203195Y-58782853D01*
X78232220Y-58719297D01*
X78248511Y-58703947D01*
X78249961Y-58702496D01*
X78249964Y-58702495D01*
X79081995Y-57870464D01*
X79144595Y-57762036D01*
X79177000Y-57641101D01*
X79177000Y-57515899D01*
X79177000Y-56894869D01*
X79196685Y-56827830D01*
X79249489Y-56782075D01*
X79318647Y-56772131D01*
X79341955Y-56777828D01*
X79451939Y-56816313D01*
X79619997Y-56835249D01*
X79620000Y-56835249D01*
X79620003Y-56835249D01*
X79788056Y-56816314D01*
X79799159Y-56812429D01*
X79947690Y-56760456D01*
X79947692Y-56760454D01*
X79947694Y-56760454D01*
X79947697Y-56760452D01*
X80090884Y-56670481D01*
X80090885Y-56670480D01*
X80090890Y-56670477D01*
X80210477Y-56550890D01*
X80224159Y-56529115D01*
X80300452Y-56407697D01*
X80300454Y-56407694D01*
X80300454Y-56407692D01*
X80300456Y-56407690D01*
X80356313Y-56248059D01*
X80356313Y-56248058D01*
X80356314Y-56248056D01*
X80375249Y-56080002D01*
X80375249Y-56079997D01*
X80356314Y-55911943D01*
X80320501Y-55809597D01*
X80300456Y-55752310D01*
X80300455Y-55752309D01*
X80300454Y-55752305D01*
X80300452Y-55752302D01*
X80210481Y-55609115D01*
X80210476Y-55609109D01*
X80090890Y-55489523D01*
X80090884Y-55489518D01*
X79947697Y-55399547D01*
X79947694Y-55399545D01*
X79788056Y-55343685D01*
X79635616Y-55326510D01*
X79571202Y-55299443D01*
X79531647Y-55241849D01*
X79525500Y-55203290D01*
X79525500Y-54912401D01*
X79525500Y-54912399D01*
X79524723Y-54909501D01*
X79520500Y-54877414D01*
X79520500Y-54491739D01*
X79513624Y-54444545D01*
X79510573Y-54423607D01*
X79459198Y-54318517D01*
X79459196Y-54318515D01*
X79459196Y-54318514D01*
X79376485Y-54235803D01*
X79271391Y-54184426D01*
X79206621Y-54174989D01*
X79143120Y-54145844D01*
X79105457Y-54086995D01*
X79100500Y-54052285D01*
X79100500Y-54019500D01*
X79120185Y-53952461D01*
X79172989Y-53906706D01*
X79224500Y-53895500D01*
X79502414Y-53895500D01*
X79534501Y-53899723D01*
X79537399Y-53900500D01*
X79537401Y-53900500D01*
X80437599Y-53900500D01*
X80437601Y-53900500D01*
X80558536Y-53868095D01*
X80629417Y-53827171D01*
X80697315Y-53810699D01*
X80705298Y-53811338D01*
X80721608Y-53813176D01*
X80739999Y-53815249D01*
X80740000Y-53815249D01*
X80740003Y-53815249D01*
X80908056Y-53796314D01*
X80913226Y-53794505D01*
X81067690Y-53740456D01*
X81067692Y-53740454D01*
X81067694Y-53740454D01*
X81067697Y-53740452D01*
X81210884Y-53650481D01*
X81210885Y-53650480D01*
X81210890Y-53650477D01*
X81312819Y-53548548D01*
X81374142Y-53515063D01*
X81443834Y-53520047D01*
G37*
G04 #@! TD.AperFunction*
G04 #@! TA.AperFunction,Conductor*
G36*
X66451295Y-54914168D02*
G01*
X66453285Y-54915182D01*
X66456266Y-54915654D01*
X66459598Y-54917233D01*
X66462569Y-54918199D01*
X66462444Y-54918582D01*
X66519402Y-54945582D01*
X66556334Y-55004893D01*
X66559343Y-55018723D01*
X66559816Y-55021711D01*
X66559819Y-55021720D01*
X66560834Y-55023712D01*
X66561337Y-55026391D01*
X66562834Y-55030999D01*
X66562238Y-55031192D01*
X66573726Y-55092382D01*
X66560834Y-55136288D01*
X66559818Y-55138282D01*
X66559817Y-55138284D01*
X66544500Y-55234996D01*
X66544500Y-55425007D01*
X66559816Y-55521711D01*
X66559817Y-55521714D01*
X66559818Y-55521715D01*
X66560831Y-55523703D01*
X66561335Y-55526385D01*
X66562833Y-55530996D01*
X66562237Y-55531189D01*
X66573728Y-55592371D01*
X66560833Y-55636291D01*
X66559817Y-55638284D01*
X66544500Y-55734996D01*
X66544500Y-55925007D01*
X66559817Y-56021713D01*
X66559817Y-56021714D01*
X66563564Y-56029067D01*
X66619211Y-56138281D01*
X66619213Y-56138283D01*
X66619215Y-56138286D01*
X66718619Y-56237690D01*
X66717349Y-56238959D01*
X66752861Y-56285014D01*
X66758839Y-56354628D01*
X66726232Y-56416422D01*
X66713311Y-56427617D01*
X66619215Y-56521713D01*
X66619210Y-56521720D01*
X66559816Y-56638288D01*
X66544500Y-56734996D01*
X66544500Y-56925007D01*
X66559817Y-57021713D01*
X66559817Y-57021714D01*
X66559820Y-57021719D01*
X66619211Y-57138281D01*
X66619213Y-57138283D01*
X66619215Y-57138286D01*
X66718619Y-57237690D01*
X66717349Y-57238959D01*
X66752861Y-57285014D01*
X66758839Y-57354628D01*
X66726232Y-57416422D01*
X66713311Y-57427617D01*
X66619215Y-57521713D01*
X66619210Y-57521720D01*
X66559816Y-57638288D01*
X66544500Y-57734996D01*
X66544500Y-57925007D01*
X66559817Y-58021714D01*
X66560833Y-58023708D01*
X66561336Y-58026391D01*
X66562833Y-58030996D01*
X66562237Y-58031189D01*
X66573728Y-58092377D01*
X66560835Y-58136288D01*
X66559817Y-58138285D01*
X66559816Y-58138289D01*
X66559343Y-58141276D01*
X66557762Y-58144610D01*
X66556800Y-58147571D01*
X66556417Y-58147446D01*
X66529410Y-58204409D01*
X66470097Y-58241337D01*
X66456277Y-58244343D01*
X66453288Y-58244816D01*
X66453279Y-58244819D01*
X66451288Y-58245834D01*
X66448608Y-58246337D01*
X66444001Y-58247834D01*
X66443807Y-58247238D01*
X66382618Y-58258726D01*
X66338712Y-58245834D01*
X66336717Y-58244818D01*
X66336715Y-58244817D01*
X66240003Y-58229500D01*
X66049992Y-58229500D01*
X66049992Y-58229501D01*
X65953285Y-58244817D01*
X65951292Y-58245833D01*
X65948608Y-58246336D01*
X65944004Y-58247833D01*
X65943810Y-58247237D01*
X65882623Y-58258728D01*
X65838703Y-58245831D01*
X65836712Y-58244816D01*
X65740003Y-58229500D01*
X65549992Y-58229500D01*
X65549992Y-58229501D01*
X65453285Y-58244817D01*
X65451292Y-58245833D01*
X65448608Y-58246336D01*
X65444004Y-58247833D01*
X65443810Y-58247237D01*
X65382623Y-58258728D01*
X65338703Y-58245831D01*
X65336712Y-58244816D01*
X65240003Y-58229500D01*
X65049992Y-58229500D01*
X65049992Y-58229501D01*
X64953285Y-58244817D01*
X64951292Y-58245833D01*
X64948608Y-58246336D01*
X64944004Y-58247833D01*
X64943810Y-58247237D01*
X64882623Y-58258728D01*
X64838703Y-58245831D01*
X64836712Y-58244816D01*
X64740003Y-58229500D01*
X64549992Y-58229500D01*
X64549992Y-58229501D01*
X64453285Y-58244817D01*
X64451292Y-58245833D01*
X64448608Y-58246336D01*
X64444004Y-58247833D01*
X64443810Y-58247237D01*
X64382623Y-58258728D01*
X64338703Y-58245831D01*
X64336712Y-58244816D01*
X64240003Y-58229500D01*
X64049992Y-58229500D01*
X64049992Y-58229501D01*
X63953285Y-58244817D01*
X63951292Y-58245833D01*
X63948608Y-58246336D01*
X63944004Y-58247833D01*
X63943810Y-58247237D01*
X63882623Y-58258728D01*
X63838703Y-58245831D01*
X63836712Y-58244816D01*
X63740003Y-58229500D01*
X63549992Y-58229500D01*
X63549992Y-58229501D01*
X63453285Y-58244817D01*
X63451292Y-58245833D01*
X63448608Y-58246336D01*
X63444004Y-58247833D01*
X63443810Y-58247237D01*
X63382623Y-58258728D01*
X63338703Y-58245831D01*
X63336714Y-58244817D01*
X63333725Y-58244344D01*
X63330385Y-58242760D01*
X63327435Y-58241802D01*
X63327558Y-58241420D01*
X63270591Y-58214411D01*
X63233663Y-58155098D01*
X63230654Y-58141268D01*
X63230182Y-58138285D01*
X63229169Y-58136297D01*
X63228667Y-58133623D01*
X63227166Y-58129004D01*
X63227762Y-58128810D01*
X63216270Y-58067632D01*
X63229168Y-58023704D01*
X63230182Y-58021715D01*
X63245500Y-57925003D01*
X63245499Y-57734998D01*
X63245499Y-57734996D01*
X63245499Y-57734992D01*
X63230183Y-57638290D01*
X63230182Y-57638288D01*
X63230182Y-57638285D01*
X63229169Y-57636297D01*
X63228667Y-57633623D01*
X63227166Y-57629004D01*
X63227762Y-57628810D01*
X63216270Y-57567632D01*
X63229168Y-57523704D01*
X63230182Y-57521715D01*
X63245500Y-57425003D01*
X63245499Y-57234998D01*
X63245499Y-57234992D01*
X63230182Y-57138286D01*
X63230182Y-57138285D01*
X63220864Y-57119997D01*
X63170789Y-57021719D01*
X63170785Y-57021715D01*
X63170784Y-57021713D01*
X63071381Y-56922310D01*
X63072651Y-56921039D01*
X63037141Y-56874994D01*
X63031158Y-56805381D01*
X63063761Y-56743585D01*
X63076685Y-56732385D01*
X63170784Y-56638286D01*
X63170785Y-56638285D01*
X63170789Y-56638281D01*
X63230182Y-56521715D01*
X63230862Y-56517426D01*
X63234290Y-56495776D01*
X63245500Y-56425003D01*
X63245499Y-56234998D01*
X63245499Y-56234992D01*
X63230183Y-56138290D01*
X63230182Y-56138288D01*
X63230182Y-56138285D01*
X63229169Y-56136297D01*
X63228667Y-56133623D01*
X63227166Y-56129004D01*
X63227762Y-56128810D01*
X63216270Y-56067632D01*
X63229168Y-56023704D01*
X63230182Y-56021715D01*
X63245500Y-55925003D01*
X63245499Y-55734998D01*
X63245499Y-55734996D01*
X63245499Y-55734992D01*
X63230183Y-55638290D01*
X63230182Y-55638288D01*
X63230182Y-55638285D01*
X63229169Y-55636297D01*
X63228667Y-55633623D01*
X63227166Y-55629004D01*
X63227762Y-55628810D01*
X63216270Y-55567632D01*
X63229168Y-55523704D01*
X63230182Y-55521715D01*
X63245500Y-55425003D01*
X63245499Y-55234998D01*
X63245499Y-55234996D01*
X63245499Y-55234992D01*
X63230183Y-55138290D01*
X63230182Y-55138288D01*
X63230182Y-55138285D01*
X63229169Y-55136297D01*
X63228667Y-55133623D01*
X63227166Y-55129004D01*
X63227762Y-55128810D01*
X63216270Y-55067632D01*
X63229168Y-55023704D01*
X63230182Y-55021715D01*
X63230654Y-55018733D01*
X63232233Y-55015400D01*
X63233199Y-55012431D01*
X63233582Y-55012555D01*
X63260581Y-54955599D01*
X63319892Y-54918665D01*
X63333728Y-54915654D01*
X63336715Y-54915182D01*
X63338702Y-54914169D01*
X63341376Y-54913667D01*
X63345996Y-54912166D01*
X63346189Y-54912762D01*
X63407368Y-54901270D01*
X63451295Y-54914168D01*
X63453285Y-54915182D01*
X63453287Y-54915182D01*
X63453289Y-54915183D01*
X63474751Y-54918582D01*
X63549997Y-54930500D01*
X63740002Y-54930499D01*
X63740007Y-54930499D01*
X63740007Y-54930498D01*
X63836715Y-54915182D01*
X63838702Y-54914169D01*
X63841376Y-54913667D01*
X63845996Y-54912166D01*
X63846189Y-54912762D01*
X63907368Y-54901270D01*
X63951295Y-54914168D01*
X63953285Y-54915182D01*
X63953287Y-54915182D01*
X63953289Y-54915183D01*
X63974751Y-54918582D01*
X64049997Y-54930500D01*
X64240002Y-54930499D01*
X64240007Y-54930499D01*
X64240007Y-54930498D01*
X64336715Y-54915182D01*
X64338702Y-54914169D01*
X64341376Y-54913667D01*
X64345996Y-54912166D01*
X64346189Y-54912762D01*
X64407368Y-54901270D01*
X64451295Y-54914168D01*
X64453285Y-54915182D01*
X64453287Y-54915182D01*
X64453289Y-54915183D01*
X64474751Y-54918582D01*
X64549997Y-54930500D01*
X64740002Y-54930499D01*
X64740007Y-54930499D01*
X64740007Y-54930498D01*
X64836715Y-54915182D01*
X64838702Y-54914169D01*
X64841376Y-54913667D01*
X64845996Y-54912166D01*
X64846189Y-54912762D01*
X64907368Y-54901270D01*
X64951295Y-54914168D01*
X64953285Y-54915182D01*
X64953287Y-54915182D01*
X64953289Y-54915183D01*
X64974751Y-54918582D01*
X65049997Y-54930500D01*
X65240002Y-54930499D01*
X65240007Y-54930499D01*
X65240007Y-54930498D01*
X65336715Y-54915182D01*
X65338702Y-54914169D01*
X65341376Y-54913667D01*
X65345996Y-54912166D01*
X65346189Y-54912762D01*
X65407368Y-54901270D01*
X65451295Y-54914168D01*
X65453285Y-54915182D01*
X65453287Y-54915182D01*
X65453289Y-54915183D01*
X65474751Y-54918582D01*
X65549997Y-54930500D01*
X65740002Y-54930499D01*
X65740007Y-54930499D01*
X65740007Y-54930498D01*
X65836715Y-54915182D01*
X65838702Y-54914169D01*
X65841376Y-54913667D01*
X65845996Y-54912166D01*
X65846189Y-54912762D01*
X65907368Y-54901270D01*
X65951295Y-54914168D01*
X65953285Y-54915182D01*
X65953287Y-54915182D01*
X65953289Y-54915183D01*
X65974751Y-54918582D01*
X66049997Y-54930500D01*
X66240002Y-54930499D01*
X66240007Y-54930499D01*
X66240007Y-54930498D01*
X66336715Y-54915182D01*
X66338702Y-54914169D01*
X66341376Y-54913667D01*
X66345996Y-54912166D01*
X66346189Y-54912762D01*
X66407368Y-54901270D01*
X66451295Y-54914168D01*
G37*
G04 #@! TD.AperFunction*
G04 #@! TA.AperFunction,Conductor*
G36*
X59388455Y-56026603D02*
G01*
X59501939Y-56066313D01*
X59669997Y-56085249D01*
X59670000Y-56085249D01*
X59670003Y-56085249D01*
X59812672Y-56069174D01*
X59881494Y-56081228D01*
X59932874Y-56128577D01*
X59949845Y-56179139D01*
X59950779Y-56187831D01*
X60000069Y-56319985D01*
X60000073Y-56319992D01*
X60016161Y-56341483D01*
X60084597Y-56432903D01*
X60197511Y-56517429D01*
X60329665Y-56566719D01*
X60388085Y-56573000D01*
X60821914Y-56572999D01*
X60880335Y-56566719D01*
X60922791Y-56550884D01*
X60983332Y-56528304D01*
X61053024Y-56523320D01*
X61114346Y-56556805D01*
X61261371Y-56703830D01*
X61294856Y-56765153D01*
X61289872Y-56834845D01*
X61248000Y-56890778D01*
X61235690Y-56898898D01*
X61148039Y-56949502D01*
X61148034Y-56949506D01*
X60608461Y-57489080D01*
X60547138Y-57522565D01*
X60477446Y-57517581D01*
X60433099Y-57489080D01*
X60362216Y-57418197D01*
X60362210Y-57418192D01*
X60219023Y-57328221D01*
X60219020Y-57328219D01*
X60059382Y-57272359D01*
X59891329Y-57253425D01*
X59891323Y-57253425D01*
X59723269Y-57272359D01*
X59563631Y-57328219D01*
X59563628Y-57328221D01*
X59414540Y-57421901D01*
X59413044Y-57419520D01*
X59360077Y-57441120D01*
X59291386Y-57428336D01*
X59240512Y-57380445D01*
X59223500Y-57317759D01*
X59223500Y-56143644D01*
X59243185Y-56076605D01*
X59295989Y-56030850D01*
X59365147Y-56020906D01*
X59388455Y-56026603D01*
G37*
G04 #@! TD.AperFunction*
G04 #@! TA.AperFunction,Conductor*
G36*
X109308961Y-54578845D02*
G01*
X109375845Y-54599041D01*
X109421196Y-54652193D01*
X109432010Y-54702856D01*
X109431983Y-54912762D01*
X109431747Y-56715424D01*
X109412054Y-56782461D01*
X109359244Y-56828209D01*
X109307321Y-56839407D01*
X107249049Y-56832343D01*
X107182078Y-56812429D01*
X107136505Y-56759468D01*
X107126798Y-56690276D01*
X107156041Y-56626820D01*
X107161771Y-56620686D01*
X107260641Y-56521818D01*
X107321964Y-56488334D01*
X107348321Y-56485500D01*
X107858261Y-56485500D01*
X107880971Y-56482191D01*
X107926393Y-56475573D01*
X108031483Y-56424198D01*
X108114198Y-56341483D01*
X108165573Y-56236393D01*
X108175500Y-56168260D01*
X108175500Y-55251740D01*
X108165573Y-55183607D01*
X108114198Y-55078517D01*
X108114196Y-55078515D01*
X108114196Y-55078514D01*
X108031485Y-54995803D01*
X107926391Y-54944426D01*
X107858261Y-54934500D01*
X107858260Y-54934500D01*
X106941740Y-54934500D01*
X106941739Y-54934500D01*
X106873608Y-54944426D01*
X106768514Y-54995803D01*
X106685803Y-55078514D01*
X106634426Y-55183608D01*
X106624500Y-55251739D01*
X106624500Y-55761679D01*
X106604815Y-55828718D01*
X106588181Y-55849360D01*
X106017360Y-56420181D01*
X105956037Y-56453666D01*
X105929679Y-56456500D01*
X101089500Y-56456500D01*
X101022461Y-56436815D01*
X100976706Y-56384011D01*
X100965500Y-56332501D01*
X100965499Y-56093561D01*
X100965498Y-56093551D01*
X100964606Y-56085249D01*
X100959284Y-56035738D01*
X100954054Y-56021715D01*
X100953318Y-56019740D01*
X100945500Y-55976408D01*
X100945500Y-55561994D01*
X100953319Y-55518659D01*
X100964284Y-55489262D01*
X100965091Y-55481752D01*
X100970499Y-55431459D01*
X100970499Y-55431448D01*
X100970500Y-55431443D01*
X100970499Y-54968558D01*
X100964463Y-54912399D01*
X100964284Y-54910737D01*
X100964283Y-54910734D01*
X100915494Y-54779929D01*
X100915493Y-54779928D01*
X100865706Y-54713420D01*
X100841289Y-54647956D01*
X100856141Y-54579683D01*
X100905547Y-54530278D01*
X100965917Y-54515114D01*
X109308961Y-54578845D01*
G37*
G04 #@! TD.AperFunction*
G04 #@! TA.AperFunction,Conductor*
G36*
X97492539Y-54670185D02*
G01*
X97538294Y-54722989D01*
X97549500Y-54774500D01*
X97549500Y-54851408D01*
X97541682Y-54894741D01*
X97535716Y-54910735D01*
X97535716Y-54910736D01*
X97529500Y-54968540D01*
X97529500Y-55431439D01*
X97529501Y-55431448D01*
X97535715Y-55489262D01*
X97535717Y-55489267D01*
X97542650Y-55507856D01*
X97547634Y-55577547D01*
X97514148Y-55638870D01*
X97452825Y-55672354D01*
X97413215Y-55674477D01*
X97366915Y-55669500D01*
X97366907Y-55669500D01*
X96933087Y-55669500D01*
X96933081Y-55669501D01*
X96874664Y-55675780D01*
X96742514Y-55725069D01*
X96742507Y-55725073D01*
X96629597Y-55809597D01*
X96545073Y-55922507D01*
X96545069Y-55922514D01*
X96495899Y-56054348D01*
X96495781Y-56054665D01*
X96489500Y-56113085D01*
X96489500Y-56113093D01*
X96489500Y-56236678D01*
X96469815Y-56303717D01*
X96453185Y-56324354D01*
X96291358Y-56486182D01*
X96230037Y-56519666D01*
X96203679Y-56522500D01*
X95913295Y-56522500D01*
X95846256Y-56502815D01*
X95800501Y-56450011D01*
X95790557Y-56380853D01*
X95796253Y-56357546D01*
X95820568Y-56288056D01*
X95836313Y-56243059D01*
X95849212Y-56128577D01*
X95855249Y-56075002D01*
X95855249Y-56074997D01*
X95837700Y-55919252D01*
X95836313Y-55906941D01*
X95780456Y-55747310D01*
X95760760Y-55715965D01*
X95741761Y-55648733D01*
X95762128Y-55581898D01*
X95778069Y-55562320D01*
X96653572Y-54686819D01*
X96714895Y-54653334D01*
X96741253Y-54650500D01*
X97425500Y-54650500D01*
X97492539Y-54670185D01*
G37*
G04 #@! TD.AperFunction*
G04 #@! TA.AperFunction,Conductor*
G36*
X74364718Y-51575185D02*
G01*
X74410473Y-51627989D01*
X74420417Y-51697147D01*
X74391392Y-51760703D01*
X74385360Y-51767181D01*
X73964360Y-52188181D01*
X73903037Y-52221666D01*
X73876679Y-52224500D01*
X73512272Y-52224500D01*
X73399764Y-52239313D01*
X73399763Y-52239313D01*
X73259770Y-52297300D01*
X73259767Y-52297301D01*
X73259767Y-52297302D01*
X73139549Y-52389549D01*
X73078183Y-52469523D01*
X73047300Y-52509770D01*
X72989313Y-52649763D01*
X72989313Y-52649764D01*
X72974500Y-52762272D01*
X72974500Y-53287727D01*
X72986708Y-53380452D01*
X72989026Y-53398059D01*
X72989313Y-53400235D01*
X72989313Y-53400236D01*
X73042694Y-53529110D01*
X73047302Y-53540233D01*
X73139549Y-53660451D01*
X73259767Y-53752698D01*
X73399764Y-53810687D01*
X73512280Y-53825500D01*
X73909461Y-53825500D01*
X73971458Y-53842111D01*
X74016464Y-53868095D01*
X74137399Y-53900500D01*
X74262601Y-53900500D01*
X74365826Y-53900500D01*
X74432865Y-53920185D01*
X74478620Y-53972989D01*
X74489045Y-54038383D01*
X74485689Y-54068174D01*
X74484751Y-54076499D01*
X74484751Y-54076502D01*
X74503685Y-54244556D01*
X74559545Y-54404194D01*
X74559547Y-54404197D01*
X74649518Y-54547384D01*
X74649523Y-54547390D01*
X74769109Y-54666976D01*
X74769115Y-54666981D01*
X74912302Y-54756952D01*
X74912305Y-54756954D01*
X74912309Y-54756955D01*
X74912310Y-54756956D01*
X74962448Y-54774500D01*
X75071943Y-54812814D01*
X75239997Y-54831749D01*
X75240000Y-54831749D01*
X75240003Y-54831749D01*
X75408056Y-54812814D01*
X75452364Y-54797310D01*
X75567690Y-54756956D01*
X75567692Y-54756954D01*
X75567694Y-54756954D01*
X75567697Y-54756952D01*
X75710884Y-54666981D01*
X75710885Y-54666980D01*
X75710890Y-54666977D01*
X75830477Y-54547390D01*
X75886313Y-54458528D01*
X75938648Y-54412237D01*
X75991307Y-54400500D01*
X76455500Y-54400500D01*
X76522539Y-54420185D01*
X76568294Y-54472989D01*
X76579500Y-54524500D01*
X76579500Y-54877414D01*
X76575276Y-54909504D01*
X76574500Y-54912399D01*
X76574500Y-55311679D01*
X76554815Y-55378718D01*
X76538181Y-55399360D01*
X75629360Y-56308181D01*
X75568037Y-56341666D01*
X75541679Y-56344500D01*
X73718321Y-56344500D01*
X73651282Y-56324815D01*
X73630640Y-56308181D01*
X71271819Y-53949360D01*
X71238334Y-53888037D01*
X71235500Y-53861679D01*
X71235500Y-52267229D01*
X71255185Y-52200190D01*
X71271819Y-52179548D01*
X71305593Y-52145774D01*
X71350477Y-52100890D01*
X71361822Y-52082835D01*
X71440452Y-51957697D01*
X71440454Y-51957694D01*
X71440454Y-51957692D01*
X71440456Y-51957690D01*
X71496313Y-51798059D01*
X71496313Y-51798057D01*
X71496314Y-51798055D01*
X71511236Y-51665617D01*
X71538302Y-51601203D01*
X71595897Y-51561648D01*
X71634456Y-51555500D01*
X74297679Y-51555500D01*
X74364718Y-51575185D01*
G37*
G04 #@! TD.AperFunction*
G04 #@! TA.AperFunction,Conductor*
G36*
X72297401Y-47189671D02*
G01*
X72362307Y-47230454D01*
X72362305Y-47230454D01*
X72362309Y-47230455D01*
X72362310Y-47230456D01*
X72402946Y-47244675D01*
X72521943Y-47286314D01*
X72689997Y-47305249D01*
X72690000Y-47305249D01*
X72690003Y-47305249D01*
X72799696Y-47292889D01*
X72858059Y-47286313D01*
X73017690Y-47230456D01*
X73035067Y-47219537D01*
X73102300Y-47200534D01*
X73169136Y-47220898D01*
X73176518Y-47226145D01*
X73208268Y-47250508D01*
X73269765Y-47297697D01*
X73269767Y-47297698D01*
X73409764Y-47355687D01*
X73522280Y-47370500D01*
X73886679Y-47370500D01*
X73953718Y-47390185D01*
X73974360Y-47406819D01*
X74178036Y-47610495D01*
X74286464Y-47673095D01*
X74407399Y-47705500D01*
X74532601Y-47705500D01*
X75505500Y-47705500D01*
X75572539Y-47725185D01*
X75618294Y-47777989D01*
X75629500Y-47829500D01*
X75629500Y-47883260D01*
X75639426Y-47951391D01*
X75651599Y-47976291D01*
X75663358Y-48045164D01*
X75636014Y-48109461D01*
X75578250Y-48148768D01*
X75546889Y-48153698D01*
X75546920Y-48153971D01*
X75540705Y-48154671D01*
X75540198Y-48154751D01*
X75539997Y-48154751D01*
X75371943Y-48173685D01*
X75212305Y-48229545D01*
X75212302Y-48229547D01*
X75069115Y-48319518D01*
X75069109Y-48319523D01*
X74949523Y-48439109D01*
X74949518Y-48439115D01*
X74859547Y-48582302D01*
X74859545Y-48582305D01*
X74803685Y-48741943D01*
X74784751Y-48909997D01*
X74784751Y-48910002D01*
X74803685Y-49078056D01*
X74859545Y-49237694D01*
X74859547Y-49237697D01*
X74949518Y-49380884D01*
X74949523Y-49380890D01*
X75028181Y-49459548D01*
X75061666Y-49520871D01*
X75064500Y-49547229D01*
X75064500Y-49891679D01*
X75044815Y-49958718D01*
X75028181Y-49979360D01*
X74439360Y-50568181D01*
X74378037Y-50601666D01*
X74351679Y-50604500D01*
X71372601Y-50604500D01*
X71247399Y-50604500D01*
X71166775Y-50626103D01*
X71126463Y-50636905D01*
X71018037Y-50699503D01*
X70876630Y-50840910D01*
X70815306Y-50874394D01*
X70775067Y-50876448D01*
X70760004Y-50874751D01*
X70759997Y-50874751D01*
X70591943Y-50893685D01*
X70432305Y-50949545D01*
X70432302Y-50949547D01*
X70289115Y-51039518D01*
X70289109Y-51039523D01*
X70169523Y-51159109D01*
X70169518Y-51159115D01*
X70079547Y-51302302D01*
X70079545Y-51302305D01*
X70023685Y-51461943D01*
X70004751Y-51629997D01*
X70004751Y-51630002D01*
X70023685Y-51798056D01*
X70079545Y-51957694D01*
X70079547Y-51957697D01*
X70169518Y-52100884D01*
X70169523Y-52100890D01*
X70248181Y-52179548D01*
X70281666Y-52240871D01*
X70284500Y-52267229D01*
X70284500Y-54047399D01*
X70284500Y-54172601D01*
X70316905Y-54293536D01*
X70378955Y-54401012D01*
X70379504Y-54401962D01*
X70379506Y-54401965D01*
X71145336Y-55167795D01*
X71178821Y-55229118D01*
X71173837Y-55298810D01*
X71131965Y-55354743D01*
X71066501Y-55379160D01*
X71043772Y-55378696D01*
X70920004Y-55364751D01*
X70920003Y-55364751D01*
X70920001Y-55364751D01*
X70920000Y-55364751D01*
X70904929Y-55366448D01*
X70836108Y-55354392D01*
X70803368Y-55330909D01*
X70399466Y-54927007D01*
X70399464Y-54927005D01*
X70388658Y-54920766D01*
X70340444Y-54870199D01*
X70336099Y-54860832D01*
X70307700Y-54792271D01*
X70307700Y-54792270D01*
X70298233Y-54779932D01*
X70215451Y-54672049D01*
X70095233Y-54579802D01*
X70095229Y-54579800D01*
X70012981Y-54545732D01*
X69955236Y-54521813D01*
X69934781Y-54519120D01*
X69842727Y-54507000D01*
X69842720Y-54507000D01*
X69267280Y-54507000D01*
X69267272Y-54507000D01*
X69175219Y-54519120D01*
X69154764Y-54521813D01*
X69154763Y-54521813D01*
X69146707Y-54522874D01*
X69146394Y-54520498D01*
X69088732Y-54519120D01*
X69030873Y-54479952D01*
X69003375Y-54415721D01*
X69002500Y-54401012D01*
X69002500Y-52431241D01*
X69002406Y-52430890D01*
X68970095Y-52310305D01*
X68907495Y-52201877D01*
X68818964Y-52113346D01*
X68711819Y-52006201D01*
X68678334Y-51944878D01*
X68675500Y-51918520D01*
X68675500Y-48424500D01*
X68695185Y-48357461D01*
X68747989Y-48311706D01*
X68799500Y-48300500D01*
X70033261Y-48300500D01*
X70059073Y-48296739D01*
X70101393Y-48290573D01*
X70206483Y-48239198D01*
X70289198Y-48156483D01*
X70340573Y-48051393D01*
X70340573Y-48051391D01*
X70340574Y-48051390D01*
X70343416Y-48042193D01*
X70346060Y-48043010D01*
X70368946Y-47993132D01*
X70427790Y-47955461D01*
X70462515Y-47950500D01*
X70815503Y-47950500D01*
X70882542Y-47970185D01*
X70928297Y-48022989D01*
X70939503Y-48074500D01*
X70939503Y-48191918D01*
X70945782Y-48250335D01*
X70995071Y-48382485D01*
X70995075Y-48382492D01*
X71011600Y-48404566D01*
X71079599Y-48495403D01*
X71192513Y-48579929D01*
X71324667Y-48629219D01*
X71383087Y-48635500D01*
X71816916Y-48635499D01*
X71875337Y-48629219D01*
X72007491Y-48579929D01*
X72120405Y-48495403D01*
X72204931Y-48382489D01*
X72254221Y-48250335D01*
X72260502Y-48191915D01*
X72260501Y-47818086D01*
X72254221Y-47759665D01*
X72245917Y-47737400D01*
X72208321Y-47636599D01*
X72200503Y-47593266D01*
X72200503Y-47570947D01*
X72200503Y-47570945D01*
X72159579Y-47418217D01*
X72124180Y-47356905D01*
X72124180Y-47356904D01*
X72124125Y-47356810D01*
X72107561Y-47288932D01*
X72130323Y-47222875D01*
X72185185Y-47179609D01*
X72254729Y-47172873D01*
X72297401Y-47189671D01*
G37*
G04 #@! TD.AperFunction*
G04 #@! TA.AperFunction,Conductor*
G36*
X61431718Y-51683185D02*
G01*
X61452360Y-51699819D01*
X61676481Y-51923940D01*
X61709966Y-51985263D01*
X61712800Y-52011621D01*
X61712800Y-52648374D01*
X61693115Y-52715413D01*
X61676481Y-52736055D01*
X61597823Y-52814712D01*
X61597818Y-52814718D01*
X61507847Y-52957905D01*
X61507845Y-52957908D01*
X61451985Y-53117547D01*
X61444962Y-53179884D01*
X61417895Y-53244298D01*
X61360300Y-53283853D01*
X61321742Y-53290000D01*
X59847101Y-53290000D01*
X59721899Y-53290000D01*
X59641275Y-53311603D01*
X59600963Y-53322405D01*
X59492537Y-53385004D01*
X59492534Y-53385006D01*
X59057181Y-53820360D01*
X58995858Y-53853845D01*
X58926166Y-53848861D01*
X58870233Y-53806989D01*
X58845816Y-53741525D01*
X58845500Y-53732679D01*
X58845500Y-52528321D01*
X58865185Y-52461282D01*
X58881819Y-52440640D01*
X59622640Y-51699819D01*
X59683963Y-51666334D01*
X59710321Y-51663500D01*
X61364679Y-51663500D01*
X61431718Y-51683185D01*
G37*
G04 #@! TD.AperFunction*
G04 #@! TA.AperFunction,Conductor*
G36*
X85985503Y-48866565D02*
G01*
X85985504Y-48866565D01*
X86294499Y-48866565D01*
X86372123Y-48855255D01*
X86407879Y-48855255D01*
X86485503Y-48866565D01*
X86485504Y-48866565D01*
X86794499Y-48866565D01*
X86872123Y-48855255D01*
X86907879Y-48855255D01*
X86985504Y-48866565D01*
X86985505Y-48866565D01*
X87294498Y-48866565D01*
X87294499Y-48866565D01*
X87355080Y-48857738D01*
X87424256Y-48867551D01*
X87477147Y-48913206D01*
X87495662Y-48962564D01*
X87497236Y-48973367D01*
X87497237Y-49009122D01*
X87495854Y-49018615D01*
X87485927Y-49086748D01*
X87485927Y-49395742D01*
X87494876Y-49457160D01*
X87497237Y-49473368D01*
X87497237Y-49509122D01*
X87495854Y-49518616D01*
X87485927Y-49586749D01*
X87485927Y-49895743D01*
X87495489Y-49961372D01*
X87497237Y-49973369D01*
X87497237Y-50009123D01*
X87495854Y-50018616D01*
X87485927Y-50086749D01*
X87485927Y-50395743D01*
X87492528Y-50441046D01*
X87497237Y-50473369D01*
X87497237Y-50509123D01*
X87495854Y-50518617D01*
X87485927Y-50586750D01*
X87485927Y-50895744D01*
X87494026Y-50951329D01*
X87497237Y-50973369D01*
X87497236Y-51009124D01*
X87495662Y-51019927D01*
X87466518Y-51083428D01*
X87407669Y-51121092D01*
X87355081Y-51124754D01*
X87294498Y-51115927D01*
X86985504Y-51115927D01*
X86929366Y-51124106D01*
X86907877Y-51127237D01*
X86872123Y-51127237D01*
X86855080Y-51124754D01*
X86794497Y-51115927D01*
X86485503Y-51115927D01*
X86424920Y-51124754D01*
X86407877Y-51127237D01*
X86372123Y-51127237D01*
X86355080Y-51124754D01*
X86294497Y-51115927D01*
X85985503Y-51115927D01*
X85929365Y-51124106D01*
X85907876Y-51127237D01*
X85872122Y-51127237D01*
X85855079Y-51124754D01*
X85794496Y-51115927D01*
X85485502Y-51115927D01*
X85450053Y-51121092D01*
X85424917Y-51124754D01*
X85355740Y-51114939D01*
X85302851Y-51069283D01*
X85284337Y-51019927D01*
X85282763Y-51009124D01*
X85282763Y-50973368D01*
X85286168Y-50950002D01*
X85294073Y-50895744D01*
X85294073Y-50586750D01*
X85293116Y-50580185D01*
X85282763Y-50509124D01*
X85282763Y-50473368D01*
X85294073Y-50395743D01*
X85294073Y-50086748D01*
X85282763Y-50009124D01*
X85282763Y-49973368D01*
X85294073Y-49895743D01*
X85294073Y-49586748D01*
X85282763Y-49509123D01*
X85282763Y-49473367D01*
X85294073Y-49395742D01*
X85294073Y-49086747D01*
X85282763Y-49009123D01*
X85282763Y-48973367D01*
X85284337Y-48962564D01*
X85313481Y-48899063D01*
X85372330Y-48861399D01*
X85424919Y-48857738D01*
X85485502Y-48866565D01*
X85485503Y-48866565D01*
X85794498Y-48866565D01*
X85872122Y-48855255D01*
X85907878Y-48855255D01*
X85985503Y-48866565D01*
G37*
G04 #@! TD.AperFunction*
G04 #@! TA.AperFunction,Conductor*
G36*
X79464501Y-47704723D02*
G01*
X79467399Y-47705500D01*
X80361179Y-47705500D01*
X80428218Y-47725185D01*
X80448860Y-47741819D01*
X80820909Y-48113868D01*
X80854394Y-48175191D01*
X80856448Y-48215429D01*
X80854859Y-48229547D01*
X80854751Y-48230502D01*
X80873685Y-48398556D01*
X80929545Y-48558194D01*
X80929547Y-48558197D01*
X81019518Y-48701384D01*
X81019523Y-48701390D01*
X81139109Y-48820976D01*
X81139115Y-48820981D01*
X81282302Y-48910952D01*
X81282305Y-48910954D01*
X81282309Y-48910955D01*
X81282310Y-48910956D01*
X81354913Y-48936360D01*
X81441943Y-48966814D01*
X81609997Y-48985749D01*
X81610000Y-48985749D01*
X81610002Y-48985749D01*
X81648616Y-48981398D01*
X81717438Y-48993452D01*
X81768817Y-49040801D01*
X81786500Y-49104618D01*
X81786500Y-49139399D01*
X81786500Y-49264601D01*
X81818905Y-49385536D01*
X81869613Y-49473367D01*
X81881504Y-49493962D01*
X81881506Y-49493965D01*
X82584703Y-50197162D01*
X82618188Y-50258485D01*
X82613204Y-50328177D01*
X82571332Y-50384110D01*
X82544475Y-50399404D01*
X82443941Y-50441046D01*
X82443938Y-50441047D01*
X82443938Y-50441048D01*
X82323720Y-50533295D01*
X82231473Y-50653513D01*
X82231472Y-50653515D01*
X82226526Y-50659961D01*
X82225119Y-50658881D01*
X82181784Y-50700193D01*
X82157071Y-50709746D01*
X82097722Y-50725649D01*
X82097713Y-50725653D01*
X82051856Y-50752128D01*
X81983956Y-50768599D01*
X81917929Y-50745746D01*
X81874740Y-50690824D01*
X81868099Y-50621271D01*
X81872815Y-50603790D01*
X81906313Y-50508059D01*
X81920397Y-50383059D01*
X81925249Y-50340002D01*
X81925249Y-50339997D01*
X81906314Y-50171943D01*
X81875860Y-50084913D01*
X81850456Y-50012310D01*
X81850455Y-50012309D01*
X81850454Y-50012305D01*
X81850452Y-50012302D01*
X81760481Y-49869115D01*
X81760476Y-49869109D01*
X81640890Y-49749523D01*
X81640884Y-49749518D01*
X81497697Y-49659547D01*
X81497694Y-49659545D01*
X81338056Y-49603685D01*
X81170003Y-49584751D01*
X81169997Y-49584751D01*
X81001943Y-49603685D01*
X80842305Y-49659545D01*
X80842302Y-49659547D01*
X80699115Y-49749518D01*
X80699109Y-49749523D01*
X80620452Y-49828181D01*
X80559129Y-49861666D01*
X80532771Y-49864500D01*
X80128321Y-49864500D01*
X80061282Y-49844815D01*
X80040640Y-49828181D01*
X79491819Y-49279360D01*
X79458334Y-49218037D01*
X79455500Y-49191679D01*
X79455500Y-48717401D01*
X79455500Y-48717399D01*
X79454723Y-48714501D01*
X79450500Y-48682414D01*
X79450500Y-48296739D01*
X79443739Y-48250335D01*
X79440573Y-48228607D01*
X79389198Y-48123517D01*
X79389196Y-48123515D01*
X79389196Y-48123514D01*
X79306485Y-48040803D01*
X79201391Y-47989426D01*
X79136621Y-47979989D01*
X79073120Y-47950844D01*
X79035457Y-47891995D01*
X79030500Y-47857285D01*
X79030500Y-47824500D01*
X79050185Y-47757461D01*
X79102989Y-47711706D01*
X79154500Y-47700500D01*
X79432414Y-47700500D01*
X79464501Y-47704723D01*
G37*
G04 #@! TD.AperFunction*
G04 #@! TA.AperFunction,Conductor*
G36*
X94875658Y-42079181D02*
G01*
X94914030Y-42137571D01*
X94919415Y-42173481D01*
X94919620Y-42281321D01*
X94900063Y-42348398D01*
X94883301Y-42369238D01*
X94600678Y-42651863D01*
X94508036Y-42744505D01*
X94480076Y-42772465D01*
X94419504Y-42833036D01*
X94417036Y-42837311D01*
X94375632Y-42880290D01*
X94329107Y-42909525D01*
X94209523Y-43029109D01*
X94209518Y-43029115D01*
X94119547Y-43172302D01*
X94119545Y-43172305D01*
X94063685Y-43331943D01*
X94044751Y-43499997D01*
X94044751Y-43500002D01*
X94063686Y-43668060D01*
X94064656Y-43672309D01*
X94060380Y-43742048D01*
X94019079Y-43798404D01*
X93953866Y-43823485D01*
X93929882Y-43823117D01*
X93900005Y-43819751D01*
X93899997Y-43819751D01*
X93731943Y-43838685D01*
X93572305Y-43894545D01*
X93572302Y-43894547D01*
X93429115Y-43984518D01*
X93429109Y-43984523D01*
X93309523Y-44104109D01*
X93309518Y-44104115D01*
X93219547Y-44247302D01*
X93219545Y-44247305D01*
X93163685Y-44406943D01*
X93144751Y-44574997D01*
X93144751Y-44575002D01*
X93163685Y-44743056D01*
X93219545Y-44902694D01*
X93219547Y-44902697D01*
X93309518Y-45045884D01*
X93309523Y-45045890D01*
X93429109Y-45165476D01*
X93429115Y-45165481D01*
X93572302Y-45255452D01*
X93572305Y-45255454D01*
X93572309Y-45255455D01*
X93572310Y-45255456D01*
X93611560Y-45269190D01*
X93731943Y-45311314D01*
X93899997Y-45330249D01*
X93900000Y-45330249D01*
X93900003Y-45330249D01*
X94068056Y-45311314D01*
X94068059Y-45311313D01*
X94227690Y-45255456D01*
X94227692Y-45255454D01*
X94227694Y-45255454D01*
X94227697Y-45255452D01*
X94370884Y-45165481D01*
X94370885Y-45165480D01*
X94370890Y-45165477D01*
X94449548Y-45086819D01*
X94510871Y-45053334D01*
X94537229Y-45050500D01*
X94917950Y-45050500D01*
X94984989Y-45070185D01*
X95030744Y-45122989D01*
X95041950Y-45174259D01*
X95044854Y-46669810D01*
X95044854Y-49530387D01*
X95049812Y-49576509D01*
X95050522Y-49589521D01*
X95050698Y-49680106D01*
X95031143Y-49747184D01*
X94978429Y-49793041D01*
X94927451Y-49804345D01*
X92012253Y-49822050D01*
X91945095Y-49802773D01*
X91899021Y-49750248D01*
X91887500Y-49698052D01*
X91887500Y-45086321D01*
X91907185Y-45019282D01*
X91923819Y-44998640D01*
X92928793Y-43993666D01*
X93950495Y-42971964D01*
X94013095Y-42863536D01*
X94045500Y-42742601D01*
X94045500Y-42642062D01*
X94065185Y-42575023D01*
X94117989Y-42529268D01*
X94155614Y-42518841D01*
X94178059Y-42516313D01*
X94337690Y-42460456D01*
X94337692Y-42460454D01*
X94337694Y-42460454D01*
X94337697Y-42460452D01*
X94480884Y-42370481D01*
X94480885Y-42370480D01*
X94480890Y-42370477D01*
X94600477Y-42250890D01*
X94690421Y-42107744D01*
X94742756Y-42061454D01*
X94811809Y-42050806D01*
X94875658Y-42079181D01*
G37*
G04 #@! TD.AperFunction*
G04 #@! TA.AperFunction,Conductor*
G36*
X64070703Y-44793608D02*
G01*
X64077181Y-44799640D01*
X65108036Y-45830495D01*
X65216464Y-45893095D01*
X65337399Y-45925500D01*
X65337401Y-45925500D01*
X71902599Y-45925500D01*
X71902601Y-45925500D01*
X71950269Y-45912727D01*
X72020114Y-45914388D01*
X72077978Y-45953549D01*
X72105484Y-46017777D01*
X72093899Y-46086679D01*
X72087355Y-46098473D01*
X72009545Y-46222307D01*
X71953685Y-46381943D01*
X71934751Y-46549997D01*
X71934751Y-46550002D01*
X71953685Y-46718056D01*
X72009146Y-46876552D01*
X72012707Y-46946331D01*
X71977978Y-47006959D01*
X71915985Y-47039186D01*
X71846409Y-47032781D01*
X71804423Y-47005188D01*
X71787590Y-46988355D01*
X71787588Y-46988352D01*
X71668717Y-46869481D01*
X71668716Y-46869480D01*
X71567184Y-46810861D01*
X71567183Y-46810860D01*
X71531783Y-46790422D01*
X71475881Y-46775443D01*
X71379057Y-46749499D01*
X71220943Y-46749499D01*
X71213347Y-46749499D01*
X71213331Y-46749500D01*
X70462515Y-46749500D01*
X70395476Y-46729815D01*
X70349721Y-46677011D01*
X70344009Y-46657623D01*
X70343416Y-46657807D01*
X70340574Y-46648609D01*
X70311700Y-46589546D01*
X70289198Y-46543517D01*
X70289196Y-46543515D01*
X70289196Y-46543514D01*
X70206485Y-46460803D01*
X70101391Y-46409426D01*
X70033261Y-46399500D01*
X70033260Y-46399500D01*
X68566740Y-46399500D01*
X68566739Y-46399500D01*
X68498608Y-46409426D01*
X68393514Y-46460803D01*
X68310803Y-46543514D01*
X68259426Y-46648608D01*
X68249500Y-46716739D01*
X68249500Y-47026679D01*
X68229815Y-47093718D01*
X68213181Y-47114360D01*
X67819506Y-47508034D01*
X67819504Y-47508037D01*
X67756905Y-47616463D01*
X67741711Y-47673167D01*
X67725382Y-47734110D01*
X67724500Y-47737400D01*
X67724500Y-47975500D01*
X67704815Y-48042539D01*
X67652011Y-48088294D01*
X67600500Y-48099500D01*
X66366739Y-48099500D01*
X66298608Y-48109426D01*
X66193514Y-48160803D01*
X66110803Y-48243514D01*
X66059425Y-48348609D01*
X66056584Y-48357807D01*
X66053939Y-48356989D01*
X66031054Y-48406868D01*
X65972210Y-48444539D01*
X65937485Y-48449500D01*
X65110097Y-48449500D01*
X65043058Y-48429815D01*
X65022416Y-48413181D01*
X64996818Y-48387583D01*
X64963333Y-48326260D01*
X64960499Y-48299902D01*
X64960499Y-48023085D01*
X64960498Y-48023079D01*
X64960488Y-48022989D01*
X64954219Y-47964663D01*
X64938911Y-47923621D01*
X64904930Y-47832512D01*
X64904929Y-47832509D01*
X64820403Y-47719595D01*
X64707489Y-47635069D01*
X64707487Y-47635068D01*
X64707485Y-47635067D01*
X64575338Y-47585780D01*
X64575337Y-47585779D01*
X64575335Y-47585779D01*
X64516915Y-47579498D01*
X64516905Y-47579498D01*
X64083087Y-47579498D01*
X64083081Y-47579499D01*
X64024661Y-47585779D01*
X64018014Y-47587350D01*
X63948245Y-47583609D01*
X63891573Y-47542741D01*
X63865993Y-47477723D01*
X63865500Y-47466673D01*
X63865500Y-44887321D01*
X63885185Y-44820282D01*
X63937989Y-44774527D01*
X64007147Y-44764583D01*
X64070703Y-44793608D01*
G37*
G04 #@! TD.AperFunction*
G04 #@! TA.AperFunction,Conductor*
G36*
X85116190Y-47647609D02*
G01*
X85159381Y-47702530D01*
X85168263Y-47748616D01*
X85168263Y-48154024D01*
X85148578Y-48221063D01*
X85095774Y-48266818D01*
X85026616Y-48276762D01*
X85026436Y-48276736D01*
X84976833Y-48269509D01*
X84100675Y-48269509D01*
X84100674Y-48269509D01*
X84032543Y-48279435D01*
X83927449Y-48330812D01*
X83887181Y-48371081D01*
X83825858Y-48404566D01*
X83756166Y-48399582D01*
X83700233Y-48357710D01*
X83675816Y-48292246D01*
X83675500Y-48283400D01*
X83675500Y-47827500D01*
X83695185Y-47760461D01*
X83747989Y-47714706D01*
X83799500Y-47703500D01*
X84809596Y-47703500D01*
X84809598Y-47703500D01*
X84930533Y-47671095D01*
X84982263Y-47641228D01*
X85050164Y-47624756D01*
X85116190Y-47647609D01*
G37*
G04 #@! TD.AperFunction*
G04 #@! TA.AperFunction,Conductor*
G36*
X84016624Y-41041431D02*
G01*
X84056309Y-41087230D01*
X84058152Y-41086194D01*
X84062309Y-41093587D01*
X84147797Y-41206321D01*
X84172620Y-41271633D01*
X84158192Y-41339997D01*
X84147797Y-41356171D01*
X84062310Y-41468902D01*
X84006793Y-41609684D01*
X84001816Y-41651134D01*
X83996171Y-41698144D01*
X83996171Y-42334348D01*
X84000510Y-42370477D01*
X84006793Y-42422807D01*
X84006793Y-42422809D01*
X84006794Y-42422810D01*
X84016426Y-42447234D01*
X84062310Y-42563589D01*
X84153748Y-42684168D01*
X84222096Y-42735997D01*
X84263619Y-42792189D01*
X84271171Y-42834801D01*
X84271171Y-42859272D01*
X84303576Y-42980207D01*
X84366176Y-43088635D01*
X84553792Y-43276251D01*
X84728181Y-43450639D01*
X84761666Y-43511962D01*
X84764500Y-43538320D01*
X84764500Y-46486676D01*
X84744815Y-46553715D01*
X84728181Y-46574357D01*
X84586357Y-46716181D01*
X84525034Y-46749666D01*
X84498676Y-46752500D01*
X83594601Y-46752500D01*
X83469399Y-46752500D01*
X83408931Y-46768702D01*
X83348462Y-46784905D01*
X83348459Y-46784907D01*
X83311498Y-46806246D01*
X83243597Y-46822717D01*
X83177571Y-46799864D01*
X83134381Y-46744942D01*
X83125500Y-46698858D01*
X83125500Y-41808320D01*
X83145185Y-41741281D01*
X83161819Y-41720639D01*
X83824393Y-41058065D01*
X83885716Y-41024580D01*
X83912074Y-41021746D01*
X83949585Y-41021746D01*
X84016624Y-41041431D01*
G37*
G04 #@! TD.AperFunction*
G04 #@! TA.AperFunction,Conductor*
G36*
X77562148Y-40502825D02*
G01*
X77618081Y-40544697D01*
X77642498Y-40610161D01*
X77642814Y-40619007D01*
X77642814Y-40742361D01*
X77623129Y-40809400D01*
X77606495Y-40830042D01*
X77527837Y-40908699D01*
X77527832Y-40908705D01*
X77437861Y-41051892D01*
X77437859Y-41051895D01*
X77381999Y-41211533D01*
X77363065Y-41379587D01*
X77363065Y-41379592D01*
X77381999Y-41547646D01*
X77437859Y-41707284D01*
X77437861Y-41707287D01*
X77527832Y-41850474D01*
X77527837Y-41850480D01*
X77647423Y-41970066D01*
X77647429Y-41970071D01*
X77790616Y-42060042D01*
X77790619Y-42060044D01*
X77790623Y-42060045D01*
X77790624Y-42060046D01*
X77845309Y-42079181D01*
X77950257Y-42115904D01*
X78118311Y-42134839D01*
X78118314Y-42134839D01*
X78118317Y-42134839D01*
X78286370Y-42115904D01*
X78286373Y-42115903D01*
X78446004Y-42060046D01*
X78547343Y-41996369D01*
X78595101Y-41966362D01*
X78595860Y-41967570D01*
X78653320Y-41944108D01*
X78706908Y-41950421D01*
X78763051Y-41970066D01*
X78870935Y-42007816D01*
X79038994Y-42026752D01*
X79054058Y-42025054D01*
X79122878Y-42037107D01*
X79155625Y-42060593D01*
X79418181Y-42323149D01*
X79451666Y-42384472D01*
X79454500Y-42410830D01*
X79454500Y-43379652D01*
X79434815Y-43446691D01*
X79382011Y-43492446D01*
X79312853Y-43502390D01*
X79289546Y-43496694D01*
X79138057Y-43443686D01*
X78970003Y-43424751D01*
X78969997Y-43424751D01*
X78801943Y-43443685D01*
X78642305Y-43499545D01*
X78642302Y-43499547D01*
X78499115Y-43589518D01*
X78499109Y-43589523D01*
X78379523Y-43709109D01*
X78374859Y-43716532D01*
X78372520Y-43720256D01*
X78370428Y-43723585D01*
X78318093Y-43769876D01*
X78249040Y-43780524D01*
X78185191Y-43752149D01*
X78177753Y-43745294D01*
X78083465Y-43651006D01*
X78083464Y-43651005D01*
X77975036Y-43588405D01*
X77975037Y-43588405D01*
X77920463Y-43573782D01*
X77854101Y-43556000D01*
X77854099Y-43556000D01*
X77537229Y-43556000D01*
X77470190Y-43536315D01*
X77449548Y-43519681D01*
X77370890Y-43441023D01*
X77370884Y-43441018D01*
X77227697Y-43351047D01*
X77227694Y-43351045D01*
X77068056Y-43295185D01*
X76900003Y-43276251D01*
X76899997Y-43276251D01*
X76731943Y-43295185D01*
X76572305Y-43351045D01*
X76572302Y-43351047D01*
X76429115Y-43441018D01*
X76429109Y-43441023D01*
X76309523Y-43560609D01*
X76309518Y-43560615D01*
X76219547Y-43703802D01*
X76219545Y-43703805D01*
X76163685Y-43863443D01*
X76144751Y-44031497D01*
X76144751Y-44031502D01*
X76163686Y-44199557D01*
X76196467Y-44293242D01*
X76200028Y-44363021D01*
X76165299Y-44423648D01*
X76103305Y-44455875D01*
X76033730Y-44449469D01*
X75991744Y-44421877D01*
X75920890Y-44351023D01*
X75920884Y-44351018D01*
X75777697Y-44261047D01*
X75777694Y-44261045D01*
X75618056Y-44205185D01*
X75450003Y-44186251D01*
X75449997Y-44186251D01*
X75281943Y-44205185D01*
X75122305Y-44261045D01*
X75122302Y-44261047D01*
X74979115Y-44351018D01*
X74979109Y-44351023D01*
X74859523Y-44470609D01*
X74859518Y-44470615D01*
X74769547Y-44613802D01*
X74769545Y-44613805D01*
X74713685Y-44773443D01*
X74694751Y-44941497D01*
X74694751Y-44941502D01*
X74713685Y-45109556D01*
X74769545Y-45269194D01*
X74769547Y-45269197D01*
X74859518Y-45412384D01*
X74859523Y-45412390D01*
X74979109Y-45531976D01*
X74979115Y-45531981D01*
X75128206Y-45625662D01*
X75126549Y-45628298D01*
X75168200Y-45665960D01*
X75186463Y-45733401D01*
X75165366Y-45800009D01*
X75150173Y-45818459D01*
X75109524Y-45859108D01*
X75109518Y-45859115D01*
X75019547Y-46002302D01*
X75019545Y-46002305D01*
X74963685Y-46161943D01*
X74944751Y-46329997D01*
X74944751Y-46330002D01*
X74963686Y-46498057D01*
X74995699Y-46589546D01*
X74999260Y-46659325D01*
X74964531Y-46719952D01*
X74902538Y-46752179D01*
X74878657Y-46754500D01*
X74759500Y-46754500D01*
X74692461Y-46734815D01*
X74646706Y-46682011D01*
X74635500Y-46630500D01*
X74635500Y-46307286D01*
X74635499Y-46307272D01*
X74633665Y-46293342D01*
X74620687Y-46194764D01*
X74562698Y-46054767D01*
X74470451Y-45934549D01*
X74350233Y-45842302D01*
X74350229Y-45842300D01*
X74235435Y-45794751D01*
X74210236Y-45784313D01*
X74196171Y-45782461D01*
X74097727Y-45769500D01*
X74097720Y-45769500D01*
X73522280Y-45769500D01*
X73522272Y-45769500D01*
X73409764Y-45784313D01*
X73409763Y-45784313D01*
X73269769Y-45842300D01*
X73269767Y-45842301D01*
X73205187Y-45891855D01*
X73140018Y-45917048D01*
X73071573Y-45903009D01*
X73063731Y-45898472D01*
X73017695Y-45869546D01*
X73017694Y-45869545D01*
X72858056Y-45813685D01*
X72690003Y-45794751D01*
X72689997Y-45794751D01*
X72521942Y-45813686D01*
X72460701Y-45835115D01*
X72390922Y-45838676D01*
X72330295Y-45803947D01*
X72298068Y-45741953D01*
X72304474Y-45672378D01*
X72332064Y-45630394D01*
X77431133Y-40531326D01*
X77492456Y-40497841D01*
X77562148Y-40502825D01*
G37*
G04 #@! TD.AperFunction*
G04 #@! TA.AperFunction,Conductor*
G36*
X94828386Y-32021986D02*
G01*
X94874149Y-32074783D01*
X94885361Y-32125621D01*
X94907995Y-36184603D01*
X94907997Y-36185057D01*
X94909507Y-36976449D01*
X94910074Y-37274184D01*
X94910277Y-37380263D01*
X94890720Y-37447340D01*
X94838004Y-37493196D01*
X94786277Y-37504500D01*
X91778321Y-37504500D01*
X91711282Y-37484815D01*
X91690640Y-37468181D01*
X91504090Y-37281631D01*
X91470605Y-37220308D01*
X91468551Y-37180067D01*
X91470249Y-37165000D01*
X91458736Y-37062819D01*
X91451314Y-36996943D01*
X91395454Y-36837305D01*
X91395452Y-36837302D01*
X91305481Y-36694115D01*
X91305476Y-36694109D01*
X91185890Y-36574523D01*
X91185884Y-36574518D01*
X91042697Y-36484547D01*
X91042694Y-36484545D01*
X90883056Y-36428685D01*
X90715003Y-36409751D01*
X90714997Y-36409751D01*
X90546943Y-36428685D01*
X90387305Y-36484545D01*
X90387302Y-36484547D01*
X90244115Y-36574518D01*
X90244109Y-36574523D01*
X90124523Y-36694109D01*
X90124518Y-36694115D01*
X90034547Y-36837302D01*
X90034545Y-36837305D01*
X90008159Y-36912715D01*
X89967437Y-36969491D01*
X89902484Y-36995238D01*
X89875096Y-36993421D01*
X89874979Y-36994466D01*
X89700003Y-36974751D01*
X89700001Y-36974751D01*
X89700000Y-36974751D01*
X89684929Y-36976448D01*
X89616108Y-36964392D01*
X89583368Y-36940909D01*
X88609965Y-35967506D01*
X88609964Y-35967505D01*
X88501536Y-35904905D01*
X88501537Y-35904905D01*
X88453233Y-35891962D01*
X88380601Y-35872500D01*
X88380599Y-35872500D01*
X86766321Y-35872500D01*
X86699282Y-35852815D01*
X86678640Y-35836181D01*
X86291060Y-35448601D01*
X86257575Y-35387278D01*
X86262559Y-35317586D01*
X86304431Y-35261653D01*
X86313464Y-35255493D01*
X86496560Y-35142125D01*
X86496559Y-35142125D01*
X86496562Y-35142124D01*
X86660981Y-34992236D01*
X86795058Y-34814689D01*
X86894229Y-34615528D01*
X86920734Y-34522371D01*
X86958013Y-34463278D01*
X87021323Y-34433721D01*
X87090562Y-34443083D01*
X87143749Y-34488393D01*
X87159266Y-34522372D01*
X87185769Y-34615523D01*
X87185775Y-34615538D01*
X87284938Y-34814683D01*
X87284943Y-34814691D01*
X87419020Y-34992238D01*
X87583437Y-35142123D01*
X87583439Y-35142125D01*
X87772595Y-35259245D01*
X87772596Y-35259245D01*
X87772599Y-35259247D01*
X87980060Y-35339618D01*
X88198757Y-35380500D01*
X88198759Y-35380500D01*
X88421241Y-35380500D01*
X88421243Y-35380500D01*
X88639940Y-35339618D01*
X88847401Y-35259247D01*
X89036562Y-35142124D01*
X89200981Y-34992236D01*
X89335058Y-34814689D01*
X89434229Y-34615528D01*
X89495115Y-34401536D01*
X89515643Y-34180000D01*
X89495115Y-33958464D01*
X89434229Y-33744472D01*
X89434224Y-33744461D01*
X89335061Y-33545316D01*
X89335056Y-33545308D01*
X89200979Y-33367761D01*
X89071801Y-33250000D01*
X91412220Y-33250000D01*
X91412220Y-36710000D01*
X94512220Y-36710000D01*
X94512220Y-33250000D01*
X91412220Y-33250000D01*
X89071801Y-33250000D01*
X89036562Y-33217876D01*
X89036560Y-33217874D01*
X88847404Y-33100754D01*
X88847398Y-33100752D01*
X88639940Y-33020382D01*
X88421243Y-32979500D01*
X88198757Y-32979500D01*
X87980060Y-33020382D01*
X87848864Y-33071207D01*
X87772601Y-33100752D01*
X87772595Y-33100754D01*
X87583439Y-33217874D01*
X87583437Y-33217876D01*
X87419020Y-33367761D01*
X87284943Y-33545308D01*
X87284938Y-33545316D01*
X87185775Y-33744461D01*
X87185769Y-33744476D01*
X87159266Y-33837627D01*
X87121987Y-33896721D01*
X87058677Y-33926278D01*
X86989438Y-33916916D01*
X86936251Y-33871606D01*
X86920734Y-33837627D01*
X86894230Y-33744476D01*
X86894229Y-33744472D01*
X86894224Y-33744461D01*
X86795061Y-33545316D01*
X86795056Y-33545308D01*
X86660979Y-33367761D01*
X86496562Y-33217876D01*
X86496560Y-33217874D01*
X86307404Y-33100754D01*
X86307398Y-33100752D01*
X86099940Y-33020382D01*
X85881243Y-32979500D01*
X85658757Y-32979500D01*
X85440060Y-33020382D01*
X85308864Y-33071207D01*
X85232601Y-33100752D01*
X85232595Y-33100754D01*
X85043439Y-33217874D01*
X85043437Y-33217876D01*
X84879020Y-33367761D01*
X84744943Y-33545308D01*
X84744938Y-33545316D01*
X84645775Y-33744461D01*
X84645769Y-33744476D01*
X84619266Y-33837627D01*
X84581987Y-33896721D01*
X84518677Y-33926278D01*
X84449438Y-33916916D01*
X84396251Y-33871606D01*
X84380734Y-33837627D01*
X84354230Y-33744476D01*
X84354229Y-33744472D01*
X84354224Y-33744461D01*
X84255061Y-33545316D01*
X84255056Y-33545308D01*
X84120979Y-33367761D01*
X83956562Y-33217876D01*
X83956560Y-33217874D01*
X83767404Y-33100754D01*
X83767398Y-33100752D01*
X83559940Y-33020382D01*
X83341243Y-32979500D01*
X83118757Y-32979500D01*
X82900060Y-33020382D01*
X82768864Y-33071207D01*
X82692601Y-33100752D01*
X82692595Y-33100754D01*
X82503439Y-33217874D01*
X82503437Y-33217876D01*
X82339020Y-33367761D01*
X82204943Y-33545308D01*
X82204938Y-33545316D01*
X82105775Y-33744461D01*
X82105769Y-33744476D01*
X82079266Y-33837627D01*
X82041987Y-33896721D01*
X81978677Y-33926278D01*
X81909438Y-33916916D01*
X81856251Y-33871606D01*
X81840734Y-33837627D01*
X81814230Y-33744476D01*
X81814229Y-33744472D01*
X81814224Y-33744461D01*
X81715061Y-33545316D01*
X81715056Y-33545308D01*
X81580979Y-33367761D01*
X81416562Y-33217876D01*
X81416560Y-33217874D01*
X81227404Y-33100754D01*
X81227398Y-33100752D01*
X81019940Y-33020382D01*
X80801243Y-32979500D01*
X80578757Y-32979500D01*
X80360060Y-33020382D01*
X80228864Y-33071207D01*
X80152601Y-33100752D01*
X80152595Y-33100754D01*
X79963439Y-33217874D01*
X79963437Y-33217876D01*
X79799020Y-33367761D01*
X79664943Y-33545308D01*
X79664938Y-33545316D01*
X79565775Y-33744461D01*
X79565769Y-33744476D01*
X79539266Y-33837627D01*
X79501987Y-33896721D01*
X79438677Y-33926278D01*
X79369438Y-33916916D01*
X79316251Y-33871606D01*
X79300734Y-33837627D01*
X79274230Y-33744476D01*
X79274229Y-33744472D01*
X79274224Y-33744461D01*
X79175061Y-33545316D01*
X79175056Y-33545308D01*
X79040979Y-33367761D01*
X78876562Y-33217876D01*
X78876560Y-33217874D01*
X78687404Y-33100754D01*
X78687398Y-33100752D01*
X78479940Y-33020382D01*
X78261243Y-32979500D01*
X78038757Y-32979500D01*
X77820060Y-33020382D01*
X77688864Y-33071207D01*
X77612601Y-33100752D01*
X77612595Y-33100754D01*
X77423439Y-33217874D01*
X77423437Y-33217876D01*
X77259020Y-33367761D01*
X77124943Y-33545308D01*
X77124938Y-33545316D01*
X77045500Y-33704850D01*
X76997997Y-33756087D01*
X76930334Y-33773508D01*
X76863994Y-33751582D01*
X76820039Y-33697271D01*
X76810500Y-33649578D01*
X76810500Y-33296739D01*
X76800573Y-33228608D01*
X76800573Y-33228607D01*
X76749198Y-33123517D01*
X76749196Y-33123515D01*
X76749196Y-33123514D01*
X76666485Y-33040803D01*
X76561391Y-32989426D01*
X76493261Y-32979500D01*
X76493260Y-32979500D01*
X74726740Y-32979500D01*
X74726739Y-32979500D01*
X74658608Y-32989426D01*
X74553514Y-33040803D01*
X74470803Y-33123514D01*
X74419426Y-33228608D01*
X74409500Y-33296739D01*
X74409500Y-35063260D01*
X74419426Y-35131391D01*
X74470803Y-35236485D01*
X74553514Y-35319196D01*
X74553515Y-35319196D01*
X74553517Y-35319198D01*
X74658607Y-35370573D01*
X74692673Y-35375536D01*
X74726739Y-35380500D01*
X74726740Y-35380500D01*
X76493261Y-35380500D01*
X76515971Y-35377191D01*
X76561393Y-35370573D01*
X76666483Y-35319198D01*
X76749198Y-35236483D01*
X76800573Y-35131393D01*
X76810500Y-35063260D01*
X76810500Y-34710421D01*
X76830185Y-34643382D01*
X76882989Y-34597627D01*
X76952147Y-34587683D01*
X77015703Y-34616708D01*
X77045500Y-34655149D01*
X77124938Y-34814683D01*
X77124943Y-34814691D01*
X77259020Y-34992238D01*
X77423437Y-35142123D01*
X77423439Y-35142125D01*
X77612595Y-35259245D01*
X77612596Y-35259245D01*
X77612599Y-35259247D01*
X77820060Y-35339618D01*
X78038757Y-35380500D01*
X78038759Y-35380500D01*
X78261241Y-35380500D01*
X78261243Y-35380500D01*
X78479940Y-35339618D01*
X78687401Y-35259247D01*
X78876562Y-35142124D01*
X79040981Y-34992236D01*
X79175058Y-34814689D01*
X79274229Y-34615528D01*
X79300734Y-34522371D01*
X79338013Y-34463278D01*
X79401323Y-34433721D01*
X79470562Y-34443083D01*
X79523749Y-34488393D01*
X79539266Y-34522372D01*
X79565769Y-34615523D01*
X79565775Y-34615538D01*
X79664938Y-34814683D01*
X79664943Y-34814691D01*
X79799020Y-34992238D01*
X79963437Y-35142123D01*
X79963439Y-35142125D01*
X80152595Y-35259245D01*
X80152596Y-35259245D01*
X80152599Y-35259247D01*
X80360060Y-35339618D01*
X80578757Y-35380500D01*
X80578759Y-35380500D01*
X80801241Y-35380500D01*
X80801243Y-35380500D01*
X81019940Y-35339618D01*
X81227401Y-35259247D01*
X81416562Y-35142124D01*
X81580981Y-34992236D01*
X81715058Y-34814689D01*
X81814229Y-34615528D01*
X81840734Y-34522371D01*
X81878013Y-34463278D01*
X81941323Y-34433721D01*
X82010562Y-34443083D01*
X82063749Y-34488393D01*
X82079266Y-34522372D01*
X82105769Y-34615523D01*
X82105775Y-34615538D01*
X82204938Y-34814683D01*
X82204943Y-34814691D01*
X82339020Y-34992238D01*
X82503437Y-35142123D01*
X82503439Y-35142125D01*
X82523728Y-35154687D01*
X82692599Y-35259247D01*
X82692602Y-35259248D01*
X82695777Y-35261214D01*
X82742413Y-35313241D01*
X82754500Y-35366641D01*
X82754500Y-35707399D01*
X82754500Y-35832601D01*
X82786905Y-35953536D01*
X82849505Y-36061964D01*
X83431593Y-36644052D01*
X83850361Y-37062819D01*
X83883846Y-37124142D01*
X83878862Y-37193834D01*
X83836990Y-37249767D01*
X83771526Y-37274184D01*
X83762680Y-37274500D01*
X79602601Y-37274500D01*
X79477399Y-37274500D01*
X79396775Y-37296103D01*
X79356463Y-37306905D01*
X79248037Y-37369504D01*
X79248034Y-37369506D01*
X71679360Y-44938181D01*
X71618037Y-44971666D01*
X71591679Y-44974500D01*
X69499221Y-44974500D01*
X69432182Y-44954815D01*
X69386427Y-44902011D01*
X69375221Y-44850768D01*
X69375155Y-44820282D01*
X69374854Y-44680794D01*
X69374853Y-44680778D01*
X69369140Y-44618080D01*
X69369137Y-44618060D01*
X69368365Y-44613810D01*
X69361320Y-44574998D01*
X69344622Y-44514260D01*
X69332817Y-44482612D01*
X69325000Y-44439281D01*
X69325000Y-43940719D01*
X69332819Y-43897385D01*
X69342505Y-43871415D01*
X69342506Y-43871410D01*
X69342511Y-43871398D01*
X69359343Y-43809909D01*
X69367161Y-43766308D01*
X69372741Y-43702797D01*
X69370715Y-42764697D01*
X69370714Y-42764681D01*
X69365001Y-42701983D01*
X69364998Y-42701963D01*
X69357182Y-42658904D01*
X69345963Y-42618095D01*
X69340483Y-42598162D01*
X69332819Y-42577614D01*
X69325000Y-42534280D01*
X69325000Y-42035717D01*
X69332817Y-41992386D01*
X69338420Y-41977365D01*
X69355252Y-41915877D01*
X69363070Y-41872276D01*
X69368650Y-41808766D01*
X69366467Y-40797631D01*
X69386006Y-40730553D01*
X69438711Y-40684684D01*
X69490189Y-40673367D01*
X71010000Y-40670000D01*
X70949925Y-33229456D01*
X70945944Y-32131920D01*
X70945943Y-32131912D01*
X70945938Y-32130498D01*
X70965379Y-32063387D01*
X71018017Y-32017441D01*
X71069914Y-32006048D01*
X94761345Y-32002312D01*
X94828386Y-32021986D01*
G37*
G04 #@! TD.AperFunction*
G04 #@! TA.AperFunction,Conductor*
G36*
X109365164Y-42489722D02*
G01*
X109410955Y-42542495D01*
X109422176Y-42591870D01*
X109433501Y-43226143D01*
X109433521Y-43228373D01*
X109433417Y-44026210D01*
X109413724Y-44093247D01*
X109360914Y-44138995D01*
X109309589Y-44150194D01*
X108223513Y-44151702D01*
X108156446Y-44132110D01*
X108110618Y-44079370D01*
X108100579Y-44010225D01*
X108129515Y-43946629D01*
X108133862Y-43941953D01*
X108134195Y-43941486D01*
X108134198Y-43941483D01*
X108185573Y-43836393D01*
X108195500Y-43768260D01*
X108195500Y-42851740D01*
X108185573Y-42783607D01*
X108134198Y-42678517D01*
X108134195Y-42678514D01*
X108134195Y-42678513D01*
X108128227Y-42670153D01*
X108130540Y-42668501D01*
X108104701Y-42621181D01*
X108109685Y-42551489D01*
X108151557Y-42495556D01*
X108217021Y-42471139D01*
X108225765Y-42470823D01*
X109298111Y-42470084D01*
X109365164Y-42489722D01*
G37*
G04 #@! TD.AperFunction*
G04 #@! TA.AperFunction,Conductor*
G36*
X97333346Y-42660291D02*
G01*
X97385604Y-42706669D01*
X97404500Y-42772465D01*
X97404500Y-43006438D01*
X97404501Y-43006448D01*
X97410715Y-43064262D01*
X97410716Y-43064265D01*
X97436043Y-43132165D01*
X97441029Y-43201856D01*
X97407545Y-43263180D01*
X97346222Y-43296666D01*
X97319862Y-43299500D01*
X97261301Y-43299500D01*
X97217968Y-43291682D01*
X97175338Y-43275782D01*
X97175337Y-43275781D01*
X97175335Y-43275781D01*
X97116915Y-43269500D01*
X97116905Y-43269500D01*
X96683087Y-43269500D01*
X96683081Y-43269501D01*
X96624664Y-43275780D01*
X96492514Y-43325069D01*
X96492512Y-43325070D01*
X96377310Y-43411309D01*
X96335095Y-43431815D01*
X96241468Y-43456903D01*
X96241463Y-43456905D01*
X96133037Y-43519504D01*
X96133034Y-43519506D01*
X95676399Y-43976141D01*
X95615076Y-44009626D01*
X95545384Y-44004642D01*
X95489451Y-43962770D01*
X95465034Y-43897306D01*
X95478682Y-43834567D01*
X95477434Y-43833966D01*
X95480454Y-43827694D01*
X95480454Y-43827692D01*
X95480456Y-43827690D01*
X95536313Y-43668059D01*
X95536313Y-43668058D01*
X95536314Y-43668056D01*
X95555249Y-43500002D01*
X95555249Y-43499997D01*
X95536313Y-43331940D01*
X95536313Y-43331938D01*
X95491853Y-43204880D01*
X95488291Y-43135101D01*
X95521211Y-43076246D01*
X95910640Y-42686819D01*
X95971963Y-42653334D01*
X95998321Y-42650500D01*
X97256922Y-42650500D01*
X97256926Y-42650500D01*
X97256929Y-42650498D01*
X97264311Y-42649527D01*
X97333346Y-42660291D01*
G37*
G04 #@! TD.AperFunction*
G04 #@! TA.AperFunction,Conductor*
G36*
X106679988Y-42491573D02*
G01*
X106725779Y-42544346D01*
X106735770Y-42613497D01*
X106710392Y-42669167D01*
X106711773Y-42670153D01*
X106705804Y-42678513D01*
X106654426Y-42783608D01*
X106644500Y-42851739D01*
X106644500Y-43361679D01*
X106624815Y-43428718D01*
X106608181Y-43449360D01*
X106097360Y-43960181D01*
X106036037Y-43993666D01*
X106009679Y-43996500D01*
X100994500Y-43996500D01*
X100927461Y-43976815D01*
X100881706Y-43924011D01*
X100870500Y-43872501D01*
X100870499Y-43668561D01*
X100870498Y-43668551D01*
X100869583Y-43660036D01*
X100864284Y-43610738D01*
X100863074Y-43607494D01*
X100858318Y-43594740D01*
X100850500Y-43551408D01*
X100850500Y-43123589D01*
X100858319Y-43080253D01*
X100864284Y-43064262D01*
X100868063Y-43029110D01*
X100870499Y-43006459D01*
X100870499Y-43006448D01*
X100870500Y-43006443D01*
X100870499Y-42599809D01*
X100890183Y-42532771D01*
X100942987Y-42487016D01*
X100994409Y-42475810D01*
X106612937Y-42471935D01*
X106679988Y-42491573D01*
G37*
G04 #@! TD.AperFunction*
G04 #@! TA.AperFunction,Conductor*
G36*
X65188291Y-40702582D02*
G01*
X65234163Y-40755285D01*
X65245483Y-40806779D01*
X65248307Y-42117311D01*
X65228767Y-42184393D01*
X65176061Y-42230261D01*
X65106924Y-42240354D01*
X65043306Y-42211466D01*
X65036626Y-42205259D01*
X64920890Y-42089523D01*
X64920884Y-42089518D01*
X64777697Y-41999547D01*
X64777694Y-41999545D01*
X64618056Y-41943685D01*
X64450003Y-41924751D01*
X64449997Y-41924751D01*
X64281943Y-41943685D01*
X64122307Y-41999545D01*
X64055472Y-42041541D01*
X63988235Y-42060541D01*
X63921400Y-42040173D01*
X63876186Y-41986906D01*
X63865500Y-41936547D01*
X63865500Y-41782603D01*
X63865501Y-41782590D01*
X63865501Y-41647400D01*
X63865500Y-41647396D01*
X63833097Y-41526469D01*
X63833095Y-41526466D01*
X63833095Y-41526464D01*
X63820132Y-41504011D01*
X63819186Y-41502372D01*
X63819186Y-41502373D01*
X63770496Y-41418037D01*
X63677633Y-41325174D01*
X63677622Y-41325164D01*
X63251136Y-40898677D01*
X63217651Y-40837354D01*
X63222635Y-40767662D01*
X63264507Y-40711729D01*
X63329971Y-40687312D01*
X63338503Y-40686997D01*
X65121213Y-40683047D01*
X65188291Y-40702582D01*
G37*
G04 #@! TD.AperFunction*
G04 #@! TA.AperFunction,Conductor*
G36*
X109307795Y-57204111D02*
G01*
X109374813Y-57223865D01*
X109420513Y-57276716D01*
X109431665Y-57328125D01*
X109431065Y-61899239D01*
X109430437Y-66676016D01*
X109410744Y-66743053D01*
X109357934Y-66788801D01*
X109306437Y-66800000D01*
X99924000Y-66800000D01*
X99856961Y-66780315D01*
X99811206Y-66727511D01*
X99800000Y-66676000D01*
X99800000Y-66050000D01*
X96924748Y-66050000D01*
X96857709Y-66030315D01*
X96811954Y-65977511D01*
X96800750Y-65925255D01*
X96814259Y-63677580D01*
X96834346Y-63610660D01*
X96887424Y-63565223D01*
X96938257Y-63554325D01*
X98205000Y-63554325D01*
X98262317Y-60564256D01*
X98283283Y-60497609D01*
X98336954Y-60452874D01*
X98384685Y-60442645D01*
X99800000Y-60424325D01*
X99804788Y-57331308D01*
X99824576Y-57264299D01*
X99877451Y-57218626D01*
X99928788Y-57207500D01*
X106232802Y-57207500D01*
X106244779Y-57205117D01*
X106245072Y-57206591D01*
X106273314Y-57200986D01*
X109307795Y-57204111D01*
G37*
G04 #@! TD.AperFunction*
G04 #@! TA.AperFunction,Conductor*
G36*
X109309462Y-44534138D02*
G01*
X109376480Y-44553892D01*
X109422180Y-44606743D01*
X109433332Y-44658152D01*
X109433321Y-44747499D01*
X109432095Y-54073989D01*
X109412402Y-54141026D01*
X109359592Y-54186774D01*
X109306817Y-54197966D01*
X99922735Y-54101264D01*
X99855902Y-54080890D01*
X99810694Y-54027617D01*
X99800013Y-53977257D01*
X99800065Y-53508953D01*
X97048948Y-53504579D01*
X96981940Y-53484788D01*
X96936269Y-53431911D01*
X96925149Y-53379595D01*
X96943183Y-51107397D01*
X96963399Y-51040516D01*
X97016564Y-50995181D01*
X97067179Y-50984381D01*
X98334159Y-50984381D01*
X98391479Y-47994154D01*
X98412445Y-47927505D01*
X98466116Y-47882770D01*
X98513696Y-47872543D01*
X99794159Y-47854381D01*
X99830007Y-44870010D01*
X99850495Y-44803212D01*
X99903845Y-44758095D01*
X99953998Y-44747500D01*
X106312799Y-44747500D01*
X106312800Y-44747500D01*
X106414058Y-44705557D01*
X106491557Y-44628058D01*
X106491556Y-44628058D01*
X106550125Y-44569489D01*
X106551908Y-44567705D01*
X106613229Y-44534222D01*
X106639704Y-44531389D01*
X109309462Y-44534138D01*
G37*
G04 #@! TD.AperFunction*
G04 #@! TA.AperFunction,Conductor*
G36*
X97815656Y-57996195D02*
G01*
X97882618Y-58016133D01*
X97928173Y-58069110D01*
X97939179Y-58121353D01*
X97901509Y-62152117D01*
X97881198Y-62218969D01*
X97827969Y-62264229D01*
X97775800Y-62274946D01*
X95730356Y-62246668D01*
X95730345Y-62246668D01*
X95424345Y-62246668D01*
X95357306Y-62226983D01*
X95311551Y-62174179D01*
X95300345Y-62122668D01*
X95300345Y-58111138D01*
X95320030Y-58044099D01*
X95372834Y-57998344D01*
X95424812Y-57987139D01*
X97815656Y-57996195D01*
G37*
G04 #@! TD.AperFunction*
G04 #@! TA.AperFunction,Conductor*
G36*
X96372405Y-62730034D02*
G01*
X96418479Y-62782560D01*
X96430000Y-62834755D01*
X96430000Y-65176000D01*
X96410315Y-65243039D01*
X96357511Y-65288794D01*
X96306000Y-65300000D01*
X95514000Y-65300000D01*
X95446961Y-65280315D01*
X95425190Y-65255190D01*
X95390000Y-65220000D01*
X94180000Y-65220000D01*
X91950000Y-65220000D01*
X91633803Y-65220000D01*
X91566764Y-65200315D01*
X91521009Y-65147511D01*
X91509807Y-65097042D01*
X91491044Y-62864285D01*
X91510165Y-62797082D01*
X91562583Y-62750885D01*
X91614285Y-62739245D01*
X96305249Y-62710757D01*
X96372405Y-62730034D01*
G37*
G04 #@! TD.AperFunction*
G04 #@! TA.AperFunction,Conductor*
G36*
X96373039Y-37879685D02*
G01*
X96418794Y-37932489D01*
X96430000Y-37984000D01*
X96430000Y-40326000D01*
X96410315Y-40393039D01*
X96357511Y-40438794D01*
X96306000Y-40450000D01*
X95514000Y-40450000D01*
X95446961Y-40430315D01*
X95425190Y-40405190D01*
X95390000Y-40370000D01*
X94250000Y-40370000D01*
X92020223Y-40379999D01*
X92019667Y-40380000D01*
X91980000Y-40380000D01*
X91625485Y-40380000D01*
X91558446Y-40360315D01*
X91512691Y-40307511D01*
X91501494Y-40254524D01*
X91511896Y-39380677D01*
X91528541Y-37982522D01*
X91549022Y-37915724D01*
X91602367Y-37870600D01*
X91652532Y-37860000D01*
X96306000Y-37860000D01*
X96373039Y-37879685D01*
G37*
G04 #@! TD.AperFunction*
G04 #@! TA.AperFunction,Conductor*
G36*
X67707895Y-40369685D02*
G01*
X67743957Y-40405108D01*
X67794399Y-40480601D01*
X67876658Y-40535564D01*
X67877260Y-40535966D01*
X67877264Y-40535967D01*
X67950321Y-40550499D01*
X67950324Y-40550500D01*
X67950326Y-40550500D01*
X68886700Y-40550500D01*
X68953739Y-40570185D01*
X68999494Y-40622989D01*
X69010700Y-40674232D01*
X69013151Y-41809533D01*
X69005333Y-41853134D01*
X68975589Y-41932881D01*
X68975587Y-41932889D01*
X68969500Y-41989498D01*
X68969500Y-42580481D01*
X68969501Y-42580490D01*
X68975587Y-42637112D01*
X69007398Y-42722399D01*
X69015216Y-42765465D01*
X69017242Y-43703565D01*
X69009424Y-43747166D01*
X68975589Y-43837882D01*
X68975587Y-43837889D01*
X68969500Y-43894498D01*
X68969500Y-44485481D01*
X68969501Y-44485490D01*
X68975587Y-44542112D01*
X69011537Y-44638496D01*
X69019355Y-44681562D01*
X69019732Y-44856096D01*
X69000192Y-44923178D01*
X68947487Y-44969047D01*
X68896096Y-44980363D01*
X65734096Y-44989636D01*
X65666999Y-44970149D01*
X65621089Y-44917479D01*
X65609732Y-44865906D01*
X65600401Y-40535966D01*
X65600268Y-40474267D01*
X65619808Y-40407185D01*
X65672514Y-40361317D01*
X65724268Y-40350000D01*
X67640856Y-40350000D01*
X67707895Y-40369685D01*
G37*
G04 #@! TD.AperFunction*
G04 #@! TA.AperFunction,Conductor*
G36*
X109140600Y-32456561D02*
G01*
X109207618Y-32476315D01*
X109253318Y-32529167D01*
X109264469Y-32580098D01*
X109299535Y-41975537D01*
X109280101Y-42042650D01*
X109227468Y-42088601D01*
X109175536Y-42100000D01*
X99724000Y-42100000D01*
X99656961Y-42080315D01*
X99611206Y-42027511D01*
X99600000Y-41976000D01*
X99600000Y-41100000D01*
X96968047Y-41077739D01*
X96901177Y-41057488D01*
X96855870Y-41004299D01*
X96845101Y-40952653D01*
X96862926Y-38929596D01*
X96883200Y-38862734D01*
X96936405Y-38817446D01*
X96986921Y-38806690D01*
X98254008Y-38806690D01*
X98254009Y-38806690D01*
X98286847Y-37038826D01*
X98311411Y-35716536D01*
X98332338Y-35649874D01*
X98385982Y-35605107D01*
X98433630Y-35594851D01*
X99714009Y-35576690D01*
X99656434Y-32573197D01*
X99674830Y-32505793D01*
X99726747Y-32459035D01*
X99780537Y-32446821D01*
X109140600Y-32456561D01*
G37*
G04 #@! TD.AperFunction*
G04 #@! TA.AperFunction,Conductor*
G36*
X97915665Y-45403910D02*
G01*
X97982627Y-45423848D01*
X98028182Y-45476825D01*
X98039188Y-45529068D01*
X98001518Y-49559832D01*
X97981207Y-49626684D01*
X97927978Y-49671944D01*
X97875809Y-49682661D01*
X95830365Y-49654383D01*
X95830354Y-49654383D01*
X95524354Y-49654383D01*
X95457315Y-49634698D01*
X95411560Y-49581894D01*
X95400354Y-49530383D01*
X95400354Y-45518853D01*
X95420039Y-45451814D01*
X95472843Y-45406059D01*
X95524821Y-45394854D01*
X97915665Y-45403910D01*
G37*
G04 #@! TD.AperFunction*
M02*
