M48
; DRILL file {KiCad 8.0.1} date 2024-04-21T16:15:18+0300
; FORMAT={-:-/ absolute / inch / decimal}
; #@! TF.CreationDate,2024-04-21T16:15:18+03:00
; #@! TF.GenerationSoftware,Kicad,Pcbnew,8.0.1
; #@! TF.FileFunction,Plated,1,2,Blind
FMAT,2
INCH
; #@! TA.AperFunction,Plated,Buried,ViaDrill
T1C0.0157
%
G90
G05
T1
X1.8484Y-1.4091
X1.8484Y-1.4409
X1.8484Y-1.4736
X1.8484Y-1.7626
X1.8484Y-1.7945
X1.8484Y-1.8272
X1.8803Y-1.4091
X1.8803Y-1.4409
X1.8803Y-1.4736
X1.8803Y-1.7626
X1.8803Y-1.7945
X1.8803Y-1.8272
X1.913Y-1.4091
X1.913Y-1.4409
X1.913Y-1.4736
X1.913Y-1.7626
X1.913Y-1.7945
X1.913Y-1.8272
X1.9453Y-1.4091
X1.9453Y-1.4409
X1.9453Y-1.4736
X1.9453Y-1.7626
X1.9453Y-1.7945
X1.9453Y-1.8272
X2.3179Y-1.4843
X2.3185Y-1.5354
X2.3415Y-2.0748
X2.3419Y-2.2338
X2.376Y-2.0409
X2.4577Y-1.6467
X2.4587Y-1.6083
X2.4669Y-1.902
X2.5142Y-2.187
X2.5142Y-2.2276
X2.5142Y-2.2681
X2.5549Y-2.187
X2.5549Y-2.2276
X2.5549Y-2.2681
X2.564Y-2.4793
X2.5957Y-2.187
X2.5957Y-2.2276
X2.5957Y-2.2681
X2.6014Y-1.9577
X2.602Y-2.4764
X2.6047Y-1.9134
X2.6929Y-2.0555
X2.7087Y-1.4744
X2.7228Y-1.6791
X2.7234Y-1.6191
X2.735Y-1.8197
X2.7362Y-1.7805
X2.7386Y-2.0705
X2.7407Y-1.7439
X2.7409Y-1.5366
X2.747Y-1.6486
X2.747Y-2.0236
X2.7569Y-1.7067
X2.772Y-2.3403
X2.8061Y-1.9459
X2.8071Y-1.985
X2.8091Y-2.314
X2.852Y-2.1484
X2.8587Y-1.7724
X2.9213Y-1.7195
X3.1697Y-1.8921
X3.1803Y-2.1366
X3.2854Y-1.7664
X3.2862Y-1.8239
X3.3031Y-1.885
X3.3258Y-1.7156
X3.3689Y-1.9681
X3.4012Y-1.9358
X3.4012Y-1.9682
X3.4012Y-2.0008
X3.4335Y-1.9681
X3.6232Y-2.3106
X3.6233Y-1.3311
X3.6235Y-2.3425
X3.6235Y-2.3745
X3.6236Y-1.363
X3.6236Y-1.395
X3.6236Y-2.4067
X3.6237Y-1.4272
X3.6276Y-1.8142
X3.6279Y-1.8461
X3.6279Y-1.8781
X3.628Y-1.9102
X3.6598Y-2.3106
X3.6599Y-1.3311
X3.6601Y-2.3425
X3.6601Y-2.3745
X3.6602Y-1.363
X3.6602Y-1.395
X3.6602Y-2.4067
X3.6603Y-1.4272
X3.6642Y-1.8142
X3.6645Y-1.8461
X3.6645Y-1.8781
X3.6646Y-1.9102
X3.6957Y-2.311
X3.6958Y-1.3315
X3.696Y-2.3429
X3.696Y-2.3749
X3.6961Y-1.3634
X3.6961Y-1.3954
X3.6961Y-2.4071
X3.6962Y-1.4276
X3.7Y-1.8146
X3.7003Y-1.8465
X3.7003Y-1.8785
X3.7004Y-1.9106
X4.0463Y-2.7333
X4.0681Y-2.6549
X4.0685Y-2.7034
X4.0719Y-2.2352
X4.0902Y-1.7323
X4.0913Y-1.6807
X4.0965Y-2.1567
X4.0965Y-2.2043
M30
