G04 #@! TF.GenerationSoftware,KiCad,Pcbnew,8.0.1*
G04 #@! TF.CreationDate,2024-05-01T01:11:43+03:00*
G04 #@! TF.ProjectId,esc,6573632e-6b69-4636-9164-5f7063625858,rev?*
G04 #@! TF.SameCoordinates,Original*
G04 #@! TF.FileFunction,Legend,Top*
G04 #@! TF.FilePolarity,Positive*
%FSLAX46Y46*%
G04 Gerber Fmt 4.6, Leading zero omitted, Abs format (unit mm)*
G04 Created by KiCad (PCBNEW 8.0.1) date 2024-05-01 01:11:43*
%MOMM*%
%LPD*%
G01*
G04 APERTURE LIST*
G04 Aperture macros list*
%AMRoundRect*
0 Rectangle with rounded corners*
0 $1 Rounding radius*
0 $2 $3 $4 $5 $6 $7 $8 $9 X,Y pos of 4 corners*
0 Add a 4 corners polygon primitive as box body*
4,1,4,$2,$3,$4,$5,$6,$7,$8,$9,$2,$3,0*
0 Add four circle primitives for the rounded corners*
1,1,$1+$1,$2,$3*
1,1,$1+$1,$4,$5*
1,1,$1+$1,$6,$7*
1,1,$1+$1,$8,$9*
0 Add four rect primitives between the rounded corners*
20,1,$1+$1,$2,$3,$4,$5,0*
20,1,$1+$1,$4,$5,$6,$7,0*
20,1,$1+$1,$6,$7,$8,$9,0*
20,1,$1+$1,$8,$9,$2,$3,0*%
G04 Aperture macros list end*
%ADD10C,0.120000*%
%ADD11C,0.100000*%
%ADD12C,0.250000*%
%ADD13C,0.150000*%
%ADD14C,0.200000*%
%ADD15C,0.127000*%
%ADD16C,0.152400*%
%ADD17C,0.010000*%
%ADD18R,0.900000X0.240000*%
%ADD19R,0.240000X0.900000*%
%ADD20R,1.400000X0.900000*%
%ADD21RoundRect,0.200000X-0.200000X-0.275000X0.200000X-0.275000X0.200000X0.275000X-0.200000X0.275000X0*%
%ADD22RoundRect,0.225000X-0.250000X0.225000X-0.250000X-0.225000X0.250000X-0.225000X0.250000X0.225000X0*%
%ADD23RoundRect,0.135000X0.185000X-0.135000X0.185000X0.135000X-0.185000X0.135000X-0.185000X-0.135000X0*%
%ADD24RoundRect,0.250000X-1.075000X0.362500X-1.075000X-0.362500X1.075000X-0.362500X1.075000X0.362500X0*%
%ADD25RoundRect,0.250000X-0.475000X0.250000X-0.475000X-0.250000X0.475000X-0.250000X0.475000X0.250000X0*%
%ADD26RoundRect,0.135000X0.135000X0.185000X-0.135000X0.185000X-0.135000X-0.185000X0.135000X-0.185000X0*%
%ADD27RoundRect,0.218750X-0.381250X0.218750X-0.381250X-0.218750X0.381250X-0.218750X0.381250X0.218750X0*%
%ADD28RoundRect,0.140000X-0.170000X0.140000X-0.170000X-0.140000X0.170000X-0.140000X0.170000X0.140000X0*%
%ADD29C,1.959000*%
%ADD30R,1.400000X1.200000*%
%ADD31RoundRect,0.135000X-0.135000X-0.185000X0.135000X-0.185000X0.135000X0.185000X-0.135000X0.185000X0*%
%ADD32RoundRect,0.250000X1.500000X1.000000X-1.500000X1.000000X-1.500000X-1.000000X1.500000X-1.000000X0*%
%ADD33R,1.700000X1.700000*%
%ADD34O,1.700000X1.700000*%
%ADD35RoundRect,0.250000X-0.250000X-0.475000X0.250000X-0.475000X0.250000X0.475000X-0.250000X0.475000X0*%
%ADD36RoundRect,0.225000X0.225000X0.250000X-0.225000X0.250000X-0.225000X-0.250000X0.225000X-0.250000X0*%
%ADD37RoundRect,0.225000X0.250000X-0.225000X0.250000X0.225000X-0.250000X0.225000X-0.250000X-0.225000X0*%
%ADD38RoundRect,0.225000X-0.225000X-0.250000X0.225000X-0.250000X0.225000X0.250000X-0.225000X0.250000X0*%
%ADD39RoundRect,0.140000X0.170000X-0.140000X0.170000X0.140000X-0.170000X0.140000X-0.170000X-0.140000X0*%
%ADD40R,0.812800X0.660400*%
%ADD41RoundRect,0.218750X-0.218750X-0.256250X0.218750X-0.256250X0.218750X0.256250X-0.218750X0.256250X0*%
%ADD42RoundRect,0.062500X0.375000X0.062500X-0.375000X0.062500X-0.375000X-0.062500X0.375000X-0.062500X0*%
%ADD43RoundRect,0.062500X0.062500X0.375000X-0.062500X0.375000X-0.062500X-0.375000X0.062500X-0.375000X0*%
%ADD44R,3.100000X3.100000*%
%ADD45R,0.350000X0.600000*%
%ADD46R,1.700000X1.100000*%
%ADD47R,0.242473X0.809638*%
%ADD48R,0.809638X0.242473*%
%ADD49R,2.550000X2.550000*%
G04 APERTURE END LIST*
D10*
X66795000Y-64042500D02*
X66795000Y-62927500D01*
X85790000Y-66505000D02*
X85790000Y-65375000D01*
X70425000Y-66505000D02*
X70425000Y-65375000D01*
X56575000Y-62925000D02*
X69395000Y-62920000D01*
X83190000Y-66510000D02*
X83190000Y-65380000D01*
X64225000Y-64042500D02*
X64225000Y-62927500D01*
X73095000Y-66510000D02*
X73095000Y-65380000D01*
X56575000Y-64055000D02*
X56575000Y-62925000D01*
X59225000Y-64045000D02*
X59225000Y-62930000D01*
X61735000Y-64042500D02*
X61735000Y-62927500D01*
X69395000Y-64050000D02*
X69395000Y-62920000D01*
X78015000Y-66500000D02*
X78015000Y-65370000D01*
X80645000Y-66510000D02*
X80645000Y-65380000D01*
X75595000Y-66510000D02*
X75595000Y-65380000D01*
X70425000Y-65375000D02*
X85790000Y-65375000D01*
D11*
X102182455Y-53659133D02*
X102182455Y-52959133D01*
X102182455Y-52959133D02*
X102449122Y-52959133D01*
X102449122Y-52959133D02*
X102515789Y-52992466D01*
X102515789Y-52992466D02*
X102549122Y-53025800D01*
X102549122Y-53025800D02*
X102582455Y-53092466D01*
X102582455Y-53092466D02*
X102582455Y-53192466D01*
X102582455Y-53192466D02*
X102549122Y-53259133D01*
X102549122Y-53259133D02*
X102515789Y-53292466D01*
X102515789Y-53292466D02*
X102449122Y-53325800D01*
X102449122Y-53325800D02*
X102182455Y-53325800D01*
X102882455Y-53659133D02*
X102882455Y-52959133D01*
X102882455Y-53292466D02*
X103282455Y-53292466D01*
X103282455Y-53659133D02*
X103282455Y-52959133D01*
X103582455Y-53459133D02*
X103915788Y-53459133D01*
X103515788Y-53659133D02*
X103749122Y-52959133D01*
X103749122Y-52959133D02*
X103982455Y-53659133D01*
X104182455Y-53625800D02*
X104282455Y-53659133D01*
X104282455Y-53659133D02*
X104449122Y-53659133D01*
X104449122Y-53659133D02*
X104515788Y-53625800D01*
X104515788Y-53625800D02*
X104549122Y-53592466D01*
X104549122Y-53592466D02*
X104582455Y-53525800D01*
X104582455Y-53525800D02*
X104582455Y-53459133D01*
X104582455Y-53459133D02*
X104549122Y-53392466D01*
X104549122Y-53392466D02*
X104515788Y-53359133D01*
X104515788Y-53359133D02*
X104449122Y-53325800D01*
X104449122Y-53325800D02*
X104315788Y-53292466D01*
X104315788Y-53292466D02*
X104249122Y-53259133D01*
X104249122Y-53259133D02*
X104215788Y-53225800D01*
X104215788Y-53225800D02*
X104182455Y-53159133D01*
X104182455Y-53159133D02*
X104182455Y-53092466D01*
X104182455Y-53092466D02*
X104215788Y-53025800D01*
X104215788Y-53025800D02*
X104249122Y-52992466D01*
X104249122Y-52992466D02*
X104315788Y-52959133D01*
X104315788Y-52959133D02*
X104482455Y-52959133D01*
X104482455Y-52959133D02*
X104582455Y-52992466D01*
X104882455Y-53292466D02*
X105115789Y-53292466D01*
X105215789Y-53659133D02*
X104882455Y-53659133D01*
X104882455Y-53659133D02*
X104882455Y-52959133D01*
X104882455Y-52959133D02*
X105215789Y-52959133D01*
X106282455Y-53292466D02*
X106382455Y-53325800D01*
X106382455Y-53325800D02*
X106415788Y-53359133D01*
X106415788Y-53359133D02*
X106449121Y-53425800D01*
X106449121Y-53425800D02*
X106449121Y-53525800D01*
X106449121Y-53525800D02*
X106415788Y-53592466D01*
X106415788Y-53592466D02*
X106382455Y-53625800D01*
X106382455Y-53625800D02*
X106315788Y-53659133D01*
X106315788Y-53659133D02*
X106049121Y-53659133D01*
X106049121Y-53659133D02*
X106049121Y-52959133D01*
X106049121Y-52959133D02*
X106282455Y-52959133D01*
X106282455Y-52959133D02*
X106349121Y-52992466D01*
X106349121Y-52992466D02*
X106382455Y-53025800D01*
X106382455Y-53025800D02*
X106415788Y-53092466D01*
X106415788Y-53092466D02*
X106415788Y-53159133D01*
X106415788Y-53159133D02*
X106382455Y-53225800D01*
X106382455Y-53225800D02*
X106349121Y-53259133D01*
X106349121Y-53259133D02*
X106282455Y-53292466D01*
X106282455Y-53292466D02*
X106049121Y-53292466D01*
X73232455Y-65992466D02*
X73765789Y-65992466D01*
X73499122Y-66259133D02*
X73499122Y-65725800D01*
X74432456Y-65559133D02*
X74099122Y-65559133D01*
X74099122Y-65559133D02*
X74065789Y-65892466D01*
X74065789Y-65892466D02*
X74099122Y-65859133D01*
X74099122Y-65859133D02*
X74165789Y-65825800D01*
X74165789Y-65825800D02*
X74332456Y-65825800D01*
X74332456Y-65825800D02*
X74399122Y-65859133D01*
X74399122Y-65859133D02*
X74432456Y-65892466D01*
X74432456Y-65892466D02*
X74465789Y-65959133D01*
X74465789Y-65959133D02*
X74465789Y-66125800D01*
X74465789Y-66125800D02*
X74432456Y-66192466D01*
X74432456Y-66192466D02*
X74399122Y-66225800D01*
X74399122Y-66225800D02*
X74332456Y-66259133D01*
X74332456Y-66259133D02*
X74165789Y-66259133D01*
X74165789Y-66259133D02*
X74099122Y-66225800D01*
X74099122Y-66225800D02*
X74065789Y-66192466D01*
X74665789Y-65559133D02*
X74899123Y-66259133D01*
X74899123Y-66259133D02*
X75132456Y-65559133D01*
X78747455Y-65559133D02*
X79147455Y-65559133D01*
X78947455Y-66259133D02*
X78947455Y-65559133D01*
X79314122Y-65559133D02*
X79780788Y-66259133D01*
X79780788Y-65559133D02*
X79314122Y-66259133D01*
X76632455Y-66259133D02*
X76399122Y-65925800D01*
X76232455Y-66259133D02*
X76232455Y-65559133D01*
X76232455Y-65559133D02*
X76499122Y-65559133D01*
X76499122Y-65559133D02*
X76565789Y-65592466D01*
X76565789Y-65592466D02*
X76599122Y-65625800D01*
X76599122Y-65625800D02*
X76632455Y-65692466D01*
X76632455Y-65692466D02*
X76632455Y-65792466D01*
X76632455Y-65792466D02*
X76599122Y-65859133D01*
X76599122Y-65859133D02*
X76565789Y-65892466D01*
X76565789Y-65892466D02*
X76499122Y-65925800D01*
X76499122Y-65925800D02*
X76232455Y-65925800D01*
X76865789Y-65559133D02*
X77332455Y-66259133D01*
X77332455Y-65559133D02*
X76865789Y-66259133D01*
X81049122Y-66225800D02*
X81149122Y-66259133D01*
X81149122Y-66259133D02*
X81315789Y-66259133D01*
X81315789Y-66259133D02*
X81382455Y-66225800D01*
X81382455Y-66225800D02*
X81415789Y-66192466D01*
X81415789Y-66192466D02*
X81449122Y-66125800D01*
X81449122Y-66125800D02*
X81449122Y-66059133D01*
X81449122Y-66059133D02*
X81415789Y-65992466D01*
X81415789Y-65992466D02*
X81382455Y-65959133D01*
X81382455Y-65959133D02*
X81315789Y-65925800D01*
X81315789Y-65925800D02*
X81182455Y-65892466D01*
X81182455Y-65892466D02*
X81115789Y-65859133D01*
X81115789Y-65859133D02*
X81082455Y-65825800D01*
X81082455Y-65825800D02*
X81049122Y-65759133D01*
X81049122Y-65759133D02*
X81049122Y-65692466D01*
X81049122Y-65692466D02*
X81082455Y-65625800D01*
X81082455Y-65625800D02*
X81115789Y-65592466D01*
X81115789Y-65592466D02*
X81182455Y-65559133D01*
X81182455Y-65559133D02*
X81349122Y-65559133D01*
X81349122Y-65559133D02*
X81449122Y-65592466D01*
X81749122Y-66259133D02*
X81749122Y-65559133D01*
X81749122Y-65559133D02*
X82015789Y-65559133D01*
X82015789Y-65559133D02*
X82082456Y-65592466D01*
X82082456Y-65592466D02*
X82115789Y-65625800D01*
X82115789Y-65625800D02*
X82149122Y-65692466D01*
X82149122Y-65692466D02*
X82149122Y-65792466D01*
X82149122Y-65792466D02*
X82115789Y-65859133D01*
X82115789Y-65859133D02*
X82082456Y-65892466D01*
X82082456Y-65892466D02*
X82015789Y-65925800D01*
X82015789Y-65925800D02*
X81749122Y-65925800D01*
X82449122Y-66259133D02*
X82449122Y-65559133D01*
X82449122Y-65559133D02*
X82615789Y-65559133D01*
X82615789Y-65559133D02*
X82715789Y-65592466D01*
X82715789Y-65592466D02*
X82782456Y-65659133D01*
X82782456Y-65659133D02*
X82815789Y-65725800D01*
X82815789Y-65725800D02*
X82849122Y-65859133D01*
X82849122Y-65859133D02*
X82849122Y-65959133D01*
X82849122Y-65959133D02*
X82815789Y-66092466D01*
X82815789Y-66092466D02*
X82782456Y-66159133D01*
X82782456Y-66159133D02*
X82715789Y-66225800D01*
X82715789Y-66225800D02*
X82615789Y-66259133D01*
X82615789Y-66259133D02*
X82449122Y-66259133D01*
X56767455Y-63844133D02*
X56767455Y-63144133D01*
X56767455Y-63144133D02*
X57000789Y-63644133D01*
X57000789Y-63644133D02*
X57234122Y-63144133D01*
X57234122Y-63144133D02*
X57234122Y-63844133D01*
X57700789Y-63144133D02*
X57834122Y-63144133D01*
X57834122Y-63144133D02*
X57900789Y-63177466D01*
X57900789Y-63177466D02*
X57967455Y-63244133D01*
X57967455Y-63244133D02*
X58000789Y-63377466D01*
X58000789Y-63377466D02*
X58000789Y-63610800D01*
X58000789Y-63610800D02*
X57967455Y-63744133D01*
X57967455Y-63744133D02*
X57900789Y-63810800D01*
X57900789Y-63810800D02*
X57834122Y-63844133D01*
X57834122Y-63844133D02*
X57700789Y-63844133D01*
X57700789Y-63844133D02*
X57634122Y-63810800D01*
X57634122Y-63810800D02*
X57567455Y-63744133D01*
X57567455Y-63744133D02*
X57534122Y-63610800D01*
X57534122Y-63610800D02*
X57534122Y-63377466D01*
X57534122Y-63377466D02*
X57567455Y-63244133D01*
X57567455Y-63244133D02*
X57634122Y-63177466D01*
X57634122Y-63177466D02*
X57700789Y-63144133D01*
X58267455Y-63810800D02*
X58367455Y-63844133D01*
X58367455Y-63844133D02*
X58534122Y-63844133D01*
X58534122Y-63844133D02*
X58600788Y-63810800D01*
X58600788Y-63810800D02*
X58634122Y-63777466D01*
X58634122Y-63777466D02*
X58667455Y-63710800D01*
X58667455Y-63710800D02*
X58667455Y-63644133D01*
X58667455Y-63644133D02*
X58634122Y-63577466D01*
X58634122Y-63577466D02*
X58600788Y-63544133D01*
X58600788Y-63544133D02*
X58534122Y-63510800D01*
X58534122Y-63510800D02*
X58400788Y-63477466D01*
X58400788Y-63477466D02*
X58334122Y-63444133D01*
X58334122Y-63444133D02*
X58300788Y-63410800D01*
X58300788Y-63410800D02*
X58267455Y-63344133D01*
X58267455Y-63344133D02*
X58267455Y-63277466D01*
X58267455Y-63277466D02*
X58300788Y-63210800D01*
X58300788Y-63210800D02*
X58334122Y-63177466D01*
X58334122Y-63177466D02*
X58400788Y-63144133D01*
X58400788Y-63144133D02*
X58567455Y-63144133D01*
X58567455Y-63144133D02*
X58667455Y-63177466D01*
X58967455Y-63844133D02*
X58967455Y-63144133D01*
D12*
X69462092Y-98171593D02*
X69462092Y-96921593D01*
X70176377Y-98171593D02*
X69640663Y-97457308D01*
X70176377Y-96921593D02*
X69462092Y-97635879D01*
X70712092Y-98171593D02*
X70712092Y-97338260D01*
X70712092Y-96921593D02*
X70652568Y-96981117D01*
X70652568Y-96981117D02*
X70712092Y-97040641D01*
X70712092Y-97040641D02*
X70771615Y-96981117D01*
X70771615Y-96981117D02*
X70712092Y-96921593D01*
X70712092Y-96921593D02*
X70712092Y-97040641D01*
X71247806Y-98112070D02*
X71366853Y-98171593D01*
X71366853Y-98171593D02*
X71604949Y-98171593D01*
X71604949Y-98171593D02*
X71723996Y-98112070D01*
X71723996Y-98112070D02*
X71783520Y-97993022D01*
X71783520Y-97993022D02*
X71783520Y-97933498D01*
X71783520Y-97933498D02*
X71723996Y-97814450D01*
X71723996Y-97814450D02*
X71604949Y-97754927D01*
X71604949Y-97754927D02*
X71426377Y-97754927D01*
X71426377Y-97754927D02*
X71307330Y-97695403D01*
X71307330Y-97695403D02*
X71247806Y-97576355D01*
X71247806Y-97576355D02*
X71247806Y-97516831D01*
X71247806Y-97516831D02*
X71307330Y-97397784D01*
X71307330Y-97397784D02*
X71426377Y-97338260D01*
X71426377Y-97338260D02*
X71604949Y-97338260D01*
X71604949Y-97338260D02*
X71723996Y-97397784D01*
X73212092Y-97814450D02*
X73807330Y-97814450D01*
X73093044Y-98171593D02*
X73509711Y-96921593D01*
X73509711Y-96921593D02*
X73926377Y-98171593D01*
X73628758Y-96445403D02*
X73450187Y-96623974D01*
X74343045Y-98171593D02*
X74343045Y-97338260D01*
X74343045Y-97576355D02*
X74402568Y-97457308D01*
X74402568Y-97457308D02*
X74462092Y-97397784D01*
X74462092Y-97397784D02*
X74581140Y-97338260D01*
X74581140Y-97338260D02*
X74700187Y-97338260D01*
X75295426Y-98171593D02*
X75176378Y-98112070D01*
X75176378Y-98112070D02*
X75116855Y-98052546D01*
X75116855Y-98052546D02*
X75057331Y-97933498D01*
X75057331Y-97933498D02*
X75057331Y-97576355D01*
X75057331Y-97576355D02*
X75116855Y-97457308D01*
X75116855Y-97457308D02*
X75176378Y-97397784D01*
X75176378Y-97397784D02*
X75295426Y-97338260D01*
X75295426Y-97338260D02*
X75473997Y-97338260D01*
X75473997Y-97338260D02*
X75593045Y-97397784D01*
X75593045Y-97397784D02*
X75652569Y-97457308D01*
X75652569Y-97457308D02*
X75712093Y-97576355D01*
X75712093Y-97576355D02*
X75712093Y-97933498D01*
X75712093Y-97933498D02*
X75652569Y-98052546D01*
X75652569Y-98052546D02*
X75593045Y-98112070D01*
X75593045Y-98112070D02*
X75473997Y-98171593D01*
X75473997Y-98171593D02*
X75295426Y-98171593D01*
X76247807Y-97338260D02*
X76247807Y-98171593D01*
X76247807Y-97457308D02*
X76307330Y-97397784D01*
X76307330Y-97397784D02*
X76426378Y-97338260D01*
X76426378Y-97338260D02*
X76604949Y-97338260D01*
X76604949Y-97338260D02*
X76723997Y-97397784D01*
X76723997Y-97397784D02*
X76783521Y-97516831D01*
X76783521Y-97516831D02*
X76783521Y-98171593D01*
X69462092Y-99529261D02*
X69878758Y-99529261D01*
X70057330Y-100184023D02*
X69462092Y-100184023D01*
X69462092Y-100184023D02*
X69462092Y-98934023D01*
X69462092Y-98934023D02*
X70057330Y-98934023D01*
X70771615Y-100184023D02*
X70652567Y-100124500D01*
X70652567Y-100124500D02*
X70593044Y-100005452D01*
X70593044Y-100005452D02*
X70593044Y-98934023D01*
X71723996Y-100124500D02*
X71604948Y-100184023D01*
X71604948Y-100184023D02*
X71366853Y-100184023D01*
X71366853Y-100184023D02*
X71247806Y-100124500D01*
X71247806Y-100124500D02*
X71188282Y-100005452D01*
X71188282Y-100005452D02*
X71188282Y-99529261D01*
X71188282Y-99529261D02*
X71247806Y-99410214D01*
X71247806Y-99410214D02*
X71366853Y-99350690D01*
X71366853Y-99350690D02*
X71604948Y-99350690D01*
X71604948Y-99350690D02*
X71723996Y-99410214D01*
X71723996Y-99410214D02*
X71783520Y-99529261D01*
X71783520Y-99529261D02*
X71783520Y-99648309D01*
X71783520Y-99648309D02*
X71188282Y-99767357D01*
X72854949Y-100124500D02*
X72735901Y-100184023D01*
X72735901Y-100184023D02*
X72497806Y-100184023D01*
X72497806Y-100184023D02*
X72378758Y-100124500D01*
X72378758Y-100124500D02*
X72319235Y-100064976D01*
X72319235Y-100064976D02*
X72259711Y-99945928D01*
X72259711Y-99945928D02*
X72259711Y-99588785D01*
X72259711Y-99588785D02*
X72319235Y-99469738D01*
X72319235Y-99469738D02*
X72378758Y-99410214D01*
X72378758Y-99410214D02*
X72497806Y-99350690D01*
X72497806Y-99350690D02*
X72735901Y-99350690D01*
X72735901Y-99350690D02*
X72854949Y-99410214D01*
X73212092Y-99350690D02*
X73688283Y-99350690D01*
X73390664Y-98934023D02*
X73390664Y-100005452D01*
X73390664Y-100005452D02*
X73450187Y-100124500D01*
X73450187Y-100124500D02*
X73569235Y-100184023D01*
X73569235Y-100184023D02*
X73688283Y-100184023D01*
X74104950Y-100184023D02*
X74104950Y-99350690D01*
X74104950Y-99588785D02*
X74164473Y-99469738D01*
X74164473Y-99469738D02*
X74223997Y-99410214D01*
X74223997Y-99410214D02*
X74343045Y-99350690D01*
X74343045Y-99350690D02*
X74462092Y-99350690D01*
X75057331Y-100184023D02*
X74938283Y-100124500D01*
X74938283Y-100124500D02*
X74878760Y-100064976D01*
X74878760Y-100064976D02*
X74819236Y-99945928D01*
X74819236Y-99945928D02*
X74819236Y-99588785D01*
X74819236Y-99588785D02*
X74878760Y-99469738D01*
X74878760Y-99469738D02*
X74938283Y-99410214D01*
X74938283Y-99410214D02*
X75057331Y-99350690D01*
X75057331Y-99350690D02*
X75235902Y-99350690D01*
X75235902Y-99350690D02*
X75354950Y-99410214D01*
X75354950Y-99410214D02*
X75414474Y-99469738D01*
X75414474Y-99469738D02*
X75473998Y-99588785D01*
X75473998Y-99588785D02*
X75473998Y-99945928D01*
X75473998Y-99945928D02*
X75414474Y-100064976D01*
X75414474Y-100064976D02*
X75354950Y-100124500D01*
X75354950Y-100124500D02*
X75235902Y-100184023D01*
X75235902Y-100184023D02*
X75057331Y-100184023D01*
X76009712Y-99350690D02*
X76009712Y-100184023D01*
X76009712Y-99469738D02*
X76069235Y-99410214D01*
X76069235Y-99410214D02*
X76188283Y-99350690D01*
X76188283Y-99350690D02*
X76366854Y-99350690D01*
X76366854Y-99350690D02*
X76485902Y-99410214D01*
X76485902Y-99410214D02*
X76545426Y-99529261D01*
X76545426Y-99529261D02*
X76545426Y-100184023D01*
X77140664Y-100184023D02*
X77140664Y-99350690D01*
X77140664Y-98934023D02*
X77081140Y-98993547D01*
X77081140Y-98993547D02*
X77140664Y-99053071D01*
X77140664Y-99053071D02*
X77200187Y-98993547D01*
X77200187Y-98993547D02*
X77140664Y-98934023D01*
X77140664Y-98934023D02*
X77140664Y-99053071D01*
X78271616Y-100124500D02*
X78152568Y-100184023D01*
X78152568Y-100184023D02*
X77914473Y-100184023D01*
X77914473Y-100184023D02*
X77795425Y-100124500D01*
X77795425Y-100124500D02*
X77735902Y-100064976D01*
X77735902Y-100064976D02*
X77676378Y-99945928D01*
X77676378Y-99945928D02*
X77676378Y-99588785D01*
X77676378Y-99588785D02*
X77735902Y-99469738D01*
X77735902Y-99469738D02*
X77795425Y-99410214D01*
X77795425Y-99410214D02*
X77914473Y-99350690D01*
X77914473Y-99350690D02*
X78152568Y-99350690D01*
X78152568Y-99350690D02*
X78271616Y-99410214D01*
X79700188Y-100124500D02*
X79878759Y-100184023D01*
X79878759Y-100184023D02*
X80176378Y-100184023D01*
X80176378Y-100184023D02*
X80295426Y-100124500D01*
X80295426Y-100124500D02*
X80354950Y-100064976D01*
X80354950Y-100064976D02*
X80414473Y-99945928D01*
X80414473Y-99945928D02*
X80414473Y-99826880D01*
X80414473Y-99826880D02*
X80354950Y-99707833D01*
X80354950Y-99707833D02*
X80295426Y-99648309D01*
X80295426Y-99648309D02*
X80176378Y-99588785D01*
X80176378Y-99588785D02*
X79938283Y-99529261D01*
X79938283Y-99529261D02*
X79819235Y-99469738D01*
X79819235Y-99469738D02*
X79759712Y-99410214D01*
X79759712Y-99410214D02*
X79700188Y-99291166D01*
X79700188Y-99291166D02*
X79700188Y-99172119D01*
X79700188Y-99172119D02*
X79759712Y-99053071D01*
X79759712Y-99053071D02*
X79819235Y-98993547D01*
X79819235Y-98993547D02*
X79938283Y-98934023D01*
X79938283Y-98934023D02*
X80235902Y-98934023D01*
X80235902Y-98934023D02*
X80414473Y-98993547D01*
X80950188Y-99350690D02*
X80950188Y-100600690D01*
X80950188Y-99410214D02*
X81069235Y-99350690D01*
X81069235Y-99350690D02*
X81307330Y-99350690D01*
X81307330Y-99350690D02*
X81426378Y-99410214D01*
X81426378Y-99410214D02*
X81485902Y-99469738D01*
X81485902Y-99469738D02*
X81545426Y-99588785D01*
X81545426Y-99588785D02*
X81545426Y-99945928D01*
X81545426Y-99945928D02*
X81485902Y-100064976D01*
X81485902Y-100064976D02*
X81426378Y-100124500D01*
X81426378Y-100124500D02*
X81307330Y-100184023D01*
X81307330Y-100184023D02*
X81069235Y-100184023D01*
X81069235Y-100184023D02*
X80950188Y-100124500D01*
X82557330Y-100124500D02*
X82438282Y-100184023D01*
X82438282Y-100184023D02*
X82200187Y-100184023D01*
X82200187Y-100184023D02*
X82081140Y-100124500D01*
X82081140Y-100124500D02*
X82021616Y-100005452D01*
X82021616Y-100005452D02*
X82021616Y-99529261D01*
X82021616Y-99529261D02*
X82081140Y-99410214D01*
X82081140Y-99410214D02*
X82200187Y-99350690D01*
X82200187Y-99350690D02*
X82438282Y-99350690D01*
X82438282Y-99350690D02*
X82557330Y-99410214D01*
X82557330Y-99410214D02*
X82616854Y-99529261D01*
X82616854Y-99529261D02*
X82616854Y-99648309D01*
X82616854Y-99648309D02*
X82021616Y-99767357D01*
X83628759Y-100124500D02*
X83509711Y-100184023D01*
X83509711Y-100184023D02*
X83271616Y-100184023D01*
X83271616Y-100184023D02*
X83152569Y-100124500D01*
X83152569Y-100124500D02*
X83093045Y-100005452D01*
X83093045Y-100005452D02*
X83093045Y-99529261D01*
X83093045Y-99529261D02*
X83152569Y-99410214D01*
X83152569Y-99410214D02*
X83271616Y-99350690D01*
X83271616Y-99350690D02*
X83509711Y-99350690D01*
X83509711Y-99350690D02*
X83628759Y-99410214D01*
X83628759Y-99410214D02*
X83688283Y-99529261D01*
X83688283Y-99529261D02*
X83688283Y-99648309D01*
X83688283Y-99648309D02*
X83093045Y-99767357D01*
X84759712Y-100184023D02*
X84759712Y-98934023D01*
X84759712Y-100124500D02*
X84640664Y-100184023D01*
X84640664Y-100184023D02*
X84402569Y-100184023D01*
X84402569Y-100184023D02*
X84283521Y-100124500D01*
X84283521Y-100124500D02*
X84223998Y-100064976D01*
X84223998Y-100064976D02*
X84164474Y-99945928D01*
X84164474Y-99945928D02*
X84164474Y-99588785D01*
X84164474Y-99588785D02*
X84223998Y-99469738D01*
X84223998Y-99469738D02*
X84283521Y-99410214D01*
X84283521Y-99410214D02*
X84402569Y-99350690D01*
X84402569Y-99350690D02*
X84640664Y-99350690D01*
X84640664Y-99350690D02*
X84759712Y-99410214D01*
X87021616Y-100064976D02*
X86962092Y-100124500D01*
X86962092Y-100124500D02*
X86783521Y-100184023D01*
X86783521Y-100184023D02*
X86664473Y-100184023D01*
X86664473Y-100184023D02*
X86485902Y-100124500D01*
X86485902Y-100124500D02*
X86366854Y-100005452D01*
X86366854Y-100005452D02*
X86307331Y-99886404D01*
X86307331Y-99886404D02*
X86247807Y-99648309D01*
X86247807Y-99648309D02*
X86247807Y-99469738D01*
X86247807Y-99469738D02*
X86307331Y-99231642D01*
X86307331Y-99231642D02*
X86366854Y-99112595D01*
X86366854Y-99112595D02*
X86485902Y-98993547D01*
X86485902Y-98993547D02*
X86664473Y-98934023D01*
X86664473Y-98934023D02*
X86783521Y-98934023D01*
X86783521Y-98934023D02*
X86962092Y-98993547D01*
X86962092Y-98993547D02*
X87021616Y-99053071D01*
X87735902Y-100184023D02*
X87616854Y-100124500D01*
X87616854Y-100124500D02*
X87557331Y-100064976D01*
X87557331Y-100064976D02*
X87497807Y-99945928D01*
X87497807Y-99945928D02*
X87497807Y-99588785D01*
X87497807Y-99588785D02*
X87557331Y-99469738D01*
X87557331Y-99469738D02*
X87616854Y-99410214D01*
X87616854Y-99410214D02*
X87735902Y-99350690D01*
X87735902Y-99350690D02*
X87914473Y-99350690D01*
X87914473Y-99350690D02*
X88033521Y-99410214D01*
X88033521Y-99410214D02*
X88093045Y-99469738D01*
X88093045Y-99469738D02*
X88152569Y-99588785D01*
X88152569Y-99588785D02*
X88152569Y-99945928D01*
X88152569Y-99945928D02*
X88093045Y-100064976D01*
X88093045Y-100064976D02*
X88033521Y-100124500D01*
X88033521Y-100124500D02*
X87914473Y-100184023D01*
X87914473Y-100184023D02*
X87735902Y-100184023D01*
X88688283Y-99350690D02*
X88688283Y-100184023D01*
X88688283Y-99469738D02*
X88747806Y-99410214D01*
X88747806Y-99410214D02*
X88866854Y-99350690D01*
X88866854Y-99350690D02*
X89045425Y-99350690D01*
X89045425Y-99350690D02*
X89164473Y-99410214D01*
X89164473Y-99410214D02*
X89223997Y-99529261D01*
X89223997Y-99529261D02*
X89223997Y-100184023D01*
X89640663Y-99350690D02*
X90116854Y-99350690D01*
X89819235Y-98934023D02*
X89819235Y-100005452D01*
X89819235Y-100005452D02*
X89878758Y-100124500D01*
X89878758Y-100124500D02*
X89997806Y-100184023D01*
X89997806Y-100184023D02*
X90116854Y-100184023D01*
X90533521Y-100184023D02*
X90533521Y-99350690D01*
X90533521Y-99588785D02*
X90593044Y-99469738D01*
X90593044Y-99469738D02*
X90652568Y-99410214D01*
X90652568Y-99410214D02*
X90771616Y-99350690D01*
X90771616Y-99350690D02*
X90890663Y-99350690D01*
X91485902Y-100184023D02*
X91366854Y-100124500D01*
X91366854Y-100124500D02*
X91307331Y-100064976D01*
X91307331Y-100064976D02*
X91247807Y-99945928D01*
X91247807Y-99945928D02*
X91247807Y-99588785D01*
X91247807Y-99588785D02*
X91307331Y-99469738D01*
X91307331Y-99469738D02*
X91366854Y-99410214D01*
X91366854Y-99410214D02*
X91485902Y-99350690D01*
X91485902Y-99350690D02*
X91664473Y-99350690D01*
X91664473Y-99350690D02*
X91783521Y-99410214D01*
X91783521Y-99410214D02*
X91843045Y-99469738D01*
X91843045Y-99469738D02*
X91902569Y-99588785D01*
X91902569Y-99588785D02*
X91902569Y-99945928D01*
X91902569Y-99945928D02*
X91843045Y-100064976D01*
X91843045Y-100064976D02*
X91783521Y-100124500D01*
X91783521Y-100124500D02*
X91664473Y-100184023D01*
X91664473Y-100184023D02*
X91485902Y-100184023D01*
X92616854Y-100184023D02*
X92497806Y-100124500D01*
X92497806Y-100124500D02*
X92438283Y-100005452D01*
X92438283Y-100005452D02*
X92438283Y-98934023D01*
X93271616Y-100184023D02*
X93152568Y-100124500D01*
X93152568Y-100124500D02*
X93093045Y-100005452D01*
X93093045Y-100005452D02*
X93093045Y-98934023D01*
X94223997Y-100124500D02*
X94104949Y-100184023D01*
X94104949Y-100184023D02*
X93866854Y-100184023D01*
X93866854Y-100184023D02*
X93747807Y-100124500D01*
X93747807Y-100124500D02*
X93688283Y-100005452D01*
X93688283Y-100005452D02*
X93688283Y-99529261D01*
X93688283Y-99529261D02*
X93747807Y-99410214D01*
X93747807Y-99410214D02*
X93866854Y-99350690D01*
X93866854Y-99350690D02*
X94104949Y-99350690D01*
X94104949Y-99350690D02*
X94223997Y-99410214D01*
X94223997Y-99410214D02*
X94283521Y-99529261D01*
X94283521Y-99529261D02*
X94283521Y-99648309D01*
X94283521Y-99648309D02*
X93688283Y-99767357D01*
X94819236Y-100184023D02*
X94819236Y-99350690D01*
X94819236Y-99588785D02*
X94878759Y-99469738D01*
X94878759Y-99469738D02*
X94938283Y-99410214D01*
X94938283Y-99410214D02*
X95057331Y-99350690D01*
X95057331Y-99350690D02*
X95176378Y-99350690D01*
D11*
X102182455Y-41059133D02*
X102182455Y-40359133D01*
X102182455Y-40359133D02*
X102449122Y-40359133D01*
X102449122Y-40359133D02*
X102515789Y-40392466D01*
X102515789Y-40392466D02*
X102549122Y-40425800D01*
X102549122Y-40425800D02*
X102582455Y-40492466D01*
X102582455Y-40492466D02*
X102582455Y-40592466D01*
X102582455Y-40592466D02*
X102549122Y-40659133D01*
X102549122Y-40659133D02*
X102515789Y-40692466D01*
X102515789Y-40692466D02*
X102449122Y-40725800D01*
X102449122Y-40725800D02*
X102182455Y-40725800D01*
X102882455Y-41059133D02*
X102882455Y-40359133D01*
X102882455Y-40692466D02*
X103282455Y-40692466D01*
X103282455Y-41059133D02*
X103282455Y-40359133D01*
X103582455Y-40859133D02*
X103915788Y-40859133D01*
X103515788Y-41059133D02*
X103749122Y-40359133D01*
X103749122Y-40359133D02*
X103982455Y-41059133D01*
X104182455Y-41025800D02*
X104282455Y-41059133D01*
X104282455Y-41059133D02*
X104449122Y-41059133D01*
X104449122Y-41059133D02*
X104515788Y-41025800D01*
X104515788Y-41025800D02*
X104549122Y-40992466D01*
X104549122Y-40992466D02*
X104582455Y-40925800D01*
X104582455Y-40925800D02*
X104582455Y-40859133D01*
X104582455Y-40859133D02*
X104549122Y-40792466D01*
X104549122Y-40792466D02*
X104515788Y-40759133D01*
X104515788Y-40759133D02*
X104449122Y-40725800D01*
X104449122Y-40725800D02*
X104315788Y-40692466D01*
X104315788Y-40692466D02*
X104249122Y-40659133D01*
X104249122Y-40659133D02*
X104215788Y-40625800D01*
X104215788Y-40625800D02*
X104182455Y-40559133D01*
X104182455Y-40559133D02*
X104182455Y-40492466D01*
X104182455Y-40492466D02*
X104215788Y-40425800D01*
X104215788Y-40425800D02*
X104249122Y-40392466D01*
X104249122Y-40392466D02*
X104315788Y-40359133D01*
X104315788Y-40359133D02*
X104482455Y-40359133D01*
X104482455Y-40359133D02*
X104582455Y-40392466D01*
X104882455Y-40692466D02*
X105115789Y-40692466D01*
X105215789Y-41059133D02*
X104882455Y-41059133D01*
X104882455Y-41059133D02*
X104882455Y-40359133D01*
X104882455Y-40359133D02*
X105215789Y-40359133D01*
X106015788Y-40859133D02*
X106349121Y-40859133D01*
X105949121Y-41059133D02*
X106182455Y-40359133D01*
X106182455Y-40359133D02*
X106415788Y-41059133D01*
X102182455Y-65959133D02*
X102182455Y-65259133D01*
X102182455Y-65259133D02*
X102449122Y-65259133D01*
X102449122Y-65259133D02*
X102515789Y-65292466D01*
X102515789Y-65292466D02*
X102549122Y-65325800D01*
X102549122Y-65325800D02*
X102582455Y-65392466D01*
X102582455Y-65392466D02*
X102582455Y-65492466D01*
X102582455Y-65492466D02*
X102549122Y-65559133D01*
X102549122Y-65559133D02*
X102515789Y-65592466D01*
X102515789Y-65592466D02*
X102449122Y-65625800D01*
X102449122Y-65625800D02*
X102182455Y-65625800D01*
X102882455Y-65959133D02*
X102882455Y-65259133D01*
X102882455Y-65592466D02*
X103282455Y-65592466D01*
X103282455Y-65959133D02*
X103282455Y-65259133D01*
X103582455Y-65759133D02*
X103915788Y-65759133D01*
X103515788Y-65959133D02*
X103749122Y-65259133D01*
X103749122Y-65259133D02*
X103982455Y-65959133D01*
X104182455Y-65925800D02*
X104282455Y-65959133D01*
X104282455Y-65959133D02*
X104449122Y-65959133D01*
X104449122Y-65959133D02*
X104515788Y-65925800D01*
X104515788Y-65925800D02*
X104549122Y-65892466D01*
X104549122Y-65892466D02*
X104582455Y-65825800D01*
X104582455Y-65825800D02*
X104582455Y-65759133D01*
X104582455Y-65759133D02*
X104549122Y-65692466D01*
X104549122Y-65692466D02*
X104515788Y-65659133D01*
X104515788Y-65659133D02*
X104449122Y-65625800D01*
X104449122Y-65625800D02*
X104315788Y-65592466D01*
X104315788Y-65592466D02*
X104249122Y-65559133D01*
X104249122Y-65559133D02*
X104215788Y-65525800D01*
X104215788Y-65525800D02*
X104182455Y-65459133D01*
X104182455Y-65459133D02*
X104182455Y-65392466D01*
X104182455Y-65392466D02*
X104215788Y-65325800D01*
X104215788Y-65325800D02*
X104249122Y-65292466D01*
X104249122Y-65292466D02*
X104315788Y-65259133D01*
X104315788Y-65259133D02*
X104482455Y-65259133D01*
X104482455Y-65259133D02*
X104582455Y-65292466D01*
X104882455Y-65592466D02*
X105115789Y-65592466D01*
X105215789Y-65959133D02*
X104882455Y-65959133D01*
X104882455Y-65959133D02*
X104882455Y-65259133D01*
X104882455Y-65259133D02*
X105215789Y-65259133D01*
X106449121Y-65892466D02*
X106415788Y-65925800D01*
X106415788Y-65925800D02*
X106315788Y-65959133D01*
X106315788Y-65959133D02*
X106249121Y-65959133D01*
X106249121Y-65959133D02*
X106149121Y-65925800D01*
X106149121Y-65925800D02*
X106082455Y-65859133D01*
X106082455Y-65859133D02*
X106049121Y-65792466D01*
X106049121Y-65792466D02*
X106015788Y-65659133D01*
X106015788Y-65659133D02*
X106015788Y-65559133D01*
X106015788Y-65559133D02*
X106049121Y-65425800D01*
X106049121Y-65425800D02*
X106082455Y-65359133D01*
X106082455Y-65359133D02*
X106149121Y-65292466D01*
X106149121Y-65292466D02*
X106249121Y-65259133D01*
X106249121Y-65259133D02*
X106315788Y-65259133D01*
X106315788Y-65259133D02*
X106415788Y-65292466D01*
X106415788Y-65292466D02*
X106449121Y-65325800D01*
X83532455Y-66259133D02*
X83532455Y-65559133D01*
X83532455Y-65559133D02*
X83799122Y-65559133D01*
X83799122Y-65559133D02*
X83865789Y-65592466D01*
X83865789Y-65592466D02*
X83899122Y-65625800D01*
X83899122Y-65625800D02*
X83932455Y-65692466D01*
X83932455Y-65692466D02*
X83932455Y-65792466D01*
X83932455Y-65792466D02*
X83899122Y-65859133D01*
X83899122Y-65859133D02*
X83865789Y-65892466D01*
X83865789Y-65892466D02*
X83799122Y-65925800D01*
X83799122Y-65925800D02*
X83532455Y-65925800D01*
X84165789Y-65559133D02*
X84332455Y-66259133D01*
X84332455Y-66259133D02*
X84465789Y-65759133D01*
X84465789Y-65759133D02*
X84599122Y-66259133D01*
X84599122Y-66259133D02*
X84765789Y-65559133D01*
X85032455Y-66259133D02*
X85032455Y-65559133D01*
X85032455Y-65559133D02*
X85265789Y-66059133D01*
X85265789Y-66059133D02*
X85499122Y-65559133D01*
X85499122Y-65559133D02*
X85499122Y-66259133D01*
X59534122Y-63810800D02*
X59634122Y-63844133D01*
X59634122Y-63844133D02*
X59800789Y-63844133D01*
X59800789Y-63844133D02*
X59867455Y-63810800D01*
X59867455Y-63810800D02*
X59900789Y-63777466D01*
X59900789Y-63777466D02*
X59934122Y-63710800D01*
X59934122Y-63710800D02*
X59934122Y-63644133D01*
X59934122Y-63644133D02*
X59900789Y-63577466D01*
X59900789Y-63577466D02*
X59867455Y-63544133D01*
X59867455Y-63544133D02*
X59800789Y-63510800D01*
X59800789Y-63510800D02*
X59667455Y-63477466D01*
X59667455Y-63477466D02*
X59600789Y-63444133D01*
X59600789Y-63444133D02*
X59567455Y-63410800D01*
X59567455Y-63410800D02*
X59534122Y-63344133D01*
X59534122Y-63344133D02*
X59534122Y-63277466D01*
X59534122Y-63277466D02*
X59567455Y-63210800D01*
X59567455Y-63210800D02*
X59600789Y-63177466D01*
X59600789Y-63177466D02*
X59667455Y-63144133D01*
X59667455Y-63144133D02*
X59834122Y-63144133D01*
X59834122Y-63144133D02*
X59934122Y-63177466D01*
X60634122Y-63777466D02*
X60600789Y-63810800D01*
X60600789Y-63810800D02*
X60500789Y-63844133D01*
X60500789Y-63844133D02*
X60434122Y-63844133D01*
X60434122Y-63844133D02*
X60334122Y-63810800D01*
X60334122Y-63810800D02*
X60267456Y-63744133D01*
X60267456Y-63744133D02*
X60234122Y-63677466D01*
X60234122Y-63677466D02*
X60200789Y-63544133D01*
X60200789Y-63544133D02*
X60200789Y-63444133D01*
X60200789Y-63444133D02*
X60234122Y-63310800D01*
X60234122Y-63310800D02*
X60267456Y-63244133D01*
X60267456Y-63244133D02*
X60334122Y-63177466D01*
X60334122Y-63177466D02*
X60434122Y-63144133D01*
X60434122Y-63144133D02*
X60500789Y-63144133D01*
X60500789Y-63144133D02*
X60600789Y-63177466D01*
X60600789Y-63177466D02*
X60634122Y-63210800D01*
X60934122Y-63844133D02*
X60934122Y-63144133D01*
X61334122Y-63844133D02*
X61034122Y-63444133D01*
X61334122Y-63144133D02*
X60934122Y-63544133D01*
D12*
G36*
X61428534Y-98805994D02*
G01*
X61295896Y-98673356D01*
X62146904Y-97822348D01*
X62279542Y-97954986D01*
X61428534Y-98805994D01*
G37*
G36*
X62309592Y-98024414D02*
G01*
X62460365Y-97873642D01*
X63805397Y-98683977D01*
X63651775Y-98837599D01*
X62309592Y-98024414D01*
G37*
G36*
X64546823Y-98539423D02*
G01*
X64406154Y-98680092D01*
X64320674Y-98661640D01*
X64237154Y-98639963D01*
X64155595Y-98615060D01*
X64075996Y-98586932D01*
X63998358Y-98555578D01*
X63922681Y-98520998D01*
X63892959Y-98506263D01*
X63820673Y-98467561D01*
X63751802Y-98426582D01*
X63686347Y-98383327D01*
X63624307Y-98337794D01*
X63565682Y-98289985D01*
X63510473Y-98239898D01*
X63489346Y-98219226D01*
X63426970Y-98153322D01*
X63369212Y-98084976D01*
X63316071Y-98014189D01*
X63267547Y-97940961D01*
X63223640Y-97865291D01*
X63184349Y-97787180D01*
X63169926Y-97755252D01*
X63140835Y-97685347D01*
X63114603Y-97615037D01*
X63091230Y-97544322D01*
X63070715Y-97473202D01*
X63053059Y-97401678D01*
X63038262Y-97329748D01*
X63033143Y-97300863D01*
X63173035Y-97160972D01*
X63202272Y-97238135D01*
X63231436Y-97311339D01*
X63260528Y-97380585D01*
X63296790Y-97461575D01*
X63332938Y-97536379D01*
X63368972Y-97604998D01*
X63404892Y-97667431D01*
X63449799Y-97737869D01*
X63498639Y-97806959D01*
X63551414Y-97874700D01*
X63608124Y-97941094D01*
X63658387Y-97995393D01*
X63689857Y-98027523D01*
X63750282Y-98085196D01*
X63806023Y-98134013D01*
X63864442Y-98181292D01*
X63925539Y-98227035D01*
X63952542Y-98246168D01*
X64016323Y-98288893D01*
X64080501Y-98328891D01*
X64145076Y-98366162D01*
X64210047Y-98400705D01*
X64247351Y-98419220D01*
X64319007Y-98451329D01*
X64390685Y-98480586D01*
X64463870Y-98508790D01*
X64534374Y-98534898D01*
X64546823Y-98539423D01*
G37*
G36*
X63802581Y-96715355D02*
G01*
X63876676Y-96741544D01*
X63942979Y-96786556D01*
X63961350Y-96803730D01*
X64007810Y-96860968D01*
X64041599Y-96932017D01*
X64056616Y-97010909D01*
X64057461Y-97036105D01*
X64049733Y-97109453D01*
X64023362Y-97183548D01*
X63978270Y-97249850D01*
X63961091Y-97268222D01*
X63903873Y-97314702D01*
X63832895Y-97348562D01*
X63754125Y-97363701D01*
X63728975Y-97364592D01*
X63655502Y-97356989D01*
X63581316Y-97330709D01*
X63514973Y-97285657D01*
X63496599Y-97268481D01*
X63449805Y-97210908D01*
X63415884Y-97139727D01*
X63400988Y-97060957D01*
X63400229Y-97035846D01*
X63400535Y-97032997D01*
X63568358Y-97032997D01*
X63586461Y-97105607D01*
X63617580Y-97147501D01*
X63680942Y-97187848D01*
X63732083Y-97196722D01*
X63804271Y-97181638D01*
X63845033Y-97152164D01*
X63883831Y-97086650D01*
X63889332Y-97039473D01*
X63871446Y-96966646D01*
X63840370Y-96924710D01*
X63776916Y-96884454D01*
X63725607Y-96875748D01*
X63653636Y-96890615D01*
X63612916Y-96920047D01*
X63574017Y-96985662D01*
X63568358Y-97032997D01*
X63400535Y-97032997D01*
X63408082Y-96962624D01*
X63434545Y-96888620D01*
X63479678Y-96822358D01*
X63496858Y-96803989D01*
X63554097Y-96757529D01*
X63625146Y-96723740D01*
X63704037Y-96708723D01*
X63729234Y-96707878D01*
X63802581Y-96715355D01*
G37*
G36*
X65174522Y-97911724D02*
G01*
X65041884Y-97779086D01*
X65892892Y-96928078D01*
X66025530Y-97060716D01*
X65174522Y-97911724D01*
G37*
G36*
X65863652Y-95353215D02*
G01*
X65943218Y-95372313D01*
X66019160Y-95403561D01*
X66091476Y-95446959D01*
X66148972Y-95492404D01*
X66182260Y-95523721D01*
X66233073Y-95580074D01*
X66282861Y-95651137D01*
X66320444Y-95725952D01*
X66345824Y-95804520D01*
X66359000Y-95886840D01*
X66361011Y-95929407D01*
X66355941Y-96013360D01*
X66338594Y-96093269D01*
X66308970Y-96169135D01*
X66267070Y-96240957D01*
X66212892Y-96308735D01*
X66192105Y-96330430D01*
X66136472Y-96380039D01*
X66076046Y-96422395D01*
X66010828Y-96457498D01*
X65940818Y-96485347D01*
X65868492Y-96503626D01*
X65787319Y-96510605D01*
X65706350Y-96503198D01*
X65652485Y-96490269D01*
X65581325Y-96463084D01*
X65511363Y-96424533D01*
X65451129Y-96381476D01*
X65391813Y-96329718D01*
X65375034Y-96313332D01*
X65321836Y-96252184D01*
X65277656Y-96184150D01*
X65245953Y-96117896D01*
X65226852Y-96064635D01*
X65209511Y-95991791D01*
X65203047Y-95910345D01*
X65206797Y-95869046D01*
X65459746Y-95869046D01*
X65477925Y-95944876D01*
X65513192Y-96013773D01*
X65559576Y-96075530D01*
X65595751Y-96114375D01*
X65657828Y-96169619D01*
X65719452Y-96210744D01*
X65788237Y-96240134D01*
X65841339Y-96250639D01*
X65919529Y-96247670D01*
X65993865Y-96219783D01*
X66042110Y-96181989D01*
X66086276Y-96122210D01*
X66109670Y-96046175D01*
X66110242Y-95981737D01*
X66091637Y-95905754D01*
X66055815Y-95836462D01*
X66008800Y-95774146D01*
X65972164Y-95734854D01*
X65910799Y-95680289D01*
X65849758Y-95639650D01*
X65781475Y-95610574D01*
X65728649Y-95600143D01*
X65650606Y-95602670D01*
X65576362Y-95630284D01*
X65528137Y-95668017D01*
X65483940Y-95727887D01*
X65460442Y-95804232D01*
X65459746Y-95869046D01*
X65206797Y-95869046D01*
X65210395Y-95829431D01*
X65222966Y-95775785D01*
X65248305Y-95706244D01*
X65282614Y-95640362D01*
X65325893Y-95578139D01*
X65378142Y-95519576D01*
X65434276Y-95469033D01*
X65504926Y-95419852D01*
X65579165Y-95383185D01*
X65656992Y-95359032D01*
X65738407Y-95347393D01*
X65780460Y-95346266D01*
X65863652Y-95353215D01*
G37*
G36*
X66971094Y-96115152D02*
G01*
X66942968Y-96037430D01*
X66917074Y-95968832D01*
X66887060Y-95894041D01*
X66860735Y-95834332D01*
X66828262Y-95768582D01*
X66789972Y-95698852D01*
X66750117Y-95632007D01*
X66707656Y-95565168D01*
X66664789Y-95502276D01*
X66617169Y-95437652D01*
X66612816Y-95432014D01*
X66563253Y-95370652D01*
X66510384Y-95310882D01*
X66459453Y-95257927D01*
X66405722Y-95206018D01*
X66351068Y-95156828D01*
X66284265Y-95101390D01*
X66216131Y-95049869D01*
X66146668Y-95002264D01*
X66099621Y-94972703D01*
X66024125Y-94929418D01*
X65954367Y-94893264D01*
X65878384Y-94857033D01*
X65796179Y-94820727D01*
X65725934Y-94791628D01*
X65651705Y-94762480D01*
X65593420Y-94740587D01*
X65732794Y-94601213D01*
X65814535Y-94616558D01*
X65894771Y-94635230D01*
X65973502Y-94657228D01*
X66050727Y-94682553D01*
X66126448Y-94711205D01*
X66200663Y-94743184D01*
X66229927Y-94756907D01*
X66301508Y-94793412D01*
X66370370Y-94833142D01*
X66436512Y-94876098D01*
X66499935Y-94922280D01*
X66560638Y-94971687D01*
X66618621Y-95024320D01*
X66641053Y-95046276D01*
X66696178Y-95104789D01*
X66749445Y-95168220D01*
X66800854Y-95236569D01*
X66842275Y-95297283D01*
X66882407Y-95361413D01*
X66913583Y-95415175D01*
X66954711Y-95493771D01*
X66992120Y-95575579D01*
X67025810Y-95660600D01*
X67050085Y-95730931D01*
X67071980Y-95803318D01*
X67091494Y-95877760D01*
X67108628Y-95954260D01*
X67112540Y-95973706D01*
X66971094Y-96115152D01*
G37*
G36*
X67114612Y-95374762D02*
G01*
X66301427Y-94032579D01*
X66455049Y-93878957D01*
X67265385Y-95223990D01*
X67114612Y-95374762D01*
G37*
G36*
X66387953Y-93846575D02*
G01*
X66255315Y-93713937D01*
X67106323Y-92862929D01*
X67238961Y-92995567D01*
X66387953Y-93846575D01*
G37*
D11*
X67017455Y-63844133D02*
X67017455Y-63144133D01*
X67017455Y-63144133D02*
X67250789Y-63644133D01*
X67250789Y-63644133D02*
X67484122Y-63144133D01*
X67484122Y-63144133D02*
X67484122Y-63844133D01*
X67817455Y-63844133D02*
X67817455Y-63144133D01*
X68117455Y-63810800D02*
X68217455Y-63844133D01*
X68217455Y-63844133D02*
X68384122Y-63844133D01*
X68384122Y-63844133D02*
X68450788Y-63810800D01*
X68450788Y-63810800D02*
X68484122Y-63777466D01*
X68484122Y-63777466D02*
X68517455Y-63710800D01*
X68517455Y-63710800D02*
X68517455Y-63644133D01*
X68517455Y-63644133D02*
X68484122Y-63577466D01*
X68484122Y-63577466D02*
X68450788Y-63544133D01*
X68450788Y-63544133D02*
X68384122Y-63510800D01*
X68384122Y-63510800D02*
X68250788Y-63477466D01*
X68250788Y-63477466D02*
X68184122Y-63444133D01*
X68184122Y-63444133D02*
X68150788Y-63410800D01*
X68150788Y-63410800D02*
X68117455Y-63344133D01*
X68117455Y-63344133D02*
X68117455Y-63277466D01*
X68117455Y-63277466D02*
X68150788Y-63210800D01*
X68150788Y-63210800D02*
X68184122Y-63177466D01*
X68184122Y-63177466D02*
X68250788Y-63144133D01*
X68250788Y-63144133D02*
X68417455Y-63144133D01*
X68417455Y-63144133D02*
X68517455Y-63177466D01*
X68950789Y-63144133D02*
X69084122Y-63144133D01*
X69084122Y-63144133D02*
X69150789Y-63177466D01*
X69150789Y-63177466D02*
X69217455Y-63244133D01*
X69217455Y-63244133D02*
X69250789Y-63377466D01*
X69250789Y-63377466D02*
X69250789Y-63610800D01*
X69250789Y-63610800D02*
X69217455Y-63744133D01*
X69217455Y-63744133D02*
X69150789Y-63810800D01*
X69150789Y-63810800D02*
X69084122Y-63844133D01*
X69084122Y-63844133D02*
X68950789Y-63844133D01*
X68950789Y-63844133D02*
X68884122Y-63810800D01*
X68884122Y-63810800D02*
X68817455Y-63744133D01*
X68817455Y-63744133D02*
X68784122Y-63610800D01*
X68784122Y-63610800D02*
X68784122Y-63377466D01*
X68784122Y-63377466D02*
X68817455Y-63244133D01*
X68817455Y-63244133D02*
X68884122Y-63177466D01*
X68884122Y-63177466D02*
X68950789Y-63144133D01*
X71244122Y-65592466D02*
X71177455Y-65559133D01*
X71177455Y-65559133D02*
X71077455Y-65559133D01*
X71077455Y-65559133D02*
X70977455Y-65592466D01*
X70977455Y-65592466D02*
X70910789Y-65659133D01*
X70910789Y-65659133D02*
X70877455Y-65725800D01*
X70877455Y-65725800D02*
X70844122Y-65859133D01*
X70844122Y-65859133D02*
X70844122Y-65959133D01*
X70844122Y-65959133D02*
X70877455Y-66092466D01*
X70877455Y-66092466D02*
X70910789Y-66159133D01*
X70910789Y-66159133D02*
X70977455Y-66225800D01*
X70977455Y-66225800D02*
X71077455Y-66259133D01*
X71077455Y-66259133D02*
X71144122Y-66259133D01*
X71144122Y-66259133D02*
X71244122Y-66225800D01*
X71244122Y-66225800D02*
X71277455Y-66192466D01*
X71277455Y-66192466D02*
X71277455Y-65959133D01*
X71277455Y-65959133D02*
X71144122Y-65959133D01*
X71577455Y-66259133D02*
X71577455Y-65559133D01*
X71577455Y-65559133D02*
X71977455Y-66259133D01*
X71977455Y-66259133D02*
X71977455Y-65559133D01*
X72310788Y-66259133D02*
X72310788Y-65559133D01*
X72310788Y-65559133D02*
X72477455Y-65559133D01*
X72477455Y-65559133D02*
X72577455Y-65592466D01*
X72577455Y-65592466D02*
X72644122Y-65659133D01*
X72644122Y-65659133D02*
X72677455Y-65725800D01*
X72677455Y-65725800D02*
X72710788Y-65859133D01*
X72710788Y-65859133D02*
X72710788Y-65959133D01*
X72710788Y-65959133D02*
X72677455Y-66092466D01*
X72677455Y-66092466D02*
X72644122Y-66159133D01*
X72644122Y-66159133D02*
X72577455Y-66225800D01*
X72577455Y-66225800D02*
X72477455Y-66259133D01*
X72477455Y-66259133D02*
X72310788Y-66259133D01*
X62567455Y-63844133D02*
X62334122Y-63510800D01*
X62167455Y-63844133D02*
X62167455Y-63144133D01*
X62167455Y-63144133D02*
X62434122Y-63144133D01*
X62434122Y-63144133D02*
X62500789Y-63177466D01*
X62500789Y-63177466D02*
X62534122Y-63210800D01*
X62534122Y-63210800D02*
X62567455Y-63277466D01*
X62567455Y-63277466D02*
X62567455Y-63377466D01*
X62567455Y-63377466D02*
X62534122Y-63444133D01*
X62534122Y-63444133D02*
X62500789Y-63477466D01*
X62500789Y-63477466D02*
X62434122Y-63510800D01*
X62434122Y-63510800D02*
X62167455Y-63510800D01*
X62834122Y-63810800D02*
X62934122Y-63844133D01*
X62934122Y-63844133D02*
X63100789Y-63844133D01*
X63100789Y-63844133D02*
X63167455Y-63810800D01*
X63167455Y-63810800D02*
X63200789Y-63777466D01*
X63200789Y-63777466D02*
X63234122Y-63710800D01*
X63234122Y-63710800D02*
X63234122Y-63644133D01*
X63234122Y-63644133D02*
X63200789Y-63577466D01*
X63200789Y-63577466D02*
X63167455Y-63544133D01*
X63167455Y-63544133D02*
X63100789Y-63510800D01*
X63100789Y-63510800D02*
X62967455Y-63477466D01*
X62967455Y-63477466D02*
X62900789Y-63444133D01*
X62900789Y-63444133D02*
X62867455Y-63410800D01*
X62867455Y-63410800D02*
X62834122Y-63344133D01*
X62834122Y-63344133D02*
X62834122Y-63277466D01*
X62834122Y-63277466D02*
X62867455Y-63210800D01*
X62867455Y-63210800D02*
X62900789Y-63177466D01*
X62900789Y-63177466D02*
X62967455Y-63144133D01*
X62967455Y-63144133D02*
X63134122Y-63144133D01*
X63134122Y-63144133D02*
X63234122Y-63177466D01*
X63434122Y-63144133D02*
X63834122Y-63144133D01*
X63634122Y-63844133D02*
X63634122Y-63144133D01*
X79466666Y-45968633D02*
X79466666Y-45268633D01*
X80199999Y-45901966D02*
X80166666Y-45935300D01*
X80166666Y-45935300D02*
X80066666Y-45968633D01*
X80066666Y-45968633D02*
X79999999Y-45968633D01*
X79999999Y-45968633D02*
X79899999Y-45935300D01*
X79899999Y-45935300D02*
X79833333Y-45868633D01*
X79833333Y-45868633D02*
X79799999Y-45801966D01*
X79799999Y-45801966D02*
X79766666Y-45668633D01*
X79766666Y-45668633D02*
X79766666Y-45568633D01*
X79766666Y-45568633D02*
X79799999Y-45435300D01*
X79799999Y-45435300D02*
X79833333Y-45368633D01*
X79833333Y-45368633D02*
X79899999Y-45301966D01*
X79899999Y-45301966D02*
X79999999Y-45268633D01*
X79999999Y-45268633D02*
X80066666Y-45268633D01*
X80066666Y-45268633D02*
X80166666Y-45301966D01*
X80166666Y-45301966D02*
X80199999Y-45335300D01*
X80866666Y-45968633D02*
X80466666Y-45968633D01*
X80666666Y-45968633D02*
X80666666Y-45268633D01*
X80666666Y-45268633D02*
X80599999Y-45368633D01*
X80599999Y-45368633D02*
X80533333Y-45435300D01*
X80533333Y-45435300D02*
X80466666Y-45468633D01*
X82599999Y-42318633D02*
X82366666Y-41985300D01*
X82199999Y-42318633D02*
X82199999Y-41618633D01*
X82199999Y-41618633D02*
X82466666Y-41618633D01*
X82466666Y-41618633D02*
X82533333Y-41651966D01*
X82533333Y-41651966D02*
X82566666Y-41685300D01*
X82566666Y-41685300D02*
X82599999Y-41751966D01*
X82599999Y-41751966D02*
X82599999Y-41851966D01*
X82599999Y-41851966D02*
X82566666Y-41918633D01*
X82566666Y-41918633D02*
X82533333Y-41951966D01*
X82533333Y-41951966D02*
X82466666Y-41985300D01*
X82466666Y-41985300D02*
X82199999Y-41985300D01*
X83266666Y-42318633D02*
X82866666Y-42318633D01*
X83066666Y-42318633D02*
X83066666Y-41618633D01*
X83066666Y-41618633D02*
X82999999Y-41718633D01*
X82999999Y-41718633D02*
X82933333Y-41785300D01*
X82933333Y-41785300D02*
X82866666Y-41818633D01*
X83500000Y-41618633D02*
X83966666Y-41618633D01*
X83966666Y-41618633D02*
X83666666Y-42318633D01*
X59651966Y-53666666D02*
X59685300Y-53699999D01*
X59685300Y-53699999D02*
X59718633Y-53799999D01*
X59718633Y-53799999D02*
X59718633Y-53866666D01*
X59718633Y-53866666D02*
X59685300Y-53966666D01*
X59685300Y-53966666D02*
X59618633Y-54033333D01*
X59618633Y-54033333D02*
X59551966Y-54066666D01*
X59551966Y-54066666D02*
X59418633Y-54099999D01*
X59418633Y-54099999D02*
X59318633Y-54099999D01*
X59318633Y-54099999D02*
X59185300Y-54066666D01*
X59185300Y-54066666D02*
X59118633Y-54033333D01*
X59118633Y-54033333D02*
X59051966Y-53966666D01*
X59051966Y-53966666D02*
X59018633Y-53866666D01*
X59018633Y-53866666D02*
X59018633Y-53799999D01*
X59018633Y-53799999D02*
X59051966Y-53699999D01*
X59051966Y-53699999D02*
X59085300Y-53666666D01*
X59018633Y-53066666D02*
X59018633Y-53199999D01*
X59018633Y-53199999D02*
X59051966Y-53266666D01*
X59051966Y-53266666D02*
X59085300Y-53299999D01*
X59085300Y-53299999D02*
X59185300Y-53366666D01*
X59185300Y-53366666D02*
X59318633Y-53399999D01*
X59318633Y-53399999D02*
X59585300Y-53399999D01*
X59585300Y-53399999D02*
X59651966Y-53366666D01*
X59651966Y-53366666D02*
X59685300Y-53333333D01*
X59685300Y-53333333D02*
X59718633Y-53266666D01*
X59718633Y-53266666D02*
X59718633Y-53133333D01*
X59718633Y-53133333D02*
X59685300Y-53066666D01*
X59685300Y-53066666D02*
X59651966Y-53033333D01*
X59651966Y-53033333D02*
X59585300Y-52999999D01*
X59585300Y-52999999D02*
X59418633Y-52999999D01*
X59418633Y-52999999D02*
X59351966Y-53033333D01*
X59351966Y-53033333D02*
X59318633Y-53066666D01*
X59318633Y-53066666D02*
X59285300Y-53133333D01*
X59285300Y-53133333D02*
X59285300Y-53266666D01*
X59285300Y-53266666D02*
X59318633Y-53333333D01*
X59318633Y-53333333D02*
X59351966Y-53366666D01*
X59351966Y-53366666D02*
X59418633Y-53399999D01*
X64568633Y-61666666D02*
X64235300Y-61899999D01*
X64568633Y-62066666D02*
X63868633Y-62066666D01*
X63868633Y-62066666D02*
X63868633Y-61799999D01*
X63868633Y-61799999D02*
X63901966Y-61733333D01*
X63901966Y-61733333D02*
X63935300Y-61699999D01*
X63935300Y-61699999D02*
X64001966Y-61666666D01*
X64001966Y-61666666D02*
X64101966Y-61666666D01*
X64101966Y-61666666D02*
X64168633Y-61699999D01*
X64168633Y-61699999D02*
X64201966Y-61733333D01*
X64201966Y-61733333D02*
X64235300Y-61799999D01*
X64235300Y-61799999D02*
X64235300Y-62066666D01*
X64568633Y-61333333D02*
X64568633Y-61199999D01*
X64568633Y-61199999D02*
X64535300Y-61133333D01*
X64535300Y-61133333D02*
X64501966Y-61099999D01*
X64501966Y-61099999D02*
X64401966Y-61033333D01*
X64401966Y-61033333D02*
X64268633Y-60999999D01*
X64268633Y-60999999D02*
X64001966Y-60999999D01*
X64001966Y-60999999D02*
X63935300Y-61033333D01*
X63935300Y-61033333D02*
X63901966Y-61066666D01*
X63901966Y-61066666D02*
X63868633Y-61133333D01*
X63868633Y-61133333D02*
X63868633Y-61266666D01*
X63868633Y-61266666D02*
X63901966Y-61333333D01*
X63901966Y-61333333D02*
X63935300Y-61366666D01*
X63935300Y-61366666D02*
X64001966Y-61399999D01*
X64001966Y-61399999D02*
X64168633Y-61399999D01*
X64168633Y-61399999D02*
X64235300Y-61366666D01*
X64235300Y-61366666D02*
X64268633Y-61333333D01*
X64268633Y-61333333D02*
X64301966Y-61266666D01*
X64301966Y-61266666D02*
X64301966Y-61133333D01*
X64301966Y-61133333D02*
X64268633Y-61066666D01*
X64268633Y-61066666D02*
X64235300Y-61033333D01*
X64235300Y-61033333D02*
X64168633Y-60999999D01*
X92499999Y-41318633D02*
X92266666Y-40985300D01*
X92099999Y-41318633D02*
X92099999Y-40618633D01*
X92099999Y-40618633D02*
X92366666Y-40618633D01*
X92366666Y-40618633D02*
X92433333Y-40651966D01*
X92433333Y-40651966D02*
X92466666Y-40685300D01*
X92466666Y-40685300D02*
X92499999Y-40751966D01*
X92499999Y-40751966D02*
X92499999Y-40851966D01*
X92499999Y-40851966D02*
X92466666Y-40918633D01*
X92466666Y-40918633D02*
X92433333Y-40951966D01*
X92433333Y-40951966D02*
X92366666Y-40985300D01*
X92366666Y-40985300D02*
X92099999Y-40985300D01*
X93166666Y-41318633D02*
X92766666Y-41318633D01*
X92966666Y-41318633D02*
X92966666Y-40618633D01*
X92966666Y-40618633D02*
X92899999Y-40718633D01*
X92899999Y-40718633D02*
X92833333Y-40785300D01*
X92833333Y-40785300D02*
X92766666Y-40818633D01*
X93566666Y-40918633D02*
X93500000Y-40885300D01*
X93500000Y-40885300D02*
X93466666Y-40851966D01*
X93466666Y-40851966D02*
X93433333Y-40785300D01*
X93433333Y-40785300D02*
X93433333Y-40751966D01*
X93433333Y-40751966D02*
X93466666Y-40685300D01*
X93466666Y-40685300D02*
X93500000Y-40651966D01*
X93500000Y-40651966D02*
X93566666Y-40618633D01*
X93566666Y-40618633D02*
X93700000Y-40618633D01*
X93700000Y-40618633D02*
X93766666Y-40651966D01*
X93766666Y-40651966D02*
X93800000Y-40685300D01*
X93800000Y-40685300D02*
X93833333Y-40751966D01*
X93833333Y-40751966D02*
X93833333Y-40785300D01*
X93833333Y-40785300D02*
X93800000Y-40851966D01*
X93800000Y-40851966D02*
X93766666Y-40885300D01*
X93766666Y-40885300D02*
X93700000Y-40918633D01*
X93700000Y-40918633D02*
X93566666Y-40918633D01*
X93566666Y-40918633D02*
X93500000Y-40951966D01*
X93500000Y-40951966D02*
X93466666Y-40985300D01*
X93466666Y-40985300D02*
X93433333Y-41051966D01*
X93433333Y-41051966D02*
X93433333Y-41185300D01*
X93433333Y-41185300D02*
X93466666Y-41251966D01*
X93466666Y-41251966D02*
X93500000Y-41285300D01*
X93500000Y-41285300D02*
X93566666Y-41318633D01*
X93566666Y-41318633D02*
X93700000Y-41318633D01*
X93700000Y-41318633D02*
X93766666Y-41285300D01*
X93766666Y-41285300D02*
X93800000Y-41251966D01*
X93800000Y-41251966D02*
X93833333Y-41185300D01*
X93833333Y-41185300D02*
X93833333Y-41051966D01*
X93833333Y-41051966D02*
X93800000Y-40985300D01*
X93800000Y-40985300D02*
X93766666Y-40951966D01*
X93766666Y-40951966D02*
X93700000Y-40918633D01*
X58201966Y-50140000D02*
X58235300Y-50173333D01*
X58235300Y-50173333D02*
X58268633Y-50273333D01*
X58268633Y-50273333D02*
X58268633Y-50340000D01*
X58268633Y-50340000D02*
X58235300Y-50440000D01*
X58235300Y-50440000D02*
X58168633Y-50506667D01*
X58168633Y-50506667D02*
X58101966Y-50540000D01*
X58101966Y-50540000D02*
X57968633Y-50573333D01*
X57968633Y-50573333D02*
X57868633Y-50573333D01*
X57868633Y-50573333D02*
X57735300Y-50540000D01*
X57735300Y-50540000D02*
X57668633Y-50506667D01*
X57668633Y-50506667D02*
X57601966Y-50440000D01*
X57601966Y-50440000D02*
X57568633Y-50340000D01*
X57568633Y-50340000D02*
X57568633Y-50273333D01*
X57568633Y-50273333D02*
X57601966Y-50173333D01*
X57601966Y-50173333D02*
X57635300Y-50140000D01*
X58268633Y-49473333D02*
X58268633Y-49873333D01*
X58268633Y-49673333D02*
X57568633Y-49673333D01*
X57568633Y-49673333D02*
X57668633Y-49740000D01*
X57668633Y-49740000D02*
X57735300Y-49806667D01*
X57735300Y-49806667D02*
X57768633Y-49873333D01*
X57635300Y-49206666D02*
X57601966Y-49173333D01*
X57601966Y-49173333D02*
X57568633Y-49106666D01*
X57568633Y-49106666D02*
X57568633Y-48940000D01*
X57568633Y-48940000D02*
X57601966Y-48873333D01*
X57601966Y-48873333D02*
X57635300Y-48840000D01*
X57635300Y-48840000D02*
X57701966Y-48806666D01*
X57701966Y-48806666D02*
X57768633Y-48806666D01*
X57768633Y-48806666D02*
X57868633Y-48840000D01*
X57868633Y-48840000D02*
X58268633Y-49240000D01*
X58268633Y-49240000D02*
X58268633Y-48806666D01*
X101299999Y-56643633D02*
X101066666Y-56310300D01*
X100899999Y-56643633D02*
X100899999Y-55943633D01*
X100899999Y-55943633D02*
X101166666Y-55943633D01*
X101166666Y-55943633D02*
X101233333Y-55976966D01*
X101233333Y-55976966D02*
X101266666Y-56010300D01*
X101266666Y-56010300D02*
X101299999Y-56076966D01*
X101299999Y-56076966D02*
X101299999Y-56176966D01*
X101299999Y-56176966D02*
X101266666Y-56243633D01*
X101266666Y-56243633D02*
X101233333Y-56276966D01*
X101233333Y-56276966D02*
X101166666Y-56310300D01*
X101166666Y-56310300D02*
X100899999Y-56310300D01*
X101566666Y-56010300D02*
X101599999Y-55976966D01*
X101599999Y-55976966D02*
X101666666Y-55943633D01*
X101666666Y-55943633D02*
X101833333Y-55943633D01*
X101833333Y-55943633D02*
X101899999Y-55976966D01*
X101899999Y-55976966D02*
X101933333Y-56010300D01*
X101933333Y-56010300D02*
X101966666Y-56076966D01*
X101966666Y-56076966D02*
X101966666Y-56143633D01*
X101966666Y-56143633D02*
X101933333Y-56243633D01*
X101933333Y-56243633D02*
X101533333Y-56643633D01*
X101533333Y-56643633D02*
X101966666Y-56643633D01*
X102200000Y-55943633D02*
X102633333Y-55943633D01*
X102633333Y-55943633D02*
X102400000Y-56210300D01*
X102400000Y-56210300D02*
X102500000Y-56210300D01*
X102500000Y-56210300D02*
X102566666Y-56243633D01*
X102566666Y-56243633D02*
X102600000Y-56276966D01*
X102600000Y-56276966D02*
X102633333Y-56343633D01*
X102633333Y-56343633D02*
X102633333Y-56510300D01*
X102633333Y-56510300D02*
X102600000Y-56576966D01*
X102600000Y-56576966D02*
X102566666Y-56610300D01*
X102566666Y-56610300D02*
X102500000Y-56643633D01*
X102500000Y-56643633D02*
X102300000Y-56643633D01*
X102300000Y-56643633D02*
X102233333Y-56610300D01*
X102233333Y-56610300D02*
X102200000Y-56576966D01*
X62958633Y-43376667D02*
X62958633Y-43710000D01*
X62958633Y-43710000D02*
X62258633Y-43710000D01*
X62958633Y-42776666D02*
X62958633Y-43176666D01*
X62958633Y-42976666D02*
X62258633Y-42976666D01*
X62258633Y-42976666D02*
X62358633Y-43043333D01*
X62358633Y-43043333D02*
X62425300Y-43110000D01*
X62425300Y-43110000D02*
X62458633Y-43176666D01*
X101283333Y-44218633D02*
X101050000Y-43885300D01*
X100883333Y-44218633D02*
X100883333Y-43518633D01*
X100883333Y-43518633D02*
X101150000Y-43518633D01*
X101150000Y-43518633D02*
X101216667Y-43551966D01*
X101216667Y-43551966D02*
X101250000Y-43585300D01*
X101250000Y-43585300D02*
X101283333Y-43651966D01*
X101283333Y-43651966D02*
X101283333Y-43751966D01*
X101283333Y-43751966D02*
X101250000Y-43818633D01*
X101250000Y-43818633D02*
X101216667Y-43851966D01*
X101216667Y-43851966D02*
X101150000Y-43885300D01*
X101150000Y-43885300D02*
X100883333Y-43885300D01*
X101916667Y-43518633D02*
X101583333Y-43518633D01*
X101583333Y-43518633D02*
X101550000Y-43851966D01*
X101550000Y-43851966D02*
X101583333Y-43818633D01*
X101583333Y-43818633D02*
X101650000Y-43785300D01*
X101650000Y-43785300D02*
X101816667Y-43785300D01*
X101816667Y-43785300D02*
X101883333Y-43818633D01*
X101883333Y-43818633D02*
X101916667Y-43851966D01*
X101916667Y-43851966D02*
X101950000Y-43918633D01*
X101950000Y-43918633D02*
X101950000Y-44085300D01*
X101950000Y-44085300D02*
X101916667Y-44151966D01*
X101916667Y-44151966D02*
X101883333Y-44185300D01*
X101883333Y-44185300D02*
X101816667Y-44218633D01*
X101816667Y-44218633D02*
X101650000Y-44218633D01*
X101650000Y-44218633D02*
X101583333Y-44185300D01*
X101583333Y-44185300D02*
X101550000Y-44151966D01*
X63701966Y-47856664D02*
X63735300Y-47889997D01*
X63735300Y-47889997D02*
X63768633Y-47989997D01*
X63768633Y-47989997D02*
X63768633Y-48056664D01*
X63768633Y-48056664D02*
X63735300Y-48156664D01*
X63735300Y-48156664D02*
X63668633Y-48223331D01*
X63668633Y-48223331D02*
X63601966Y-48256664D01*
X63601966Y-48256664D02*
X63468633Y-48289997D01*
X63468633Y-48289997D02*
X63368633Y-48289997D01*
X63368633Y-48289997D02*
X63235300Y-48256664D01*
X63235300Y-48256664D02*
X63168633Y-48223331D01*
X63168633Y-48223331D02*
X63101966Y-48156664D01*
X63101966Y-48156664D02*
X63068633Y-48056664D01*
X63068633Y-48056664D02*
X63068633Y-47989997D01*
X63068633Y-47989997D02*
X63101966Y-47889997D01*
X63101966Y-47889997D02*
X63135300Y-47856664D01*
X63768633Y-47523331D02*
X63768633Y-47389997D01*
X63768633Y-47389997D02*
X63735300Y-47323331D01*
X63735300Y-47323331D02*
X63701966Y-47289997D01*
X63701966Y-47289997D02*
X63601966Y-47223331D01*
X63601966Y-47223331D02*
X63468633Y-47189997D01*
X63468633Y-47189997D02*
X63201966Y-47189997D01*
X63201966Y-47189997D02*
X63135300Y-47223331D01*
X63135300Y-47223331D02*
X63101966Y-47256664D01*
X63101966Y-47256664D02*
X63068633Y-47323331D01*
X63068633Y-47323331D02*
X63068633Y-47456664D01*
X63068633Y-47456664D02*
X63101966Y-47523331D01*
X63101966Y-47523331D02*
X63135300Y-47556664D01*
X63135300Y-47556664D02*
X63201966Y-47589997D01*
X63201966Y-47589997D02*
X63368633Y-47589997D01*
X63368633Y-47589997D02*
X63435300Y-47556664D01*
X63435300Y-47556664D02*
X63468633Y-47523331D01*
X63468633Y-47523331D02*
X63501966Y-47456664D01*
X63501966Y-47456664D02*
X63501966Y-47323331D01*
X63501966Y-47323331D02*
X63468633Y-47256664D01*
X63468633Y-47256664D02*
X63435300Y-47223331D01*
X63435300Y-47223331D02*
X63368633Y-47189997D01*
X82101966Y-52350000D02*
X82135300Y-52383333D01*
X82135300Y-52383333D02*
X82168633Y-52483333D01*
X82168633Y-52483333D02*
X82168633Y-52550000D01*
X82168633Y-52550000D02*
X82135300Y-52650000D01*
X82135300Y-52650000D02*
X82068633Y-52716667D01*
X82068633Y-52716667D02*
X82001966Y-52750000D01*
X82001966Y-52750000D02*
X81868633Y-52783333D01*
X81868633Y-52783333D02*
X81768633Y-52783333D01*
X81768633Y-52783333D02*
X81635300Y-52750000D01*
X81635300Y-52750000D02*
X81568633Y-52716667D01*
X81568633Y-52716667D02*
X81501966Y-52650000D01*
X81501966Y-52650000D02*
X81468633Y-52550000D01*
X81468633Y-52550000D02*
X81468633Y-52483333D01*
X81468633Y-52483333D02*
X81501966Y-52383333D01*
X81501966Y-52383333D02*
X81535300Y-52350000D01*
X82168633Y-51683333D02*
X82168633Y-52083333D01*
X82168633Y-51883333D02*
X81468633Y-51883333D01*
X81468633Y-51883333D02*
X81568633Y-51950000D01*
X81568633Y-51950000D02*
X81635300Y-52016667D01*
X81635300Y-52016667D02*
X81668633Y-52083333D01*
X81768633Y-51283333D02*
X81735300Y-51350000D01*
X81735300Y-51350000D02*
X81701966Y-51383333D01*
X81701966Y-51383333D02*
X81635300Y-51416666D01*
X81635300Y-51416666D02*
X81601966Y-51416666D01*
X81601966Y-51416666D02*
X81535300Y-51383333D01*
X81535300Y-51383333D02*
X81501966Y-51350000D01*
X81501966Y-51350000D02*
X81468633Y-51283333D01*
X81468633Y-51283333D02*
X81468633Y-51150000D01*
X81468633Y-51150000D02*
X81501966Y-51083333D01*
X81501966Y-51083333D02*
X81535300Y-51050000D01*
X81535300Y-51050000D02*
X81601966Y-51016666D01*
X81601966Y-51016666D02*
X81635300Y-51016666D01*
X81635300Y-51016666D02*
X81701966Y-51050000D01*
X81701966Y-51050000D02*
X81735300Y-51083333D01*
X81735300Y-51083333D02*
X81768633Y-51150000D01*
X81768633Y-51150000D02*
X81768633Y-51283333D01*
X81768633Y-51283333D02*
X81801966Y-51350000D01*
X81801966Y-51350000D02*
X81835300Y-51383333D01*
X81835300Y-51383333D02*
X81901966Y-51416666D01*
X81901966Y-51416666D02*
X82035300Y-51416666D01*
X82035300Y-51416666D02*
X82101966Y-51383333D01*
X82101966Y-51383333D02*
X82135300Y-51350000D01*
X82135300Y-51350000D02*
X82168633Y-51283333D01*
X82168633Y-51283333D02*
X82168633Y-51150000D01*
X82168633Y-51150000D02*
X82135300Y-51083333D01*
X82135300Y-51083333D02*
X82101966Y-51050000D01*
X82101966Y-51050000D02*
X82035300Y-51016666D01*
X82035300Y-51016666D02*
X81901966Y-51016666D01*
X81901966Y-51016666D02*
X81835300Y-51050000D01*
X81835300Y-51050000D02*
X81801966Y-51083333D01*
X81801966Y-51083333D02*
X81768633Y-51150000D01*
X92499999Y-66168633D02*
X92266666Y-65835300D01*
X92099999Y-66168633D02*
X92099999Y-65468633D01*
X92099999Y-65468633D02*
X92366666Y-65468633D01*
X92366666Y-65468633D02*
X92433333Y-65501966D01*
X92433333Y-65501966D02*
X92466666Y-65535300D01*
X92466666Y-65535300D02*
X92499999Y-65601966D01*
X92499999Y-65601966D02*
X92499999Y-65701966D01*
X92499999Y-65701966D02*
X92466666Y-65768633D01*
X92466666Y-65768633D02*
X92433333Y-65801966D01*
X92433333Y-65801966D02*
X92366666Y-65835300D01*
X92366666Y-65835300D02*
X92099999Y-65835300D01*
X92766666Y-65535300D02*
X92799999Y-65501966D01*
X92799999Y-65501966D02*
X92866666Y-65468633D01*
X92866666Y-65468633D02*
X93033333Y-65468633D01*
X93033333Y-65468633D02*
X93099999Y-65501966D01*
X93099999Y-65501966D02*
X93133333Y-65535300D01*
X93133333Y-65535300D02*
X93166666Y-65601966D01*
X93166666Y-65601966D02*
X93166666Y-65668633D01*
X93166666Y-65668633D02*
X93133333Y-65768633D01*
X93133333Y-65768633D02*
X92733333Y-66168633D01*
X92733333Y-66168633D02*
X93166666Y-66168633D01*
X93433333Y-65535300D02*
X93466666Y-65501966D01*
X93466666Y-65501966D02*
X93533333Y-65468633D01*
X93533333Y-65468633D02*
X93700000Y-65468633D01*
X93700000Y-65468633D02*
X93766666Y-65501966D01*
X93766666Y-65501966D02*
X93800000Y-65535300D01*
X93800000Y-65535300D02*
X93833333Y-65601966D01*
X93833333Y-65601966D02*
X93833333Y-65668633D01*
X93833333Y-65668633D02*
X93800000Y-65768633D01*
X93800000Y-65768633D02*
X93400000Y-66168633D01*
X93400000Y-66168633D02*
X93833333Y-66168633D01*
X94983333Y-54435300D02*
X94916666Y-54401966D01*
X94916666Y-54401966D02*
X94850000Y-54335300D01*
X94850000Y-54335300D02*
X94750000Y-54235300D01*
X94750000Y-54235300D02*
X94683333Y-54201966D01*
X94683333Y-54201966D02*
X94616666Y-54201966D01*
X94650000Y-54368633D02*
X94583333Y-54335300D01*
X94583333Y-54335300D02*
X94516666Y-54268633D01*
X94516666Y-54268633D02*
X94483333Y-54135300D01*
X94483333Y-54135300D02*
X94483333Y-53901966D01*
X94483333Y-53901966D02*
X94516666Y-53768633D01*
X94516666Y-53768633D02*
X94583333Y-53701966D01*
X94583333Y-53701966D02*
X94650000Y-53668633D01*
X94650000Y-53668633D02*
X94783333Y-53668633D01*
X94783333Y-53668633D02*
X94850000Y-53701966D01*
X94850000Y-53701966D02*
X94916666Y-53768633D01*
X94916666Y-53768633D02*
X94950000Y-53901966D01*
X94950000Y-53901966D02*
X94950000Y-54135300D01*
X94950000Y-54135300D02*
X94916666Y-54268633D01*
X94916666Y-54268633D02*
X94850000Y-54335300D01*
X94850000Y-54335300D02*
X94783333Y-54368633D01*
X94783333Y-54368633D02*
X94650000Y-54368633D01*
X95583333Y-53668633D02*
X95249999Y-53668633D01*
X95249999Y-53668633D02*
X95216666Y-54001966D01*
X95216666Y-54001966D02*
X95249999Y-53968633D01*
X95249999Y-53968633D02*
X95316666Y-53935300D01*
X95316666Y-53935300D02*
X95483333Y-53935300D01*
X95483333Y-53935300D02*
X95549999Y-53968633D01*
X95549999Y-53968633D02*
X95583333Y-54001966D01*
X95583333Y-54001966D02*
X95616666Y-54068633D01*
X95616666Y-54068633D02*
X95616666Y-54235300D01*
X95616666Y-54235300D02*
X95583333Y-54301966D01*
X95583333Y-54301966D02*
X95549999Y-54335300D01*
X95549999Y-54335300D02*
X95483333Y-54368633D01*
X95483333Y-54368633D02*
X95316666Y-54368633D01*
X95316666Y-54368633D02*
X95249999Y-54335300D01*
X95249999Y-54335300D02*
X95216666Y-54301966D01*
D13*
X101566666Y-46954819D02*
X101566666Y-47669104D01*
X101566666Y-47669104D02*
X101519047Y-47811961D01*
X101519047Y-47811961D02*
X101423809Y-47907200D01*
X101423809Y-47907200D02*
X101280952Y-47954819D01*
X101280952Y-47954819D02*
X101185714Y-47954819D01*
X102471428Y-46954819D02*
X102280952Y-46954819D01*
X102280952Y-46954819D02*
X102185714Y-47002438D01*
X102185714Y-47002438D02*
X102138095Y-47050057D01*
X102138095Y-47050057D02*
X102042857Y-47192914D01*
X102042857Y-47192914D02*
X101995238Y-47383390D01*
X101995238Y-47383390D02*
X101995238Y-47764342D01*
X101995238Y-47764342D02*
X102042857Y-47859580D01*
X102042857Y-47859580D02*
X102090476Y-47907200D01*
X102090476Y-47907200D02*
X102185714Y-47954819D01*
X102185714Y-47954819D02*
X102376190Y-47954819D01*
X102376190Y-47954819D02*
X102471428Y-47907200D01*
X102471428Y-47907200D02*
X102519047Y-47859580D01*
X102519047Y-47859580D02*
X102566666Y-47764342D01*
X102566666Y-47764342D02*
X102566666Y-47526247D01*
X102566666Y-47526247D02*
X102519047Y-47431009D01*
X102519047Y-47431009D02*
X102471428Y-47383390D01*
X102471428Y-47383390D02*
X102376190Y-47335771D01*
X102376190Y-47335771D02*
X102185714Y-47335771D01*
X102185714Y-47335771D02*
X102090476Y-47383390D01*
X102090476Y-47383390D02*
X102042857Y-47431009D01*
X102042857Y-47431009D02*
X101995238Y-47526247D01*
D11*
X66749999Y-46018633D02*
X66683333Y-45985300D01*
X66683333Y-45985300D02*
X66649999Y-45951966D01*
X66649999Y-45951966D02*
X66616666Y-45885300D01*
X66616666Y-45885300D02*
X66616666Y-45851966D01*
X66616666Y-45851966D02*
X66649999Y-45785300D01*
X66649999Y-45785300D02*
X66683333Y-45751966D01*
X66683333Y-45751966D02*
X66749999Y-45718633D01*
X66749999Y-45718633D02*
X66883333Y-45718633D01*
X66883333Y-45718633D02*
X66949999Y-45751966D01*
X66949999Y-45751966D02*
X66983333Y-45785300D01*
X66983333Y-45785300D02*
X67016666Y-45851966D01*
X67016666Y-45851966D02*
X67016666Y-45885300D01*
X67016666Y-45885300D02*
X66983333Y-45951966D01*
X66983333Y-45951966D02*
X66949999Y-45985300D01*
X66949999Y-45985300D02*
X66883333Y-46018633D01*
X66883333Y-46018633D02*
X66749999Y-46018633D01*
X66749999Y-46018633D02*
X66683333Y-46051966D01*
X66683333Y-46051966D02*
X66649999Y-46085300D01*
X66649999Y-46085300D02*
X66616666Y-46151966D01*
X66616666Y-46151966D02*
X66616666Y-46285300D01*
X66616666Y-46285300D02*
X66649999Y-46351966D01*
X66649999Y-46351966D02*
X66683333Y-46385300D01*
X66683333Y-46385300D02*
X66749999Y-46418633D01*
X66749999Y-46418633D02*
X66883333Y-46418633D01*
X66883333Y-46418633D02*
X66949999Y-46385300D01*
X66949999Y-46385300D02*
X66983333Y-46351966D01*
X66983333Y-46351966D02*
X67016666Y-46285300D01*
X67016666Y-46285300D02*
X67016666Y-46151966D01*
X67016666Y-46151966D02*
X66983333Y-46085300D01*
X66983333Y-46085300D02*
X66949999Y-46051966D01*
X66949999Y-46051966D02*
X66883333Y-46018633D01*
X67316666Y-46418633D02*
X67316666Y-45718633D01*
X67316666Y-45718633D02*
X67550000Y-46218633D01*
X67550000Y-46218633D02*
X67783333Y-45718633D01*
X67783333Y-45718633D02*
X67783333Y-46418633D01*
X68116666Y-46418633D02*
X68116666Y-45718633D01*
X68116666Y-46051966D02*
X68516666Y-46051966D01*
X68516666Y-46418633D02*
X68516666Y-45718633D01*
X68783333Y-45951966D02*
X69149999Y-45951966D01*
X69149999Y-45951966D02*
X68783333Y-46418633D01*
X68783333Y-46418633D02*
X69149999Y-46418633D01*
X69783333Y-46418633D02*
X69383333Y-46418633D01*
X69583333Y-46418633D02*
X69583333Y-45718633D01*
X69583333Y-45718633D02*
X69516666Y-45818633D01*
X69516666Y-45818633D02*
X69450000Y-45885300D01*
X69450000Y-45885300D02*
X69383333Y-45918633D01*
D13*
X50166666Y-61554819D02*
X50166666Y-62269104D01*
X50166666Y-62269104D02*
X50119047Y-62411961D01*
X50119047Y-62411961D02*
X50023809Y-62507200D01*
X50023809Y-62507200D02*
X49880952Y-62554819D01*
X49880952Y-62554819D02*
X49785714Y-62554819D01*
X51071428Y-61888152D02*
X51071428Y-62554819D01*
X50833333Y-61507200D02*
X50595238Y-62221485D01*
X50595238Y-62221485D02*
X51214285Y-62221485D01*
D11*
X82649999Y-40848633D02*
X82416666Y-40515300D01*
X82249999Y-40848633D02*
X82249999Y-40148633D01*
X82249999Y-40148633D02*
X82516666Y-40148633D01*
X82516666Y-40148633D02*
X82583333Y-40181966D01*
X82583333Y-40181966D02*
X82616666Y-40215300D01*
X82616666Y-40215300D02*
X82649999Y-40281966D01*
X82649999Y-40281966D02*
X82649999Y-40381966D01*
X82649999Y-40381966D02*
X82616666Y-40448633D01*
X82616666Y-40448633D02*
X82583333Y-40481966D01*
X82583333Y-40481966D02*
X82516666Y-40515300D01*
X82516666Y-40515300D02*
X82249999Y-40515300D01*
X83316666Y-40848633D02*
X82916666Y-40848633D01*
X83116666Y-40848633D02*
X83116666Y-40148633D01*
X83116666Y-40148633D02*
X83049999Y-40248633D01*
X83049999Y-40248633D02*
X82983333Y-40315300D01*
X82983333Y-40315300D02*
X82916666Y-40348633D01*
X83916666Y-40148633D02*
X83783333Y-40148633D01*
X83783333Y-40148633D02*
X83716666Y-40181966D01*
X83716666Y-40181966D02*
X83683333Y-40215300D01*
X83683333Y-40215300D02*
X83616666Y-40315300D01*
X83616666Y-40315300D02*
X83583333Y-40448633D01*
X83583333Y-40448633D02*
X83583333Y-40715300D01*
X83583333Y-40715300D02*
X83616666Y-40781966D01*
X83616666Y-40781966D02*
X83650000Y-40815300D01*
X83650000Y-40815300D02*
X83716666Y-40848633D01*
X83716666Y-40848633D02*
X83850000Y-40848633D01*
X83850000Y-40848633D02*
X83916666Y-40815300D01*
X83916666Y-40815300D02*
X83950000Y-40781966D01*
X83950000Y-40781966D02*
X83983333Y-40715300D01*
X83983333Y-40715300D02*
X83983333Y-40548633D01*
X83983333Y-40548633D02*
X83950000Y-40481966D01*
X83950000Y-40481966D02*
X83916666Y-40448633D01*
X83916666Y-40448633D02*
X83850000Y-40415300D01*
X83850000Y-40415300D02*
X83716666Y-40415300D01*
X83716666Y-40415300D02*
X83650000Y-40448633D01*
X83650000Y-40448633D02*
X83616666Y-40481966D01*
X83616666Y-40481966D02*
X83583333Y-40548633D01*
X61673333Y-40418633D02*
X61440000Y-40085300D01*
X61273333Y-40418633D02*
X61273333Y-39718633D01*
X61273333Y-39718633D02*
X61540000Y-39718633D01*
X61540000Y-39718633D02*
X61606667Y-39751966D01*
X61606667Y-39751966D02*
X61640000Y-39785300D01*
X61640000Y-39785300D02*
X61673333Y-39851966D01*
X61673333Y-39851966D02*
X61673333Y-39951966D01*
X61673333Y-39951966D02*
X61640000Y-40018633D01*
X61640000Y-40018633D02*
X61606667Y-40051966D01*
X61606667Y-40051966D02*
X61540000Y-40085300D01*
X61540000Y-40085300D02*
X61273333Y-40085300D01*
X62340000Y-40418633D02*
X61940000Y-40418633D01*
X62140000Y-40418633D02*
X62140000Y-39718633D01*
X62140000Y-39718633D02*
X62073333Y-39818633D01*
X62073333Y-39818633D02*
X62006667Y-39885300D01*
X62006667Y-39885300D02*
X61940000Y-39918633D01*
X55353634Y-32809969D02*
X55306493Y-32809969D01*
X55306493Y-32809969D02*
X55212213Y-32762828D01*
X55212213Y-32762828D02*
X55165072Y-32715688D01*
X55165072Y-32715688D02*
X55117932Y-32621407D01*
X55117932Y-32621407D02*
X55117932Y-32527126D01*
X55117932Y-32527126D02*
X55141502Y-32456415D01*
X55141502Y-32456415D02*
X55212213Y-32338564D01*
X55212213Y-32338564D02*
X55282923Y-32267853D01*
X55282923Y-32267853D02*
X55400774Y-32197143D01*
X55400774Y-32197143D02*
X55471485Y-32173572D01*
X55471485Y-32173572D02*
X55565766Y-32173572D01*
X55565766Y-32173572D02*
X55660047Y-32220713D01*
X55660047Y-32220713D02*
X55707187Y-32267853D01*
X55707187Y-32267853D02*
X55754328Y-32362134D01*
X55754328Y-32362134D02*
X55754328Y-32409275D01*
X55942890Y-32597837D02*
X55990030Y-32597837D01*
X55990030Y-32597837D02*
X56060741Y-32621407D01*
X56060741Y-32621407D02*
X56178592Y-32739258D01*
X56178592Y-32739258D02*
X56202162Y-32809969D01*
X56202162Y-32809969D02*
X56202162Y-32857109D01*
X56202162Y-32857109D02*
X56178592Y-32927820D01*
X56178592Y-32927820D02*
X56131451Y-32974960D01*
X56131451Y-32974960D02*
X56037170Y-33022101D01*
X56037170Y-33022101D02*
X55471485Y-33022101D01*
X55471485Y-33022101D02*
X55777898Y-33328514D01*
X56579286Y-33139952D02*
X56626426Y-33187092D01*
X56626426Y-33187092D02*
X56649997Y-33257803D01*
X56649997Y-33257803D02*
X56649997Y-33304944D01*
X56649997Y-33304944D02*
X56626426Y-33375654D01*
X56626426Y-33375654D02*
X56555716Y-33493505D01*
X56555716Y-33493505D02*
X56437865Y-33611356D01*
X56437865Y-33611356D02*
X56320013Y-33682067D01*
X56320013Y-33682067D02*
X56249303Y-33705637D01*
X56249303Y-33705637D02*
X56202162Y-33705637D01*
X56202162Y-33705637D02*
X56131452Y-33682067D01*
X56131452Y-33682067D02*
X56084311Y-33634927D01*
X56084311Y-33634927D02*
X56060741Y-33564216D01*
X56060741Y-33564216D02*
X56060741Y-33517076D01*
X56060741Y-33517076D02*
X56084311Y-33446365D01*
X56084311Y-33446365D02*
X56155022Y-33328514D01*
X56155022Y-33328514D02*
X56272873Y-33210663D01*
X56272873Y-33210663D02*
X56390724Y-33139952D01*
X56390724Y-33139952D02*
X56461435Y-33116382D01*
X56461435Y-33116382D02*
X56508575Y-33116382D01*
X56508575Y-33116382D02*
X56579286Y-33139952D01*
X102433333Y-43104308D02*
X102200000Y-42770975D01*
X102033333Y-43104308D02*
X102033333Y-42404308D01*
X102033333Y-42404308D02*
X102300000Y-42404308D01*
X102300000Y-42404308D02*
X102366667Y-42437641D01*
X102366667Y-42437641D02*
X102400000Y-42470975D01*
X102400000Y-42470975D02*
X102433333Y-42537641D01*
X102433333Y-42537641D02*
X102433333Y-42637641D01*
X102433333Y-42637641D02*
X102400000Y-42704308D01*
X102400000Y-42704308D02*
X102366667Y-42737641D01*
X102366667Y-42737641D02*
X102300000Y-42770975D01*
X102300000Y-42770975D02*
X102033333Y-42770975D01*
X103033333Y-42637641D02*
X103033333Y-43104308D01*
X102866667Y-42370975D02*
X102700000Y-42870975D01*
X102700000Y-42870975D02*
X103133333Y-42870975D01*
X79566666Y-52168633D02*
X79566666Y-51468633D01*
X80299999Y-52101966D02*
X80266666Y-52135300D01*
X80266666Y-52135300D02*
X80166666Y-52168633D01*
X80166666Y-52168633D02*
X80099999Y-52168633D01*
X80099999Y-52168633D02*
X79999999Y-52135300D01*
X79999999Y-52135300D02*
X79933333Y-52068633D01*
X79933333Y-52068633D02*
X79899999Y-52001966D01*
X79899999Y-52001966D02*
X79866666Y-51868633D01*
X79866666Y-51868633D02*
X79866666Y-51768633D01*
X79866666Y-51768633D02*
X79899999Y-51635300D01*
X79899999Y-51635300D02*
X79933333Y-51568633D01*
X79933333Y-51568633D02*
X79999999Y-51501966D01*
X79999999Y-51501966D02*
X80099999Y-51468633D01*
X80099999Y-51468633D02*
X80166666Y-51468633D01*
X80166666Y-51468633D02*
X80266666Y-51501966D01*
X80266666Y-51501966D02*
X80299999Y-51535300D01*
X80566666Y-51535300D02*
X80599999Y-51501966D01*
X80599999Y-51501966D02*
X80666666Y-51468633D01*
X80666666Y-51468633D02*
X80833333Y-51468633D01*
X80833333Y-51468633D02*
X80899999Y-51501966D01*
X80899999Y-51501966D02*
X80933333Y-51535300D01*
X80933333Y-51535300D02*
X80966666Y-51601966D01*
X80966666Y-51601966D02*
X80966666Y-51668633D01*
X80966666Y-51668633D02*
X80933333Y-51768633D01*
X80933333Y-51768633D02*
X80533333Y-52168633D01*
X80533333Y-52168633D02*
X80966666Y-52168633D01*
X62918633Y-49616667D02*
X62918633Y-49950000D01*
X62918633Y-49950000D02*
X62218633Y-49950000D01*
X62285300Y-49416666D02*
X62251966Y-49383333D01*
X62251966Y-49383333D02*
X62218633Y-49316666D01*
X62218633Y-49316666D02*
X62218633Y-49150000D01*
X62218633Y-49150000D02*
X62251966Y-49083333D01*
X62251966Y-49083333D02*
X62285300Y-49050000D01*
X62285300Y-49050000D02*
X62351966Y-49016666D01*
X62351966Y-49016666D02*
X62418633Y-49016666D01*
X62418633Y-49016666D02*
X62518633Y-49050000D01*
X62518633Y-49050000D02*
X62918633Y-49450000D01*
X62918633Y-49450000D02*
X62918633Y-49016666D01*
X98183333Y-56474308D02*
X97950000Y-56140975D01*
X97783333Y-56474308D02*
X97783333Y-55774308D01*
X97783333Y-55774308D02*
X98050000Y-55774308D01*
X98050000Y-55774308D02*
X98116667Y-55807641D01*
X98116667Y-55807641D02*
X98150000Y-55840975D01*
X98150000Y-55840975D02*
X98183333Y-55907641D01*
X98183333Y-55907641D02*
X98183333Y-56007641D01*
X98183333Y-56007641D02*
X98150000Y-56074308D01*
X98150000Y-56074308D02*
X98116667Y-56107641D01*
X98116667Y-56107641D02*
X98050000Y-56140975D01*
X98050000Y-56140975D02*
X97783333Y-56140975D01*
X98783333Y-55774308D02*
X98650000Y-55774308D01*
X98650000Y-55774308D02*
X98583333Y-55807641D01*
X98583333Y-55807641D02*
X98550000Y-55840975D01*
X98550000Y-55840975D02*
X98483333Y-55940975D01*
X98483333Y-55940975D02*
X98450000Y-56074308D01*
X98450000Y-56074308D02*
X98450000Y-56340975D01*
X98450000Y-56340975D02*
X98483333Y-56407641D01*
X98483333Y-56407641D02*
X98516667Y-56440975D01*
X98516667Y-56440975D02*
X98583333Y-56474308D01*
X98583333Y-56474308D02*
X98716667Y-56474308D01*
X98716667Y-56474308D02*
X98783333Y-56440975D01*
X98783333Y-56440975D02*
X98816667Y-56407641D01*
X98816667Y-56407641D02*
X98850000Y-56340975D01*
X98850000Y-56340975D02*
X98850000Y-56174308D01*
X98850000Y-56174308D02*
X98816667Y-56107641D01*
X98816667Y-56107641D02*
X98783333Y-56074308D01*
X98783333Y-56074308D02*
X98716667Y-56040975D01*
X98716667Y-56040975D02*
X98583333Y-56040975D01*
X98583333Y-56040975D02*
X98516667Y-56074308D01*
X98516667Y-56074308D02*
X98483333Y-56107641D01*
X98483333Y-56107641D02*
X98450000Y-56174308D01*
X96401966Y-56275000D02*
X96435300Y-56308333D01*
X96435300Y-56308333D02*
X96468633Y-56408333D01*
X96468633Y-56408333D02*
X96468633Y-56475000D01*
X96468633Y-56475000D02*
X96435300Y-56575000D01*
X96435300Y-56575000D02*
X96368633Y-56641667D01*
X96368633Y-56641667D02*
X96301966Y-56675000D01*
X96301966Y-56675000D02*
X96168633Y-56708333D01*
X96168633Y-56708333D02*
X96068633Y-56708333D01*
X96068633Y-56708333D02*
X95935300Y-56675000D01*
X95935300Y-56675000D02*
X95868633Y-56641667D01*
X95868633Y-56641667D02*
X95801966Y-56575000D01*
X95801966Y-56575000D02*
X95768633Y-56475000D01*
X95768633Y-56475000D02*
X95768633Y-56408333D01*
X95768633Y-56408333D02*
X95801966Y-56308333D01*
X95801966Y-56308333D02*
X95835300Y-56275000D01*
X96468633Y-55608333D02*
X96468633Y-56008333D01*
X96468633Y-55808333D02*
X95768633Y-55808333D01*
X95768633Y-55808333D02*
X95868633Y-55875000D01*
X95868633Y-55875000D02*
X95935300Y-55941667D01*
X95935300Y-55941667D02*
X95968633Y-56008333D01*
X96468633Y-54941666D02*
X96468633Y-55341666D01*
X96468633Y-55141666D02*
X95768633Y-55141666D01*
X95768633Y-55141666D02*
X95868633Y-55208333D01*
X95868633Y-55208333D02*
X95935300Y-55275000D01*
X95935300Y-55275000D02*
X95968633Y-55341666D01*
D13*
X101566666Y-59304819D02*
X101566666Y-60019104D01*
X101566666Y-60019104D02*
X101519047Y-60161961D01*
X101519047Y-60161961D02*
X101423809Y-60257200D01*
X101423809Y-60257200D02*
X101280952Y-60304819D01*
X101280952Y-60304819D02*
X101185714Y-60304819D01*
X101947619Y-59304819D02*
X102614285Y-59304819D01*
X102614285Y-59304819D02*
X102185714Y-60304819D01*
D11*
X86266666Y-65668633D02*
X86266666Y-66168633D01*
X86266666Y-66168633D02*
X86233333Y-66268633D01*
X86233333Y-66268633D02*
X86166666Y-66335300D01*
X86166666Y-66335300D02*
X86066666Y-66368633D01*
X86066666Y-66368633D02*
X86000000Y-66368633D01*
X86566666Y-65735300D02*
X86599999Y-65701966D01*
X86599999Y-65701966D02*
X86666666Y-65668633D01*
X86666666Y-65668633D02*
X86833333Y-65668633D01*
X86833333Y-65668633D02*
X86899999Y-65701966D01*
X86899999Y-65701966D02*
X86933333Y-65735300D01*
X86933333Y-65735300D02*
X86966666Y-65801966D01*
X86966666Y-65801966D02*
X86966666Y-65868633D01*
X86966666Y-65868633D02*
X86933333Y-65968633D01*
X86933333Y-65968633D02*
X86533333Y-66368633D01*
X86533333Y-66368633D02*
X86966666Y-66368633D01*
X101299999Y-69218633D02*
X101066666Y-68885300D01*
X100899999Y-69218633D02*
X100899999Y-68518633D01*
X100899999Y-68518633D02*
X101166666Y-68518633D01*
X101166666Y-68518633D02*
X101233333Y-68551966D01*
X101233333Y-68551966D02*
X101266666Y-68585300D01*
X101266666Y-68585300D02*
X101299999Y-68651966D01*
X101299999Y-68651966D02*
X101299999Y-68751966D01*
X101299999Y-68751966D02*
X101266666Y-68818633D01*
X101266666Y-68818633D02*
X101233333Y-68851966D01*
X101233333Y-68851966D02*
X101166666Y-68885300D01*
X101166666Y-68885300D02*
X100899999Y-68885300D01*
X101566666Y-68585300D02*
X101599999Y-68551966D01*
X101599999Y-68551966D02*
X101666666Y-68518633D01*
X101666666Y-68518633D02*
X101833333Y-68518633D01*
X101833333Y-68518633D02*
X101899999Y-68551966D01*
X101899999Y-68551966D02*
X101933333Y-68585300D01*
X101933333Y-68585300D02*
X101966666Y-68651966D01*
X101966666Y-68651966D02*
X101966666Y-68718633D01*
X101966666Y-68718633D02*
X101933333Y-68818633D01*
X101933333Y-68818633D02*
X101533333Y-69218633D01*
X101533333Y-69218633D02*
X101966666Y-69218633D01*
X102566666Y-68751966D02*
X102566666Y-69218633D01*
X102400000Y-68485300D02*
X102233333Y-68985300D01*
X102233333Y-68985300D02*
X102666666Y-68985300D01*
X59039999Y-44831966D02*
X59006666Y-44865300D01*
X59006666Y-44865300D02*
X58906666Y-44898633D01*
X58906666Y-44898633D02*
X58839999Y-44898633D01*
X58839999Y-44898633D02*
X58739999Y-44865300D01*
X58739999Y-44865300D02*
X58673333Y-44798633D01*
X58673333Y-44798633D02*
X58639999Y-44731966D01*
X58639999Y-44731966D02*
X58606666Y-44598633D01*
X58606666Y-44598633D02*
X58606666Y-44498633D01*
X58606666Y-44498633D02*
X58639999Y-44365300D01*
X58639999Y-44365300D02*
X58673333Y-44298633D01*
X58673333Y-44298633D02*
X58739999Y-44231966D01*
X58739999Y-44231966D02*
X58839999Y-44198633D01*
X58839999Y-44198633D02*
X58906666Y-44198633D01*
X58906666Y-44198633D02*
X59006666Y-44231966D01*
X59006666Y-44231966D02*
X59039999Y-44265300D01*
X59306666Y-44265300D02*
X59339999Y-44231966D01*
X59339999Y-44231966D02*
X59406666Y-44198633D01*
X59406666Y-44198633D02*
X59573333Y-44198633D01*
X59573333Y-44198633D02*
X59639999Y-44231966D01*
X59639999Y-44231966D02*
X59673333Y-44265300D01*
X59673333Y-44265300D02*
X59706666Y-44331966D01*
X59706666Y-44331966D02*
X59706666Y-44398633D01*
X59706666Y-44398633D02*
X59673333Y-44498633D01*
X59673333Y-44498633D02*
X59273333Y-44898633D01*
X59273333Y-44898633D02*
X59706666Y-44898633D01*
X59940000Y-44198633D02*
X60373333Y-44198633D01*
X60373333Y-44198633D02*
X60140000Y-44465300D01*
X60140000Y-44465300D02*
X60240000Y-44465300D01*
X60240000Y-44465300D02*
X60306666Y-44498633D01*
X60306666Y-44498633D02*
X60340000Y-44531966D01*
X60340000Y-44531966D02*
X60373333Y-44598633D01*
X60373333Y-44598633D02*
X60373333Y-44765300D01*
X60373333Y-44765300D02*
X60340000Y-44831966D01*
X60340000Y-44831966D02*
X60306666Y-44865300D01*
X60306666Y-44865300D02*
X60240000Y-44898633D01*
X60240000Y-44898633D02*
X60040000Y-44898633D01*
X60040000Y-44898633D02*
X59973333Y-44865300D01*
X59973333Y-44865300D02*
X59940000Y-44831966D01*
X55203634Y-41509969D02*
X55156493Y-41509969D01*
X55156493Y-41509969D02*
X55062213Y-41462828D01*
X55062213Y-41462828D02*
X55015072Y-41415688D01*
X55015072Y-41415688D02*
X54967932Y-41321407D01*
X54967932Y-41321407D02*
X54967932Y-41227126D01*
X54967932Y-41227126D02*
X54991502Y-41156415D01*
X54991502Y-41156415D02*
X55062213Y-41038564D01*
X55062213Y-41038564D02*
X55132923Y-40967853D01*
X55132923Y-40967853D02*
X55250774Y-40897143D01*
X55250774Y-40897143D02*
X55321485Y-40873572D01*
X55321485Y-40873572D02*
X55415766Y-40873572D01*
X55415766Y-40873572D02*
X55510047Y-40920713D01*
X55510047Y-40920713D02*
X55557187Y-40967853D01*
X55557187Y-40967853D02*
X55604328Y-41062134D01*
X55604328Y-41062134D02*
X55604328Y-41109275D01*
X55792890Y-41297837D02*
X55840030Y-41297837D01*
X55840030Y-41297837D02*
X55910741Y-41321407D01*
X55910741Y-41321407D02*
X56028592Y-41439258D01*
X56028592Y-41439258D02*
X56052162Y-41509969D01*
X56052162Y-41509969D02*
X56052162Y-41557109D01*
X56052162Y-41557109D02*
X56028592Y-41627820D01*
X56028592Y-41627820D02*
X55981451Y-41674960D01*
X55981451Y-41674960D02*
X55887170Y-41722101D01*
X55887170Y-41722101D02*
X55321485Y-41722101D01*
X55321485Y-41722101D02*
X55627898Y-42028514D01*
X56099303Y-42499918D02*
X55816460Y-42217076D01*
X55957881Y-42358497D02*
X56452856Y-41863522D01*
X56452856Y-41863522D02*
X56335005Y-41887092D01*
X56335005Y-41887092D02*
X56240724Y-41887092D01*
X56240724Y-41887092D02*
X56170013Y-41863522D01*
X96251966Y-43516666D02*
X96285300Y-43549999D01*
X96285300Y-43549999D02*
X96318633Y-43649999D01*
X96318633Y-43649999D02*
X96318633Y-43716666D01*
X96318633Y-43716666D02*
X96285300Y-43816666D01*
X96285300Y-43816666D02*
X96218633Y-43883333D01*
X96218633Y-43883333D02*
X96151966Y-43916666D01*
X96151966Y-43916666D02*
X96018633Y-43949999D01*
X96018633Y-43949999D02*
X95918633Y-43949999D01*
X95918633Y-43949999D02*
X95785300Y-43916666D01*
X95785300Y-43916666D02*
X95718633Y-43883333D01*
X95718633Y-43883333D02*
X95651966Y-43816666D01*
X95651966Y-43816666D02*
X95618633Y-43716666D01*
X95618633Y-43716666D02*
X95618633Y-43649999D01*
X95618633Y-43649999D02*
X95651966Y-43549999D01*
X95651966Y-43549999D02*
X95685300Y-43516666D01*
X95618633Y-43283333D02*
X95618633Y-42816666D01*
X95618633Y-42816666D02*
X96318633Y-43116666D01*
X95726966Y-68850000D02*
X95760300Y-68883333D01*
X95760300Y-68883333D02*
X95793633Y-68983333D01*
X95793633Y-68983333D02*
X95793633Y-69050000D01*
X95793633Y-69050000D02*
X95760300Y-69150000D01*
X95760300Y-69150000D02*
X95693633Y-69216667D01*
X95693633Y-69216667D02*
X95626966Y-69250000D01*
X95626966Y-69250000D02*
X95493633Y-69283333D01*
X95493633Y-69283333D02*
X95393633Y-69283333D01*
X95393633Y-69283333D02*
X95260300Y-69250000D01*
X95260300Y-69250000D02*
X95193633Y-69216667D01*
X95193633Y-69216667D02*
X95126966Y-69150000D01*
X95126966Y-69150000D02*
X95093633Y-69050000D01*
X95093633Y-69050000D02*
X95093633Y-68983333D01*
X95093633Y-68983333D02*
X95126966Y-68883333D01*
X95126966Y-68883333D02*
X95160300Y-68850000D01*
X95160300Y-68583333D02*
X95126966Y-68550000D01*
X95126966Y-68550000D02*
X95093633Y-68483333D01*
X95093633Y-68483333D02*
X95093633Y-68316667D01*
X95093633Y-68316667D02*
X95126966Y-68250000D01*
X95126966Y-68250000D02*
X95160300Y-68216667D01*
X95160300Y-68216667D02*
X95226966Y-68183333D01*
X95226966Y-68183333D02*
X95293633Y-68183333D01*
X95293633Y-68183333D02*
X95393633Y-68216667D01*
X95393633Y-68216667D02*
X95793633Y-68616667D01*
X95793633Y-68616667D02*
X95793633Y-68183333D01*
X95326966Y-67583333D02*
X95793633Y-67583333D01*
X95060300Y-67750000D02*
X95560300Y-67916666D01*
X95560300Y-67916666D02*
X95560300Y-67483333D01*
X70903333Y-44441966D02*
X70870000Y-44475300D01*
X70870000Y-44475300D02*
X70770000Y-44508633D01*
X70770000Y-44508633D02*
X70703333Y-44508633D01*
X70703333Y-44508633D02*
X70603333Y-44475300D01*
X70603333Y-44475300D02*
X70536667Y-44408633D01*
X70536667Y-44408633D02*
X70503333Y-44341966D01*
X70503333Y-44341966D02*
X70470000Y-44208633D01*
X70470000Y-44208633D02*
X70470000Y-44108633D01*
X70470000Y-44108633D02*
X70503333Y-43975300D01*
X70503333Y-43975300D02*
X70536667Y-43908633D01*
X70536667Y-43908633D02*
X70603333Y-43841966D01*
X70603333Y-43841966D02*
X70703333Y-43808633D01*
X70703333Y-43808633D02*
X70770000Y-43808633D01*
X70770000Y-43808633D02*
X70870000Y-43841966D01*
X70870000Y-43841966D02*
X70903333Y-43875300D01*
X71170000Y-43875300D02*
X71203333Y-43841966D01*
X71203333Y-43841966D02*
X71270000Y-43808633D01*
X71270000Y-43808633D02*
X71436667Y-43808633D01*
X71436667Y-43808633D02*
X71503333Y-43841966D01*
X71503333Y-43841966D02*
X71536667Y-43875300D01*
X71536667Y-43875300D02*
X71570000Y-43941966D01*
X71570000Y-43941966D02*
X71570000Y-44008633D01*
X71570000Y-44008633D02*
X71536667Y-44108633D01*
X71536667Y-44108633D02*
X71136667Y-44508633D01*
X71136667Y-44508633D02*
X71570000Y-44508633D01*
D13*
X101566666Y-34454819D02*
X101566666Y-35169104D01*
X101566666Y-35169104D02*
X101519047Y-35311961D01*
X101519047Y-35311961D02*
X101423809Y-35407200D01*
X101423809Y-35407200D02*
X101280952Y-35454819D01*
X101280952Y-35454819D02*
X101185714Y-35454819D01*
X102519047Y-34454819D02*
X102042857Y-34454819D01*
X102042857Y-34454819D02*
X101995238Y-34931009D01*
X101995238Y-34931009D02*
X102042857Y-34883390D01*
X102042857Y-34883390D02*
X102138095Y-34835771D01*
X102138095Y-34835771D02*
X102376190Y-34835771D01*
X102376190Y-34835771D02*
X102471428Y-34883390D01*
X102471428Y-34883390D02*
X102519047Y-34931009D01*
X102519047Y-34931009D02*
X102566666Y-35026247D01*
X102566666Y-35026247D02*
X102566666Y-35264342D01*
X102566666Y-35264342D02*
X102519047Y-35359580D01*
X102519047Y-35359580D02*
X102471428Y-35407200D01*
X102471428Y-35407200D02*
X102376190Y-35454819D01*
X102376190Y-35454819D02*
X102138095Y-35454819D01*
X102138095Y-35454819D02*
X102042857Y-35407200D01*
X102042857Y-35407200D02*
X101995238Y-35359580D01*
D11*
X71051966Y-58016666D02*
X71085300Y-58049999D01*
X71085300Y-58049999D02*
X71118633Y-58149999D01*
X71118633Y-58149999D02*
X71118633Y-58216666D01*
X71118633Y-58216666D02*
X71085300Y-58316666D01*
X71085300Y-58316666D02*
X71018633Y-58383333D01*
X71018633Y-58383333D02*
X70951966Y-58416666D01*
X70951966Y-58416666D02*
X70818633Y-58449999D01*
X70818633Y-58449999D02*
X70718633Y-58449999D01*
X70718633Y-58449999D02*
X70585300Y-58416666D01*
X70585300Y-58416666D02*
X70518633Y-58383333D01*
X70518633Y-58383333D02*
X70451966Y-58316666D01*
X70451966Y-58316666D02*
X70418633Y-58216666D01*
X70418633Y-58216666D02*
X70418633Y-58149999D01*
X70418633Y-58149999D02*
X70451966Y-58049999D01*
X70451966Y-58049999D02*
X70485300Y-58016666D01*
X70651966Y-57416666D02*
X71118633Y-57416666D01*
X70385300Y-57583333D02*
X70885300Y-57749999D01*
X70885300Y-57749999D02*
X70885300Y-57316666D01*
X86199999Y-53151966D02*
X86166666Y-53185300D01*
X86166666Y-53185300D02*
X86066666Y-53218633D01*
X86066666Y-53218633D02*
X85999999Y-53218633D01*
X85999999Y-53218633D02*
X85899999Y-53185300D01*
X85899999Y-53185300D02*
X85833333Y-53118633D01*
X85833333Y-53118633D02*
X85799999Y-53051966D01*
X85799999Y-53051966D02*
X85766666Y-52918633D01*
X85766666Y-52918633D02*
X85766666Y-52818633D01*
X85766666Y-52818633D02*
X85799999Y-52685300D01*
X85799999Y-52685300D02*
X85833333Y-52618633D01*
X85833333Y-52618633D02*
X85899999Y-52551966D01*
X85899999Y-52551966D02*
X85999999Y-52518633D01*
X85999999Y-52518633D02*
X86066666Y-52518633D01*
X86066666Y-52518633D02*
X86166666Y-52551966D01*
X86166666Y-52551966D02*
X86199999Y-52585300D01*
X86866666Y-53218633D02*
X86466666Y-53218633D01*
X86666666Y-53218633D02*
X86666666Y-52518633D01*
X86666666Y-52518633D02*
X86599999Y-52618633D01*
X86599999Y-52618633D02*
X86533333Y-52685300D01*
X86533333Y-52685300D02*
X86466666Y-52718633D01*
X87100000Y-52518633D02*
X87566666Y-52518633D01*
X87566666Y-52518633D02*
X87266666Y-53218633D01*
X70618633Y-61900000D02*
X70285300Y-62133333D01*
X70618633Y-62300000D02*
X69918633Y-62300000D01*
X69918633Y-62300000D02*
X69918633Y-62033333D01*
X69918633Y-62033333D02*
X69951966Y-61966667D01*
X69951966Y-61966667D02*
X69985300Y-61933333D01*
X69985300Y-61933333D02*
X70051966Y-61900000D01*
X70051966Y-61900000D02*
X70151966Y-61900000D01*
X70151966Y-61900000D02*
X70218633Y-61933333D01*
X70218633Y-61933333D02*
X70251966Y-61966667D01*
X70251966Y-61966667D02*
X70285300Y-62033333D01*
X70285300Y-62033333D02*
X70285300Y-62300000D01*
X70618633Y-61233333D02*
X70618633Y-61633333D01*
X70618633Y-61433333D02*
X69918633Y-61433333D01*
X69918633Y-61433333D02*
X70018633Y-61500000D01*
X70018633Y-61500000D02*
X70085300Y-61566667D01*
X70085300Y-61566667D02*
X70118633Y-61633333D01*
X70618633Y-60566666D02*
X70618633Y-60966666D01*
X70618633Y-60766666D02*
X69918633Y-60766666D01*
X69918633Y-60766666D02*
X70018633Y-60833333D01*
X70018633Y-60833333D02*
X70085300Y-60900000D01*
X70085300Y-60900000D02*
X70118633Y-60966666D01*
X92599999Y-53618633D02*
X92366666Y-53285300D01*
X92199999Y-53618633D02*
X92199999Y-52918633D01*
X92199999Y-52918633D02*
X92466666Y-52918633D01*
X92466666Y-52918633D02*
X92533333Y-52951966D01*
X92533333Y-52951966D02*
X92566666Y-52985300D01*
X92566666Y-52985300D02*
X92599999Y-53051966D01*
X92599999Y-53051966D02*
X92599999Y-53151966D01*
X92599999Y-53151966D02*
X92566666Y-53218633D01*
X92566666Y-53218633D02*
X92533333Y-53251966D01*
X92533333Y-53251966D02*
X92466666Y-53285300D01*
X92466666Y-53285300D02*
X92199999Y-53285300D01*
X92866666Y-52985300D02*
X92899999Y-52951966D01*
X92899999Y-52951966D02*
X92966666Y-52918633D01*
X92966666Y-52918633D02*
X93133333Y-52918633D01*
X93133333Y-52918633D02*
X93199999Y-52951966D01*
X93199999Y-52951966D02*
X93233333Y-52985300D01*
X93233333Y-52985300D02*
X93266666Y-53051966D01*
X93266666Y-53051966D02*
X93266666Y-53118633D01*
X93266666Y-53118633D02*
X93233333Y-53218633D01*
X93233333Y-53218633D02*
X92833333Y-53618633D01*
X92833333Y-53618633D02*
X93266666Y-53618633D01*
X93933333Y-53618633D02*
X93533333Y-53618633D01*
X93733333Y-53618633D02*
X93733333Y-52918633D01*
X93733333Y-52918633D02*
X93666666Y-53018633D01*
X93666666Y-53018633D02*
X93600000Y-53085300D01*
X93600000Y-53085300D02*
X93533333Y-53118633D01*
X94883333Y-42185300D02*
X94816666Y-42151966D01*
X94816666Y-42151966D02*
X94750000Y-42085300D01*
X94750000Y-42085300D02*
X94650000Y-41985300D01*
X94650000Y-41985300D02*
X94583333Y-41951966D01*
X94583333Y-41951966D02*
X94516666Y-41951966D01*
X94550000Y-42118633D02*
X94483333Y-42085300D01*
X94483333Y-42085300D02*
X94416666Y-42018633D01*
X94416666Y-42018633D02*
X94383333Y-41885300D01*
X94383333Y-41885300D02*
X94383333Y-41651966D01*
X94383333Y-41651966D02*
X94416666Y-41518633D01*
X94416666Y-41518633D02*
X94483333Y-41451966D01*
X94483333Y-41451966D02*
X94550000Y-41418633D01*
X94550000Y-41418633D02*
X94683333Y-41418633D01*
X94683333Y-41418633D02*
X94750000Y-41451966D01*
X94750000Y-41451966D02*
X94816666Y-41518633D01*
X94816666Y-41518633D02*
X94850000Y-41651966D01*
X94850000Y-41651966D02*
X94850000Y-41885300D01*
X94850000Y-41885300D02*
X94816666Y-42018633D01*
X94816666Y-42018633D02*
X94750000Y-42085300D01*
X94750000Y-42085300D02*
X94683333Y-42118633D01*
X94683333Y-42118633D02*
X94550000Y-42118633D01*
X95083333Y-41418633D02*
X95516666Y-41418633D01*
X95516666Y-41418633D02*
X95283333Y-41685300D01*
X95283333Y-41685300D02*
X95383333Y-41685300D01*
X95383333Y-41685300D02*
X95449999Y-41718633D01*
X95449999Y-41718633D02*
X95483333Y-41751966D01*
X95483333Y-41751966D02*
X95516666Y-41818633D01*
X95516666Y-41818633D02*
X95516666Y-41985300D01*
X95516666Y-41985300D02*
X95483333Y-42051966D01*
X95483333Y-42051966D02*
X95449999Y-42085300D01*
X95449999Y-42085300D02*
X95383333Y-42118633D01*
X95383333Y-42118633D02*
X95183333Y-42118633D01*
X95183333Y-42118633D02*
X95116666Y-42085300D01*
X95116666Y-42085300D02*
X95083333Y-42051966D01*
X69668633Y-61950000D02*
X69335300Y-62183333D01*
X69668633Y-62350000D02*
X68968633Y-62350000D01*
X68968633Y-62350000D02*
X68968633Y-62083333D01*
X68968633Y-62083333D02*
X69001966Y-62016667D01*
X69001966Y-62016667D02*
X69035300Y-61983333D01*
X69035300Y-61983333D02*
X69101966Y-61950000D01*
X69101966Y-61950000D02*
X69201966Y-61950000D01*
X69201966Y-61950000D02*
X69268633Y-61983333D01*
X69268633Y-61983333D02*
X69301966Y-62016667D01*
X69301966Y-62016667D02*
X69335300Y-62083333D01*
X69335300Y-62083333D02*
X69335300Y-62350000D01*
X69668633Y-61283333D02*
X69668633Y-61683333D01*
X69668633Y-61483333D02*
X68968633Y-61483333D01*
X68968633Y-61483333D02*
X69068633Y-61550000D01*
X69068633Y-61550000D02*
X69135300Y-61616667D01*
X69135300Y-61616667D02*
X69168633Y-61683333D01*
X68968633Y-60850000D02*
X68968633Y-60783333D01*
X68968633Y-60783333D02*
X69001966Y-60716666D01*
X69001966Y-60716666D02*
X69035300Y-60683333D01*
X69035300Y-60683333D02*
X69101966Y-60650000D01*
X69101966Y-60650000D02*
X69235300Y-60616666D01*
X69235300Y-60616666D02*
X69401966Y-60616666D01*
X69401966Y-60616666D02*
X69535300Y-60650000D01*
X69535300Y-60650000D02*
X69601966Y-60683333D01*
X69601966Y-60683333D02*
X69635300Y-60716666D01*
X69635300Y-60716666D02*
X69668633Y-60783333D01*
X69668633Y-60783333D02*
X69668633Y-60850000D01*
X69668633Y-60850000D02*
X69635300Y-60916666D01*
X69635300Y-60916666D02*
X69601966Y-60950000D01*
X69601966Y-60950000D02*
X69535300Y-60983333D01*
X69535300Y-60983333D02*
X69401966Y-61016666D01*
X69401966Y-61016666D02*
X69235300Y-61016666D01*
X69235300Y-61016666D02*
X69101966Y-60983333D01*
X69101966Y-60983333D02*
X69035300Y-60950000D01*
X69035300Y-60950000D02*
X69001966Y-60916666D01*
X69001966Y-60916666D02*
X68968633Y-60850000D01*
X102399999Y-68118633D02*
X102166666Y-67785300D01*
X101999999Y-68118633D02*
X101999999Y-67418633D01*
X101999999Y-67418633D02*
X102266666Y-67418633D01*
X102266666Y-67418633D02*
X102333333Y-67451966D01*
X102333333Y-67451966D02*
X102366666Y-67485300D01*
X102366666Y-67485300D02*
X102399999Y-67551966D01*
X102399999Y-67551966D02*
X102399999Y-67651966D01*
X102399999Y-67651966D02*
X102366666Y-67718633D01*
X102366666Y-67718633D02*
X102333333Y-67751966D01*
X102333333Y-67751966D02*
X102266666Y-67785300D01*
X102266666Y-67785300D02*
X101999999Y-67785300D01*
X102666666Y-67485300D02*
X102699999Y-67451966D01*
X102699999Y-67451966D02*
X102766666Y-67418633D01*
X102766666Y-67418633D02*
X102933333Y-67418633D01*
X102933333Y-67418633D02*
X102999999Y-67451966D01*
X102999999Y-67451966D02*
X103033333Y-67485300D01*
X103033333Y-67485300D02*
X103066666Y-67551966D01*
X103066666Y-67551966D02*
X103066666Y-67618633D01*
X103066666Y-67618633D02*
X103033333Y-67718633D01*
X103033333Y-67718633D02*
X102633333Y-68118633D01*
X102633333Y-68118633D02*
X103066666Y-68118633D01*
X103500000Y-67418633D02*
X103566666Y-67418633D01*
X103566666Y-67418633D02*
X103633333Y-67451966D01*
X103633333Y-67451966D02*
X103666666Y-67485300D01*
X103666666Y-67485300D02*
X103700000Y-67551966D01*
X103700000Y-67551966D02*
X103733333Y-67685300D01*
X103733333Y-67685300D02*
X103733333Y-67851966D01*
X103733333Y-67851966D02*
X103700000Y-67985300D01*
X103700000Y-67985300D02*
X103666666Y-68051966D01*
X103666666Y-68051966D02*
X103633333Y-68085300D01*
X103633333Y-68085300D02*
X103566666Y-68118633D01*
X103566666Y-68118633D02*
X103500000Y-68118633D01*
X103500000Y-68118633D02*
X103433333Y-68085300D01*
X103433333Y-68085300D02*
X103400000Y-68051966D01*
X103400000Y-68051966D02*
X103366666Y-67985300D01*
X103366666Y-67985300D02*
X103333333Y-67851966D01*
X103333333Y-67851966D02*
X103333333Y-67685300D01*
X103333333Y-67685300D02*
X103366666Y-67551966D01*
X103366666Y-67551966D02*
X103400000Y-67485300D01*
X103400000Y-67485300D02*
X103433333Y-67451966D01*
X103433333Y-67451966D02*
X103500000Y-67418633D01*
D13*
X50416666Y-52354819D02*
X50416666Y-53069104D01*
X50416666Y-53069104D02*
X50369047Y-53211961D01*
X50369047Y-53211961D02*
X50273809Y-53307200D01*
X50273809Y-53307200D02*
X50130952Y-53354819D01*
X50130952Y-53354819D02*
X50035714Y-53354819D01*
X50797619Y-52354819D02*
X51416666Y-52354819D01*
X51416666Y-52354819D02*
X51083333Y-52735771D01*
X51083333Y-52735771D02*
X51226190Y-52735771D01*
X51226190Y-52735771D02*
X51321428Y-52783390D01*
X51321428Y-52783390D02*
X51369047Y-52831009D01*
X51369047Y-52831009D02*
X51416666Y-52926247D01*
X51416666Y-52926247D02*
X51416666Y-53164342D01*
X51416666Y-53164342D02*
X51369047Y-53259580D01*
X51369047Y-53259580D02*
X51321428Y-53307200D01*
X51321428Y-53307200D02*
X51226190Y-53354819D01*
X51226190Y-53354819D02*
X50940476Y-53354819D01*
X50940476Y-53354819D02*
X50845238Y-53307200D01*
X50845238Y-53307200D02*
X50797619Y-53259580D01*
D11*
X82349999Y-46551966D02*
X82316666Y-46585300D01*
X82316666Y-46585300D02*
X82216666Y-46618633D01*
X82216666Y-46618633D02*
X82149999Y-46618633D01*
X82149999Y-46618633D02*
X82049999Y-46585300D01*
X82049999Y-46585300D02*
X81983333Y-46518633D01*
X81983333Y-46518633D02*
X81949999Y-46451966D01*
X81949999Y-46451966D02*
X81916666Y-46318633D01*
X81916666Y-46318633D02*
X81916666Y-46218633D01*
X81916666Y-46218633D02*
X81949999Y-46085300D01*
X81949999Y-46085300D02*
X81983333Y-46018633D01*
X81983333Y-46018633D02*
X82049999Y-45951966D01*
X82049999Y-45951966D02*
X82149999Y-45918633D01*
X82149999Y-45918633D02*
X82216666Y-45918633D01*
X82216666Y-45918633D02*
X82316666Y-45951966D01*
X82316666Y-45951966D02*
X82349999Y-45985300D01*
X83016666Y-46618633D02*
X82616666Y-46618633D01*
X82816666Y-46618633D02*
X82816666Y-45918633D01*
X82816666Y-45918633D02*
X82749999Y-46018633D01*
X82749999Y-46018633D02*
X82683333Y-46085300D01*
X82683333Y-46085300D02*
X82616666Y-46118633D01*
X83616666Y-45918633D02*
X83483333Y-45918633D01*
X83483333Y-45918633D02*
X83416666Y-45951966D01*
X83416666Y-45951966D02*
X83383333Y-45985300D01*
X83383333Y-45985300D02*
X83316666Y-46085300D01*
X83316666Y-46085300D02*
X83283333Y-46218633D01*
X83283333Y-46218633D02*
X83283333Y-46485300D01*
X83283333Y-46485300D02*
X83316666Y-46551966D01*
X83316666Y-46551966D02*
X83350000Y-46585300D01*
X83350000Y-46585300D02*
X83416666Y-46618633D01*
X83416666Y-46618633D02*
X83550000Y-46618633D01*
X83550000Y-46618633D02*
X83616666Y-46585300D01*
X83616666Y-46585300D02*
X83650000Y-46551966D01*
X83650000Y-46551966D02*
X83683333Y-46485300D01*
X83683333Y-46485300D02*
X83683333Y-46318633D01*
X83683333Y-46318633D02*
X83650000Y-46251966D01*
X83650000Y-46251966D02*
X83616666Y-46218633D01*
X83616666Y-46218633D02*
X83550000Y-46185300D01*
X83550000Y-46185300D02*
X83416666Y-46185300D01*
X83416666Y-46185300D02*
X83350000Y-46218633D01*
X83350000Y-46218633D02*
X83316666Y-46251966D01*
X83316666Y-46251966D02*
X83283333Y-46318633D01*
X97399999Y-69168633D02*
X97166666Y-68835300D01*
X96999999Y-69168633D02*
X96999999Y-68468633D01*
X96999999Y-68468633D02*
X97266666Y-68468633D01*
X97266666Y-68468633D02*
X97333333Y-68501966D01*
X97333333Y-68501966D02*
X97366666Y-68535300D01*
X97366666Y-68535300D02*
X97399999Y-68601966D01*
X97399999Y-68601966D02*
X97399999Y-68701966D01*
X97399999Y-68701966D02*
X97366666Y-68768633D01*
X97366666Y-68768633D02*
X97333333Y-68801966D01*
X97333333Y-68801966D02*
X97266666Y-68835300D01*
X97266666Y-68835300D02*
X96999999Y-68835300D01*
X98066666Y-69168633D02*
X97666666Y-69168633D01*
X97866666Y-69168633D02*
X97866666Y-68468633D01*
X97866666Y-68468633D02*
X97799999Y-68568633D01*
X97799999Y-68568633D02*
X97733333Y-68635300D01*
X97733333Y-68635300D02*
X97666666Y-68668633D01*
X98400000Y-69168633D02*
X98533333Y-69168633D01*
X98533333Y-69168633D02*
X98600000Y-69135300D01*
X98600000Y-69135300D02*
X98633333Y-69101966D01*
X98633333Y-69101966D02*
X98700000Y-69001966D01*
X98700000Y-69001966D02*
X98733333Y-68868633D01*
X98733333Y-68868633D02*
X98733333Y-68601966D01*
X98733333Y-68601966D02*
X98700000Y-68535300D01*
X98700000Y-68535300D02*
X98666666Y-68501966D01*
X98666666Y-68501966D02*
X98600000Y-68468633D01*
X98600000Y-68468633D02*
X98466666Y-68468633D01*
X98466666Y-68468633D02*
X98400000Y-68501966D01*
X98400000Y-68501966D02*
X98366666Y-68535300D01*
X98366666Y-68535300D02*
X98333333Y-68601966D01*
X98333333Y-68601966D02*
X98333333Y-68768633D01*
X98333333Y-68768633D02*
X98366666Y-68835300D01*
X98366666Y-68835300D02*
X98400000Y-68868633D01*
X98400000Y-68868633D02*
X98466666Y-68901966D01*
X98466666Y-68901966D02*
X98600000Y-68901966D01*
X98600000Y-68901966D02*
X98666666Y-68868633D01*
X98666666Y-68868633D02*
X98700000Y-68835300D01*
X98700000Y-68835300D02*
X98733333Y-68768633D01*
X69901666Y-63233633D02*
X69901666Y-63733633D01*
X69901666Y-63733633D02*
X69868333Y-63833633D01*
X69868333Y-63833633D02*
X69801666Y-63900300D01*
X69801666Y-63900300D02*
X69701666Y-63933633D01*
X69701666Y-63933633D02*
X69635000Y-63933633D01*
X70601666Y-63933633D02*
X70201666Y-63933633D01*
X70401666Y-63933633D02*
X70401666Y-63233633D01*
X70401666Y-63233633D02*
X70334999Y-63333633D01*
X70334999Y-63333633D02*
X70268333Y-63400300D01*
X70268333Y-63400300D02*
X70201666Y-63433633D01*
X95233333Y-34285300D02*
X95166666Y-34251966D01*
X95166666Y-34251966D02*
X95100000Y-34185300D01*
X95100000Y-34185300D02*
X95000000Y-34085300D01*
X95000000Y-34085300D02*
X94933333Y-34051966D01*
X94933333Y-34051966D02*
X94866666Y-34051966D01*
X94900000Y-34218633D02*
X94833333Y-34185300D01*
X94833333Y-34185300D02*
X94766666Y-34118633D01*
X94766666Y-34118633D02*
X94733333Y-33985300D01*
X94733333Y-33985300D02*
X94733333Y-33751966D01*
X94733333Y-33751966D02*
X94766666Y-33618633D01*
X94766666Y-33618633D02*
X94833333Y-33551966D01*
X94833333Y-33551966D02*
X94900000Y-33518633D01*
X94900000Y-33518633D02*
X95033333Y-33518633D01*
X95033333Y-33518633D02*
X95100000Y-33551966D01*
X95100000Y-33551966D02*
X95166666Y-33618633D01*
X95166666Y-33618633D02*
X95200000Y-33751966D01*
X95200000Y-33751966D02*
X95200000Y-33985300D01*
X95200000Y-33985300D02*
X95166666Y-34118633D01*
X95166666Y-34118633D02*
X95100000Y-34185300D01*
X95100000Y-34185300D02*
X95033333Y-34218633D01*
X95033333Y-34218633D02*
X94900000Y-34218633D01*
X95866666Y-34218633D02*
X95466666Y-34218633D01*
X95666666Y-34218633D02*
X95666666Y-33518633D01*
X95666666Y-33518633D02*
X95599999Y-33618633D01*
X95599999Y-33618633D02*
X95533333Y-33685300D01*
X95533333Y-33685300D02*
X95466666Y-33718633D01*
X82649999Y-58968633D02*
X82416666Y-58635300D01*
X82249999Y-58968633D02*
X82249999Y-58268633D01*
X82249999Y-58268633D02*
X82516666Y-58268633D01*
X82516666Y-58268633D02*
X82583333Y-58301966D01*
X82583333Y-58301966D02*
X82616666Y-58335300D01*
X82616666Y-58335300D02*
X82649999Y-58401966D01*
X82649999Y-58401966D02*
X82649999Y-58501966D01*
X82649999Y-58501966D02*
X82616666Y-58568633D01*
X82616666Y-58568633D02*
X82583333Y-58601966D01*
X82583333Y-58601966D02*
X82516666Y-58635300D01*
X82516666Y-58635300D02*
X82249999Y-58635300D01*
X83316666Y-58968633D02*
X82916666Y-58968633D01*
X83116666Y-58968633D02*
X83116666Y-58268633D01*
X83116666Y-58268633D02*
X83049999Y-58368633D01*
X83049999Y-58368633D02*
X82983333Y-58435300D01*
X82983333Y-58435300D02*
X82916666Y-58468633D01*
X83950000Y-58268633D02*
X83616666Y-58268633D01*
X83616666Y-58268633D02*
X83583333Y-58601966D01*
X83583333Y-58601966D02*
X83616666Y-58568633D01*
X83616666Y-58568633D02*
X83683333Y-58535300D01*
X83683333Y-58535300D02*
X83850000Y-58535300D01*
X83850000Y-58535300D02*
X83916666Y-58568633D01*
X83916666Y-58568633D02*
X83950000Y-58601966D01*
X83950000Y-58601966D02*
X83983333Y-58668633D01*
X83983333Y-58668633D02*
X83983333Y-58835300D01*
X83983333Y-58835300D02*
X83950000Y-58901966D01*
X83950000Y-58901966D02*
X83916666Y-58935300D01*
X83916666Y-58935300D02*
X83850000Y-58968633D01*
X83850000Y-58968633D02*
X83683333Y-58968633D01*
X83683333Y-58968633D02*
X83616666Y-58935300D01*
X83616666Y-58935300D02*
X83583333Y-58901966D01*
X70903333Y-42541966D02*
X70870000Y-42575300D01*
X70870000Y-42575300D02*
X70770000Y-42608633D01*
X70770000Y-42608633D02*
X70703333Y-42608633D01*
X70703333Y-42608633D02*
X70603333Y-42575300D01*
X70603333Y-42575300D02*
X70536667Y-42508633D01*
X70536667Y-42508633D02*
X70503333Y-42441966D01*
X70503333Y-42441966D02*
X70470000Y-42308633D01*
X70470000Y-42308633D02*
X70470000Y-42208633D01*
X70470000Y-42208633D02*
X70503333Y-42075300D01*
X70503333Y-42075300D02*
X70536667Y-42008633D01*
X70536667Y-42008633D02*
X70603333Y-41941966D01*
X70603333Y-41941966D02*
X70703333Y-41908633D01*
X70703333Y-41908633D02*
X70770000Y-41908633D01*
X70770000Y-41908633D02*
X70870000Y-41941966D01*
X70870000Y-41941966D02*
X70903333Y-41975300D01*
X71136667Y-41908633D02*
X71570000Y-41908633D01*
X71570000Y-41908633D02*
X71336667Y-42175300D01*
X71336667Y-42175300D02*
X71436667Y-42175300D01*
X71436667Y-42175300D02*
X71503333Y-42208633D01*
X71503333Y-42208633D02*
X71536667Y-42241966D01*
X71536667Y-42241966D02*
X71570000Y-42308633D01*
X71570000Y-42308633D02*
X71570000Y-42475300D01*
X71570000Y-42475300D02*
X71536667Y-42541966D01*
X71536667Y-42541966D02*
X71503333Y-42575300D01*
X71503333Y-42575300D02*
X71436667Y-42608633D01*
X71436667Y-42608633D02*
X71236667Y-42608633D01*
X71236667Y-42608633D02*
X71170000Y-42575300D01*
X71170000Y-42575300D02*
X71136667Y-42541966D01*
X91451966Y-52000000D02*
X91485300Y-52033333D01*
X91485300Y-52033333D02*
X91518633Y-52133333D01*
X91518633Y-52133333D02*
X91518633Y-52200000D01*
X91518633Y-52200000D02*
X91485300Y-52300000D01*
X91485300Y-52300000D02*
X91418633Y-52366667D01*
X91418633Y-52366667D02*
X91351966Y-52400000D01*
X91351966Y-52400000D02*
X91218633Y-52433333D01*
X91218633Y-52433333D02*
X91118633Y-52433333D01*
X91118633Y-52433333D02*
X90985300Y-52400000D01*
X90985300Y-52400000D02*
X90918633Y-52366667D01*
X90918633Y-52366667D02*
X90851966Y-52300000D01*
X90851966Y-52300000D02*
X90818633Y-52200000D01*
X90818633Y-52200000D02*
X90818633Y-52133333D01*
X90818633Y-52133333D02*
X90851966Y-52033333D01*
X90851966Y-52033333D02*
X90885300Y-52000000D01*
X91518633Y-51333333D02*
X91518633Y-51733333D01*
X91518633Y-51533333D02*
X90818633Y-51533333D01*
X90818633Y-51533333D02*
X90918633Y-51600000D01*
X90918633Y-51600000D02*
X90985300Y-51666667D01*
X90985300Y-51666667D02*
X91018633Y-51733333D01*
X91051966Y-50733333D02*
X91518633Y-50733333D01*
X90785300Y-50900000D02*
X91285300Y-51066666D01*
X91285300Y-51066666D02*
X91285300Y-50633333D01*
X72851966Y-48940000D02*
X72885300Y-48973333D01*
X72885300Y-48973333D02*
X72918633Y-49073333D01*
X72918633Y-49073333D02*
X72918633Y-49140000D01*
X72918633Y-49140000D02*
X72885300Y-49240000D01*
X72885300Y-49240000D02*
X72818633Y-49306667D01*
X72818633Y-49306667D02*
X72751966Y-49340000D01*
X72751966Y-49340000D02*
X72618633Y-49373333D01*
X72618633Y-49373333D02*
X72518633Y-49373333D01*
X72518633Y-49373333D02*
X72385300Y-49340000D01*
X72385300Y-49340000D02*
X72318633Y-49306667D01*
X72318633Y-49306667D02*
X72251966Y-49240000D01*
X72251966Y-49240000D02*
X72218633Y-49140000D01*
X72218633Y-49140000D02*
X72218633Y-49073333D01*
X72218633Y-49073333D02*
X72251966Y-48973333D01*
X72251966Y-48973333D02*
X72285300Y-48940000D01*
X72918633Y-48273333D02*
X72918633Y-48673333D01*
X72918633Y-48473333D02*
X72218633Y-48473333D01*
X72218633Y-48473333D02*
X72318633Y-48540000D01*
X72318633Y-48540000D02*
X72385300Y-48606667D01*
X72385300Y-48606667D02*
X72418633Y-48673333D01*
X72218633Y-47840000D02*
X72218633Y-47773333D01*
X72218633Y-47773333D02*
X72251966Y-47706666D01*
X72251966Y-47706666D02*
X72285300Y-47673333D01*
X72285300Y-47673333D02*
X72351966Y-47640000D01*
X72351966Y-47640000D02*
X72485300Y-47606666D01*
X72485300Y-47606666D02*
X72651966Y-47606666D01*
X72651966Y-47606666D02*
X72785300Y-47640000D01*
X72785300Y-47640000D02*
X72851966Y-47673333D01*
X72851966Y-47673333D02*
X72885300Y-47706666D01*
X72885300Y-47706666D02*
X72918633Y-47773333D01*
X72918633Y-47773333D02*
X72918633Y-47840000D01*
X72918633Y-47840000D02*
X72885300Y-47906666D01*
X72885300Y-47906666D02*
X72851966Y-47940000D01*
X72851966Y-47940000D02*
X72785300Y-47973333D01*
X72785300Y-47973333D02*
X72651966Y-48006666D01*
X72651966Y-48006666D02*
X72485300Y-48006666D01*
X72485300Y-48006666D02*
X72351966Y-47973333D01*
X72351966Y-47973333D02*
X72285300Y-47940000D01*
X72285300Y-47940000D02*
X72251966Y-47906666D01*
X72251966Y-47906666D02*
X72218633Y-47840000D01*
X72951966Y-46200000D02*
X72985300Y-46233333D01*
X72985300Y-46233333D02*
X73018633Y-46333333D01*
X73018633Y-46333333D02*
X73018633Y-46400000D01*
X73018633Y-46400000D02*
X72985300Y-46500000D01*
X72985300Y-46500000D02*
X72918633Y-46566667D01*
X72918633Y-46566667D02*
X72851966Y-46600000D01*
X72851966Y-46600000D02*
X72718633Y-46633333D01*
X72718633Y-46633333D02*
X72618633Y-46633333D01*
X72618633Y-46633333D02*
X72485300Y-46600000D01*
X72485300Y-46600000D02*
X72418633Y-46566667D01*
X72418633Y-46566667D02*
X72351966Y-46500000D01*
X72351966Y-46500000D02*
X72318633Y-46400000D01*
X72318633Y-46400000D02*
X72318633Y-46333333D01*
X72318633Y-46333333D02*
X72351966Y-46233333D01*
X72351966Y-46233333D02*
X72385300Y-46200000D01*
X73018633Y-45533333D02*
X73018633Y-45933333D01*
X73018633Y-45733333D02*
X72318633Y-45733333D01*
X72318633Y-45733333D02*
X72418633Y-45800000D01*
X72418633Y-45800000D02*
X72485300Y-45866667D01*
X72485300Y-45866667D02*
X72518633Y-45933333D01*
X73018633Y-45200000D02*
X73018633Y-45066666D01*
X73018633Y-45066666D02*
X72985300Y-45000000D01*
X72985300Y-45000000D02*
X72951966Y-44966666D01*
X72951966Y-44966666D02*
X72851966Y-44900000D01*
X72851966Y-44900000D02*
X72718633Y-44866666D01*
X72718633Y-44866666D02*
X72451966Y-44866666D01*
X72451966Y-44866666D02*
X72385300Y-44900000D01*
X72385300Y-44900000D02*
X72351966Y-44933333D01*
X72351966Y-44933333D02*
X72318633Y-45000000D01*
X72318633Y-45000000D02*
X72318633Y-45133333D01*
X72318633Y-45133333D02*
X72351966Y-45200000D01*
X72351966Y-45200000D02*
X72385300Y-45233333D01*
X72385300Y-45233333D02*
X72451966Y-45266666D01*
X72451966Y-45266666D02*
X72618633Y-45266666D01*
X72618633Y-45266666D02*
X72685300Y-45233333D01*
X72685300Y-45233333D02*
X72718633Y-45200000D01*
X72718633Y-45200000D02*
X72751966Y-45133333D01*
X72751966Y-45133333D02*
X72751966Y-45000000D01*
X72751966Y-45000000D02*
X72718633Y-44933333D01*
X72718633Y-44933333D02*
X72685300Y-44900000D01*
X72685300Y-44900000D02*
X72618633Y-44866666D01*
X79459999Y-62768633D02*
X79226666Y-62435300D01*
X79059999Y-62768633D02*
X79059999Y-62068633D01*
X79059999Y-62068633D02*
X79326666Y-62068633D01*
X79326666Y-62068633D02*
X79393333Y-62101966D01*
X79393333Y-62101966D02*
X79426666Y-62135300D01*
X79426666Y-62135300D02*
X79459999Y-62201966D01*
X79459999Y-62201966D02*
X79459999Y-62301966D01*
X79459999Y-62301966D02*
X79426666Y-62368633D01*
X79426666Y-62368633D02*
X79393333Y-62401966D01*
X79393333Y-62401966D02*
X79326666Y-62435300D01*
X79326666Y-62435300D02*
X79059999Y-62435300D01*
X79726666Y-62135300D02*
X79759999Y-62101966D01*
X79759999Y-62101966D02*
X79826666Y-62068633D01*
X79826666Y-62068633D02*
X79993333Y-62068633D01*
X79993333Y-62068633D02*
X80059999Y-62101966D01*
X80059999Y-62101966D02*
X80093333Y-62135300D01*
X80093333Y-62135300D02*
X80126666Y-62201966D01*
X80126666Y-62201966D02*
X80126666Y-62268633D01*
X80126666Y-62268633D02*
X80093333Y-62368633D01*
X80093333Y-62368633D02*
X79693333Y-62768633D01*
X79693333Y-62768633D02*
X80126666Y-62768633D01*
X80726666Y-62068633D02*
X80593333Y-62068633D01*
X80593333Y-62068633D02*
X80526666Y-62101966D01*
X80526666Y-62101966D02*
X80493333Y-62135300D01*
X80493333Y-62135300D02*
X80426666Y-62235300D01*
X80426666Y-62235300D02*
X80393333Y-62368633D01*
X80393333Y-62368633D02*
X80393333Y-62635300D01*
X80393333Y-62635300D02*
X80426666Y-62701966D01*
X80426666Y-62701966D02*
X80460000Y-62735300D01*
X80460000Y-62735300D02*
X80526666Y-62768633D01*
X80526666Y-62768633D02*
X80660000Y-62768633D01*
X80660000Y-62768633D02*
X80726666Y-62735300D01*
X80726666Y-62735300D02*
X80760000Y-62701966D01*
X80760000Y-62701966D02*
X80793333Y-62635300D01*
X80793333Y-62635300D02*
X80793333Y-62468633D01*
X80793333Y-62468633D02*
X80760000Y-62401966D01*
X80760000Y-62401966D02*
X80726666Y-62368633D01*
X80726666Y-62368633D02*
X80660000Y-62335300D01*
X80660000Y-62335300D02*
X80526666Y-62335300D01*
X80526666Y-62335300D02*
X80460000Y-62368633D01*
X80460000Y-62368633D02*
X80426666Y-62401966D01*
X80426666Y-62401966D02*
X80393333Y-62468633D01*
X49377333Y-49753633D02*
X49777333Y-49753633D01*
X49577333Y-50453633D02*
X49577333Y-49753633D01*
X49910666Y-49753633D02*
X50144000Y-50453633D01*
X50144000Y-50453633D02*
X50377333Y-49753633D01*
X50577333Y-50420300D02*
X50677333Y-50453633D01*
X50677333Y-50453633D02*
X50844000Y-50453633D01*
X50844000Y-50453633D02*
X50910666Y-50420300D01*
X50910666Y-50420300D02*
X50944000Y-50386966D01*
X50944000Y-50386966D02*
X50977333Y-50320300D01*
X50977333Y-50320300D02*
X50977333Y-50253633D01*
X50977333Y-50253633D02*
X50944000Y-50186966D01*
X50944000Y-50186966D02*
X50910666Y-50153633D01*
X50910666Y-50153633D02*
X50844000Y-50120300D01*
X50844000Y-50120300D02*
X50710666Y-50086966D01*
X50710666Y-50086966D02*
X50644000Y-50053633D01*
X50644000Y-50053633D02*
X50610666Y-50020300D01*
X50610666Y-50020300D02*
X50577333Y-49953633D01*
X50577333Y-49953633D02*
X50577333Y-49886966D01*
X50577333Y-49886966D02*
X50610666Y-49820300D01*
X50610666Y-49820300D02*
X50644000Y-49786966D01*
X50644000Y-49786966D02*
X50710666Y-49753633D01*
X50710666Y-49753633D02*
X50877333Y-49753633D01*
X50877333Y-49753633D02*
X50977333Y-49786966D01*
X51644000Y-50453633D02*
X51244000Y-50453633D01*
X51444000Y-50453633D02*
X51444000Y-49753633D01*
X51444000Y-49753633D02*
X51377333Y-49853633D01*
X51377333Y-49853633D02*
X51310667Y-49920300D01*
X51310667Y-49920300D02*
X51244000Y-49953633D01*
X72851966Y-54250000D02*
X72885300Y-54283333D01*
X72885300Y-54283333D02*
X72918633Y-54383333D01*
X72918633Y-54383333D02*
X72918633Y-54450000D01*
X72918633Y-54450000D02*
X72885300Y-54550000D01*
X72885300Y-54550000D02*
X72818633Y-54616667D01*
X72818633Y-54616667D02*
X72751966Y-54650000D01*
X72751966Y-54650000D02*
X72618633Y-54683333D01*
X72618633Y-54683333D02*
X72518633Y-54683333D01*
X72518633Y-54683333D02*
X72385300Y-54650000D01*
X72385300Y-54650000D02*
X72318633Y-54616667D01*
X72318633Y-54616667D02*
X72251966Y-54550000D01*
X72251966Y-54550000D02*
X72218633Y-54450000D01*
X72218633Y-54450000D02*
X72218633Y-54383333D01*
X72218633Y-54383333D02*
X72251966Y-54283333D01*
X72251966Y-54283333D02*
X72285300Y-54250000D01*
X72918633Y-53583333D02*
X72918633Y-53983333D01*
X72918633Y-53783333D02*
X72218633Y-53783333D01*
X72218633Y-53783333D02*
X72318633Y-53850000D01*
X72318633Y-53850000D02*
X72385300Y-53916667D01*
X72385300Y-53916667D02*
X72418633Y-53983333D01*
X72218633Y-53350000D02*
X72218633Y-52916666D01*
X72218633Y-52916666D02*
X72485300Y-53150000D01*
X72485300Y-53150000D02*
X72485300Y-53050000D01*
X72485300Y-53050000D02*
X72518633Y-52983333D01*
X72518633Y-52983333D02*
X72551966Y-52950000D01*
X72551966Y-52950000D02*
X72618633Y-52916666D01*
X72618633Y-52916666D02*
X72785300Y-52916666D01*
X72785300Y-52916666D02*
X72851966Y-52950000D01*
X72851966Y-52950000D02*
X72885300Y-52983333D01*
X72885300Y-52983333D02*
X72918633Y-53050000D01*
X72918633Y-53050000D02*
X72918633Y-53250000D01*
X72918633Y-53250000D02*
X72885300Y-53316666D01*
X72885300Y-53316666D02*
X72851966Y-53350000D01*
X71051966Y-54666666D02*
X71085300Y-54699999D01*
X71085300Y-54699999D02*
X71118633Y-54799999D01*
X71118633Y-54799999D02*
X71118633Y-54866666D01*
X71118633Y-54866666D02*
X71085300Y-54966666D01*
X71085300Y-54966666D02*
X71018633Y-55033333D01*
X71018633Y-55033333D02*
X70951966Y-55066666D01*
X70951966Y-55066666D02*
X70818633Y-55099999D01*
X70818633Y-55099999D02*
X70718633Y-55099999D01*
X70718633Y-55099999D02*
X70585300Y-55066666D01*
X70585300Y-55066666D02*
X70518633Y-55033333D01*
X70518633Y-55033333D02*
X70451966Y-54966666D01*
X70451966Y-54966666D02*
X70418633Y-54866666D01*
X70418633Y-54866666D02*
X70418633Y-54799999D01*
X70418633Y-54799999D02*
X70451966Y-54699999D01*
X70451966Y-54699999D02*
X70485300Y-54666666D01*
X70418633Y-54033333D02*
X70418633Y-54366666D01*
X70418633Y-54366666D02*
X70751966Y-54399999D01*
X70751966Y-54399999D02*
X70718633Y-54366666D01*
X70718633Y-54366666D02*
X70685300Y-54299999D01*
X70685300Y-54299999D02*
X70685300Y-54133333D01*
X70685300Y-54133333D02*
X70718633Y-54066666D01*
X70718633Y-54066666D02*
X70751966Y-54033333D01*
X70751966Y-54033333D02*
X70818633Y-53999999D01*
X70818633Y-53999999D02*
X70985300Y-53999999D01*
X70985300Y-53999999D02*
X71051966Y-54033333D01*
X71051966Y-54033333D02*
X71085300Y-54066666D01*
X71085300Y-54066666D02*
X71118633Y-54133333D01*
X71118633Y-54133333D02*
X71118633Y-54299999D01*
X71118633Y-54299999D02*
X71085300Y-54366666D01*
X71085300Y-54366666D02*
X71051966Y-54399999D01*
X97983333Y-44118633D02*
X97750000Y-43785300D01*
X97583333Y-44118633D02*
X97583333Y-43418633D01*
X97583333Y-43418633D02*
X97850000Y-43418633D01*
X97850000Y-43418633D02*
X97916667Y-43451966D01*
X97916667Y-43451966D02*
X97950000Y-43485300D01*
X97950000Y-43485300D02*
X97983333Y-43551966D01*
X97983333Y-43551966D02*
X97983333Y-43651966D01*
X97983333Y-43651966D02*
X97950000Y-43718633D01*
X97950000Y-43718633D02*
X97916667Y-43751966D01*
X97916667Y-43751966D02*
X97850000Y-43785300D01*
X97850000Y-43785300D02*
X97583333Y-43785300D01*
X98216667Y-43418633D02*
X98650000Y-43418633D01*
X98650000Y-43418633D02*
X98416667Y-43685300D01*
X98416667Y-43685300D02*
X98516667Y-43685300D01*
X98516667Y-43685300D02*
X98583333Y-43718633D01*
X98583333Y-43718633D02*
X98616667Y-43751966D01*
X98616667Y-43751966D02*
X98650000Y-43818633D01*
X98650000Y-43818633D02*
X98650000Y-43985300D01*
X98650000Y-43985300D02*
X98616667Y-44051966D01*
X98616667Y-44051966D02*
X98583333Y-44085300D01*
X98583333Y-44085300D02*
X98516667Y-44118633D01*
X98516667Y-44118633D02*
X98316667Y-44118633D01*
X98316667Y-44118633D02*
X98250000Y-44085300D01*
X98250000Y-44085300D02*
X98216667Y-44051966D01*
X94883333Y-67285300D02*
X94816666Y-67251966D01*
X94816666Y-67251966D02*
X94750000Y-67185300D01*
X94750000Y-67185300D02*
X94650000Y-67085300D01*
X94650000Y-67085300D02*
X94583333Y-67051966D01*
X94583333Y-67051966D02*
X94516666Y-67051966D01*
X94550000Y-67218633D02*
X94483333Y-67185300D01*
X94483333Y-67185300D02*
X94416666Y-67118633D01*
X94416666Y-67118633D02*
X94383333Y-66985300D01*
X94383333Y-66985300D02*
X94383333Y-66751966D01*
X94383333Y-66751966D02*
X94416666Y-66618633D01*
X94416666Y-66618633D02*
X94483333Y-66551966D01*
X94483333Y-66551966D02*
X94550000Y-66518633D01*
X94550000Y-66518633D02*
X94683333Y-66518633D01*
X94683333Y-66518633D02*
X94750000Y-66551966D01*
X94750000Y-66551966D02*
X94816666Y-66618633D01*
X94816666Y-66618633D02*
X94850000Y-66751966D01*
X94850000Y-66751966D02*
X94850000Y-66985300D01*
X94850000Y-66985300D02*
X94816666Y-67118633D01*
X94816666Y-67118633D02*
X94750000Y-67185300D01*
X94750000Y-67185300D02*
X94683333Y-67218633D01*
X94683333Y-67218633D02*
X94550000Y-67218633D01*
X95449999Y-66518633D02*
X95316666Y-66518633D01*
X95316666Y-66518633D02*
X95249999Y-66551966D01*
X95249999Y-66551966D02*
X95216666Y-66585300D01*
X95216666Y-66585300D02*
X95149999Y-66685300D01*
X95149999Y-66685300D02*
X95116666Y-66818633D01*
X95116666Y-66818633D02*
X95116666Y-67085300D01*
X95116666Y-67085300D02*
X95149999Y-67151966D01*
X95149999Y-67151966D02*
X95183333Y-67185300D01*
X95183333Y-67185300D02*
X95249999Y-67218633D01*
X95249999Y-67218633D02*
X95383333Y-67218633D01*
X95383333Y-67218633D02*
X95449999Y-67185300D01*
X95449999Y-67185300D02*
X95483333Y-67151966D01*
X95483333Y-67151966D02*
X95516666Y-67085300D01*
X95516666Y-67085300D02*
X95516666Y-66918633D01*
X95516666Y-66918633D02*
X95483333Y-66851966D01*
X95483333Y-66851966D02*
X95449999Y-66818633D01*
X95449999Y-66818633D02*
X95383333Y-66785300D01*
X95383333Y-66785300D02*
X95249999Y-66785300D01*
X95249999Y-66785300D02*
X95183333Y-66818633D01*
X95183333Y-66818633D02*
X95149999Y-66851966D01*
X95149999Y-66851966D02*
X95116666Y-66918633D01*
X76433333Y-58151966D02*
X76366666Y-58118633D01*
X76366666Y-58118633D02*
X76266666Y-58118633D01*
X76266666Y-58118633D02*
X76166666Y-58151966D01*
X76166666Y-58151966D02*
X76100000Y-58218633D01*
X76100000Y-58218633D02*
X76066666Y-58285300D01*
X76066666Y-58285300D02*
X76033333Y-58418633D01*
X76033333Y-58418633D02*
X76033333Y-58518633D01*
X76033333Y-58518633D02*
X76066666Y-58651966D01*
X76066666Y-58651966D02*
X76100000Y-58718633D01*
X76100000Y-58718633D02*
X76166666Y-58785300D01*
X76166666Y-58785300D02*
X76266666Y-58818633D01*
X76266666Y-58818633D02*
X76333333Y-58818633D01*
X76333333Y-58818633D02*
X76433333Y-58785300D01*
X76433333Y-58785300D02*
X76466666Y-58751966D01*
X76466666Y-58751966D02*
X76466666Y-58518633D01*
X76466666Y-58518633D02*
X76333333Y-58518633D01*
X77166666Y-58818633D02*
X76933333Y-58485300D01*
X76766666Y-58818633D02*
X76766666Y-58118633D01*
X76766666Y-58118633D02*
X77033333Y-58118633D01*
X77033333Y-58118633D02*
X77100000Y-58151966D01*
X77100000Y-58151966D02*
X77133333Y-58185300D01*
X77133333Y-58185300D02*
X77166666Y-58251966D01*
X77166666Y-58251966D02*
X77166666Y-58351966D01*
X77166666Y-58351966D02*
X77133333Y-58418633D01*
X77133333Y-58418633D02*
X77100000Y-58451966D01*
X77100000Y-58451966D02*
X77033333Y-58485300D01*
X77033333Y-58485300D02*
X76766666Y-58485300D01*
X77466666Y-58818633D02*
X77466666Y-58118633D01*
X77466666Y-58118633D02*
X77866666Y-58818633D01*
X77866666Y-58818633D02*
X77866666Y-58118633D01*
X78566666Y-58818633D02*
X78166666Y-58818633D01*
X78366666Y-58818633D02*
X78366666Y-58118633D01*
X78366666Y-58118633D02*
X78299999Y-58218633D01*
X78299999Y-58218633D02*
X78233333Y-58285300D01*
X78233333Y-58285300D02*
X78166666Y-58318633D01*
X82349999Y-45151966D02*
X82316666Y-45185300D01*
X82316666Y-45185300D02*
X82216666Y-45218633D01*
X82216666Y-45218633D02*
X82149999Y-45218633D01*
X82149999Y-45218633D02*
X82049999Y-45185300D01*
X82049999Y-45185300D02*
X81983333Y-45118633D01*
X81983333Y-45118633D02*
X81949999Y-45051966D01*
X81949999Y-45051966D02*
X81916666Y-44918633D01*
X81916666Y-44918633D02*
X81916666Y-44818633D01*
X81916666Y-44818633D02*
X81949999Y-44685300D01*
X81949999Y-44685300D02*
X81983333Y-44618633D01*
X81983333Y-44618633D02*
X82049999Y-44551966D01*
X82049999Y-44551966D02*
X82149999Y-44518633D01*
X82149999Y-44518633D02*
X82216666Y-44518633D01*
X82216666Y-44518633D02*
X82316666Y-44551966D01*
X82316666Y-44551966D02*
X82349999Y-44585300D01*
X83016666Y-45218633D02*
X82616666Y-45218633D01*
X82816666Y-45218633D02*
X82816666Y-44518633D01*
X82816666Y-44518633D02*
X82749999Y-44618633D01*
X82749999Y-44618633D02*
X82683333Y-44685300D01*
X82683333Y-44685300D02*
X82616666Y-44718633D01*
X83650000Y-44518633D02*
X83316666Y-44518633D01*
X83316666Y-44518633D02*
X83283333Y-44851966D01*
X83283333Y-44851966D02*
X83316666Y-44818633D01*
X83316666Y-44818633D02*
X83383333Y-44785300D01*
X83383333Y-44785300D02*
X83550000Y-44785300D01*
X83550000Y-44785300D02*
X83616666Y-44818633D01*
X83616666Y-44818633D02*
X83650000Y-44851966D01*
X83650000Y-44851966D02*
X83683333Y-44918633D01*
X83683333Y-44918633D02*
X83683333Y-45085300D01*
X83683333Y-45085300D02*
X83650000Y-45151966D01*
X83650000Y-45151966D02*
X83616666Y-45185300D01*
X83616666Y-45185300D02*
X83550000Y-45218633D01*
X83550000Y-45218633D02*
X83383333Y-45218633D01*
X83383333Y-45218633D02*
X83316666Y-45185300D01*
X83316666Y-45185300D02*
X83283333Y-45151966D01*
X71183333Y-37251966D02*
X71150000Y-37285300D01*
X71150000Y-37285300D02*
X71050000Y-37318633D01*
X71050000Y-37318633D02*
X70983333Y-37318633D01*
X70983333Y-37318633D02*
X70883333Y-37285300D01*
X70883333Y-37285300D02*
X70816667Y-37218633D01*
X70816667Y-37218633D02*
X70783333Y-37151966D01*
X70783333Y-37151966D02*
X70750000Y-37018633D01*
X70750000Y-37018633D02*
X70750000Y-36918633D01*
X70750000Y-36918633D02*
X70783333Y-36785300D01*
X70783333Y-36785300D02*
X70816667Y-36718633D01*
X70816667Y-36718633D02*
X70883333Y-36651966D01*
X70883333Y-36651966D02*
X70983333Y-36618633D01*
X70983333Y-36618633D02*
X71050000Y-36618633D01*
X71050000Y-36618633D02*
X71150000Y-36651966D01*
X71150000Y-36651966D02*
X71183333Y-36685300D01*
X71850000Y-37318633D02*
X71450000Y-37318633D01*
X71650000Y-37318633D02*
X71650000Y-36618633D01*
X71650000Y-36618633D02*
X71583333Y-36718633D01*
X71583333Y-36718633D02*
X71516667Y-36785300D01*
X71516667Y-36785300D02*
X71450000Y-36818633D01*
X82599999Y-39368633D02*
X82366666Y-39035300D01*
X82199999Y-39368633D02*
X82199999Y-38668633D01*
X82199999Y-38668633D02*
X82466666Y-38668633D01*
X82466666Y-38668633D02*
X82533333Y-38701966D01*
X82533333Y-38701966D02*
X82566666Y-38735300D01*
X82566666Y-38735300D02*
X82599999Y-38801966D01*
X82599999Y-38801966D02*
X82599999Y-38901966D01*
X82599999Y-38901966D02*
X82566666Y-38968633D01*
X82566666Y-38968633D02*
X82533333Y-39001966D01*
X82533333Y-39001966D02*
X82466666Y-39035300D01*
X82466666Y-39035300D02*
X82199999Y-39035300D01*
X83266666Y-39368633D02*
X82866666Y-39368633D01*
X83066666Y-39368633D02*
X83066666Y-38668633D01*
X83066666Y-38668633D02*
X82999999Y-38768633D01*
X82999999Y-38768633D02*
X82933333Y-38835300D01*
X82933333Y-38835300D02*
X82866666Y-38868633D01*
X83866666Y-38901966D02*
X83866666Y-39368633D01*
X83700000Y-38635300D02*
X83533333Y-39135300D01*
X83533333Y-39135300D02*
X83966666Y-39135300D01*
X82649999Y-56018633D02*
X82416666Y-55685300D01*
X82249999Y-56018633D02*
X82249999Y-55318633D01*
X82249999Y-55318633D02*
X82516666Y-55318633D01*
X82516666Y-55318633D02*
X82583333Y-55351966D01*
X82583333Y-55351966D02*
X82616666Y-55385300D01*
X82616666Y-55385300D02*
X82649999Y-55451966D01*
X82649999Y-55451966D02*
X82649999Y-55551966D01*
X82649999Y-55551966D02*
X82616666Y-55618633D01*
X82616666Y-55618633D02*
X82583333Y-55651966D01*
X82583333Y-55651966D02*
X82516666Y-55685300D01*
X82516666Y-55685300D02*
X82249999Y-55685300D01*
X83316666Y-56018633D02*
X82916666Y-56018633D01*
X83116666Y-56018633D02*
X83116666Y-55318633D01*
X83116666Y-55318633D02*
X83049999Y-55418633D01*
X83049999Y-55418633D02*
X82983333Y-55485300D01*
X82983333Y-55485300D02*
X82916666Y-55518633D01*
X83583333Y-55385300D02*
X83616666Y-55351966D01*
X83616666Y-55351966D02*
X83683333Y-55318633D01*
X83683333Y-55318633D02*
X83850000Y-55318633D01*
X83850000Y-55318633D02*
X83916666Y-55351966D01*
X83916666Y-55351966D02*
X83950000Y-55385300D01*
X83950000Y-55385300D02*
X83983333Y-55451966D01*
X83983333Y-55451966D02*
X83983333Y-55518633D01*
X83983333Y-55518633D02*
X83950000Y-55618633D01*
X83950000Y-55618633D02*
X83550000Y-56018633D01*
X83550000Y-56018633D02*
X83983333Y-56018633D01*
X67416666Y-53118633D02*
X67416666Y-53685300D01*
X67416666Y-53685300D02*
X67450000Y-53751966D01*
X67450000Y-53751966D02*
X67483333Y-53785300D01*
X67483333Y-53785300D02*
X67550000Y-53818633D01*
X67550000Y-53818633D02*
X67683333Y-53818633D01*
X67683333Y-53818633D02*
X67750000Y-53785300D01*
X67750000Y-53785300D02*
X67783333Y-53751966D01*
X67783333Y-53751966D02*
X67816666Y-53685300D01*
X67816666Y-53685300D02*
X67816666Y-53118633D01*
X68116666Y-53185300D02*
X68149999Y-53151966D01*
X68149999Y-53151966D02*
X68216666Y-53118633D01*
X68216666Y-53118633D02*
X68383333Y-53118633D01*
X68383333Y-53118633D02*
X68449999Y-53151966D01*
X68449999Y-53151966D02*
X68483333Y-53185300D01*
X68483333Y-53185300D02*
X68516666Y-53251966D01*
X68516666Y-53251966D02*
X68516666Y-53318633D01*
X68516666Y-53318633D02*
X68483333Y-53418633D01*
X68483333Y-53418633D02*
X68083333Y-53818633D01*
X68083333Y-53818633D02*
X68516666Y-53818633D01*
X82649999Y-57518633D02*
X82416666Y-57185300D01*
X82249999Y-57518633D02*
X82249999Y-56818633D01*
X82249999Y-56818633D02*
X82516666Y-56818633D01*
X82516666Y-56818633D02*
X82583333Y-56851966D01*
X82583333Y-56851966D02*
X82616666Y-56885300D01*
X82616666Y-56885300D02*
X82649999Y-56951966D01*
X82649999Y-56951966D02*
X82649999Y-57051966D01*
X82649999Y-57051966D02*
X82616666Y-57118633D01*
X82616666Y-57118633D02*
X82583333Y-57151966D01*
X82583333Y-57151966D02*
X82516666Y-57185300D01*
X82516666Y-57185300D02*
X82249999Y-57185300D01*
X83316666Y-57518633D02*
X82916666Y-57518633D01*
X83116666Y-57518633D02*
X83116666Y-56818633D01*
X83116666Y-56818633D02*
X83049999Y-56918633D01*
X83049999Y-56918633D02*
X82983333Y-56985300D01*
X82983333Y-56985300D02*
X82916666Y-57018633D01*
X83550000Y-56818633D02*
X83983333Y-56818633D01*
X83983333Y-56818633D02*
X83750000Y-57085300D01*
X83750000Y-57085300D02*
X83850000Y-57085300D01*
X83850000Y-57085300D02*
X83916666Y-57118633D01*
X83916666Y-57118633D02*
X83950000Y-57151966D01*
X83950000Y-57151966D02*
X83983333Y-57218633D01*
X83983333Y-57218633D02*
X83983333Y-57385300D01*
X83983333Y-57385300D02*
X83950000Y-57451966D01*
X83950000Y-57451966D02*
X83916666Y-57485300D01*
X83916666Y-57485300D02*
X83850000Y-57518633D01*
X83850000Y-57518633D02*
X83650000Y-57518633D01*
X83650000Y-57518633D02*
X83583333Y-57485300D01*
X83583333Y-57485300D02*
X83550000Y-57451966D01*
X76504166Y-63068633D02*
X76270833Y-62735300D01*
X76104166Y-63068633D02*
X76104166Y-62368633D01*
X76104166Y-62368633D02*
X76370833Y-62368633D01*
X76370833Y-62368633D02*
X76437500Y-62401966D01*
X76437500Y-62401966D02*
X76470833Y-62435300D01*
X76470833Y-62435300D02*
X76504166Y-62501966D01*
X76504166Y-62501966D02*
X76504166Y-62601966D01*
X76504166Y-62601966D02*
X76470833Y-62668633D01*
X76470833Y-62668633D02*
X76437500Y-62701966D01*
X76437500Y-62701966D02*
X76370833Y-62735300D01*
X76370833Y-62735300D02*
X76104166Y-62735300D01*
X76804166Y-62701966D02*
X77037500Y-62701966D01*
X77137500Y-63068633D02*
X76804166Y-63068633D01*
X76804166Y-63068633D02*
X76804166Y-62368633D01*
X76804166Y-62368633D02*
X77137500Y-62368633D01*
X77437499Y-63068633D02*
X77437499Y-62368633D01*
X77437499Y-62368633D02*
X77604166Y-62368633D01*
X77604166Y-62368633D02*
X77704166Y-62401966D01*
X77704166Y-62401966D02*
X77770833Y-62468633D01*
X77770833Y-62468633D02*
X77804166Y-62535300D01*
X77804166Y-62535300D02*
X77837499Y-62668633D01*
X77837499Y-62668633D02*
X77837499Y-62768633D01*
X77837499Y-62768633D02*
X77804166Y-62901966D01*
X77804166Y-62901966D02*
X77770833Y-62968633D01*
X77770833Y-62968633D02*
X77704166Y-63035300D01*
X77704166Y-63035300D02*
X77604166Y-63068633D01*
X77604166Y-63068633D02*
X77437499Y-63068633D01*
X78504166Y-63068633D02*
X78104166Y-63068633D01*
X78304166Y-63068633D02*
X78304166Y-62368633D01*
X78304166Y-62368633D02*
X78237499Y-62468633D01*
X78237499Y-62468633D02*
X78170833Y-62535300D01*
X78170833Y-62535300D02*
X78104166Y-62568633D01*
X95133333Y-59235300D02*
X95066666Y-59201966D01*
X95066666Y-59201966D02*
X95000000Y-59135300D01*
X95000000Y-59135300D02*
X94900000Y-59035300D01*
X94900000Y-59035300D02*
X94833333Y-59001966D01*
X94833333Y-59001966D02*
X94766666Y-59001966D01*
X94800000Y-59168633D02*
X94733333Y-59135300D01*
X94733333Y-59135300D02*
X94666666Y-59068633D01*
X94666666Y-59068633D02*
X94633333Y-58935300D01*
X94633333Y-58935300D02*
X94633333Y-58701966D01*
X94633333Y-58701966D02*
X94666666Y-58568633D01*
X94666666Y-58568633D02*
X94733333Y-58501966D01*
X94733333Y-58501966D02*
X94800000Y-58468633D01*
X94800000Y-58468633D02*
X94933333Y-58468633D01*
X94933333Y-58468633D02*
X95000000Y-58501966D01*
X95000000Y-58501966D02*
X95066666Y-58568633D01*
X95066666Y-58568633D02*
X95100000Y-58701966D01*
X95100000Y-58701966D02*
X95100000Y-58935300D01*
X95100000Y-58935300D02*
X95066666Y-59068633D01*
X95066666Y-59068633D02*
X95000000Y-59135300D01*
X95000000Y-59135300D02*
X94933333Y-59168633D01*
X94933333Y-59168633D02*
X94800000Y-59168633D01*
X95699999Y-58701966D02*
X95699999Y-59168633D01*
X95533333Y-58435300D02*
X95366666Y-58935300D01*
X95366666Y-58935300D02*
X95799999Y-58935300D01*
X63668633Y-61666666D02*
X63335300Y-61899999D01*
X63668633Y-62066666D02*
X62968633Y-62066666D01*
X62968633Y-62066666D02*
X62968633Y-61799999D01*
X62968633Y-61799999D02*
X63001966Y-61733333D01*
X63001966Y-61733333D02*
X63035300Y-61699999D01*
X63035300Y-61699999D02*
X63101966Y-61666666D01*
X63101966Y-61666666D02*
X63201966Y-61666666D01*
X63201966Y-61666666D02*
X63268633Y-61699999D01*
X63268633Y-61699999D02*
X63301966Y-61733333D01*
X63301966Y-61733333D02*
X63335300Y-61799999D01*
X63335300Y-61799999D02*
X63335300Y-62066666D01*
X63268633Y-61266666D02*
X63235300Y-61333333D01*
X63235300Y-61333333D02*
X63201966Y-61366666D01*
X63201966Y-61366666D02*
X63135300Y-61399999D01*
X63135300Y-61399999D02*
X63101966Y-61399999D01*
X63101966Y-61399999D02*
X63035300Y-61366666D01*
X63035300Y-61366666D02*
X63001966Y-61333333D01*
X63001966Y-61333333D02*
X62968633Y-61266666D01*
X62968633Y-61266666D02*
X62968633Y-61133333D01*
X62968633Y-61133333D02*
X63001966Y-61066666D01*
X63001966Y-61066666D02*
X63035300Y-61033333D01*
X63035300Y-61033333D02*
X63101966Y-60999999D01*
X63101966Y-60999999D02*
X63135300Y-60999999D01*
X63135300Y-60999999D02*
X63201966Y-61033333D01*
X63201966Y-61033333D02*
X63235300Y-61066666D01*
X63235300Y-61066666D02*
X63268633Y-61133333D01*
X63268633Y-61133333D02*
X63268633Y-61266666D01*
X63268633Y-61266666D02*
X63301966Y-61333333D01*
X63301966Y-61333333D02*
X63335300Y-61366666D01*
X63335300Y-61366666D02*
X63401966Y-61399999D01*
X63401966Y-61399999D02*
X63535300Y-61399999D01*
X63535300Y-61399999D02*
X63601966Y-61366666D01*
X63601966Y-61366666D02*
X63635300Y-61333333D01*
X63635300Y-61333333D02*
X63668633Y-61266666D01*
X63668633Y-61266666D02*
X63668633Y-61133333D01*
X63668633Y-61133333D02*
X63635300Y-61066666D01*
X63635300Y-61066666D02*
X63601966Y-61033333D01*
X63601966Y-61033333D02*
X63535300Y-60999999D01*
X63535300Y-60999999D02*
X63401966Y-60999999D01*
X63401966Y-60999999D02*
X63335300Y-61033333D01*
X63335300Y-61033333D02*
X63301966Y-61066666D01*
X63301966Y-61066666D02*
X63268633Y-61133333D01*
X102593333Y-55524308D02*
X102360000Y-55190975D01*
X102193333Y-55524308D02*
X102193333Y-54824308D01*
X102193333Y-54824308D02*
X102460000Y-54824308D01*
X102460000Y-54824308D02*
X102526667Y-54857641D01*
X102526667Y-54857641D02*
X102560000Y-54890975D01*
X102560000Y-54890975D02*
X102593333Y-54957641D01*
X102593333Y-54957641D02*
X102593333Y-55057641D01*
X102593333Y-55057641D02*
X102560000Y-55124308D01*
X102560000Y-55124308D02*
X102526667Y-55157641D01*
X102526667Y-55157641D02*
X102460000Y-55190975D01*
X102460000Y-55190975D02*
X102193333Y-55190975D01*
X102826667Y-54824308D02*
X103293333Y-54824308D01*
X103293333Y-54824308D02*
X102993333Y-55524308D01*
X70216666Y-37918633D02*
X70216666Y-38485300D01*
X70216666Y-38485300D02*
X70250000Y-38551966D01*
X70250000Y-38551966D02*
X70283333Y-38585300D01*
X70283333Y-38585300D02*
X70350000Y-38618633D01*
X70350000Y-38618633D02*
X70483333Y-38618633D01*
X70483333Y-38618633D02*
X70550000Y-38585300D01*
X70550000Y-38585300D02*
X70583333Y-38551966D01*
X70583333Y-38551966D02*
X70616666Y-38485300D01*
X70616666Y-38485300D02*
X70616666Y-37918633D01*
X71316666Y-38618633D02*
X70916666Y-38618633D01*
X71116666Y-38618633D02*
X71116666Y-37918633D01*
X71116666Y-37918633D02*
X71049999Y-38018633D01*
X71049999Y-38018633D02*
X70983333Y-38085300D01*
X70983333Y-38085300D02*
X70916666Y-38118633D01*
X59801966Y-56616666D02*
X59835300Y-56649999D01*
X59835300Y-56649999D02*
X59868633Y-56749999D01*
X59868633Y-56749999D02*
X59868633Y-56816666D01*
X59868633Y-56816666D02*
X59835300Y-56916666D01*
X59835300Y-56916666D02*
X59768633Y-56983333D01*
X59768633Y-56983333D02*
X59701966Y-57016666D01*
X59701966Y-57016666D02*
X59568633Y-57049999D01*
X59568633Y-57049999D02*
X59468633Y-57049999D01*
X59468633Y-57049999D02*
X59335300Y-57016666D01*
X59335300Y-57016666D02*
X59268633Y-56983333D01*
X59268633Y-56983333D02*
X59201966Y-56916666D01*
X59201966Y-56916666D02*
X59168633Y-56816666D01*
X59168633Y-56816666D02*
X59168633Y-56749999D01*
X59168633Y-56749999D02*
X59201966Y-56649999D01*
X59201966Y-56649999D02*
X59235300Y-56616666D01*
X59468633Y-56216666D02*
X59435300Y-56283333D01*
X59435300Y-56283333D02*
X59401966Y-56316666D01*
X59401966Y-56316666D02*
X59335300Y-56349999D01*
X59335300Y-56349999D02*
X59301966Y-56349999D01*
X59301966Y-56349999D02*
X59235300Y-56316666D01*
X59235300Y-56316666D02*
X59201966Y-56283333D01*
X59201966Y-56283333D02*
X59168633Y-56216666D01*
X59168633Y-56216666D02*
X59168633Y-56083333D01*
X59168633Y-56083333D02*
X59201966Y-56016666D01*
X59201966Y-56016666D02*
X59235300Y-55983333D01*
X59235300Y-55983333D02*
X59301966Y-55949999D01*
X59301966Y-55949999D02*
X59335300Y-55949999D01*
X59335300Y-55949999D02*
X59401966Y-55983333D01*
X59401966Y-55983333D02*
X59435300Y-56016666D01*
X59435300Y-56016666D02*
X59468633Y-56083333D01*
X59468633Y-56083333D02*
X59468633Y-56216666D01*
X59468633Y-56216666D02*
X59501966Y-56283333D01*
X59501966Y-56283333D02*
X59535300Y-56316666D01*
X59535300Y-56316666D02*
X59601966Y-56349999D01*
X59601966Y-56349999D02*
X59735300Y-56349999D01*
X59735300Y-56349999D02*
X59801966Y-56316666D01*
X59801966Y-56316666D02*
X59835300Y-56283333D01*
X59835300Y-56283333D02*
X59868633Y-56216666D01*
X59868633Y-56216666D02*
X59868633Y-56083333D01*
X59868633Y-56083333D02*
X59835300Y-56016666D01*
X59835300Y-56016666D02*
X59801966Y-55983333D01*
X59801966Y-55983333D02*
X59735300Y-55949999D01*
X59735300Y-55949999D02*
X59601966Y-55949999D01*
X59601966Y-55949999D02*
X59535300Y-55983333D01*
X59535300Y-55983333D02*
X59501966Y-56016666D01*
X59501966Y-56016666D02*
X59468633Y-56083333D01*
X95233333Y-46485300D02*
X95166666Y-46451966D01*
X95166666Y-46451966D02*
X95100000Y-46385300D01*
X95100000Y-46385300D02*
X95000000Y-46285300D01*
X95000000Y-46285300D02*
X94933333Y-46251966D01*
X94933333Y-46251966D02*
X94866666Y-46251966D01*
X94900000Y-46418633D02*
X94833333Y-46385300D01*
X94833333Y-46385300D02*
X94766666Y-46318633D01*
X94766666Y-46318633D02*
X94733333Y-46185300D01*
X94733333Y-46185300D02*
X94733333Y-45951966D01*
X94733333Y-45951966D02*
X94766666Y-45818633D01*
X94766666Y-45818633D02*
X94833333Y-45751966D01*
X94833333Y-45751966D02*
X94900000Y-45718633D01*
X94900000Y-45718633D02*
X95033333Y-45718633D01*
X95033333Y-45718633D02*
X95100000Y-45751966D01*
X95100000Y-45751966D02*
X95166666Y-45818633D01*
X95166666Y-45818633D02*
X95200000Y-45951966D01*
X95200000Y-45951966D02*
X95200000Y-46185300D01*
X95200000Y-46185300D02*
X95166666Y-46318633D01*
X95166666Y-46318633D02*
X95100000Y-46385300D01*
X95100000Y-46385300D02*
X95033333Y-46418633D01*
X95033333Y-46418633D02*
X94900000Y-46418633D01*
X95466666Y-45785300D02*
X95499999Y-45751966D01*
X95499999Y-45751966D02*
X95566666Y-45718633D01*
X95566666Y-45718633D02*
X95733333Y-45718633D01*
X95733333Y-45718633D02*
X95799999Y-45751966D01*
X95799999Y-45751966D02*
X95833333Y-45785300D01*
X95833333Y-45785300D02*
X95866666Y-45851966D01*
X95866666Y-45851966D02*
X95866666Y-45918633D01*
X95866666Y-45918633D02*
X95833333Y-46018633D01*
X95833333Y-46018633D02*
X95433333Y-46418633D01*
X95433333Y-46418633D02*
X95866666Y-46418633D01*
X65494999Y-40741966D02*
X65461666Y-40775300D01*
X65461666Y-40775300D02*
X65361666Y-40808633D01*
X65361666Y-40808633D02*
X65294999Y-40808633D01*
X65294999Y-40808633D02*
X65194999Y-40775300D01*
X65194999Y-40775300D02*
X65128333Y-40708633D01*
X65128333Y-40708633D02*
X65094999Y-40641966D01*
X65094999Y-40641966D02*
X65061666Y-40508633D01*
X65061666Y-40508633D02*
X65061666Y-40408633D01*
X65061666Y-40408633D02*
X65094999Y-40275300D01*
X65094999Y-40275300D02*
X65128333Y-40208633D01*
X65128333Y-40208633D02*
X65194999Y-40141966D01*
X65194999Y-40141966D02*
X65294999Y-40108633D01*
X65294999Y-40108633D02*
X65361666Y-40108633D01*
X65361666Y-40108633D02*
X65461666Y-40141966D01*
X65461666Y-40141966D02*
X65494999Y-40175300D01*
X65761666Y-40175300D02*
X65794999Y-40141966D01*
X65794999Y-40141966D02*
X65861666Y-40108633D01*
X65861666Y-40108633D02*
X66028333Y-40108633D01*
X66028333Y-40108633D02*
X66094999Y-40141966D01*
X66094999Y-40141966D02*
X66128333Y-40175300D01*
X66128333Y-40175300D02*
X66161666Y-40241966D01*
X66161666Y-40241966D02*
X66161666Y-40308633D01*
X66161666Y-40308633D02*
X66128333Y-40408633D01*
X66128333Y-40408633D02*
X65728333Y-40808633D01*
X65728333Y-40808633D02*
X66161666Y-40808633D01*
X66428333Y-40175300D02*
X66461666Y-40141966D01*
X66461666Y-40141966D02*
X66528333Y-40108633D01*
X66528333Y-40108633D02*
X66695000Y-40108633D01*
X66695000Y-40108633D02*
X66761666Y-40141966D01*
X66761666Y-40141966D02*
X66795000Y-40175300D01*
X66795000Y-40175300D02*
X66828333Y-40241966D01*
X66828333Y-40241966D02*
X66828333Y-40308633D01*
X66828333Y-40308633D02*
X66795000Y-40408633D01*
X66795000Y-40408633D02*
X66395000Y-40808633D01*
X66395000Y-40808633D02*
X66828333Y-40808633D01*
X79499999Y-59168633D02*
X79266666Y-58835300D01*
X79099999Y-59168633D02*
X79099999Y-58468633D01*
X79099999Y-58468633D02*
X79366666Y-58468633D01*
X79366666Y-58468633D02*
X79433333Y-58501966D01*
X79433333Y-58501966D02*
X79466666Y-58535300D01*
X79466666Y-58535300D02*
X79499999Y-58601966D01*
X79499999Y-58601966D02*
X79499999Y-58701966D01*
X79499999Y-58701966D02*
X79466666Y-58768633D01*
X79466666Y-58768633D02*
X79433333Y-58801966D01*
X79433333Y-58801966D02*
X79366666Y-58835300D01*
X79366666Y-58835300D02*
X79099999Y-58835300D01*
X79766666Y-58535300D02*
X79799999Y-58501966D01*
X79799999Y-58501966D02*
X79866666Y-58468633D01*
X79866666Y-58468633D02*
X80033333Y-58468633D01*
X80033333Y-58468633D02*
X80099999Y-58501966D01*
X80099999Y-58501966D02*
X80133333Y-58535300D01*
X80133333Y-58535300D02*
X80166666Y-58601966D01*
X80166666Y-58601966D02*
X80166666Y-58668633D01*
X80166666Y-58668633D02*
X80133333Y-58768633D01*
X80133333Y-58768633D02*
X79733333Y-59168633D01*
X79733333Y-59168633D02*
X80166666Y-59168633D01*
X80800000Y-58468633D02*
X80466666Y-58468633D01*
X80466666Y-58468633D02*
X80433333Y-58801966D01*
X80433333Y-58801966D02*
X80466666Y-58768633D01*
X80466666Y-58768633D02*
X80533333Y-58735300D01*
X80533333Y-58735300D02*
X80700000Y-58735300D01*
X80700000Y-58735300D02*
X80766666Y-58768633D01*
X80766666Y-58768633D02*
X80800000Y-58801966D01*
X80800000Y-58801966D02*
X80833333Y-58868633D01*
X80833333Y-58868633D02*
X80833333Y-59035300D01*
X80833333Y-59035300D02*
X80800000Y-59101966D01*
X80800000Y-59101966D02*
X80766666Y-59135300D01*
X80766666Y-59135300D02*
X80700000Y-59168633D01*
X80700000Y-59168633D02*
X80533333Y-59168633D01*
X80533333Y-59168633D02*
X80466666Y-59135300D01*
X80466666Y-59135300D02*
X80433333Y-59101966D01*
X88516666Y-47168633D02*
X88516666Y-47735300D01*
X88516666Y-47735300D02*
X88550000Y-47801966D01*
X88550000Y-47801966D02*
X88583333Y-47835300D01*
X88583333Y-47835300D02*
X88650000Y-47868633D01*
X88650000Y-47868633D02*
X88783333Y-47868633D01*
X88783333Y-47868633D02*
X88850000Y-47835300D01*
X88850000Y-47835300D02*
X88883333Y-47801966D01*
X88883333Y-47801966D02*
X88916666Y-47735300D01*
X88916666Y-47735300D02*
X88916666Y-47168633D01*
X89183333Y-47168633D02*
X89616666Y-47168633D01*
X89616666Y-47168633D02*
X89383333Y-47435300D01*
X89383333Y-47435300D02*
X89483333Y-47435300D01*
X89483333Y-47435300D02*
X89549999Y-47468633D01*
X89549999Y-47468633D02*
X89583333Y-47501966D01*
X89583333Y-47501966D02*
X89616666Y-47568633D01*
X89616666Y-47568633D02*
X89616666Y-47735300D01*
X89616666Y-47735300D02*
X89583333Y-47801966D01*
X89583333Y-47801966D02*
X89549999Y-47835300D01*
X89549999Y-47835300D02*
X89483333Y-47868633D01*
X89483333Y-47868633D02*
X89283333Y-47868633D01*
X89283333Y-47868633D02*
X89216666Y-47835300D01*
X89216666Y-47835300D02*
X89183333Y-47801966D01*
X75430000Y-47730000D02*
X75430000Y-47730000D01*
X75530000Y-47730000D02*
X75530000Y-47730000D01*
D14*
X76480000Y-46880000D02*
X76480000Y-46230000D01*
X76480000Y-48080000D02*
X76480000Y-48730000D01*
X79480000Y-46880000D02*
X79480000Y-46230000D01*
X79480000Y-48730000D02*
X79480000Y-48080000D01*
D11*
X75430000Y-47730000D02*
G75*
G02*
X75530000Y-47730000I50000J0D01*
G01*
X75530000Y-47730000D02*
G75*
G02*
X75430000Y-47730000I-50000J0D01*
G01*
D10*
X85334413Y-41493746D02*
X85808929Y-41493746D01*
X85334413Y-42538746D02*
X85808929Y-42538746D01*
X60075000Y-53551920D02*
X60075000Y-53833080D01*
X61095000Y-53551920D02*
X61095000Y-53833080D01*
X65715000Y-61661141D02*
X65715000Y-61353859D01*
X66475000Y-61661141D02*
X66475000Y-61353859D01*
X91600000Y-35800436D02*
X91600000Y-38854564D01*
X94320000Y-35800436D02*
X94320000Y-38854564D01*
X58625000Y-48798748D02*
X58625000Y-49321252D01*
X60095000Y-48798748D02*
X60095000Y-49321252D01*
X99988641Y-55945000D02*
X99681359Y-55945000D01*
X99988641Y-56705000D02*
X99681359Y-56705000D01*
X60720000Y-42882878D02*
X60720000Y-43682122D01*
X61840000Y-42882878D02*
X61840000Y-43682122D01*
X99893641Y-43520000D02*
X99586359Y-43520000D01*
X99893641Y-44280000D02*
X99586359Y-44280000D01*
X63940000Y-47622162D02*
X63940000Y-47837834D01*
X64660000Y-47622162D02*
X64660000Y-47837834D01*
X82474171Y-51803166D02*
X82474171Y-52084326D01*
X83494171Y-51803166D02*
X83494171Y-52084326D01*
X91600000Y-60640436D02*
X91600000Y-63694564D01*
X94320000Y-60640436D02*
X94320000Y-63694564D01*
D15*
X95770000Y-50589325D02*
X95770000Y-50774325D01*
X95770000Y-53889325D02*
X95770000Y-53704325D01*
X95770000Y-53889325D02*
X99070000Y-53889325D01*
X99070000Y-50589325D02*
X95770000Y-50589325D01*
X99070000Y-50774325D02*
X99070000Y-50589325D01*
X99070000Y-53889325D02*
X99070000Y-53704325D01*
D14*
X94920000Y-51264325D02*
G75*
G02*
X94720000Y-51264325I-100000J0D01*
G01*
X94720000Y-51264325D02*
G75*
G02*
X94920000Y-51264325I100000J0D01*
G01*
D15*
X99900000Y-48500000D02*
X99900000Y-52500000D01*
X99900000Y-52500000D02*
X103900000Y-52500000D01*
X103900000Y-48500000D02*
X99900000Y-48500000D01*
X103900000Y-52500000D02*
X103900000Y-48500000D01*
D10*
X66200000Y-46550000D02*
X66200000Y-49850000D01*
X66200000Y-49850000D02*
X70200000Y-49850000D01*
D15*
X48500000Y-62750000D02*
X48500000Y-66750000D01*
X48500000Y-66750000D02*
X52500000Y-66750000D01*
X52500000Y-62750000D02*
X48500000Y-62750000D01*
X52500000Y-66750000D02*
X52500000Y-62750000D01*
D10*
X85334413Y-40023746D02*
X85808929Y-40023746D01*
X85334413Y-41068746D02*
X85808929Y-41068746D01*
X61636359Y-40620000D02*
X61943641Y-40620000D01*
X61636359Y-41380000D02*
X61943641Y-41380000D01*
X47150000Y-32380000D02*
X47150000Y-35130000D01*
X47150000Y-40900000D02*
X47150000Y-38150000D01*
X54605563Y-32380000D02*
X47150000Y-32380000D01*
X54605563Y-40900000D02*
X47150000Y-40900000D01*
X55670000Y-33444437D02*
X54605563Y-32380000D01*
X55670000Y-33444437D02*
X55670000Y-35130000D01*
X55670000Y-39835563D02*
X54605563Y-40900000D01*
X55670000Y-39835563D02*
X55670000Y-38150000D01*
X56410000Y-39650000D02*
X56410000Y-38650000D01*
X56910000Y-39150000D02*
X55910000Y-39150000D01*
X100913641Y-42395000D02*
X100606359Y-42395000D01*
X100913641Y-43155000D02*
X100606359Y-43155000D01*
D11*
X75500000Y-53925000D02*
X75500000Y-53925000D01*
X75600000Y-53925000D02*
X75600000Y-53925000D01*
D14*
X76550000Y-53075000D02*
X76550000Y-52425000D01*
X76550000Y-54275000D02*
X76550000Y-54925000D01*
X79550000Y-53075000D02*
X79550000Y-52425000D01*
X79550000Y-54925000D02*
X79550000Y-54275000D01*
D11*
X75500000Y-53925000D02*
G75*
G02*
X75600000Y-53925000I50000J0D01*
G01*
X75600000Y-53925000D02*
G75*
G02*
X75500000Y-53925000I-50000J0D01*
G01*
D10*
X60720000Y-48622878D02*
X60720000Y-49422122D01*
X61840000Y-48622878D02*
X61840000Y-49422122D01*
X98813641Y-54820000D02*
X98506359Y-54820000D01*
X98813641Y-55580000D02*
X98506359Y-55580000D01*
X96790000Y-55712164D02*
X96790000Y-55927836D01*
X97510000Y-55712164D02*
X97510000Y-55927836D01*
D15*
X99900000Y-60800000D02*
X99900000Y-64800000D01*
X99900000Y-64800000D02*
X103900000Y-64800000D01*
X103900000Y-60800000D02*
X99900000Y-60800000D01*
X103900000Y-64800000D02*
X103900000Y-60800000D01*
D10*
X70430000Y-66520000D02*
X70430000Y-69180000D01*
X83190000Y-66520000D02*
X70430000Y-66520000D01*
X83190000Y-66520000D02*
X83190000Y-69180000D01*
X83190000Y-69180000D02*
X70430000Y-69180000D01*
X84460000Y-66520000D02*
X85790000Y-66520000D01*
X85790000Y-66520000D02*
X85790000Y-67850000D01*
X99888641Y-68520000D02*
X99581359Y-68520000D01*
X99888641Y-69280000D02*
X99581359Y-69280000D01*
X60058748Y-45395000D02*
X60581252Y-45395000D01*
X60058748Y-46865000D02*
X60581252Y-46865000D01*
X47190000Y-41340000D02*
X47190000Y-44090000D01*
X47190000Y-49860000D02*
X47190000Y-47110000D01*
X54645563Y-41340000D02*
X47190000Y-41340000D01*
X54645563Y-49860000D02*
X47190000Y-49860000D01*
X55710000Y-42404437D02*
X54645563Y-41340000D01*
X55710000Y-42404437D02*
X55710000Y-44090000D01*
X55710000Y-48795563D02*
X54645563Y-49860000D01*
X55710000Y-48795563D02*
X55710000Y-47110000D01*
X56450000Y-48610000D02*
X56450000Y-47610000D01*
X56950000Y-48110000D02*
X55950000Y-48110000D01*
X96540000Y-43312164D02*
X96540000Y-43527836D01*
X97260000Y-43312164D02*
X97260000Y-43527836D01*
X96040000Y-68312164D02*
X96040000Y-68527836D01*
X96760000Y-68312164D02*
X96760000Y-68527836D01*
X69035580Y-43680000D02*
X68754420Y-43680000D01*
X69035580Y-44700000D02*
X68754420Y-44700000D01*
D15*
X99900000Y-35900000D02*
X99900000Y-39900000D01*
X99900000Y-39900000D02*
X103900000Y-39900000D01*
X103900000Y-35900000D02*
X99900000Y-35900000D01*
X103900000Y-39900000D02*
X103900000Y-35900000D01*
D10*
X69040000Y-58030580D02*
X69040000Y-57749420D01*
X70060000Y-58030580D02*
X70060000Y-57749420D01*
X86546091Y-53366246D02*
X86827251Y-53366246D01*
X86546091Y-54386246D02*
X86827251Y-54386246D01*
X68015000Y-61671141D02*
X68015000Y-61363859D01*
X68775000Y-61671141D02*
X68775000Y-61363859D01*
X91710000Y-48094761D02*
X91710000Y-51148889D01*
X94430000Y-48094761D02*
X94430000Y-51148889D01*
D15*
X95650000Y-38304325D02*
X95650000Y-38489325D01*
X95650000Y-41604325D02*
X95650000Y-41419325D01*
X95650000Y-41604325D02*
X98950000Y-41604325D01*
X98950000Y-38304325D02*
X95650000Y-38304325D01*
X98950000Y-38489325D02*
X98950000Y-38304325D01*
X98950000Y-41604325D02*
X98950000Y-41419325D01*
D14*
X94800000Y-38979325D02*
G75*
G02*
X94600000Y-38979325I-100000J0D01*
G01*
X94600000Y-38979325D02*
G75*
G02*
X94800000Y-38979325I100000J0D01*
G01*
D10*
X67075000Y-61666141D02*
X67075000Y-61358859D01*
X67835000Y-61666141D02*
X67835000Y-61358859D01*
X100913641Y-67395000D02*
X100606359Y-67395000D01*
X100913641Y-68155000D02*
X100606359Y-68155000D01*
D15*
X48750000Y-53550000D02*
X48750000Y-57550000D01*
X48750000Y-57550000D02*
X52750000Y-57550000D01*
X52750000Y-53550000D02*
X48750000Y-53550000D01*
X52750000Y-57550000D02*
X52750000Y-53550000D01*
D10*
X85133591Y-45816246D02*
X85414751Y-45816246D01*
X85133591Y-46836246D02*
X85414751Y-46836246D01*
X98693641Y-67395000D02*
X98386359Y-67395000D01*
X98693641Y-68155000D02*
X98386359Y-68155000D01*
X56575000Y-64055000D02*
X56575000Y-69255000D01*
X66795000Y-64055000D02*
X56575000Y-64055000D01*
X66795000Y-64055000D02*
X66795000Y-66655000D01*
X66795000Y-66655000D02*
X69395000Y-66655000D01*
X68065000Y-64055000D02*
X69395000Y-64055000D01*
X69395000Y-64055000D02*
X69395000Y-65385000D01*
X69395000Y-66655000D02*
X69395000Y-69255000D01*
X69395000Y-69255000D02*
X56575000Y-69255000D01*
D15*
X95640000Y-34434325D02*
X95640000Y-34619325D01*
X95640000Y-37549325D02*
X95640000Y-37734325D01*
X95640000Y-37734325D02*
X98940000Y-37734325D01*
X98940000Y-34434325D02*
X95640000Y-34434325D01*
X98940000Y-34434325D02*
X98940000Y-34619325D01*
X98940000Y-37734325D02*
X98940000Y-37549325D01*
D14*
X99990000Y-37059325D02*
G75*
G02*
X99790000Y-37059325I-100000J0D01*
G01*
X99790000Y-37059325D02*
G75*
G02*
X99990000Y-37059325I100000J0D01*
G01*
D10*
X85341913Y-58143746D02*
X85816429Y-58143746D01*
X85341913Y-59188746D02*
X85816429Y-59188746D01*
X69035580Y-41775000D02*
X68754420Y-41775000D01*
X69035580Y-42795000D02*
X68754420Y-42795000D01*
X89490000Y-51705580D02*
X89490000Y-51424420D01*
X90510000Y-51705580D02*
X90510000Y-51424420D01*
X71240002Y-48592836D02*
X71240002Y-48377164D01*
X71960002Y-48592836D02*
X71960002Y-48377164D01*
X73300000Y-45654420D02*
X73300000Y-45935580D01*
X74320000Y-45654420D02*
X74320000Y-45935580D01*
X80063641Y-61070000D02*
X79756359Y-61070000D01*
X80063641Y-61830000D02*
X79756359Y-61830000D01*
D16*
X49015000Y-50760500D02*
X49015000Y-51177060D01*
X49015000Y-52502940D02*
X49015000Y-52919500D01*
X49015000Y-52919500D02*
X52063000Y-52919500D01*
X52063000Y-50760500D02*
X49015000Y-50760500D01*
X52063000Y-51177060D02*
X52063000Y-50760500D01*
X52063000Y-52919500D02*
X52063000Y-52502940D01*
D10*
X73290000Y-53940580D02*
X73290000Y-53659420D01*
X74310000Y-53940580D02*
X74310000Y-53659420D01*
X69045000Y-54391920D02*
X69045000Y-54673080D01*
X70065000Y-54391920D02*
X70065000Y-54673080D01*
X98688641Y-42395000D02*
X98381359Y-42395000D01*
X98688641Y-43155000D02*
X98381359Y-43155000D01*
D15*
X95652220Y-63146899D02*
X95652220Y-63331899D01*
X95652220Y-66446899D02*
X95652220Y-66261899D01*
X95652220Y-66446899D02*
X98952220Y-66446899D01*
X98952220Y-63146899D02*
X95652220Y-63146899D01*
X98952220Y-63331899D02*
X98952220Y-63146899D01*
X98952220Y-66446899D02*
X98952220Y-66261899D01*
D14*
X94802220Y-63821899D02*
G75*
G02*
X94602220Y-63821899I-100000J0D01*
G01*
X94602220Y-63821899D02*
G75*
G02*
X94802220Y-63821899I100000J0D01*
G01*
D10*
X75802500Y-59015000D02*
X75802500Y-60485000D01*
X75802500Y-60485000D02*
X78087500Y-60485000D01*
X78087500Y-59015000D02*
X75802500Y-59015000D01*
X85412251Y-44356246D02*
X85131091Y-44356246D01*
X85412251Y-45376246D02*
X85131091Y-45376246D01*
X69195580Y-36495000D02*
X68914420Y-36495000D01*
X69195580Y-37515000D02*
X68914420Y-37515000D01*
X85334413Y-38543746D02*
X85808929Y-38543746D01*
X85334413Y-39588746D02*
X85808929Y-39588746D01*
X85341913Y-55213746D02*
X85816429Y-55213746D01*
X85341913Y-56258746D02*
X85816429Y-56258746D01*
X62285000Y-53970000D02*
X62285000Y-54445000D01*
X62285000Y-59190000D02*
X62285000Y-58715000D01*
X62760000Y-53970000D02*
X62285000Y-53970000D01*
X62760000Y-59190000D02*
X62285000Y-59190000D01*
X67030000Y-53970000D02*
X67505000Y-53970000D01*
X67030000Y-59190000D02*
X67505000Y-59190000D01*
X67505000Y-53970000D02*
X67505000Y-54445000D01*
X85351913Y-56673746D02*
X85826429Y-56673746D01*
X85351913Y-57718746D02*
X85826429Y-57718746D01*
X75802500Y-60715000D02*
X75802500Y-62185000D01*
X75802500Y-62185000D02*
X78087500Y-62185000D01*
X78087500Y-60715000D02*
X75802500Y-60715000D01*
D15*
X95649720Y-59336899D02*
X95649720Y-59521899D01*
X95649720Y-62451899D02*
X95649720Y-62636899D01*
X95649720Y-62636899D02*
X98949720Y-62636899D01*
X98949720Y-59336899D02*
X95649720Y-59336899D01*
X98949720Y-59336899D02*
X98949720Y-59521899D01*
X98949720Y-62636899D02*
X98949720Y-62451899D01*
D14*
X99999720Y-61961899D02*
G75*
G02*
X99799720Y-61961899I-100000J0D01*
G01*
X99799720Y-61961899D02*
G75*
G02*
X99999720Y-61961899I100000J0D01*
G01*
D10*
X64770000Y-61658641D02*
X64770000Y-61351359D01*
X65530000Y-61658641D02*
X65530000Y-61351359D01*
X101013641Y-54820000D02*
X100706359Y-54820000D01*
X101013641Y-55580000D02*
X100706359Y-55580000D01*
D12*
X67625000Y-41100000D02*
G75*
G02*
X67375000Y-41100000I-125000J0D01*
G01*
X67375000Y-41100000D02*
G75*
G02*
X67625000Y-41100000I125000J0D01*
G01*
D10*
X60245000Y-56530336D02*
X60245000Y-56314664D01*
X60965000Y-56530336D02*
X60965000Y-56314664D01*
D15*
X95770000Y-46759325D02*
X95770000Y-46944325D01*
X95770000Y-49874325D02*
X95770000Y-50059325D01*
X95770000Y-50059325D02*
X99070000Y-50059325D01*
X99070000Y-46759325D02*
X95770000Y-46759325D01*
X99070000Y-46759325D02*
X99070000Y-46944325D01*
X99070000Y-50059325D02*
X99070000Y-49874325D01*
D14*
X100120000Y-49384325D02*
G75*
G02*
X99920000Y-49384325I-100000J0D01*
G01*
X99920000Y-49384325D02*
G75*
G02*
X100120000Y-49384325I100000J0D01*
G01*
D10*
X65804420Y-38755000D02*
X66085580Y-38755000D01*
X65804420Y-39775000D02*
X66085580Y-39775000D01*
X80113641Y-59370000D02*
X79806359Y-59370000D01*
X80113641Y-60130000D02*
X79806359Y-60130000D01*
D14*
X84389999Y-47991245D02*
X84389999Y-48241247D01*
X84389999Y-47991245D02*
X84640001Y-47991245D01*
X84389999Y-51741245D02*
X84389999Y-51991247D01*
X84389999Y-51991247D02*
X84640001Y-51991247D01*
X88139999Y-47991245D02*
X88390001Y-47991245D01*
X88139999Y-51991247D02*
X88390001Y-51991247D01*
X88390001Y-47991245D02*
X88390001Y-48241247D01*
X88390001Y-51741245D02*
X88390001Y-51991247D01*
D12*
X87765001Y-47235181D02*
G75*
G02*
X87514999Y-47235181I-125001J0D01*
G01*
X87514999Y-47235181D02*
G75*
G02*
X87765001Y-47235181I125001J0D01*
G01*
%LPC*%
D17*
X96420000Y-53384325D02*
X95520000Y-53384325D01*
X95520000Y-53044325D01*
X96420000Y-53044325D01*
X96420000Y-53384325D01*
G36*
X96420000Y-53384325D02*
G01*
X95520000Y-53384325D01*
X95520000Y-53044325D01*
X96420000Y-53044325D01*
X96420000Y-53384325D01*
G37*
X96420000Y-52734325D02*
X95520000Y-52734325D01*
X95520000Y-52394325D01*
X95970000Y-52394325D01*
X95970000Y-52084325D01*
X95520000Y-52084325D01*
X95520000Y-51744325D01*
X95970000Y-51744325D01*
X95970000Y-51434325D01*
X95520000Y-51434325D01*
X95520000Y-51094325D01*
X96420000Y-51094325D01*
X96420000Y-52734325D01*
G36*
X96420000Y-52734325D02*
G01*
X95520000Y-52734325D01*
X95520000Y-52394325D01*
X95970000Y-52394325D01*
X95970000Y-52084325D01*
X95520000Y-52084325D01*
X95520000Y-51744325D01*
X95970000Y-51744325D01*
X95970000Y-51434325D01*
X95520000Y-51434325D01*
X95520000Y-51094325D01*
X96420000Y-51094325D01*
X96420000Y-52734325D01*
G37*
X99320000Y-51434325D02*
X98670000Y-51434325D01*
X98670000Y-51744325D01*
X99320000Y-51744325D01*
X99320000Y-52084325D01*
X98670000Y-52084325D01*
X98670000Y-52394325D01*
X99320000Y-52394325D01*
X99320000Y-52734325D01*
X98670000Y-52734325D01*
X98670000Y-53044325D01*
X99320000Y-53044325D01*
X99320000Y-53384325D01*
X96960000Y-53384325D01*
X96960000Y-51094325D01*
X99320000Y-51094325D01*
X99320000Y-51434325D01*
G36*
X99320000Y-51434325D02*
G01*
X98670000Y-51434325D01*
X98670000Y-51744325D01*
X99320000Y-51744325D01*
X99320000Y-52084325D01*
X98670000Y-52084325D01*
X98670000Y-52394325D01*
X99320000Y-52394325D01*
X99320000Y-52734325D01*
X98670000Y-52734325D01*
X98670000Y-53044325D01*
X99320000Y-53044325D01*
X99320000Y-53384325D01*
X96960000Y-53384325D01*
X96960000Y-51094325D01*
X99320000Y-51094325D01*
X99320000Y-51434325D01*
G37*
X96300000Y-41099325D02*
X95400000Y-41099325D01*
X95400000Y-40759325D01*
X96300000Y-40759325D01*
X96300000Y-41099325D01*
G36*
X96300000Y-41099325D02*
G01*
X95400000Y-41099325D01*
X95400000Y-40759325D01*
X96300000Y-40759325D01*
X96300000Y-41099325D01*
G37*
X96300000Y-40449325D02*
X95400000Y-40449325D01*
X95400000Y-40109325D01*
X95850000Y-40109325D01*
X95850000Y-39799325D01*
X95400000Y-39799325D01*
X95400000Y-39459325D01*
X95850000Y-39459325D01*
X95850000Y-39149325D01*
X95400000Y-39149325D01*
X95400000Y-38809325D01*
X96300000Y-38809325D01*
X96300000Y-40449325D01*
G36*
X96300000Y-40449325D02*
G01*
X95400000Y-40449325D01*
X95400000Y-40109325D01*
X95850000Y-40109325D01*
X95850000Y-39799325D01*
X95400000Y-39799325D01*
X95400000Y-39459325D01*
X95850000Y-39459325D01*
X95850000Y-39149325D01*
X95400000Y-39149325D01*
X95400000Y-38809325D01*
X96300000Y-38809325D01*
X96300000Y-40449325D01*
G37*
X99200000Y-39149325D02*
X98550000Y-39149325D01*
X98550000Y-39459325D01*
X99200000Y-39459325D01*
X99200000Y-39799325D01*
X98550000Y-39799325D01*
X98550000Y-40109325D01*
X99200000Y-40109325D01*
X99200000Y-40449325D01*
X98550000Y-40449325D01*
X98550000Y-40759325D01*
X99200000Y-40759325D01*
X99200000Y-41099325D01*
X96840000Y-41099325D01*
X96840000Y-38809325D01*
X99200000Y-38809325D01*
X99200000Y-39149325D01*
G36*
X99200000Y-39149325D02*
G01*
X98550000Y-39149325D01*
X98550000Y-39459325D01*
X99200000Y-39459325D01*
X99200000Y-39799325D01*
X98550000Y-39799325D01*
X98550000Y-40109325D01*
X99200000Y-40109325D01*
X99200000Y-40449325D01*
X98550000Y-40449325D01*
X98550000Y-40759325D01*
X99200000Y-40759325D01*
X99200000Y-41099325D01*
X96840000Y-41099325D01*
X96840000Y-38809325D01*
X99200000Y-38809325D01*
X99200000Y-39149325D01*
G37*
X99190000Y-35279325D02*
X98290000Y-35279325D01*
X98290000Y-34939325D01*
X99190000Y-34939325D01*
X99190000Y-35279325D01*
G36*
X99190000Y-35279325D02*
G01*
X98290000Y-35279325D01*
X98290000Y-34939325D01*
X99190000Y-34939325D01*
X99190000Y-35279325D01*
G37*
X99190000Y-35929325D02*
X98740000Y-35929325D01*
X98740000Y-36239325D01*
X99190000Y-36239325D01*
X99190000Y-36579325D01*
X98740000Y-36579325D01*
X98740000Y-36889325D01*
X99190000Y-36889325D01*
X99190000Y-37229325D01*
X98290000Y-37229325D01*
X98290000Y-35589325D01*
X99190000Y-35589325D01*
X99190000Y-35929325D01*
G36*
X99190000Y-35929325D02*
G01*
X98740000Y-35929325D01*
X98740000Y-36239325D01*
X99190000Y-36239325D01*
X99190000Y-36579325D01*
X98740000Y-36579325D01*
X98740000Y-36889325D01*
X99190000Y-36889325D01*
X99190000Y-37229325D01*
X98290000Y-37229325D01*
X98290000Y-35589325D01*
X99190000Y-35589325D01*
X99190000Y-35929325D01*
G37*
X97750000Y-37229325D02*
X95390000Y-37229325D01*
X95390000Y-36889325D01*
X96040000Y-36889325D01*
X96040000Y-36579325D01*
X95390000Y-36579325D01*
X95390000Y-36239325D01*
X96040000Y-36239325D01*
X96040000Y-35929325D01*
X95390000Y-35929325D01*
X95390000Y-35589325D01*
X96040000Y-35589325D01*
X96040000Y-35279325D01*
X95390000Y-35279325D01*
X95390000Y-34939325D01*
X97750000Y-34939325D01*
X97750000Y-37229325D01*
G36*
X97750000Y-37229325D02*
G01*
X95390000Y-37229325D01*
X95390000Y-36889325D01*
X96040000Y-36889325D01*
X96040000Y-36579325D01*
X95390000Y-36579325D01*
X95390000Y-36239325D01*
X96040000Y-36239325D01*
X96040000Y-35929325D01*
X95390000Y-35929325D01*
X95390000Y-35589325D01*
X96040000Y-35589325D01*
X96040000Y-35279325D01*
X95390000Y-35279325D01*
X95390000Y-34939325D01*
X97750000Y-34939325D01*
X97750000Y-37229325D01*
G37*
X96302220Y-65941899D02*
X95402220Y-65941899D01*
X95402220Y-65601899D01*
X96302220Y-65601899D01*
X96302220Y-65941899D01*
G36*
X96302220Y-65941899D02*
G01*
X95402220Y-65941899D01*
X95402220Y-65601899D01*
X96302220Y-65601899D01*
X96302220Y-65941899D01*
G37*
X96302220Y-65291899D02*
X95402220Y-65291899D01*
X95402220Y-64951899D01*
X95852220Y-64951899D01*
X95852220Y-64641899D01*
X95402220Y-64641899D01*
X95402220Y-64301899D01*
X95852220Y-64301899D01*
X95852220Y-63991899D01*
X95402220Y-63991899D01*
X95402220Y-63651899D01*
X96302220Y-63651899D01*
X96302220Y-65291899D01*
G36*
X96302220Y-65291899D02*
G01*
X95402220Y-65291899D01*
X95402220Y-64951899D01*
X95852220Y-64951899D01*
X95852220Y-64641899D01*
X95402220Y-64641899D01*
X95402220Y-64301899D01*
X95852220Y-64301899D01*
X95852220Y-63991899D01*
X95402220Y-63991899D01*
X95402220Y-63651899D01*
X96302220Y-63651899D01*
X96302220Y-65291899D01*
G37*
X99202220Y-63991899D02*
X98552220Y-63991899D01*
X98552220Y-64301899D01*
X99202220Y-64301899D01*
X99202220Y-64641899D01*
X98552220Y-64641899D01*
X98552220Y-64951899D01*
X99202220Y-64951899D01*
X99202220Y-65291899D01*
X98552220Y-65291899D01*
X98552220Y-65601899D01*
X99202220Y-65601899D01*
X99202220Y-65941899D01*
X96842220Y-65941899D01*
X96842220Y-63651899D01*
X99202220Y-63651899D01*
X99202220Y-63991899D01*
G36*
X99202220Y-63991899D02*
G01*
X98552220Y-63991899D01*
X98552220Y-64301899D01*
X99202220Y-64301899D01*
X99202220Y-64641899D01*
X98552220Y-64641899D01*
X98552220Y-64951899D01*
X99202220Y-64951899D01*
X99202220Y-65291899D01*
X98552220Y-65291899D01*
X98552220Y-65601899D01*
X99202220Y-65601899D01*
X99202220Y-65941899D01*
X96842220Y-65941899D01*
X96842220Y-63651899D01*
X99202220Y-63651899D01*
X99202220Y-63991899D01*
G37*
X99199720Y-60181899D02*
X98299720Y-60181899D01*
X98299720Y-59841899D01*
X99199720Y-59841899D01*
X99199720Y-60181899D01*
G36*
X99199720Y-60181899D02*
G01*
X98299720Y-60181899D01*
X98299720Y-59841899D01*
X99199720Y-59841899D01*
X99199720Y-60181899D01*
G37*
X99199720Y-60831899D02*
X98749720Y-60831899D01*
X98749720Y-61141899D01*
X99199720Y-61141899D01*
X99199720Y-61481899D01*
X98749720Y-61481899D01*
X98749720Y-61791899D01*
X99199720Y-61791899D01*
X99199720Y-62131899D01*
X98299720Y-62131899D01*
X98299720Y-60491899D01*
X99199720Y-60491899D01*
X99199720Y-60831899D01*
G36*
X99199720Y-60831899D02*
G01*
X98749720Y-60831899D01*
X98749720Y-61141899D01*
X99199720Y-61141899D01*
X99199720Y-61481899D01*
X98749720Y-61481899D01*
X98749720Y-61791899D01*
X99199720Y-61791899D01*
X99199720Y-62131899D01*
X98299720Y-62131899D01*
X98299720Y-60491899D01*
X99199720Y-60491899D01*
X99199720Y-60831899D01*
G37*
X97759720Y-62131899D02*
X95399720Y-62131899D01*
X95399720Y-61791899D01*
X96049720Y-61791899D01*
X96049720Y-61481899D01*
X95399720Y-61481899D01*
X95399720Y-61141899D01*
X96049720Y-61141899D01*
X96049720Y-60831899D01*
X95399720Y-60831899D01*
X95399720Y-60491899D01*
X96049720Y-60491899D01*
X96049720Y-60181899D01*
X95399720Y-60181899D01*
X95399720Y-59841899D01*
X97759720Y-59841899D01*
X97759720Y-62131899D01*
G36*
X97759720Y-62131899D02*
G01*
X95399720Y-62131899D01*
X95399720Y-61791899D01*
X96049720Y-61791899D01*
X96049720Y-61481899D01*
X95399720Y-61481899D01*
X95399720Y-61141899D01*
X96049720Y-61141899D01*
X96049720Y-60831899D01*
X95399720Y-60831899D01*
X95399720Y-60491899D01*
X96049720Y-60491899D01*
X96049720Y-60181899D01*
X95399720Y-60181899D01*
X95399720Y-59841899D01*
X97759720Y-59841899D01*
X97759720Y-62131899D01*
G37*
X99320000Y-47604325D02*
X98420000Y-47604325D01*
X98420000Y-47264325D01*
X99320000Y-47264325D01*
X99320000Y-47604325D01*
G36*
X99320000Y-47604325D02*
G01*
X98420000Y-47604325D01*
X98420000Y-47264325D01*
X99320000Y-47264325D01*
X99320000Y-47604325D01*
G37*
X99320000Y-48254325D02*
X98870000Y-48254325D01*
X98870000Y-48564325D01*
X99320000Y-48564325D01*
X99320000Y-48904325D01*
X98870000Y-48904325D01*
X98870000Y-49214325D01*
X99320000Y-49214325D01*
X99320000Y-49554325D01*
X98420000Y-49554325D01*
X98420000Y-47914325D01*
X99320000Y-47914325D01*
X99320000Y-48254325D01*
G36*
X99320000Y-48254325D02*
G01*
X98870000Y-48254325D01*
X98870000Y-48564325D01*
X99320000Y-48564325D01*
X99320000Y-48904325D01*
X98870000Y-48904325D01*
X98870000Y-49214325D01*
X99320000Y-49214325D01*
X99320000Y-49554325D01*
X98420000Y-49554325D01*
X98420000Y-47914325D01*
X99320000Y-47914325D01*
X99320000Y-48254325D01*
G37*
X97880000Y-49554325D02*
X95520000Y-49554325D01*
X95520000Y-49214325D01*
X96170000Y-49214325D01*
X96170000Y-48904325D01*
X95520000Y-48904325D01*
X95520000Y-48564325D01*
X96170000Y-48564325D01*
X96170000Y-48254325D01*
X95520000Y-48254325D01*
X95520000Y-47914325D01*
X96170000Y-47914325D01*
X96170000Y-47604325D01*
X95520000Y-47604325D01*
X95520000Y-47264325D01*
X97880000Y-47264325D01*
X97880000Y-49554325D01*
G36*
X97880000Y-49554325D02*
G01*
X95520000Y-49554325D01*
X95520000Y-49214325D01*
X96170000Y-49214325D01*
X96170000Y-48904325D01*
X95520000Y-48904325D01*
X95520000Y-48564325D01*
X96170000Y-48564325D01*
X96170000Y-48254325D01*
X95520000Y-48254325D01*
X95520000Y-47914325D01*
X96170000Y-47914325D01*
X96170000Y-47604325D01*
X95520000Y-47604325D01*
X95520000Y-47264325D01*
X97880000Y-47264325D01*
X97880000Y-49554325D01*
G37*
D18*
X76430000Y-47730000D03*
D19*
X76980000Y-48780000D03*
X77480000Y-48780000D03*
X77980000Y-48780000D03*
X78480000Y-48780000D03*
X78980000Y-48780000D03*
D18*
X79530000Y-47730000D03*
X79530000Y-47230000D03*
D19*
X78980000Y-46180000D03*
X78480000Y-46180000D03*
X77980000Y-46180000D03*
X77480000Y-46180000D03*
X76980000Y-46180000D03*
D18*
X76430000Y-47230000D03*
D20*
X77980000Y-47480000D03*
D21*
X84746671Y-42016246D03*
X86396671Y-42016246D03*
D22*
X60585000Y-52917500D03*
X60585000Y-54467500D03*
D23*
X66095000Y-62017500D03*
X66095000Y-60997500D03*
D24*
X92960000Y-35015000D03*
X92960000Y-39640000D03*
D25*
X59360000Y-48110000D03*
X59360000Y-50010000D03*
D26*
X100345000Y-56325000D03*
X99325000Y-56325000D03*
D27*
X61280000Y-42220000D03*
X61280000Y-44345000D03*
D26*
X100250000Y-43900000D03*
X99230000Y-43900000D03*
D28*
X64300000Y-47249998D03*
X64300000Y-48209998D03*
D22*
X82984171Y-51168746D03*
X82984171Y-52718746D03*
D24*
X92960000Y-59855000D03*
X92960000Y-64480000D03*
D29*
X101900000Y-50500000D03*
D30*
X67100000Y-49050000D03*
X69300000Y-49050000D03*
X69300000Y-47350000D03*
X67100000Y-47350000D03*
D29*
X50500000Y-64750000D03*
D21*
X84746671Y-40546246D03*
X86396671Y-40546246D03*
D31*
X61280000Y-41000000D03*
X62300000Y-41000000D03*
D32*
X54660000Y-36640000D03*
X48160000Y-36640000D03*
D26*
X101270000Y-42775000D03*
X100250000Y-42775000D03*
D18*
X76500000Y-53925000D03*
D19*
X77050000Y-54975000D03*
X77550000Y-54975000D03*
X78050000Y-54975000D03*
X78550000Y-54975000D03*
X79050000Y-54975000D03*
D18*
X79600000Y-53925000D03*
X79600000Y-53425000D03*
D19*
X79050000Y-52375000D03*
X78550000Y-52375000D03*
X78050000Y-52375000D03*
X77550000Y-52375000D03*
X77050000Y-52375000D03*
D18*
X76500000Y-53425000D03*
D20*
X78050000Y-53675000D03*
D27*
X61280000Y-47960000D03*
X61280000Y-50085000D03*
D26*
X99170000Y-55200000D03*
X98150000Y-55200000D03*
D28*
X97150000Y-55340000D03*
X97150000Y-56300000D03*
D29*
X101900000Y-62800000D03*
D33*
X84460000Y-67850000D03*
D34*
X81920000Y-67850000D03*
X79380000Y-67850000D03*
X76840000Y-67850000D03*
X74300000Y-67850000D03*
X71760000Y-67850000D03*
D26*
X100245000Y-68900000D03*
X99225000Y-68900000D03*
D35*
X59370000Y-46130000D03*
X61270000Y-46130000D03*
D32*
X54700000Y-45600000D03*
X48200000Y-45600000D03*
D28*
X96900000Y-42940000D03*
X96900000Y-43900000D03*
X96400000Y-67940000D03*
X96400000Y-68900000D03*
D36*
X69670000Y-44190000D03*
X68120000Y-44190000D03*
D29*
X101900000Y-37900000D03*
D37*
X69550000Y-58665000D03*
X69550000Y-57115000D03*
D38*
X85911671Y-53876246D03*
X87461671Y-53876246D03*
D23*
X68395000Y-62027500D03*
X68395000Y-61007500D03*
D24*
X93070000Y-47309325D03*
X93070000Y-51934325D03*
D23*
X67455000Y-62022500D03*
X67455000Y-61002500D03*
D26*
X101270000Y-67775000D03*
X100250000Y-67775000D03*
D29*
X50750000Y-55550000D03*
D38*
X84499171Y-46326246D03*
X86049171Y-46326246D03*
D26*
X99050000Y-67775000D03*
X98030000Y-67775000D03*
D33*
X68065000Y-65385000D03*
D34*
X68065000Y-67925000D03*
X65525000Y-65385000D03*
X65525000Y-67925000D03*
X62985000Y-65385000D03*
X62985000Y-67925000D03*
X60445000Y-65385000D03*
X60445000Y-67925000D03*
X57905000Y-65385000D03*
X57905000Y-67925000D03*
D21*
X84754171Y-58666246D03*
X86404171Y-58666246D03*
D36*
X69670000Y-42285000D03*
X68120000Y-42285000D03*
D37*
X90000000Y-52340000D03*
X90000000Y-50790000D03*
D39*
X71600002Y-48965000D03*
X71600002Y-48005000D03*
D22*
X73810000Y-45020000D03*
X73810000Y-46570000D03*
D26*
X80420000Y-61450000D03*
X79400000Y-61450000D03*
D40*
X52190000Y-51840000D03*
X48888000Y-51840000D03*
D37*
X73800000Y-54575000D03*
X73800000Y-53025000D03*
D22*
X69555000Y-53757500D03*
X69555000Y-55307500D03*
D26*
X99045000Y-42775000D03*
X98025000Y-42775000D03*
D41*
X76500000Y-59750000D03*
X78075000Y-59750000D03*
D36*
X86046671Y-44866246D03*
X84496671Y-44866246D03*
X69830000Y-37005000D03*
X68280000Y-37005000D03*
D21*
X84746671Y-39066246D03*
X86396671Y-39066246D03*
X84754171Y-55736246D03*
X86404171Y-55736246D03*
D42*
X67332500Y-58330000D03*
X67332500Y-57830000D03*
X67332500Y-57330000D03*
X67332500Y-56830000D03*
X67332500Y-56330000D03*
X67332500Y-55830000D03*
X67332500Y-55330000D03*
X67332500Y-54830000D03*
D43*
X66645000Y-54142500D03*
X66145000Y-54142500D03*
X65645000Y-54142500D03*
X65145000Y-54142500D03*
X64645000Y-54142500D03*
X64145000Y-54142500D03*
X63645000Y-54142500D03*
X63145000Y-54142500D03*
D42*
X62457500Y-54830000D03*
X62457500Y-55330000D03*
X62457500Y-55830000D03*
X62457500Y-56330000D03*
X62457500Y-56830000D03*
X62457500Y-57330000D03*
X62457500Y-57830000D03*
X62457500Y-58330000D03*
D43*
X63145000Y-59017500D03*
X63645000Y-59017500D03*
X64145000Y-59017500D03*
X64645000Y-59017500D03*
X65145000Y-59017500D03*
X65645000Y-59017500D03*
X66145000Y-59017500D03*
X66645000Y-59017500D03*
D44*
X64895000Y-56580000D03*
D21*
X84764171Y-57196246D03*
X86414171Y-57196246D03*
D41*
X76500000Y-61450000D03*
X78075000Y-61450000D03*
D23*
X65150000Y-62015000D03*
X65150000Y-60995000D03*
D26*
X101370000Y-55200000D03*
X100350000Y-55200000D03*
D45*
X68175000Y-40800000D03*
X68825000Y-40800000D03*
X69475000Y-40800000D03*
X69475000Y-38700000D03*
X68825000Y-38700000D03*
X68175000Y-38700000D03*
D46*
X68825000Y-39750000D03*
D39*
X60605000Y-56902500D03*
X60605000Y-55942500D03*
D38*
X65170000Y-39265000D03*
X66720000Y-39265000D03*
D26*
X80470000Y-59750000D03*
X79450000Y-59750000D03*
D47*
X87640001Y-48111246D03*
X87140002Y-48111246D03*
X86640001Y-48111246D03*
X86140001Y-48111246D03*
X85640000Y-48111246D03*
X85140001Y-48111246D03*
D48*
X84538754Y-48741246D03*
X84538754Y-49241245D03*
X84538754Y-49741246D03*
X84538754Y-50241246D03*
X84538754Y-50741247D03*
X84538754Y-51241246D03*
D47*
X85140000Y-51871246D03*
X85639999Y-51871246D03*
X86140000Y-51871246D03*
X86640000Y-51871246D03*
X87140001Y-51871246D03*
X87640000Y-51871246D03*
D48*
X88241246Y-51241246D03*
X88241246Y-50741247D03*
X88241246Y-50241246D03*
X88241246Y-49741246D03*
X88241246Y-49241245D03*
X88241246Y-48741246D03*
D49*
X86390000Y-49991246D03*
%LPD*%
M02*
