G04 #@! TF.GenerationSoftware,KiCad,Pcbnew,8.0.1*
G04 #@! TF.CreationDate,2024-04-29T17:35:38+03:00*
G04 #@! TF.ProjectId,esc,6573632e-6b69-4636-9164-5f7063625858,rev?*
G04 #@! TF.SameCoordinates,Original*
G04 #@! TF.FileFunction,Copper,L3,Inr*
G04 #@! TF.FilePolarity,Positive*
%FSLAX46Y46*%
G04 Gerber Fmt 4.6, Leading zero omitted, Abs format (unit mm)*
G04 Created by KiCad (PCBNEW 8.0.1) date 2024-04-29 17:35:38*
%MOMM*%
%LPD*%
G01*
G04 APERTURE LIST*
G04 #@! TA.AperFunction,ComponentPad*
%ADD10C,1.755000*%
G04 #@! TD*
G04 #@! TA.AperFunction,ComponentPad*
%ADD11R,1.700000X1.700000*%
G04 #@! TD*
G04 #@! TA.AperFunction,ComponentPad*
%ADD12O,1.700000X1.700000*%
G04 #@! TD*
G04 #@! TA.AperFunction,ViaPad*
%ADD13C,0.800000*%
G04 #@! TD*
G04 APERTURE END LIST*
D10*
X104250000Y-62900000D03*
X104250000Y-50600000D03*
X104250000Y-38000000D03*
X50500000Y-64750000D03*
X50750000Y-55550000D03*
D11*
X84460000Y-67850000D03*
D12*
X81920000Y-67850000D03*
X79380000Y-67850000D03*
X76840000Y-67850000D03*
X74300000Y-67850000D03*
X71760000Y-67850000D03*
D11*
X68065000Y-65385000D03*
D12*
X68065000Y-67925000D03*
X65525000Y-65385000D03*
X65525000Y-67925000D03*
X62985000Y-65385000D03*
X62985000Y-67925000D03*
X60445000Y-65385000D03*
X60445000Y-67925000D03*
X57905000Y-65385000D03*
X57905000Y-67925000D03*
D13*
X81700000Y-60750000D03*
X81700000Y-59750000D03*
X95720000Y-35260000D03*
X95880000Y-49220000D03*
X55940000Y-46420000D03*
X86050000Y-43570000D03*
X55130000Y-35820000D03*
X95720000Y-36910000D03*
X53490000Y-37460000D03*
X97360000Y-36910000D03*
X95880000Y-47570000D03*
X55940000Y-45590000D03*
X53480000Y-45590000D03*
X55120000Y-46420000D03*
X55950000Y-35820000D03*
X97520000Y-48390000D03*
X95760000Y-60980000D03*
X53490000Y-35820000D03*
X53480000Y-46420000D03*
X96690000Y-48390000D03*
X96570000Y-60980000D03*
X95880000Y-48390000D03*
X97400000Y-60980000D03*
X54290000Y-46420000D03*
X55940000Y-44780000D03*
X95760000Y-61810000D03*
X96570000Y-61810000D03*
X96530000Y-35260000D03*
X55120000Y-45590000D03*
X96690000Y-49220000D03*
X97400000Y-61810000D03*
X96530000Y-36080000D03*
X55130000Y-36630000D03*
X55950000Y-36630000D03*
X54300000Y-35820000D03*
X97360000Y-36080000D03*
X95760000Y-60160000D03*
X97520000Y-47570000D03*
X55950000Y-37460000D03*
X96530000Y-36910000D03*
X95720000Y-36080000D03*
X53490000Y-36630000D03*
X97400000Y-60160000D03*
X53480000Y-44780000D03*
X97360000Y-35260000D03*
X96690000Y-47570000D03*
X54300000Y-36630000D03*
X54300000Y-37460000D03*
X55130000Y-37460000D03*
X54290000Y-44780000D03*
X97520000Y-49220000D03*
X54290000Y-45590000D03*
X96570000Y-60160000D03*
X87310000Y-45420000D03*
X55120000Y-44780000D03*
X94800000Y-43500000D03*
X89780000Y-54410000D03*
X92570000Y-42550000D03*
X89680000Y-45460000D03*
X84520000Y-53790000D03*
X95100000Y-56075000D03*
X90700000Y-56000000D03*
X93100000Y-56000000D03*
X60110803Y-58311500D03*
X93900000Y-44575000D03*
X88580000Y-37750000D03*
X63350000Y-44300000D03*
X62188300Y-53285603D03*
X75240000Y-54076500D03*
X63541034Y-52658966D03*
X78970000Y-44180000D03*
X65493000Y-52350000D03*
X76950000Y-50360000D03*
X76278534Y-57496466D03*
X61683196Y-54068873D03*
X62825000Y-50950000D03*
X72925000Y-59075000D03*
X79070000Y-51160000D03*
X72075000Y-61475000D03*
X64350000Y-52150000D03*
X75450000Y-44941500D03*
X94100000Y-53225000D03*
X88860000Y-41810000D03*
X88660000Y-53230000D03*
X89114491Y-51688500D03*
X83350000Y-54000000D03*
X84240000Y-52060000D03*
X65150000Y-43090000D03*
X64333918Y-43090000D03*
X59670000Y-55330000D03*
X70820000Y-57120000D03*
X73820000Y-51780000D03*
X64330000Y-44710000D03*
X64330000Y-42280000D03*
X65150000Y-43900000D03*
X65146082Y-44710000D03*
X64300000Y-62010000D03*
X65146082Y-42280000D03*
X70760000Y-55630000D03*
X72690000Y-46550000D03*
X64333918Y-43900000D03*
X87970000Y-42520000D03*
X93660000Y-65875000D03*
X60845653Y-58963000D03*
X98575000Y-58400000D03*
X67338000Y-53800000D03*
X75700000Y-46330000D03*
X75540000Y-48910000D03*
X76900000Y-44031500D03*
X70760000Y-51630000D03*
X81127500Y-49600000D03*
X90760000Y-49640000D03*
X81610000Y-48230500D03*
X90414256Y-48665517D03*
X77398000Y-56452221D03*
X89530000Y-48340000D03*
X89090000Y-46670000D03*
X77634138Y-44838777D03*
X88086095Y-46688479D03*
X80740000Y-53060000D03*
X79620000Y-56080000D03*
X87170000Y-46550000D03*
X57688500Y-61440000D03*
X57620000Y-57659500D03*
X59400000Y-57660000D03*
X61850000Y-60590000D03*
X88750000Y-36650000D03*
X63391500Y-60650000D03*
X91650000Y-55125000D03*
X92330000Y-66690000D03*
X90200000Y-67420000D03*
X67450000Y-63500000D03*
X64337272Y-60651336D03*
X67525000Y-59125000D03*
X62875000Y-47150000D03*
G04 #@! TA.AperFunction,Conductor*
G36*
X81891337Y-40519808D02*
G01*
X81937203Y-40572515D01*
X81948508Y-40625735D01*
X81917331Y-43253456D01*
X81896853Y-43320257D01*
X81843510Y-43365383D01*
X81774238Y-43374505D01*
X81711113Y-43344800D01*
X81625852Y-43269266D01*
X81625850Y-43269264D01*
X81475226Y-43190210D01*
X81310056Y-43149500D01*
X81139944Y-43149500D01*
X80974773Y-43190210D01*
X80824150Y-43269263D01*
X80696816Y-43382072D01*
X80600182Y-43522068D01*
X80539860Y-43681125D01*
X80539859Y-43681130D01*
X80519355Y-43850000D01*
X80539859Y-44018869D01*
X80539860Y-44018874D01*
X80600182Y-44177931D01*
X80645923Y-44244197D01*
X80696817Y-44317929D01*
X80799936Y-44409284D01*
X80824150Y-44430736D01*
X80974773Y-44509789D01*
X80974775Y-44509790D01*
X81139944Y-44550500D01*
X81310056Y-44550500D01*
X81475225Y-44509790D01*
X81625852Y-44430734D01*
X81696774Y-44367902D01*
X81760004Y-44338182D01*
X81829268Y-44347365D01*
X81882571Y-44392537D01*
X81902992Y-44459356D01*
X81902990Y-44462190D01*
X81892742Y-45325967D01*
X81872264Y-45392768D01*
X81818921Y-45437894D01*
X81749649Y-45447016D01*
X81686524Y-45417312D01*
X81634238Y-45370991D01*
X81575852Y-45319266D01*
X81575850Y-45319265D01*
X81575849Y-45319264D01*
X81425226Y-45240210D01*
X81260056Y-45199500D01*
X81089944Y-45199500D01*
X80924773Y-45240210D01*
X80774150Y-45319263D01*
X80646816Y-45432072D01*
X80550182Y-45572068D01*
X80489860Y-45731125D01*
X80489859Y-45731130D01*
X80469355Y-45900000D01*
X80489859Y-46068869D01*
X80489860Y-46068874D01*
X80550182Y-46227931D01*
X80592236Y-46288855D01*
X80646817Y-46367929D01*
X80752505Y-46461560D01*
X80774150Y-46480736D01*
X80924773Y-46559789D01*
X80924775Y-46559790D01*
X81089944Y-46600500D01*
X81260056Y-46600500D01*
X81425225Y-46559790D01*
X81575852Y-46480734D01*
X81672725Y-46394911D01*
X81735954Y-46365193D01*
X81805218Y-46374375D01*
X81858521Y-46419547D01*
X81878942Y-46486366D01*
X81878940Y-46489200D01*
X81870346Y-47213566D01*
X81849868Y-47280367D01*
X81796525Y-47325493D01*
X81727253Y-47334615D01*
X81720578Y-47333386D01*
X81709979Y-47331133D01*
X81704646Y-47330000D01*
X81515354Y-47330000D01*
X81499424Y-47333386D01*
X81330197Y-47369355D01*
X81330192Y-47369357D01*
X81157270Y-47446348D01*
X81157265Y-47446351D01*
X81004129Y-47557611D01*
X80877466Y-47698285D01*
X80782821Y-47862215D01*
X80782818Y-47862222D01*
X80734431Y-48011144D01*
X80724326Y-48042244D01*
X80704540Y-48230500D01*
X80724326Y-48418756D01*
X80724327Y-48418759D01*
X80782818Y-48598777D01*
X80782821Y-48598784D01*
X80791563Y-48613925D01*
X80808036Y-48681825D01*
X80785183Y-48747852D01*
X80734614Y-48789204D01*
X80706210Y-48801851D01*
X80674770Y-48815849D01*
X80674768Y-48815849D01*
X80674764Y-48815852D01*
X80521629Y-48927111D01*
X80394966Y-49067785D01*
X80300321Y-49231715D01*
X80300318Y-49231722D01*
X80241827Y-49411740D01*
X80241826Y-49411744D01*
X80222040Y-49600000D01*
X80241826Y-49788256D01*
X80241827Y-49788259D01*
X80300318Y-49968277D01*
X80300321Y-49968284D01*
X80394967Y-50132216D01*
X80509574Y-50259500D01*
X80521629Y-50272888D01*
X80674765Y-50384148D01*
X80674770Y-50384151D01*
X80847692Y-50461142D01*
X80847697Y-50461144D01*
X81032854Y-50500500D01*
X81032855Y-50500500D01*
X81222144Y-50500500D01*
X81222146Y-50500500D01*
X81407303Y-50461144D01*
X81580230Y-50384151D01*
X81635119Y-50344271D01*
X81700924Y-50320792D01*
X81768978Y-50336617D01*
X81817673Y-50386723D01*
X81831995Y-50446061D01*
X81805894Y-52645996D01*
X81785416Y-52712797D01*
X81732073Y-52757923D01*
X81662801Y-52767045D01*
X81599594Y-52737268D01*
X81568625Y-52694964D01*
X81567179Y-52691716D01*
X81567178Y-52691715D01*
X81472533Y-52527784D01*
X81345871Y-52387112D01*
X81343106Y-52385103D01*
X81192734Y-52275851D01*
X81192729Y-52275848D01*
X81019807Y-52198857D01*
X81019802Y-52198855D01*
X80874001Y-52167865D01*
X80834646Y-52159500D01*
X80645354Y-52159500D01*
X80612897Y-52166398D01*
X80460197Y-52198855D01*
X80460192Y-52198857D01*
X80287270Y-52275848D01*
X80287265Y-52275851D01*
X80134129Y-52387111D01*
X80007466Y-52527785D01*
X79912821Y-52691715D01*
X79912818Y-52691722D01*
X79854327Y-52871740D01*
X79854326Y-52871744D01*
X79834540Y-53060000D01*
X79854326Y-53248256D01*
X79854327Y-53248259D01*
X79912818Y-53428277D01*
X79912821Y-53428284D01*
X80007467Y-53592216D01*
X80062988Y-53653878D01*
X80134129Y-53732888D01*
X80287265Y-53844148D01*
X80287270Y-53844151D01*
X80460192Y-53921142D01*
X80460197Y-53921144D01*
X80645354Y-53960500D01*
X80645355Y-53960500D01*
X80834644Y-53960500D01*
X80834646Y-53960500D01*
X81019803Y-53921144D01*
X81192730Y-53844151D01*
X81345871Y-53732888D01*
X81472533Y-53592216D01*
X81500207Y-53544284D01*
X81564425Y-53433054D01*
X81614991Y-53384838D01*
X81683598Y-53371614D01*
X81748463Y-53397582D01*
X81788992Y-53454496D01*
X81795803Y-53496524D01*
X81774999Y-55249998D01*
X81775000Y-55250000D01*
X83401000Y-55250000D01*
X83468039Y-55269685D01*
X83513794Y-55322489D01*
X83525000Y-55374000D01*
X83525000Y-66411427D01*
X83505315Y-66478466D01*
X83452511Y-66524221D01*
X83444334Y-66527609D01*
X83367670Y-66556203D01*
X83367664Y-66556206D01*
X83252455Y-66642452D01*
X83252452Y-66642455D01*
X83166206Y-66757664D01*
X83166203Y-66757669D01*
X83117189Y-66889083D01*
X83075317Y-66945016D01*
X83009853Y-66969433D01*
X82941580Y-66954581D01*
X82913326Y-66933430D01*
X82791402Y-66811506D01*
X82791395Y-66811501D01*
X82597834Y-66675967D01*
X82597830Y-66675965D01*
X82597828Y-66675964D01*
X82383663Y-66576097D01*
X82383659Y-66576096D01*
X82383655Y-66576094D01*
X82155413Y-66514938D01*
X82155403Y-66514936D01*
X81920001Y-66494341D01*
X81919999Y-66494341D01*
X81684596Y-66514936D01*
X81684586Y-66514938D01*
X81456344Y-66576094D01*
X81456335Y-66576098D01*
X81242171Y-66675964D01*
X81242169Y-66675965D01*
X81048597Y-66811505D01*
X80881505Y-66978597D01*
X80751575Y-67164158D01*
X80696998Y-67207783D01*
X80627500Y-67214977D01*
X80565145Y-67183454D01*
X80548425Y-67164158D01*
X80418494Y-66978597D01*
X80251402Y-66811506D01*
X80251395Y-66811501D01*
X80057834Y-66675967D01*
X80057830Y-66675965D01*
X80057828Y-66675964D01*
X79843663Y-66576097D01*
X79843659Y-66576096D01*
X79843655Y-66576094D01*
X79615413Y-66514938D01*
X79615403Y-66514936D01*
X79380001Y-66494341D01*
X79379999Y-66494341D01*
X79144596Y-66514936D01*
X79144586Y-66514938D01*
X78916344Y-66576094D01*
X78916335Y-66576098D01*
X78702171Y-66675964D01*
X78702169Y-66675965D01*
X78508597Y-66811505D01*
X78341505Y-66978597D01*
X78211575Y-67164158D01*
X78156998Y-67207783D01*
X78087500Y-67214977D01*
X78025145Y-67183454D01*
X78008425Y-67164158D01*
X77878494Y-66978597D01*
X77711402Y-66811506D01*
X77711395Y-66811501D01*
X77517834Y-66675967D01*
X77517830Y-66675965D01*
X77517828Y-66675964D01*
X77303663Y-66576097D01*
X77303659Y-66576096D01*
X77303655Y-66576094D01*
X77075413Y-66514938D01*
X77075403Y-66514936D01*
X76840001Y-66494341D01*
X76839999Y-66494341D01*
X76604596Y-66514936D01*
X76604586Y-66514938D01*
X76376344Y-66576094D01*
X76376335Y-66576098D01*
X76162171Y-66675964D01*
X76162169Y-66675965D01*
X75968597Y-66811505D01*
X75801505Y-66978597D01*
X75665965Y-67172169D01*
X75665964Y-67172171D01*
X75566098Y-67386335D01*
X75566094Y-67386344D01*
X75504938Y-67614586D01*
X75504936Y-67614596D01*
X75484341Y-67849999D01*
X75484341Y-67850000D01*
X75504936Y-68085403D01*
X75504938Y-68085413D01*
X75566094Y-68313655D01*
X75566096Y-68313659D01*
X75566097Y-68313663D01*
X75601071Y-68388664D01*
X75665965Y-68527830D01*
X75665967Y-68527834D01*
X75774281Y-68682521D01*
X75801505Y-68721401D01*
X75968599Y-68888495D01*
X76065384Y-68956265D01*
X76162165Y-69024032D01*
X76162167Y-69024033D01*
X76162170Y-69024035D01*
X76376337Y-69123903D01*
X76604592Y-69185063D01*
X76781034Y-69200500D01*
X76839999Y-69205659D01*
X76840000Y-69205659D01*
X76840001Y-69205659D01*
X76898966Y-69200500D01*
X77075408Y-69185063D01*
X77303663Y-69123903D01*
X77517830Y-69024035D01*
X77711401Y-68888495D01*
X77878495Y-68721401D01*
X78008425Y-68535842D01*
X78063002Y-68492217D01*
X78132500Y-68485023D01*
X78194855Y-68516546D01*
X78211575Y-68535842D01*
X78341500Y-68721395D01*
X78341505Y-68721401D01*
X78508599Y-68888495D01*
X78605384Y-68956265D01*
X78702165Y-69024032D01*
X78702167Y-69024033D01*
X78702170Y-69024035D01*
X78916337Y-69123903D01*
X79144592Y-69185063D01*
X79321034Y-69200500D01*
X79379999Y-69205659D01*
X79380000Y-69205659D01*
X79380001Y-69205659D01*
X79438966Y-69200500D01*
X79615408Y-69185063D01*
X79843663Y-69123903D01*
X80057830Y-69024035D01*
X80251401Y-68888495D01*
X80418495Y-68721401D01*
X80548425Y-68535842D01*
X80603002Y-68492217D01*
X80672500Y-68485023D01*
X80734855Y-68516546D01*
X80751575Y-68535842D01*
X80881500Y-68721395D01*
X80881505Y-68721401D01*
X81048599Y-68888495D01*
X81145384Y-68956265D01*
X81242165Y-69024032D01*
X81242167Y-69024033D01*
X81242170Y-69024035D01*
X81456337Y-69123903D01*
X81684592Y-69185063D01*
X81861034Y-69200500D01*
X81919999Y-69205659D01*
X81920000Y-69205659D01*
X81920001Y-69205659D01*
X81978966Y-69200500D01*
X82155408Y-69185063D01*
X82383663Y-69123903D01*
X82597830Y-69024035D01*
X82791401Y-68888495D01*
X82913329Y-68766566D01*
X82974648Y-68733084D01*
X83044340Y-68738068D01*
X83100274Y-68779939D01*
X83117189Y-68810917D01*
X83166202Y-68942328D01*
X83166206Y-68942335D01*
X83252452Y-69057544D01*
X83252455Y-69057547D01*
X83367664Y-69143793D01*
X83367671Y-69143797D01*
X83444333Y-69172390D01*
X83500267Y-69214261D01*
X83524684Y-69279725D01*
X83525000Y-69288572D01*
X83525000Y-69851000D01*
X83505315Y-69918039D01*
X83452511Y-69963794D01*
X83401000Y-69975000D01*
X55624000Y-69975000D01*
X55556961Y-69955315D01*
X55511206Y-69902511D01*
X55500000Y-69851000D01*
X55500000Y-67925000D01*
X56549341Y-67925000D01*
X56569936Y-68160403D01*
X56569938Y-68160413D01*
X56631094Y-68388655D01*
X56631096Y-68388659D01*
X56631097Y-68388663D01*
X56635000Y-68397032D01*
X56730965Y-68602830D01*
X56730967Y-68602834D01*
X56813985Y-68721395D01*
X56866505Y-68796401D01*
X57033599Y-68963495D01*
X57120055Y-69024032D01*
X57227165Y-69099032D01*
X57227167Y-69099033D01*
X57227170Y-69099035D01*
X57441337Y-69198903D01*
X57669592Y-69260063D01*
X57857918Y-69276539D01*
X57904999Y-69280659D01*
X57905000Y-69280659D01*
X57905001Y-69280659D01*
X57944234Y-69277226D01*
X58140408Y-69260063D01*
X58368663Y-69198903D01*
X58582830Y-69099035D01*
X58776401Y-68963495D01*
X58943495Y-68796401D01*
X59073425Y-68610842D01*
X59128002Y-68567217D01*
X59197500Y-68560023D01*
X59259855Y-68591546D01*
X59276575Y-68610842D01*
X59406500Y-68796395D01*
X59406505Y-68796401D01*
X59573599Y-68963495D01*
X59660055Y-69024032D01*
X59767165Y-69099032D01*
X59767167Y-69099033D01*
X59767170Y-69099035D01*
X59981337Y-69198903D01*
X60209592Y-69260063D01*
X60397918Y-69276539D01*
X60444999Y-69280659D01*
X60445000Y-69280659D01*
X60445001Y-69280659D01*
X60484234Y-69277226D01*
X60680408Y-69260063D01*
X60908663Y-69198903D01*
X61122830Y-69099035D01*
X61316401Y-68963495D01*
X61483495Y-68796401D01*
X61613425Y-68610842D01*
X61668002Y-68567217D01*
X61737500Y-68560023D01*
X61799855Y-68591546D01*
X61816575Y-68610842D01*
X61946500Y-68796395D01*
X61946505Y-68796401D01*
X62113599Y-68963495D01*
X62200055Y-69024032D01*
X62307165Y-69099032D01*
X62307167Y-69099033D01*
X62307170Y-69099035D01*
X62521337Y-69198903D01*
X62749592Y-69260063D01*
X62937918Y-69276539D01*
X62984999Y-69280659D01*
X62985000Y-69280659D01*
X62985001Y-69280659D01*
X63024234Y-69277226D01*
X63220408Y-69260063D01*
X63448663Y-69198903D01*
X63662830Y-69099035D01*
X63856401Y-68963495D01*
X64023495Y-68796401D01*
X64153425Y-68610842D01*
X64208002Y-68567217D01*
X64277500Y-68560023D01*
X64339855Y-68591546D01*
X64356575Y-68610842D01*
X64486500Y-68796395D01*
X64486505Y-68796401D01*
X64653599Y-68963495D01*
X64740055Y-69024032D01*
X64847165Y-69099032D01*
X64847167Y-69099033D01*
X64847170Y-69099035D01*
X65061337Y-69198903D01*
X65289592Y-69260063D01*
X65477918Y-69276539D01*
X65524999Y-69280659D01*
X65525000Y-69280659D01*
X65525001Y-69280659D01*
X65564234Y-69277226D01*
X65760408Y-69260063D01*
X65988663Y-69198903D01*
X66202830Y-69099035D01*
X66396401Y-68963495D01*
X66563495Y-68796401D01*
X66699035Y-68602830D01*
X66798903Y-68388663D01*
X66860063Y-68160408D01*
X66880659Y-67925000D01*
X66874097Y-67850000D01*
X70404341Y-67850000D01*
X70424936Y-68085403D01*
X70424938Y-68085413D01*
X70486094Y-68313655D01*
X70486096Y-68313659D01*
X70486097Y-68313663D01*
X70521071Y-68388664D01*
X70585965Y-68527830D01*
X70585967Y-68527834D01*
X70694281Y-68682521D01*
X70721505Y-68721401D01*
X70888599Y-68888495D01*
X70985384Y-68956265D01*
X71082165Y-69024032D01*
X71082167Y-69024033D01*
X71082170Y-69024035D01*
X71296337Y-69123903D01*
X71524592Y-69185063D01*
X71701034Y-69200500D01*
X71759999Y-69205659D01*
X71760000Y-69205659D01*
X71760001Y-69205659D01*
X71818966Y-69200500D01*
X71995408Y-69185063D01*
X72223663Y-69123903D01*
X72437830Y-69024035D01*
X72631401Y-68888495D01*
X72798495Y-68721401D01*
X72934035Y-68527830D01*
X73033903Y-68313663D01*
X73095063Y-68085408D01*
X73115659Y-67850000D01*
X73095063Y-67614592D01*
X73033903Y-67386337D01*
X72934035Y-67172171D01*
X72928425Y-67164158D01*
X72798494Y-66978597D01*
X72631402Y-66811506D01*
X72631395Y-66811501D01*
X72437834Y-66675967D01*
X72437830Y-66675965D01*
X72437828Y-66675964D01*
X72223663Y-66576097D01*
X72223659Y-66576096D01*
X72223655Y-66576094D01*
X71995413Y-66514938D01*
X71995403Y-66514936D01*
X71760001Y-66494341D01*
X71759999Y-66494341D01*
X71524596Y-66514936D01*
X71524586Y-66514938D01*
X71296344Y-66576094D01*
X71296335Y-66576098D01*
X71082171Y-66675964D01*
X71082169Y-66675965D01*
X70888597Y-66811505D01*
X70721505Y-66978597D01*
X70585965Y-67172169D01*
X70585964Y-67172171D01*
X70486098Y-67386335D01*
X70486094Y-67386344D01*
X70424938Y-67614586D01*
X70424936Y-67614596D01*
X70404341Y-67849999D01*
X70404341Y-67850000D01*
X66874097Y-67850000D01*
X66860063Y-67689592D01*
X66798903Y-67461337D01*
X66699035Y-67247171D01*
X66693425Y-67239158D01*
X66563494Y-67053597D01*
X66396402Y-66886506D01*
X66396396Y-66886501D01*
X66210842Y-66756575D01*
X66167217Y-66701998D01*
X66160023Y-66632500D01*
X66191546Y-66570145D01*
X66210842Y-66553425D01*
X66287853Y-66499501D01*
X66396401Y-66423495D01*
X66518329Y-66301566D01*
X66579648Y-66268084D01*
X66649340Y-66273068D01*
X66705274Y-66314939D01*
X66722189Y-66345917D01*
X66771202Y-66477328D01*
X66771206Y-66477335D01*
X66857452Y-66592544D01*
X66857455Y-66592547D01*
X66972664Y-66678793D01*
X66972671Y-66678797D01*
X67107517Y-66729091D01*
X67107516Y-66729091D01*
X67114444Y-66729835D01*
X67167127Y-66735500D01*
X68962872Y-66735499D01*
X69022483Y-66729091D01*
X69157331Y-66678796D01*
X69272546Y-66592546D01*
X69358796Y-66477331D01*
X69409091Y-66342483D01*
X69415500Y-66282873D01*
X69415499Y-64750000D01*
X71094355Y-64750000D01*
X71114859Y-64918869D01*
X71114860Y-64918874D01*
X71175182Y-65077931D01*
X71224643Y-65149586D01*
X71271817Y-65217929D01*
X71371559Y-65306292D01*
X71399150Y-65330736D01*
X71549773Y-65409789D01*
X71549775Y-65409790D01*
X71714944Y-65450500D01*
X71885056Y-65450500D01*
X72050225Y-65409790D01*
X72106295Y-65380361D01*
X72200844Y-65330739D01*
X72200848Y-65330735D01*
X72200852Y-65330734D01*
X72200854Y-65330731D01*
X72204551Y-65328180D01*
X72270903Y-65306292D01*
X72338556Y-65323751D01*
X72345449Y-65328180D01*
X72349155Y-65330739D01*
X72499773Y-65409789D01*
X72499775Y-65409790D01*
X72664944Y-65450500D01*
X72835056Y-65450500D01*
X73000225Y-65409790D01*
X73079692Y-65368081D01*
X73150849Y-65330736D01*
X73150850Y-65330734D01*
X73150852Y-65330734D01*
X73278183Y-65217929D01*
X73374818Y-65077930D01*
X73435140Y-64918872D01*
X73455645Y-64750000D01*
X73435140Y-64581128D01*
X73374818Y-64422070D01*
X73278183Y-64282071D01*
X73160096Y-64177455D01*
X73150849Y-64169263D01*
X73000226Y-64090210D01*
X72835056Y-64049500D01*
X72664944Y-64049500D01*
X72499773Y-64090210D01*
X72349148Y-64169265D01*
X72345437Y-64171827D01*
X72279082Y-64193708D01*
X72211431Y-64176241D01*
X72204563Y-64171827D01*
X72200851Y-64169265D01*
X72050226Y-64090210D01*
X71885056Y-64049500D01*
X71714944Y-64049500D01*
X71549773Y-64090210D01*
X71399150Y-64169263D01*
X71271816Y-64282072D01*
X71175182Y-64422068D01*
X71114860Y-64581125D01*
X71114859Y-64581130D01*
X71094355Y-64750000D01*
X69415499Y-64750000D01*
X69415499Y-64487128D01*
X69409091Y-64427517D01*
X69407810Y-64424083D01*
X69358797Y-64292671D01*
X69358793Y-64292664D01*
X69272547Y-64177455D01*
X69272544Y-64177452D01*
X69157335Y-64091206D01*
X69157328Y-64091202D01*
X69022482Y-64040908D01*
X69022483Y-64040908D01*
X68962883Y-64034501D01*
X68962881Y-64034500D01*
X68962873Y-64034500D01*
X68962865Y-64034500D01*
X68393844Y-64034500D01*
X68326805Y-64014815D01*
X68281050Y-63962011D01*
X68271106Y-63892853D01*
X68275913Y-63872182D01*
X68321871Y-63730736D01*
X68335674Y-63688256D01*
X68355460Y-63500000D01*
X68335674Y-63311744D01*
X68277179Y-63131716D01*
X68182533Y-62967784D01*
X68055871Y-62827112D01*
X68055870Y-62827111D01*
X67902734Y-62715851D01*
X67902729Y-62715848D01*
X67729807Y-62638857D01*
X67729802Y-62638855D01*
X67584001Y-62607865D01*
X67544646Y-62599500D01*
X67355354Y-62599500D01*
X67322897Y-62606398D01*
X67170197Y-62638855D01*
X67170192Y-62638857D01*
X66997270Y-62715848D01*
X66997265Y-62715851D01*
X66844129Y-62827111D01*
X66717466Y-62967785D01*
X66622821Y-63131715D01*
X66622818Y-63131722D01*
X66564327Y-63311740D01*
X66564326Y-63311744D01*
X66544540Y-63500000D01*
X66564326Y-63688256D01*
X66564327Y-63688259D01*
X66622818Y-63868277D01*
X66622821Y-63868284D01*
X66717467Y-64032216D01*
X66770580Y-64091204D01*
X66785094Y-64107323D01*
X66815324Y-64170314D01*
X66806699Y-64239649D01*
X66792212Y-64264604D01*
X66771205Y-64292665D01*
X66771203Y-64292669D01*
X66722189Y-64424083D01*
X66680317Y-64480016D01*
X66614853Y-64504433D01*
X66546580Y-64489581D01*
X66518326Y-64468430D01*
X66396402Y-64346506D01*
X66396395Y-64346501D01*
X66202834Y-64210967D01*
X66202830Y-64210965D01*
X66138070Y-64180767D01*
X65988663Y-64111097D01*
X65988659Y-64111096D01*
X65988655Y-64111094D01*
X65760413Y-64049938D01*
X65760403Y-64049936D01*
X65525001Y-64029341D01*
X65524999Y-64029341D01*
X65289596Y-64049936D01*
X65289586Y-64049938D01*
X65061344Y-64111094D01*
X65061335Y-64111098D01*
X64847171Y-64210964D01*
X64847169Y-64210965D01*
X64653597Y-64346505D01*
X64486505Y-64513597D01*
X64356575Y-64699158D01*
X64301998Y-64742783D01*
X64232500Y-64749977D01*
X64170145Y-64718454D01*
X64153425Y-64699158D01*
X64023494Y-64513597D01*
X63856402Y-64346506D01*
X63856395Y-64346501D01*
X63662834Y-64210967D01*
X63662830Y-64210965D01*
X63598070Y-64180767D01*
X63448663Y-64111097D01*
X63448659Y-64111096D01*
X63448655Y-64111094D01*
X63220413Y-64049938D01*
X63220403Y-64049936D01*
X62985001Y-64029341D01*
X62984999Y-64029341D01*
X62749596Y-64049936D01*
X62749586Y-64049938D01*
X62521344Y-64111094D01*
X62521335Y-64111098D01*
X62307171Y-64210964D01*
X62307169Y-64210965D01*
X62113597Y-64346505D01*
X61946505Y-64513597D01*
X61816575Y-64699158D01*
X61761998Y-64742783D01*
X61692500Y-64749977D01*
X61630145Y-64718454D01*
X61613425Y-64699158D01*
X61483494Y-64513597D01*
X61316402Y-64346506D01*
X61316395Y-64346501D01*
X61122834Y-64210967D01*
X61122830Y-64210965D01*
X61058070Y-64180767D01*
X60908663Y-64111097D01*
X60908659Y-64111096D01*
X60908655Y-64111094D01*
X60680413Y-64049938D01*
X60680403Y-64049936D01*
X60445001Y-64029341D01*
X60444999Y-64029341D01*
X60209596Y-64049936D01*
X60209586Y-64049938D01*
X59981344Y-64111094D01*
X59981335Y-64111098D01*
X59767171Y-64210964D01*
X59767169Y-64210965D01*
X59573597Y-64346505D01*
X59406505Y-64513597D01*
X59276575Y-64699158D01*
X59221998Y-64742783D01*
X59152500Y-64749977D01*
X59090145Y-64718454D01*
X59073425Y-64699158D01*
X58943494Y-64513597D01*
X58776402Y-64346506D01*
X58776395Y-64346501D01*
X58582834Y-64210967D01*
X58582830Y-64210965D01*
X58518070Y-64180767D01*
X58368663Y-64111097D01*
X58368659Y-64111096D01*
X58368655Y-64111094D01*
X58215871Y-64070157D01*
X58156210Y-64033792D01*
X58125681Y-63970946D01*
X58133975Y-63901570D01*
X58178461Y-63847692D01*
X58218290Y-63829985D01*
X58300225Y-63809790D01*
X58450849Y-63730736D01*
X58450850Y-63730734D01*
X58450852Y-63730734D01*
X58578183Y-63617929D01*
X58674818Y-63477930D01*
X58735140Y-63318872D01*
X58755645Y-63150000D01*
X58735140Y-62981128D01*
X58674818Y-62822070D01*
X58578183Y-62682071D01*
X58450852Y-62569266D01*
X58450849Y-62569263D01*
X58300226Y-62490210D01*
X58164431Y-62456740D01*
X58104050Y-62421584D01*
X58072262Y-62359364D01*
X58079158Y-62289836D01*
X58122549Y-62235073D01*
X58135716Y-62227587D01*
X58135607Y-62227397D01*
X58141224Y-62224153D01*
X58141230Y-62224151D01*
X58294371Y-62112888D01*
X58421033Y-61972216D01*
X58515679Y-61808284D01*
X58574174Y-61628256D01*
X58593960Y-61440000D01*
X58574174Y-61251744D01*
X58515679Y-61071716D01*
X58421033Y-60907784D01*
X58294371Y-60767112D01*
X58229816Y-60720210D01*
X58141234Y-60655851D01*
X58141229Y-60655848D01*
X57968307Y-60578857D01*
X57968302Y-60578855D01*
X57822501Y-60547865D01*
X57783146Y-60539500D01*
X57593854Y-60539500D01*
X57561397Y-60546398D01*
X57408697Y-60578855D01*
X57408692Y-60578857D01*
X57235770Y-60655848D01*
X57235765Y-60655851D01*
X57082629Y-60767111D01*
X56955966Y-60907785D01*
X56861321Y-61071715D01*
X56861318Y-61071722D01*
X56803164Y-61250703D01*
X56802826Y-61251744D01*
X56783040Y-61440000D01*
X56802826Y-61628256D01*
X56802827Y-61628259D01*
X56861318Y-61808277D01*
X56861321Y-61808284D01*
X56955967Y-61972216D01*
X57016811Y-62039790D01*
X57082629Y-62112888D01*
X57235765Y-62224148D01*
X57235770Y-62224151D01*
X57408692Y-62301142D01*
X57408697Y-62301144D01*
X57593854Y-62340500D01*
X57593855Y-62340500D01*
X57596232Y-62340750D01*
X57597515Y-62341277D01*
X57600211Y-62341851D01*
X57600106Y-62342344D01*
X57660846Y-62367337D01*
X57700828Y-62424636D01*
X57703484Y-62494455D01*
X57667972Y-62554627D01*
X57653709Y-62566117D01*
X57649153Y-62569261D01*
X57521816Y-62682072D01*
X57425182Y-62822068D01*
X57364860Y-62981125D01*
X57364859Y-62981130D01*
X57344355Y-63150000D01*
X57364859Y-63318869D01*
X57364860Y-63318874D01*
X57425182Y-63477931D01*
X57487475Y-63568177D01*
X57521817Y-63617929D01*
X57649148Y-63730734D01*
X57649150Y-63730735D01*
X57799005Y-63809386D01*
X57849217Y-63857970D01*
X57865192Y-63925989D01*
X57841857Y-63991847D01*
X57786621Y-64034634D01*
X57752188Y-64042710D01*
X57669596Y-64049936D01*
X57669586Y-64049938D01*
X57441344Y-64111094D01*
X57441335Y-64111098D01*
X57227171Y-64210964D01*
X57227169Y-64210965D01*
X57033597Y-64346505D01*
X56866505Y-64513597D01*
X56730965Y-64707169D01*
X56730964Y-64707171D01*
X56710993Y-64750000D01*
X56632247Y-64918872D01*
X56631098Y-64921335D01*
X56631094Y-64921344D01*
X56569938Y-65149586D01*
X56569936Y-65149596D01*
X56549341Y-65384999D01*
X56549341Y-65385000D01*
X56569936Y-65620403D01*
X56569938Y-65620413D01*
X56631094Y-65848655D01*
X56631096Y-65848659D01*
X56631097Y-65848663D01*
X56635000Y-65857032D01*
X56730965Y-66062830D01*
X56730967Y-66062834D01*
X56839281Y-66217521D01*
X56866501Y-66256396D01*
X56866506Y-66256402D01*
X57033597Y-66423493D01*
X57033603Y-66423498D01*
X57219158Y-66553425D01*
X57262783Y-66608002D01*
X57269977Y-66677500D01*
X57238454Y-66739855D01*
X57219158Y-66756575D01*
X57033597Y-66886505D01*
X56866505Y-67053597D01*
X56730965Y-67247169D01*
X56730964Y-67247171D01*
X56631098Y-67461335D01*
X56631094Y-67461344D01*
X56569938Y-67689586D01*
X56569936Y-67689596D01*
X56549341Y-67924999D01*
X56549341Y-67925000D01*
X55500000Y-67925000D01*
X55500000Y-57659500D01*
X56714540Y-57659500D01*
X56734326Y-57847756D01*
X56734327Y-57847759D01*
X56792818Y-58027777D01*
X56792821Y-58027784D01*
X56887467Y-58191716D01*
X56976726Y-58290848D01*
X57014129Y-58332388D01*
X57167265Y-58443648D01*
X57167270Y-58443651D01*
X57340192Y-58520642D01*
X57340197Y-58520644D01*
X57525354Y-58560000D01*
X57525355Y-58560000D01*
X57714644Y-58560000D01*
X57714646Y-58560000D01*
X57899803Y-58520644D01*
X58072730Y-58443651D01*
X58225871Y-58332388D01*
X58352533Y-58191716D01*
X58402470Y-58105221D01*
X58453034Y-58057009D01*
X58521640Y-58043785D01*
X58586506Y-58069752D01*
X58617242Y-58105224D01*
X58667467Y-58192216D01*
X58755613Y-58290112D01*
X58794129Y-58332888D01*
X58947265Y-58444148D01*
X58947270Y-58444151D01*
X59120192Y-58521142D01*
X59120193Y-58521142D01*
X59120197Y-58521144D01*
X59170352Y-58531804D01*
X59231832Y-58564995D01*
X59262501Y-58614775D01*
X59283622Y-58679780D01*
X59283624Y-58679784D01*
X59378270Y-58843716D01*
X59462033Y-58936744D01*
X59504932Y-58984388D01*
X59658068Y-59095648D01*
X59658073Y-59095651D01*
X59831000Y-59172644D01*
X59906986Y-59188795D01*
X59968465Y-59221985D01*
X59999133Y-59271764D01*
X60018470Y-59331274D01*
X60018474Y-59331284D01*
X60113120Y-59495216D01*
X60198172Y-59589675D01*
X60239782Y-59635888D01*
X60392918Y-59747148D01*
X60392923Y-59747151D01*
X60565845Y-59824142D01*
X60565850Y-59824144D01*
X60751007Y-59863500D01*
X60751008Y-59863500D01*
X60940297Y-59863500D01*
X60940299Y-59863500D01*
X61002446Y-59850290D01*
X61072112Y-59855606D01*
X61127845Y-59897743D01*
X61151951Y-59963322D01*
X61136774Y-60031524D01*
X61120383Y-60054545D01*
X61117466Y-60057785D01*
X61022821Y-60221715D01*
X61022818Y-60221722D01*
X60964327Y-60401740D01*
X60964326Y-60401744D01*
X60944540Y-60590000D01*
X60964326Y-60778256D01*
X60964327Y-60778259D01*
X61022818Y-60958277D01*
X61022821Y-60958284D01*
X61086342Y-61068306D01*
X61102815Y-61136207D01*
X61079962Y-61202233D01*
X61025041Y-61245424D01*
X61008631Y-61250703D01*
X60949772Y-61265210D01*
X60799150Y-61344263D01*
X60713465Y-61420174D01*
X60678510Y-61451142D01*
X60671816Y-61457072D01*
X60575182Y-61597068D01*
X60514860Y-61756125D01*
X60514859Y-61756130D01*
X60494355Y-61925000D01*
X60514859Y-62093869D01*
X60514860Y-62093874D01*
X60575182Y-62252931D01*
X60608462Y-62301144D01*
X60671817Y-62392929D01*
X60735673Y-62449500D01*
X60799150Y-62505736D01*
X60949773Y-62584789D01*
X60949775Y-62584790D01*
X61114944Y-62625500D01*
X61285056Y-62625500D01*
X61450225Y-62584790D01*
X61529692Y-62543081D01*
X61600849Y-62505736D01*
X61600850Y-62505734D01*
X61600852Y-62505734D01*
X61728183Y-62392929D01*
X61824818Y-62252930D01*
X61885140Y-62093872D01*
X61905645Y-61925000D01*
X61885140Y-61756128D01*
X61847608Y-61657165D01*
X61842242Y-61587502D01*
X61875390Y-61525996D01*
X61936528Y-61492175D01*
X61938296Y-61491886D01*
X61938289Y-61491851D01*
X61944645Y-61490500D01*
X61944646Y-61490500D01*
X62129803Y-61451144D01*
X62302730Y-61374151D01*
X62455871Y-61262888D01*
X62501589Y-61212113D01*
X62561072Y-61175466D01*
X62630929Y-61176795D01*
X62685887Y-61212114D01*
X62785629Y-61322888D01*
X62938765Y-61434148D01*
X62938770Y-61434151D01*
X63111692Y-61511142D01*
X63111697Y-61511144D01*
X63296854Y-61550500D01*
X63296855Y-61550500D01*
X63486144Y-61550500D01*
X63486146Y-61550500D01*
X63671303Y-61511144D01*
X63752483Y-61475000D01*
X63812450Y-61448301D01*
X63881700Y-61439016D01*
X63913322Y-61448301D01*
X64057464Y-61512478D01*
X64057469Y-61512480D01*
X64242626Y-61551836D01*
X64242627Y-61551836D01*
X64431916Y-61551836D01*
X64431918Y-61551836D01*
X64617075Y-61512480D01*
X64790002Y-61435487D01*
X64866374Y-61380000D01*
X69924355Y-61380000D01*
X69944859Y-61548869D01*
X69944860Y-61548874D01*
X70005182Y-61707931D01*
X70038449Y-61756125D01*
X70101817Y-61847929D01*
X70154417Y-61894528D01*
X70229150Y-61960736D01*
X70379773Y-62039789D01*
X70379775Y-62039790D01*
X70544944Y-62080500D01*
X70715056Y-62080500D01*
X70880225Y-62039790D01*
X71030852Y-61960734D01*
X71105584Y-61894526D01*
X71168815Y-61864806D01*
X71238079Y-61873989D01*
X71291383Y-61919161D01*
X71295197Y-61925343D01*
X71342466Y-62007214D01*
X71342465Y-62007214D01*
X71469129Y-62147888D01*
X71622265Y-62259148D01*
X71622270Y-62259151D01*
X71795192Y-62336142D01*
X71795197Y-62336144D01*
X71980354Y-62375500D01*
X71980355Y-62375500D01*
X72169644Y-62375500D01*
X72169646Y-62375500D01*
X72354803Y-62336144D01*
X72527730Y-62259151D01*
X72680871Y-62147888D01*
X72807533Y-62007216D01*
X72902179Y-61843284D01*
X72960674Y-61663256D01*
X72980460Y-61475000D01*
X72960674Y-61286744D01*
X72902179Y-61106716D01*
X72807533Y-60942784D01*
X72680871Y-60802112D01*
X72676950Y-60799263D01*
X72527734Y-60690851D01*
X72527729Y-60690848D01*
X72354807Y-60613857D01*
X72354802Y-60613855D01*
X72190144Y-60578857D01*
X72169646Y-60574500D01*
X71980354Y-60574500D01*
X71959856Y-60578857D01*
X71795197Y-60613855D01*
X71795192Y-60613857D01*
X71622270Y-60690848D01*
X71622265Y-60690851D01*
X71469129Y-60802111D01*
X71469128Y-60802112D01*
X71355182Y-60928661D01*
X71295695Y-60965309D01*
X71225838Y-60963978D01*
X71167790Y-60925091D01*
X71160982Y-60916126D01*
X71158184Y-60912072D01*
X71030849Y-60799263D01*
X70880226Y-60720210D01*
X70715056Y-60679500D01*
X70544944Y-60679500D01*
X70379773Y-60720210D01*
X70229150Y-60799263D01*
X70101816Y-60912072D01*
X70005182Y-61052068D01*
X69944860Y-61211125D01*
X69944859Y-61211130D01*
X69924355Y-61380000D01*
X64866374Y-61380000D01*
X64943143Y-61324224D01*
X65069805Y-61183552D01*
X65164451Y-61019620D01*
X65222946Y-60839592D01*
X65242732Y-60651336D01*
X65222946Y-60463080D01*
X65164451Y-60283052D01*
X65069805Y-60119120D01*
X64943143Y-59978448D01*
X64943142Y-59978447D01*
X64790006Y-59867187D01*
X64790001Y-59867184D01*
X64617079Y-59790193D01*
X64617074Y-59790191D01*
X64471273Y-59759201D01*
X64431918Y-59750836D01*
X64242626Y-59750836D01*
X64210169Y-59757734D01*
X64057469Y-59790191D01*
X64057464Y-59790193D01*
X63916322Y-59853035D01*
X63847072Y-59862320D01*
X63815450Y-59853035D01*
X63671307Y-59788857D01*
X63671302Y-59788855D01*
X63492431Y-59750836D01*
X63486146Y-59749500D01*
X63296854Y-59749500D01*
X63290569Y-59750836D01*
X63111697Y-59788855D01*
X63111692Y-59788857D01*
X62938770Y-59865848D01*
X62938765Y-59865851D01*
X62785629Y-59977111D01*
X62785628Y-59977112D01*
X62739911Y-60027886D01*
X62680424Y-60064534D01*
X62610567Y-60063203D01*
X62555612Y-60027885D01*
X62455870Y-59917111D01*
X62302734Y-59805851D01*
X62302729Y-59805848D01*
X62129807Y-59728857D01*
X62129802Y-59728855D01*
X61981780Y-59697393D01*
X61944646Y-59689500D01*
X61755354Y-59689500D01*
X61693205Y-59702710D01*
X61623538Y-59697393D01*
X61567805Y-59655255D01*
X61543701Y-59589675D01*
X61558879Y-59521473D01*
X61575275Y-59498448D01*
X61578186Y-59495216D01*
X61672832Y-59331284D01*
X61731327Y-59151256D01*
X61734087Y-59125000D01*
X66619540Y-59125000D01*
X66639326Y-59313256D01*
X66639327Y-59313259D01*
X66697818Y-59493277D01*
X66697821Y-59493284D01*
X66792467Y-59657216D01*
X66912200Y-59790193D01*
X66919129Y-59797888D01*
X67072265Y-59909148D01*
X67072270Y-59909151D01*
X67245192Y-59986142D01*
X67245197Y-59986144D01*
X67430354Y-60025500D01*
X67430355Y-60025500D01*
X67619644Y-60025500D01*
X67619646Y-60025500D01*
X67804803Y-59986144D01*
X67977730Y-59909151D01*
X68130871Y-59797888D01*
X68257533Y-59657216D01*
X68352179Y-59493284D01*
X68410674Y-59313256D01*
X68430460Y-59125000D01*
X68425205Y-59075000D01*
X72019540Y-59075000D01*
X72039326Y-59263256D01*
X72039327Y-59263259D01*
X72097818Y-59443277D01*
X72097821Y-59443284D01*
X72192467Y-59607216D01*
X72301993Y-59728857D01*
X72319129Y-59747888D01*
X72472265Y-59859148D01*
X72472270Y-59859151D01*
X72645192Y-59936142D01*
X72645197Y-59936144D01*
X72830354Y-59975500D01*
X72830355Y-59975500D01*
X73019644Y-59975500D01*
X73019646Y-59975500D01*
X73204803Y-59936144D01*
X73377730Y-59859151D01*
X73530871Y-59747888D01*
X73657533Y-59607216D01*
X73752179Y-59443284D01*
X73810674Y-59263256D01*
X73830460Y-59075000D01*
X73810674Y-58886744D01*
X73752179Y-58706716D01*
X73657533Y-58542784D01*
X73530871Y-58402112D01*
X73527964Y-58400000D01*
X80019355Y-58400000D01*
X80039859Y-58568869D01*
X80039860Y-58568874D01*
X80100182Y-58727931D01*
X80162475Y-58818177D01*
X80196817Y-58867929D01*
X80302505Y-58961560D01*
X80324150Y-58980736D01*
X80474773Y-59059789D01*
X80474775Y-59059790D01*
X80639944Y-59100500D01*
X80810056Y-59100500D01*
X80975225Y-59059790D01*
X81054692Y-59018081D01*
X81125849Y-58980736D01*
X81125850Y-58980734D01*
X81125852Y-58980734D01*
X81253183Y-58867929D01*
X81349818Y-58727930D01*
X81410140Y-58568872D01*
X81430645Y-58400000D01*
X81410140Y-58231128D01*
X81349818Y-58072070D01*
X81348955Y-58070820D01*
X81260879Y-57943221D01*
X81253183Y-57932071D01*
X81125852Y-57819266D01*
X81125849Y-57819263D01*
X80975226Y-57740210D01*
X80810056Y-57699500D01*
X80639944Y-57699500D01*
X80474773Y-57740210D01*
X80324150Y-57819263D01*
X80196816Y-57932072D01*
X80100182Y-58072068D01*
X80039860Y-58231125D01*
X80039859Y-58231130D01*
X80019355Y-58400000D01*
X73527964Y-58400000D01*
X73377734Y-58290851D01*
X73377729Y-58290848D01*
X73204807Y-58213857D01*
X73204802Y-58213855D01*
X73040116Y-58178851D01*
X73019646Y-58174500D01*
X72830354Y-58174500D01*
X72809884Y-58178851D01*
X72645197Y-58213855D01*
X72645192Y-58213857D01*
X72472270Y-58290848D01*
X72472265Y-58290851D01*
X72319129Y-58402111D01*
X72192466Y-58542785D01*
X72097821Y-58706715D01*
X72097818Y-58706722D01*
X72045440Y-58867927D01*
X72039326Y-58886744D01*
X72019540Y-59075000D01*
X68425205Y-59075000D01*
X68410674Y-58936744D01*
X68352179Y-58756716D01*
X68257533Y-58592784D01*
X68130871Y-58452112D01*
X68119914Y-58444151D01*
X67977734Y-58340851D01*
X67977729Y-58340848D01*
X67804807Y-58263857D01*
X67804802Y-58263855D01*
X67650838Y-58231130D01*
X67619646Y-58224500D01*
X67430354Y-58224500D01*
X67399186Y-58231125D01*
X67245197Y-58263855D01*
X67245192Y-58263857D01*
X67072270Y-58340848D01*
X67072265Y-58340851D01*
X66919129Y-58452111D01*
X66792466Y-58592785D01*
X66697821Y-58756715D01*
X66697818Y-58756722D01*
X66661686Y-58867927D01*
X66639326Y-58936744D01*
X66619540Y-59125000D01*
X61734087Y-59125000D01*
X61751113Y-58963000D01*
X61731327Y-58774744D01*
X61672832Y-58594716D01*
X61578186Y-58430784D01*
X61451524Y-58290112D01*
X61451523Y-58290111D01*
X61298387Y-58178851D01*
X61298382Y-58178848D01*
X61125460Y-58101857D01*
X61125456Y-58101856D01*
X61049469Y-58085704D01*
X60987988Y-58052511D01*
X60957320Y-58002732D01*
X60937984Y-57943221D01*
X60937981Y-57943215D01*
X60931547Y-57932071D01*
X60843336Y-57779284D01*
X60716674Y-57638612D01*
X60716673Y-57638611D01*
X60563537Y-57527351D01*
X60563532Y-57527348D01*
X60390610Y-57450357D01*
X60390608Y-57450356D01*
X60340449Y-57439694D01*
X60278968Y-57406500D01*
X60248301Y-57356722D01*
X60227181Y-57291721D01*
X60227178Y-57291715D01*
X60132533Y-57127784D01*
X60005871Y-56987112D01*
X60005183Y-56986612D01*
X59852734Y-56875851D01*
X59852729Y-56875848D01*
X59839594Y-56870000D01*
X72104355Y-56870000D01*
X72124859Y-57038869D01*
X72124860Y-57038874D01*
X72185182Y-57197931D01*
X72238873Y-57275714D01*
X72281817Y-57337929D01*
X72317937Y-57369928D01*
X72409150Y-57450736D01*
X72527125Y-57512654D01*
X72559775Y-57529790D01*
X72724944Y-57570500D01*
X72895056Y-57570500D01*
X73060225Y-57529790D01*
X73139692Y-57488081D01*
X73210849Y-57450736D01*
X73210850Y-57450734D01*
X73210852Y-57450734D01*
X73338183Y-57337929D01*
X73434818Y-57197930D01*
X73495140Y-57038872D01*
X73515645Y-56870000D01*
X73495140Y-56701128D01*
X73434818Y-56542070D01*
X73429792Y-56534789D01*
X73377483Y-56459007D01*
X73338183Y-56402071D01*
X73210852Y-56289266D01*
X73210849Y-56289263D01*
X73060226Y-56210210D01*
X72895056Y-56169500D01*
X72724944Y-56169500D01*
X72559773Y-56210210D01*
X72409150Y-56289263D01*
X72281816Y-56402072D01*
X72185182Y-56542068D01*
X72124860Y-56701125D01*
X72124859Y-56701130D01*
X72104355Y-56870000D01*
X59839594Y-56870000D01*
X59679807Y-56798857D01*
X59679802Y-56798855D01*
X59534001Y-56767865D01*
X59494646Y-56759500D01*
X59305354Y-56759500D01*
X59272897Y-56766398D01*
X59120197Y-56798855D01*
X59120192Y-56798857D01*
X58947270Y-56875848D01*
X58947265Y-56875851D01*
X58794129Y-56987111D01*
X58667465Y-57127785D01*
X58617531Y-57214275D01*
X58566964Y-57262491D01*
X58498357Y-57275714D01*
X58433492Y-57249746D01*
X58402757Y-57214274D01*
X58352536Y-57127288D01*
X58352534Y-57127285D01*
X58225870Y-56986611D01*
X58072734Y-56875351D01*
X58072729Y-56875348D01*
X57899807Y-56798357D01*
X57899802Y-56798355D01*
X57754001Y-56767365D01*
X57714646Y-56759000D01*
X57525354Y-56759000D01*
X57492897Y-56765898D01*
X57340197Y-56798355D01*
X57340192Y-56798357D01*
X57167270Y-56875348D01*
X57167265Y-56875351D01*
X57014129Y-56986611D01*
X56887466Y-57127285D01*
X56792821Y-57291215D01*
X56792818Y-57291222D01*
X56740990Y-57450734D01*
X56734326Y-57471244D01*
X56714540Y-57659500D01*
X55500000Y-57659500D01*
X55500000Y-53775000D01*
X57919355Y-53775000D01*
X57939859Y-53943869D01*
X57939860Y-53943874D01*
X58000182Y-54102931D01*
X58042914Y-54164838D01*
X58096817Y-54242929D01*
X58197599Y-54332214D01*
X58224150Y-54355736D01*
X58374773Y-54434789D01*
X58374775Y-54434790D01*
X58539944Y-54475500D01*
X58710056Y-54475500D01*
X58875225Y-54434790D01*
X58954692Y-54393081D01*
X59025849Y-54355736D01*
X59025850Y-54355734D01*
X59025852Y-54355734D01*
X59153183Y-54242929D01*
X59249818Y-54102930D01*
X59262734Y-54068873D01*
X60777736Y-54068873D01*
X60797522Y-54257129D01*
X60797523Y-54257132D01*
X60856014Y-54437150D01*
X60856017Y-54437157D01*
X60950663Y-54601089D01*
X61077325Y-54741761D01*
X61230461Y-54853021D01*
X61230466Y-54853024D01*
X61403388Y-54930015D01*
X61403393Y-54930017D01*
X61588550Y-54969373D01*
X61588551Y-54969373D01*
X61777840Y-54969373D01*
X61777842Y-54969373D01*
X61962999Y-54930017D01*
X62135926Y-54853024D01*
X62289067Y-54741761D01*
X62415729Y-54601089D01*
X62510375Y-54437157D01*
X62568870Y-54257129D01*
X62578569Y-54164836D01*
X62605152Y-54100223D01*
X62635939Y-54073803D01*
X62635772Y-54073574D01*
X62638608Y-54071513D01*
X62639901Y-54070404D01*
X62641013Y-54069761D01*
X62641030Y-54069754D01*
X62794171Y-53958491D01*
X62920833Y-53817819D01*
X62931121Y-53800000D01*
X66432540Y-53800000D01*
X66452326Y-53988256D01*
X66452327Y-53988259D01*
X66510818Y-54168277D01*
X66510821Y-54168284D01*
X66605467Y-54332216D01*
X66699950Y-54437150D01*
X66732129Y-54472888D01*
X66885265Y-54584148D01*
X66885270Y-54584151D01*
X67058192Y-54661142D01*
X67058197Y-54661144D01*
X67243354Y-54700500D01*
X67243355Y-54700500D01*
X67432644Y-54700500D01*
X67432646Y-54700500D01*
X67617803Y-54661144D01*
X67790730Y-54584151D01*
X67943871Y-54472888D01*
X68070533Y-54332216D01*
X68165179Y-54168284D01*
X68195002Y-54076500D01*
X74334540Y-54076500D01*
X74354326Y-54264756D01*
X74354327Y-54264759D01*
X74412818Y-54444777D01*
X74412821Y-54444784D01*
X74507467Y-54608716D01*
X74554672Y-54661142D01*
X74634129Y-54749388D01*
X74787265Y-54860648D01*
X74787270Y-54860651D01*
X74960192Y-54937642D01*
X74960197Y-54937644D01*
X75145354Y-54977000D01*
X75145355Y-54977000D01*
X75326237Y-54977000D01*
X75393276Y-54996685D01*
X75439031Y-55049489D01*
X75448975Y-55118647D01*
X75419950Y-55182203D01*
X75380413Y-55209814D01*
X75381416Y-55211724D01*
X75224150Y-55294263D01*
X75096816Y-55407072D01*
X75000182Y-55547068D01*
X74939860Y-55706125D01*
X74939859Y-55706130D01*
X74919355Y-55875000D01*
X74939859Y-56043869D01*
X74939860Y-56043874D01*
X75000182Y-56202931D01*
X75059774Y-56289263D01*
X75096817Y-56342929D01*
X75150811Y-56390763D01*
X75224150Y-56455736D01*
X75353220Y-56523477D01*
X75374775Y-56534790D01*
X75539944Y-56575500D01*
X75632481Y-56575500D01*
X75699520Y-56595185D01*
X75745275Y-56647989D01*
X75755219Y-56717147D01*
X75726194Y-56780703D01*
X75705366Y-56799818D01*
X75672663Y-56823577D01*
X75546000Y-56964251D01*
X75451355Y-57128181D01*
X75451352Y-57128188D01*
X75392861Y-57308206D01*
X75392860Y-57308210D01*
X75373074Y-57496466D01*
X75392860Y-57684722D01*
X75392861Y-57684725D01*
X75451352Y-57864743D01*
X75451355Y-57864750D01*
X75546001Y-58028682D01*
X75614920Y-58105224D01*
X75672663Y-58169354D01*
X75825799Y-58280614D01*
X75825804Y-58280617D01*
X75998726Y-58357608D01*
X75998731Y-58357610D01*
X76183888Y-58396966D01*
X76183889Y-58396966D01*
X76373178Y-58396966D01*
X76373180Y-58396966D01*
X76558337Y-58357610D01*
X76731264Y-58280617D01*
X76884405Y-58169354D01*
X77011067Y-58028682D01*
X77105713Y-57864750D01*
X77164208Y-57684722D01*
X77183994Y-57496466D01*
X77183281Y-57489681D01*
X77195851Y-57420951D01*
X77243584Y-57369928D01*
X77306602Y-57352721D01*
X77492644Y-57352721D01*
X77492646Y-57352721D01*
X77677803Y-57313365D01*
X77850730Y-57236372D01*
X78003871Y-57125109D01*
X78130533Y-56984437D01*
X78225179Y-56820505D01*
X78283674Y-56640477D01*
X78303460Y-56452221D01*
X78283674Y-56263965D01*
X78225179Y-56083937D01*
X78222906Y-56080000D01*
X78714540Y-56080000D01*
X78734326Y-56268256D01*
X78734327Y-56268259D01*
X78792818Y-56448277D01*
X78792821Y-56448284D01*
X78887467Y-56612216D01*
X78967524Y-56701128D01*
X79014129Y-56752888D01*
X79167265Y-56864148D01*
X79167270Y-56864151D01*
X79340192Y-56941142D01*
X79340197Y-56941144D01*
X79525354Y-56980500D01*
X79525355Y-56980500D01*
X79714644Y-56980500D01*
X79714646Y-56980500D01*
X79899803Y-56941144D01*
X80072730Y-56864151D01*
X80225871Y-56752888D01*
X80352533Y-56612216D01*
X80447179Y-56448284D01*
X80505674Y-56268256D01*
X80525460Y-56080000D01*
X80505674Y-55891744D01*
X80447179Y-55711716D01*
X80352533Y-55547784D01*
X80225871Y-55407112D01*
X80225815Y-55407071D01*
X80072734Y-55295851D01*
X80072729Y-55295848D01*
X79899807Y-55218857D01*
X79899802Y-55218855D01*
X79754001Y-55187865D01*
X79714646Y-55179500D01*
X79525354Y-55179500D01*
X79492897Y-55186398D01*
X79340197Y-55218855D01*
X79340192Y-55218857D01*
X79167270Y-55295848D01*
X79167265Y-55295851D01*
X79014129Y-55407111D01*
X78887466Y-55547785D01*
X78792821Y-55711715D01*
X78792818Y-55711722D01*
X78739766Y-55875000D01*
X78734326Y-55891744D01*
X78714540Y-56080000D01*
X78222906Y-56080000D01*
X78130533Y-55920005D01*
X78003871Y-55779333D01*
X78003870Y-55779332D01*
X77850734Y-55668072D01*
X77850729Y-55668069D01*
X77677807Y-55591078D01*
X77677802Y-55591076D01*
X77532001Y-55560086D01*
X77492646Y-55551721D01*
X77303354Y-55551721D01*
X77270897Y-55558619D01*
X77118197Y-55591076D01*
X77118192Y-55591078D01*
X76945270Y-55668069D01*
X76945265Y-55668072D01*
X76792129Y-55779332D01*
X76665466Y-55920006D01*
X76570821Y-56083936D01*
X76570818Y-56083943D01*
X76532157Y-56202931D01*
X76512326Y-56263965D01*
X76497811Y-56402071D01*
X76492540Y-56452222D01*
X76493253Y-56459007D01*
X76480682Y-56527737D01*
X76432949Y-56578760D01*
X76369932Y-56595966D01*
X76194524Y-56595966D01*
X76127485Y-56576281D01*
X76081730Y-56523477D01*
X76071786Y-56454319D01*
X76100811Y-56390763D01*
X76112291Y-56379155D01*
X76153183Y-56342929D01*
X76249818Y-56202930D01*
X76310140Y-56043872D01*
X76330645Y-55875000D01*
X76310140Y-55706128D01*
X76249818Y-55547070D01*
X76153183Y-55407071D01*
X76025852Y-55294266D01*
X76025849Y-55294263D01*
X75875226Y-55215210D01*
X75710056Y-55174500D01*
X75571190Y-55174500D01*
X75504151Y-55154815D01*
X75458396Y-55102011D01*
X75448452Y-55032853D01*
X75477477Y-54969297D01*
X75520754Y-54937221D01*
X75603992Y-54900160D01*
X75692730Y-54860651D01*
X75845871Y-54749388D01*
X75972533Y-54608716D01*
X76067179Y-54444784D01*
X76125674Y-54264756D01*
X76145460Y-54076500D01*
X76125674Y-53888244D01*
X76067179Y-53708216D01*
X75972533Y-53544284D01*
X75845871Y-53403612D01*
X75845870Y-53403611D01*
X75692734Y-53292351D01*
X75692729Y-53292348D01*
X75519807Y-53215357D01*
X75519802Y-53215355D01*
X75374001Y-53184365D01*
X75334646Y-53176000D01*
X75145354Y-53176000D01*
X75112897Y-53182898D01*
X74960197Y-53215355D01*
X74960192Y-53215357D01*
X74787270Y-53292348D01*
X74787265Y-53292351D01*
X74634129Y-53403611D01*
X74507466Y-53544285D01*
X74412821Y-53708215D01*
X74412818Y-53708222D01*
X74356805Y-53880613D01*
X74354326Y-53888244D01*
X74334540Y-54076500D01*
X68195002Y-54076500D01*
X68223674Y-53988256D01*
X68243460Y-53800000D01*
X68223674Y-53611744D01*
X68165179Y-53431716D01*
X68070533Y-53267784D01*
X67943871Y-53127112D01*
X67943870Y-53127111D01*
X67790734Y-53015851D01*
X67790729Y-53015848D01*
X67617807Y-52938857D01*
X67617802Y-52938855D01*
X67472001Y-52907865D01*
X67432646Y-52899500D01*
X67243354Y-52899500D01*
X67210897Y-52906398D01*
X67058197Y-52938855D01*
X67058192Y-52938857D01*
X66885270Y-53015848D01*
X66885265Y-53015851D01*
X66732129Y-53127111D01*
X66605466Y-53267785D01*
X66510821Y-53431715D01*
X66510818Y-53431722D01*
X66454150Y-53606130D01*
X66452326Y-53611744D01*
X66432540Y-53800000D01*
X62931121Y-53800000D01*
X63015479Y-53653887D01*
X63041954Y-53572404D01*
X63081391Y-53514729D01*
X63145749Y-53487530D01*
X63210320Y-53497442D01*
X63261231Y-53520110D01*
X63446388Y-53559466D01*
X63446389Y-53559466D01*
X63635678Y-53559466D01*
X63635680Y-53559466D01*
X63820837Y-53520110D01*
X63993764Y-53443117D01*
X64146905Y-53331854D01*
X64273567Y-53191182D01*
X64318994Y-53112499D01*
X64369561Y-53064285D01*
X64426381Y-53050500D01*
X64444644Y-53050500D01*
X64444646Y-53050500D01*
X64629803Y-53011144D01*
X64723639Y-52969364D01*
X64792888Y-52960080D01*
X64856165Y-52989708D01*
X64866226Y-52999673D01*
X64887124Y-53022884D01*
X64887130Y-53022889D01*
X65040265Y-53134148D01*
X65040270Y-53134151D01*
X65213192Y-53211142D01*
X65213197Y-53211144D01*
X65398354Y-53250500D01*
X65398355Y-53250500D01*
X65587644Y-53250500D01*
X65587646Y-53250500D01*
X65772803Y-53211144D01*
X65945730Y-53134151D01*
X66098871Y-53022888D01*
X66225533Y-52882216D01*
X66320179Y-52718284D01*
X66378674Y-52538256D01*
X66398460Y-52350000D01*
X66378674Y-52161744D01*
X66320179Y-51981716D01*
X66225533Y-51817784D01*
X66098871Y-51677112D01*
X66034027Y-51630000D01*
X69854540Y-51630000D01*
X69874326Y-51818256D01*
X69874327Y-51818259D01*
X69932818Y-51998277D01*
X69932821Y-51998284D01*
X70027467Y-52162216D01*
X70081360Y-52222070D01*
X70154129Y-52302888D01*
X70307265Y-52414148D01*
X70307270Y-52414151D01*
X70480192Y-52491142D01*
X70480197Y-52491144D01*
X70665354Y-52530500D01*
X70665355Y-52530500D01*
X70854644Y-52530500D01*
X70854646Y-52530500D01*
X71039803Y-52491144D01*
X71085698Y-52470710D01*
X71097497Y-52465457D01*
X71166747Y-52456172D01*
X71230023Y-52485800D01*
X71267237Y-52544934D01*
X71271029Y-52563789D01*
X71289859Y-52718868D01*
X71289860Y-52718874D01*
X71350182Y-52877931D01*
X71387624Y-52932174D01*
X71446817Y-53017929D01*
X71510673Y-53074500D01*
X71574150Y-53130736D01*
X71724773Y-53209789D01*
X71724775Y-53209790D01*
X71889944Y-53250500D01*
X72060056Y-53250500D01*
X72225225Y-53209790D01*
X72304692Y-53168081D01*
X72375849Y-53130736D01*
X72375850Y-53130734D01*
X72375852Y-53130734D01*
X72503183Y-53017929D01*
X72599818Y-52877930D01*
X72660140Y-52718872D01*
X72680645Y-52550000D01*
X72660140Y-52381128D01*
X72656740Y-52372164D01*
X72599817Y-52222068D01*
X72556629Y-52159500D01*
X72503183Y-52082071D01*
X72375852Y-51969266D01*
X72375849Y-51969263D01*
X72225226Y-51890210D01*
X72060056Y-51849500D01*
X71889944Y-51849500D01*
X71889942Y-51849500D01*
X71807258Y-51869879D01*
X71737456Y-51866809D01*
X71680394Y-51826489D01*
X71654189Y-51761719D01*
X71654262Y-51736535D01*
X71665460Y-51630000D01*
X71645674Y-51441744D01*
X71587179Y-51261716D01*
X71492533Y-51097784D01*
X71365871Y-50957112D01*
X71365870Y-50957111D01*
X71212734Y-50845851D01*
X71212729Y-50845848D01*
X71039807Y-50768857D01*
X71039802Y-50768855D01*
X70894001Y-50737865D01*
X70854646Y-50729500D01*
X70665354Y-50729500D01*
X70632897Y-50736398D01*
X70480197Y-50768855D01*
X70480192Y-50768857D01*
X70307270Y-50845848D01*
X70307265Y-50845851D01*
X70154129Y-50957111D01*
X70027466Y-51097785D01*
X69932824Y-51261711D01*
X69932818Y-51261722D01*
X69898985Y-51365851D01*
X69874326Y-51441744D01*
X69854540Y-51630000D01*
X66034027Y-51630000D01*
X65945734Y-51565851D01*
X65945729Y-51565848D01*
X65772807Y-51488857D01*
X65772802Y-51488855D01*
X65627001Y-51457865D01*
X65587646Y-51449500D01*
X65398354Y-51449500D01*
X65365897Y-51456398D01*
X65213197Y-51488855D01*
X65213196Y-51488855D01*
X65119359Y-51530635D01*
X65050109Y-51539919D01*
X64986833Y-51510290D01*
X64976774Y-51500327D01*
X64955871Y-51477112D01*
X64955869Y-51477110D01*
X64802734Y-51365851D01*
X64802729Y-51365848D01*
X64629807Y-51288857D01*
X64629802Y-51288855D01*
X64450230Y-51250687D01*
X64444646Y-51249500D01*
X64255354Y-51249500D01*
X64249770Y-51250687D01*
X64070197Y-51288855D01*
X64070192Y-51288857D01*
X63897271Y-51365848D01*
X63864958Y-51389325D01*
X63799151Y-51412804D01*
X63731097Y-51396978D01*
X63682403Y-51346872D01*
X63668528Y-51278394D01*
X63674140Y-51250692D01*
X63710674Y-51138256D01*
X63730460Y-50950000D01*
X63710674Y-50761744D01*
X63652179Y-50581716D01*
X63557533Y-50417784D01*
X63430871Y-50277112D01*
X63430870Y-50277111D01*
X63277734Y-50165851D01*
X63277729Y-50165848D01*
X63104807Y-50088857D01*
X63104802Y-50088855D01*
X62959001Y-50057865D01*
X62919646Y-50049500D01*
X62730354Y-50049500D01*
X62697897Y-50056398D01*
X62545197Y-50088855D01*
X62545192Y-50088857D01*
X62372270Y-50165848D01*
X62372265Y-50165851D01*
X62219129Y-50277111D01*
X62092466Y-50417785D01*
X61997821Y-50581715D01*
X61997818Y-50581722D01*
X61939327Y-50761740D01*
X61939326Y-50761744D01*
X61919540Y-50950000D01*
X61939326Y-51138256D01*
X61939327Y-51138259D01*
X61997818Y-51318277D01*
X61997821Y-51318284D01*
X62092467Y-51482216D01*
X62167770Y-51565848D01*
X62219129Y-51622888D01*
X62372265Y-51734148D01*
X62372270Y-51734151D01*
X62545192Y-51811142D01*
X62545197Y-51811144D01*
X62730354Y-51850500D01*
X62730355Y-51850500D01*
X62778729Y-51850500D01*
X62845768Y-51870185D01*
X62891523Y-51922989D01*
X62901467Y-51992147D01*
X62872442Y-52055703D01*
X62870879Y-52057472D01*
X62808500Y-52126751D01*
X62713855Y-52290681D01*
X62713853Y-52290685D01*
X62687379Y-52372164D01*
X62647941Y-52429839D01*
X62583582Y-52457037D01*
X62519013Y-52447125D01*
X62468102Y-52424458D01*
X62322301Y-52393468D01*
X62282946Y-52385103D01*
X62093654Y-52385103D01*
X62061197Y-52392001D01*
X61908497Y-52424458D01*
X61908492Y-52424460D01*
X61735570Y-52501451D01*
X61735565Y-52501454D01*
X61582429Y-52612714D01*
X61455766Y-52753388D01*
X61361121Y-52917318D01*
X61361118Y-52917325D01*
X61310049Y-53074500D01*
X61302626Y-53097347D01*
X61292926Y-53189639D01*
X61266341Y-53254254D01*
X61235556Y-53280673D01*
X61235723Y-53280902D01*
X61232903Y-53282950D01*
X61231606Y-53284064D01*
X61230460Y-53284725D01*
X61077325Y-53395984D01*
X60950662Y-53536658D01*
X60856017Y-53700588D01*
X60856014Y-53700595D01*
X60797523Y-53880613D01*
X60797522Y-53880617D01*
X60777736Y-54068873D01*
X59262734Y-54068873D01*
X59310140Y-53943872D01*
X59330645Y-53775000D01*
X59310140Y-53606128D01*
X59249818Y-53447070D01*
X59247089Y-53443117D01*
X59197734Y-53371614D01*
X59153183Y-53307071D01*
X59049657Y-53215355D01*
X59025849Y-53194263D01*
X58875226Y-53115210D01*
X58710056Y-53074500D01*
X58539944Y-53074500D01*
X58374773Y-53115210D01*
X58224150Y-53194263D01*
X58096816Y-53307072D01*
X58000182Y-53447068D01*
X57939860Y-53606125D01*
X57939859Y-53606130D01*
X57919355Y-53775000D01*
X55500000Y-53775000D01*
X55500000Y-51124000D01*
X55519685Y-51056961D01*
X55572489Y-51011206D01*
X55624000Y-51000000D01*
X58249999Y-51000000D01*
X58250000Y-51000000D01*
X58238469Y-48590000D01*
X60894355Y-48590000D01*
X60914859Y-48758869D01*
X60914860Y-48758874D01*
X60975182Y-48917931D01*
X61018533Y-48980734D01*
X61071817Y-49057929D01*
X61177505Y-49151560D01*
X61199150Y-49170736D01*
X61349773Y-49249789D01*
X61349775Y-49249790D01*
X61514944Y-49290500D01*
X61685056Y-49290500D01*
X61850225Y-49249790D01*
X61929692Y-49208081D01*
X62000849Y-49170736D01*
X62000850Y-49170734D01*
X62000852Y-49170734D01*
X62128183Y-49057929D01*
X62224818Y-48917930D01*
X62285140Y-48758872D01*
X62305645Y-48590000D01*
X62285140Y-48421128D01*
X62284240Y-48418756D01*
X62277127Y-48400000D01*
X73144355Y-48400000D01*
X73164859Y-48568869D01*
X73164860Y-48568874D01*
X73225182Y-48727931D01*
X73276206Y-48801851D01*
X73321817Y-48867929D01*
X73427505Y-48961560D01*
X73449150Y-48980736D01*
X73596225Y-49057927D01*
X73599775Y-49059790D01*
X73764944Y-49100500D01*
X73935056Y-49100500D01*
X74100225Y-49059790D01*
X74186229Y-49014651D01*
X74250849Y-48980736D01*
X74250850Y-48980734D01*
X74250852Y-48980734D01*
X74378183Y-48867929D01*
X74409611Y-48822396D01*
X74463892Y-48778408D01*
X74533340Y-48770748D01*
X74595905Y-48801851D01*
X74631723Y-48861841D01*
X74634982Y-48905790D01*
X74634540Y-48910000D01*
X74654326Y-49098256D01*
X74654327Y-49098259D01*
X74712818Y-49278277D01*
X74712821Y-49278284D01*
X74807467Y-49442216D01*
X74921135Y-49568457D01*
X74934129Y-49582888D01*
X75087265Y-49694148D01*
X75087270Y-49694151D01*
X75260192Y-49771142D01*
X75260197Y-49771144D01*
X75445354Y-49810500D01*
X75445355Y-49810500D01*
X75634644Y-49810500D01*
X75634646Y-49810500D01*
X75819803Y-49771144D01*
X75992730Y-49694151D01*
X76040988Y-49659089D01*
X76106790Y-49635610D01*
X76174844Y-49651434D01*
X76223540Y-49701539D01*
X76237416Y-49770017D01*
X76218487Y-49820869D01*
X76220716Y-49822156D01*
X76122821Y-49991715D01*
X76122818Y-49991722D01*
X76064327Y-50171740D01*
X76064326Y-50171744D01*
X76044540Y-50360000D01*
X76064326Y-50548256D01*
X76064327Y-50548259D01*
X76122818Y-50728277D01*
X76122821Y-50728284D01*
X76217467Y-50892216D01*
X76344129Y-51032888D01*
X76497265Y-51144148D01*
X76497270Y-51144151D01*
X76670192Y-51221142D01*
X76670197Y-51221144D01*
X76855354Y-51260500D01*
X76855355Y-51260500D01*
X77044644Y-51260500D01*
X77044646Y-51260500D01*
X77229803Y-51221144D01*
X77367133Y-51160000D01*
X78164540Y-51160000D01*
X78184326Y-51348256D01*
X78184327Y-51348259D01*
X78242818Y-51528277D01*
X78242821Y-51528284D01*
X78337467Y-51692216D01*
X78444549Y-51811142D01*
X78464129Y-51832888D01*
X78617265Y-51944148D01*
X78617270Y-51944151D01*
X78790192Y-52021142D01*
X78790197Y-52021144D01*
X78975354Y-52060500D01*
X78975355Y-52060500D01*
X79164644Y-52060500D01*
X79164646Y-52060500D01*
X79349803Y-52021144D01*
X79522730Y-51944151D01*
X79675871Y-51832888D01*
X79802533Y-51692216D01*
X79897179Y-51528284D01*
X79955674Y-51348256D01*
X79975460Y-51160000D01*
X79955674Y-50971744D01*
X79897179Y-50791716D01*
X79802533Y-50627784D01*
X79675871Y-50487112D01*
X79675870Y-50487111D01*
X79522734Y-50375851D01*
X79522729Y-50375848D01*
X79349807Y-50298857D01*
X79349802Y-50298855D01*
X79204001Y-50267865D01*
X79164646Y-50259500D01*
X78975354Y-50259500D01*
X78942897Y-50266398D01*
X78790197Y-50298855D01*
X78790192Y-50298857D01*
X78617270Y-50375848D01*
X78617265Y-50375851D01*
X78464129Y-50487111D01*
X78337466Y-50627785D01*
X78242821Y-50791715D01*
X78242818Y-50791722D01*
X78189080Y-50957112D01*
X78184326Y-50971744D01*
X78164540Y-51160000D01*
X77367133Y-51160000D01*
X77402730Y-51144151D01*
X77555871Y-51032888D01*
X77682533Y-50892216D01*
X77777179Y-50728284D01*
X77835674Y-50548256D01*
X77855460Y-50360000D01*
X77835674Y-50171744D01*
X77777179Y-49991716D01*
X77682533Y-49827784D01*
X77555871Y-49687112D01*
X77555870Y-49687111D01*
X77402734Y-49575851D01*
X77402729Y-49575848D01*
X77229807Y-49498857D01*
X77229802Y-49498855D01*
X77084001Y-49467865D01*
X77044646Y-49459500D01*
X76855354Y-49459500D01*
X76822897Y-49466398D01*
X76670197Y-49498855D01*
X76670192Y-49498857D01*
X76497270Y-49575848D01*
X76497265Y-49575851D01*
X76449013Y-49610909D01*
X76383207Y-49634389D01*
X76315153Y-49618563D01*
X76266458Y-49568457D01*
X76252583Y-49499979D01*
X76271547Y-49449150D01*
X76269284Y-49447844D01*
X76293071Y-49406642D01*
X76367179Y-49278284D01*
X76425674Y-49098256D01*
X76445460Y-48910000D01*
X76425674Y-48721744D01*
X76367179Y-48541716D01*
X76272533Y-48377784D01*
X76145871Y-48237112D01*
X76137639Y-48231131D01*
X75992734Y-48125851D01*
X75992729Y-48125848D01*
X75819807Y-48048857D01*
X75819802Y-48048855D01*
X75642380Y-48011144D01*
X75634646Y-48009500D01*
X75445354Y-48009500D01*
X75437620Y-48011144D01*
X75260197Y-48048855D01*
X75260192Y-48048857D01*
X75087270Y-48125848D01*
X75087265Y-48125851D01*
X74934129Y-48237111D01*
X74807467Y-48377783D01*
X74782886Y-48420359D01*
X74732318Y-48468574D01*
X74663711Y-48481796D01*
X74598846Y-48455828D01*
X74558319Y-48398913D01*
X74552403Y-48373304D01*
X74538896Y-48262068D01*
X74535140Y-48231128D01*
X74474818Y-48072070D01*
X74458794Y-48048856D01*
X74440476Y-48022318D01*
X74378183Y-47932071D01*
X74283316Y-47848026D01*
X74250849Y-47819263D01*
X74100226Y-47740210D01*
X73935056Y-47699500D01*
X73764944Y-47699500D01*
X73599773Y-47740210D01*
X73449150Y-47819263D01*
X73321816Y-47932072D01*
X73225182Y-48072068D01*
X73164860Y-48231125D01*
X73164859Y-48231130D01*
X73144355Y-48400000D01*
X62277127Y-48400000D01*
X62224817Y-48262068D01*
X62130792Y-48125851D01*
X62128183Y-48122071D01*
X62002970Y-48011142D01*
X62000849Y-48009263D01*
X61850226Y-47930210D01*
X61685056Y-47889500D01*
X61514944Y-47889500D01*
X61349773Y-47930210D01*
X61199150Y-48009263D01*
X61071816Y-48122072D01*
X60975182Y-48262068D01*
X60914860Y-48421125D01*
X60914859Y-48421130D01*
X60894355Y-48590000D01*
X58238469Y-48590000D01*
X58231579Y-47150000D01*
X61969540Y-47150000D01*
X61989326Y-47338256D01*
X61989327Y-47338259D01*
X62047818Y-47518277D01*
X62047821Y-47518284D01*
X62142467Y-47682216D01*
X62265865Y-47819263D01*
X62269129Y-47822888D01*
X62422265Y-47934148D01*
X62422270Y-47934151D01*
X62595192Y-48011142D01*
X62595197Y-48011144D01*
X62780354Y-48050500D01*
X62780355Y-48050500D01*
X62969644Y-48050500D01*
X62969646Y-48050500D01*
X63154803Y-48011144D01*
X63327730Y-47934151D01*
X63480871Y-47822888D01*
X63607533Y-47682216D01*
X63702179Y-47518284D01*
X63760674Y-47338256D01*
X63780460Y-47150000D01*
X63760674Y-46961744D01*
X63702179Y-46781716D01*
X63607533Y-46617784D01*
X63480871Y-46477112D01*
X63480870Y-46477111D01*
X63327734Y-46365851D01*
X63327729Y-46365848D01*
X63154807Y-46288857D01*
X63154802Y-46288855D01*
X63009001Y-46257865D01*
X62969646Y-46249500D01*
X62780354Y-46249500D01*
X62747897Y-46256398D01*
X62595197Y-46288855D01*
X62595192Y-46288857D01*
X62422270Y-46365848D01*
X62422265Y-46365851D01*
X62269129Y-46477111D01*
X62142466Y-46617785D01*
X62047821Y-46781715D01*
X62047818Y-46781722D01*
X61992422Y-46952216D01*
X61989326Y-46961744D01*
X61969540Y-47150000D01*
X58231579Y-47150000D01*
X58217942Y-44300000D01*
X62444540Y-44300000D01*
X62464326Y-44488256D01*
X62464327Y-44488259D01*
X62522818Y-44668277D01*
X62522821Y-44668284D01*
X62617467Y-44832216D01*
X62707243Y-44931922D01*
X62744129Y-44972888D01*
X62897265Y-45084148D01*
X62897270Y-45084151D01*
X63070192Y-45161142D01*
X63070197Y-45161144D01*
X63255354Y-45200500D01*
X63255355Y-45200500D01*
X63444644Y-45200500D01*
X63444646Y-45200500D01*
X63629803Y-45161144D01*
X63802730Y-45084151D01*
X63955871Y-44972888D01*
X63984133Y-44941500D01*
X74544540Y-44941500D01*
X74564326Y-45129756D01*
X74564327Y-45129759D01*
X74622818Y-45309777D01*
X74622821Y-45309784D01*
X74717467Y-45473716D01*
X74806024Y-45572068D01*
X74844129Y-45614388D01*
X74915285Y-45666086D01*
X74957951Y-45721416D01*
X74963930Y-45791029D01*
X74949788Y-45828403D01*
X74881970Y-45945868D01*
X74874803Y-45958284D01*
X74872820Y-45961718D01*
X74872818Y-45961722D01*
X74814327Y-46141740D01*
X74814326Y-46141744D01*
X74794540Y-46330000D01*
X74814326Y-46518256D01*
X74814327Y-46518259D01*
X74872818Y-46698277D01*
X74872821Y-46698284D01*
X74967467Y-46862216D01*
X75048504Y-46952216D01*
X75094129Y-47002888D01*
X75247265Y-47114148D01*
X75247270Y-47114151D01*
X75420192Y-47191142D01*
X75420197Y-47191144D01*
X75605354Y-47230500D01*
X75605355Y-47230500D01*
X75794644Y-47230500D01*
X75794646Y-47230500D01*
X75979803Y-47191144D01*
X76152730Y-47114151D01*
X76305871Y-47002888D01*
X76432533Y-46862216D01*
X76527179Y-46698284D01*
X76585674Y-46518256D01*
X76605460Y-46330000D01*
X76585674Y-46141744D01*
X76527179Y-45961716D01*
X76432533Y-45797784D01*
X76305871Y-45657112D01*
X76234712Y-45605412D01*
X76192048Y-45550083D01*
X76186069Y-45480470D01*
X76200212Y-45443095D01*
X76229268Y-45392768D01*
X76277179Y-45309784D01*
X76335674Y-45129756D01*
X76354360Y-44951961D01*
X76380943Y-44887350D01*
X76438240Y-44847365D01*
X76508059Y-44844705D01*
X76528116Y-44851647D01*
X76620191Y-44892642D01*
X76620197Y-44892644D01*
X76648824Y-44898729D01*
X76710306Y-44931922D01*
X76744082Y-44993085D01*
X76746363Y-45007052D01*
X76748463Y-45027028D01*
X76748465Y-45027037D01*
X76806956Y-45207054D01*
X76806959Y-45207061D01*
X76901605Y-45370993D01*
X77000179Y-45480470D01*
X77028267Y-45511665D01*
X77181403Y-45622925D01*
X77181408Y-45622928D01*
X77354330Y-45699919D01*
X77354335Y-45699921D01*
X77539492Y-45739277D01*
X77539493Y-45739277D01*
X77728782Y-45739277D01*
X77728784Y-45739277D01*
X77913941Y-45699921D01*
X78086868Y-45622928D01*
X78240009Y-45511665D01*
X78366671Y-45370993D01*
X78461317Y-45207061D01*
X78494783Y-45104062D01*
X78534220Y-45046388D01*
X78598579Y-45019189D01*
X78663150Y-45029101D01*
X78690197Y-45041144D01*
X78875354Y-45080500D01*
X78875355Y-45080500D01*
X79064644Y-45080500D01*
X79064646Y-45080500D01*
X79249803Y-45041144D01*
X79422730Y-44964151D01*
X79575871Y-44852888D01*
X79702533Y-44712216D01*
X79797179Y-44548284D01*
X79855674Y-44368256D01*
X79875460Y-44180000D01*
X79855674Y-43991744D01*
X79797179Y-43811716D01*
X79702533Y-43647784D01*
X79575871Y-43507112D01*
X79565097Y-43499284D01*
X79422734Y-43395851D01*
X79422729Y-43395848D01*
X79249807Y-43318857D01*
X79249802Y-43318855D01*
X79104001Y-43287865D01*
X79064646Y-43279500D01*
X78875354Y-43279500D01*
X78842897Y-43286398D01*
X78690197Y-43318855D01*
X78690192Y-43318857D01*
X78517270Y-43395848D01*
X78517265Y-43395851D01*
X78364129Y-43507111D01*
X78237466Y-43647785D01*
X78142821Y-43811715D01*
X78142819Y-43811719D01*
X78109354Y-43914714D01*
X78069916Y-43972389D01*
X78005557Y-43999587D01*
X77940988Y-43989675D01*
X77913942Y-43977633D01*
X77913940Y-43977632D01*
X77885313Y-43971548D01*
X77823831Y-43938356D01*
X77790055Y-43877193D01*
X77787773Y-43863216D01*
X77785674Y-43843245D01*
X77785672Y-43843240D01*
X77727179Y-43663216D01*
X77632533Y-43499284D01*
X77505871Y-43358612D01*
X77505870Y-43358611D01*
X77352734Y-43247351D01*
X77352729Y-43247348D01*
X77179807Y-43170357D01*
X77179802Y-43170355D01*
X77034001Y-43139365D01*
X76994646Y-43131000D01*
X76805354Y-43131000D01*
X76772897Y-43137898D01*
X76620197Y-43170355D01*
X76620192Y-43170357D01*
X76447270Y-43247348D01*
X76447265Y-43247351D01*
X76294129Y-43358611D01*
X76167466Y-43499285D01*
X76072821Y-43663215D01*
X76072818Y-43663222D01*
X76038844Y-43767785D01*
X76014326Y-43843244D01*
X75998287Y-43995849D01*
X75995640Y-44021035D01*
X75969055Y-44085649D01*
X75911758Y-44125634D01*
X75841939Y-44128294D01*
X75821884Y-44121353D01*
X75729802Y-44080355D01*
X75584001Y-44049365D01*
X75544646Y-44041000D01*
X75355354Y-44041000D01*
X75322897Y-44047898D01*
X75170197Y-44080355D01*
X75170192Y-44080357D01*
X74997270Y-44157348D01*
X74997265Y-44157351D01*
X74844129Y-44268611D01*
X74717466Y-44409285D01*
X74622821Y-44573215D01*
X74622818Y-44573222D01*
X74564327Y-44753240D01*
X74564326Y-44753244D01*
X74544540Y-44941500D01*
X63984133Y-44941500D01*
X64082533Y-44832216D01*
X64177179Y-44668284D01*
X64235674Y-44488256D01*
X64255460Y-44300000D01*
X64235674Y-44111744D01*
X64181112Y-43943823D01*
X64177181Y-43931722D01*
X64177180Y-43931721D01*
X64177179Y-43931716D01*
X64082533Y-43767784D01*
X63955871Y-43627112D01*
X63955870Y-43627111D01*
X63802734Y-43515851D01*
X63802729Y-43515848D01*
X63629807Y-43438857D01*
X63629802Y-43438855D01*
X63484001Y-43407865D01*
X63444646Y-43399500D01*
X63255354Y-43399500D01*
X63222897Y-43406398D01*
X63070197Y-43438855D01*
X63070192Y-43438857D01*
X62897270Y-43515848D01*
X62897265Y-43515851D01*
X62744129Y-43627111D01*
X62617466Y-43767785D01*
X62522821Y-43931715D01*
X62522818Y-43931722D01*
X62465831Y-44107112D01*
X62464326Y-44111744D01*
X62444540Y-44300000D01*
X58217942Y-44300000D01*
X58200594Y-40674327D01*
X58219958Y-40607198D01*
X58272542Y-40561191D01*
X58324330Y-40549738D01*
X81824258Y-40500264D01*
X81891337Y-40519808D01*
G37*
G04 #@! TD.AperFunction*
G04 #@! TA.AperFunction,Conductor*
G36*
X109945506Y-32019693D02*
G01*
X109991269Y-32072490D01*
X110002483Y-32124035D01*
X109997516Y-69876035D01*
X109977823Y-69943072D01*
X109925013Y-69988820D01*
X109873535Y-70000019D01*
X84151619Y-70004036D01*
X84084577Y-69984362D01*
X84038814Y-69931565D01*
X84028859Y-69862410D01*
X84030500Y-69851000D01*
X84030500Y-69324499D01*
X84050185Y-69257460D01*
X84102989Y-69211705D01*
X84154500Y-69200499D01*
X85357871Y-69200499D01*
X85357872Y-69200499D01*
X85417483Y-69194091D01*
X85552331Y-69143796D01*
X85667546Y-69057546D01*
X85753796Y-68942331D01*
X85804091Y-68807483D01*
X85810500Y-68747873D01*
X85810499Y-67420000D01*
X89294540Y-67420000D01*
X89314326Y-67608256D01*
X89314327Y-67608259D01*
X89372818Y-67788277D01*
X89372821Y-67788284D01*
X89467467Y-67952216D01*
X89594129Y-68092888D01*
X89747265Y-68204148D01*
X89747270Y-68204151D01*
X89920192Y-68281142D01*
X89920197Y-68281144D01*
X90105354Y-68320500D01*
X90105355Y-68320500D01*
X90294644Y-68320500D01*
X90294646Y-68320500D01*
X90479803Y-68281144D01*
X90652730Y-68204151D01*
X90805871Y-68092888D01*
X90932533Y-67952216D01*
X91027179Y-67788284D01*
X91085674Y-67608256D01*
X91105460Y-67420000D01*
X91085674Y-67231744D01*
X91027179Y-67051716D01*
X90932533Y-66887784D01*
X90805871Y-66747112D01*
X90790772Y-66736142D01*
X90727263Y-66690000D01*
X91424540Y-66690000D01*
X91444326Y-66878256D01*
X91444327Y-66878259D01*
X91502818Y-67058277D01*
X91502821Y-67058284D01*
X91597467Y-67222216D01*
X91724129Y-67362888D01*
X91877265Y-67474148D01*
X91877270Y-67474151D01*
X92050192Y-67551142D01*
X92050197Y-67551144D01*
X92235354Y-67590500D01*
X92235355Y-67590500D01*
X92424644Y-67590500D01*
X92424646Y-67590500D01*
X92609803Y-67551144D01*
X92782730Y-67474151D01*
X92935871Y-67362888D01*
X93062533Y-67222216D01*
X93157179Y-67058284D01*
X93215674Y-66878256D01*
X93219544Y-66841431D01*
X93246127Y-66776820D01*
X93303424Y-66736835D01*
X93373243Y-66734174D01*
X93379729Y-66736044D01*
X93380194Y-66736142D01*
X93380197Y-66736144D01*
X93565354Y-66775500D01*
X93565355Y-66775500D01*
X93754644Y-66775500D01*
X93754646Y-66775500D01*
X93939803Y-66736144D01*
X94112730Y-66659151D01*
X94265871Y-66547888D01*
X94392533Y-66407216D01*
X94487179Y-66243284D01*
X94545674Y-66063256D01*
X94565460Y-65875000D01*
X94545674Y-65686744D01*
X94487179Y-65506716D01*
X94392533Y-65342784D01*
X94265871Y-65202112D01*
X94261545Y-65198969D01*
X94112734Y-65090851D01*
X94112729Y-65090848D01*
X93939807Y-65013857D01*
X93939802Y-65013855D01*
X93794001Y-64982865D01*
X93754646Y-64974500D01*
X93565354Y-64974500D01*
X93532897Y-64981398D01*
X93380197Y-65013855D01*
X93380192Y-65013857D01*
X93207270Y-65090848D01*
X93207265Y-65090851D01*
X93054129Y-65202111D01*
X92927466Y-65342785D01*
X92832821Y-65506715D01*
X92832818Y-65506722D01*
X92774327Y-65686740D01*
X92774326Y-65686744D01*
X92770456Y-65723567D01*
X92743870Y-65788182D01*
X92686572Y-65828165D01*
X92616753Y-65830824D01*
X92610280Y-65828957D01*
X92490279Y-65803450D01*
X92424646Y-65789500D01*
X92235354Y-65789500D01*
X92202897Y-65796398D01*
X92050197Y-65828855D01*
X92050192Y-65828857D01*
X91877270Y-65905848D01*
X91877265Y-65905851D01*
X91724129Y-66017111D01*
X91597466Y-66157785D01*
X91502821Y-66321715D01*
X91502818Y-66321722D01*
X91444327Y-66501740D01*
X91444326Y-66501744D01*
X91424540Y-66690000D01*
X90727263Y-66690000D01*
X90652734Y-66635851D01*
X90652729Y-66635848D01*
X90479807Y-66558857D01*
X90479802Y-66558855D01*
X90334001Y-66527865D01*
X90294646Y-66519500D01*
X90105354Y-66519500D01*
X90072897Y-66526398D01*
X89920197Y-66558855D01*
X89920192Y-66558857D01*
X89747270Y-66635848D01*
X89747265Y-66635851D01*
X89594129Y-66747111D01*
X89467466Y-66887785D01*
X89372821Y-67051715D01*
X89372818Y-67051722D01*
X89317422Y-67222216D01*
X89314326Y-67231744D01*
X89294540Y-67420000D01*
X85810499Y-67420000D01*
X85810499Y-66952128D01*
X85804091Y-66892517D01*
X85753796Y-66757669D01*
X85753795Y-66757668D01*
X85753793Y-66757664D01*
X85667547Y-66642455D01*
X85667544Y-66642452D01*
X85552335Y-66556206D01*
X85552328Y-66556202D01*
X85417482Y-66505908D01*
X85417483Y-66505908D01*
X85357883Y-66499501D01*
X85357881Y-66499500D01*
X85357873Y-66499500D01*
X85357865Y-66499500D01*
X84154500Y-66499500D01*
X84087461Y-66479815D01*
X84041706Y-66427011D01*
X84030500Y-66375500D01*
X84030500Y-62900005D01*
X102867277Y-62900005D01*
X102886134Y-63127580D01*
X102886136Y-63127592D01*
X102942196Y-63348967D01*
X103033930Y-63558102D01*
X103158834Y-63749283D01*
X103158837Y-63749286D01*
X103313507Y-63917302D01*
X103493722Y-64057569D01*
X103694566Y-64166261D01*
X103910562Y-64240412D01*
X104135816Y-64278000D01*
X104364184Y-64278000D01*
X104589438Y-64240412D01*
X104805434Y-64166261D01*
X105006278Y-64057569D01*
X105186493Y-63917302D01*
X105341163Y-63749286D01*
X105466069Y-63558103D01*
X105557803Y-63348969D01*
X105613864Y-63127589D01*
X105632723Y-62900000D01*
X105613864Y-62672411D01*
X105557803Y-62451031D01*
X105466069Y-62241897D01*
X105341165Y-62050716D01*
X105321321Y-62029160D01*
X105186493Y-61882698D01*
X105006278Y-61742431D01*
X105006276Y-61742430D01*
X105006275Y-61742429D01*
X104805435Y-61633739D01*
X104805430Y-61633737D01*
X104589440Y-61559588D01*
X104364184Y-61522000D01*
X104135816Y-61522000D01*
X103910559Y-61559588D01*
X103694569Y-61633737D01*
X103694564Y-61633739D01*
X103493724Y-61742429D01*
X103313508Y-61882697D01*
X103158834Y-62050716D01*
X103033930Y-62241897D01*
X102942196Y-62451032D01*
X102886136Y-62672407D01*
X102886134Y-62672419D01*
X102867277Y-62899994D01*
X102867277Y-62900005D01*
X84030500Y-62900005D01*
X84030500Y-58400000D01*
X97669540Y-58400000D01*
X97689326Y-58588256D01*
X97689327Y-58588259D01*
X97747818Y-58768277D01*
X97747821Y-58768284D01*
X97842467Y-58932216D01*
X97969129Y-59072888D01*
X98122265Y-59184148D01*
X98122270Y-59184151D01*
X98295192Y-59261142D01*
X98295197Y-59261144D01*
X98480354Y-59300500D01*
X98480355Y-59300500D01*
X98669644Y-59300500D01*
X98669646Y-59300500D01*
X98854803Y-59261144D01*
X99027730Y-59184151D01*
X99180871Y-59072888D01*
X99307533Y-58932216D01*
X99402179Y-58768284D01*
X99460674Y-58588256D01*
X99480460Y-58400000D01*
X99460674Y-58211744D01*
X99402179Y-58031716D01*
X99307533Y-57867784D01*
X99180871Y-57727112D01*
X99180870Y-57727111D01*
X99027734Y-57615851D01*
X99027729Y-57615848D01*
X98854807Y-57538857D01*
X98854802Y-57538855D01*
X98709001Y-57507865D01*
X98669646Y-57499500D01*
X98480354Y-57499500D01*
X98447897Y-57506398D01*
X98295197Y-57538855D01*
X98295192Y-57538857D01*
X98122270Y-57615848D01*
X98122265Y-57615851D01*
X97969129Y-57727111D01*
X97842466Y-57867785D01*
X97747821Y-58031715D01*
X97747818Y-58031722D01*
X97689327Y-58211740D01*
X97689326Y-58211744D01*
X97669540Y-58400000D01*
X84030500Y-58400000D01*
X84030500Y-55374010D01*
X84030500Y-55374000D01*
X84018947Y-55266544D01*
X84007741Y-55215033D01*
X83996553Y-55181418D01*
X83973616Y-55112502D01*
X83973613Y-55112496D01*
X83895828Y-54991462D01*
X83895826Y-54991458D01*
X83855287Y-54944674D01*
X83826262Y-54881118D01*
X83825000Y-54863471D01*
X83825000Y-54831152D01*
X83844685Y-54764113D01*
X83876115Y-54730834D01*
X83881638Y-54726820D01*
X83955871Y-54672888D01*
X83990928Y-54633951D01*
X84050413Y-54597304D01*
X84120270Y-54598633D01*
X84133512Y-54603644D01*
X84240197Y-54651144D01*
X84425354Y-54690500D01*
X84425355Y-54690500D01*
X84614644Y-54690500D01*
X84614646Y-54690500D01*
X84799803Y-54651144D01*
X84972730Y-54574151D01*
X85125871Y-54462888D01*
X85252533Y-54322216D01*
X85347179Y-54158284D01*
X85405674Y-53978256D01*
X85425460Y-53790000D01*
X85405674Y-53601744D01*
X85347179Y-53421716D01*
X85252533Y-53257784D01*
X85227516Y-53230000D01*
X87754540Y-53230000D01*
X87774326Y-53418256D01*
X87774327Y-53418259D01*
X87832818Y-53598277D01*
X87832821Y-53598284D01*
X87927467Y-53762216D01*
X88031525Y-53877784D01*
X88054129Y-53902888D01*
X88207265Y-54014148D01*
X88207270Y-54014151D01*
X88380192Y-54091142D01*
X88380197Y-54091144D01*
X88565354Y-54130500D01*
X88565355Y-54130500D01*
X88761145Y-54130500D01*
X88761145Y-54132080D01*
X88822010Y-54143203D01*
X88873040Y-54190928D01*
X88890168Y-54258666D01*
X88889578Y-54266911D01*
X88874540Y-54410000D01*
X88894326Y-54598256D01*
X88896077Y-54603645D01*
X88952818Y-54778277D01*
X88952821Y-54778284D01*
X89047467Y-54942216D01*
X89172518Y-55081099D01*
X89174129Y-55082888D01*
X89327265Y-55194148D01*
X89327270Y-55194151D01*
X89500192Y-55271142D01*
X89500197Y-55271144D01*
X89685354Y-55310500D01*
X89685355Y-55310500D01*
X89843501Y-55310500D01*
X89910540Y-55330185D01*
X89956295Y-55382989D01*
X89966239Y-55452147D01*
X89950888Y-55496500D01*
X89872821Y-55631715D01*
X89872818Y-55631722D01*
X89814327Y-55811740D01*
X89814326Y-55811744D01*
X89794540Y-56000000D01*
X89814326Y-56188256D01*
X89814327Y-56188259D01*
X89872818Y-56368277D01*
X89872821Y-56368284D01*
X89967467Y-56532216D01*
X90094129Y-56672888D01*
X90247265Y-56784148D01*
X90247270Y-56784151D01*
X90420192Y-56861142D01*
X90420197Y-56861144D01*
X90605354Y-56900500D01*
X90605355Y-56900500D01*
X90794644Y-56900500D01*
X90794646Y-56900500D01*
X90979803Y-56861144D01*
X91152730Y-56784151D01*
X91305871Y-56672888D01*
X91432533Y-56532216D01*
X91527179Y-56368284D01*
X91585674Y-56188256D01*
X91591109Y-56136535D01*
X91617694Y-56071924D01*
X91674991Y-56031939D01*
X91714430Y-56025500D01*
X91744644Y-56025500D01*
X91744646Y-56025500D01*
X91929803Y-55986144D01*
X92025398Y-55943581D01*
X92094646Y-55934296D01*
X92157923Y-55963924D01*
X92195137Y-56023059D01*
X92199153Y-56043897D01*
X92214326Y-56188256D01*
X92214327Y-56188259D01*
X92272818Y-56368277D01*
X92272821Y-56368284D01*
X92367467Y-56532216D01*
X92494129Y-56672888D01*
X92647265Y-56784148D01*
X92647270Y-56784151D01*
X92820192Y-56861142D01*
X92820197Y-56861144D01*
X93005354Y-56900500D01*
X93005355Y-56900500D01*
X93194644Y-56900500D01*
X93194646Y-56900500D01*
X93379803Y-56861144D01*
X93552730Y-56784151D01*
X93705871Y-56672888D01*
X93832533Y-56532216D01*
X93927179Y-56368284D01*
X93972211Y-56229687D01*
X94011648Y-56172013D01*
X94076006Y-56144814D01*
X94144853Y-56156728D01*
X94196329Y-56203972D01*
X94213462Y-56255039D01*
X94214325Y-56263254D01*
X94214326Y-56263257D01*
X94272818Y-56443277D01*
X94272821Y-56443284D01*
X94367467Y-56607216D01*
X94426599Y-56672888D01*
X94494129Y-56747888D01*
X94647265Y-56859148D01*
X94647270Y-56859151D01*
X94820192Y-56936142D01*
X94820197Y-56936144D01*
X95005354Y-56975500D01*
X95005355Y-56975500D01*
X95194644Y-56975500D01*
X95194646Y-56975500D01*
X95379803Y-56936144D01*
X95552730Y-56859151D01*
X95705871Y-56747888D01*
X95832533Y-56607216D01*
X95927179Y-56443284D01*
X95985674Y-56263256D01*
X96005460Y-56075000D01*
X95985674Y-55886744D01*
X95927179Y-55706716D01*
X95832533Y-55542784D01*
X95705871Y-55402112D01*
X95705870Y-55402111D01*
X95552734Y-55290851D01*
X95552729Y-55290848D01*
X95379807Y-55213857D01*
X95379802Y-55213855D01*
X95227193Y-55181418D01*
X95194646Y-55174500D01*
X95005354Y-55174500D01*
X94972897Y-55181398D01*
X94820197Y-55213855D01*
X94820192Y-55213857D01*
X94647270Y-55290848D01*
X94647265Y-55290851D01*
X94494129Y-55402111D01*
X94367466Y-55542785D01*
X94272821Y-55706715D01*
X94272818Y-55706722D01*
X94227788Y-55845311D01*
X94188350Y-55902987D01*
X94123992Y-55930185D01*
X94055145Y-55918270D01*
X94003670Y-55871026D01*
X93986537Y-55819956D01*
X93985674Y-55811744D01*
X93927179Y-55631716D01*
X93832533Y-55467784D01*
X93705871Y-55327112D01*
X93705870Y-55327111D01*
X93552734Y-55215851D01*
X93552729Y-55215848D01*
X93379807Y-55138857D01*
X93379802Y-55138855D01*
X93234001Y-55107865D01*
X93194646Y-55099500D01*
X93005354Y-55099500D01*
X92972897Y-55106398D01*
X92820197Y-55138855D01*
X92724601Y-55181418D01*
X92655351Y-55190702D01*
X92592075Y-55161074D01*
X92554862Y-55101939D01*
X92550847Y-55081109D01*
X92535674Y-54936744D01*
X92477179Y-54756716D01*
X92382533Y-54592784D01*
X92255871Y-54452112D01*
X92197909Y-54410000D01*
X92102734Y-54340851D01*
X92102729Y-54340848D01*
X91929807Y-54263857D01*
X91929802Y-54263855D01*
X91784001Y-54232865D01*
X91744646Y-54224500D01*
X91555354Y-54224500D01*
X91522897Y-54231398D01*
X91370197Y-54263855D01*
X91370192Y-54263857D01*
X91197270Y-54340848D01*
X91197265Y-54340851D01*
X91044129Y-54452111D01*
X90917466Y-54592785D01*
X90902022Y-54619534D01*
X90851454Y-54667749D01*
X90782847Y-54680970D01*
X90717983Y-54655001D01*
X90677455Y-54598087D01*
X90671315Y-54544576D01*
X90685460Y-54410000D01*
X90665674Y-54221744D01*
X90607179Y-54041716D01*
X90512533Y-53877784D01*
X90385871Y-53737112D01*
X90385870Y-53737111D01*
X90232734Y-53625851D01*
X90232729Y-53625848D01*
X90059807Y-53548857D01*
X90059802Y-53548855D01*
X89914001Y-53517865D01*
X89874646Y-53509500D01*
X89685354Y-53509500D01*
X89678856Y-53509500D01*
X89678856Y-53507925D01*
X89617963Y-53496783D01*
X89566944Y-53449046D01*
X89549832Y-53381304D01*
X89550417Y-53373122D01*
X89565460Y-53230000D01*
X89564934Y-53225000D01*
X93194540Y-53225000D01*
X93214326Y-53413256D01*
X93215106Y-53415658D01*
X93272818Y-53593277D01*
X93272821Y-53593284D01*
X93367467Y-53757216D01*
X93476027Y-53877784D01*
X93494129Y-53897888D01*
X93647265Y-54009148D01*
X93647270Y-54009151D01*
X93820192Y-54086142D01*
X93820197Y-54086144D01*
X94005354Y-54125500D01*
X94005355Y-54125500D01*
X94194644Y-54125500D01*
X94194646Y-54125500D01*
X94379803Y-54086144D01*
X94552730Y-54009151D01*
X94705871Y-53897888D01*
X94832533Y-53757216D01*
X94927179Y-53593284D01*
X94985674Y-53413256D01*
X95005460Y-53225000D01*
X94985674Y-53036744D01*
X94927179Y-52856716D01*
X94832533Y-52692784D01*
X94705871Y-52552112D01*
X94702474Y-52549644D01*
X94552734Y-52440851D01*
X94552729Y-52440848D01*
X94379807Y-52363857D01*
X94379802Y-52363855D01*
X94234001Y-52332865D01*
X94194646Y-52324500D01*
X94005354Y-52324500D01*
X93972897Y-52331398D01*
X93820197Y-52363855D01*
X93820192Y-52363857D01*
X93647270Y-52440848D01*
X93647265Y-52440851D01*
X93494129Y-52552111D01*
X93367466Y-52692785D01*
X93272821Y-52856715D01*
X93272818Y-52856722D01*
X93214327Y-53036740D01*
X93214326Y-53036744D01*
X93194540Y-53225000D01*
X89564934Y-53225000D01*
X89545674Y-53041744D01*
X89487179Y-52861716D01*
X89487176Y-52861710D01*
X89393712Y-52699824D01*
X89377239Y-52631924D01*
X89400092Y-52565897D01*
X89450660Y-52524547D01*
X89567221Y-52472651D01*
X89720362Y-52361388D01*
X89847024Y-52220716D01*
X89941670Y-52056784D01*
X90000165Y-51876756D01*
X90019951Y-51688500D01*
X90000165Y-51500244D01*
X89941670Y-51320216D01*
X89847024Y-51156284D01*
X89720362Y-51015612D01*
X89673528Y-50981585D01*
X89567225Y-50904351D01*
X89567220Y-50904348D01*
X89394298Y-50827357D01*
X89394293Y-50827355D01*
X89248492Y-50796365D01*
X89209137Y-50788000D01*
X89019845Y-50788000D01*
X88987388Y-50794898D01*
X88834688Y-50827355D01*
X88834683Y-50827357D01*
X88661761Y-50904348D01*
X88661756Y-50904351D01*
X88508620Y-51015611D01*
X88381957Y-51156285D01*
X88287312Y-51320215D01*
X88287309Y-51320222D01*
X88245375Y-51449283D01*
X88228817Y-51500244D01*
X88209031Y-51688500D01*
X88228817Y-51876756D01*
X88228818Y-51876759D01*
X88287309Y-52056777D01*
X88287311Y-52056781D01*
X88287312Y-52056784D01*
X88289169Y-52060000D01*
X88380779Y-52218675D01*
X88397251Y-52286575D01*
X88374398Y-52352602D01*
X88323828Y-52393953D01*
X88207267Y-52445850D01*
X88207265Y-52445851D01*
X88054129Y-52557111D01*
X87927466Y-52697785D01*
X87832821Y-52861715D01*
X87832818Y-52861722D01*
X87774327Y-53041740D01*
X87774326Y-53041744D01*
X87754540Y-53230000D01*
X85227516Y-53230000D01*
X85125871Y-53117112D01*
X85125870Y-53117111D01*
X84972734Y-53005851D01*
X84972729Y-53005848D01*
X84857331Y-52954469D01*
X84804094Y-52909219D01*
X84783773Y-52842369D01*
X84802819Y-52775146D01*
X84834879Y-52740873D01*
X84845871Y-52732888D01*
X84972533Y-52592216D01*
X85067179Y-52428284D01*
X85125674Y-52248256D01*
X85145460Y-52060000D01*
X85125674Y-51871744D01*
X85067179Y-51691716D01*
X84972533Y-51527784D01*
X84845871Y-51387112D01*
X84845870Y-51387111D01*
X84692734Y-51275851D01*
X84692729Y-51275848D01*
X84519807Y-51198857D01*
X84519802Y-51198855D01*
X84374001Y-51167865D01*
X84334646Y-51159500D01*
X84145354Y-51159500D01*
X84112897Y-51166398D01*
X83960197Y-51198855D01*
X83960192Y-51198857D01*
X83787270Y-51275848D01*
X83787265Y-51275851D01*
X83634129Y-51387111D01*
X83507466Y-51527785D01*
X83412821Y-51691715D01*
X83412818Y-51691722D01*
X83356107Y-51866262D01*
X83354326Y-51871744D01*
X83334540Y-52060000D01*
X83354326Y-52248256D01*
X83354327Y-52248259D01*
X83412818Y-52428277D01*
X83412821Y-52428284D01*
X83507467Y-52592216D01*
X83561288Y-52651990D01*
X83634129Y-52732888D01*
X83787265Y-52844148D01*
X83787266Y-52844148D01*
X83787270Y-52844151D01*
X83902668Y-52895530D01*
X83955905Y-52940780D01*
X83976226Y-53007629D01*
X83957181Y-53074853D01*
X83925120Y-53109125D01*
X83914135Y-53117105D01*
X83914127Y-53117113D01*
X83879068Y-53156049D01*
X83819581Y-53192696D01*
X83749724Y-53191365D01*
X83736484Y-53186354D01*
X83629806Y-53138857D01*
X83629802Y-53138855D01*
X83484001Y-53107865D01*
X83444646Y-53099500D01*
X83255354Y-53099500D01*
X83222897Y-53106398D01*
X83070197Y-53138855D01*
X83070192Y-53138857D01*
X82897270Y-53215848D01*
X82897265Y-53215851D01*
X82744129Y-53327111D01*
X82617466Y-53467785D01*
X82532055Y-53615722D01*
X82481488Y-53663937D01*
X82412881Y-53677161D01*
X82348016Y-53651193D01*
X82307488Y-53594279D01*
X82300677Y-53552250D01*
X82301267Y-53502535D01*
X82301266Y-53502531D01*
X82301267Y-53502521D01*
X82294793Y-53415658D01*
X82287982Y-53373630D01*
X82266689Y-53289159D01*
X82216958Y-53192696D01*
X82200760Y-53161277D01*
X82193742Y-53151421D01*
X82170891Y-53085394D01*
X82187365Y-53017494D01*
X82202005Y-52997191D01*
X82207399Y-52991114D01*
X82268717Y-52860954D01*
X82268718Y-52860949D01*
X82268720Y-52860946D01*
X82289192Y-52794164D01*
X82289195Y-52794152D01*
X82292158Y-52775146D01*
X82311358Y-52651993D01*
X82331176Y-50981585D01*
X82335704Y-50600005D01*
X102867277Y-50600005D01*
X102886134Y-50827580D01*
X102886136Y-50827592D01*
X102942196Y-51048967D01*
X103033930Y-51258102D01*
X103158834Y-51449283D01*
X103158837Y-51449286D01*
X103313507Y-51617302D01*
X103493722Y-51757569D01*
X103694566Y-51866261D01*
X103910562Y-51940412D01*
X104135816Y-51978000D01*
X104364184Y-51978000D01*
X104589438Y-51940412D01*
X104805434Y-51866261D01*
X105006278Y-51757569D01*
X105186493Y-51617302D01*
X105341163Y-51449286D01*
X105466069Y-51258103D01*
X105557803Y-51048969D01*
X105613864Y-50827589D01*
X105613883Y-50827357D01*
X105632723Y-50600005D01*
X105632723Y-50599994D01*
X105613865Y-50372419D01*
X105613863Y-50372407D01*
X105557803Y-50151032D01*
X105557711Y-50150823D01*
X105466069Y-49941897D01*
X105391824Y-49828256D01*
X105341165Y-49750716D01*
X105239242Y-49639999D01*
X105186493Y-49582698D01*
X105006278Y-49442431D01*
X105006276Y-49442430D01*
X105006275Y-49442429D01*
X104805435Y-49333739D01*
X104805430Y-49333737D01*
X104589440Y-49259588D01*
X104364184Y-49222000D01*
X104135816Y-49222000D01*
X103910559Y-49259588D01*
X103694569Y-49333737D01*
X103694564Y-49333739D01*
X103493724Y-49442429D01*
X103313508Y-49582697D01*
X103158834Y-49750716D01*
X103033930Y-49941897D01*
X102942196Y-50151032D01*
X102886136Y-50372407D01*
X102886134Y-50372419D01*
X102867277Y-50599994D01*
X102867277Y-50600005D01*
X82335704Y-50600005D01*
X82337459Y-50452064D01*
X82337458Y-50452051D01*
X82323386Y-50327469D01*
X82323384Y-50327463D01*
X82323384Y-50327458D01*
X82309062Y-50268120D01*
X82264754Y-50150823D01*
X82180183Y-50034421D01*
X82168903Y-50022814D01*
X82136298Y-49961021D01*
X82133831Y-49935554D01*
X82140097Y-49020769D01*
X82160239Y-48953871D01*
X82191203Y-48921309D01*
X82215871Y-48903388D01*
X82342533Y-48762716D01*
X82437179Y-48598784D01*
X82495674Y-48418756D01*
X82515460Y-48230500D01*
X82495674Y-48042244D01*
X82437179Y-47862216D01*
X82342533Y-47698284D01*
X82308105Y-47660048D01*
X82277876Y-47597058D01*
X82286501Y-47527722D01*
X82288052Y-47524293D01*
X82333169Y-47428524D01*
X82333169Y-47428522D01*
X82333172Y-47428517D01*
X82353644Y-47361734D01*
X82353647Y-47361722D01*
X82356583Y-47342888D01*
X82375810Y-47219563D01*
X82383754Y-46550000D01*
X86264540Y-46550000D01*
X86284326Y-46738256D01*
X86284327Y-46738259D01*
X86342818Y-46918277D01*
X86342821Y-46918284D01*
X86437467Y-47082216D01*
X86545515Y-47202215D01*
X86564129Y-47222888D01*
X86717265Y-47334148D01*
X86717270Y-47334151D01*
X86890192Y-47411142D01*
X86890197Y-47411144D01*
X87075354Y-47450500D01*
X87075355Y-47450500D01*
X87264644Y-47450500D01*
X87264646Y-47450500D01*
X87449803Y-47411144D01*
X87449805Y-47411142D01*
X87455987Y-47409135D01*
X87456748Y-47411478D01*
X87514977Y-47403664D01*
X87569063Y-47425912D01*
X87602906Y-47450500D01*
X87633365Y-47472630D01*
X87806287Y-47549621D01*
X87806292Y-47549623D01*
X87991449Y-47588979D01*
X87991450Y-47588979D01*
X88180739Y-47588979D01*
X88180741Y-47588979D01*
X88365898Y-47549623D01*
X88538825Y-47472630D01*
X88538833Y-47472623D01*
X88544452Y-47469381D01*
X88545889Y-47471871D01*
X88599843Y-47452599D01*
X88657403Y-47463115D01*
X88794668Y-47524230D01*
X88810197Y-47531144D01*
X88810206Y-47531146D01*
X88811454Y-47531552D01*
X88812092Y-47531988D01*
X88816134Y-47533788D01*
X88815805Y-47534526D01*
X88869131Y-47570987D01*
X88896332Y-47635344D01*
X88884421Y-47704191D01*
X88865291Y-47732457D01*
X88797466Y-47807784D01*
X88702821Y-47971715D01*
X88702818Y-47971722D01*
X88650318Y-48133302D01*
X88644326Y-48151744D01*
X88624540Y-48340000D01*
X88644326Y-48528256D01*
X88644327Y-48528259D01*
X88702818Y-48708277D01*
X88702821Y-48708284D01*
X88797467Y-48872216D01*
X88870990Y-48953871D01*
X88924129Y-49012888D01*
X89077265Y-49124148D01*
X89077270Y-49124151D01*
X89250192Y-49201142D01*
X89250197Y-49201144D01*
X89435354Y-49240500D01*
X89435355Y-49240500D01*
X89624642Y-49240500D01*
X89624646Y-49240500D01*
X89634848Y-49238331D01*
X89704512Y-49243646D01*
X89752778Y-49276648D01*
X89808384Y-49338404D01*
X89822796Y-49348875D01*
X89865461Y-49404205D01*
X89873231Y-49462153D01*
X89858744Y-49600000D01*
X89854540Y-49640000D01*
X89874326Y-49828256D01*
X89874327Y-49828259D01*
X89932818Y-50008277D01*
X89932821Y-50008284D01*
X90027467Y-50172216D01*
X90154129Y-50312888D01*
X90307265Y-50424148D01*
X90307270Y-50424151D01*
X90480192Y-50501142D01*
X90480197Y-50501144D01*
X90665354Y-50540500D01*
X90665355Y-50540500D01*
X90854644Y-50540500D01*
X90854646Y-50540500D01*
X91039803Y-50501144D01*
X91212730Y-50424151D01*
X91365871Y-50312888D01*
X91492533Y-50172216D01*
X91587179Y-50008284D01*
X91645674Y-49828256D01*
X91665460Y-49640000D01*
X91645674Y-49451744D01*
X91587179Y-49271716D01*
X91492533Y-49107784D01*
X91365871Y-48967112D01*
X91365870Y-48967111D01*
X91365864Y-48967106D01*
X91351459Y-48956640D01*
X91308793Y-48901311D01*
X91301023Y-48843365D01*
X91319716Y-48665517D01*
X91299930Y-48477261D01*
X91241435Y-48297233D01*
X91146789Y-48133301D01*
X91020127Y-47992629D01*
X90991343Y-47971716D01*
X90866990Y-47881368D01*
X90866985Y-47881365D01*
X90694063Y-47804374D01*
X90694058Y-47804372D01*
X90548257Y-47773382D01*
X90508902Y-47765017D01*
X90319610Y-47765017D01*
X90312062Y-47766621D01*
X90309400Y-47767187D01*
X90239734Y-47761867D01*
X90191477Y-47728868D01*
X90135871Y-47667112D01*
X90028984Y-47589454D01*
X89982734Y-47555851D01*
X89982729Y-47555848D01*
X89809805Y-47478856D01*
X89808536Y-47478444D01*
X89807895Y-47478006D01*
X89803866Y-47476212D01*
X89804194Y-47475474D01*
X89750862Y-47439004D01*
X89723666Y-47374644D01*
X89735583Y-47305799D01*
X89754706Y-47277544D01*
X89822533Y-47202216D01*
X89917179Y-47038284D01*
X89975674Y-46858256D01*
X89995460Y-46670000D01*
X89975674Y-46481744D01*
X89962581Y-46441451D01*
X89960587Y-46371612D01*
X89996667Y-46311779D01*
X90030072Y-46289857D01*
X90132730Y-46244151D01*
X90285871Y-46132888D01*
X90412533Y-45992216D01*
X90507179Y-45828284D01*
X90565674Y-45648256D01*
X90585460Y-45460000D01*
X90565674Y-45271744D01*
X90507179Y-45091716D01*
X90412533Y-44927784D01*
X90285871Y-44787112D01*
X90285870Y-44787111D01*
X90132734Y-44675851D01*
X90132729Y-44675848D01*
X89959807Y-44598857D01*
X89959802Y-44598855D01*
X89847570Y-44575000D01*
X92994540Y-44575000D01*
X93014326Y-44763256D01*
X93014327Y-44763259D01*
X93072818Y-44943277D01*
X93072821Y-44943284D01*
X93167467Y-45107216D01*
X93294129Y-45247888D01*
X93447265Y-45359148D01*
X93447270Y-45359151D01*
X93620192Y-45436142D01*
X93620197Y-45436144D01*
X93805354Y-45475500D01*
X93805355Y-45475500D01*
X93994644Y-45475500D01*
X93994646Y-45475500D01*
X94179803Y-45436144D01*
X94352730Y-45359151D01*
X94505871Y-45247888D01*
X94632533Y-45107216D01*
X94727179Y-44943284D01*
X94785674Y-44763256D01*
X94805460Y-44575000D01*
X94801139Y-44533891D01*
X94813708Y-44465164D01*
X94861440Y-44414140D01*
X94898676Y-44399643D01*
X95079803Y-44361144D01*
X95252730Y-44284151D01*
X95405871Y-44172888D01*
X95532533Y-44032216D01*
X95627179Y-43868284D01*
X95685674Y-43688256D01*
X95705460Y-43500000D01*
X95685674Y-43311744D01*
X95627179Y-43131716D01*
X95532533Y-42967784D01*
X95405871Y-42827112D01*
X95405870Y-42827111D01*
X95252734Y-42715851D01*
X95252729Y-42715848D01*
X95079807Y-42638857D01*
X95079802Y-42638855D01*
X94934001Y-42607865D01*
X94894646Y-42599500D01*
X94705354Y-42599500D01*
X94672897Y-42606398D01*
X94520197Y-42638855D01*
X94520192Y-42638857D01*
X94347270Y-42715848D01*
X94347265Y-42715851D01*
X94194129Y-42827111D01*
X94067466Y-42967785D01*
X93972821Y-43131715D01*
X93972818Y-43131722D01*
X93943197Y-43222888D01*
X93914326Y-43311744D01*
X93897860Y-43468412D01*
X93894540Y-43500000D01*
X93898860Y-43541107D01*
X93886290Y-43609837D01*
X93838557Y-43660860D01*
X93801320Y-43675357D01*
X93620197Y-43713855D01*
X93620192Y-43713857D01*
X93447270Y-43790848D01*
X93447265Y-43790851D01*
X93294129Y-43902111D01*
X93167466Y-44042785D01*
X93072821Y-44206715D01*
X93072818Y-44206722D01*
X93022644Y-44361144D01*
X93014326Y-44386744D01*
X92994540Y-44575000D01*
X89847570Y-44575000D01*
X89814001Y-44567865D01*
X89774646Y-44559500D01*
X89585354Y-44559500D01*
X89552897Y-44566398D01*
X89400197Y-44598855D01*
X89400192Y-44598857D01*
X89227270Y-44675848D01*
X89227265Y-44675851D01*
X89074129Y-44787111D01*
X88947466Y-44927785D01*
X88852821Y-45091715D01*
X88852818Y-45091722D01*
X88802077Y-45247888D01*
X88794326Y-45271744D01*
X88774540Y-45460000D01*
X88794326Y-45648256D01*
X88801744Y-45671087D01*
X88807418Y-45688548D01*
X88809412Y-45758390D01*
X88773330Y-45818222D01*
X88739923Y-45840144D01*
X88707352Y-45854646D01*
X88637270Y-45885849D01*
X88637268Y-45885849D01*
X88637264Y-45885852D01*
X88631642Y-45889098D01*
X88630211Y-45886619D01*
X88576180Y-45905884D01*
X88518692Y-45895364D01*
X88365902Y-45827336D01*
X88365897Y-45827334D01*
X88220096Y-45796344D01*
X88180741Y-45787979D01*
X87991449Y-45787979D01*
X87952094Y-45796344D01*
X87806293Y-45827334D01*
X87800109Y-45829344D01*
X87799348Y-45827004D01*
X87741094Y-45834811D01*
X87687031Y-45812566D01*
X87622730Y-45765849D01*
X87622729Y-45765848D01*
X87449807Y-45688857D01*
X87449802Y-45688855D01*
X87304001Y-45657865D01*
X87264646Y-45649500D01*
X87075354Y-45649500D01*
X87042897Y-45656398D01*
X86890197Y-45688855D01*
X86890192Y-45688857D01*
X86717270Y-45765848D01*
X86717265Y-45765851D01*
X86564129Y-45877111D01*
X86437466Y-46017785D01*
X86342821Y-46181715D01*
X86342818Y-46181722D01*
X86291836Y-46338630D01*
X86284326Y-46361744D01*
X86264540Y-46550000D01*
X82383754Y-46550000D01*
X82384404Y-46495197D01*
X82384440Y-46489557D01*
X82384442Y-46486723D01*
X82384411Y-46480804D01*
X82362369Y-46338623D01*
X82341948Y-46271804D01*
X82280748Y-46141599D01*
X82280745Y-46141596D01*
X82280745Y-46141595D01*
X82192252Y-46041707D01*
X82162530Y-45978474D01*
X82161070Y-45958642D01*
X82161703Y-45866245D01*
X82181846Y-45799345D01*
X82195968Y-45782156D01*
X82195804Y-45782011D01*
X82242228Y-45729698D01*
X82294247Y-45671085D01*
X82355565Y-45540925D01*
X82361332Y-45522110D01*
X82376040Y-45474135D01*
X82376043Y-45474123D01*
X82398206Y-45331961D01*
X82398206Y-45331956D01*
X82398920Y-45271744D01*
X82408454Y-44468187D01*
X82408490Y-44462547D01*
X82408492Y-44459713D01*
X82408461Y-44453794D01*
X82386419Y-44311613D01*
X82365998Y-44244794D01*
X82304798Y-44114589D01*
X82209388Y-44006893D01*
X82209387Y-44006892D01*
X82206451Y-44003578D01*
X82208047Y-44002163D01*
X82178147Y-43948754D01*
X82175032Y-43920280D01*
X82175835Y-43803035D01*
X82195977Y-43736137D01*
X82219753Y-43709214D01*
X82223333Y-43706186D01*
X82318836Y-43598574D01*
X82380154Y-43468414D01*
X82394842Y-43420500D01*
X82400629Y-43401624D01*
X82400632Y-43401612D01*
X82411150Y-43334148D01*
X82422795Y-43259453D01*
X82431568Y-42520000D01*
X87064540Y-42520000D01*
X87084326Y-42708256D01*
X87084327Y-42708259D01*
X87142818Y-42888277D01*
X87142821Y-42888284D01*
X87237467Y-43052216D01*
X87309055Y-43131722D01*
X87364129Y-43192888D01*
X87517265Y-43304148D01*
X87517270Y-43304151D01*
X87690192Y-43381142D01*
X87690197Y-43381144D01*
X87875354Y-43420500D01*
X87875355Y-43420500D01*
X88064644Y-43420500D01*
X88064646Y-43420500D01*
X88249803Y-43381144D01*
X88422730Y-43304151D01*
X88575871Y-43192888D01*
X88702533Y-43052216D01*
X88797179Y-42888284D01*
X88827105Y-42796181D01*
X88866542Y-42738506D01*
X88930901Y-42711308D01*
X88945036Y-42710500D01*
X88954644Y-42710500D01*
X88954646Y-42710500D01*
X89139803Y-42671144D01*
X89312730Y-42594151D01*
X89373499Y-42550000D01*
X91664540Y-42550000D01*
X91684326Y-42738256D01*
X91684327Y-42738259D01*
X91742818Y-42918277D01*
X91742821Y-42918284D01*
X91837467Y-43082216D01*
X91882043Y-43131722D01*
X91964129Y-43222888D01*
X92117265Y-43334148D01*
X92117270Y-43334151D01*
X92290192Y-43411142D01*
X92290197Y-43411144D01*
X92475354Y-43450500D01*
X92475355Y-43450500D01*
X92664644Y-43450500D01*
X92664646Y-43450500D01*
X92849803Y-43411144D01*
X93022730Y-43334151D01*
X93175871Y-43222888D01*
X93302533Y-43082216D01*
X93397179Y-42918284D01*
X93455674Y-42738256D01*
X93475460Y-42550000D01*
X93455674Y-42361744D01*
X93397179Y-42181716D01*
X93302533Y-42017784D01*
X93175871Y-41877112D01*
X93175870Y-41877111D01*
X93022734Y-41765851D01*
X93022729Y-41765848D01*
X92849807Y-41688857D01*
X92849802Y-41688855D01*
X92704001Y-41657865D01*
X92664646Y-41649500D01*
X92475354Y-41649500D01*
X92442897Y-41656398D01*
X92290197Y-41688855D01*
X92290192Y-41688857D01*
X92117270Y-41765848D01*
X92117265Y-41765851D01*
X91964129Y-41877111D01*
X91837466Y-42017785D01*
X91742821Y-42181715D01*
X91742818Y-42181722D01*
X91690671Y-42342216D01*
X91684326Y-42361744D01*
X91664540Y-42550000D01*
X89373499Y-42550000D01*
X89465871Y-42482888D01*
X89592533Y-42342216D01*
X89687179Y-42178284D01*
X89745674Y-41998256D01*
X89765460Y-41810000D01*
X89745674Y-41621744D01*
X89687179Y-41441716D01*
X89592533Y-41277784D01*
X89465871Y-41137112D01*
X89465870Y-41137111D01*
X89312734Y-41025851D01*
X89312729Y-41025848D01*
X89139807Y-40948857D01*
X89139802Y-40948855D01*
X88994001Y-40917865D01*
X88954646Y-40909500D01*
X88765354Y-40909500D01*
X88732897Y-40916398D01*
X88580197Y-40948855D01*
X88580192Y-40948857D01*
X88407270Y-41025848D01*
X88407265Y-41025851D01*
X88254129Y-41137111D01*
X88127466Y-41277785D01*
X88032821Y-41441715D01*
X88032818Y-41441721D01*
X88002895Y-41533818D01*
X87963458Y-41591494D01*
X87899099Y-41618692D01*
X87884964Y-41619500D01*
X87875354Y-41619500D01*
X87864816Y-41621740D01*
X87690197Y-41658855D01*
X87690192Y-41658857D01*
X87517270Y-41735848D01*
X87517265Y-41735851D01*
X87364129Y-41847111D01*
X87237466Y-41987785D01*
X87142821Y-42151715D01*
X87142818Y-42151722D01*
X87084327Y-42331740D01*
X87084326Y-42331744D01*
X87064540Y-42520000D01*
X82431568Y-42520000D01*
X82442226Y-41621740D01*
X82453972Y-40631742D01*
X82453971Y-40631740D01*
X82453972Y-40631732D01*
X82442975Y-40520700D01*
X82431670Y-40467480D01*
X82396578Y-40361553D01*
X82318535Y-40240677D01*
X82272669Y-40187970D01*
X82264300Y-40180749D01*
X82163742Y-40093984D01*
X82163740Y-40093983D01*
X82032739Y-40034488D01*
X81965654Y-40014942D01*
X81823195Y-39994765D01*
X81823194Y-39994765D01*
X81773824Y-39994868D01*
X58323266Y-40044238D01*
X58323257Y-40044239D01*
X58215184Y-40056162D01*
X58215179Y-40056163D01*
X58163388Y-40067616D01*
X58163380Y-40067619D01*
X58060353Y-40102380D01*
X58060349Y-40102382D01*
X57939692Y-40180743D01*
X57939677Y-40180754D01*
X57887099Y-40226756D01*
X57793405Y-40335935D01*
X57734265Y-40467083D01*
X57734257Y-40467103D01*
X57714895Y-40534226D01*
X57714893Y-40534237D01*
X57695100Y-40676742D01*
X57695100Y-40676748D01*
X57709631Y-43713857D01*
X57712436Y-44299998D01*
X57712436Y-44300009D01*
X57712435Y-44300009D01*
X57712447Y-44302393D01*
X57712447Y-44302419D01*
X57712448Y-44302419D01*
X57715506Y-44941498D01*
X57718054Y-45474135D01*
X57726073Y-47149998D01*
X57726073Y-47150009D01*
X57726072Y-47150009D01*
X57726084Y-47152393D01*
X57726084Y-47152419D01*
X57726085Y-47152419D01*
X57729097Y-47782070D01*
X57732963Y-48590002D01*
X57732963Y-48590013D01*
X57732962Y-48590013D01*
X57732974Y-48592392D01*
X57732974Y-48592419D01*
X57732975Y-48592419D01*
X57733911Y-48788007D01*
X57741432Y-50359998D01*
X57741432Y-50360003D01*
X57741479Y-50369912D01*
X57722112Y-50437044D01*
X57669526Y-50483049D01*
X57617480Y-50494500D01*
X55624000Y-50494500D01*
X55623991Y-50494500D01*
X55623990Y-50494501D01*
X55516549Y-50506052D01*
X55516537Y-50506054D01*
X55465027Y-50517260D01*
X55362502Y-50551383D01*
X55362496Y-50551386D01*
X55241462Y-50629171D01*
X55241451Y-50629179D01*
X55188659Y-50674923D01*
X55094433Y-50783664D01*
X55094430Y-50783668D01*
X55034663Y-50914537D01*
X55024252Y-50949995D01*
X55024251Y-50949998D01*
X55014978Y-50981574D01*
X55014975Y-50981585D01*
X54994500Y-51124001D01*
X54994500Y-69852149D01*
X54974815Y-69919188D01*
X54922011Y-69964943D01*
X54870832Y-69976149D01*
X46109419Y-69999639D01*
X46042327Y-69980134D01*
X45996431Y-69927453D01*
X45985087Y-69875560D01*
X45988460Y-64750005D01*
X49117277Y-64750005D01*
X49136134Y-64977580D01*
X49136136Y-64977592D01*
X49192196Y-65198967D01*
X49283930Y-65408102D01*
X49408834Y-65599283D01*
X49408837Y-65599286D01*
X49563507Y-65767302D01*
X49743722Y-65907569D01*
X49944566Y-66016261D01*
X50160562Y-66090412D01*
X50385816Y-66128000D01*
X50614184Y-66128000D01*
X50839438Y-66090412D01*
X51055434Y-66016261D01*
X51256278Y-65907569D01*
X51436493Y-65767302D01*
X51591163Y-65599286D01*
X51716069Y-65408103D01*
X51807803Y-65198969D01*
X51863864Y-64977589D01*
X51882723Y-64750000D01*
X51863864Y-64522411D01*
X51807803Y-64301031D01*
X51716069Y-64091897D01*
X51693642Y-64057570D01*
X51591165Y-63900716D01*
X51571321Y-63879160D01*
X51436493Y-63732698D01*
X51256278Y-63592431D01*
X51256276Y-63592430D01*
X51256275Y-63592429D01*
X51055435Y-63483739D01*
X51055430Y-63483737D01*
X50839440Y-63409588D01*
X50614184Y-63372000D01*
X50385816Y-63372000D01*
X50160559Y-63409588D01*
X49944569Y-63483737D01*
X49944564Y-63483739D01*
X49743724Y-63592429D01*
X49563508Y-63732697D01*
X49408834Y-63900716D01*
X49283930Y-64091897D01*
X49192196Y-64301032D01*
X49136136Y-64522407D01*
X49136134Y-64522419D01*
X49117277Y-64749994D01*
X49117277Y-64750005D01*
X45988460Y-64750005D01*
X45995000Y-54810000D01*
X46017462Y-37750000D01*
X87674540Y-37750000D01*
X87694326Y-37938256D01*
X87694327Y-37938259D01*
X87752818Y-38118277D01*
X87752821Y-38118284D01*
X87847467Y-38282216D01*
X87974129Y-38422888D01*
X88127265Y-38534148D01*
X88127270Y-38534151D01*
X88300192Y-38611142D01*
X88300197Y-38611144D01*
X88485354Y-38650500D01*
X88485355Y-38650500D01*
X88674644Y-38650500D01*
X88674646Y-38650500D01*
X88859803Y-38611144D01*
X89032730Y-38534151D01*
X89185871Y-38422888D01*
X89312533Y-38282216D01*
X89407179Y-38118284D01*
X89445610Y-38000005D01*
X102867277Y-38000005D01*
X102886134Y-38227580D01*
X102886136Y-38227592D01*
X102942196Y-38448967D01*
X103033930Y-38658102D01*
X103158834Y-38849283D01*
X103158837Y-38849286D01*
X103313507Y-39017302D01*
X103493722Y-39157569D01*
X103694566Y-39266261D01*
X103910562Y-39340412D01*
X104135816Y-39378000D01*
X104364184Y-39378000D01*
X104589438Y-39340412D01*
X104805434Y-39266261D01*
X105006278Y-39157569D01*
X105186493Y-39017302D01*
X105341163Y-38849286D01*
X105466069Y-38658103D01*
X105557803Y-38448969D01*
X105613864Y-38227589D01*
X105613865Y-38227580D01*
X105632723Y-38000005D01*
X105632723Y-37999994D01*
X105613865Y-37772419D01*
X105613863Y-37772407D01*
X105557803Y-37551032D01*
X105466069Y-37341897D01*
X105341165Y-37150716D01*
X105284211Y-37088848D01*
X105186493Y-36982698D01*
X105006278Y-36842431D01*
X105006276Y-36842430D01*
X105006275Y-36842429D01*
X104805435Y-36733739D01*
X104805430Y-36733737D01*
X104589440Y-36659588D01*
X104364184Y-36622000D01*
X104135816Y-36622000D01*
X103910559Y-36659588D01*
X103694569Y-36733737D01*
X103694564Y-36733739D01*
X103493724Y-36842429D01*
X103313508Y-36982697D01*
X103158834Y-37150716D01*
X103033930Y-37341897D01*
X102942196Y-37551032D01*
X102886136Y-37772407D01*
X102886134Y-37772419D01*
X102867277Y-37999994D01*
X102867277Y-38000005D01*
X89445610Y-38000005D01*
X89465674Y-37938256D01*
X89485460Y-37750000D01*
X89465674Y-37561744D01*
X89407179Y-37381716D01*
X89405433Y-37377795D01*
X89396143Y-37308546D01*
X89425768Y-37245267D01*
X89426507Y-37244438D01*
X89482533Y-37182216D01*
X89577179Y-37018284D01*
X89635674Y-36838256D01*
X89655460Y-36650000D01*
X89635674Y-36461744D01*
X89577179Y-36281716D01*
X89482533Y-36117784D01*
X89355871Y-35977112D01*
X89355870Y-35977111D01*
X89202734Y-35865851D01*
X89202729Y-35865848D01*
X89029807Y-35788857D01*
X89029802Y-35788855D01*
X88884001Y-35757865D01*
X88844646Y-35749500D01*
X88655354Y-35749500D01*
X88622897Y-35756398D01*
X88470197Y-35788855D01*
X88470192Y-35788857D01*
X88297270Y-35865848D01*
X88297265Y-35865851D01*
X88144129Y-35977111D01*
X88017466Y-36117785D01*
X87922821Y-36281715D01*
X87922818Y-36281722D01*
X87864327Y-36461740D01*
X87864326Y-36461744D01*
X87844540Y-36650000D01*
X87864326Y-36838256D01*
X87864327Y-36838259D01*
X87922818Y-37018277D01*
X87924567Y-37022204D01*
X87933855Y-37091453D01*
X87904231Y-37154732D01*
X87903441Y-37155617D01*
X87847466Y-37217785D01*
X87752821Y-37381715D01*
X87752818Y-37381722D01*
X87694327Y-37561740D01*
X87694326Y-37561744D01*
X87674540Y-37750000D01*
X46017462Y-37750000D01*
X46024837Y-32148749D01*
X46044610Y-32081736D01*
X46097474Y-32036051D01*
X46148749Y-32024913D01*
X47371052Y-32024053D01*
X73472556Y-32005708D01*
X73472556Y-32005709D01*
X73472603Y-32005707D01*
X73473421Y-32005707D01*
X109878465Y-32000019D01*
X109945506Y-32019693D01*
G37*
G04 #@! TD.AperFunction*
M02*
