G04 #@! TF.GenerationSoftware,KiCad,Pcbnew,8.0.1*
G04 #@! TF.CreationDate,2024-04-29T17:35:38+03:00*
G04 #@! TF.ProjectId,esc,6573632e-6b69-4636-9164-5f7063625858,rev?*
G04 #@! TF.SameCoordinates,Original*
G04 #@! TF.FileFunction,Copper,L4,Bot*
G04 #@! TF.FilePolarity,Positive*
%FSLAX46Y46*%
G04 Gerber Fmt 4.6, Leading zero omitted, Abs format (unit mm)*
G04 Created by KiCad (PCBNEW 8.0.1) date 2024-04-29 17:35:38*
%MOMM*%
%LPD*%
G01*
G04 APERTURE LIST*
G04 #@! TA.AperFunction,ComponentPad*
%ADD10C,1.755000*%
G04 #@! TD*
G04 #@! TA.AperFunction,ComponentPad*
%ADD11R,1.700000X1.700000*%
G04 #@! TD*
G04 #@! TA.AperFunction,ComponentPad*
%ADD12O,1.700000X1.700000*%
G04 #@! TD*
G04 #@! TA.AperFunction,ViaPad*
%ADD13C,0.800000*%
G04 #@! TD*
G04 #@! TA.AperFunction,Conductor*
%ADD14C,0.250000*%
G04 #@! TD*
G04 APERTURE END LIST*
D10*
X104250000Y-62900000D03*
X104250000Y-50600000D03*
X104250000Y-38000000D03*
X50500000Y-64750000D03*
X50750000Y-55550000D03*
D11*
X84460000Y-67850000D03*
D12*
X81920000Y-67850000D03*
X79380000Y-67850000D03*
X76840000Y-67850000D03*
X74300000Y-67850000D03*
X71760000Y-67850000D03*
D11*
X68065000Y-65385000D03*
D12*
X68065000Y-67925000D03*
X65525000Y-65385000D03*
X65525000Y-67925000D03*
X62985000Y-65385000D03*
X62985000Y-67925000D03*
X60445000Y-65385000D03*
X60445000Y-67925000D03*
X57905000Y-65385000D03*
X57905000Y-67925000D03*
D13*
X72750000Y-64750000D03*
X72810000Y-56870000D03*
X61200000Y-61925000D03*
X81175000Y-45900000D03*
X75625000Y-55875000D03*
X58050000Y-63150000D03*
X80725000Y-58400000D03*
X81225000Y-43850000D03*
X58625000Y-53775000D03*
X71800000Y-64750000D03*
X73850000Y-48400000D03*
X61600000Y-48590000D03*
X71975000Y-52550000D03*
X70630000Y-61380000D03*
X94800000Y-43500000D03*
X89780000Y-54410000D03*
X92570000Y-42550000D03*
X89680000Y-45460000D03*
X84520000Y-53790000D03*
X95100000Y-56075000D03*
X90700000Y-56000000D03*
X93100000Y-56000000D03*
X60110803Y-58311500D03*
X93900000Y-44575000D03*
X88580000Y-37750000D03*
X63350000Y-44300000D03*
X62188300Y-53285603D03*
X75240000Y-54076500D03*
X63541034Y-52658966D03*
X78970000Y-44180000D03*
X65493000Y-52350000D03*
X76950000Y-50360000D03*
X76278534Y-57496466D03*
X61683196Y-54068873D03*
X62825000Y-50950000D03*
X72925000Y-59075000D03*
X79070000Y-51160000D03*
X72075000Y-61475000D03*
X64350000Y-52150000D03*
X75450000Y-44941500D03*
X94100000Y-53225000D03*
X88860000Y-41810000D03*
X88660000Y-53230000D03*
X89114491Y-51688500D03*
X83350000Y-54000000D03*
X84240000Y-52060000D03*
X87970000Y-42520000D03*
X93660000Y-65875000D03*
X60845653Y-58963000D03*
X98575000Y-58400000D03*
X67338000Y-53800000D03*
X75700000Y-46330000D03*
X75540000Y-48910000D03*
X76900000Y-44031500D03*
X70760000Y-51630000D03*
X81127500Y-49600000D03*
X90760000Y-49640000D03*
X81610000Y-48230500D03*
X90414256Y-48665517D03*
X77398000Y-56452221D03*
X89530000Y-48340000D03*
X89090000Y-46670000D03*
X77634138Y-44838777D03*
X88086095Y-46688479D03*
X80740000Y-53060000D03*
X79620000Y-56080000D03*
X87170000Y-46550000D03*
X57688500Y-61440000D03*
X57620000Y-57659500D03*
X59400000Y-57660000D03*
X61850000Y-60590000D03*
X88750000Y-36650000D03*
X63391500Y-60650000D03*
X91650000Y-55125000D03*
X92330000Y-66690000D03*
X90200000Y-67420000D03*
X67450000Y-63500000D03*
X64337272Y-60651336D03*
X67525000Y-59125000D03*
X62875000Y-47150000D03*
D14*
X56200000Y-62006432D02*
X59243432Y-58963000D01*
X56200000Y-68550000D02*
X56200000Y-62006432D01*
X56750000Y-69100000D02*
X56200000Y-68550000D01*
X94270000Y-69100000D02*
X56750000Y-69100000D01*
X59243432Y-58963000D02*
X60845653Y-58963000D01*
X98575000Y-64795000D02*
X94270000Y-69100000D01*
X98575000Y-58400000D02*
X98575000Y-64795000D01*
X61850000Y-59045279D02*
X61850000Y-60590000D01*
X56640000Y-53835279D02*
X61850000Y-59045279D01*
X56640000Y-52260000D02*
X56640000Y-53835279D01*
X65897000Y-43003000D02*
X56640000Y-52260000D01*
X86117000Y-43003000D02*
X65897000Y-43003000D01*
X87350000Y-41770000D02*
X86117000Y-43003000D01*
X88300000Y-36650000D02*
X87350000Y-37600000D01*
X88750000Y-36650000D02*
X88300000Y-36650000D01*
X87350000Y-37600000D02*
X87350000Y-41770000D01*
X64350000Y-52150000D02*
X64350000Y-52137932D01*
X64350000Y-52137932D02*
X71546432Y-44941500D01*
X71546432Y-44941500D02*
X75450000Y-44941500D01*
X63541034Y-51368966D02*
X71530000Y-43380000D01*
X63541034Y-52658966D02*
X63541034Y-51368966D01*
X71530000Y-43380000D02*
X78170000Y-43380000D01*
X78170000Y-43380000D02*
X78970000Y-44180000D01*
X74750000Y-51160000D02*
X79070000Y-51160000D01*
X71417000Y-54493000D02*
X74750000Y-51160000D01*
X64453000Y-54493000D02*
X71417000Y-54493000D01*
X62800000Y-52840000D02*
X64453000Y-54493000D01*
X62800000Y-50975000D02*
X62800000Y-52840000D01*
X62825000Y-50950000D02*
X62800000Y-50975000D01*
X66661090Y-50360000D02*
X76950000Y-50360000D01*
X65493000Y-51528090D02*
X66661090Y-50360000D01*
X65493000Y-52350000D02*
X65493000Y-51528090D01*
X91412000Y-47192000D02*
X89680000Y-45460000D01*
X91412000Y-52778000D02*
X91412000Y-47192000D01*
X93850000Y-42550000D02*
X94800000Y-43500000D01*
X92570000Y-42550000D02*
X93850000Y-42550000D01*
X89780000Y-54410000D02*
X91412000Y-52778000D01*
X90700000Y-56000000D02*
X86730000Y-56000000D01*
X95025000Y-56000000D02*
X93100000Y-56000000D01*
X95100000Y-56075000D02*
X95025000Y-56000000D01*
X86730000Y-56000000D02*
X84520000Y-53790000D01*
X56263000Y-52103842D02*
X56263000Y-57224568D01*
X57349932Y-58311500D02*
X60110803Y-58311500D01*
X63350000Y-44300000D02*
X63350000Y-45016842D01*
X93672932Y-44575000D02*
X88580000Y-39482068D01*
X63350000Y-45016842D02*
X56263000Y-52103842D01*
X56263000Y-57224568D02*
X57349932Y-58311500D01*
X93900000Y-44575000D02*
X93672932Y-44575000D01*
X88580000Y-39482068D02*
X88580000Y-37750000D01*
X63772697Y-54870000D02*
X74446500Y-54870000D01*
X62188300Y-53285603D02*
X63772697Y-54870000D01*
X74446500Y-54870000D02*
X75240000Y-54076500D01*
X76278534Y-57496466D02*
X75496466Y-57496466D01*
X62861323Y-55247000D02*
X61683196Y-54068873D01*
X73247000Y-55247000D02*
X62861323Y-55247000D01*
X75496466Y-57496466D02*
X73247000Y-55247000D01*
X72925000Y-59075000D02*
X73100000Y-58900000D01*
X68065000Y-65385000D02*
X69165000Y-65385000D01*
X76949355Y-57747713D02*
X76949355Y-56925644D01*
X76746000Y-56722289D02*
X76746000Y-53484000D01*
X75797068Y-58900000D02*
X76949355Y-57747713D01*
X76949355Y-56925644D02*
X76746000Y-56722289D01*
X69165000Y-65385000D02*
X72075000Y-62475000D01*
X73100000Y-58900000D02*
X75797068Y-58900000D01*
X76746000Y-53484000D02*
X79070000Y-51160000D01*
X72075000Y-62475000D02*
X72075000Y-61475000D01*
X92802000Y-51927000D02*
X92802000Y-46429932D01*
X92802000Y-46429932D02*
X88182068Y-41810000D01*
X88182068Y-41810000D02*
X88860000Y-41810000D01*
X94100000Y-53225000D02*
X92802000Y-51927000D01*
X88660000Y-53230000D02*
X88660000Y-52142991D01*
X88660000Y-52142991D02*
X89114491Y-51688500D01*
X84240000Y-53110000D02*
X83350000Y-54000000D01*
X84240000Y-52060000D02*
X84240000Y-53110000D01*
X92425000Y-46975000D02*
X87970000Y-42520000D01*
X93660000Y-65875000D02*
X92425000Y-64640000D01*
X92425000Y-64640000D02*
X92425000Y-46975000D01*
X76900000Y-44031500D02*
X76690000Y-44241500D01*
X75700000Y-46330000D02*
X75700000Y-48750000D01*
X67338000Y-53800000D02*
X68600000Y-53800000D01*
X76690000Y-44241500D02*
X76690000Y-47760000D01*
X75700000Y-48750000D02*
X75635000Y-48815000D01*
X70760000Y-51640000D02*
X70760000Y-51630000D01*
X68600000Y-53800000D02*
X70760000Y-51640000D01*
X76690000Y-47760000D02*
X75635000Y-48815000D01*
X75540000Y-48910000D02*
X75635000Y-48815000D01*
X82352568Y-49600000D02*
X83619568Y-48333000D01*
X81127500Y-49600000D02*
X82352568Y-49600000D01*
X88067774Y-48333000D02*
X89374774Y-49640000D01*
X83619568Y-48333000D02*
X88067774Y-48333000D01*
X89374774Y-49640000D02*
X90760000Y-49640000D01*
X81610000Y-48230500D02*
X81884500Y-47956000D01*
X88223932Y-47956000D02*
X89259932Y-48992000D01*
X81884500Y-47956000D02*
X88223932Y-47956000D01*
X89259932Y-48992000D02*
X90087773Y-48992000D01*
X90087773Y-48992000D02*
X90414256Y-48665517D01*
X79482068Y-57140000D02*
X81392000Y-55230068D01*
X80476000Y-47814000D02*
X80711000Y-47579000D01*
X77398000Y-56452221D02*
X77398000Y-56558000D01*
X88769000Y-47579000D02*
X89530000Y-48340000D01*
X80711000Y-47579000D02*
X88769000Y-47579000D01*
X81392000Y-52789932D02*
X80476000Y-51873932D01*
X77398000Y-56558000D02*
X77980000Y-57140000D01*
X81392000Y-55230068D02*
X81392000Y-52789932D01*
X77980000Y-57140000D02*
X79482068Y-57140000D01*
X80476000Y-51873932D02*
X80476000Y-47814000D01*
X88738095Y-46418411D02*
X87158461Y-44838777D01*
X87158461Y-44838777D02*
X77634138Y-44838777D01*
X89090000Y-46670000D02*
X88838411Y-46418411D01*
X88838411Y-46418411D02*
X88738095Y-46418411D01*
X80378000Y-47202000D02*
X87572574Y-47202000D01*
X80099000Y-47481000D02*
X80378000Y-47202000D01*
X80740000Y-53060000D02*
X80099000Y-52419000D01*
X80099000Y-52419000D02*
X80099000Y-47481000D01*
X87572574Y-47202000D02*
X88086095Y-46688479D01*
X79722000Y-55978000D02*
X79620000Y-56080000D01*
X79722000Y-47218000D02*
X79722000Y-55978000D01*
X87170000Y-46550000D02*
X86908160Y-46811840D01*
X80128160Y-46811840D02*
X79722000Y-47218000D01*
X86908160Y-46811840D02*
X80128160Y-46811840D01*
X57688500Y-61440000D02*
X57688500Y-61888500D01*
X57620500Y-57660000D02*
X59400000Y-57660000D01*
X61775000Y-64500000D02*
X61775000Y-66075000D01*
X59525000Y-62250000D02*
X61775000Y-64500000D01*
X59258000Y-57802000D02*
X59400000Y-57660000D01*
X61775000Y-66075000D02*
X62400000Y-66700000D01*
X62400000Y-66700000D02*
X80770000Y-66700000D01*
X57688500Y-61888500D02*
X58050000Y-62250000D01*
X57620000Y-57659500D02*
X57620500Y-57660000D01*
X80770000Y-66700000D02*
X81920000Y-67850000D01*
X58050000Y-62250000D02*
X59525000Y-62250000D01*
X91650000Y-57332068D02*
X88982732Y-59999336D01*
X88982732Y-59999336D02*
X64067204Y-59999336D01*
X64067204Y-59999336D02*
X63416540Y-60650000D01*
X63416540Y-60650000D02*
X63391500Y-60650000D01*
X91650000Y-55125000D02*
X91650000Y-57332068D01*
X67450000Y-62295536D02*
X65805800Y-60651336D01*
X67450000Y-63500000D02*
X67450000Y-62295536D01*
X90200000Y-67420000D02*
X91600000Y-67420000D01*
X65805800Y-60651336D02*
X64337272Y-60651336D01*
X91600000Y-67420000D02*
X92330000Y-66690000D01*
X60675000Y-51575000D02*
X62875000Y-49375000D01*
X64550000Y-59125000D02*
X60675000Y-55250000D01*
X62875000Y-49375000D02*
X62875000Y-47150000D01*
X60675000Y-55250000D02*
X60675000Y-51575000D01*
X67525000Y-59125000D02*
X64550000Y-59125000D01*
G04 #@! TA.AperFunction,Conductor*
G36*
X59259855Y-66051546D02*
G01*
X59276575Y-66070842D01*
X59376913Y-66214140D01*
X59406505Y-66256401D01*
X59573599Y-66423495D01*
X59645346Y-66473733D01*
X59767165Y-66559032D01*
X59767167Y-66559033D01*
X59767170Y-66559035D01*
X59981337Y-66658903D01*
X59981343Y-66658904D01*
X59981344Y-66658905D01*
X60021446Y-66669650D01*
X60209592Y-66720063D01*
X60397918Y-66736539D01*
X60444999Y-66740659D01*
X60445000Y-66740659D01*
X60445001Y-66740659D01*
X60484234Y-66737226D01*
X60680408Y-66720063D01*
X60908663Y-66658903D01*
X61122830Y-66559035D01*
X61138750Y-66547888D01*
X61185588Y-66515091D01*
X61251793Y-66492763D01*
X61319561Y-66509772D01*
X61344393Y-66528984D01*
X61383332Y-66567923D01*
X61383337Y-66567927D01*
X61914141Y-67098732D01*
X61914142Y-67098733D01*
X61987580Y-67172171D01*
X62001269Y-67185860D01*
X62001271Y-67185861D01*
X62078626Y-67237548D01*
X62078627Y-67237548D01*
X62078628Y-67237549D01*
X62103714Y-67254311D01*
X62217548Y-67301463D01*
X62338388Y-67325499D01*
X62338392Y-67325500D01*
X62338393Y-67325500D01*
X62338394Y-67325500D01*
X66665894Y-67325500D01*
X66732933Y-67345185D01*
X66778688Y-67397989D01*
X66788632Y-67467147D01*
X66785669Y-67481593D01*
X66729938Y-67689586D01*
X66729936Y-67689596D01*
X66709341Y-67924999D01*
X66709341Y-67925000D01*
X66729936Y-68160403D01*
X66729938Y-68160413D01*
X66772272Y-68318407D01*
X66770609Y-68388257D01*
X66731446Y-68446119D01*
X66667218Y-68473623D01*
X66652497Y-68474500D01*
X57060453Y-68474500D01*
X56993414Y-68454815D01*
X56972772Y-68438181D01*
X56861819Y-68327228D01*
X56828334Y-68265905D01*
X56825500Y-68239547D01*
X56825500Y-66514758D01*
X56845185Y-66447719D01*
X56897989Y-66401964D01*
X56967147Y-66392020D01*
X57029178Y-66420348D01*
X57029456Y-66420018D01*
X57030652Y-66421021D01*
X57030703Y-66421045D01*
X57030914Y-66421241D01*
X57033591Y-66423487D01*
X57033599Y-66423495D01*
X57105346Y-66473733D01*
X57227165Y-66559032D01*
X57227167Y-66559033D01*
X57227170Y-66559035D01*
X57441337Y-66658903D01*
X57441343Y-66658904D01*
X57441344Y-66658905D01*
X57481446Y-66669650D01*
X57669592Y-66720063D01*
X57857918Y-66736539D01*
X57904999Y-66740659D01*
X57905000Y-66740659D01*
X57905001Y-66740659D01*
X57944234Y-66737226D01*
X58140408Y-66720063D01*
X58368663Y-66658903D01*
X58582830Y-66559035D01*
X58776401Y-66423495D01*
X58943495Y-66256401D01*
X59073425Y-66070842D01*
X59128002Y-66027217D01*
X59197500Y-66020023D01*
X59259855Y-66051546D01*
G37*
G04 #@! TD.AperFunction*
G04 #@! TA.AperFunction,Conductor*
G36*
X72947837Y-67345185D02*
G01*
X72993592Y-67397989D01*
X73003536Y-67467147D01*
X73000573Y-67481593D01*
X72964938Y-67614586D01*
X72964936Y-67614596D01*
X72944341Y-67849999D01*
X72944341Y-67850000D01*
X72964936Y-68085403D01*
X72964938Y-68085413D01*
X73027368Y-68318407D01*
X73025705Y-68388257D01*
X72986542Y-68446119D01*
X72922314Y-68473623D01*
X72907593Y-68474500D01*
X69477503Y-68474500D01*
X69410464Y-68454815D01*
X69364709Y-68402011D01*
X69354765Y-68332853D01*
X69357728Y-68318407D01*
X69370887Y-68269297D01*
X69400063Y-68160408D01*
X69420659Y-67925000D01*
X69400063Y-67689592D01*
X69373512Y-67590500D01*
X69344331Y-67481593D01*
X69345994Y-67411743D01*
X69385157Y-67353881D01*
X69449386Y-67326377D01*
X69464106Y-67325500D01*
X72880798Y-67325500D01*
X72947837Y-67345185D01*
G37*
G04 #@! TD.AperFunction*
G04 #@! TA.AperFunction,Conductor*
G36*
X91718834Y-58250337D02*
G01*
X91774767Y-58292209D01*
X91799184Y-58357673D01*
X91799500Y-58366519D01*
X91799500Y-64701606D01*
X91811014Y-64759497D01*
X91818332Y-64796285D01*
X91818332Y-64796287D01*
X91823535Y-64822444D01*
X91823536Y-64822446D01*
X91823537Y-64822451D01*
X91855820Y-64900391D01*
X91870688Y-64936287D01*
X91896223Y-64974500D01*
X91896224Y-64974502D01*
X91939141Y-65038733D01*
X92030586Y-65130178D01*
X92030608Y-65130198D01*
X92478229Y-65577819D01*
X92511714Y-65639142D01*
X92506730Y-65708834D01*
X92464858Y-65764767D01*
X92399394Y-65789184D01*
X92390548Y-65789500D01*
X92235354Y-65789500D01*
X92202897Y-65796398D01*
X92050197Y-65828855D01*
X92050192Y-65828857D01*
X91877270Y-65905848D01*
X91877265Y-65905851D01*
X91724129Y-66017111D01*
X91597466Y-66157785D01*
X91502821Y-66321715D01*
X91502818Y-66321722D01*
X91444327Y-66501740D01*
X91444326Y-66501744D01*
X91427808Y-66658905D01*
X91426679Y-66669650D01*
X91400094Y-66734264D01*
X91391042Y-66744366D01*
X91377231Y-66758178D01*
X91315909Y-66791665D01*
X91289547Y-66794500D01*
X90903748Y-66794500D01*
X90836709Y-66774815D01*
X90811600Y-66753474D01*
X90805873Y-66747114D01*
X90805869Y-66747110D01*
X90652734Y-66635851D01*
X90652729Y-66635848D01*
X90479807Y-66558857D01*
X90479802Y-66558855D01*
X90334001Y-66527865D01*
X90294646Y-66519500D01*
X90105354Y-66519500D01*
X90072897Y-66526398D01*
X89920197Y-66558855D01*
X89920192Y-66558857D01*
X89747270Y-66635848D01*
X89747265Y-66635851D01*
X89594129Y-66747111D01*
X89467466Y-66887785D01*
X89372821Y-67051715D01*
X89372818Y-67051722D01*
X89317422Y-67222216D01*
X89314326Y-67231744D01*
X89294540Y-67420000D01*
X89314326Y-67608256D01*
X89314327Y-67608259D01*
X89372818Y-67788277D01*
X89372821Y-67788284D01*
X89467467Y-67952216D01*
X89588401Y-68086526D01*
X89594129Y-68092888D01*
X89747265Y-68204148D01*
X89747270Y-68204151D01*
X89821545Y-68237221D01*
X89874782Y-68282471D01*
X89895103Y-68349321D01*
X89876057Y-68416544D01*
X89823691Y-68462799D01*
X89771109Y-68474500D01*
X85934500Y-68474500D01*
X85867461Y-68454815D01*
X85821706Y-68402011D01*
X85810500Y-68350500D01*
X85810499Y-66952129D01*
X85810498Y-66952123D01*
X85804091Y-66892516D01*
X85753797Y-66757671D01*
X85753793Y-66757664D01*
X85667547Y-66642455D01*
X85667544Y-66642452D01*
X85552335Y-66556206D01*
X85552328Y-66556202D01*
X85417482Y-66505908D01*
X85417483Y-66505908D01*
X85357883Y-66499501D01*
X85357881Y-66499500D01*
X85357873Y-66499500D01*
X85357864Y-66499500D01*
X83562129Y-66499500D01*
X83562123Y-66499501D01*
X83502516Y-66505908D01*
X83367671Y-66556202D01*
X83367664Y-66556206D01*
X83252455Y-66642452D01*
X83252452Y-66642455D01*
X83166206Y-66757664D01*
X83166203Y-66757669D01*
X83117189Y-66889083D01*
X83075317Y-66945016D01*
X83009853Y-66969433D01*
X82941580Y-66954581D01*
X82913326Y-66933430D01*
X82791402Y-66811506D01*
X82791395Y-66811501D01*
X82763066Y-66791665D01*
X82714518Y-66757671D01*
X82597834Y-66675967D01*
X82597830Y-66675965D01*
X82561245Y-66658905D01*
X82383663Y-66576097D01*
X82383659Y-66576096D01*
X82383655Y-66576094D01*
X82155413Y-66514938D01*
X82155403Y-66514936D01*
X81920001Y-66494341D01*
X81919999Y-66494341D01*
X81684596Y-66514936D01*
X81684586Y-66514938D01*
X81584126Y-66541856D01*
X81514276Y-66540193D01*
X81464352Y-66509762D01*
X81262928Y-66308338D01*
X81262925Y-66308334D01*
X81262925Y-66308335D01*
X81255858Y-66301268D01*
X81255858Y-66301267D01*
X81168733Y-66214142D01*
X81168732Y-66214141D01*
X81168731Y-66214140D01*
X81104595Y-66171286D01*
X81104594Y-66171285D01*
X81066290Y-66145690D01*
X81066286Y-66145688D01*
X80978354Y-66109266D01*
X80978352Y-66109264D01*
X80952455Y-66098538D01*
X80952453Y-66098537D01*
X80952452Y-66098537D01*
X80892029Y-66086518D01*
X80831610Y-66074500D01*
X80831607Y-66074500D01*
X80831606Y-66074500D01*
X69659454Y-66074500D01*
X69592415Y-66054815D01*
X69546660Y-66002011D01*
X69536716Y-65932853D01*
X69565741Y-65869297D01*
X69571772Y-65862819D01*
X69605736Y-65828855D01*
X69650858Y-65783733D01*
X69650858Y-65783731D01*
X69661066Y-65773524D01*
X69661067Y-65773521D01*
X72560857Y-62873734D01*
X72629311Y-62771286D01*
X72676463Y-62657452D01*
X72700500Y-62536607D01*
X72700500Y-62413394D01*
X72700500Y-62173687D01*
X72720185Y-62106648D01*
X72732350Y-62090715D01*
X72768367Y-62050714D01*
X72807533Y-62007216D01*
X72807534Y-62007213D01*
X72807536Y-62007212D01*
X72846196Y-61940248D01*
X72902179Y-61843284D01*
X72960674Y-61663256D01*
X72980460Y-61475000D01*
X72960674Y-61286744D01*
X72902179Y-61106716D01*
X72807533Y-60942784D01*
X72707607Y-60831805D01*
X72677379Y-60768817D01*
X72686004Y-60699482D01*
X72730745Y-60645816D01*
X72797398Y-60624858D01*
X72799759Y-60624836D01*
X89044339Y-60624836D01*
X89104761Y-60612817D01*
X89165184Y-60600799D01*
X89218159Y-60578856D01*
X89279018Y-60553648D01*
X89330241Y-60519420D01*
X89381465Y-60485194D01*
X89468590Y-60398069D01*
X89468590Y-60398067D01*
X89478798Y-60387860D01*
X89478799Y-60387857D01*
X91587821Y-58278836D01*
X91649142Y-58245353D01*
X91718834Y-58250337D01*
G37*
G04 #@! TD.AperFunction*
G04 #@! TA.AperFunction,Conductor*
G36*
X57067575Y-62125958D02*
G01*
X57123509Y-62167829D01*
X57133599Y-62183685D01*
X57134185Y-62184781D01*
X57160492Y-62224151D01*
X57160493Y-62224153D01*
X57202641Y-62287232D01*
X57202644Y-62287236D01*
X57294086Y-62378678D01*
X57294108Y-62378698D01*
X57561016Y-62645606D01*
X57561045Y-62645637D01*
X57651263Y-62735855D01*
X57651267Y-62735858D01*
X57753707Y-62804307D01*
X57753713Y-62804310D01*
X57753714Y-62804311D01*
X57867548Y-62851463D01*
X57927971Y-62863481D01*
X57988393Y-62875500D01*
X57988394Y-62875500D01*
X59214548Y-62875500D01*
X59281587Y-62895185D01*
X59302229Y-62911819D01*
X60239713Y-63849304D01*
X60273198Y-63910627D01*
X60268214Y-63980319D01*
X60226342Y-64036252D01*
X60184125Y-64056760D01*
X59981344Y-64111094D01*
X59981335Y-64111098D01*
X59767171Y-64210964D01*
X59767169Y-64210965D01*
X59573597Y-64346505D01*
X59406505Y-64513597D01*
X59276575Y-64699158D01*
X59221998Y-64742783D01*
X59152500Y-64749977D01*
X59090145Y-64718454D01*
X59073425Y-64699158D01*
X58943494Y-64513597D01*
X58776402Y-64346506D01*
X58776395Y-64346501D01*
X58582834Y-64210967D01*
X58582830Y-64210965D01*
X58582828Y-64210964D01*
X58368663Y-64111097D01*
X58368659Y-64111096D01*
X58368655Y-64111094D01*
X58140413Y-64049938D01*
X58140403Y-64049936D01*
X57905001Y-64029341D01*
X57904999Y-64029341D01*
X57669596Y-64049936D01*
X57669586Y-64049938D01*
X57441344Y-64111094D01*
X57441335Y-64111098D01*
X57227171Y-64210964D01*
X57227169Y-64210965D01*
X57033594Y-64346508D01*
X57029449Y-64349986D01*
X57027813Y-64348036D01*
X56975858Y-64376407D01*
X56906166Y-64371423D01*
X56850233Y-64329551D01*
X56825816Y-64264087D01*
X56825500Y-64255241D01*
X56825500Y-62316883D01*
X56845185Y-62249844D01*
X56861810Y-62229211D01*
X56936565Y-62154456D01*
X56997883Y-62120974D01*
X57067575Y-62125958D01*
G37*
G04 #@! TD.AperFunction*
G04 #@! TA.AperFunction,Conductor*
G36*
X60208944Y-59608185D02*
G01*
X60234053Y-59629526D01*
X60239779Y-59635885D01*
X60239783Y-59635889D01*
X60392918Y-59747148D01*
X60392923Y-59747151D01*
X60565845Y-59824142D01*
X60565850Y-59824144D01*
X60751007Y-59863500D01*
X60751008Y-59863500D01*
X60940297Y-59863500D01*
X60940299Y-59863500D01*
X61002446Y-59850290D01*
X61072112Y-59855606D01*
X61127845Y-59897743D01*
X61151951Y-59963322D01*
X61136774Y-60031524D01*
X61120383Y-60054545D01*
X61117466Y-60057785D01*
X61022821Y-60221715D01*
X61022818Y-60221722D01*
X60968839Y-60387854D01*
X60964326Y-60401744D01*
X60944540Y-60590000D01*
X60964326Y-60778256D01*
X60964327Y-60778259D01*
X61022818Y-60958277D01*
X61022821Y-60958284D01*
X61117467Y-61122216D01*
X61198412Y-61212114D01*
X61244129Y-61262888D01*
X61397265Y-61374148D01*
X61397270Y-61374151D01*
X61570192Y-61451142D01*
X61570197Y-61451144D01*
X61755354Y-61490500D01*
X61755355Y-61490500D01*
X61944644Y-61490500D01*
X61944646Y-61490500D01*
X62129803Y-61451144D01*
X62302730Y-61374151D01*
X62455871Y-61262888D01*
X62501589Y-61212113D01*
X62561072Y-61175466D01*
X62630929Y-61176795D01*
X62685887Y-61212114D01*
X62785629Y-61322888D01*
X62938765Y-61434148D01*
X62938770Y-61434151D01*
X63111692Y-61511142D01*
X63111697Y-61511144D01*
X63296854Y-61550500D01*
X63296855Y-61550500D01*
X63486144Y-61550500D01*
X63486146Y-61550500D01*
X63671303Y-61511144D01*
X63752483Y-61475000D01*
X63812450Y-61448301D01*
X63881700Y-61439016D01*
X63913322Y-61448301D01*
X64057464Y-61512478D01*
X64057469Y-61512480D01*
X64242626Y-61551836D01*
X64242627Y-61551836D01*
X64431916Y-61551836D01*
X64431918Y-61551836D01*
X64617075Y-61512480D01*
X64790002Y-61435487D01*
X64943143Y-61324224D01*
X64946060Y-61320983D01*
X64948872Y-61317862D01*
X65008359Y-61281215D01*
X65041020Y-61276836D01*
X65495348Y-61276836D01*
X65562387Y-61296521D01*
X65583029Y-61313155D01*
X66788181Y-62518307D01*
X66821666Y-62579630D01*
X66824500Y-62605988D01*
X66824500Y-62801312D01*
X66804815Y-62868351D01*
X66792650Y-62884284D01*
X66717466Y-62967784D01*
X66622821Y-63131715D01*
X66622818Y-63131722D01*
X66564327Y-63311740D01*
X66564326Y-63311744D01*
X66544540Y-63500000D01*
X66564326Y-63688256D01*
X66564327Y-63688259D01*
X66622818Y-63868277D01*
X66622821Y-63868284D01*
X66717467Y-64032216D01*
X66779639Y-64101265D01*
X66785094Y-64107323D01*
X66815324Y-64170314D01*
X66806699Y-64239649D01*
X66792212Y-64264604D01*
X66771205Y-64292665D01*
X66771203Y-64292669D01*
X66722189Y-64424083D01*
X66680317Y-64480016D01*
X66614853Y-64504433D01*
X66546580Y-64489581D01*
X66518326Y-64468430D01*
X66396402Y-64346506D01*
X66396395Y-64346501D01*
X66202834Y-64210967D01*
X66202830Y-64210965D01*
X66202828Y-64210964D01*
X65988663Y-64111097D01*
X65988659Y-64111096D01*
X65988655Y-64111094D01*
X65760413Y-64049938D01*
X65760403Y-64049936D01*
X65525001Y-64029341D01*
X65524999Y-64029341D01*
X65289596Y-64049936D01*
X65289586Y-64049938D01*
X65061344Y-64111094D01*
X65061335Y-64111098D01*
X64847171Y-64210964D01*
X64847169Y-64210965D01*
X64653597Y-64346505D01*
X64486505Y-64513597D01*
X64356575Y-64699158D01*
X64301998Y-64742783D01*
X64232500Y-64749977D01*
X64170145Y-64718454D01*
X64153425Y-64699158D01*
X64023494Y-64513597D01*
X63856402Y-64346506D01*
X63856395Y-64346501D01*
X63662834Y-64210967D01*
X63662830Y-64210965D01*
X63662828Y-64210964D01*
X63448663Y-64111097D01*
X63448659Y-64111096D01*
X63448655Y-64111094D01*
X63220413Y-64049938D01*
X63220403Y-64049936D01*
X62985001Y-64029341D01*
X62984999Y-64029341D01*
X62749596Y-64049936D01*
X62749586Y-64049938D01*
X62521344Y-64111094D01*
X62521339Y-64111096D01*
X62424152Y-64156415D01*
X62355074Y-64166906D01*
X62291291Y-64138386D01*
X62268644Y-64112920D01*
X62267425Y-64111096D01*
X62260858Y-64101267D01*
X62260857Y-64101265D01*
X62260855Y-64101263D01*
X60017928Y-61858338D01*
X60017925Y-61858334D01*
X60017925Y-61858335D01*
X60010858Y-61851268D01*
X60010858Y-61851267D01*
X59923733Y-61764142D01*
X59923732Y-61764141D01*
X59923731Y-61764140D01*
X59872509Y-61729915D01*
X59821287Y-61695689D01*
X59821286Y-61695688D01*
X59821283Y-61695686D01*
X59821280Y-61695685D01*
X59740792Y-61662347D01*
X59707454Y-61648538D01*
X59707455Y-61648538D01*
X59707452Y-61648537D01*
X59707448Y-61648536D01*
X59707444Y-61648535D01*
X59633054Y-61633738D01*
X59633053Y-61633738D01*
X59586611Y-61624500D01*
X59586607Y-61624500D01*
X59586606Y-61624500D01*
X58712284Y-61624500D01*
X58645245Y-61604815D01*
X58599490Y-61552011D01*
X58588963Y-61487540D01*
X58593960Y-61440000D01*
X58574174Y-61251744D01*
X58515679Y-61071716D01*
X58421033Y-60907784D01*
X58387103Y-60870101D01*
X58356873Y-60807110D01*
X58365498Y-60737774D01*
X58391569Y-60699451D01*
X59466203Y-59624819D01*
X59527526Y-59591334D01*
X59553884Y-59588500D01*
X60141905Y-59588500D01*
X60208944Y-59608185D01*
G37*
G04 #@! TD.AperFunction*
G04 #@! TA.AperFunction,Conductor*
G36*
X71417280Y-60644521D02*
G01*
X71463035Y-60697325D01*
X71472979Y-60766483D01*
X71443954Y-60830039D01*
X71442460Y-60831729D01*
X71360297Y-60922981D01*
X71342464Y-60942787D01*
X71247821Y-61106715D01*
X71247818Y-61106722D01*
X71200698Y-61251744D01*
X71189326Y-61286744D01*
X71169540Y-61475000D01*
X71189326Y-61663256D01*
X71189327Y-61663259D01*
X71247818Y-61843277D01*
X71247821Y-61843284D01*
X71342464Y-62007212D01*
X71342465Y-62007214D01*
X71413319Y-62085905D01*
X71443549Y-62148896D01*
X71434924Y-62218232D01*
X71408850Y-62256558D01*
X69465954Y-64199454D01*
X69404631Y-64232939D01*
X69334939Y-64227955D01*
X69279007Y-64186085D01*
X69275026Y-64180767D01*
X69272546Y-64177454D01*
X69272544Y-64177453D01*
X69272544Y-64177452D01*
X69157335Y-64091206D01*
X69157328Y-64091202D01*
X69022482Y-64040908D01*
X69022483Y-64040908D01*
X68962883Y-64034501D01*
X68962881Y-64034500D01*
X68962873Y-64034500D01*
X68962865Y-64034500D01*
X68393844Y-64034500D01*
X68326805Y-64014815D01*
X68281050Y-63962011D01*
X68271106Y-63892853D01*
X68275913Y-63872182D01*
X68315845Y-63749283D01*
X68335674Y-63688256D01*
X68355460Y-63500000D01*
X68335674Y-63311744D01*
X68277179Y-63131716D01*
X68182533Y-62967784D01*
X68132142Y-62911819D01*
X68107350Y-62884284D01*
X68077120Y-62821292D01*
X68075500Y-62801312D01*
X68075500Y-62233929D01*
X68075499Y-62233925D01*
X68072378Y-62218232D01*
X68051463Y-62113084D01*
X68007611Y-62007216D01*
X68004312Y-61999251D01*
X67973885Y-61953714D01*
X67935858Y-61896803D01*
X67935855Y-61896799D01*
X67845637Y-61806581D01*
X67845606Y-61806552D01*
X66875571Y-60836517D01*
X66842086Y-60775194D01*
X66847070Y-60705502D01*
X66888942Y-60649569D01*
X66954406Y-60625152D01*
X66963252Y-60624836D01*
X71350241Y-60624836D01*
X71417280Y-60644521D01*
G37*
G04 #@! TD.AperFunction*
G04 #@! TA.AperFunction,Conductor*
G36*
X62162088Y-47725014D02*
G01*
X62210897Y-47758217D01*
X62217643Y-47765708D01*
X62247878Y-47828697D01*
X62249500Y-47848687D01*
X62249500Y-49064547D01*
X62229815Y-49131586D01*
X62213181Y-49152228D01*
X61257481Y-50107928D01*
X60276270Y-51089139D01*
X60276267Y-51089142D01*
X60238262Y-51127147D01*
X60189140Y-51176268D01*
X60158849Y-51221604D01*
X60158847Y-51221607D01*
X60134461Y-51258102D01*
X60120687Y-51278715D01*
X60120685Y-51278718D01*
X60093995Y-51343156D01*
X60087347Y-51359207D01*
X60081823Y-51372543D01*
X60073537Y-51392545D01*
X60073535Y-51392552D01*
X60063870Y-51441140D01*
X60063871Y-51441141D01*
X60051035Y-51505680D01*
X60051033Y-51505689D01*
X60049500Y-51513393D01*
X60049500Y-55311611D01*
X60057633Y-55352498D01*
X60057633Y-55352499D01*
X60070106Y-55415207D01*
X60070107Y-55415210D01*
X60073537Y-55432451D01*
X60119238Y-55542785D01*
X60120689Y-55546288D01*
X60123173Y-55550005D01*
X60142724Y-55579264D01*
X60142725Y-55579267D01*
X60142726Y-55579267D01*
X60189140Y-55648731D01*
X60189141Y-55648732D01*
X60189142Y-55648733D01*
X60276267Y-55735858D01*
X60276268Y-55735858D01*
X60283335Y-55742925D01*
X60283334Y-55742925D01*
X60283338Y-55742928D01*
X63792670Y-59252261D01*
X63826155Y-59313584D01*
X63821171Y-59383276D01*
X63779299Y-59439209D01*
X63773887Y-59443039D01*
X63757026Y-59454307D01*
X63757019Y-59454312D01*
X63668472Y-59513476D01*
X63624909Y-59557039D01*
X63581346Y-59600603D01*
X63468768Y-59713181D01*
X63407445Y-59746666D01*
X63381087Y-59749500D01*
X63296854Y-59749500D01*
X63264397Y-59756398D01*
X63111697Y-59788855D01*
X63111692Y-59788857D01*
X62938770Y-59865848D01*
X62938765Y-59865851D01*
X62785629Y-59977111D01*
X62785628Y-59977112D01*
X62739911Y-60027886D01*
X62680424Y-60064534D01*
X62610567Y-60063203D01*
X62555612Y-60027885D01*
X62507350Y-59974284D01*
X62477120Y-59911292D01*
X62475500Y-59891312D01*
X62475500Y-59113020D01*
X62475501Y-59112999D01*
X62475501Y-58983670D01*
X62452056Y-58865808D01*
X62452056Y-58865807D01*
X62451463Y-58862827D01*
X62412302Y-58768284D01*
X62404310Y-58748990D01*
X62335858Y-58646546D01*
X62335855Y-58646542D01*
X57301819Y-53612506D01*
X57268334Y-53551183D01*
X57265500Y-53524825D01*
X57265500Y-52570451D01*
X57285185Y-52503412D01*
X57301814Y-52482775D01*
X62031075Y-47753513D01*
X62092396Y-47720030D01*
X62162088Y-47725014D01*
G37*
G04 #@! TD.AperFunction*
G04 #@! TA.AperFunction,Conductor*
G36*
X61582051Y-54969468D02*
G01*
X61582051Y-54969373D01*
X61588550Y-54969373D01*
X61647744Y-54969373D01*
X61714783Y-54989058D01*
X61735425Y-55005692D01*
X62372339Y-55642606D01*
X62372368Y-55642637D01*
X62462586Y-55732855D01*
X62462590Y-55732858D01*
X62565030Y-55801307D01*
X62565036Y-55801310D01*
X62565037Y-55801311D01*
X62678871Y-55848463D01*
X62739294Y-55860481D01*
X62799716Y-55872500D01*
X62799717Y-55872500D01*
X72936548Y-55872500D01*
X73003587Y-55892185D01*
X73024228Y-55908818D01*
X75010607Y-57895198D01*
X75010608Y-57895199D01*
X75071691Y-57956282D01*
X75097734Y-57982325D01*
X75195122Y-58047398D01*
X75239927Y-58101010D01*
X75248634Y-58170335D01*
X75218479Y-58233363D01*
X75159036Y-58270082D01*
X75126231Y-58274500D01*
X73367367Y-58274500D01*
X73316931Y-58263779D01*
X73204807Y-58213857D01*
X73204802Y-58213855D01*
X73059001Y-58182865D01*
X73019646Y-58174500D01*
X72830354Y-58174500D01*
X72797897Y-58181398D01*
X72645197Y-58213855D01*
X72645192Y-58213857D01*
X72472270Y-58290848D01*
X72472265Y-58290851D01*
X72319129Y-58402111D01*
X72192466Y-58542785D01*
X72097821Y-58706715D01*
X72097818Y-58706722D01*
X72039327Y-58886740D01*
X72039326Y-58886744D01*
X72019540Y-59075000D01*
X72036553Y-59236876D01*
X72023985Y-59305604D01*
X71976252Y-59356628D01*
X71913233Y-59373836D01*
X68542022Y-59373836D01*
X68474983Y-59354151D01*
X68429228Y-59301347D01*
X68418701Y-59236877D01*
X68430460Y-59125000D01*
X68410674Y-58936744D01*
X68352179Y-58756716D01*
X68257533Y-58592784D01*
X68130871Y-58452112D01*
X68130870Y-58452111D01*
X67977734Y-58340851D01*
X67977729Y-58340848D01*
X67804807Y-58263857D01*
X67804802Y-58263855D01*
X67659001Y-58232865D01*
X67619646Y-58224500D01*
X67430354Y-58224500D01*
X67397897Y-58231398D01*
X67245197Y-58263855D01*
X67245192Y-58263857D01*
X67072270Y-58340848D01*
X67072265Y-58340851D01*
X66919130Y-58452110D01*
X66919126Y-58452114D01*
X66913400Y-58458474D01*
X66853913Y-58495121D01*
X66821252Y-58499500D01*
X64860453Y-58499500D01*
X64793414Y-58479815D01*
X64772772Y-58463181D01*
X61490207Y-55180616D01*
X61456722Y-55119293D01*
X61461706Y-55049601D01*
X61503578Y-54993668D01*
X61569042Y-54969251D01*
X61582051Y-54969468D01*
G37*
G04 #@! TD.AperFunction*
G04 #@! TA.AperFunction,Conductor*
G36*
X87824361Y-48978185D02*
G01*
X87845003Y-48994819D01*
X88885790Y-50035606D01*
X88885819Y-50035637D01*
X88976038Y-50125856D01*
X88976041Y-50125858D01*
X89027264Y-50160084D01*
X89078488Y-50194312D01*
X89142278Y-50220734D01*
X89192322Y-50241463D01*
X89232728Y-50249500D01*
X89313165Y-50265499D01*
X89313166Y-50265500D01*
X89313167Y-50265500D01*
X89313168Y-50265500D01*
X90056252Y-50265500D01*
X90123291Y-50285185D01*
X90148400Y-50306526D01*
X90154126Y-50312885D01*
X90154130Y-50312889D01*
X90307265Y-50424148D01*
X90307270Y-50424151D01*
X90480192Y-50501142D01*
X90480197Y-50501144D01*
X90665354Y-50540500D01*
X90665355Y-50540500D01*
X90671822Y-50541180D01*
X90671612Y-50543175D01*
X90729539Y-50560185D01*
X90775294Y-50612989D01*
X90786500Y-50664500D01*
X90786500Y-52467547D01*
X90766815Y-52534586D01*
X90750181Y-52555228D01*
X89832229Y-53473181D01*
X89770906Y-53506666D01*
X89744548Y-53509500D01*
X89678856Y-53509500D01*
X89678856Y-53507925D01*
X89617963Y-53496783D01*
X89566944Y-53449046D01*
X89549832Y-53381304D01*
X89550417Y-53373122D01*
X89565460Y-53230000D01*
X89545674Y-53041744D01*
X89487179Y-52861716D01*
X89484296Y-52856722D01*
X89393712Y-52699824D01*
X89377239Y-52631924D01*
X89400092Y-52565897D01*
X89450660Y-52524547D01*
X89567221Y-52472651D01*
X89720362Y-52361388D01*
X89847024Y-52220716D01*
X89941670Y-52056784D01*
X90000165Y-51876756D01*
X90019951Y-51688500D01*
X90000165Y-51500244D01*
X89941670Y-51320216D01*
X89847024Y-51156284D01*
X89720362Y-51015612D01*
X89720361Y-51015611D01*
X89567225Y-50904351D01*
X89567220Y-50904348D01*
X89394298Y-50827357D01*
X89394293Y-50827355D01*
X89248492Y-50796365D01*
X89209137Y-50788000D01*
X89019845Y-50788000D01*
X88987388Y-50794898D01*
X88834688Y-50827355D01*
X88834683Y-50827357D01*
X88661761Y-50904348D01*
X88661756Y-50904351D01*
X88508620Y-51015611D01*
X88381957Y-51156285D01*
X88287312Y-51320215D01*
X88287309Y-51320222D01*
X88228818Y-51500240D01*
X88228817Y-51500244D01*
X88222171Y-51563478D01*
X88211169Y-51668150D01*
X88184584Y-51732765D01*
X88175545Y-51742854D01*
X88174148Y-51744250D01*
X88174143Y-51744256D01*
X88174142Y-51744258D01*
X88139915Y-51795481D01*
X88139914Y-51795483D01*
X88139913Y-51795482D01*
X88105690Y-51846699D01*
X88105688Y-51846704D01*
X88087288Y-51891127D01*
X88087288Y-51891128D01*
X88058537Y-51960537D01*
X88058535Y-51960543D01*
X88056570Y-51970426D01*
X88056570Y-51970429D01*
X88042288Y-52042236D01*
X88038755Y-52059997D01*
X88038754Y-52060001D01*
X88034500Y-52081384D01*
X88034500Y-52531312D01*
X88014815Y-52598351D01*
X88002650Y-52614284D01*
X87927466Y-52697784D01*
X87832821Y-52861715D01*
X87832818Y-52861722D01*
X87774327Y-53041740D01*
X87774326Y-53041744D01*
X87754540Y-53230000D01*
X87774326Y-53418256D01*
X87774327Y-53418259D01*
X87832818Y-53598277D01*
X87832821Y-53598284D01*
X87927467Y-53762216D01*
X88049627Y-53897888D01*
X88054129Y-53902888D01*
X88207265Y-54014148D01*
X88207270Y-54014151D01*
X88380192Y-54091142D01*
X88380197Y-54091144D01*
X88565354Y-54130500D01*
X88565355Y-54130500D01*
X88761145Y-54130500D01*
X88761145Y-54132080D01*
X88822010Y-54143203D01*
X88873040Y-54190928D01*
X88890168Y-54258666D01*
X88889578Y-54266911D01*
X88879192Y-54365734D01*
X88876387Y-54392431D01*
X88874540Y-54410000D01*
X88894326Y-54598256D01*
X88896077Y-54603645D01*
X88952818Y-54778277D01*
X88952821Y-54778284D01*
X89047467Y-54942216D01*
X89111488Y-55013318D01*
X89174129Y-55082888D01*
X89266751Y-55150182D01*
X89309417Y-55205512D01*
X89315396Y-55275125D01*
X89282790Y-55336920D01*
X89221952Y-55371277D01*
X89193866Y-55374500D01*
X87040452Y-55374500D01*
X86973413Y-55354815D01*
X86952771Y-55338181D01*
X85458960Y-53844370D01*
X85425475Y-53783047D01*
X85423323Y-53769671D01*
X85405674Y-53601744D01*
X85347179Y-53421716D01*
X85252533Y-53257784D01*
X85125871Y-53117112D01*
X85125870Y-53117111D01*
X84972732Y-53005849D01*
X84939063Y-52990859D01*
X84885827Y-52945608D01*
X84865506Y-52878759D01*
X84865500Y-52877580D01*
X84865500Y-52758687D01*
X84885185Y-52691648D01*
X84897350Y-52675715D01*
X84936779Y-52631924D01*
X84972533Y-52592216D01*
X85067179Y-52428284D01*
X85125674Y-52248256D01*
X85145460Y-52060000D01*
X85125674Y-51871744D01*
X85067179Y-51691716D01*
X84972533Y-51527784D01*
X84845871Y-51387112D01*
X84807466Y-51359209D01*
X84692734Y-51275851D01*
X84692729Y-51275848D01*
X84519807Y-51198857D01*
X84519802Y-51198855D01*
X84374001Y-51167865D01*
X84334646Y-51159500D01*
X84145354Y-51159500D01*
X84112897Y-51166398D01*
X83960197Y-51198855D01*
X83960192Y-51198857D01*
X83787270Y-51275848D01*
X83787265Y-51275851D01*
X83634129Y-51387111D01*
X83507466Y-51527785D01*
X83412821Y-51691715D01*
X83412818Y-51691722D01*
X83356107Y-51866262D01*
X83354326Y-51871744D01*
X83334540Y-52060000D01*
X83354326Y-52248256D01*
X83354327Y-52248259D01*
X83412818Y-52428277D01*
X83412821Y-52428284D01*
X83507467Y-52592216D01*
X83530776Y-52618103D01*
X83582650Y-52675715D01*
X83612880Y-52738706D01*
X83614500Y-52758687D01*
X83614500Y-52799548D01*
X83594815Y-52866587D01*
X83578181Y-52887229D01*
X83402229Y-53063181D01*
X83340906Y-53096666D01*
X83314548Y-53099500D01*
X83255354Y-53099500D01*
X83222897Y-53106398D01*
X83070197Y-53138855D01*
X83070192Y-53138857D01*
X82897270Y-53215848D01*
X82897265Y-53215851D01*
X82744129Y-53327111D01*
X82617466Y-53467785D01*
X82522821Y-53631715D01*
X82522818Y-53631722D01*
X82469763Y-53795011D01*
X82464326Y-53811744D01*
X82444540Y-54000000D01*
X82464326Y-54188256D01*
X82464327Y-54188259D01*
X82522818Y-54368277D01*
X82522821Y-54368284D01*
X82617467Y-54532216D01*
X82739502Y-54667749D01*
X82744129Y-54672888D01*
X82897265Y-54784148D01*
X82897270Y-54784151D01*
X83070192Y-54861142D01*
X83070197Y-54861144D01*
X83255354Y-54900500D01*
X83255355Y-54900500D01*
X83444644Y-54900500D01*
X83444646Y-54900500D01*
X83629803Y-54861144D01*
X83802730Y-54784151D01*
X83955871Y-54672888D01*
X83990928Y-54633951D01*
X84050413Y-54597304D01*
X84120270Y-54598633D01*
X84133512Y-54603644D01*
X84240197Y-54651144D01*
X84425354Y-54690500D01*
X84484548Y-54690500D01*
X84551587Y-54710185D01*
X84572229Y-54726819D01*
X86241016Y-56395606D01*
X86241045Y-56395637D01*
X86331265Y-56485857D01*
X86339931Y-56491647D01*
X86374130Y-56514498D01*
X86374132Y-56514500D01*
X86374133Y-56514500D01*
X86433714Y-56554312D01*
X86514207Y-56587652D01*
X86547548Y-56601463D01*
X86560519Y-56604043D01*
X86584252Y-56608764D01*
X86584272Y-56608767D01*
X86584294Y-56608772D01*
X86668391Y-56625499D01*
X86668392Y-56625500D01*
X86668393Y-56625500D01*
X86668394Y-56625500D01*
X89996252Y-56625500D01*
X90063291Y-56645185D01*
X90088400Y-56666526D01*
X90094126Y-56672885D01*
X90094130Y-56672889D01*
X90247265Y-56784148D01*
X90247270Y-56784151D01*
X90420192Y-56861142D01*
X90420197Y-56861144D01*
X90605354Y-56900500D01*
X90605355Y-56900500D01*
X90794644Y-56900500D01*
X90794646Y-56900500D01*
X90874719Y-56883480D01*
X90944386Y-56888796D01*
X91000120Y-56930933D01*
X91024225Y-56996513D01*
X91024500Y-57004770D01*
X91024500Y-57021615D01*
X91004815Y-57088654D01*
X90988181Y-57109296D01*
X88759961Y-59337517D01*
X88698638Y-59371002D01*
X88672280Y-59373836D01*
X76507183Y-59373836D01*
X76440144Y-59354151D01*
X76394389Y-59301347D01*
X76384445Y-59232189D01*
X76413470Y-59168633D01*
X76419502Y-59162155D01*
X76874942Y-58706715D01*
X77348084Y-58233573D01*
X77348088Y-58233571D01*
X77435213Y-58146446D01*
X77491304Y-58062500D01*
X77503667Y-58043998D01*
X77539998Y-57956286D01*
X77550818Y-57930165D01*
X77563226Y-57867784D01*
X77571857Y-57824395D01*
X77571857Y-57824390D01*
X77574801Y-57809590D01*
X77607190Y-57747682D01*
X77667907Y-57713111D01*
X77737677Y-57716855D01*
X77743836Y-57719214D01*
X77797548Y-57741463D01*
X77857971Y-57753481D01*
X77918393Y-57765500D01*
X79543675Y-57765500D01*
X79604097Y-57753481D01*
X79664520Y-57741463D01*
X79699166Y-57727112D01*
X79778354Y-57694312D01*
X79830452Y-57659500D01*
X79880801Y-57625858D01*
X79967926Y-57538733D01*
X79967927Y-57538731D01*
X79974993Y-57531665D01*
X79974996Y-57531661D01*
X81790729Y-55715928D01*
X81790733Y-55715926D01*
X81877858Y-55628801D01*
X81946311Y-55526354D01*
X81946312Y-55526353D01*
X81986450Y-55429451D01*
X81993463Y-55412520D01*
X82017500Y-55291674D01*
X82017500Y-52857673D01*
X82017501Y-52857652D01*
X82017501Y-52728323D01*
X81993465Y-52607489D01*
X81993461Y-52607475D01*
X81990968Y-52601458D01*
X81990967Y-52601451D01*
X81990966Y-52601452D01*
X81969506Y-52549644D01*
X81961577Y-52530500D01*
X81946312Y-52493647D01*
X81902633Y-52428277D01*
X81877858Y-52391198D01*
X81137819Y-51651159D01*
X81104334Y-51589836D01*
X81101500Y-51563478D01*
X81101500Y-50624500D01*
X81121185Y-50557461D01*
X81173989Y-50511706D01*
X81215827Y-50502604D01*
X81215678Y-50501180D01*
X81222144Y-50500500D01*
X81222146Y-50500500D01*
X81407303Y-50461144D01*
X81580230Y-50384151D01*
X81733371Y-50272888D01*
X81736288Y-50269647D01*
X81739100Y-50266526D01*
X81798587Y-50229879D01*
X81831248Y-50225500D01*
X82414175Y-50225500D01*
X82474597Y-50213481D01*
X82535020Y-50201463D01*
X82585064Y-50180734D01*
X82648854Y-50154312D01*
X82718269Y-50107929D01*
X82751301Y-50085858D01*
X82838426Y-49998733D01*
X82838426Y-49998731D01*
X82848634Y-49988524D01*
X82848635Y-49988521D01*
X83842340Y-48994819D01*
X83903663Y-48961334D01*
X83930021Y-48958500D01*
X87757322Y-48958500D01*
X87824361Y-48978185D01*
G37*
G04 #@! TD.AperFunction*
G04 #@! TA.AperFunction,Conductor*
G36*
X76033693Y-54649121D02*
G01*
X76091742Y-54688008D01*
X76119552Y-54752105D01*
X76120500Y-54767412D01*
X76120500Y-56509026D01*
X76100815Y-56576065D01*
X76048011Y-56621820D01*
X76022281Y-56630316D01*
X75998731Y-56635321D01*
X75998726Y-56635323D01*
X75825805Y-56712314D01*
X75778904Y-56746389D01*
X75713098Y-56769867D01*
X75645044Y-56754040D01*
X75618343Y-56733752D01*
X74565368Y-55680778D01*
X74531884Y-55619456D01*
X74536868Y-55549764D01*
X74578740Y-55493831D01*
X74623344Y-55473943D01*
X74623128Y-55473230D01*
X74628808Y-55471507D01*
X74628871Y-55471478D01*
X74628952Y-55471463D01*
X74662292Y-55457652D01*
X74742786Y-55424312D01*
X74809850Y-55379500D01*
X74845233Y-55355858D01*
X74932358Y-55268733D01*
X74932359Y-55268730D01*
X75187772Y-55013316D01*
X75249094Y-54979834D01*
X75275452Y-54977000D01*
X75334644Y-54977000D01*
X75334646Y-54977000D01*
X75519803Y-54937644D01*
X75692730Y-54860651D01*
X75845871Y-54749388D01*
X75904351Y-54684439D01*
X75963836Y-54647791D01*
X76033693Y-54649121D01*
G37*
G04 #@! TD.AperFunction*
G04 #@! TA.AperFunction,Conductor*
G36*
X73807587Y-51005185D02*
G01*
X73853342Y-51057989D01*
X73863286Y-51127147D01*
X73834261Y-51190703D01*
X73828229Y-51197181D01*
X71194229Y-53831181D01*
X71132906Y-53864666D01*
X71106548Y-53867500D01*
X69716452Y-53867500D01*
X69649413Y-53847815D01*
X69603658Y-53795011D01*
X69593714Y-53725853D01*
X69622739Y-53662297D01*
X69628771Y-53655819D01*
X70717771Y-52566819D01*
X70779094Y-52533334D01*
X70805452Y-52530500D01*
X70854644Y-52530500D01*
X70854646Y-52530500D01*
X71039803Y-52491144D01*
X71212730Y-52414151D01*
X71365871Y-52302888D01*
X71492533Y-52162216D01*
X71587179Y-51998284D01*
X71645674Y-51818256D01*
X71665460Y-51630000D01*
X71645674Y-51441744D01*
X71587179Y-51261716D01*
X71535093Y-51171500D01*
X71518620Y-51103599D01*
X71541473Y-51037573D01*
X71596394Y-50994382D01*
X71642480Y-50985500D01*
X73740548Y-50985500D01*
X73807587Y-51005185D01*
G37*
G04 #@! TD.AperFunction*
G04 #@! TA.AperFunction,Conductor*
G36*
X86878275Y-45483962D02*
G01*
X86924030Y-45536766D01*
X86933974Y-45605924D01*
X86904949Y-45669480D01*
X86861672Y-45701556D01*
X86717270Y-45765848D01*
X86717265Y-45765851D01*
X86564129Y-45877111D01*
X86437466Y-46017785D01*
X86375947Y-46124340D01*
X86325380Y-46172555D01*
X86268560Y-46186340D01*
X80066549Y-46186340D01*
X80006131Y-46198358D01*
X79962903Y-46206956D01*
X79945706Y-46210377D01*
X79917479Y-46222070D01*
X79917478Y-46222070D01*
X79831878Y-46257525D01*
X79831875Y-46257527D01*
X79831874Y-46257528D01*
X79784990Y-46288855D01*
X79784989Y-46288856D01*
X79729431Y-46325978D01*
X79729429Y-46325979D01*
X79687928Y-46367481D01*
X79642302Y-46413107D01*
X79236144Y-46819264D01*
X79236138Y-46819272D01*
X79167690Y-46921708D01*
X79167689Y-46921710D01*
X79141787Y-46984242D01*
X79141788Y-46984243D01*
X79122262Y-47031385D01*
X79122260Y-47031390D01*
X79120537Y-47035548D01*
X79096624Y-47155773D01*
X79096609Y-47155844D01*
X79096500Y-47156387D01*
X79096500Y-50135500D01*
X79076815Y-50202539D01*
X79024011Y-50248294D01*
X78981683Y-50257502D01*
X78981822Y-50258820D01*
X78975355Y-50259499D01*
X78790197Y-50298855D01*
X78790192Y-50298857D01*
X78617270Y-50375848D01*
X78617265Y-50375851D01*
X78464130Y-50487110D01*
X78464126Y-50487114D01*
X78458400Y-50493474D01*
X78398913Y-50530121D01*
X78366252Y-50534500D01*
X77974835Y-50534500D01*
X77907796Y-50514815D01*
X77862041Y-50462011D01*
X77851514Y-50397540D01*
X77855460Y-50360000D01*
X77835674Y-50171744D01*
X77777179Y-49991716D01*
X77682533Y-49827784D01*
X77555871Y-49687112D01*
X77534086Y-49671284D01*
X77402734Y-49575851D01*
X77402729Y-49575848D01*
X77229807Y-49498857D01*
X77229802Y-49498855D01*
X77084001Y-49467865D01*
X77044646Y-49459500D01*
X76855354Y-49459500D01*
X76822897Y-49466398D01*
X76670197Y-49498855D01*
X76670192Y-49498857D01*
X76497270Y-49575848D01*
X76497265Y-49575851D01*
X76449013Y-49610909D01*
X76383207Y-49634389D01*
X76315153Y-49618563D01*
X76266458Y-49568457D01*
X76252583Y-49499979D01*
X76271547Y-49449150D01*
X76269284Y-49447844D01*
X76335163Y-49333737D01*
X76367179Y-49278284D01*
X76425674Y-49098256D01*
X76443321Y-48930345D01*
X76469905Y-48865732D01*
X76478952Y-48855636D01*
X77088729Y-48245860D01*
X77088733Y-48245858D01*
X77175858Y-48158733D01*
X77244311Y-48056286D01*
X77291463Y-47942452D01*
X77315500Y-47821606D01*
X77315500Y-45844793D01*
X77335185Y-45777754D01*
X77387989Y-45731999D01*
X77457147Y-45722055D01*
X77465278Y-45723502D01*
X77539492Y-45739277D01*
X77539493Y-45739277D01*
X77728782Y-45739277D01*
X77728784Y-45739277D01*
X77913941Y-45699921D01*
X78086868Y-45622928D01*
X78240009Y-45511665D01*
X78242926Y-45508424D01*
X78245738Y-45505303D01*
X78305225Y-45468656D01*
X78337886Y-45464277D01*
X86811236Y-45464277D01*
X86878275Y-45483962D01*
G37*
G04 #@! TD.AperFunction*
G04 #@! TA.AperFunction,Conductor*
G36*
X74813291Y-45586685D02*
G01*
X74838400Y-45608026D01*
X74844126Y-45614385D01*
X74844130Y-45614389D01*
X74915285Y-45666086D01*
X74957951Y-45721416D01*
X74963930Y-45791029D01*
X74949788Y-45828403D01*
X74872820Y-45961718D01*
X74872818Y-45961722D01*
X74832108Y-46087016D01*
X74814326Y-46141744D01*
X74794540Y-46330000D01*
X74814326Y-46518256D01*
X74814327Y-46518259D01*
X74872818Y-46698277D01*
X74872821Y-46698284D01*
X74967467Y-46862216D01*
X74989035Y-46886169D01*
X75042650Y-46945715D01*
X75072880Y-47008706D01*
X75074500Y-47028687D01*
X75074500Y-48071944D01*
X75054815Y-48138983D01*
X75023386Y-48172261D01*
X74934132Y-48237109D01*
X74934123Y-48237116D01*
X74807466Y-48377785D01*
X74712821Y-48541715D01*
X74712818Y-48541722D01*
X74654327Y-48721740D01*
X74654326Y-48721744D01*
X74634540Y-48910000D01*
X74654326Y-49098256D01*
X74654327Y-49098259D01*
X74712818Y-49278277D01*
X74712821Y-49278284D01*
X74807464Y-49442212D01*
X74807465Y-49442214D01*
X74807467Y-49442216D01*
X74884284Y-49527530D01*
X74914513Y-49590519D01*
X74905888Y-49659854D01*
X74861147Y-49713520D01*
X74794494Y-49734478D01*
X74792133Y-49734500D01*
X67937384Y-49734500D01*
X67870345Y-49714815D01*
X67824590Y-49662011D01*
X67814646Y-49592853D01*
X67843671Y-49529297D01*
X67849703Y-49522819D01*
X71769203Y-45603319D01*
X71830526Y-45569834D01*
X71856884Y-45567000D01*
X74746252Y-45567000D01*
X74813291Y-45586685D01*
G37*
G04 #@! TD.AperFunction*
G04 #@! TA.AperFunction,Conductor*
G36*
X87149862Y-42957240D02*
G01*
X87205795Y-42999112D01*
X87213909Y-43011413D01*
X87237467Y-43052216D01*
X87364129Y-43192888D01*
X87517265Y-43304148D01*
X87517270Y-43304151D01*
X87690192Y-43381142D01*
X87690197Y-43381144D01*
X87875354Y-43420500D01*
X87934548Y-43420500D01*
X88001587Y-43440185D01*
X88022229Y-43456819D01*
X89132710Y-44567300D01*
X89166195Y-44628623D01*
X89161211Y-44698315D01*
X89119339Y-44754248D01*
X89117916Y-44755298D01*
X89074128Y-44787112D01*
X88947466Y-44927785D01*
X88852821Y-45091715D01*
X88852818Y-45091722D01*
X88802077Y-45247888D01*
X88794326Y-45271744D01*
X88791227Y-45301233D01*
X88764641Y-45365847D01*
X88707343Y-45405831D01*
X88637524Y-45408490D01*
X88580225Y-45375951D01*
X87648659Y-44444385D01*
X87648639Y-44444363D01*
X87557197Y-44352921D01*
X87557189Y-44352915D01*
X87501942Y-44316000D01*
X87501940Y-44315999D01*
X87454747Y-44284465D01*
X87454748Y-44284465D01*
X87454746Y-44284464D01*
X87409606Y-44265767D01*
X87364466Y-44247070D01*
X87364464Y-44247068D01*
X87340916Y-44237315D01*
X87340914Y-44237314D01*
X87340913Y-44237314D01*
X87280490Y-44225295D01*
X87220071Y-44213277D01*
X87220068Y-44213277D01*
X87220067Y-44213277D01*
X79990608Y-44213277D01*
X79923569Y-44193592D01*
X79877814Y-44140788D01*
X79867287Y-44102239D01*
X79864738Y-44077989D01*
X79855674Y-43991744D01*
X79797179Y-43811716D01*
X79797176Y-43811710D01*
X79794538Y-43805786D01*
X79796463Y-43804928D01*
X79782313Y-43746600D01*
X79805165Y-43680573D01*
X79860086Y-43637383D01*
X79906173Y-43628500D01*
X86178608Y-43628500D01*
X86178608Y-43628499D01*
X86241450Y-43616000D01*
X86241452Y-43616000D01*
X86299442Y-43604465D01*
X86299442Y-43604464D01*
X86299452Y-43604463D01*
X86332792Y-43590652D01*
X86413286Y-43557312D01*
X86475338Y-43515849D01*
X86515733Y-43488858D01*
X86602858Y-43401733D01*
X86602859Y-43401731D01*
X86609925Y-43394665D01*
X86609928Y-43394661D01*
X87018849Y-42985739D01*
X87080170Y-42952256D01*
X87149862Y-42957240D01*
G37*
G04 #@! TD.AperFunction*
G04 #@! TA.AperFunction,Conductor*
G36*
X109878628Y-32074816D02*
G01*
X109945643Y-32094584D01*
X109991332Y-32147446D01*
X110002472Y-32198830D01*
X110000132Y-49988524D01*
X109997516Y-69876035D01*
X109977823Y-69943072D01*
X109925013Y-69988820D01*
X109873535Y-70000019D01*
X51796453Y-70009091D01*
X51796240Y-70009091D01*
X46108893Y-70000208D01*
X46041885Y-69980419D01*
X45996212Y-69927543D01*
X45985087Y-69876128D01*
X45985919Y-68611610D01*
X55574500Y-68611610D01*
X55586518Y-68672029D01*
X55598537Y-68732452D01*
X55604924Y-68747872D01*
X55645685Y-68846281D01*
X55645687Y-68846284D01*
X55672926Y-68887049D01*
X55672927Y-68887051D01*
X55714140Y-68948731D01*
X55714141Y-68948732D01*
X55714142Y-68948733D01*
X55801267Y-69035858D01*
X55801268Y-69035858D01*
X55808335Y-69042925D01*
X55808334Y-69042925D01*
X55808338Y-69042928D01*
X56351262Y-69585854D01*
X56351265Y-69585857D01*
X56402490Y-69620084D01*
X56453714Y-69654311D01*
X56567548Y-69701463D01*
X56688388Y-69725499D01*
X56688392Y-69725500D01*
X56688393Y-69725500D01*
X94331607Y-69725500D01*
X94392029Y-69713481D01*
X94452452Y-69701463D01*
X94452455Y-69701461D01*
X94452458Y-69701461D01*
X94485787Y-69687654D01*
X94485786Y-69687654D01*
X94485792Y-69687652D01*
X94566286Y-69654312D01*
X94617509Y-69620084D01*
X94668733Y-69585858D01*
X94755858Y-69498733D01*
X94755858Y-69498731D01*
X94766066Y-69488524D01*
X94766067Y-69488521D01*
X99060857Y-65193734D01*
X99129311Y-65091286D01*
X99176463Y-64977452D01*
X99200500Y-64856607D01*
X99200500Y-64733394D01*
X99200500Y-62900005D01*
X102867277Y-62900005D01*
X102886134Y-63127580D01*
X102886136Y-63127592D01*
X102942196Y-63348967D01*
X103033930Y-63558102D01*
X103158834Y-63749283D01*
X103158837Y-63749286D01*
X103313507Y-63917302D01*
X103493722Y-64057569D01*
X103694566Y-64166261D01*
X103910562Y-64240412D01*
X104135816Y-64278000D01*
X104364184Y-64278000D01*
X104589438Y-64240412D01*
X104805434Y-64166261D01*
X105006278Y-64057569D01*
X105186493Y-63917302D01*
X105341163Y-63749286D01*
X105466069Y-63558103D01*
X105557803Y-63348969D01*
X105613864Y-63127589D01*
X105632723Y-62900000D01*
X105632324Y-62895185D01*
X105613865Y-62672419D01*
X105613863Y-62672407D01*
X105579474Y-62536607D01*
X105557803Y-62451031D01*
X105466069Y-62241897D01*
X105408943Y-62154459D01*
X105341165Y-62050716D01*
X105293787Y-61999250D01*
X105186493Y-61882698D01*
X105006278Y-61742431D01*
X105006276Y-61742430D01*
X105006275Y-61742429D01*
X104805435Y-61633739D01*
X104805430Y-61633737D01*
X104589440Y-61559588D01*
X104364184Y-61522000D01*
X104135816Y-61522000D01*
X103910559Y-61559588D01*
X103694569Y-61633737D01*
X103694564Y-61633739D01*
X103493724Y-61742429D01*
X103313508Y-61882697D01*
X103158834Y-62050716D01*
X103033930Y-62241897D01*
X102942196Y-62451032D01*
X102886136Y-62672407D01*
X102886134Y-62672419D01*
X102867277Y-62899994D01*
X102867277Y-62900005D01*
X99200500Y-62900005D01*
X99200500Y-59098687D01*
X99220185Y-59031648D01*
X99232350Y-59015715D01*
X99261203Y-58983670D01*
X99307533Y-58932216D01*
X99402179Y-58768284D01*
X99460674Y-58588256D01*
X99480460Y-58400000D01*
X99460674Y-58211744D01*
X99402179Y-58031716D01*
X99307533Y-57867784D01*
X99180871Y-57727112D01*
X99180870Y-57727111D01*
X99027734Y-57615851D01*
X99027729Y-57615848D01*
X98854807Y-57538857D01*
X98854802Y-57538855D01*
X98709001Y-57507865D01*
X98669646Y-57499500D01*
X98480354Y-57499500D01*
X98447897Y-57506398D01*
X98295197Y-57538855D01*
X98295192Y-57538857D01*
X98122270Y-57615848D01*
X98122265Y-57615851D01*
X97969129Y-57727111D01*
X97842466Y-57867785D01*
X97747821Y-58031715D01*
X97747818Y-58031722D01*
X97701427Y-58174500D01*
X97689326Y-58211744D01*
X97669540Y-58400000D01*
X97689326Y-58588256D01*
X97689327Y-58588259D01*
X97747818Y-58768277D01*
X97747820Y-58768281D01*
X97747821Y-58768284D01*
X97842467Y-58932216D01*
X97885772Y-58980310D01*
X97917650Y-59015715D01*
X97947880Y-59078706D01*
X97949500Y-59098687D01*
X97949500Y-64484547D01*
X97929815Y-64551586D01*
X97913181Y-64572228D01*
X94047229Y-68438181D01*
X93985906Y-68471666D01*
X93959548Y-68474500D01*
X90628891Y-68474500D01*
X90561852Y-68454815D01*
X90516097Y-68402011D01*
X90506153Y-68332853D01*
X90535178Y-68269297D01*
X90578455Y-68237221D01*
X90604187Y-68225763D01*
X90652730Y-68204151D01*
X90805871Y-68092888D01*
X90808788Y-68089647D01*
X90811600Y-68086526D01*
X90871087Y-68049879D01*
X90903748Y-68045500D01*
X91661608Y-68045500D01*
X91661608Y-68045499D01*
X91727205Y-68032452D01*
X91727207Y-68032452D01*
X91755017Y-68026919D01*
X91782452Y-68021463D01*
X91832496Y-68000734D01*
X91896286Y-67974312D01*
X91947509Y-67940084D01*
X91998733Y-67905858D01*
X92085858Y-67818733D01*
X92085860Y-67818729D01*
X92277772Y-67626816D01*
X92339095Y-67593334D01*
X92365452Y-67590500D01*
X92424644Y-67590500D01*
X92424646Y-67590500D01*
X92609803Y-67551144D01*
X92782730Y-67474151D01*
X92935871Y-67362888D01*
X93062533Y-67222216D01*
X93157179Y-67058284D01*
X93215674Y-66878256D01*
X93219544Y-66841431D01*
X93246127Y-66776820D01*
X93303424Y-66736835D01*
X93373243Y-66734174D01*
X93379729Y-66736044D01*
X93380194Y-66736142D01*
X93380197Y-66736144D01*
X93565354Y-66775500D01*
X93565355Y-66775500D01*
X93754644Y-66775500D01*
X93754646Y-66775500D01*
X93939803Y-66736144D01*
X94112730Y-66659151D01*
X94265871Y-66547888D01*
X94392533Y-66407216D01*
X94487179Y-66243284D01*
X94545674Y-66063256D01*
X94565460Y-65875000D01*
X94545674Y-65686744D01*
X94487179Y-65506716D01*
X94392533Y-65342784D01*
X94265871Y-65202112D01*
X94254340Y-65193734D01*
X94112734Y-65090851D01*
X94112729Y-65090848D01*
X93939807Y-65013857D01*
X93939802Y-65013855D01*
X93768534Y-64977452D01*
X93754646Y-64974500D01*
X93754645Y-64974500D01*
X93695452Y-64974500D01*
X93628413Y-64954815D01*
X93607771Y-64938181D01*
X93086819Y-64417229D01*
X93053334Y-64355906D01*
X93050500Y-64329548D01*
X93050500Y-57024500D01*
X93070185Y-56957461D01*
X93122989Y-56911706D01*
X93174500Y-56900500D01*
X93194644Y-56900500D01*
X93194646Y-56900500D01*
X93379803Y-56861144D01*
X93552730Y-56784151D01*
X93705871Y-56672888D01*
X93711598Y-56666528D01*
X93711600Y-56666526D01*
X93771087Y-56629879D01*
X93803748Y-56625500D01*
X94328722Y-56625500D01*
X94395761Y-56645185D01*
X94420870Y-56666526D01*
X94457826Y-56707570D01*
X94494129Y-56747888D01*
X94647265Y-56859148D01*
X94647270Y-56859151D01*
X94820192Y-56936142D01*
X94820197Y-56936144D01*
X95005354Y-56975500D01*
X95005355Y-56975500D01*
X95194644Y-56975500D01*
X95194646Y-56975500D01*
X95379803Y-56936144D01*
X95552730Y-56859151D01*
X95705871Y-56747888D01*
X95832533Y-56607216D01*
X95927179Y-56443284D01*
X95985674Y-56263256D01*
X96005460Y-56075000D01*
X95985674Y-55886744D01*
X95927179Y-55706716D01*
X95832533Y-55542784D01*
X95705871Y-55402112D01*
X95681497Y-55384403D01*
X95552734Y-55290851D01*
X95552729Y-55290848D01*
X95379807Y-55213857D01*
X95379802Y-55213855D01*
X95234001Y-55182865D01*
X95194646Y-55174500D01*
X95005354Y-55174500D01*
X94979243Y-55180050D01*
X94820197Y-55213855D01*
X94820192Y-55213857D01*
X94647270Y-55290848D01*
X94647265Y-55290851D01*
X94564729Y-55350818D01*
X94498923Y-55374298D01*
X94491844Y-55374500D01*
X93803748Y-55374500D01*
X93736709Y-55354815D01*
X93711600Y-55333474D01*
X93705873Y-55327114D01*
X93705869Y-55327110D01*
X93552734Y-55215851D01*
X93552729Y-55215848D01*
X93379807Y-55138857D01*
X93379802Y-55138855D01*
X93234001Y-55107865D01*
X93194646Y-55099500D01*
X93194645Y-55099500D01*
X93174500Y-55099500D01*
X93107461Y-55079815D01*
X93061706Y-55027011D01*
X93050500Y-54975500D01*
X93050500Y-53670986D01*
X93070185Y-53603947D01*
X93122989Y-53558192D01*
X93192147Y-53548248D01*
X93255703Y-53577273D01*
X93281887Y-53608987D01*
X93367463Y-53757211D01*
X93367465Y-53757214D01*
X93494129Y-53897888D01*
X93647265Y-54009148D01*
X93647270Y-54009151D01*
X93820192Y-54086142D01*
X93820197Y-54086144D01*
X94005354Y-54125500D01*
X94005355Y-54125500D01*
X94194644Y-54125500D01*
X94194646Y-54125500D01*
X94379803Y-54086144D01*
X94552730Y-54009151D01*
X94705871Y-53897888D01*
X94832533Y-53757216D01*
X94927179Y-53593284D01*
X94985674Y-53413256D01*
X95005460Y-53225000D01*
X94985674Y-53036744D01*
X94927179Y-52856716D01*
X94832533Y-52692784D01*
X94705871Y-52552112D01*
X94686800Y-52538256D01*
X94552734Y-52440851D01*
X94552729Y-52440848D01*
X94379807Y-52363857D01*
X94379802Y-52363855D01*
X94234001Y-52332865D01*
X94194646Y-52324500D01*
X94194645Y-52324500D01*
X94135452Y-52324500D01*
X94068413Y-52304815D01*
X94047771Y-52288181D01*
X93463819Y-51704229D01*
X93430334Y-51642906D01*
X93427500Y-51616548D01*
X93427500Y-50600005D01*
X102867277Y-50600005D01*
X102886134Y-50827580D01*
X102886136Y-50827592D01*
X102942196Y-51048967D01*
X103033930Y-51258102D01*
X103158834Y-51449283D01*
X103158837Y-51449286D01*
X103313507Y-51617302D01*
X103493722Y-51757569D01*
X103581708Y-51805185D01*
X103635119Y-51834090D01*
X103694566Y-51866261D01*
X103910562Y-51940412D01*
X104135816Y-51978000D01*
X104364184Y-51978000D01*
X104589438Y-51940412D01*
X104805434Y-51866261D01*
X105006278Y-51757569D01*
X105186493Y-51617302D01*
X105341163Y-51449286D01*
X105466069Y-51258103D01*
X105557803Y-51048969D01*
X105613864Y-50827589D01*
X105613883Y-50827357D01*
X105632723Y-50600005D01*
X105632723Y-50599994D01*
X105613865Y-50372419D01*
X105613863Y-50372407D01*
X105573617Y-50213481D01*
X105557803Y-50151031D01*
X105466069Y-49941897D01*
X105417745Y-49867931D01*
X105341165Y-49750716D01*
X105321321Y-49729160D01*
X105186493Y-49582698D01*
X105006278Y-49442431D01*
X105006276Y-49442430D01*
X105006275Y-49442429D01*
X104805435Y-49333739D01*
X104805430Y-49333737D01*
X104589440Y-49259588D01*
X104364184Y-49222000D01*
X104135816Y-49222000D01*
X103910559Y-49259588D01*
X103694569Y-49333737D01*
X103694564Y-49333739D01*
X103493724Y-49442429D01*
X103313508Y-49582697D01*
X103158834Y-49750716D01*
X103033930Y-49941897D01*
X102942196Y-50151032D01*
X102886136Y-50372407D01*
X102886134Y-50372419D01*
X102867277Y-50599994D01*
X102867277Y-50600005D01*
X93427500Y-50600005D01*
X93427500Y-46368324D01*
X93427345Y-46367547D01*
X93427331Y-46367481D01*
X93403463Y-46247480D01*
X93356311Y-46133646D01*
X93350093Y-46124340D01*
X93325154Y-46087015D01*
X93325154Y-46087016D01*
X93287859Y-46031200D01*
X93274443Y-46017784D01*
X93200733Y-45944074D01*
X93200732Y-45944073D01*
X89662134Y-42405475D01*
X89628649Y-42344152D01*
X89633633Y-42274460D01*
X89642428Y-42255794D01*
X89687179Y-42178284D01*
X89745674Y-41998256D01*
X89762812Y-41835187D01*
X89789395Y-41770577D01*
X89846692Y-41730592D01*
X89916511Y-41727932D01*
X89973813Y-41760472D01*
X93011433Y-44798092D01*
X93041683Y-44847454D01*
X93072819Y-44943280D01*
X93072821Y-44943284D01*
X93167467Y-45107216D01*
X93294129Y-45247888D01*
X93447265Y-45359148D01*
X93447270Y-45359151D01*
X93620192Y-45436142D01*
X93620197Y-45436144D01*
X93805354Y-45475500D01*
X93805355Y-45475500D01*
X93994644Y-45475500D01*
X93994646Y-45475500D01*
X94179803Y-45436144D01*
X94352730Y-45359151D01*
X94505871Y-45247888D01*
X94632533Y-45107216D01*
X94727179Y-44943284D01*
X94785674Y-44763256D01*
X94805460Y-44575000D01*
X94801139Y-44533891D01*
X94813708Y-44465164D01*
X94861440Y-44414140D01*
X94898676Y-44399643D01*
X95079803Y-44361144D01*
X95252730Y-44284151D01*
X95405871Y-44172888D01*
X95532533Y-44032216D01*
X95627179Y-43868284D01*
X95685674Y-43688256D01*
X95705460Y-43500000D01*
X95685674Y-43311744D01*
X95627179Y-43131716D01*
X95532533Y-42967784D01*
X95405871Y-42827112D01*
X95405870Y-42827111D01*
X95252734Y-42715851D01*
X95252729Y-42715848D01*
X95079807Y-42638857D01*
X95079802Y-42638855D01*
X94917073Y-42604267D01*
X94894646Y-42599500D01*
X94894645Y-42599500D01*
X94835452Y-42599500D01*
X94768413Y-42579815D01*
X94747771Y-42563181D01*
X94340198Y-42155608D01*
X94340178Y-42155586D01*
X94248733Y-42064141D01*
X94197509Y-42029915D01*
X94146286Y-41995688D01*
X94146283Y-41995686D01*
X94146280Y-41995685D01*
X94065792Y-41962347D01*
X94032453Y-41948537D01*
X94022427Y-41946543D01*
X93972029Y-41936518D01*
X93911610Y-41924500D01*
X93911607Y-41924500D01*
X93911606Y-41924500D01*
X93273748Y-41924500D01*
X93206709Y-41904815D01*
X93181600Y-41883474D01*
X93175873Y-41877114D01*
X93175869Y-41877110D01*
X93022734Y-41765851D01*
X93022729Y-41765848D01*
X92849807Y-41688857D01*
X92849802Y-41688855D01*
X92704001Y-41657865D01*
X92664646Y-41649500D01*
X92475354Y-41649500D01*
X92442897Y-41656398D01*
X92290197Y-41688855D01*
X92290192Y-41688857D01*
X92117270Y-41765848D01*
X92117265Y-41765851D01*
X91989285Y-41858834D01*
X91923478Y-41882314D01*
X91855425Y-41866488D01*
X91828719Y-41846197D01*
X89241819Y-39259296D01*
X89208334Y-39197973D01*
X89205500Y-39171615D01*
X89205500Y-38448687D01*
X89225185Y-38381648D01*
X89237350Y-38365715D01*
X89255891Y-38345122D01*
X89312533Y-38282216D01*
X89407179Y-38118284D01*
X89445610Y-38000005D01*
X102867277Y-38000005D01*
X102886134Y-38227580D01*
X102886136Y-38227592D01*
X102942196Y-38448967D01*
X103033930Y-38658102D01*
X103158834Y-38849283D01*
X103158837Y-38849286D01*
X103313507Y-39017302D01*
X103493722Y-39157569D01*
X103694566Y-39266261D01*
X103910562Y-39340412D01*
X104135816Y-39378000D01*
X104364184Y-39378000D01*
X104589438Y-39340412D01*
X104805434Y-39266261D01*
X105006278Y-39157569D01*
X105186493Y-39017302D01*
X105341163Y-38849286D01*
X105466069Y-38658103D01*
X105557803Y-38448969D01*
X105613864Y-38227589D01*
X105613865Y-38227580D01*
X105632723Y-38000005D01*
X105632723Y-37999994D01*
X105613865Y-37772419D01*
X105613863Y-37772407D01*
X105557803Y-37551032D01*
X105552257Y-37538389D01*
X105466069Y-37341897D01*
X105402938Y-37245267D01*
X105341165Y-37150716D01*
X105307493Y-37114139D01*
X105186493Y-36982698D01*
X105006278Y-36842431D01*
X105006276Y-36842430D01*
X105006275Y-36842429D01*
X104805435Y-36733739D01*
X104805430Y-36733737D01*
X104589440Y-36659588D01*
X104364184Y-36622000D01*
X104135816Y-36622000D01*
X103910559Y-36659588D01*
X103694569Y-36733737D01*
X103694564Y-36733739D01*
X103493724Y-36842429D01*
X103313508Y-36982697D01*
X103158834Y-37150716D01*
X103033930Y-37341897D01*
X102942196Y-37551032D01*
X102886136Y-37772407D01*
X102886134Y-37772419D01*
X102867277Y-37999994D01*
X102867277Y-38000005D01*
X89445610Y-38000005D01*
X89465674Y-37938256D01*
X89485460Y-37750000D01*
X89465674Y-37561744D01*
X89407179Y-37381716D01*
X89407179Y-37381715D01*
X89405433Y-37377795D01*
X89396143Y-37308546D01*
X89425768Y-37245267D01*
X89426507Y-37244438D01*
X89482533Y-37182216D01*
X89577179Y-37018284D01*
X89635674Y-36838256D01*
X89655460Y-36650000D01*
X89635674Y-36461744D01*
X89577179Y-36281716D01*
X89482533Y-36117784D01*
X89355871Y-35977112D01*
X89355863Y-35977106D01*
X89202734Y-35865851D01*
X89202729Y-35865848D01*
X89029807Y-35788857D01*
X89029802Y-35788855D01*
X88884001Y-35757865D01*
X88844646Y-35749500D01*
X88655354Y-35749500D01*
X88622897Y-35756398D01*
X88470197Y-35788855D01*
X88470192Y-35788857D01*
X88297270Y-35865848D01*
X88297265Y-35865851D01*
X88144135Y-35977106D01*
X88144128Y-35977112D01*
X88076149Y-36052610D01*
X88031455Y-36084197D01*
X88003716Y-36095687D01*
X88003714Y-36095689D01*
X87901268Y-36164140D01*
X87857705Y-36207703D01*
X87814142Y-36251267D01*
X86864141Y-37201267D01*
X86864138Y-37201271D01*
X86853110Y-37217778D01*
X86853106Y-37217784D01*
X86795688Y-37303714D01*
X86763379Y-37381716D01*
X86748538Y-37417544D01*
X86748535Y-37417556D01*
X86724500Y-37538389D01*
X86724500Y-41459548D01*
X86704815Y-41526587D01*
X86688181Y-41547229D01*
X85894229Y-42341181D01*
X85832906Y-42374666D01*
X85806548Y-42377500D01*
X65835393Y-42377500D01*
X65817153Y-42381128D01*
X65817152Y-42381127D01*
X65714555Y-42401535D01*
X65714548Y-42401537D01*
X65690582Y-42411464D01*
X65690581Y-42411463D01*
X65600715Y-42448686D01*
X65590627Y-42455428D01*
X65590626Y-42455429D01*
X65498268Y-42517140D01*
X65454705Y-42560703D01*
X65411142Y-42604267D01*
X65411139Y-42604270D01*
X64253149Y-43762259D01*
X64191826Y-43795744D01*
X64122134Y-43790760D01*
X64073318Y-43757550D01*
X64004007Y-43680573D01*
X63955871Y-43627112D01*
X63940577Y-43616000D01*
X63802734Y-43515851D01*
X63802729Y-43515848D01*
X63629807Y-43438857D01*
X63629802Y-43438855D01*
X63484001Y-43407865D01*
X63444646Y-43399500D01*
X63255354Y-43399500D01*
X63222897Y-43406398D01*
X63070197Y-43438855D01*
X63070192Y-43438857D01*
X62897270Y-43515848D01*
X62897265Y-43515851D01*
X62744129Y-43627111D01*
X62617466Y-43767785D01*
X62522821Y-43931715D01*
X62522818Y-43931722D01*
X62464327Y-44111740D01*
X62464326Y-44111744D01*
X62444540Y-44300000D01*
X62464326Y-44488256D01*
X62464327Y-44488259D01*
X62522818Y-44668277D01*
X62522821Y-44668284D01*
X62573058Y-44755298D01*
X62581813Y-44770461D01*
X62598286Y-44838361D01*
X62575433Y-44904388D01*
X62562107Y-44920142D01*
X57517532Y-49964719D01*
X55864269Y-51617982D01*
X55864267Y-51617984D01*
X55839345Y-51642906D01*
X55777142Y-51705108D01*
X55763921Y-51724894D01*
X55750789Y-51744549D01*
X55708690Y-51807552D01*
X55708685Y-51807561D01*
X55682291Y-51871285D01*
X55682291Y-51871286D01*
X55661538Y-51921387D01*
X55661535Y-51921397D01*
X55637500Y-52042231D01*
X55637500Y-57286179D01*
X55646628Y-57332068D01*
X55646628Y-57332069D01*
X55661535Y-57407012D01*
X55661538Y-57407022D01*
X55675347Y-57440360D01*
X55675347Y-57440361D01*
X55708685Y-57520848D01*
X55708690Y-57520857D01*
X55742914Y-57572075D01*
X55742915Y-57572077D01*
X55777141Y-57623301D01*
X55868586Y-57714746D01*
X55868608Y-57714766D01*
X56860948Y-58707106D01*
X56860977Y-58707137D01*
X56951195Y-58797355D01*
X56951203Y-58797361D01*
X56998127Y-58828715D01*
X56998128Y-58828715D01*
X57053646Y-58865812D01*
X57134139Y-58899152D01*
X57167480Y-58912963D01*
X57227903Y-58924981D01*
X57288325Y-58937000D01*
X57288326Y-58937000D01*
X58085480Y-58937000D01*
X58152519Y-58956685D01*
X58198274Y-59009489D01*
X58208218Y-59078647D01*
X58179193Y-59142203D01*
X58173162Y-59148679D01*
X55801270Y-61520571D01*
X55801267Y-61520574D01*
X55771341Y-61550500D01*
X55714142Y-61607698D01*
X55696742Y-61633740D01*
X55655349Y-61695688D01*
X55645688Y-61710146D01*
X55621754Y-61767930D01*
X55598538Y-61823977D01*
X55598535Y-61823987D01*
X55574500Y-61944821D01*
X55574500Y-68611610D01*
X45985919Y-68611610D01*
X45994512Y-55550005D01*
X49367277Y-55550005D01*
X49386134Y-55777580D01*
X49386136Y-55777592D01*
X49442196Y-55998967D01*
X49533930Y-56208102D01*
X49658834Y-56399283D01*
X49658837Y-56399286D01*
X49813507Y-56567302D01*
X49993722Y-56707569D01*
X49993724Y-56707570D01*
X50161482Y-56798357D01*
X50194566Y-56816261D01*
X50410562Y-56890412D01*
X50635816Y-56928000D01*
X50864184Y-56928000D01*
X51089438Y-56890412D01*
X51305434Y-56816261D01*
X51506278Y-56707569D01*
X51686493Y-56567302D01*
X51841163Y-56399286D01*
X51966069Y-56208103D01*
X52057803Y-55998969D01*
X52113864Y-55777589D01*
X52116736Y-55742928D01*
X52132723Y-55550005D01*
X52132723Y-55549994D01*
X52113865Y-55322419D01*
X52113863Y-55322407D01*
X52086879Y-55215849D01*
X52057803Y-55101031D01*
X51966069Y-54891897D01*
X51895675Y-54784151D01*
X51841165Y-54700716D01*
X51815547Y-54672888D01*
X51686493Y-54532698D01*
X51506278Y-54392431D01*
X51506276Y-54392430D01*
X51506275Y-54392429D01*
X51305435Y-54283739D01*
X51305430Y-54283737D01*
X51089440Y-54209588D01*
X50864184Y-54172000D01*
X50635816Y-54172000D01*
X50410559Y-54209588D01*
X50194569Y-54283737D01*
X50194564Y-54283739D01*
X49993724Y-54392429D01*
X49813508Y-54532697D01*
X49658834Y-54700716D01*
X49533930Y-54891897D01*
X49442196Y-55101032D01*
X49386136Y-55322407D01*
X49386134Y-55322419D01*
X49367277Y-55549994D01*
X49367277Y-55550005D01*
X45994512Y-55550005D01*
X46009918Y-32133896D01*
X46029647Y-32066872D01*
X46082481Y-32021152D01*
X46133896Y-32009980D01*
X55673934Y-32008489D01*
X56678218Y-32008332D01*
X109878628Y-32074816D01*
G37*
G04 #@! TD.AperFunction*
M02*
