G04 #@! TF.GenerationSoftware,KiCad,Pcbnew,8.0.1*
G04 #@! TF.CreationDate,2024-04-21T16:15:21+03:00*
G04 #@! TF.ProjectId,esc,6573632e-6b69-4636-9164-5f7063625858,rev?*
G04 #@! TF.SameCoordinates,Original*
G04 #@! TF.FileFunction,Soldermask,Top*
G04 #@! TF.FilePolarity,Negative*
%FSLAX46Y46*%
G04 Gerber Fmt 4.6, Leading zero omitted, Abs format (unit mm)*
G04 Created by KiCad (PCBNEW 8.0.1) date 2024-04-21 16:15:21*
%MOMM*%
%LPD*%
G01*
G04 APERTURE LIST*
G04 Aperture macros list*
%AMRoundRect*
0 Rectangle with rounded corners*
0 $1 Rounding radius*
0 $2 $3 $4 $5 $6 $7 $8 $9 X,Y pos of 4 corners*
0 Add a 4 corners polygon primitive as box body*
4,1,4,$2,$3,$4,$5,$6,$7,$8,$9,$2,$3,0*
0 Add four circle primitives for the rounded corners*
1,1,$1+$1,$2,$3*
1,1,$1+$1,$4,$5*
1,1,$1+$1,$6,$7*
1,1,$1+$1,$8,$9*
0 Add four rect primitives between the rounded corners*
20,1,$1+$1,$2,$3,$4,$5,0*
20,1,$1+$1,$4,$5,$6,$7,0*
20,1,$1+$1,$6,$7,$8,$9,0*
20,1,$1+$1,$8,$9,$2,$3,0*%
G04 Aperture macros list end*
%ADD10C,0.010000*%
%ADD11C,3.200400*%
%ADD12RoundRect,0.225000X-0.225000X-0.250000X0.225000X-0.250000X0.225000X0.250000X-0.225000X0.250000X0*%
%ADD13R,1.092200X1.041400*%
%ADD14R,0.900000X0.240000*%
%ADD15R,0.240000X0.900000*%
%ADD16R,1.400000X0.900000*%
%ADD17RoundRect,0.200000X-0.200000X-0.275000X0.200000X-0.275000X0.200000X0.275000X-0.200000X0.275000X0*%
%ADD18RoundRect,0.225000X-0.250000X0.225000X-0.250000X-0.225000X0.250000X-0.225000X0.250000X0.225000X0*%
%ADD19RoundRect,0.135000X0.185000X-0.135000X0.185000X0.135000X-0.185000X0.135000X-0.185000X-0.135000X0*%
%ADD20RoundRect,0.250000X-1.075000X0.362500X-1.075000X-0.362500X1.075000X-0.362500X1.075000X0.362500X0*%
%ADD21RoundRect,0.140000X-0.170000X0.140000X-0.170000X-0.140000X0.170000X-0.140000X0.170000X0.140000X0*%
%ADD22RoundRect,0.135000X0.135000X0.185000X-0.135000X0.185000X-0.135000X-0.185000X0.135000X-0.185000X0*%
%ADD23RoundRect,0.250000X1.500000X1.000000X-1.500000X1.000000X-1.500000X-1.000000X1.500000X-1.000000X0*%
%ADD24R,1.700000X1.700000*%
%ADD25O,1.700000X1.700000*%
%ADD26RoundRect,0.140000X-0.140000X-0.170000X0.140000X-0.170000X0.140000X0.170000X-0.140000X0.170000X0*%
%ADD27RoundRect,0.225000X0.225000X0.250000X-0.225000X0.250000X-0.225000X-0.250000X0.225000X-0.250000X0*%
%ADD28RoundRect,0.225000X0.250000X-0.225000X0.250000X0.225000X-0.250000X0.225000X-0.250000X-0.225000X0*%
%ADD29RoundRect,0.093750X0.106250X-0.093750X0.106250X0.093750X-0.106250X0.093750X-0.106250X-0.093750X0*%
%ADD30C,0.510000*%
%ADD31R,1.600000X1.000000*%
%ADD32RoundRect,0.140000X0.170000X-0.140000X0.170000X0.140000X-0.170000X0.140000X-0.170000X-0.140000X0*%
%ADD33R,0.812800X0.660400*%
%ADD34RoundRect,0.062500X0.375000X0.062500X-0.375000X0.062500X-0.375000X-0.062500X0.375000X-0.062500X0*%
%ADD35RoundRect,0.062500X0.062500X0.375000X-0.062500X0.375000X-0.062500X-0.375000X0.062500X-0.375000X0*%
%ADD36R,3.100000X3.100000*%
%ADD37R,1.600200X1.244600*%
%ADD38R,0.242473X0.809638*%
%ADD39R,0.809638X0.242473*%
%ADD40R,2.550000X2.550000*%
G04 APERTURE END LIST*
D10*
X96420000Y-53384325D02*
X95520000Y-53384325D01*
X95520000Y-53044325D01*
X96420000Y-53044325D01*
X96420000Y-53384325D01*
G36*
X96420000Y-53384325D02*
G01*
X95520000Y-53384325D01*
X95520000Y-53044325D01*
X96420000Y-53044325D01*
X96420000Y-53384325D01*
G37*
X96420000Y-52734325D02*
X95520000Y-52734325D01*
X95520000Y-52394325D01*
X95970000Y-52394325D01*
X95970000Y-52084325D01*
X95520000Y-52084325D01*
X95520000Y-51744325D01*
X95970000Y-51744325D01*
X95970000Y-51434325D01*
X95520000Y-51434325D01*
X95520000Y-51094325D01*
X96420000Y-51094325D01*
X96420000Y-52734325D01*
G36*
X96420000Y-52734325D02*
G01*
X95520000Y-52734325D01*
X95520000Y-52394325D01*
X95970000Y-52394325D01*
X95970000Y-52084325D01*
X95520000Y-52084325D01*
X95520000Y-51744325D01*
X95970000Y-51744325D01*
X95970000Y-51434325D01*
X95520000Y-51434325D01*
X95520000Y-51094325D01*
X96420000Y-51094325D01*
X96420000Y-52734325D01*
G37*
X99320000Y-51434325D02*
X98670000Y-51434325D01*
X98670000Y-51744325D01*
X99320000Y-51744325D01*
X99320000Y-52084325D01*
X98670000Y-52084325D01*
X98670000Y-52394325D01*
X99320000Y-52394325D01*
X99320000Y-52734325D01*
X98670000Y-52734325D01*
X98670000Y-53044325D01*
X99320000Y-53044325D01*
X99320000Y-53384325D01*
X96960000Y-53384325D01*
X96960000Y-51094325D01*
X99320000Y-51094325D01*
X99320000Y-51434325D01*
G36*
X99320000Y-51434325D02*
G01*
X98670000Y-51434325D01*
X98670000Y-51744325D01*
X99320000Y-51744325D01*
X99320000Y-52084325D01*
X98670000Y-52084325D01*
X98670000Y-52394325D01*
X99320000Y-52394325D01*
X99320000Y-52734325D01*
X98670000Y-52734325D01*
X98670000Y-53044325D01*
X99320000Y-53044325D01*
X99320000Y-53384325D01*
X96960000Y-53384325D01*
X96960000Y-51094325D01*
X99320000Y-51094325D01*
X99320000Y-51434325D01*
G37*
X96300000Y-41099325D02*
X95400000Y-41099325D01*
X95400000Y-40759325D01*
X96300000Y-40759325D01*
X96300000Y-41099325D01*
G36*
X96300000Y-41099325D02*
G01*
X95400000Y-41099325D01*
X95400000Y-40759325D01*
X96300000Y-40759325D01*
X96300000Y-41099325D01*
G37*
X96300000Y-40449325D02*
X95400000Y-40449325D01*
X95400000Y-40109325D01*
X95850000Y-40109325D01*
X95850000Y-39799325D01*
X95400000Y-39799325D01*
X95400000Y-39459325D01*
X95850000Y-39459325D01*
X95850000Y-39149325D01*
X95400000Y-39149325D01*
X95400000Y-38809325D01*
X96300000Y-38809325D01*
X96300000Y-40449325D01*
G36*
X96300000Y-40449325D02*
G01*
X95400000Y-40449325D01*
X95400000Y-40109325D01*
X95850000Y-40109325D01*
X95850000Y-39799325D01*
X95400000Y-39799325D01*
X95400000Y-39459325D01*
X95850000Y-39459325D01*
X95850000Y-39149325D01*
X95400000Y-39149325D01*
X95400000Y-38809325D01*
X96300000Y-38809325D01*
X96300000Y-40449325D01*
G37*
X99200000Y-39149325D02*
X98550000Y-39149325D01*
X98550000Y-39459325D01*
X99200000Y-39459325D01*
X99200000Y-39799325D01*
X98550000Y-39799325D01*
X98550000Y-40109325D01*
X99200000Y-40109325D01*
X99200000Y-40449325D01*
X98550000Y-40449325D01*
X98550000Y-40759325D01*
X99200000Y-40759325D01*
X99200000Y-41099325D01*
X96840000Y-41099325D01*
X96840000Y-38809325D01*
X99200000Y-38809325D01*
X99200000Y-39149325D01*
G36*
X99200000Y-39149325D02*
G01*
X98550000Y-39149325D01*
X98550000Y-39459325D01*
X99200000Y-39459325D01*
X99200000Y-39799325D01*
X98550000Y-39799325D01*
X98550000Y-40109325D01*
X99200000Y-40109325D01*
X99200000Y-40449325D01*
X98550000Y-40449325D01*
X98550000Y-40759325D01*
X99200000Y-40759325D01*
X99200000Y-41099325D01*
X96840000Y-41099325D01*
X96840000Y-38809325D01*
X99200000Y-38809325D01*
X99200000Y-39149325D01*
G37*
X99190000Y-35279325D02*
X98290000Y-35279325D01*
X98290000Y-34939325D01*
X99190000Y-34939325D01*
X99190000Y-35279325D01*
G36*
X99190000Y-35279325D02*
G01*
X98290000Y-35279325D01*
X98290000Y-34939325D01*
X99190000Y-34939325D01*
X99190000Y-35279325D01*
G37*
X99190000Y-35929325D02*
X98740000Y-35929325D01*
X98740000Y-36239325D01*
X99190000Y-36239325D01*
X99190000Y-36579325D01*
X98740000Y-36579325D01*
X98740000Y-36889325D01*
X99190000Y-36889325D01*
X99190000Y-37229325D01*
X98290000Y-37229325D01*
X98290000Y-35589325D01*
X99190000Y-35589325D01*
X99190000Y-35929325D01*
G36*
X99190000Y-35929325D02*
G01*
X98740000Y-35929325D01*
X98740000Y-36239325D01*
X99190000Y-36239325D01*
X99190000Y-36579325D01*
X98740000Y-36579325D01*
X98740000Y-36889325D01*
X99190000Y-36889325D01*
X99190000Y-37229325D01*
X98290000Y-37229325D01*
X98290000Y-35589325D01*
X99190000Y-35589325D01*
X99190000Y-35929325D01*
G37*
X97750000Y-37229325D02*
X95390000Y-37229325D01*
X95390000Y-36889325D01*
X96040000Y-36889325D01*
X96040000Y-36579325D01*
X95390000Y-36579325D01*
X95390000Y-36239325D01*
X96040000Y-36239325D01*
X96040000Y-35929325D01*
X95390000Y-35929325D01*
X95390000Y-35589325D01*
X96040000Y-35589325D01*
X96040000Y-35279325D01*
X95390000Y-35279325D01*
X95390000Y-34939325D01*
X97750000Y-34939325D01*
X97750000Y-37229325D01*
G36*
X97750000Y-37229325D02*
G01*
X95390000Y-37229325D01*
X95390000Y-36889325D01*
X96040000Y-36889325D01*
X96040000Y-36579325D01*
X95390000Y-36579325D01*
X95390000Y-36239325D01*
X96040000Y-36239325D01*
X96040000Y-35929325D01*
X95390000Y-35929325D01*
X95390000Y-35589325D01*
X96040000Y-35589325D01*
X96040000Y-35279325D01*
X95390000Y-35279325D01*
X95390000Y-34939325D01*
X97750000Y-34939325D01*
X97750000Y-37229325D01*
G37*
X96302220Y-65941899D02*
X95402220Y-65941899D01*
X95402220Y-65601899D01*
X96302220Y-65601899D01*
X96302220Y-65941899D01*
G36*
X96302220Y-65941899D02*
G01*
X95402220Y-65941899D01*
X95402220Y-65601899D01*
X96302220Y-65601899D01*
X96302220Y-65941899D01*
G37*
X96302220Y-65291899D02*
X95402220Y-65291899D01*
X95402220Y-64951899D01*
X95852220Y-64951899D01*
X95852220Y-64641899D01*
X95402220Y-64641899D01*
X95402220Y-64301899D01*
X95852220Y-64301899D01*
X95852220Y-63991899D01*
X95402220Y-63991899D01*
X95402220Y-63651899D01*
X96302220Y-63651899D01*
X96302220Y-65291899D01*
G36*
X96302220Y-65291899D02*
G01*
X95402220Y-65291899D01*
X95402220Y-64951899D01*
X95852220Y-64951899D01*
X95852220Y-64641899D01*
X95402220Y-64641899D01*
X95402220Y-64301899D01*
X95852220Y-64301899D01*
X95852220Y-63991899D01*
X95402220Y-63991899D01*
X95402220Y-63651899D01*
X96302220Y-63651899D01*
X96302220Y-65291899D01*
G37*
X99202220Y-63991899D02*
X98552220Y-63991899D01*
X98552220Y-64301899D01*
X99202220Y-64301899D01*
X99202220Y-64641899D01*
X98552220Y-64641899D01*
X98552220Y-64951899D01*
X99202220Y-64951899D01*
X99202220Y-65291899D01*
X98552220Y-65291899D01*
X98552220Y-65601899D01*
X99202220Y-65601899D01*
X99202220Y-65941899D01*
X96842220Y-65941899D01*
X96842220Y-63651899D01*
X99202220Y-63651899D01*
X99202220Y-63991899D01*
G36*
X99202220Y-63991899D02*
G01*
X98552220Y-63991899D01*
X98552220Y-64301899D01*
X99202220Y-64301899D01*
X99202220Y-64641899D01*
X98552220Y-64641899D01*
X98552220Y-64951899D01*
X99202220Y-64951899D01*
X99202220Y-65291899D01*
X98552220Y-65291899D01*
X98552220Y-65601899D01*
X99202220Y-65601899D01*
X99202220Y-65941899D01*
X96842220Y-65941899D01*
X96842220Y-63651899D01*
X99202220Y-63651899D01*
X99202220Y-63991899D01*
G37*
X99199720Y-60181899D02*
X98299720Y-60181899D01*
X98299720Y-59841899D01*
X99199720Y-59841899D01*
X99199720Y-60181899D01*
G36*
X99199720Y-60181899D02*
G01*
X98299720Y-60181899D01*
X98299720Y-59841899D01*
X99199720Y-59841899D01*
X99199720Y-60181899D01*
G37*
X99199720Y-60831899D02*
X98749720Y-60831899D01*
X98749720Y-61141899D01*
X99199720Y-61141899D01*
X99199720Y-61481899D01*
X98749720Y-61481899D01*
X98749720Y-61791899D01*
X99199720Y-61791899D01*
X99199720Y-62131899D01*
X98299720Y-62131899D01*
X98299720Y-60491899D01*
X99199720Y-60491899D01*
X99199720Y-60831899D01*
G36*
X99199720Y-60831899D02*
G01*
X98749720Y-60831899D01*
X98749720Y-61141899D01*
X99199720Y-61141899D01*
X99199720Y-61481899D01*
X98749720Y-61481899D01*
X98749720Y-61791899D01*
X99199720Y-61791899D01*
X99199720Y-62131899D01*
X98299720Y-62131899D01*
X98299720Y-60491899D01*
X99199720Y-60491899D01*
X99199720Y-60831899D01*
G37*
X97759720Y-62131899D02*
X95399720Y-62131899D01*
X95399720Y-61791899D01*
X96049720Y-61791899D01*
X96049720Y-61481899D01*
X95399720Y-61481899D01*
X95399720Y-61141899D01*
X96049720Y-61141899D01*
X96049720Y-60831899D01*
X95399720Y-60831899D01*
X95399720Y-60491899D01*
X96049720Y-60491899D01*
X96049720Y-60181899D01*
X95399720Y-60181899D01*
X95399720Y-59841899D01*
X97759720Y-59841899D01*
X97759720Y-62131899D01*
G36*
X97759720Y-62131899D02*
G01*
X95399720Y-62131899D01*
X95399720Y-61791899D01*
X96049720Y-61791899D01*
X96049720Y-61481899D01*
X95399720Y-61481899D01*
X95399720Y-61141899D01*
X96049720Y-61141899D01*
X96049720Y-60831899D01*
X95399720Y-60831899D01*
X95399720Y-60491899D01*
X96049720Y-60491899D01*
X96049720Y-60181899D01*
X95399720Y-60181899D01*
X95399720Y-59841899D01*
X97759720Y-59841899D01*
X97759720Y-62131899D01*
G37*
X99320000Y-47604325D02*
X98420000Y-47604325D01*
X98420000Y-47264325D01*
X99320000Y-47264325D01*
X99320000Y-47604325D01*
G36*
X99320000Y-47604325D02*
G01*
X98420000Y-47604325D01*
X98420000Y-47264325D01*
X99320000Y-47264325D01*
X99320000Y-47604325D01*
G37*
X99320000Y-48254325D02*
X98870000Y-48254325D01*
X98870000Y-48564325D01*
X99320000Y-48564325D01*
X99320000Y-48904325D01*
X98870000Y-48904325D01*
X98870000Y-49214325D01*
X99320000Y-49214325D01*
X99320000Y-49554325D01*
X98420000Y-49554325D01*
X98420000Y-47914325D01*
X99320000Y-47914325D01*
X99320000Y-48254325D01*
G36*
X99320000Y-48254325D02*
G01*
X98870000Y-48254325D01*
X98870000Y-48564325D01*
X99320000Y-48564325D01*
X99320000Y-48904325D01*
X98870000Y-48904325D01*
X98870000Y-49214325D01*
X99320000Y-49214325D01*
X99320000Y-49554325D01*
X98420000Y-49554325D01*
X98420000Y-47914325D01*
X99320000Y-47914325D01*
X99320000Y-48254325D01*
G37*
X97880000Y-49554325D02*
X95520000Y-49554325D01*
X95520000Y-49214325D01*
X96170000Y-49214325D01*
X96170000Y-48904325D01*
X95520000Y-48904325D01*
X95520000Y-48564325D01*
X96170000Y-48564325D01*
X96170000Y-48254325D01*
X95520000Y-48254325D01*
X95520000Y-47914325D01*
X96170000Y-47914325D01*
X96170000Y-47604325D01*
X95520000Y-47604325D01*
X95520000Y-47264325D01*
X97880000Y-47264325D01*
X97880000Y-49554325D01*
G36*
X97880000Y-49554325D02*
G01*
X95520000Y-49554325D01*
X95520000Y-49214325D01*
X96170000Y-49214325D01*
X96170000Y-48904325D01*
X95520000Y-48904325D01*
X95520000Y-48564325D01*
X96170000Y-48564325D01*
X96170000Y-48254325D01*
X95520000Y-48254325D01*
X95520000Y-47914325D01*
X96170000Y-47914325D01*
X96170000Y-47604325D01*
X95520000Y-47604325D01*
X95520000Y-47264325D01*
X97880000Y-47264325D01*
X97880000Y-49554325D01*
G37*
D11*
X101740000Y-59080000D03*
X101740000Y-64949940D03*
X107610001Y-59080000D03*
X107610001Y-64949940D03*
X101760000Y-46400060D03*
X101760000Y-52270000D03*
X107630001Y-46400060D03*
X107630001Y-52270000D03*
X101519999Y-34360060D03*
X101519999Y-40230000D03*
X107390000Y-34360060D03*
X107390000Y-40230000D03*
X47915000Y-62140030D03*
X47915000Y-68009970D03*
X53785001Y-62140030D03*
X53785001Y-68009970D03*
X47890000Y-52540060D03*
X47890000Y-58410000D03*
X53760001Y-52540060D03*
X53760001Y-58410000D03*
D12*
X63750000Y-41275000D03*
X65300000Y-41275000D03*
D13*
X74788700Y-60800001D03*
X77811300Y-60800001D03*
X77811300Y-59299999D03*
X74788700Y-59299999D03*
D14*
X76430000Y-47730000D03*
D15*
X76980000Y-48780000D03*
X77480000Y-48780000D03*
X77980000Y-48780000D03*
X78480000Y-48780000D03*
X78980000Y-48780000D03*
D14*
X79530000Y-47730000D03*
X79530000Y-47230000D03*
D15*
X78980000Y-46180000D03*
X78480000Y-46180000D03*
X77980000Y-46180000D03*
X77480000Y-46180000D03*
X76980000Y-46180000D03*
D14*
X76430000Y-47230000D03*
D16*
X77980000Y-47480000D03*
D17*
X84746671Y-42016246D03*
X86396671Y-42016246D03*
D18*
X60585000Y-52917500D03*
X60585000Y-54467500D03*
D19*
X66095000Y-62017500D03*
X66095000Y-60997500D03*
D20*
X92960000Y-35015000D03*
X92960000Y-39640000D03*
D21*
X62660002Y-49260000D03*
X62660002Y-50220000D03*
D18*
X82984171Y-51168746D03*
X82984171Y-52718746D03*
D20*
X92960000Y-59855000D03*
X92960000Y-64480000D03*
D17*
X84746671Y-40546246D03*
X86396671Y-40546246D03*
D22*
X57550000Y-53990000D03*
X56530000Y-53990000D03*
D23*
X54660000Y-36640000D03*
X48160000Y-36640000D03*
D22*
X102820000Y-42689325D03*
X101800000Y-42689325D03*
D14*
X76500000Y-53925000D03*
D15*
X77050000Y-54975000D03*
X77550000Y-54975000D03*
X78050000Y-54975000D03*
X78550000Y-54975000D03*
X79050000Y-54975000D03*
D14*
X79600000Y-53925000D03*
X79600000Y-53425000D03*
D15*
X79050000Y-52375000D03*
X78550000Y-52375000D03*
X78050000Y-52375000D03*
X77550000Y-52375000D03*
X77050000Y-52375000D03*
D14*
X76500000Y-53425000D03*
D16*
X78050000Y-53675000D03*
D22*
X100475000Y-54794325D03*
X99455000Y-54794325D03*
D24*
X81955000Y-67925000D03*
D25*
X79415000Y-67925000D03*
X76875000Y-67925000D03*
X74335000Y-67925000D03*
X71795000Y-67925000D03*
D23*
X54700000Y-45600000D03*
X48200000Y-45600000D03*
D26*
X101800000Y-43975000D03*
X102760000Y-43975000D03*
D27*
X68250000Y-46200000D03*
X66700000Y-46200000D03*
D28*
X69550000Y-58665000D03*
X69550000Y-57115000D03*
D12*
X85911671Y-53876246D03*
X87461671Y-53876246D03*
D22*
X57550000Y-54930000D03*
X56530000Y-54930000D03*
D19*
X68395000Y-62027500D03*
X68395000Y-61007500D03*
D29*
X66742500Y-42665000D03*
X67392500Y-42665000D03*
X68042500Y-42665000D03*
X68042500Y-40890000D03*
X67392500Y-40890000D03*
X66742500Y-40890000D03*
D30*
X66842500Y-41777500D03*
D31*
X67392500Y-41777500D03*
D30*
X67942500Y-41777500D03*
D26*
X101850000Y-55975000D03*
X102810000Y-55975000D03*
D20*
X93070000Y-47309325D03*
X93070000Y-51934325D03*
D19*
X67455000Y-62022500D03*
X67455000Y-61002500D03*
D22*
X102280000Y-67425000D03*
X101260000Y-67425000D03*
D12*
X84499171Y-46326246D03*
X86049171Y-46326246D03*
D22*
X99520000Y-67400000D03*
X98500000Y-67400000D03*
D24*
X68065000Y-65385000D03*
D25*
X68065000Y-67925000D03*
X65525000Y-65385000D03*
X65525000Y-67925000D03*
X62985000Y-65385000D03*
X62985000Y-67925000D03*
X60445000Y-65385000D03*
X60445000Y-67925000D03*
X57905000Y-65385000D03*
X57905000Y-67925000D03*
D17*
X84754171Y-58666246D03*
X86404171Y-58666246D03*
D27*
X68250000Y-44295000D03*
X66700000Y-44295000D03*
D28*
X90000000Y-52340000D03*
X90000000Y-50790000D03*
D32*
X70200002Y-50425000D03*
X70200002Y-49465000D03*
D18*
X73810000Y-45020000D03*
X73810000Y-46570000D03*
D33*
X63746000Y-39005000D03*
X60444000Y-39005000D03*
D28*
X73800000Y-54575000D03*
X73800000Y-53025000D03*
D18*
X69555000Y-53757500D03*
X69555000Y-55307500D03*
D22*
X100275000Y-42689325D03*
X99255000Y-42689325D03*
X57550000Y-55870000D03*
X56530000Y-55870000D03*
D27*
X86046671Y-44866246D03*
X84496671Y-44866246D03*
X68410000Y-39015000D03*
X66860000Y-39015000D03*
D17*
X84746671Y-39066246D03*
X86396671Y-39066246D03*
X84754171Y-55736246D03*
X86404171Y-55736246D03*
D34*
X67332500Y-58330000D03*
X67332500Y-57830000D03*
X67332500Y-57330000D03*
X67332500Y-56830000D03*
X67332500Y-56330000D03*
X67332500Y-55830000D03*
X67332500Y-55330000D03*
X67332500Y-54830000D03*
D35*
X66645000Y-54142500D03*
X66145000Y-54142500D03*
X65645000Y-54142500D03*
X65145000Y-54142500D03*
X64645000Y-54142500D03*
X64145000Y-54142500D03*
X63645000Y-54142500D03*
X63145000Y-54142500D03*
D34*
X62457500Y-54830000D03*
X62457500Y-55330000D03*
X62457500Y-55830000D03*
X62457500Y-56330000D03*
X62457500Y-56830000D03*
X62457500Y-57330000D03*
X62457500Y-57830000D03*
X62457500Y-58330000D03*
D35*
X63145000Y-59017500D03*
X63645000Y-59017500D03*
X64145000Y-59017500D03*
X64645000Y-59017500D03*
X65145000Y-59017500D03*
X65645000Y-59017500D03*
X66145000Y-59017500D03*
X66645000Y-59017500D03*
D36*
X64895000Y-56580000D03*
D17*
X84764171Y-57196246D03*
X86414171Y-57196246D03*
D19*
X65150000Y-62015000D03*
X65150000Y-60995000D03*
D22*
X102860000Y-54794325D03*
X101840000Y-54794325D03*
D32*
X60605000Y-56902500D03*
X60605000Y-55942500D03*
D37*
X64700002Y-50825000D03*
X68400000Y-50825000D03*
X68400000Y-48625000D03*
X64700002Y-48625000D03*
D26*
X101275000Y-68655675D03*
X102235000Y-68655675D03*
D38*
X87640001Y-48111246D03*
X87140002Y-48111246D03*
X86640001Y-48111246D03*
X86140001Y-48111246D03*
X85640000Y-48111246D03*
X85140001Y-48111246D03*
D39*
X84538754Y-48741246D03*
X84538754Y-49241245D03*
X84538754Y-49741246D03*
X84538754Y-50241246D03*
X84538754Y-50741247D03*
X84538754Y-51241246D03*
D38*
X85140000Y-51871246D03*
X85639999Y-51871246D03*
X86140000Y-51871246D03*
X86640000Y-51871246D03*
X87140001Y-51871246D03*
X87640000Y-51871246D03*
D39*
X88241246Y-51241246D03*
X88241246Y-50741247D03*
X88241246Y-50241246D03*
X88241246Y-49741246D03*
X88241246Y-49241245D03*
X88241246Y-48741246D03*
D40*
X86390000Y-49991246D03*
M02*
