M48
; DRILL file {KiCad 8.0.1} date 2024-04-29T17:35:37+0300
; FORMAT={-:-/ absolute / inch / decimal}
; #@! TF.CreationDate,2024-04-29T17:35:37+03:00
; #@! TF.GenerationSoftware,Kicad,Pcbnew,8.0.1
; #@! TF.FileFunction,Plated,1,4,PTH
FMAT,2
INCH
; #@! TA.AperFunction,Plated,PTH,ViaDrill
T1C0.0157
; #@! TA.AperFunction,Plated,PTH,ComponentDrill
T2C0.0394
; #@! TA.AperFunction,Plated,PTH,ComponentDrill
T3C0.0461
%
G90
G05
T1
X2.2685Y-2.2701
X2.2712Y-2.4189
X2.3386Y-2.2701
X2.3666Y-2.2957
X2.3955Y-2.3214
X2.4285Y-2.1287
X2.435Y-2.3854
X2.4484Y-2.0979
X2.4734Y-2.0059
X2.4754Y-1.8563
X2.4941Y-1.7441
X2.4957Y-2.3878
X2.5016Y-2.0732
X2.533Y-2.3878
X2.5335Y-2.0531
X2.5785Y-2.061
X2.6511Y-2.1181
X2.6555Y-2.5
X2.6585Y-2.3278
X2.7858Y-2.0327
X2.8376Y-2.4203
X2.8711Y-2.3258
X2.9622Y-2.129
X2.9705Y-1.7694
X2.974Y-1.9256
X2.9803Y-1.824
X3.0031Y-2.2636
X3.0276Y-1.7335
X3.0295Y-1.9827
X3.0472Y-2.2225
X3.0565Y-1.7653
X3.1091Y-1.7394
X3.113Y-2.0142
X3.1346Y-2.2079
X3.1787Y-2.089
X3.194Y-1.9528
X3.213Y-1.8988
X3.2815Y-2.126
X3.3165Y-2.0496
X3.3276Y-2.1177
X3.4319Y-1.8327
X3.4634Y-1.674
X3.468Y-1.8381
X3.4874Y-1.4862
X3.4906Y-2.0957
X3.4941Y-1.4429
X3.4984Y-1.6461
X3.5075Y-1.8374
X3.5084Y-2.035
X3.5248Y-1.9031
X3.5307Y-1.7898
X3.5346Y-2.1421
X3.5512Y-2.6543
X3.5596Y-1.916
X3.5709Y-2.2047
X3.5732Y-1.9543
X3.6083Y-2.1703
X3.635Y-2.6256
X3.6445Y-1.6752
X3.6654Y-2.2047
X3.6874Y-2.5935
X3.6969Y-1.7549
X3.7047Y-2.0955
X3.7323Y-1.7126
X3.7441Y-2.2077
X3.8809Y-2.2992
T2
X2.2797Y-2.5742
X2.2797Y-2.6742
X2.3797Y-2.5742
X2.3797Y-2.6742
X2.4797Y-2.5742
X2.4797Y-2.6742
X2.5797Y-2.5742
X2.5797Y-2.6742
X2.6797Y-2.5742
X2.6797Y-2.6742
X2.8252Y-2.6713
X2.9252Y-2.6713
X3.0252Y-2.6713
X3.1252Y-2.6713
X3.2252Y-2.6713
X3.3252Y-2.6713
T3
X1.9882Y-2.5492
X1.998Y-2.187
X4.1043Y-1.4961
X4.1043Y-1.9921
X4.1043Y-2.4764
M30
