M48
; DRILL file {KiCad 8.0.1} date 2024-05-08T18:23:47+0300
; FORMAT={-:-/ absolute / inch / decimal}
; #@! TF.CreationDate,2024-05-08T18:23:47+03:00
; #@! TF.GenerationSoftware,Kicad,Pcbnew,8.0.1
; #@! TF.FileFunction,Plated,1,4,PTH
FMAT,2
INCH
; #@! TA.AperFunction,Plated,PTH,ViaDrill
T1C0.0157
; #@! TA.AperFunction,Plated,PTH,ComponentDrill
T2C0.0394
; #@! TA.AperFunction,Plated,PTH,ComponentDrill
T3C0.0461
%
G90
G05
T1
X1.8343Y-2.7268
X1.8362Y-2.4098
X1.8413Y-1.3713
X1.8433Y-1.4425
X1.8441Y-1.5146
X1.8445Y-1.724
X1.8465Y-1.7953
X1.8472Y-1.8673
X1.863Y-1.9896
X1.8635Y-2.0407
X1.8776Y-1.3709
X1.8803Y-1.5142
X1.8807Y-1.7236
X1.8835Y-1.8669
X1.8941Y-1.4425
X1.8972Y-1.7953
X1.915Y-1.3709
X1.9177Y-1.5142
X1.9181Y-1.7236
X1.9209Y-1.8669
X1.9299Y-2.5496
X1.9362Y-2.278
X1.9437Y-1.4406
X1.9469Y-1.7933
X1.9528Y-1.3713
X1.9555Y-1.5146
X1.9559Y-1.724
X1.9587Y-1.8673
X1.9882Y-2.4921
X1.9882Y-2.6055
X1.9937Y-2.2201
X1.9941Y-2.337
X2.0476Y-2.5492
X2.0524Y-2.2783
X2.0921Y-1.3673
X2.0921Y-1.5161
X2.0945Y-1.7201
X2.0945Y-1.8689
X2.1016Y-1.4413
X2.1039Y-1.7941
X2.1256Y-1.5161
X2.126Y-1.3665
X2.128Y-1.8689
X2.1283Y-1.7193
X2.1492Y-1.4429
X2.1516Y-1.7957
X2.1583Y-1.5161
X2.1594Y-1.3665
X2.1606Y-1.8689
X2.1618Y-1.7193
X2.1937Y-1.4406
X2.1961Y-1.7933
X2.2287Y-2.3433
X2.2421Y-2.6319
X2.2425Y-2.2266
X2.2642Y-2.1524
X2.2669Y-2.2657
X2.2669Y-2.4163
X2.2776Y-1.876
X2.2811Y-1.8165
X2.2913Y-1.6358
X2.3217Y-1.7587
X2.3295Y-2.628
X2.3362Y-2.2354
X2.3388Y-2.0724
X2.3423Y-2.3097
X2.3425Y-2.3462
X2.3429Y-2.1433
X2.3631Y-2.0501
X2.3631Y-2.1894
X2.4038Y-2.3296
X2.4181Y-2.6319
X2.4285Y-2.1287
X2.4484Y-2.0979
X2.4626Y-1.7016
X2.463Y-1.8549
X2.472Y-2.4083
X2.474Y-2.0382
X2.4976Y-1.9462
X2.5016Y-2.0732
X2.5089Y-2.3957
X2.5142Y-2.187
X2.5142Y-2.2276
X2.5142Y-2.2681
X2.5232Y-1.6185
X2.5315Y-1.8228
X2.5374Y-1.6803
X2.5426Y-2.0675
X2.5457Y-2.3878
X2.5524Y-1.6346
X2.5549Y-2.187
X2.5549Y-2.2276
X2.5549Y-2.2681
X2.5785Y-2.0846
X2.5787Y-1.876
X2.5807Y-1.8327
X2.5957Y-2.187
X2.5957Y-2.2276
X2.5957Y-2.2681
X2.5996Y-1.7543
X2.6Y-1.7213
X2.602Y-1.6394
X2.6021Y-1.6067
X2.6205Y-2.4634
X2.6317Y-1.7543
X2.6321Y-1.7213
X2.6339Y-2.0748
X2.6341Y-1.6394
X2.6343Y-1.6067
X2.6854Y-2.3256
X2.7215Y-2.0348
X2.7476Y-2.0154
X2.7516Y-2.0491
X2.7624Y-1.6285
X2.7672Y-2.5399
X2.7719Y-2.601
X2.7744Y-2.335
X2.7854Y-2.1807
X2.7858Y-2.0327
X2.7874Y-1.9598
X2.7882Y-2.2488
X2.7941Y-1.7394
X2.8049Y-1.652
X2.8085Y-1.6163
X2.8091Y-2.314
X2.811Y-1.4037
X2.811Y-1.8236
X2.8124Y-1.4579
X2.813Y-1.2839
X2.814Y-1.5344
X2.8157Y-1.5715
X2.8272Y-2.0906
X2.8299Y-1.9641
X2.837Y-2.0409
X2.8376Y-2.4203
X2.8583Y-1.9323
X2.8618Y-1.8327
X2.8711Y-2.3258
X2.8902Y-2.3937
X2.9053Y-2.0494
X2.9232Y-1.8945
X2.9346Y-1.7362
X2.9386Y-2.1839
X2.9528Y-2.4283
X2.9555Y-2.3921
X2.9622Y-2.129
X2.9705Y-1.7694
X2.974Y-1.9256
X2.9827Y-2.1843
X2.9853Y-1.8027
X2.9854Y-2.2636
X3.0276Y-1.7335
X3.0303Y-1.6472
X3.0472Y-2.212
X3.0565Y-1.7653
X3.0602Y-1.9657
X3.0635Y-1.605
X3.1Y-1.6035
X3.1091Y-1.7394
X3.113Y-2.0142
X3.1182Y-2.2096
X3.1469Y-1.7653
X3.148Y-1.6024
X3.1709Y-2.1559
X3.1787Y-2.089
X3.1815Y-2.2762
X3.1846Y-1.603
X3.1957Y-1.9819
X3.2018Y-1.9336
X3.2098Y-1.7984
X3.213Y-1.8988
X3.2165Y-2.3917
X3.2169Y-2.3315
X3.2815Y-2.126
X3.2894Y-1.7161
X3.2906Y-1.7969
X3.3016Y-2.043
X3.3272Y-1.7228
X3.3276Y-2.1177
X3.3689Y-1.9681
X3.3874Y-1.7181
X3.4012Y-1.9358
X3.4012Y-1.9682
X3.4012Y-2.0008
X3.4209Y-1.4606
X3.4244Y-1.7201
X3.4319Y-1.8327
X3.4335Y-1.9681
X3.4395Y-1.7627
X3.4469Y-1.7984
X3.4634Y-1.674
X3.4665Y-1.4606
X3.468Y-1.8381
X3.4886Y-2.3024
X3.4906Y-2.0957
X3.4984Y-1.6461
X3.5016Y-1.589
X3.5084Y-2.035
X3.51Y-1.4606
X3.5195Y-1.8978
X3.5218Y-1.7701
X3.5218Y-1.8272
X3.5346Y-2.1421
X3.5445Y-1.6122
X3.5512Y-2.6543
X3.5555Y-1.9134
X3.5591Y-2.5787
X3.5702Y-1.5417
X3.5709Y-2.2047
X3.5732Y-1.8201
X3.5732Y-1.9543
X3.5951Y-2.6933
X3.6063Y-2.3984
X3.6075Y-2.3118
X3.6079Y-2.3547
X3.6083Y-2.1703
X3.6264Y-1.3268
X3.6276Y-1.4264
X3.6287Y-1.3768
X3.6445Y-1.6752
X3.6543Y-1.7756
X3.6543Y-1.9429
X3.6547Y-1.9079
X3.6555Y-1.8114
X3.6575Y-1.863
X3.6598Y-2.6142
X3.663Y-1.3268
X3.663Y-1.4256
X3.6634Y-2.3996
X3.6642Y-2.3563
X3.6646Y-2.3134
X3.6654Y-2.2047
X3.6898Y-2.1102
X3.6941Y-1.8102
X3.6945Y-1.3772
X3.6965Y-1.9067
X3.6969Y-1.7549
X3.6976Y-1.9425
X3.698Y-1.4244
X3.698Y-1.8634
X3.7012Y-1.6449
X3.7017Y-2.3971
X3.702Y-2.3563
X3.7031Y-1.3256
X3.7041Y-2.6915
X3.7043Y-2.3114
X3.7071Y-1.7104
X3.713Y-2.1791
X3.7181Y-1.2807
X3.7197Y-2.5894
X3.726Y-1.7839
X3.7287Y-2.244
X3.7441Y-2.2077
X3.7673Y-1.3209
X3.7677Y-2.3346
X3.7681Y-2.3016
X3.7685Y-1.3535
X3.7728Y-1.8406
X3.7744Y-1.8063
X3.777Y-1.7113
X3.7894Y-2.1787
X3.7996Y-2.3358
X3.8Y-2.3016
X3.8012Y-2.402
X3.8016Y-1.4205
X3.8024Y-1.3193
X3.8031Y-1.3535
X3.8083Y-1.9051
X3.8087Y-1.8071
X3.8091Y-1.8406
X3.8339Y-2.3016
X3.8339Y-2.335
X3.835Y-1.4209
X3.835Y-2.4008
X3.8366Y-1.3543
X3.837Y-1.3181
X3.8433Y-1.9043
X3.8445Y-1.8063
X3.8453Y-1.8406
X3.8839Y-1.2953
X3.8921Y-1.7874
X3.9213Y-1.4055
X3.9213Y-1.4409
X3.9213Y-1.4764
X3.9213Y-1.5118
X3.9213Y-1.5472
X3.9213Y-1.5827
X3.9213Y-2.3858
X3.9213Y-2.4213
X3.9213Y-2.4567
X3.9213Y-2.4921
X3.9213Y-2.5276
X3.9213Y-2.563
X3.9252Y-1.8933
X3.9252Y-1.9287
X3.9252Y-1.9642
X3.9252Y-1.9996
X3.9252Y-2.035
X3.9252Y-2.0705
X3.9528Y-1.4567
X3.9528Y-1.4921
X3.9528Y-1.5276
X3.9528Y-2.437
X3.9528Y-2.4724
X3.9528Y-2.5079
X3.9567Y-1.9445
X3.9567Y-1.9799
X3.9567Y-2.0154
X4.038Y-1.7154
X4.0516Y-2.2055
X4.0701Y-2.7002
X4.0858Y-1.6886
X4.0862Y-2.172
X4.1059Y-2.6693
T2
X2.2797Y-2.5742
X2.2797Y-2.6742
X2.3797Y-2.5742
X2.3797Y-2.6742
X2.4797Y-2.5742
X2.4797Y-2.6742
X2.5797Y-2.5742
X2.5797Y-2.6742
X2.6797Y-2.5742
X2.6797Y-2.6742
X2.8252Y-2.6713
X2.9252Y-2.6713
X2.9768Y-1.3457
X3.0252Y-2.6713
X3.0768Y-1.3457
X3.1252Y-2.6713
X3.1768Y-1.3457
X3.2252Y-2.6713
X3.2768Y-1.3457
X3.3252Y-2.6713
X3.3768Y-1.3457
X3.4768Y-1.3457
X4.1929Y-2.1874
X4.1937Y-1.6992
X4.1949Y-2.689
T3
X1.9882Y-2.5492
X1.9941Y-2.2783
X4.0118Y-1.4921
X4.0118Y-2.4606
X4.0169Y-1.9724
M30
