G04 #@! TF.GenerationSoftware,KiCad,Pcbnew,8.0.1*
G04 #@! TF.CreationDate,2024-05-05T00:07:08+03:00*
G04 #@! TF.ProjectId,esc,6573632e-6b69-4636-9164-5f7063625858,rev?*
G04 #@! TF.SameCoordinates,Original*
G04 #@! TF.FileFunction,Copper,L4,Bot*
G04 #@! TF.FilePolarity,Positive*
%FSLAX46Y46*%
G04 Gerber Fmt 4.6, Leading zero omitted, Abs format (unit mm)*
G04 Created by KiCad (PCBNEW 8.0.1) date 2024-05-05 00:07:08*
%MOMM*%
%LPD*%
G01*
G04 APERTURE LIST*
G04 #@! TA.AperFunction,ComponentPad*
%ADD10C,1.755000*%
G04 #@! TD*
G04 #@! TA.AperFunction,ComponentPad*
%ADD11R,1.700000X1.700000*%
G04 #@! TD*
G04 #@! TA.AperFunction,ComponentPad*
%ADD12O,1.700000X1.700000*%
G04 #@! TD*
G04 #@! TA.AperFunction,ComponentPad*
%ADD13R,0.850000X0.850000*%
G04 #@! TD*
G04 #@! TA.AperFunction,ViaPad*
%ADD14C,0.800000*%
G04 #@! TD*
G04 #@! TA.AperFunction,Conductor*
%ADD15C,0.250000*%
G04 #@! TD*
G04 APERTURE END LIST*
D10*
X101900000Y-50500000D03*
X50500000Y-64750000D03*
X101900000Y-62800000D03*
D11*
X84460000Y-67850000D03*
D12*
X81920000Y-67850000D03*
X79380000Y-67850000D03*
X76840000Y-67850000D03*
X74300000Y-67850000D03*
X71760000Y-67850000D03*
D10*
X101900000Y-37900000D03*
D13*
X107420000Y-43310000D03*
X107400000Y-55710000D03*
D10*
X50650000Y-57870000D03*
D11*
X68065000Y-65385000D03*
D12*
X68065000Y-67925000D03*
X65525000Y-65385000D03*
X65525000Y-67925000D03*
X62985000Y-65385000D03*
X62985000Y-67925000D03*
X60445000Y-65385000D03*
X60445000Y-67925000D03*
X57905000Y-65385000D03*
X57905000Y-67925000D03*
D13*
X107420000Y-68790000D03*
D11*
X75610000Y-34180000D03*
D12*
X78150000Y-34180000D03*
X80690000Y-34180000D03*
X83230000Y-34180000D03*
X85770000Y-34180000D03*
X88310000Y-34180000D03*
D14*
X65930000Y-56580000D03*
X73670000Y-64500000D03*
X66000000Y-63430000D03*
X71450000Y-32610000D03*
X57410000Y-52570000D03*
X70580000Y-40640000D03*
X93840000Y-34980000D03*
X65550000Y-46550000D03*
X70800000Y-49780000D03*
X76680000Y-64460000D03*
X96250000Y-55340000D03*
X65930000Y-57610000D03*
X48640000Y-34820000D03*
X93890000Y-48430000D03*
X70595000Y-39115000D03*
X63850000Y-40840000D03*
X93930000Y-36180000D03*
X61420000Y-66850000D03*
X49670000Y-38470000D03*
X50500000Y-66180000D03*
X80440000Y-64460000D03*
X49370000Y-36590000D03*
X85670000Y-64510000D03*
X92110000Y-33700000D03*
X103790000Y-55170000D03*
X71195000Y-39865000D03*
X65930000Y-55550000D03*
X76970000Y-41840000D03*
X47770000Y-43780000D03*
X57800000Y-48150000D03*
X74540000Y-44100000D03*
X64880000Y-63380000D03*
X73410000Y-60800000D03*
X71040000Y-37020000D03*
X109030000Y-68840000D03*
X50500000Y-63300000D03*
X103790000Y-56280000D03*
X92820000Y-49350000D03*
X92820000Y-45100000D03*
X91640000Y-59810000D03*
X46590000Y-69260000D03*
X93830000Y-45980000D03*
X64895000Y-55550000D03*
X49450000Y-45550000D03*
X49600000Y-34830000D03*
X49020000Y-64760000D03*
X58970000Y-44670000D03*
X92140000Y-36230000D03*
X86390000Y-49991246D03*
X95950000Y-43300000D03*
X87210000Y-49990000D03*
X86390000Y-50820000D03*
X94640000Y-45310000D03*
X49750000Y-47430000D03*
X65500000Y-47650000D03*
X71445000Y-41340000D03*
X93080000Y-58760000D03*
X92850000Y-46010000D03*
X64895000Y-56580000D03*
X46640000Y-61210000D03*
X63860000Y-56580000D03*
X59930000Y-51840000D03*
X104320000Y-68780000D03*
X46920000Y-47430000D03*
X71810000Y-53100000D03*
X94440000Y-32530000D03*
X94450000Y-67910000D03*
X48790000Y-47420000D03*
X46820000Y-36640000D03*
X52010000Y-64750000D03*
X48720000Y-43780000D03*
X103720000Y-42770000D03*
X93040000Y-33700000D03*
X92900000Y-47320000D03*
X83330000Y-44100000D03*
X108970000Y-55760000D03*
X64840000Y-41160000D03*
X62550000Y-43220000D03*
X47334000Y-51835000D03*
X88610000Y-58480000D03*
X94060000Y-33670000D03*
X92830000Y-48460000D03*
X63860000Y-57610000D03*
X74250000Y-48120000D03*
X91300000Y-68210000D03*
X71880000Y-49888000D03*
X47760000Y-38460000D03*
X75070000Y-60760000D03*
X48190000Y-45600000D03*
X46770000Y-34830000D03*
X72600000Y-49080000D03*
X63860000Y-55550000D03*
X94090000Y-58710000D03*
X75760000Y-55480000D03*
X64300000Y-46300000D03*
X93930000Y-47330000D03*
X70470000Y-59310000D03*
X85570000Y-49990000D03*
X59170000Y-66750000D03*
X48710000Y-38460000D03*
X93920000Y-49340000D03*
X80810412Y-57816421D03*
X69090000Y-51970000D03*
X47319000Y-50535000D03*
X49680000Y-43790000D03*
X102580000Y-43780000D03*
X57940000Y-46140000D03*
X93040000Y-36210000D03*
X46840000Y-38470000D03*
X56610000Y-59520000D03*
X71350000Y-58775000D03*
X81326523Y-49113095D03*
X91470000Y-66440000D03*
X64895000Y-57610000D03*
X75150000Y-61850000D03*
X83302000Y-45620000D03*
X69790000Y-51250000D03*
X58200000Y-41550000D03*
X92170000Y-34970000D03*
X70970000Y-44180000D03*
X72060000Y-51840000D03*
X46850000Y-43790000D03*
X48110000Y-36640000D03*
X91630000Y-58720000D03*
X91600000Y-60920000D03*
X71160000Y-35610000D03*
X104290000Y-67800000D03*
X93050000Y-60950000D03*
X56950000Y-66850000D03*
X46900000Y-45600000D03*
X47840000Y-47420000D03*
X70440000Y-67330000D03*
X93070000Y-59850000D03*
X94030000Y-59850000D03*
X108970000Y-43320000D03*
X80540000Y-54760000D03*
X62640000Y-48000000D03*
X59520000Y-56704674D03*
X86390000Y-49170000D03*
X59475000Y-52700000D03*
X94023579Y-60885519D03*
X71770000Y-46190000D03*
X47690000Y-34820000D03*
X71035000Y-42285000D03*
X84510000Y-43760000D03*
X86970000Y-43600000D03*
X54880000Y-47470000D03*
X53140000Y-38510000D03*
X54650000Y-45610000D03*
X97380000Y-59310000D03*
X54000000Y-34710000D03*
X96600000Y-34380000D03*
X96750000Y-46750000D03*
X53380000Y-36610000D03*
X54590000Y-36650000D03*
X54850000Y-34710000D03*
X53140000Y-34730000D03*
X54060000Y-43670000D03*
X95870000Y-45880000D03*
X96520000Y-58460000D03*
X97410000Y-60980000D03*
X50640000Y-56390000D03*
X54820000Y-38510000D03*
X53440000Y-45570000D03*
X55720000Y-36590000D03*
X96730000Y-48390000D03*
X97410000Y-36090000D03*
X97460000Y-33480000D03*
X50650000Y-59360000D03*
X95720000Y-34380000D03*
X95830000Y-46750000D03*
X96580000Y-33510000D03*
X53200000Y-43690000D03*
X97450000Y-34400000D03*
X97650000Y-45880000D03*
X96510000Y-59330000D03*
X96560000Y-36080000D03*
X96740000Y-45900000D03*
X54050000Y-47470000D03*
X96550000Y-61010000D03*
X52130000Y-57870000D03*
X49180000Y-57860000D03*
X53990000Y-38510000D03*
X87740000Y-44280000D03*
X95690000Y-33550000D03*
X97620000Y-48370000D03*
X95700000Y-59300000D03*
X97670000Y-46750000D03*
X97380000Y-58460000D03*
X54910000Y-43670000D03*
X55780000Y-45550000D03*
X95710000Y-58460000D03*
X87081063Y-45627274D03*
X53200000Y-47470000D03*
X94800000Y-43500000D03*
X89780000Y-54410000D03*
X92570000Y-42550000D03*
X90758966Y-46231034D03*
X84520000Y-53790000D03*
X95100000Y-56075000D03*
X90700000Y-56000000D03*
X93100000Y-56000000D03*
X59747945Y-59574012D03*
X93900000Y-44575000D03*
X90916034Y-39923966D03*
X64450000Y-42680000D03*
X62188300Y-53285603D03*
X75240000Y-54076500D03*
X63541034Y-52658966D03*
X78970000Y-44180000D03*
X65493000Y-52350000D03*
X76950000Y-50360000D03*
X76278534Y-57496466D03*
X61683196Y-54068873D03*
X62825000Y-50950000D03*
X72925000Y-59075000D03*
X79070000Y-51160000D03*
X72075000Y-61475000D03*
X64350000Y-52150000D03*
X75450000Y-44941500D03*
X98650000Y-32900000D03*
X94010000Y-41780000D03*
X98860000Y-45400000D03*
X94310000Y-55348000D03*
X94100000Y-53225000D03*
X88860000Y-41810000D03*
X88660000Y-53230000D03*
X89114491Y-51688500D03*
X83350000Y-54000000D03*
X84240000Y-52060000D03*
X66856082Y-43720000D03*
X81710000Y-59220000D03*
X81700000Y-60750000D03*
X59670000Y-55330000D03*
X70820000Y-57120000D03*
X75550000Y-51960000D03*
X66030000Y-44560000D03*
X66093918Y-40810000D03*
X66040000Y-43720000D03*
X66906082Y-41640000D03*
X66846082Y-44560000D03*
X64270000Y-62590000D03*
X66910000Y-40810000D03*
X70920000Y-56120000D03*
X72690000Y-46550000D03*
X66090000Y-41640000D03*
X87970000Y-42520000D03*
X94290000Y-65875000D03*
X60250000Y-60450000D03*
X94710000Y-56998000D03*
X66900000Y-52700000D03*
X75700000Y-46330000D03*
X75540000Y-48910000D03*
X76900000Y-44031500D03*
X70760000Y-51630000D03*
X78118314Y-41379590D03*
X89454966Y-46410000D03*
X81170000Y-50340000D03*
X90758966Y-47560000D03*
X90760000Y-49640000D03*
X79965789Y-41251883D03*
X81610000Y-48230500D03*
X90310000Y-48600000D03*
X77398000Y-56452221D03*
X89395000Y-48205000D03*
X90030000Y-40950000D03*
X89700000Y-37730000D03*
X88260000Y-45650000D03*
X79038994Y-41271503D03*
X79930000Y-44838777D03*
X77634138Y-44838777D03*
X88086095Y-46688479D03*
X80740000Y-53060000D03*
X89454966Y-44960000D03*
X88940000Y-40360000D03*
X86890000Y-37098000D03*
X80890000Y-41180000D03*
X79620000Y-56080000D03*
X81530000Y-45680000D03*
X87170000Y-46550000D03*
X57688500Y-61850000D03*
X57550000Y-57000000D03*
X59891326Y-58008674D03*
X61850000Y-60590000D03*
X90715000Y-37165000D03*
X63391500Y-60650000D03*
X91650000Y-55125000D03*
X90300000Y-64000000D03*
X90200000Y-67420000D03*
X70287500Y-64512500D03*
X64337272Y-60651336D03*
X68210000Y-59070000D03*
X63390000Y-49390000D03*
D15*
X91412000Y-52778000D02*
X89780000Y-54410000D01*
X93850000Y-42550000D02*
X94800000Y-43500000D01*
X92570000Y-42550000D02*
X93850000Y-42550000D01*
X91412000Y-46884068D02*
X91412000Y-52778000D01*
X90758966Y-46231034D02*
X91412000Y-46884068D01*
X90700000Y-56000000D02*
X86730000Y-56000000D01*
X95025000Y-56000000D02*
X93100000Y-56000000D01*
X95100000Y-56075000D02*
X95025000Y-56000000D01*
X86730000Y-56000000D02*
X84520000Y-53790000D01*
X58612444Y-59574012D02*
X59747945Y-59574012D01*
X56263000Y-51097000D02*
X56263000Y-57224568D01*
X56263000Y-57224568D02*
X58612444Y-59574012D01*
X93672932Y-44575000D02*
X93900000Y-44575000D01*
X64450000Y-42910000D02*
X56263000Y-51097000D01*
X64450000Y-42680000D02*
X64450000Y-42910000D01*
X90916034Y-39923966D02*
X90916034Y-41818102D01*
X90916034Y-41818102D02*
X93672932Y-44575000D01*
X74979500Y-54337000D02*
X75240000Y-54076500D01*
X63239697Y-54337000D02*
X74979500Y-54337000D01*
X62188300Y-53285603D02*
X63239697Y-54337000D01*
X78169500Y-43379500D02*
X78970000Y-44180000D01*
X63541034Y-50608966D02*
X70720000Y-43430000D01*
X76629932Y-43379500D02*
X78169500Y-43379500D01*
X63541034Y-52658966D02*
X63541034Y-50608966D01*
X76579432Y-43430000D02*
X76629932Y-43379500D01*
X70720000Y-43430000D02*
X76579432Y-43430000D01*
X66481090Y-50540000D02*
X76770000Y-50540000D01*
X65493000Y-52350000D02*
X65493000Y-51528090D01*
X65493000Y-51528090D02*
X66481090Y-50540000D01*
X76770000Y-50540000D02*
X76950000Y-50360000D01*
X75496466Y-57496466D02*
X72720000Y-54720000D01*
X72720000Y-54720000D02*
X62334323Y-54720000D01*
X76278534Y-57496466D02*
X75496466Y-57496466D01*
X62334323Y-54720000D02*
X61683196Y-54068873D01*
X72075000Y-64075000D02*
X72075000Y-61475000D01*
X62825000Y-50950000D02*
X62800000Y-50975000D01*
X68065000Y-65385000D02*
X70765000Y-65385000D01*
X72925000Y-59075000D02*
X73100000Y-58900000D01*
X62800000Y-52840000D02*
X63920000Y-53960000D01*
X76949355Y-57747713D02*
X76949355Y-56925644D01*
X70765000Y-65385000D02*
X72075000Y-64075000D01*
X71950000Y-53960000D02*
X74750000Y-51160000D01*
X62800000Y-50975000D02*
X62800000Y-52840000D01*
X76746000Y-56722289D02*
X76746000Y-53484000D01*
X75797068Y-58900000D02*
X76949355Y-57747713D01*
X76949355Y-56925644D02*
X76746000Y-56722289D01*
X73100000Y-58900000D02*
X75797068Y-58900000D01*
X76746000Y-53484000D02*
X79070000Y-51160000D01*
X63920000Y-53960000D02*
X71950000Y-53960000D01*
X74750000Y-51160000D02*
X79070000Y-51160000D01*
X71108500Y-44941500D02*
X75450000Y-44941500D01*
X64350000Y-52150000D02*
X64350000Y-51700000D01*
X64350000Y-51700000D02*
X71108500Y-44941500D01*
X98640000Y-40700000D02*
X98640000Y-32910000D01*
X94030000Y-41800000D02*
X97540000Y-41800000D01*
X94010000Y-41780000D02*
X94030000Y-41800000D01*
X98640000Y-32910000D02*
X98650000Y-32900000D01*
X97540000Y-41800000D02*
X98640000Y-40700000D01*
X94310000Y-54670000D02*
X94310000Y-55348000D01*
X98860000Y-45400000D02*
X98860000Y-50120000D01*
X98860000Y-50120000D02*
X94310000Y-54670000D01*
X94100000Y-53225000D02*
X92613000Y-53225000D01*
X92166000Y-45116000D02*
X88860000Y-41810000D01*
X92613000Y-53225000D02*
X92166000Y-52778001D01*
X92166000Y-52778001D02*
X92166000Y-45116000D01*
X88660000Y-53230000D02*
X88660000Y-52142991D01*
X88660000Y-52142991D02*
X89114491Y-51688500D01*
X84240000Y-53110000D02*
X83350000Y-54000000D01*
X84240000Y-52060000D02*
X84240000Y-53110000D01*
X94290000Y-65875000D02*
X94290000Y-65241000D01*
X91789000Y-46339000D02*
X87970000Y-42520000D01*
X92302000Y-63253000D02*
X92302000Y-53447159D01*
X92302000Y-53447159D02*
X91789000Y-52934159D01*
X94290000Y-65241000D02*
X92302000Y-63253000D01*
X91789000Y-52934159D02*
X91789000Y-46339000D01*
X56750000Y-69100000D02*
X54960000Y-67310000D01*
X54960000Y-67310000D02*
X54960000Y-63246432D01*
X94710000Y-56998000D02*
X97458000Y-56998000D01*
X54960000Y-63246432D02*
X57756432Y-60450000D01*
X94270000Y-69100000D02*
X56750000Y-69100000D01*
X97458000Y-56998000D02*
X98575000Y-58115000D01*
X57756432Y-60450000D02*
X60250000Y-60450000D01*
X98575000Y-64795000D02*
X94270000Y-69100000D01*
X98575000Y-58115000D02*
X98575000Y-64795000D01*
X76900000Y-44031500D02*
X76690000Y-44241500D01*
X75700000Y-46330000D02*
X75700000Y-48750000D01*
X76690000Y-44241500D02*
X76690000Y-47760000D01*
X75700000Y-48750000D02*
X75635000Y-48815000D01*
X70760000Y-51640000D02*
X70760000Y-51630000D01*
X66900000Y-52700000D02*
X69700000Y-52700000D01*
X76690000Y-47760000D02*
X75635000Y-48815000D01*
X75540000Y-48910000D02*
X75635000Y-48815000D01*
X69700000Y-52700000D02*
X70760000Y-51640000D01*
X88067774Y-48333000D02*
X89374774Y-49640000D01*
X89374774Y-49640000D02*
X90760000Y-49640000D01*
X75610000Y-38871276D02*
X75610000Y-34180000D01*
X78118314Y-41379590D02*
X75610000Y-38871276D01*
X81612568Y-50340000D02*
X83619568Y-48333000D01*
X90758966Y-47560000D02*
X90604966Y-47560000D01*
X81170000Y-50340000D02*
X81612568Y-50340000D01*
X90604966Y-47560000D02*
X89454966Y-46410000D01*
X83619568Y-48333000D02*
X88067774Y-48333000D01*
X81884500Y-47956000D02*
X81610000Y-48230500D01*
X88223932Y-47956000D02*
X81884500Y-47956000D01*
X79960000Y-36240000D02*
X79960000Y-41246094D01*
X90310000Y-48600000D02*
X89918000Y-48992000D01*
X79960000Y-41246094D02*
X79965789Y-41251883D01*
X89259932Y-48992000D02*
X88223932Y-47956000D01*
X89918000Y-48992000D02*
X89259932Y-48992000D01*
X80690000Y-34180000D02*
X80690000Y-35510000D01*
X80690000Y-35510000D02*
X79960000Y-36240000D01*
X77980000Y-57140000D02*
X77398000Y-56558000D01*
X81392000Y-52789932D02*
X81392000Y-55230068D01*
X79482068Y-57140000D02*
X77980000Y-57140000D01*
X89395000Y-48205000D02*
X88769000Y-47579000D01*
X77398000Y-56558000D02*
X77398000Y-56452221D01*
X88769000Y-47579000D02*
X80711000Y-47579000D01*
X80476000Y-47814000D02*
X80476000Y-51873932D01*
X81392000Y-55230068D02*
X79482068Y-57140000D01*
X80476000Y-51873932D02*
X81392000Y-52789932D01*
X90030000Y-38060000D02*
X90030000Y-40950000D01*
X80711000Y-47579000D02*
X80476000Y-47814000D01*
X89700000Y-37730000D02*
X90030000Y-38060000D01*
X79038994Y-41271503D02*
X78150000Y-40382509D01*
X78150000Y-40382509D02*
X78150000Y-34180000D01*
X88260000Y-45650000D02*
X88187932Y-45650000D01*
X79930000Y-44838777D02*
X77634138Y-44838777D01*
X87376709Y-44838777D02*
X79930000Y-44838777D01*
X88187932Y-45650000D02*
X87376709Y-44838777D01*
X80378000Y-47202000D02*
X87572574Y-47202000D01*
X89454966Y-45377102D02*
X88143589Y-46688479D01*
X80099000Y-47481000D02*
X80378000Y-47202000D01*
X80740000Y-53060000D02*
X80099000Y-52419000D01*
X89454966Y-44960000D02*
X89454966Y-45377102D01*
X88517932Y-40360000D02*
X88940000Y-40360000D01*
X86890000Y-38732068D02*
X88517932Y-40360000D01*
X86890000Y-37098000D02*
X86890000Y-38732068D01*
X80099000Y-52419000D02*
X80099000Y-47481000D01*
X88143589Y-46688479D02*
X88086095Y-46688479D01*
X87572574Y-47202000D02*
X88086095Y-46688479D01*
X80890000Y-36880000D02*
X80890000Y-41180000D01*
X88310000Y-35280000D02*
X87970000Y-35620000D01*
X87970000Y-35620000D02*
X82150000Y-35620000D01*
X85960000Y-46811840D02*
X80128160Y-46811840D01*
X79722000Y-55978000D02*
X79620000Y-56080000D01*
X79722000Y-47218000D02*
X79722000Y-55978000D01*
X87170000Y-46550000D02*
X86908160Y-46811840D01*
X86908160Y-46811840D02*
X85960000Y-46811840D01*
X80128160Y-46811840D02*
X79722000Y-47218000D01*
X82150000Y-35620000D02*
X80890000Y-36880000D01*
X88310000Y-34180000D02*
X88310000Y-35280000D01*
X81530000Y-45680000D02*
X82661840Y-46811840D01*
X61775000Y-66075000D02*
X62310000Y-66610000D01*
X58558674Y-58008674D02*
X59891326Y-58008674D01*
X62310000Y-66610000D02*
X80680000Y-66610000D01*
X57688500Y-61850000D02*
X57688500Y-61888500D01*
X57688500Y-61888500D02*
X58050000Y-62250000D01*
X59525000Y-62250000D02*
X61775000Y-64500000D01*
X58050000Y-62250000D02*
X59525000Y-62250000D01*
X57550000Y-57000000D02*
X58558674Y-58008674D01*
X61775000Y-64500000D02*
X61775000Y-66075000D01*
X80680000Y-66610000D02*
X81920000Y-67850000D01*
X56640000Y-55110000D02*
X58886674Y-57356674D01*
X83260000Y-37270000D02*
X83260000Y-39732068D01*
X83260000Y-39732068D02*
X79989068Y-43003000D01*
X61850000Y-59045280D02*
X61850000Y-60590000D01*
X89860000Y-36310000D02*
X84220000Y-36310000D01*
X60161394Y-57356674D02*
X61850000Y-59045280D01*
X79989068Y-43003000D02*
X65137000Y-43003000D01*
X56640000Y-51500000D02*
X56640000Y-55110000D01*
X65137000Y-43003000D02*
X56640000Y-51500000D01*
X84220000Y-36310000D02*
X83260000Y-37270000D01*
X90715000Y-37165000D02*
X89860000Y-36310000D01*
X58886674Y-57356674D02*
X60161394Y-57356674D01*
X91650000Y-57332068D02*
X88982732Y-59999336D01*
X88982732Y-59999336D02*
X64067204Y-59999336D01*
X64067204Y-59999336D02*
X63416540Y-60650000D01*
X63416540Y-60650000D02*
X63391500Y-60650000D01*
X91650000Y-55125000D02*
X91650000Y-57332068D01*
X70287500Y-64512500D02*
X69666964Y-64512500D01*
X65805800Y-60651336D02*
X64337272Y-60651336D01*
X90300000Y-64000000D02*
X90300000Y-67320000D01*
X90300000Y-67320000D02*
X90200000Y-67420000D01*
X69666964Y-64512500D02*
X65805800Y-60651336D01*
X68210000Y-59070000D02*
X68155000Y-59125000D01*
X68155000Y-59125000D02*
X64095000Y-59125000D01*
X60675000Y-51725000D02*
X63010000Y-49390000D01*
X63010000Y-49390000D02*
X63390000Y-49390000D01*
X60675000Y-55705000D02*
X60675000Y-51725000D01*
X64095000Y-59125000D02*
X60675000Y-55705000D01*
G04 #@! TA.AperFunction,Conductor*
G36*
X97923176Y-32052285D02*
G01*
X97990191Y-32072043D01*
X98035887Y-32124897D01*
X98045754Y-32194066D01*
X98016659Y-32257590D01*
X98015186Y-32259256D01*
X97917466Y-32367785D01*
X97822820Y-32531717D01*
X97821036Y-32535724D01*
X97775779Y-32588956D01*
X97708928Y-32609270D01*
X97681983Y-32606566D01*
X97554646Y-32579500D01*
X97365354Y-32579500D01*
X97332897Y-32586398D01*
X97180197Y-32618855D01*
X97036744Y-32682725D01*
X96967494Y-32692009D01*
X96935874Y-32682725D01*
X96859802Y-32648855D01*
X96714001Y-32617865D01*
X96674646Y-32609500D01*
X96485354Y-32609500D01*
X96452897Y-32616398D01*
X96300197Y-32648855D01*
X96140514Y-32719951D01*
X96071264Y-32729235D01*
X96039644Y-32719951D01*
X95969802Y-32688855D01*
X95824001Y-32657865D01*
X95784646Y-32649500D01*
X95595354Y-32649500D01*
X95562897Y-32656398D01*
X95410197Y-32688855D01*
X95410192Y-32688857D01*
X95237270Y-32765848D01*
X95237265Y-32765851D01*
X95084129Y-32877111D01*
X94957466Y-33017785D01*
X94862821Y-33181715D01*
X94862818Y-33181722D01*
X94804327Y-33361740D01*
X94804326Y-33361744D01*
X94784540Y-33550000D01*
X94804326Y-33738256D01*
X94804327Y-33738259D01*
X94862818Y-33918277D01*
X94862821Y-33918284D01*
X94873840Y-33937370D01*
X94890310Y-34005271D01*
X94884382Y-34037685D01*
X94838142Y-34179999D01*
X94834326Y-34191744D01*
X94814540Y-34380000D01*
X94834326Y-34568256D01*
X94834327Y-34568259D01*
X94892818Y-34748277D01*
X94892821Y-34748284D01*
X94987467Y-34912216D01*
X95061556Y-34994500D01*
X95114129Y-35052888D01*
X95267265Y-35164148D01*
X95267270Y-35164151D01*
X95440192Y-35241142D01*
X95440197Y-35241144D01*
X95625354Y-35280500D01*
X95625355Y-35280500D01*
X95789622Y-35280500D01*
X95856661Y-35300185D01*
X95902416Y-35352989D01*
X95912360Y-35422147D01*
X95883335Y-35485703D01*
X95881772Y-35487472D01*
X95827466Y-35547785D01*
X95732821Y-35711715D01*
X95732818Y-35711722D01*
X95680703Y-35872117D01*
X95674326Y-35891744D01*
X95654540Y-36080000D01*
X95674326Y-36268256D01*
X95674327Y-36268259D01*
X95732818Y-36448277D01*
X95732821Y-36448284D01*
X95827467Y-36612216D01*
X95954129Y-36752888D01*
X96107265Y-36864148D01*
X96107270Y-36864151D01*
X96280192Y-36941142D01*
X96280197Y-36941144D01*
X96465354Y-36980500D01*
X96465355Y-36980500D01*
X96654644Y-36980500D01*
X96654646Y-36980500D01*
X96839803Y-36941144D01*
X96923333Y-36903952D01*
X96992582Y-36894667D01*
X97024205Y-36903953D01*
X97130192Y-36951142D01*
X97130197Y-36951144D01*
X97315354Y-36990500D01*
X97315355Y-36990500D01*
X97504644Y-36990500D01*
X97504646Y-36990500D01*
X97689803Y-36951144D01*
X97840066Y-36884241D01*
X97909313Y-36874956D01*
X97972590Y-36904584D01*
X98009804Y-36963719D01*
X98014500Y-36997521D01*
X98014500Y-40389548D01*
X97994815Y-40456587D01*
X97978181Y-40477229D01*
X97317229Y-41138181D01*
X97255906Y-41171666D01*
X97229548Y-41174500D01*
X94731756Y-41174500D01*
X94664717Y-41154815D01*
X94639607Y-41133473D01*
X94615871Y-41107112D01*
X94615864Y-41107106D01*
X94462734Y-40995851D01*
X94462729Y-40995848D01*
X94289807Y-40918857D01*
X94289802Y-40918855D01*
X94118534Y-40882452D01*
X94104646Y-40879500D01*
X93915354Y-40879500D01*
X93901466Y-40882452D01*
X93730197Y-40918855D01*
X93730192Y-40918857D01*
X93557270Y-40995848D01*
X93557265Y-40995851D01*
X93404129Y-41107111D01*
X93277466Y-41247785D01*
X93182821Y-41411715D01*
X93182818Y-41411722D01*
X93124326Y-41591742D01*
X93124325Y-41591746D01*
X93120142Y-41631543D01*
X93093557Y-41696157D01*
X93036259Y-41736141D01*
X92966440Y-41738799D01*
X92946386Y-41731858D01*
X92849806Y-41688857D01*
X92849802Y-41688855D01*
X92704001Y-41657865D01*
X92664646Y-41649500D01*
X92475354Y-41649500D01*
X92442897Y-41656398D01*
X92290197Y-41688855D01*
X92290192Y-41688857D01*
X92117270Y-41765848D01*
X92117265Y-41765851D01*
X91989285Y-41858834D01*
X91923478Y-41882314D01*
X91855425Y-41866488D01*
X91828719Y-41846197D01*
X91721321Y-41738799D01*
X91577853Y-41595330D01*
X91544368Y-41534007D01*
X91541534Y-41507649D01*
X91541534Y-40622653D01*
X91561219Y-40555614D01*
X91573384Y-40539681D01*
X91591925Y-40519088D01*
X91648567Y-40456182D01*
X91743213Y-40292250D01*
X91801708Y-40112222D01*
X91821494Y-39923966D01*
X91801708Y-39735710D01*
X91743213Y-39555682D01*
X91648567Y-39391750D01*
X91521905Y-39251078D01*
X91521904Y-39251077D01*
X91368768Y-39139817D01*
X91368763Y-39139814D01*
X91195841Y-39062823D01*
X91195836Y-39062821D01*
X91033667Y-39028352D01*
X91010680Y-39023466D01*
X90821388Y-39023466D01*
X90816158Y-39024577D01*
X90805277Y-39026890D01*
X90735610Y-39021572D01*
X90679878Y-38979432D01*
X90655775Y-38913852D01*
X90655500Y-38905599D01*
X90655500Y-38189500D01*
X90675185Y-38122461D01*
X90727989Y-38076706D01*
X90779500Y-38065500D01*
X90809644Y-38065500D01*
X90809646Y-38065500D01*
X90994803Y-38026144D01*
X91167730Y-37949151D01*
X91320871Y-37837888D01*
X91447533Y-37697216D01*
X91542179Y-37533284D01*
X91600674Y-37353256D01*
X91620460Y-37165000D01*
X91600674Y-36976744D01*
X91542179Y-36796716D01*
X91447533Y-36632784D01*
X91320871Y-36492112D01*
X91320870Y-36492111D01*
X91167734Y-36380851D01*
X91167729Y-36380848D01*
X90994807Y-36303857D01*
X90994802Y-36303855D01*
X90849001Y-36272865D01*
X90809646Y-36264500D01*
X90809645Y-36264500D01*
X90750452Y-36264500D01*
X90683413Y-36244815D01*
X90662771Y-36228181D01*
X90352928Y-35918338D01*
X90352925Y-35918334D01*
X90352925Y-35918335D01*
X90345859Y-35911269D01*
X90345858Y-35911267D01*
X90258733Y-35824142D01*
X90258729Y-35824139D01*
X90258728Y-35824138D01*
X90205925Y-35788856D01*
X90205923Y-35788855D01*
X90156290Y-35755690D01*
X90156286Y-35755688D01*
X90152546Y-35754139D01*
X90074269Y-35721716D01*
X90042452Y-35708537D01*
X90042448Y-35708536D01*
X90042445Y-35708535D01*
X89961587Y-35692451D01*
X89961580Y-35692451D01*
X89921607Y-35684500D01*
X89921606Y-35684500D01*
X89005066Y-35684500D01*
X88938027Y-35664815D01*
X88892272Y-35612011D01*
X88882328Y-35542853D01*
X88890505Y-35513048D01*
X88911463Y-35462451D01*
X88915166Y-35443834D01*
X88947550Y-35381925D01*
X88984381Y-35355642D01*
X88987830Y-35354035D01*
X89181401Y-35218495D01*
X89348495Y-35051401D01*
X89484035Y-34857830D01*
X89583903Y-34643663D01*
X89645063Y-34415408D01*
X89665659Y-34180000D01*
X89645063Y-33944592D01*
X89583903Y-33716337D01*
X89484035Y-33502171D01*
X89478425Y-33494158D01*
X89348494Y-33308597D01*
X89181402Y-33141506D01*
X89181395Y-33141501D01*
X88987834Y-33005967D01*
X88987830Y-33005965D01*
X88987828Y-33005964D01*
X88773663Y-32906097D01*
X88773659Y-32906096D01*
X88773655Y-32906094D01*
X88545413Y-32844938D01*
X88545403Y-32844936D01*
X88310001Y-32824341D01*
X88309999Y-32824341D01*
X88074596Y-32844936D01*
X88074586Y-32844938D01*
X87846344Y-32906094D01*
X87846335Y-32906098D01*
X87632171Y-33005964D01*
X87632169Y-33005965D01*
X87438597Y-33141505D01*
X87271505Y-33308597D01*
X87141575Y-33494158D01*
X87086998Y-33537783D01*
X87017500Y-33544977D01*
X86955145Y-33513454D01*
X86938425Y-33494158D01*
X86808494Y-33308597D01*
X86641402Y-33141506D01*
X86641395Y-33141501D01*
X86447834Y-33005967D01*
X86447830Y-33005965D01*
X86447828Y-33005964D01*
X86233663Y-32906097D01*
X86233659Y-32906096D01*
X86233655Y-32906094D01*
X86005413Y-32844938D01*
X86005403Y-32844936D01*
X85770001Y-32824341D01*
X85769999Y-32824341D01*
X85534596Y-32844936D01*
X85534586Y-32844938D01*
X85306344Y-32906094D01*
X85306335Y-32906098D01*
X85092171Y-33005964D01*
X85092169Y-33005965D01*
X84898597Y-33141505D01*
X84731505Y-33308597D01*
X84601575Y-33494158D01*
X84546998Y-33537783D01*
X84477500Y-33544977D01*
X84415145Y-33513454D01*
X84398425Y-33494158D01*
X84268494Y-33308597D01*
X84101402Y-33141506D01*
X84101395Y-33141501D01*
X83907834Y-33005967D01*
X83907830Y-33005965D01*
X83907828Y-33005964D01*
X83693663Y-32906097D01*
X83693659Y-32906096D01*
X83693655Y-32906094D01*
X83465413Y-32844938D01*
X83465403Y-32844936D01*
X83230001Y-32824341D01*
X83229999Y-32824341D01*
X82994596Y-32844936D01*
X82994586Y-32844938D01*
X82766344Y-32906094D01*
X82766335Y-32906098D01*
X82552171Y-33005964D01*
X82552169Y-33005965D01*
X82358597Y-33141505D01*
X82191505Y-33308597D01*
X82061575Y-33494158D01*
X82006998Y-33537783D01*
X81937500Y-33544977D01*
X81875145Y-33513454D01*
X81858425Y-33494158D01*
X81728494Y-33308597D01*
X81561402Y-33141506D01*
X81561395Y-33141501D01*
X81367834Y-33005967D01*
X81367830Y-33005965D01*
X81367828Y-33005964D01*
X81153663Y-32906097D01*
X81153659Y-32906096D01*
X81153655Y-32906094D01*
X80925413Y-32844938D01*
X80925403Y-32844936D01*
X80690001Y-32824341D01*
X80689999Y-32824341D01*
X80454596Y-32844936D01*
X80454586Y-32844938D01*
X80226344Y-32906094D01*
X80226335Y-32906098D01*
X80012171Y-33005964D01*
X80012169Y-33005965D01*
X79818597Y-33141505D01*
X79651505Y-33308597D01*
X79521575Y-33494158D01*
X79466998Y-33537783D01*
X79397500Y-33544977D01*
X79335145Y-33513454D01*
X79318425Y-33494158D01*
X79188494Y-33308597D01*
X79021402Y-33141506D01*
X79021395Y-33141501D01*
X78827834Y-33005967D01*
X78827830Y-33005965D01*
X78827828Y-33005964D01*
X78613663Y-32906097D01*
X78613659Y-32906096D01*
X78613655Y-32906094D01*
X78385413Y-32844938D01*
X78385403Y-32844936D01*
X78150001Y-32824341D01*
X78149999Y-32824341D01*
X77914596Y-32844936D01*
X77914586Y-32844938D01*
X77686344Y-32906094D01*
X77686335Y-32906098D01*
X77472171Y-33005964D01*
X77472169Y-33005965D01*
X77278600Y-33141503D01*
X77156673Y-33263430D01*
X77095350Y-33296914D01*
X77025658Y-33291930D01*
X76969725Y-33250058D01*
X76952810Y-33219081D01*
X76903797Y-33087671D01*
X76903793Y-33087664D01*
X76817547Y-32972455D01*
X76817544Y-32972452D01*
X76702335Y-32886206D01*
X76702328Y-32886202D01*
X76567482Y-32835908D01*
X76567483Y-32835908D01*
X76507883Y-32829501D01*
X76507881Y-32829500D01*
X76507873Y-32829500D01*
X76507864Y-32829500D01*
X74712129Y-32829500D01*
X74712123Y-32829501D01*
X74652516Y-32835908D01*
X74517671Y-32886202D01*
X74517664Y-32886206D01*
X74402455Y-32972452D01*
X74402452Y-32972455D01*
X74316206Y-33087664D01*
X74316202Y-33087671D01*
X74265908Y-33222517D01*
X74259501Y-33282116D01*
X74259500Y-33282135D01*
X74259500Y-35077870D01*
X74259501Y-35077876D01*
X74265908Y-35137483D01*
X74316202Y-35272328D01*
X74316206Y-35272335D01*
X74402452Y-35387544D01*
X74402455Y-35387547D01*
X74517664Y-35473793D01*
X74517671Y-35473797D01*
X74549593Y-35485703D01*
X74652517Y-35524091D01*
X74712127Y-35530500D01*
X74860500Y-35530499D01*
X74927539Y-35550183D01*
X74973294Y-35602987D01*
X74984500Y-35654499D01*
X74984500Y-38932885D01*
X75008535Y-39053720D01*
X75008540Y-39053737D01*
X75055685Y-39167556D01*
X75055690Y-39167565D01*
X75084378Y-39210498D01*
X75084379Y-39210500D01*
X75124140Y-39270007D01*
X75124141Y-39270008D01*
X75124142Y-39270009D01*
X75211267Y-39357134D01*
X75211268Y-39357134D01*
X75218335Y-39364201D01*
X75218334Y-39364201D01*
X75218338Y-39364204D01*
X77179352Y-41325219D01*
X77212837Y-41386542D01*
X77214992Y-41399938D01*
X77219384Y-41441721D01*
X77232640Y-41567846D01*
X77232641Y-41567849D01*
X77291132Y-41747867D01*
X77291135Y-41747874D01*
X77385781Y-41911806D01*
X77499046Y-42037599D01*
X77512443Y-42052478D01*
X77651050Y-42153182D01*
X77693716Y-42208512D01*
X77699695Y-42278125D01*
X77667089Y-42339920D01*
X77606251Y-42374277D01*
X77578165Y-42377500D01*
X67732285Y-42377500D01*
X67665246Y-42357815D01*
X67619491Y-42305011D01*
X67609547Y-42235853D01*
X67635857Y-42178241D01*
X67634797Y-42177471D01*
X67638611Y-42172220D01*
X67638615Y-42172216D01*
X67733261Y-42008284D01*
X67791756Y-41828256D01*
X67811542Y-41640000D01*
X67791756Y-41451744D01*
X67733262Y-41271718D01*
X67732073Y-41268058D01*
X67730078Y-41198217D01*
X67736728Y-41179297D01*
X67737175Y-41178290D01*
X67737179Y-41178284D01*
X67795674Y-40998256D01*
X67815460Y-40810000D01*
X67795674Y-40621744D01*
X67737179Y-40441716D01*
X67642533Y-40277784D01*
X67515871Y-40137112D01*
X67515870Y-40137111D01*
X67362734Y-40025851D01*
X67362729Y-40025848D01*
X67189807Y-39948857D01*
X67189802Y-39948855D01*
X67028263Y-39914520D01*
X67004646Y-39909500D01*
X66815354Y-39909500D01*
X66791737Y-39914520D01*
X66630198Y-39948855D01*
X66630197Y-39948855D01*
X66552394Y-39983496D01*
X66483144Y-39992780D01*
X66451524Y-39983496D01*
X66373719Y-39948855D01*
X66212181Y-39914520D01*
X66188564Y-39909500D01*
X65999272Y-39909500D01*
X65975692Y-39914512D01*
X65814115Y-39948855D01*
X65814110Y-39948857D01*
X65641188Y-40025848D01*
X65641183Y-40025851D01*
X65488047Y-40137111D01*
X65361384Y-40277785D01*
X65266739Y-40441715D01*
X65266736Y-40441722D01*
X65208245Y-40621740D01*
X65208244Y-40621744D01*
X65188458Y-40810000D01*
X65208244Y-40998256D01*
X65208245Y-40998259D01*
X65267927Y-41181941D01*
X65269922Y-41251782D01*
X65263278Y-41270690D01*
X65262820Y-41271718D01*
X65204327Y-41451740D01*
X65204326Y-41451744D01*
X65184540Y-41640000D01*
X65204326Y-41828256D01*
X65204327Y-41828259D01*
X65208342Y-41840616D01*
X65210337Y-41910457D01*
X65174257Y-41970290D01*
X65111556Y-42001118D01*
X65042141Y-41993153D01*
X65017526Y-41979252D01*
X64902734Y-41895851D01*
X64902729Y-41895848D01*
X64729807Y-41818857D01*
X64729802Y-41818855D01*
X64584001Y-41787865D01*
X64544646Y-41779500D01*
X64355354Y-41779500D01*
X64322897Y-41786398D01*
X64170197Y-41818855D01*
X64170192Y-41818857D01*
X63997270Y-41895848D01*
X63997265Y-41895851D01*
X63844129Y-42007111D01*
X63717466Y-42147785D01*
X63622821Y-42311715D01*
X63622818Y-42311722D01*
X63567019Y-42483456D01*
X63564326Y-42491744D01*
X63553001Y-42599500D01*
X63544540Y-42680000D01*
X63562216Y-42848190D01*
X63549646Y-42916919D01*
X63526576Y-42948831D01*
X57758300Y-48717109D01*
X55864269Y-50611140D01*
X55864267Y-50611142D01*
X55820704Y-50654704D01*
X55777142Y-50698266D01*
X55761309Y-50721962D01*
X55745582Y-50745500D01*
X55720928Y-50782395D01*
X55708687Y-50800715D01*
X55708685Y-50800718D01*
X55680794Y-50868056D01*
X55675347Y-50881207D01*
X55661537Y-50914548D01*
X55661535Y-50914554D01*
X55650159Y-50971740D01*
X55650160Y-50971741D01*
X55644764Y-50998875D01*
X55641977Y-51012888D01*
X55637500Y-51035394D01*
X55637500Y-57162961D01*
X55637500Y-57286175D01*
X55647368Y-57335786D01*
X55661537Y-57407020D01*
X55675347Y-57440360D01*
X55675347Y-57440361D01*
X55708685Y-57520848D01*
X55708690Y-57520857D01*
X55742914Y-57572075D01*
X55742915Y-57572077D01*
X55777140Y-57623299D01*
X55777141Y-57623300D01*
X55777142Y-57623301D01*
X55864267Y-57710426D01*
X55864268Y-57710426D01*
X55871335Y-57717493D01*
X55871334Y-57717493D01*
X55871338Y-57717496D01*
X57767534Y-59613693D01*
X57801019Y-59675016D01*
X57796035Y-59744708D01*
X57754163Y-59800641D01*
X57700441Y-59821506D01*
X57700800Y-59823311D01*
X57634403Y-59836518D01*
X57573980Y-59848537D01*
X57573979Y-59848537D01*
X57573976Y-59848538D01*
X57560426Y-59854151D01*
X57460142Y-59895689D01*
X57460140Y-59895690D01*
X57357704Y-59964138D01*
X57357696Y-59964144D01*
X54474144Y-62847696D01*
X54474138Y-62847704D01*
X54405690Y-62950140D01*
X54405688Y-62950145D01*
X54373611Y-63027587D01*
X54358538Y-63063975D01*
X54358538Y-63063977D01*
X54334500Y-63184828D01*
X54334500Y-67371611D01*
X54358535Y-67492444D01*
X54358540Y-67492461D01*
X54405686Y-67606284D01*
X54405688Y-67606287D01*
X54407004Y-67608256D01*
X54423645Y-67633159D01*
X54423647Y-67633166D01*
X54423649Y-67633166D01*
X54474138Y-67708728D01*
X54474144Y-67708736D01*
X54565586Y-67800178D01*
X54565608Y-67800198D01*
X56261016Y-69495606D01*
X56261045Y-69495637D01*
X56351263Y-69585855D01*
X56351267Y-69585858D01*
X56453707Y-69654307D01*
X56453716Y-69654312D01*
X56464544Y-69658797D01*
X56567548Y-69701463D01*
X56605898Y-69709091D01*
X56688391Y-69725499D01*
X56688392Y-69725500D01*
X56688393Y-69725500D01*
X94331608Y-69725500D01*
X94331608Y-69725499D01*
X94414102Y-69709091D01*
X94414103Y-69709091D01*
X94427120Y-69706501D01*
X94452452Y-69701463D01*
X94485792Y-69687652D01*
X94566286Y-69654312D01*
X94617509Y-69620084D01*
X94668733Y-69585858D01*
X94755858Y-69498733D01*
X94755858Y-69498731D01*
X94766066Y-69488524D01*
X94766067Y-69488521D01*
X94991718Y-69262870D01*
X106494500Y-69262870D01*
X106494501Y-69262876D01*
X106500908Y-69322483D01*
X106551202Y-69457328D01*
X106551206Y-69457335D01*
X106637452Y-69572544D01*
X106637455Y-69572547D01*
X106752664Y-69658793D01*
X106752671Y-69658797D01*
X106887517Y-69709091D01*
X106887516Y-69709091D01*
X106894444Y-69709835D01*
X106947127Y-69715500D01*
X107892872Y-69715499D01*
X107952483Y-69709091D01*
X108087331Y-69658796D01*
X108202546Y-69572546D01*
X108288796Y-69457331D01*
X108339091Y-69322483D01*
X108345500Y-69262873D01*
X108345499Y-68317128D01*
X108339091Y-68257517D01*
X108288796Y-68122669D01*
X108288795Y-68122668D01*
X108288793Y-68122664D01*
X108202547Y-68007455D01*
X108202544Y-68007452D01*
X108087335Y-67921206D01*
X108087328Y-67921202D01*
X107952482Y-67870908D01*
X107952483Y-67870908D01*
X107892883Y-67864501D01*
X107892881Y-67864500D01*
X107892873Y-67864500D01*
X107892864Y-67864500D01*
X106947129Y-67864500D01*
X106947123Y-67864501D01*
X106887516Y-67870908D01*
X106752671Y-67921202D01*
X106752664Y-67921206D01*
X106637455Y-68007452D01*
X106637452Y-68007455D01*
X106551206Y-68122664D01*
X106551202Y-68122671D01*
X106500908Y-68257517D01*
X106494872Y-68313663D01*
X106494501Y-68317123D01*
X106494500Y-68317135D01*
X106494500Y-69262870D01*
X94991718Y-69262870D01*
X99060857Y-65193734D01*
X99129311Y-65091286D01*
X99176463Y-64977452D01*
X99200500Y-64856607D01*
X99200500Y-64733394D01*
X99200500Y-62800005D01*
X100517277Y-62800005D01*
X100536134Y-63027580D01*
X100536136Y-63027592D01*
X100592196Y-63248967D01*
X100683930Y-63458102D01*
X100808834Y-63649283D01*
X100838599Y-63681616D01*
X100963507Y-63817302D01*
X101143722Y-63957569D01*
X101143724Y-63957570D01*
X101289114Y-64036252D01*
X101344566Y-64066261D01*
X101560562Y-64140412D01*
X101785816Y-64178000D01*
X102014184Y-64178000D01*
X102239438Y-64140412D01*
X102455434Y-64066261D01*
X102656278Y-63957569D01*
X102836493Y-63817302D01*
X102991163Y-63649286D01*
X103116069Y-63458103D01*
X103207803Y-63248969D01*
X103263864Y-63027589D01*
X103269607Y-62958284D01*
X103282723Y-62800005D01*
X103282723Y-62799994D01*
X103263865Y-62572419D01*
X103263863Y-62572407D01*
X103215700Y-62382216D01*
X103207803Y-62351031D01*
X103116069Y-62141897D01*
X103061116Y-62057785D01*
X102991165Y-61950716D01*
X102954143Y-61910500D01*
X102836493Y-61782698D01*
X102656278Y-61642431D01*
X102656276Y-61642430D01*
X102656275Y-61642429D01*
X102455435Y-61533739D01*
X102455430Y-61533737D01*
X102239440Y-61459588D01*
X102014184Y-61422000D01*
X101785816Y-61422000D01*
X101560559Y-61459588D01*
X101344569Y-61533737D01*
X101344564Y-61533739D01*
X101143724Y-61642429D01*
X100963508Y-61782697D01*
X100808834Y-61950716D01*
X100683930Y-62141897D01*
X100592196Y-62351032D01*
X100536136Y-62572407D01*
X100536134Y-62572419D01*
X100517277Y-62799994D01*
X100517277Y-62800005D01*
X99200500Y-62800005D01*
X99200500Y-58182741D01*
X99200501Y-58182720D01*
X99200501Y-58053391D01*
X99179351Y-57947068D01*
X99179350Y-57947064D01*
X99176463Y-57932549D01*
X99176463Y-57932548D01*
X99146886Y-57861144D01*
X99146412Y-57860000D01*
X99130051Y-57820500D01*
X99129312Y-57818715D01*
X99060858Y-57716267D01*
X99060855Y-57716263D01*
X97950928Y-56606338D01*
X97950925Y-56606334D01*
X97950925Y-56606335D01*
X97943858Y-56599268D01*
X97943858Y-56599267D01*
X97856733Y-56512142D01*
X97856732Y-56512141D01*
X97856731Y-56512140D01*
X97790347Y-56467784D01*
X97754286Y-56443688D01*
X97754287Y-56443688D01*
X97754285Y-56443687D01*
X97701981Y-56422023D01*
X97667957Y-56407930D01*
X97667955Y-56407928D01*
X97640458Y-56396539D01*
X97640454Y-56396537D01*
X97640452Y-56396537D01*
X97640448Y-56396536D01*
X97640444Y-56396535D01*
X97543894Y-56377330D01*
X97543891Y-56377330D01*
X97519609Y-56372500D01*
X97519607Y-56372500D01*
X97519606Y-56372500D01*
X96111907Y-56372500D01*
X96044868Y-56352815D01*
X95999113Y-56300011D01*
X95988586Y-56235542D01*
X95994122Y-56182870D01*
X106474500Y-56182870D01*
X106474501Y-56182876D01*
X106480908Y-56242483D01*
X106531202Y-56377328D01*
X106531206Y-56377335D01*
X106617452Y-56492544D01*
X106617455Y-56492547D01*
X106732664Y-56578793D01*
X106732671Y-56578797D01*
X106867517Y-56629091D01*
X106867516Y-56629091D01*
X106873330Y-56629716D01*
X106927127Y-56635500D01*
X107872872Y-56635499D01*
X107932483Y-56629091D01*
X108067331Y-56578796D01*
X108182546Y-56492546D01*
X108268796Y-56377331D01*
X108319091Y-56242483D01*
X108325500Y-56182873D01*
X108325499Y-55237128D01*
X108319091Y-55177517D01*
X108304671Y-55138856D01*
X108268797Y-55042671D01*
X108268793Y-55042664D01*
X108182547Y-54927455D01*
X108182544Y-54927452D01*
X108067335Y-54841206D01*
X108067328Y-54841202D01*
X107932482Y-54790908D01*
X107932483Y-54790908D01*
X107872883Y-54784501D01*
X107872881Y-54784500D01*
X107872873Y-54784500D01*
X107872864Y-54784500D01*
X106927129Y-54784500D01*
X106927123Y-54784501D01*
X106867516Y-54790908D01*
X106732671Y-54841202D01*
X106732664Y-54841206D01*
X106617455Y-54927452D01*
X106617452Y-54927455D01*
X106531206Y-55042664D01*
X106531202Y-55042671D01*
X106480908Y-55177517D01*
X106474501Y-55237116D01*
X106474501Y-55237123D01*
X106474500Y-55237135D01*
X106474500Y-56182870D01*
X95994122Y-56182870D01*
X96005460Y-56075000D01*
X95985674Y-55886744D01*
X95927179Y-55706716D01*
X95832533Y-55542784D01*
X95705871Y-55402112D01*
X95681497Y-55384403D01*
X95552734Y-55290851D01*
X95552729Y-55290848D01*
X95379807Y-55213857D01*
X95379803Y-55213856D01*
X95270926Y-55190713D01*
X95209445Y-55157520D01*
X95178777Y-55107741D01*
X95169703Y-55079815D01*
X95137179Y-54979716D01*
X95131208Y-54969373D01*
X95092403Y-54902160D01*
X95075930Y-54834260D01*
X95098783Y-54768233D01*
X95112103Y-54752485D01*
X99345858Y-50518733D01*
X99358372Y-50500005D01*
X100517277Y-50500005D01*
X100536134Y-50727580D01*
X100536136Y-50727592D01*
X100592196Y-50948967D01*
X100683930Y-51158102D01*
X100808834Y-51349283D01*
X100824083Y-51365848D01*
X100963507Y-51517302D01*
X101143722Y-51657569D01*
X101344566Y-51766261D01*
X101344569Y-51766262D01*
X101556026Y-51838855D01*
X101560562Y-51840412D01*
X101785816Y-51878000D01*
X102014184Y-51878000D01*
X102239438Y-51840412D01*
X102455434Y-51766261D01*
X102656278Y-51657569D01*
X102836493Y-51517302D01*
X102991163Y-51349286D01*
X103116069Y-51158103D01*
X103207803Y-50948969D01*
X103263864Y-50727589D01*
X103269092Y-50664500D01*
X103282723Y-50500005D01*
X103282723Y-50499994D01*
X103263865Y-50272419D01*
X103263863Y-50272407D01*
X103244086Y-50194310D01*
X103207803Y-50051031D01*
X103116069Y-49841897D01*
X103094933Y-49809546D01*
X102991165Y-49650716D01*
X102954520Y-49610909D01*
X102836493Y-49482698D01*
X102656278Y-49342431D01*
X102656276Y-49342430D01*
X102656275Y-49342429D01*
X102455435Y-49233739D01*
X102455430Y-49233737D01*
X102239440Y-49159588D01*
X102014184Y-49122000D01*
X101785816Y-49122000D01*
X101560559Y-49159588D01*
X101344569Y-49233737D01*
X101344564Y-49233739D01*
X101143724Y-49342429D01*
X100963508Y-49482697D01*
X100808834Y-49650716D01*
X100683930Y-49841897D01*
X100592196Y-50051032D01*
X100536136Y-50272407D01*
X100536134Y-50272419D01*
X100517277Y-50499994D01*
X100517277Y-50500005D01*
X99358372Y-50500005D01*
X99414312Y-50416285D01*
X99461463Y-50302451D01*
X99485501Y-50181606D01*
X99485501Y-50058393D01*
X99485501Y-50053283D01*
X99485500Y-50053257D01*
X99485500Y-46098687D01*
X99505185Y-46031648D01*
X99517350Y-46015715D01*
X99535891Y-45995122D01*
X99592533Y-45932216D01*
X99687179Y-45768284D01*
X99745674Y-45588256D01*
X99765460Y-45400000D01*
X99745674Y-45211744D01*
X99687179Y-45031716D01*
X99592533Y-44867784D01*
X99465871Y-44727112D01*
X99458322Y-44721627D01*
X99312734Y-44615851D01*
X99312729Y-44615848D01*
X99139807Y-44538857D01*
X99139802Y-44538855D01*
X98994001Y-44507865D01*
X98954646Y-44499500D01*
X98765354Y-44499500D01*
X98732897Y-44506398D01*
X98580197Y-44538855D01*
X98580192Y-44538857D01*
X98407270Y-44615848D01*
X98407265Y-44615851D01*
X98254129Y-44727111D01*
X98127465Y-44867785D01*
X98073006Y-44962112D01*
X98022439Y-45010328D01*
X97953832Y-45023550D01*
X97936226Y-45019896D01*
X97936160Y-45020207D01*
X97838739Y-44999500D01*
X97744646Y-44979500D01*
X97555354Y-44979500D01*
X97522897Y-44986398D01*
X97370197Y-45018855D01*
X97370192Y-45018857D01*
X97222976Y-45084403D01*
X97153726Y-45093688D01*
X97122107Y-45084404D01*
X97019803Y-45038856D01*
X97019801Y-45038855D01*
X97019802Y-45038855D01*
X96874001Y-45007865D01*
X96834646Y-44999500D01*
X96645354Y-44999500D01*
X96612897Y-45006398D01*
X96460197Y-45038855D01*
X96460195Y-45038856D01*
X96377894Y-45075499D01*
X96308644Y-45084783D01*
X96277023Y-45075498D01*
X96149807Y-45018857D01*
X96149802Y-45018855D01*
X96004001Y-44987865D01*
X95964646Y-44979500D01*
X95775354Y-44979500D01*
X95742897Y-44986398D01*
X95590197Y-45018855D01*
X95590192Y-45018857D01*
X95417270Y-45095848D01*
X95417265Y-45095851D01*
X95264129Y-45207111D01*
X95137466Y-45347785D01*
X95042821Y-45511715D01*
X95042818Y-45511722D01*
X94984327Y-45691740D01*
X94984326Y-45691744D01*
X94964540Y-45880000D01*
X94984326Y-46068256D01*
X94984327Y-46068259D01*
X95039097Y-46236826D01*
X95041092Y-46306668D01*
X95028555Y-46337141D01*
X95002820Y-46381716D01*
X95002820Y-46381717D01*
X94948142Y-46550000D01*
X94944326Y-46561744D01*
X94924540Y-46750000D01*
X94944326Y-46938256D01*
X94944327Y-46938259D01*
X95002818Y-47118277D01*
X95002821Y-47118284D01*
X95097467Y-47282216D01*
X95144227Y-47334148D01*
X95224129Y-47422888D01*
X95377265Y-47534148D01*
X95377270Y-47534151D01*
X95550192Y-47611142D01*
X95550197Y-47611144D01*
X95735354Y-47650500D01*
X95735355Y-47650500D01*
X95905598Y-47650500D01*
X95972637Y-47670185D01*
X96018392Y-47722989D01*
X96028336Y-47792147D01*
X96000891Y-47852242D01*
X96001285Y-47852529D01*
X95999873Y-47854472D01*
X95999311Y-47855703D01*
X95997748Y-47857472D01*
X95997466Y-47857785D01*
X95902821Y-48021715D01*
X95902818Y-48021722D01*
X95844327Y-48201740D01*
X95844326Y-48201744D01*
X95824540Y-48390000D01*
X95844326Y-48578256D01*
X95844327Y-48578259D01*
X95902818Y-48758277D01*
X95902821Y-48758284D01*
X95997467Y-48922216D01*
X96106121Y-49042888D01*
X96124129Y-49062888D01*
X96277265Y-49174148D01*
X96277270Y-49174151D01*
X96450192Y-49251142D01*
X96450197Y-49251144D01*
X96635354Y-49290500D01*
X96635355Y-49290500D01*
X96824644Y-49290500D01*
X96824646Y-49290500D01*
X97009803Y-49251144D01*
X97116837Y-49203489D01*
X97147024Y-49190049D01*
X97216274Y-49180764D01*
X97247896Y-49190049D01*
X97340192Y-49231142D01*
X97340197Y-49231144D01*
X97525354Y-49270500D01*
X97525355Y-49270500D01*
X97714644Y-49270500D01*
X97714646Y-49270500D01*
X97899803Y-49231144D01*
X98060065Y-49159789D01*
X98129314Y-49150505D01*
X98192590Y-49180133D01*
X98229804Y-49239267D01*
X98234500Y-49273069D01*
X98234500Y-49809546D01*
X98214815Y-49876585D01*
X98198181Y-49897227D01*
X95146656Y-52948751D01*
X95085333Y-52982236D01*
X95015641Y-52977252D01*
X94959708Y-52935380D01*
X94941044Y-52899387D01*
X94927182Y-52856724D01*
X94927180Y-52856720D01*
X94927179Y-52856716D01*
X94832533Y-52692784D01*
X94705871Y-52552112D01*
X94705870Y-52552111D01*
X94552734Y-52440851D01*
X94552729Y-52440848D01*
X94379807Y-52363857D01*
X94379802Y-52363855D01*
X94212448Y-52328284D01*
X94194646Y-52324500D01*
X94005354Y-52324500D01*
X93987552Y-52328284D01*
X93820197Y-52363855D01*
X93820192Y-52363857D01*
X93647270Y-52440848D01*
X93647265Y-52440851D01*
X93494130Y-52552110D01*
X93494126Y-52552114D01*
X93488400Y-52558474D01*
X93428913Y-52595121D01*
X93396252Y-52599500D01*
X92923453Y-52599500D01*
X92856414Y-52579815D01*
X92835772Y-52563181D01*
X92827819Y-52555228D01*
X92794334Y-52493905D01*
X92791500Y-52467547D01*
X92791500Y-45054396D01*
X92788863Y-45041139D01*
X92775456Y-44973733D01*
X92775456Y-44973732D01*
X92771404Y-44953362D01*
X92767463Y-44933548D01*
X92745239Y-44879894D01*
X92737728Y-44861762D01*
X92730260Y-44792294D01*
X92761536Y-44729815D01*
X92821625Y-44694163D01*
X92891450Y-44696657D01*
X92939971Y-44726630D01*
X93011433Y-44798092D01*
X93041683Y-44847454D01*
X93072819Y-44943280D01*
X93072821Y-44943284D01*
X93167467Y-45107216D01*
X93252561Y-45201722D01*
X93294129Y-45247888D01*
X93447265Y-45359148D01*
X93447270Y-45359151D01*
X93620192Y-45436142D01*
X93620197Y-45436144D01*
X93805354Y-45475500D01*
X93805355Y-45475500D01*
X93994644Y-45475500D01*
X93994646Y-45475500D01*
X94179803Y-45436144D01*
X94352730Y-45359151D01*
X94505871Y-45247888D01*
X94632533Y-45107216D01*
X94727179Y-44943284D01*
X94785674Y-44763256D01*
X94805460Y-44575000D01*
X94801139Y-44533891D01*
X94813708Y-44465164D01*
X94861440Y-44414140D01*
X94898676Y-44399643D01*
X95079803Y-44361144D01*
X95252730Y-44284151D01*
X95405871Y-44172888D01*
X95532533Y-44032216D01*
X95627179Y-43868284D01*
X95654932Y-43782870D01*
X106494500Y-43782870D01*
X106494501Y-43782876D01*
X106500908Y-43842483D01*
X106551202Y-43977328D01*
X106551206Y-43977335D01*
X106637452Y-44092544D01*
X106637455Y-44092547D01*
X106752664Y-44178793D01*
X106752671Y-44178797D01*
X106887517Y-44229091D01*
X106887516Y-44229091D01*
X106894444Y-44229835D01*
X106947127Y-44235500D01*
X107892872Y-44235499D01*
X107952483Y-44229091D01*
X108087331Y-44178796D01*
X108202546Y-44092546D01*
X108288796Y-43977331D01*
X108339091Y-43842483D01*
X108345500Y-43782873D01*
X108345499Y-42837128D01*
X108339091Y-42777517D01*
X108324671Y-42738856D01*
X108288797Y-42642671D01*
X108288793Y-42642664D01*
X108202547Y-42527455D01*
X108202544Y-42527452D01*
X108087335Y-42441206D01*
X108087328Y-42441202D01*
X107952482Y-42390908D01*
X107952483Y-42390908D01*
X107892883Y-42384501D01*
X107892881Y-42384500D01*
X107892873Y-42384500D01*
X107892864Y-42384500D01*
X106947129Y-42384500D01*
X106947123Y-42384501D01*
X106887516Y-42390908D01*
X106752671Y-42441202D01*
X106752664Y-42441206D01*
X106637455Y-42527452D01*
X106637452Y-42527455D01*
X106551206Y-42642664D01*
X106551202Y-42642671D01*
X106500908Y-42777517D01*
X106495389Y-42828855D01*
X106494501Y-42837123D01*
X106494500Y-42837135D01*
X106494500Y-43782870D01*
X95654932Y-43782870D01*
X95685674Y-43688256D01*
X95705460Y-43500000D01*
X95685674Y-43311744D01*
X95627179Y-43131716D01*
X95532533Y-42967784D01*
X95405871Y-42827112D01*
X95390369Y-42815849D01*
X95252734Y-42715851D01*
X95252729Y-42715848D01*
X95133535Y-42662779D01*
X95080298Y-42617529D01*
X95059977Y-42550680D01*
X95079023Y-42483456D01*
X95131389Y-42437201D01*
X95183971Y-42425500D01*
X97601607Y-42425500D01*
X97662029Y-42413481D01*
X97722452Y-42401463D01*
X97771545Y-42381128D01*
X97836286Y-42354312D01*
X97887509Y-42320084D01*
X97938733Y-42285858D01*
X98025858Y-42198733D01*
X98025859Y-42198731D01*
X98032925Y-42191665D01*
X98032928Y-42191661D01*
X99038729Y-41185860D01*
X99038733Y-41185858D01*
X99125858Y-41098733D01*
X99169854Y-41032888D01*
X99178601Y-41019798D01*
X99178602Y-41019795D01*
X99178606Y-41019790D01*
X99194312Y-40996285D01*
X99226384Y-40918856D01*
X99232861Y-40903220D01*
X99236695Y-40893962D01*
X99241463Y-40882452D01*
X99265500Y-40761606D01*
X99265500Y-37900005D01*
X100517277Y-37900005D01*
X100536134Y-38127580D01*
X100536136Y-38127592D01*
X100592196Y-38348967D01*
X100683930Y-38558102D01*
X100808834Y-38749283D01*
X100808837Y-38749286D01*
X100963507Y-38917302D01*
X101143722Y-39057569D01*
X101184385Y-39079575D01*
X101295696Y-39139814D01*
X101344566Y-39166261D01*
X101560562Y-39240412D01*
X101785816Y-39278000D01*
X102014184Y-39278000D01*
X102239438Y-39240412D01*
X102455434Y-39166261D01*
X102656278Y-39057569D01*
X102836493Y-38917302D01*
X102991163Y-38749286D01*
X103116069Y-38558103D01*
X103207803Y-38348969D01*
X103263864Y-38127589D01*
X103264289Y-38122461D01*
X103282723Y-37900005D01*
X103282723Y-37899994D01*
X103263865Y-37672419D01*
X103263863Y-37672407D01*
X103232992Y-37550500D01*
X103207803Y-37451031D01*
X103116069Y-37241897D01*
X102991165Y-37050716D01*
X102924480Y-36978277D01*
X102836493Y-36882698D01*
X102656278Y-36742431D01*
X102656276Y-36742430D01*
X102656275Y-36742429D01*
X102455435Y-36633739D01*
X102455430Y-36633737D01*
X102239440Y-36559588D01*
X102014184Y-36522000D01*
X101785816Y-36522000D01*
X101560559Y-36559588D01*
X101344569Y-36633737D01*
X101344564Y-36633739D01*
X101143724Y-36742429D01*
X100963508Y-36882697D01*
X100808834Y-37050716D01*
X100683930Y-37241897D01*
X100592196Y-37451032D01*
X100536136Y-37672407D01*
X100536134Y-37672419D01*
X100517277Y-37899994D01*
X100517277Y-37900005D01*
X99265500Y-37900005D01*
X99265500Y-33609793D01*
X99285185Y-33542754D01*
X99297350Y-33526821D01*
X99319546Y-33502169D01*
X99382533Y-33432216D01*
X99477179Y-33268284D01*
X99535674Y-33088256D01*
X99555460Y-32900000D01*
X99535674Y-32711744D01*
X99477179Y-32531716D01*
X99382533Y-32367784D01*
X99286257Y-32260859D01*
X99256029Y-32197871D01*
X99264654Y-32128536D01*
X99309395Y-32074870D01*
X99376048Y-32053912D01*
X99378448Y-32053890D01*
X109311112Y-32064851D01*
X109378129Y-32084610D01*
X109423825Y-32137464D01*
X109434973Y-32188865D01*
X109432565Y-50501142D01*
X109432487Y-51096824D01*
X109432487Y-51096890D01*
X109420140Y-69876102D01*
X109400411Y-69943128D01*
X109347577Y-69988848D01*
X109296160Y-70000020D01*
X52320676Y-70009000D01*
X52320480Y-70009000D01*
X46108911Y-70000189D01*
X46041900Y-69980409D01*
X45996220Y-69927540D01*
X45985087Y-69876109D01*
X45992993Y-57860000D01*
X48274540Y-57860000D01*
X48294326Y-58048256D01*
X48294327Y-58048259D01*
X48352818Y-58228277D01*
X48352821Y-58228284D01*
X48447467Y-58392216D01*
X48544066Y-58499500D01*
X48574129Y-58532888D01*
X48727265Y-58644148D01*
X48727270Y-58644151D01*
X48900192Y-58721142D01*
X48900197Y-58721144D01*
X49085354Y-58760500D01*
X49085355Y-58760500D01*
X49274644Y-58760500D01*
X49274646Y-58760500D01*
X49442175Y-58724891D01*
X49459799Y-58721145D01*
X49459800Y-58721144D01*
X49459803Y-58721144D01*
X49459805Y-58721142D01*
X49461676Y-58720535D01*
X49462823Y-58720502D01*
X49466160Y-58719793D01*
X49466289Y-58720402D01*
X49531517Y-58718533D01*
X49591233Y-58754478D01*
X49712990Y-58886740D01*
X49713509Y-58887304D01*
X49713513Y-58887307D01*
X49759182Y-58922853D01*
X49799995Y-58979563D01*
X49803670Y-59049336D01*
X49800951Y-59059024D01*
X49767442Y-59162155D01*
X49764326Y-59171744D01*
X49744540Y-59360000D01*
X49764326Y-59548256D01*
X49764327Y-59548259D01*
X49822818Y-59728277D01*
X49822821Y-59728284D01*
X49917467Y-59892216D01*
X49990105Y-59972888D01*
X50044129Y-60032888D01*
X50197265Y-60144148D01*
X50197270Y-60144151D01*
X50370192Y-60221142D01*
X50370197Y-60221144D01*
X50555354Y-60260500D01*
X50555355Y-60260500D01*
X50744644Y-60260500D01*
X50744646Y-60260500D01*
X50929803Y-60221144D01*
X51102730Y-60144151D01*
X51255871Y-60032888D01*
X51382533Y-59892216D01*
X51477179Y-59728284D01*
X51535674Y-59548256D01*
X51555460Y-59360000D01*
X51535674Y-59171744D01*
X51499047Y-59059021D01*
X51497053Y-58989183D01*
X51533133Y-58929350D01*
X51540801Y-58922864D01*
X51586493Y-58887302D01*
X51704806Y-58758779D01*
X51764691Y-58722791D01*
X51834529Y-58724891D01*
X51846472Y-58729486D01*
X51849083Y-58730648D01*
X51850197Y-58731144D01*
X52035354Y-58770500D01*
X52035355Y-58770500D01*
X52224644Y-58770500D01*
X52224646Y-58770500D01*
X52409803Y-58731144D01*
X52582730Y-58654151D01*
X52735871Y-58542888D01*
X52862533Y-58402216D01*
X52957179Y-58238284D01*
X53015674Y-58058256D01*
X53035460Y-57870000D01*
X53015674Y-57681744D01*
X52957179Y-57501716D01*
X52862533Y-57337784D01*
X52735871Y-57197112D01*
X52735870Y-57197111D01*
X52582734Y-57085851D01*
X52582729Y-57085848D01*
X52409807Y-57008857D01*
X52409802Y-57008855D01*
X52264001Y-56977865D01*
X52224646Y-56969500D01*
X52035354Y-56969500D01*
X52002897Y-56976398D01*
X51850197Y-57008855D01*
X51850194Y-57008856D01*
X51846463Y-57010518D01*
X51844111Y-57010833D01*
X51844010Y-57010866D01*
X51844003Y-57010847D01*
X51777212Y-57019798D01*
X51713937Y-56990166D01*
X51704804Y-56981218D01*
X51586493Y-56852698D01*
X51535427Y-56812952D01*
X51494616Y-56756244D01*
X51490941Y-56686471D01*
X51493653Y-56676805D01*
X51525674Y-56578256D01*
X51545460Y-56390000D01*
X51525674Y-56201744D01*
X51467179Y-56021716D01*
X51372533Y-55857784D01*
X51245871Y-55717112D01*
X51245870Y-55717111D01*
X51092734Y-55605851D01*
X51092729Y-55605848D01*
X50919807Y-55528857D01*
X50919802Y-55528855D01*
X50774001Y-55497865D01*
X50734646Y-55489500D01*
X50545354Y-55489500D01*
X50512897Y-55496398D01*
X50360197Y-55528855D01*
X50360192Y-55528857D01*
X50187270Y-55605848D01*
X50187265Y-55605851D01*
X50034129Y-55717111D01*
X49907466Y-55857785D01*
X49812821Y-56021715D01*
X49812818Y-56021722D01*
X49755566Y-56197928D01*
X49754326Y-56201744D01*
X49734540Y-56390000D01*
X49754326Y-56578256D01*
X49754501Y-56578796D01*
X49790376Y-56689206D01*
X49792371Y-56759047D01*
X49756291Y-56818880D01*
X49748609Y-56825376D01*
X49713510Y-56852695D01*
X49713503Y-56852701D01*
X49604631Y-56970967D01*
X49544744Y-57006958D01*
X49474906Y-57004857D01*
X49462977Y-57000268D01*
X49459811Y-56998858D01*
X49459801Y-56998855D01*
X49300559Y-56965008D01*
X49274646Y-56959500D01*
X49085354Y-56959500D01*
X49059441Y-56965008D01*
X48900197Y-56998855D01*
X48900192Y-56998857D01*
X48727270Y-57075848D01*
X48727265Y-57075851D01*
X48574129Y-57187111D01*
X48447466Y-57327785D01*
X48352821Y-57491715D01*
X48352818Y-57491722D01*
X48294604Y-57670888D01*
X48294326Y-57671744D01*
X48274540Y-57860000D01*
X45992993Y-57860000D01*
X45999828Y-47470000D01*
X52294540Y-47470000D01*
X52314326Y-47658256D01*
X52314327Y-47658259D01*
X52372818Y-47838277D01*
X52372821Y-47838284D01*
X52467467Y-48002216D01*
X52530251Y-48071944D01*
X52594129Y-48142888D01*
X52747265Y-48254148D01*
X52747270Y-48254151D01*
X52920192Y-48331142D01*
X52920197Y-48331144D01*
X53105354Y-48370500D01*
X53105355Y-48370500D01*
X53294644Y-48370500D01*
X53294646Y-48370500D01*
X53479803Y-48331144D01*
X53574564Y-48288952D01*
X53643813Y-48279667D01*
X53675434Y-48288952D01*
X53770197Y-48331144D01*
X53955354Y-48370500D01*
X53955355Y-48370500D01*
X54144644Y-48370500D01*
X54144646Y-48370500D01*
X54329803Y-48331144D01*
X54414564Y-48293404D01*
X54483813Y-48284119D01*
X54515433Y-48293403D01*
X54600197Y-48331144D01*
X54785354Y-48370500D01*
X54785355Y-48370500D01*
X54974644Y-48370500D01*
X54974646Y-48370500D01*
X55159803Y-48331144D01*
X55332730Y-48254151D01*
X55485871Y-48142888D01*
X55612533Y-48002216D01*
X55707179Y-47838284D01*
X55765674Y-47658256D01*
X55785460Y-47470000D01*
X55765674Y-47281744D01*
X55707179Y-47101716D01*
X55612533Y-46937784D01*
X55485871Y-46797112D01*
X55421027Y-46750000D01*
X55332734Y-46685851D01*
X55332729Y-46685848D01*
X55159806Y-46608857D01*
X55159804Y-46608856D01*
X55159803Y-46608856D01*
X55159443Y-46608779D01*
X55159254Y-46608677D01*
X55153626Y-46606849D01*
X55153960Y-46605819D01*
X55097961Y-46575589D01*
X55064183Y-46514426D01*
X55068834Y-46444712D01*
X55110438Y-46388579D01*
X55112279Y-46387212D01*
X55183408Y-46335534D01*
X55249212Y-46312056D01*
X55317266Y-46327881D01*
X55324819Y-46332736D01*
X55327270Y-46334151D01*
X55500192Y-46411142D01*
X55500197Y-46411144D01*
X55685354Y-46450500D01*
X55685355Y-46450500D01*
X55874644Y-46450500D01*
X55874646Y-46450500D01*
X56059803Y-46411144D01*
X56232730Y-46334151D01*
X56385871Y-46222888D01*
X56512533Y-46082216D01*
X56607179Y-45918284D01*
X56665674Y-45738256D01*
X56685460Y-45550000D01*
X56665674Y-45361744D01*
X56607179Y-45181716D01*
X56512533Y-45017784D01*
X56385871Y-44877112D01*
X56385870Y-44877111D01*
X56232734Y-44765851D01*
X56232729Y-44765848D01*
X56059807Y-44688857D01*
X56059802Y-44688855D01*
X55885998Y-44651913D01*
X55874646Y-44649500D01*
X55685354Y-44649500D01*
X55674002Y-44651913D01*
X55500197Y-44688855D01*
X55500192Y-44688857D01*
X55327270Y-44765848D01*
X55327265Y-44765851D01*
X55246593Y-44824463D01*
X55180786Y-44847943D01*
X55112733Y-44832117D01*
X55105183Y-44827265D01*
X55102729Y-44825848D01*
X55031478Y-44794125D01*
X54978241Y-44748875D01*
X54957920Y-44682026D01*
X54976966Y-44614802D01*
X55029332Y-44568547D01*
X55056131Y-44559556D01*
X55189803Y-44531144D01*
X55362730Y-44454151D01*
X55515871Y-44342888D01*
X55642533Y-44202216D01*
X55737179Y-44038284D01*
X55795674Y-43858256D01*
X55815460Y-43670000D01*
X55795674Y-43481744D01*
X55737179Y-43301716D01*
X55642533Y-43137784D01*
X55515871Y-42997112D01*
X55475506Y-42967785D01*
X55362734Y-42885851D01*
X55362729Y-42885848D01*
X55189807Y-42808857D01*
X55189802Y-42808855D01*
X55042359Y-42777516D01*
X55004646Y-42769500D01*
X54815354Y-42769500D01*
X54782897Y-42776398D01*
X54630197Y-42808855D01*
X54630195Y-42808856D01*
X54535435Y-42851046D01*
X54466185Y-42860330D01*
X54434565Y-42851046D01*
X54339804Y-42808856D01*
X54339802Y-42808855D01*
X54192359Y-42777516D01*
X54154646Y-42769500D01*
X53965354Y-42769500D01*
X53927641Y-42777516D01*
X53780198Y-42808855D01*
X53780193Y-42808857D01*
X53657973Y-42863272D01*
X53588723Y-42872556D01*
X53557104Y-42863272D01*
X53479802Y-42828855D01*
X53334001Y-42797865D01*
X53294646Y-42789500D01*
X53105354Y-42789500D01*
X53072897Y-42796398D01*
X52920197Y-42828855D01*
X52920192Y-42828857D01*
X52747270Y-42905848D01*
X52747265Y-42905851D01*
X52594129Y-43017111D01*
X52467466Y-43157785D01*
X52372821Y-43321715D01*
X52372818Y-43321722D01*
X52314327Y-43501740D01*
X52314326Y-43501744D01*
X52294540Y-43690000D01*
X52314326Y-43878256D01*
X52314327Y-43878259D01*
X52372818Y-44058277D01*
X52372821Y-44058284D01*
X52467467Y-44222216D01*
X52562522Y-44327785D01*
X52594129Y-44362888D01*
X52747265Y-44474148D01*
X52747270Y-44474151D01*
X52920192Y-44551142D01*
X52920193Y-44551142D01*
X52920197Y-44551144D01*
X52950379Y-44557559D01*
X53011859Y-44590750D01*
X53045637Y-44651913D01*
X53040985Y-44721627D01*
X52999382Y-44777760D01*
X52988164Y-44785198D01*
X52834129Y-44897111D01*
X52707466Y-45037785D01*
X52612821Y-45201715D01*
X52612818Y-45201722D01*
X52555796Y-45377219D01*
X52554326Y-45381744D01*
X52534540Y-45570000D01*
X52554326Y-45758256D01*
X52554327Y-45758259D01*
X52612818Y-45938277D01*
X52612821Y-45938284D01*
X52707467Y-46102216D01*
X52787169Y-46190734D01*
X52834129Y-46242888D01*
X52987265Y-46354148D01*
X52987267Y-46354149D01*
X52987270Y-46354151D01*
X53004174Y-46361677D01*
X53057410Y-46406926D01*
X53077732Y-46473775D01*
X53058687Y-46540999D01*
X53006321Y-46587255D01*
X52979520Y-46596246D01*
X52920196Y-46608856D01*
X52920192Y-46608857D01*
X52747270Y-46685848D01*
X52747265Y-46685851D01*
X52594129Y-46797111D01*
X52467466Y-46937785D01*
X52372821Y-47101715D01*
X52372818Y-47101722D01*
X52314327Y-47281740D01*
X52314326Y-47281744D01*
X52294540Y-47470000D01*
X45999828Y-47470000D01*
X46005723Y-38510000D01*
X52234540Y-38510000D01*
X52254326Y-38698256D01*
X52254327Y-38698259D01*
X52312818Y-38878277D01*
X52312821Y-38878284D01*
X52407467Y-39042216D01*
X52487228Y-39130799D01*
X52534129Y-39182888D01*
X52687265Y-39294148D01*
X52687270Y-39294151D01*
X52860192Y-39371142D01*
X52860197Y-39371144D01*
X53045354Y-39410500D01*
X53045355Y-39410500D01*
X53234644Y-39410500D01*
X53234646Y-39410500D01*
X53419803Y-39371144D01*
X53514564Y-39328952D01*
X53583813Y-39319667D01*
X53615434Y-39328952D01*
X53710197Y-39371144D01*
X53895354Y-39410500D01*
X53895355Y-39410500D01*
X54084644Y-39410500D01*
X54084646Y-39410500D01*
X54269803Y-39371144D01*
X54354564Y-39333404D01*
X54423813Y-39324119D01*
X54455433Y-39333403D01*
X54540197Y-39371144D01*
X54725354Y-39410500D01*
X54725355Y-39410500D01*
X54914644Y-39410500D01*
X54914646Y-39410500D01*
X55099803Y-39371144D01*
X55272730Y-39294151D01*
X55425871Y-39182888D01*
X55552533Y-39042216D01*
X55647179Y-38878284D01*
X55705674Y-38698256D01*
X55725460Y-38510000D01*
X55705674Y-38321744D01*
X55647179Y-38141716D01*
X55552533Y-37977784D01*
X55425871Y-37837112D01*
X55370231Y-37796687D01*
X55272734Y-37725851D01*
X55272729Y-37725848D01*
X55099806Y-37648857D01*
X55099804Y-37648856D01*
X55099803Y-37648856D01*
X55099443Y-37648779D01*
X55099254Y-37648677D01*
X55093626Y-37646849D01*
X55093960Y-37645819D01*
X55037961Y-37615589D01*
X55004183Y-37554426D01*
X55008834Y-37484712D01*
X55050438Y-37428579D01*
X55052279Y-37427212D01*
X55123408Y-37375534D01*
X55189212Y-37352056D01*
X55257266Y-37367881D01*
X55264819Y-37372736D01*
X55267270Y-37374151D01*
X55440192Y-37451142D01*
X55440197Y-37451144D01*
X55625354Y-37490500D01*
X55625355Y-37490500D01*
X55814644Y-37490500D01*
X55814646Y-37490500D01*
X55999803Y-37451144D01*
X56172730Y-37374151D01*
X56325871Y-37262888D01*
X56452533Y-37122216D01*
X56547179Y-36958284D01*
X56605674Y-36778256D01*
X56625460Y-36590000D01*
X56605674Y-36401744D01*
X56547179Y-36221716D01*
X56452533Y-36057784D01*
X56325871Y-35917112D01*
X56290955Y-35891744D01*
X56172734Y-35805851D01*
X56172729Y-35805848D01*
X55999807Y-35728857D01*
X55999802Y-35728855D01*
X55825998Y-35691913D01*
X55814646Y-35689500D01*
X55625354Y-35689500D01*
X55614002Y-35691913D01*
X55440197Y-35728855D01*
X55440192Y-35728857D01*
X55267270Y-35805848D01*
X55267265Y-35805851D01*
X55186593Y-35864463D01*
X55120786Y-35887943D01*
X55052733Y-35872117D01*
X55045183Y-35867265D01*
X55042729Y-35865848D01*
X54971478Y-35834125D01*
X54918241Y-35788875D01*
X54897920Y-35722026D01*
X54916966Y-35654802D01*
X54969332Y-35608547D01*
X54996131Y-35599556D01*
X55129803Y-35571144D01*
X55302730Y-35494151D01*
X55455871Y-35382888D01*
X55582533Y-35242216D01*
X55677179Y-35078284D01*
X55735674Y-34898256D01*
X55755460Y-34710000D01*
X55735674Y-34521744D01*
X55677179Y-34341716D01*
X55582533Y-34177784D01*
X55455871Y-34037112D01*
X55455870Y-34037111D01*
X55302734Y-33925851D01*
X55302729Y-33925848D01*
X55129807Y-33848857D01*
X55129802Y-33848855D01*
X54984001Y-33817865D01*
X54944646Y-33809500D01*
X54755354Y-33809500D01*
X54722897Y-33816398D01*
X54570197Y-33848855D01*
X54570195Y-33848856D01*
X54475435Y-33891046D01*
X54406185Y-33900330D01*
X54374565Y-33891046D01*
X54279804Y-33848856D01*
X54279802Y-33848855D01*
X54134001Y-33817865D01*
X54094646Y-33809500D01*
X53905354Y-33809500D01*
X53865999Y-33817865D01*
X53720198Y-33848855D01*
X53720193Y-33848857D01*
X53597973Y-33903272D01*
X53528723Y-33912556D01*
X53497104Y-33903272D01*
X53419802Y-33868855D01*
X53274001Y-33837865D01*
X53234646Y-33829500D01*
X53045354Y-33829500D01*
X53012897Y-33836398D01*
X52860197Y-33868855D01*
X52860192Y-33868857D01*
X52687270Y-33945848D01*
X52687265Y-33945851D01*
X52534129Y-34057111D01*
X52407466Y-34197785D01*
X52312821Y-34361715D01*
X52312818Y-34361722D01*
X52260824Y-34521744D01*
X52254326Y-34541744D01*
X52234540Y-34730000D01*
X52254326Y-34918256D01*
X52254327Y-34918259D01*
X52312818Y-35098277D01*
X52312821Y-35098284D01*
X52407467Y-35262216D01*
X52506702Y-35372427D01*
X52534129Y-35402888D01*
X52687265Y-35514148D01*
X52687270Y-35514151D01*
X52860192Y-35591142D01*
X52860193Y-35591142D01*
X52860197Y-35591144D01*
X52890379Y-35597559D01*
X52951859Y-35630750D01*
X52985637Y-35691913D01*
X52980985Y-35761627D01*
X52939382Y-35817760D01*
X52928164Y-35825198D01*
X52774129Y-35937111D01*
X52647466Y-36077785D01*
X52552821Y-36241715D01*
X52552818Y-36241722D01*
X52500824Y-36401744D01*
X52494326Y-36421744D01*
X52474540Y-36610000D01*
X52494326Y-36798256D01*
X52494327Y-36798259D01*
X52552818Y-36978277D01*
X52552821Y-36978284D01*
X52647467Y-37142216D01*
X52756121Y-37262888D01*
X52774129Y-37282888D01*
X52927265Y-37394148D01*
X52927267Y-37394149D01*
X52927270Y-37394151D01*
X52944174Y-37401677D01*
X52997410Y-37446926D01*
X53017732Y-37513775D01*
X52998687Y-37580999D01*
X52946321Y-37627255D01*
X52919520Y-37636246D01*
X52860196Y-37648856D01*
X52860192Y-37648857D01*
X52687270Y-37725848D01*
X52687265Y-37725851D01*
X52534129Y-37837111D01*
X52407466Y-37977785D01*
X52312821Y-38141715D01*
X52312818Y-38141722D01*
X52254327Y-38321740D01*
X52254326Y-38321744D01*
X52234540Y-38510000D01*
X46005723Y-38510000D01*
X46009918Y-32133896D01*
X46029647Y-32066872D01*
X46082481Y-32021152D01*
X46133895Y-32009980D01*
X56320595Y-32008373D01*
X57903296Y-32008124D01*
X97923176Y-32052285D01*
G37*
G04 #@! TD.AperFunction*
G04 #@! TA.AperFunction,Conductor*
G36*
X56882245Y-62311289D02*
G01*
X56938178Y-62353161D01*
X56946296Y-62365468D01*
X56955963Y-62382211D01*
X56955965Y-62382214D01*
X57082629Y-62522888D01*
X57235765Y-62634148D01*
X57235770Y-62634151D01*
X57408692Y-62711142D01*
X57408697Y-62711144D01*
X57593854Y-62750500D01*
X57635565Y-62750500D01*
X57702604Y-62770185D01*
X57704456Y-62771398D01*
X57753714Y-62804311D01*
X57867548Y-62851463D01*
X57927971Y-62863481D01*
X57988393Y-62875500D01*
X57988394Y-62875500D01*
X59214548Y-62875500D01*
X59281587Y-62895185D01*
X59302229Y-62911819D01*
X60239713Y-63849304D01*
X60273198Y-63910627D01*
X60268214Y-63980319D01*
X60226342Y-64036252D01*
X60184125Y-64056760D01*
X59981344Y-64111094D01*
X59981335Y-64111098D01*
X59767171Y-64210964D01*
X59767169Y-64210965D01*
X59573597Y-64346505D01*
X59406505Y-64513597D01*
X59276575Y-64699158D01*
X59221998Y-64742783D01*
X59152500Y-64749977D01*
X59090145Y-64718454D01*
X59073425Y-64699158D01*
X58943494Y-64513597D01*
X58776402Y-64346506D01*
X58776395Y-64346501D01*
X58582834Y-64210967D01*
X58582830Y-64210965D01*
X58582828Y-64210964D01*
X58368663Y-64111097D01*
X58368659Y-64111096D01*
X58368655Y-64111094D01*
X58140413Y-64049938D01*
X58140403Y-64049936D01*
X57905001Y-64029341D01*
X57904999Y-64029341D01*
X57669596Y-64049936D01*
X57669586Y-64049938D01*
X57441344Y-64111094D01*
X57441335Y-64111098D01*
X57227171Y-64210964D01*
X57227169Y-64210965D01*
X57033597Y-64346505D01*
X56866505Y-64513597D01*
X56730965Y-64707169D01*
X56730964Y-64707171D01*
X56631098Y-64921335D01*
X56631094Y-64921344D01*
X56569938Y-65149586D01*
X56569936Y-65149596D01*
X56549341Y-65384999D01*
X56549341Y-65385000D01*
X56569936Y-65620403D01*
X56569938Y-65620413D01*
X56631094Y-65848655D01*
X56631096Y-65848659D01*
X56631097Y-65848663D01*
X56685260Y-65964815D01*
X56730965Y-66062830D01*
X56730967Y-66062834D01*
X56773895Y-66124141D01*
X56866505Y-66256401D01*
X57033599Y-66423495D01*
X57105346Y-66473733D01*
X57227165Y-66559032D01*
X57227167Y-66559033D01*
X57227170Y-66559035D01*
X57441337Y-66658903D01*
X57441343Y-66658904D01*
X57441344Y-66658905D01*
X57496285Y-66673626D01*
X57669592Y-66720063D01*
X57857918Y-66736539D01*
X57904999Y-66740659D01*
X57905000Y-66740659D01*
X57905001Y-66740659D01*
X57944234Y-66737226D01*
X58140408Y-66720063D01*
X58368663Y-66658903D01*
X58582830Y-66559035D01*
X58776401Y-66423495D01*
X58943495Y-66256401D01*
X59073425Y-66070842D01*
X59128002Y-66027217D01*
X59197500Y-66020023D01*
X59259855Y-66051546D01*
X59276575Y-66070842D01*
X59406500Y-66256395D01*
X59406505Y-66256401D01*
X59573599Y-66423495D01*
X59645346Y-66473733D01*
X59767165Y-66559032D01*
X59767167Y-66559033D01*
X59767170Y-66559035D01*
X59981337Y-66658903D01*
X59981343Y-66658904D01*
X59981344Y-66658905D01*
X60036285Y-66673626D01*
X60209592Y-66720063D01*
X60397918Y-66736539D01*
X60444999Y-66740659D01*
X60445000Y-66740659D01*
X60445001Y-66740659D01*
X60484234Y-66737226D01*
X60680408Y-66720063D01*
X60908663Y-66658903D01*
X61122830Y-66559035D01*
X61138750Y-66547888D01*
X61185588Y-66515091D01*
X61251793Y-66492763D01*
X61319561Y-66509772D01*
X61344394Y-66528985D01*
X61380586Y-66565178D01*
X61380608Y-66565198D01*
X61821016Y-67005606D01*
X61821045Y-67005637D01*
X61911263Y-67095855D01*
X61911267Y-67095858D01*
X62013707Y-67164307D01*
X62013713Y-67164310D01*
X62013714Y-67164311D01*
X62127548Y-67211463D01*
X62187971Y-67223481D01*
X62248393Y-67235500D01*
X62248394Y-67235500D01*
X66701766Y-67235500D01*
X66768805Y-67255185D01*
X66814560Y-67307989D01*
X66824504Y-67377147D01*
X66814148Y-67411905D01*
X66791097Y-67461335D01*
X66791094Y-67461344D01*
X66729938Y-67689586D01*
X66729936Y-67689596D01*
X66709341Y-67924999D01*
X66709341Y-67925000D01*
X66729936Y-68160403D01*
X66729938Y-68160413D01*
X66772272Y-68318407D01*
X66770609Y-68388257D01*
X66731446Y-68446119D01*
X66667218Y-68473623D01*
X66652497Y-68474500D01*
X57060452Y-68474500D01*
X56993413Y-68454815D01*
X56972771Y-68438181D01*
X55621819Y-67087229D01*
X55588334Y-67025906D01*
X55585500Y-66999548D01*
X55585500Y-63556883D01*
X55605185Y-63489844D01*
X55621814Y-63469207D01*
X56751232Y-62339788D01*
X56812553Y-62306305D01*
X56882245Y-62311289D01*
G37*
G04 #@! TD.AperFunction*
G04 #@! TA.AperFunction,Conductor*
G36*
X72971952Y-67255185D02*
G01*
X73017707Y-67307989D01*
X73027651Y-67377147D01*
X73024688Y-67391593D01*
X72964938Y-67614586D01*
X72964936Y-67614596D01*
X72944341Y-67849999D01*
X72944341Y-67850000D01*
X72964936Y-68085403D01*
X72964938Y-68085413D01*
X73027368Y-68318407D01*
X73025705Y-68388257D01*
X72986542Y-68446119D01*
X72922314Y-68473623D01*
X72907593Y-68474500D01*
X69477503Y-68474500D01*
X69410464Y-68454815D01*
X69364709Y-68402011D01*
X69354765Y-68332853D01*
X69357728Y-68318407D01*
X69388343Y-68204148D01*
X69400063Y-68160408D01*
X69420659Y-67925000D01*
X69400063Y-67689592D01*
X69338903Y-67461337D01*
X69315851Y-67411904D01*
X69305360Y-67342828D01*
X69333879Y-67279044D01*
X69392356Y-67240804D01*
X69428234Y-67235500D01*
X72904913Y-67235500D01*
X72971952Y-67255185D01*
G37*
G04 #@! TD.AperFunction*
G04 #@! TA.AperFunction,Conductor*
G36*
X93758234Y-56724443D02*
G01*
X93806929Y-56774549D01*
X93820805Y-56843027D01*
X93820581Y-56845368D01*
X93817907Y-56870816D01*
X93808008Y-56965008D01*
X93804540Y-56998000D01*
X93824326Y-57186256D01*
X93824327Y-57186259D01*
X93882818Y-57366277D01*
X93882821Y-57366284D01*
X93977467Y-57530216D01*
X94099483Y-57665728D01*
X94104129Y-57670888D01*
X94257265Y-57782148D01*
X94257270Y-57782151D01*
X94430192Y-57859142D01*
X94430197Y-57859144D01*
X94615354Y-57898500D01*
X94615355Y-57898500D01*
X94779600Y-57898500D01*
X94846639Y-57918185D01*
X94892394Y-57970989D01*
X94902338Y-58040147D01*
X94886989Y-58084497D01*
X94882821Y-58091715D01*
X94882818Y-58091722D01*
X94824327Y-58271740D01*
X94824326Y-58271744D01*
X94804540Y-58460000D01*
X94824326Y-58648256D01*
X94824327Y-58648259D01*
X94883664Y-58830879D01*
X94885659Y-58900720D01*
X94875366Y-58925739D01*
X94875463Y-58925782D01*
X94873961Y-58929154D01*
X94873124Y-58931190D01*
X94872822Y-58931711D01*
X94872820Y-58931717D01*
X94814327Y-59111740D01*
X94814326Y-59111744D01*
X94794540Y-59300000D01*
X94814326Y-59488256D01*
X94814327Y-59488259D01*
X94872818Y-59668277D01*
X94872821Y-59668284D01*
X94967467Y-59832216D01*
X95038668Y-59911292D01*
X95094129Y-59972888D01*
X95247265Y-60084148D01*
X95247270Y-60084151D01*
X95420192Y-60161142D01*
X95420197Y-60161144D01*
X95605354Y-60200500D01*
X95605355Y-60200500D01*
X95788626Y-60200500D01*
X95855665Y-60220185D01*
X95901420Y-60272989D01*
X95911364Y-60342147D01*
X95882339Y-60405703D01*
X95880776Y-60407472D01*
X95817466Y-60477785D01*
X95722821Y-60641715D01*
X95722818Y-60641722D01*
X95664327Y-60821740D01*
X95664326Y-60821744D01*
X95644540Y-61010000D01*
X95664326Y-61198256D01*
X95664327Y-61198259D01*
X95722818Y-61378277D01*
X95722821Y-61378284D01*
X95817467Y-61542216D01*
X95907701Y-61642431D01*
X95944129Y-61682888D01*
X96097265Y-61794148D01*
X96097270Y-61794151D01*
X96270192Y-61871142D01*
X96270197Y-61871144D01*
X96455354Y-61910500D01*
X96455355Y-61910500D01*
X96644644Y-61910500D01*
X96644646Y-61910500D01*
X96829803Y-61871144D01*
X96963254Y-61811726D01*
X97032504Y-61802442D01*
X97064125Y-61811726D01*
X97130197Y-61841144D01*
X97315354Y-61880500D01*
X97315355Y-61880500D01*
X97504644Y-61880500D01*
X97504646Y-61880500D01*
X97689803Y-61841144D01*
X97763334Y-61808405D01*
X97775064Y-61803183D01*
X97844314Y-61793898D01*
X97907590Y-61823526D01*
X97944804Y-61882660D01*
X97949500Y-61916462D01*
X97949500Y-64484547D01*
X97929815Y-64551586D01*
X97913181Y-64572228D01*
X94047229Y-68438181D01*
X93985906Y-68471666D01*
X93959548Y-68474500D01*
X90628891Y-68474500D01*
X90561852Y-68454815D01*
X90516097Y-68402011D01*
X90506153Y-68332853D01*
X90535178Y-68269297D01*
X90578455Y-68237221D01*
X90604187Y-68225763D01*
X90652730Y-68204151D01*
X90805871Y-68092888D01*
X90932533Y-67952216D01*
X91027179Y-67788284D01*
X91085674Y-67608256D01*
X91105460Y-67420000D01*
X91085674Y-67231744D01*
X91027179Y-67051716D01*
X91002363Y-67008733D01*
X90942113Y-66904375D01*
X90925500Y-66842376D01*
X90925500Y-64698687D01*
X90945185Y-64631648D01*
X90957350Y-64615715D01*
X90975891Y-64595122D01*
X91032533Y-64532216D01*
X91127179Y-64368284D01*
X91185674Y-64188256D01*
X91205460Y-64000000D01*
X91185674Y-63811744D01*
X91127179Y-63631716D01*
X91032533Y-63467784D01*
X90905871Y-63327112D01*
X90905870Y-63327111D01*
X90752734Y-63215851D01*
X90752729Y-63215848D01*
X90579807Y-63138857D01*
X90579802Y-63138855D01*
X90434001Y-63107865D01*
X90394646Y-63099500D01*
X90205354Y-63099500D01*
X90172897Y-63106398D01*
X90020197Y-63138855D01*
X90020192Y-63138857D01*
X89847270Y-63215848D01*
X89847265Y-63215851D01*
X89694129Y-63327111D01*
X89567467Y-63467784D01*
X89472821Y-63631715D01*
X89472818Y-63631722D01*
X89429661Y-63764547D01*
X89414326Y-63811744D01*
X89394540Y-64000000D01*
X89414326Y-64188256D01*
X89414327Y-64188259D01*
X89472818Y-64368277D01*
X89472821Y-64368284D01*
X89567467Y-64532216D01*
X89599618Y-64567923D01*
X89642650Y-64615715D01*
X89672880Y-64678706D01*
X89674500Y-64698687D01*
X89674500Y-66625538D01*
X89654815Y-66692577D01*
X89623387Y-66725854D01*
X89609228Y-66736142D01*
X89594127Y-66747113D01*
X89467466Y-66887785D01*
X89372821Y-67051715D01*
X89372818Y-67051722D01*
X89314327Y-67231740D01*
X89314326Y-67231744D01*
X89294540Y-67420000D01*
X89314326Y-67608256D01*
X89314327Y-67608259D01*
X89372818Y-67788277D01*
X89372821Y-67788284D01*
X89467467Y-67952216D01*
X89594129Y-68092888D01*
X89747265Y-68204148D01*
X89747270Y-68204151D01*
X89821545Y-68237221D01*
X89874782Y-68282471D01*
X89895103Y-68349321D01*
X89876057Y-68416544D01*
X89823691Y-68462799D01*
X89771109Y-68474500D01*
X85934500Y-68474500D01*
X85867461Y-68454815D01*
X85821706Y-68402011D01*
X85810500Y-68350500D01*
X85810499Y-66952129D01*
X85810498Y-66952123D01*
X85804091Y-66892516D01*
X85753797Y-66757671D01*
X85753793Y-66757664D01*
X85667547Y-66642455D01*
X85667544Y-66642452D01*
X85552335Y-66556206D01*
X85552328Y-66556202D01*
X85417482Y-66505908D01*
X85417483Y-66505908D01*
X85357883Y-66499501D01*
X85357881Y-66499500D01*
X85357873Y-66499500D01*
X85357864Y-66499500D01*
X83562129Y-66499500D01*
X83562123Y-66499501D01*
X83502516Y-66505908D01*
X83367671Y-66556202D01*
X83367664Y-66556206D01*
X83252455Y-66642452D01*
X83252452Y-66642455D01*
X83166206Y-66757664D01*
X83166203Y-66757669D01*
X83117189Y-66889083D01*
X83075317Y-66945016D01*
X83009853Y-66969433D01*
X82941580Y-66954581D01*
X82913326Y-66933430D01*
X82791402Y-66811506D01*
X82791395Y-66811501D01*
X82597834Y-66675967D01*
X82597830Y-66675965D01*
X82561245Y-66658905D01*
X82383663Y-66576097D01*
X82383659Y-66576096D01*
X82383655Y-66576094D01*
X82155413Y-66514938D01*
X82155403Y-66514936D01*
X81920001Y-66494341D01*
X81919999Y-66494341D01*
X81684596Y-66514936D01*
X81684586Y-66514938D01*
X81584126Y-66541856D01*
X81514276Y-66540193D01*
X81464352Y-66509762D01*
X81170198Y-66215608D01*
X81170178Y-66215586D01*
X81078733Y-66124141D01*
X81027509Y-66089915D01*
X80976286Y-66055688D01*
X80966286Y-66051546D01*
X80874175Y-66013393D01*
X80871514Y-66012290D01*
X80862455Y-66008538D01*
X80862453Y-66008537D01*
X80862452Y-66008537D01*
X80802029Y-65996518D01*
X80741610Y-65984500D01*
X80741607Y-65984500D01*
X80741606Y-65984500D01*
X71349451Y-65984500D01*
X71282412Y-65964815D01*
X71236657Y-65912011D01*
X71226713Y-65842853D01*
X71255738Y-65779297D01*
X71261770Y-65772819D01*
X71855197Y-65179392D01*
X72473729Y-64560860D01*
X72473733Y-64560858D01*
X72560858Y-64473733D01*
X72629311Y-64371286D01*
X72629312Y-64371285D01*
X72656932Y-64304603D01*
X72661878Y-64292664D01*
X72676461Y-64257456D01*
X72676463Y-64257452D01*
X72679284Y-64243269D01*
X72690961Y-64184569D01*
X72700500Y-64136607D01*
X72700500Y-62173687D01*
X72720185Y-62106648D01*
X72732350Y-62090715D01*
X72762001Y-62057784D01*
X72807533Y-62007216D01*
X72902179Y-61843284D01*
X72960674Y-61663256D01*
X72980460Y-61475000D01*
X72960674Y-61286744D01*
X72902179Y-61106716D01*
X72807533Y-60942784D01*
X72707607Y-60831805D01*
X72677379Y-60768817D01*
X72686004Y-60699482D01*
X72730745Y-60645816D01*
X72797398Y-60624858D01*
X72799759Y-60624836D01*
X80670540Y-60624836D01*
X80737579Y-60644521D01*
X80783334Y-60697325D01*
X80793397Y-60743585D01*
X80793861Y-60743537D01*
X80794303Y-60747750D01*
X80794540Y-60748836D01*
X80794540Y-60749997D01*
X80794540Y-60750000D01*
X80814326Y-60938256D01*
X80814327Y-60938259D01*
X80872818Y-61118277D01*
X80872821Y-61118284D01*
X80967467Y-61282216D01*
X81091685Y-61420174D01*
X81094129Y-61422888D01*
X81247265Y-61534148D01*
X81247270Y-61534151D01*
X81420192Y-61611142D01*
X81420197Y-61611144D01*
X81605354Y-61650500D01*
X81605355Y-61650500D01*
X81794644Y-61650500D01*
X81794646Y-61650500D01*
X81979803Y-61611144D01*
X82152730Y-61534151D01*
X82305871Y-61422888D01*
X82432533Y-61282216D01*
X82527179Y-61118284D01*
X82585674Y-60938256D01*
X82605460Y-60750000D01*
X82605460Y-60749997D01*
X82605460Y-60748836D01*
X82605650Y-60748188D01*
X82606139Y-60743537D01*
X82606989Y-60743626D01*
X82625145Y-60681797D01*
X82677949Y-60636042D01*
X82729460Y-60624836D01*
X89044340Y-60624836D01*
X89044340Y-60624835D01*
X89110299Y-60611716D01*
X89110301Y-60611716D01*
X89137928Y-60606220D01*
X89165184Y-60600799D01*
X89212674Y-60581128D01*
X89279018Y-60553648D01*
X89330241Y-60519420D01*
X89381465Y-60485194D01*
X89468590Y-60398069D01*
X89468590Y-60398067D01*
X89478798Y-60387860D01*
X89478799Y-60387857D01*
X91464820Y-58401836D01*
X91526142Y-58368353D01*
X91595834Y-58373337D01*
X91651767Y-58415209D01*
X91676184Y-58480673D01*
X91676500Y-58489519D01*
X91676500Y-63314609D01*
X91681592Y-63340207D01*
X91681592Y-63340209D01*
X91700535Y-63435446D01*
X91700537Y-63435454D01*
X91707036Y-63451142D01*
X91713929Y-63467784D01*
X91747685Y-63549281D01*
X91747687Y-63549284D01*
X91747688Y-63549286D01*
X91781915Y-63600509D01*
X91816140Y-63651731D01*
X91816141Y-63651732D01*
X91816142Y-63651733D01*
X91903267Y-63738858D01*
X91903268Y-63738858D01*
X91910335Y-63745925D01*
X91910334Y-63745925D01*
X91910338Y-63745928D01*
X93471785Y-65307376D01*
X93505270Y-65368699D01*
X93500286Y-65438391D01*
X93491491Y-65457057D01*
X93462821Y-65506714D01*
X93425880Y-65620408D01*
X93404326Y-65686744D01*
X93384540Y-65875000D01*
X93404326Y-66063256D01*
X93404327Y-66063259D01*
X93462818Y-66243277D01*
X93462821Y-66243284D01*
X93557467Y-66407216D01*
X93667109Y-66528985D01*
X93684129Y-66547888D01*
X93837265Y-66659148D01*
X93837270Y-66659151D01*
X94010192Y-66736142D01*
X94010197Y-66736144D01*
X94195354Y-66775500D01*
X94195355Y-66775500D01*
X94384644Y-66775500D01*
X94384646Y-66775500D01*
X94569803Y-66736144D01*
X94742730Y-66659151D01*
X94895871Y-66547888D01*
X95022533Y-66407216D01*
X95117179Y-66243284D01*
X95175674Y-66063256D01*
X95195460Y-65875000D01*
X95175674Y-65686744D01*
X95117179Y-65506716D01*
X95022533Y-65342784D01*
X94947350Y-65259285D01*
X94917121Y-65196295D01*
X94916240Y-65185439D01*
X94916098Y-65185454D01*
X94915501Y-65179392D01*
X94895451Y-65078598D01*
X94895451Y-65078597D01*
X94891463Y-65058548D01*
X94856649Y-64974500D01*
X94844312Y-64944715D01*
X94775858Y-64842267D01*
X94775855Y-64842263D01*
X92963819Y-63030227D01*
X92930334Y-62968904D01*
X92927500Y-62942546D01*
X92927500Y-57024500D01*
X92947185Y-56957461D01*
X92999989Y-56911706D01*
X93051500Y-56900500D01*
X93194644Y-56900500D01*
X93194646Y-56900500D01*
X93379803Y-56861144D01*
X93552730Y-56784151D01*
X93624376Y-56732097D01*
X93690181Y-56708618D01*
X93758234Y-56724443D01*
G37*
G04 #@! TD.AperFunction*
G04 #@! TA.AperFunction,Conductor*
G36*
X61030639Y-61037117D02*
G01*
X61088688Y-61076003D01*
X61100834Y-61093407D01*
X61117467Y-61122216D01*
X61244129Y-61262888D01*
X61397265Y-61374148D01*
X61397270Y-61374151D01*
X61570192Y-61451142D01*
X61570197Y-61451144D01*
X61755354Y-61490500D01*
X61755355Y-61490500D01*
X61944644Y-61490500D01*
X61944646Y-61490500D01*
X62129803Y-61451144D01*
X62302730Y-61374151D01*
X62455871Y-61262888D01*
X62501589Y-61212113D01*
X62561072Y-61175466D01*
X62630929Y-61176795D01*
X62685887Y-61212114D01*
X62785629Y-61322888D01*
X62938765Y-61434148D01*
X62938770Y-61434151D01*
X63111692Y-61511142D01*
X63111697Y-61511144D01*
X63296854Y-61550500D01*
X63296855Y-61550500D01*
X63486144Y-61550500D01*
X63486146Y-61550500D01*
X63671303Y-61511144D01*
X63752483Y-61475000D01*
X63812450Y-61448301D01*
X63881700Y-61439016D01*
X63913322Y-61448301D01*
X64016038Y-61494034D01*
X64069275Y-61539284D01*
X64089596Y-61606133D01*
X64070550Y-61673357D01*
X64018184Y-61719612D01*
X63991394Y-61728601D01*
X63990199Y-61728854D01*
X63990192Y-61728857D01*
X63817270Y-61805848D01*
X63817265Y-61805851D01*
X63664129Y-61917111D01*
X63537466Y-62057785D01*
X63442821Y-62221715D01*
X63442818Y-62221722D01*
X63390671Y-62382216D01*
X63384326Y-62401744D01*
X63364540Y-62590000D01*
X63384326Y-62778256D01*
X63384327Y-62778259D01*
X63442818Y-62958277D01*
X63442821Y-62958284D01*
X63537467Y-63122216D01*
X63651596Y-63248969D01*
X63664129Y-63262888D01*
X63817265Y-63374148D01*
X63817270Y-63374151D01*
X63990192Y-63451142D01*
X63990197Y-63451144D01*
X64175354Y-63490500D01*
X64175355Y-63490500D01*
X64364644Y-63490500D01*
X64364646Y-63490500D01*
X64549803Y-63451144D01*
X64722730Y-63374151D01*
X64875871Y-63262888D01*
X65002533Y-63122216D01*
X65097179Y-62958284D01*
X65155674Y-62778256D01*
X65175460Y-62590000D01*
X65155674Y-62401744D01*
X65097179Y-62221716D01*
X65002533Y-62057784D01*
X64875871Y-61917112D01*
X64875870Y-61917111D01*
X64722734Y-61805851D01*
X64722729Y-61805848D01*
X64591232Y-61747301D01*
X64537995Y-61702051D01*
X64517674Y-61635201D01*
X64536720Y-61567978D01*
X64589086Y-61521723D01*
X64615888Y-61512732D01*
X64617075Y-61512480D01*
X64790002Y-61435487D01*
X64943143Y-61324224D01*
X64946060Y-61320983D01*
X64948872Y-61317862D01*
X65008359Y-61281215D01*
X65041020Y-61276836D01*
X65495348Y-61276836D01*
X65562387Y-61296521D01*
X65583029Y-61313155D01*
X68092692Y-63822819D01*
X68126177Y-63884142D01*
X68121193Y-63953834D01*
X68079321Y-64009767D01*
X68013857Y-64034184D01*
X68005011Y-64034500D01*
X67167129Y-64034500D01*
X67167123Y-64034501D01*
X67107516Y-64040908D01*
X66972671Y-64091202D01*
X66972664Y-64091206D01*
X66857455Y-64177452D01*
X66857452Y-64177455D01*
X66771206Y-64292664D01*
X66771203Y-64292669D01*
X66722189Y-64424083D01*
X66680317Y-64480016D01*
X66614853Y-64504433D01*
X66546580Y-64489581D01*
X66518326Y-64468430D01*
X66396402Y-64346506D01*
X66396395Y-64346501D01*
X66202834Y-64210967D01*
X66202830Y-64210965D01*
X66202828Y-64210964D01*
X65988663Y-64111097D01*
X65988659Y-64111096D01*
X65988655Y-64111094D01*
X65760413Y-64049938D01*
X65760403Y-64049936D01*
X65525001Y-64029341D01*
X65524999Y-64029341D01*
X65289596Y-64049936D01*
X65289586Y-64049938D01*
X65061344Y-64111094D01*
X65061335Y-64111098D01*
X64847171Y-64210964D01*
X64847169Y-64210965D01*
X64653597Y-64346505D01*
X64486505Y-64513597D01*
X64356575Y-64699158D01*
X64301998Y-64742783D01*
X64232500Y-64749977D01*
X64170145Y-64718454D01*
X64153425Y-64699158D01*
X64023494Y-64513597D01*
X63856402Y-64346506D01*
X63856395Y-64346501D01*
X63662834Y-64210967D01*
X63662830Y-64210965D01*
X63662828Y-64210964D01*
X63448663Y-64111097D01*
X63448659Y-64111096D01*
X63448655Y-64111094D01*
X63220413Y-64049938D01*
X63220403Y-64049936D01*
X62985001Y-64029341D01*
X62984999Y-64029341D01*
X62749596Y-64049936D01*
X62749586Y-64049938D01*
X62521344Y-64111094D01*
X62521339Y-64111096D01*
X62483823Y-64128589D01*
X62458471Y-64140412D01*
X62424152Y-64156415D01*
X62355074Y-64166906D01*
X62291291Y-64138386D01*
X62268644Y-64112920D01*
X62267425Y-64111096D01*
X62260858Y-64101267D01*
X62260857Y-64101265D01*
X62260855Y-64101263D01*
X60017928Y-61858338D01*
X60017925Y-61858334D01*
X60017925Y-61858335D01*
X60010859Y-61851269D01*
X60010858Y-61851267D01*
X59923733Y-61764142D01*
X59923729Y-61764139D01*
X59923728Y-61764138D01*
X59849441Y-61714501D01*
X59849440Y-61714500D01*
X59821290Y-61695690D01*
X59821286Y-61695688D01*
X59790383Y-61682888D01*
X59739336Y-61661744D01*
X59707453Y-61648537D01*
X59697427Y-61646543D01*
X59647029Y-61636518D01*
X59640408Y-61635201D01*
X59586610Y-61624500D01*
X59586607Y-61624500D01*
X59586606Y-61624500D01*
X58652164Y-61624500D01*
X58585125Y-61604815D01*
X58539370Y-61552011D01*
X58534233Y-61538818D01*
X58515681Y-61481722D01*
X58515680Y-61481721D01*
X58515679Y-61481716D01*
X58421033Y-61317784D01*
X58389238Y-61282472D01*
X58359008Y-61219480D01*
X58367633Y-61150145D01*
X58412375Y-61096480D01*
X58479027Y-61075522D01*
X58481388Y-61075500D01*
X59546252Y-61075500D01*
X59613291Y-61095185D01*
X59638400Y-61116526D01*
X59644126Y-61122885D01*
X59644130Y-61122889D01*
X59797265Y-61234148D01*
X59797270Y-61234151D01*
X59970192Y-61311142D01*
X59970197Y-61311144D01*
X60155354Y-61350500D01*
X60155355Y-61350500D01*
X60344644Y-61350500D01*
X60344646Y-61350500D01*
X60529803Y-61311144D01*
X60702730Y-61234151D01*
X60855871Y-61122888D01*
X60901299Y-61072435D01*
X60960782Y-61035788D01*
X61030639Y-61037117D01*
G37*
G04 #@! TD.AperFunction*
G04 #@! TA.AperFunction,Conductor*
G36*
X69404587Y-43648185D02*
G01*
X69450342Y-43700989D01*
X69460286Y-43770147D01*
X69431261Y-43833703D01*
X69425229Y-43840181D01*
X64341152Y-48924256D01*
X64279829Y-48957741D01*
X64210137Y-48952757D01*
X64154204Y-48910885D01*
X64146084Y-48898575D01*
X64122534Y-48857785D01*
X63995870Y-48717111D01*
X63842734Y-48605851D01*
X63842729Y-48605848D01*
X63669807Y-48528857D01*
X63669802Y-48528855D01*
X63524001Y-48497865D01*
X63484646Y-48489500D01*
X63295354Y-48489500D01*
X63262897Y-48496398D01*
X63110197Y-48528855D01*
X63110192Y-48528857D01*
X62937270Y-48605848D01*
X62937265Y-48605851D01*
X62784132Y-48717109D01*
X62784129Y-48717111D01*
X62784129Y-48717112D01*
X62720798Y-48787448D01*
X62657464Y-48857787D01*
X62657354Y-48857978D01*
X62657227Y-48858113D01*
X62653650Y-48863037D01*
X62653034Y-48862589D01*
X62618876Y-48899057D01*
X62611270Y-48904139D01*
X62611263Y-48904145D01*
X61389554Y-50125855D01*
X60276269Y-51239140D01*
X60276267Y-51239142D01*
X60253693Y-51261716D01*
X60189142Y-51326266D01*
X60162694Y-51365849D01*
X60162693Y-51365848D01*
X60120686Y-51428716D01*
X60120685Y-51428718D01*
X60087347Y-51509205D01*
X60087347Y-51509207D01*
X60079653Y-51527785D01*
X60079446Y-51528285D01*
X60079443Y-51528291D01*
X60073538Y-51542545D01*
X60073537Y-51542547D01*
X60073537Y-51542549D01*
X60057949Y-51620921D01*
X60050661Y-51657561D01*
X60050659Y-51657568D01*
X60049501Y-51663386D01*
X60049500Y-51663399D01*
X60049500Y-54336920D01*
X60029815Y-54403959D01*
X59977011Y-54449714D01*
X59907853Y-54459658D01*
X59899720Y-54458210D01*
X59764647Y-54429500D01*
X59764646Y-54429500D01*
X59575354Y-54429500D01*
X59542897Y-54436398D01*
X59390197Y-54468855D01*
X59390192Y-54468857D01*
X59217270Y-54545848D01*
X59217265Y-54545851D01*
X59064129Y-54657111D01*
X58937466Y-54797785D01*
X58842821Y-54961715D01*
X58842818Y-54961722D01*
X58792675Y-55116048D01*
X58784326Y-55141744D01*
X58764540Y-55330000D01*
X58784326Y-55518256D01*
X58784327Y-55518259D01*
X58842818Y-55698277D01*
X58842821Y-55698284D01*
X58937467Y-55862216D01*
X59064129Y-56002888D01*
X59217265Y-56114148D01*
X59217270Y-56114151D01*
X59390192Y-56191142D01*
X59390197Y-56191144D01*
X59575354Y-56230500D01*
X59575355Y-56230500D01*
X59764644Y-56230500D01*
X59764646Y-56230500D01*
X59949803Y-56191144D01*
X60098035Y-56125145D01*
X60167285Y-56115861D01*
X60230561Y-56145489D01*
X60236151Y-56150743D01*
X60283332Y-56197923D01*
X60283337Y-56197927D01*
X63545999Y-59460590D01*
X63579483Y-59521911D01*
X63574499Y-59591603D01*
X63545998Y-59635950D01*
X63506934Y-59675016D01*
X63468769Y-59713181D01*
X63407446Y-59746666D01*
X63381087Y-59749500D01*
X63296854Y-59749500D01*
X63264397Y-59756398D01*
X63111697Y-59788855D01*
X63111692Y-59788857D01*
X62938770Y-59865848D01*
X62938765Y-59865851D01*
X62785629Y-59977111D01*
X62785628Y-59977112D01*
X62739911Y-60027886D01*
X62680424Y-60064534D01*
X62610567Y-60063203D01*
X62555612Y-60027885D01*
X62507350Y-59974284D01*
X62477120Y-59911292D01*
X62475500Y-59891312D01*
X62475500Y-59113021D01*
X62475501Y-59113000D01*
X62475501Y-58983671D01*
X62456332Y-58887306D01*
X62455451Y-58882877D01*
X62451463Y-58862828D01*
X62420439Y-58787930D01*
X62415423Y-58775821D01*
X62404902Y-58750420D01*
X62404312Y-58748995D01*
X62335858Y-58646547D01*
X62335855Y-58646543D01*
X60654322Y-56965012D01*
X60654319Y-56965008D01*
X60654319Y-56965009D01*
X60647252Y-56957942D01*
X60647252Y-56957941D01*
X60560127Y-56870816D01*
X60560126Y-56870815D01*
X60560125Y-56870814D01*
X60497737Y-56829128D01*
X60482400Y-56818880D01*
X60457680Y-56802362D01*
X60377186Y-56769021D01*
X60343846Y-56755211D01*
X60343842Y-56755210D01*
X60343838Y-56755209D01*
X60266316Y-56739789D01*
X60266315Y-56739789D01*
X60223005Y-56731174D01*
X60223001Y-56731174D01*
X60223000Y-56731174D01*
X59197126Y-56731174D01*
X59130087Y-56711489D01*
X59109445Y-56694855D01*
X57301819Y-54887229D01*
X57268334Y-54825906D01*
X57265500Y-54799548D01*
X57265500Y-51810452D01*
X57285185Y-51743413D01*
X57301819Y-51722771D01*
X61082146Y-47942444D01*
X65001928Y-44022661D01*
X65063249Y-43989178D01*
X65132941Y-43994162D01*
X65188874Y-44036034D01*
X65207537Y-44072024D01*
X65213663Y-44090877D01*
X65215660Y-44160718D01*
X65205366Y-44185739D01*
X65205463Y-44185782D01*
X65203961Y-44189154D01*
X65203124Y-44191190D01*
X65202822Y-44191711D01*
X65202820Y-44191717D01*
X65144327Y-44371740D01*
X65144326Y-44371744D01*
X65124540Y-44560000D01*
X65144326Y-44748256D01*
X65144327Y-44748259D01*
X65202818Y-44928277D01*
X65202821Y-44928284D01*
X65297467Y-45092216D01*
X65378059Y-45181722D01*
X65424129Y-45232888D01*
X65577265Y-45344148D01*
X65577270Y-45344151D01*
X65750192Y-45421142D01*
X65750197Y-45421144D01*
X65935354Y-45460500D01*
X65935355Y-45460500D01*
X66124644Y-45460500D01*
X66124646Y-45460500D01*
X66309803Y-45421144D01*
X66387605Y-45386504D01*
X66456854Y-45377219D01*
X66488477Y-45386504D01*
X66566279Y-45421144D01*
X66751436Y-45460500D01*
X66751437Y-45460500D01*
X66940726Y-45460500D01*
X66940728Y-45460500D01*
X67125885Y-45421144D01*
X67298812Y-45344151D01*
X67451953Y-45232888D01*
X67578615Y-45092216D01*
X67673261Y-44928284D01*
X67731756Y-44748256D01*
X67751542Y-44560000D01*
X67731756Y-44371744D01*
X67673261Y-44191716D01*
X67673259Y-44191712D01*
X67672417Y-44189121D01*
X67670422Y-44119279D01*
X67680716Y-44094262D01*
X67680619Y-44094219D01*
X67682144Y-44090791D01*
X67682968Y-44088790D01*
X67683261Y-44088284D01*
X67741756Y-43908256D01*
X67759488Y-43739537D01*
X67786072Y-43674924D01*
X67843370Y-43634939D01*
X67882809Y-43628500D01*
X69337548Y-43628500D01*
X69404587Y-43648185D01*
G37*
G04 #@! TD.AperFunction*
G04 #@! TA.AperFunction,Conductor*
G36*
X61450273Y-54939981D02*
G01*
X61588550Y-54969373D01*
X61647743Y-54969373D01*
X61714782Y-54989058D01*
X61735424Y-55005692D01*
X61935586Y-55205855D01*
X61935590Y-55205858D01*
X62038033Y-55274309D01*
X62038034Y-55274309D01*
X62038038Y-55274312D01*
X62085261Y-55293872D01*
X62151871Y-55321463D01*
X62171920Y-55325451D01*
X62194789Y-55330000D01*
X62272715Y-55345501D01*
X62272717Y-55345501D01*
X62402044Y-55345501D01*
X62402064Y-55345500D01*
X70127112Y-55345500D01*
X70194151Y-55365185D01*
X70239906Y-55417989D01*
X70249850Y-55487147D01*
X70220825Y-55550703D01*
X70219262Y-55552472D01*
X70187466Y-55587785D01*
X70092821Y-55751715D01*
X70092818Y-55751722D01*
X70038140Y-55920005D01*
X70034326Y-55931744D01*
X70014540Y-56120000D01*
X70034326Y-56308256D01*
X70034327Y-56308259D01*
X70094519Y-56493513D01*
X70096514Y-56563354D01*
X70083976Y-56593830D01*
X70053758Y-56646169D01*
X69999707Y-56739790D01*
X69992820Y-56751718D01*
X69992818Y-56751722D01*
X69934327Y-56931740D01*
X69934326Y-56931744D01*
X69914540Y-57120000D01*
X69934326Y-57308256D01*
X69934327Y-57308259D01*
X69992818Y-57488277D01*
X69992821Y-57488284D01*
X70087467Y-57652216D01*
X70178642Y-57753476D01*
X70214129Y-57792888D01*
X70367265Y-57904148D01*
X70367270Y-57904151D01*
X70540192Y-57981142D01*
X70540197Y-57981144D01*
X70725354Y-58020500D01*
X70725355Y-58020500D01*
X70914644Y-58020500D01*
X70914646Y-58020500D01*
X71099803Y-57981144D01*
X71272730Y-57904151D01*
X71425871Y-57792888D01*
X71552533Y-57652216D01*
X71647179Y-57488284D01*
X71705674Y-57308256D01*
X71725460Y-57120000D01*
X71705674Y-56931744D01*
X71647179Y-56751716D01*
X71647178Y-56751715D01*
X71645480Y-56746487D01*
X71643485Y-56676646D01*
X71656024Y-56646169D01*
X71662184Y-56635500D01*
X71747179Y-56488284D01*
X71805674Y-56308256D01*
X71825460Y-56120000D01*
X71805674Y-55931744D01*
X71747179Y-55751716D01*
X71652533Y-55587784D01*
X71620738Y-55552472D01*
X71590508Y-55489480D01*
X71599133Y-55420145D01*
X71643875Y-55366480D01*
X71710527Y-55345522D01*
X71712888Y-55345500D01*
X72409548Y-55345500D01*
X72476587Y-55365185D01*
X72497229Y-55381819D01*
X75007482Y-57892072D01*
X75007511Y-57892103D01*
X75097729Y-57982321D01*
X75097733Y-57982324D01*
X75167111Y-58028681D01*
X75167114Y-58028684D01*
X75167114Y-58028683D01*
X75167116Y-58028684D01*
X75195125Y-58047400D01*
X75239928Y-58101014D01*
X75248634Y-58170339D01*
X75218477Y-58233365D01*
X75159033Y-58270083D01*
X75126231Y-58274500D01*
X73367367Y-58274500D01*
X73316931Y-58263779D01*
X73204807Y-58213857D01*
X73204802Y-58213855D01*
X73029582Y-58176612D01*
X73019646Y-58174500D01*
X72830354Y-58174500D01*
X72820418Y-58176612D01*
X72645197Y-58213855D01*
X72645192Y-58213857D01*
X72472270Y-58290848D01*
X72472265Y-58290851D01*
X72319129Y-58402111D01*
X72192466Y-58542785D01*
X72097821Y-58706715D01*
X72097818Y-58706722D01*
X72040583Y-58882875D01*
X72039326Y-58886744D01*
X72032834Y-58948512D01*
X72020066Y-59070000D01*
X72019540Y-59075000D01*
X72036553Y-59236876D01*
X72023985Y-59305604D01*
X71976252Y-59356628D01*
X71913233Y-59373836D01*
X69221242Y-59373836D01*
X69154203Y-59354151D01*
X69108448Y-59301347D01*
X69097921Y-59236875D01*
X69097921Y-59236874D01*
X69115460Y-59070000D01*
X69095674Y-58881744D01*
X69037179Y-58701716D01*
X68942533Y-58537784D01*
X68815871Y-58397112D01*
X68815863Y-58397106D01*
X68662734Y-58285851D01*
X68662729Y-58285848D01*
X68489807Y-58208857D01*
X68489802Y-58208855D01*
X68344001Y-58177865D01*
X68304646Y-58169500D01*
X68115354Y-58169500D01*
X68091831Y-58174500D01*
X67930197Y-58208855D01*
X67930192Y-58208857D01*
X67757270Y-58285848D01*
X67757265Y-58285851D01*
X67604135Y-58397106D01*
X67604129Y-58397111D01*
X67548880Y-58458472D01*
X67489393Y-58495121D01*
X67456730Y-58499500D01*
X64405453Y-58499500D01*
X64338414Y-58479815D01*
X64317772Y-58463181D01*
X61336819Y-55482228D01*
X61303334Y-55420905D01*
X61300500Y-55394547D01*
X61300500Y-55061273D01*
X61320185Y-54994234D01*
X61372989Y-54948479D01*
X61442147Y-54938535D01*
X61450273Y-54939981D01*
G37*
G04 #@! TD.AperFunction*
G04 #@! TA.AperFunction,Conductor*
G36*
X87824361Y-48978185D02*
G01*
X87845003Y-48994819D01*
X88885790Y-50035606D01*
X88885819Y-50035637D01*
X88976037Y-50125855D01*
X88976045Y-50125861D01*
X89014781Y-50151744D01*
X89014782Y-50151744D01*
X89078488Y-50194312D01*
X89142278Y-50220734D01*
X89192322Y-50241463D01*
X89214182Y-50245811D01*
X89313165Y-50265499D01*
X89313166Y-50265500D01*
X89313167Y-50265500D01*
X89313168Y-50265500D01*
X90056252Y-50265500D01*
X90123291Y-50285185D01*
X90148400Y-50306526D01*
X90154126Y-50312885D01*
X90154130Y-50312889D01*
X90307265Y-50424148D01*
X90307270Y-50424151D01*
X90480192Y-50501142D01*
X90480197Y-50501144D01*
X90665354Y-50540500D01*
X90665355Y-50540500D01*
X90671822Y-50541180D01*
X90671612Y-50543175D01*
X90729539Y-50560185D01*
X90775294Y-50612989D01*
X90786500Y-50664500D01*
X90786500Y-52467547D01*
X90766815Y-52534586D01*
X90750181Y-52555228D01*
X89832229Y-53473181D01*
X89770906Y-53506666D01*
X89744548Y-53509500D01*
X89678856Y-53509500D01*
X89678856Y-53507925D01*
X89617963Y-53496783D01*
X89566944Y-53449046D01*
X89549832Y-53381304D01*
X89550417Y-53373122D01*
X89565460Y-53230000D01*
X89545674Y-53041744D01*
X89487179Y-52861716D01*
X89484297Y-52856724D01*
X89393712Y-52699824D01*
X89377239Y-52631924D01*
X89400092Y-52565897D01*
X89450660Y-52524547D01*
X89567221Y-52472651D01*
X89720362Y-52361388D01*
X89847024Y-52220716D01*
X89941670Y-52056784D01*
X90000165Y-51876756D01*
X90019951Y-51688500D01*
X90000165Y-51500244D01*
X89941670Y-51320216D01*
X89847024Y-51156284D01*
X89720362Y-51015612D01*
X89716613Y-51012888D01*
X89567225Y-50904351D01*
X89567220Y-50904348D01*
X89394298Y-50827357D01*
X89394293Y-50827355D01*
X89248492Y-50796365D01*
X89209137Y-50788000D01*
X89019845Y-50788000D01*
X88987388Y-50794898D01*
X88834688Y-50827355D01*
X88834683Y-50827357D01*
X88661761Y-50904348D01*
X88661756Y-50904351D01*
X88508620Y-51015611D01*
X88381957Y-51156285D01*
X88287312Y-51320215D01*
X88287309Y-51320222D01*
X88228818Y-51500240D01*
X88228817Y-51500244D01*
X88224371Y-51542545D01*
X88211169Y-51668150D01*
X88184584Y-51732765D01*
X88175545Y-51742854D01*
X88174148Y-51744250D01*
X88174143Y-51744256D01*
X88174142Y-51744258D01*
X88139915Y-51795481D01*
X88139914Y-51795483D01*
X88139913Y-51795482D01*
X88105690Y-51846699D01*
X88105688Y-51846704D01*
X88090882Y-51882450D01*
X88090882Y-51882451D01*
X88058537Y-51960537D01*
X88054441Y-51981127D01*
X88054442Y-51981128D01*
X88039786Y-52054815D01*
X88038755Y-52059997D01*
X88038754Y-52060001D01*
X88034500Y-52081384D01*
X88034500Y-52531312D01*
X88014815Y-52598351D01*
X88002650Y-52614284D01*
X87927466Y-52697784D01*
X87832821Y-52861715D01*
X87832818Y-52861722D01*
X87774327Y-53041740D01*
X87774326Y-53041744D01*
X87754540Y-53230000D01*
X87774326Y-53418256D01*
X87774327Y-53418259D01*
X87832818Y-53598277D01*
X87832821Y-53598284D01*
X87927467Y-53762216D01*
X88043899Y-53891526D01*
X88054129Y-53902888D01*
X88207265Y-54014148D01*
X88207270Y-54014151D01*
X88380192Y-54091142D01*
X88380197Y-54091144D01*
X88565354Y-54130500D01*
X88565355Y-54130500D01*
X88761145Y-54130500D01*
X88761145Y-54132080D01*
X88822010Y-54143203D01*
X88873040Y-54190928D01*
X88890168Y-54258666D01*
X88889578Y-54266911D01*
X88874540Y-54410000D01*
X88894326Y-54598256D01*
X88895365Y-54601454D01*
X88952818Y-54778277D01*
X88952821Y-54778284D01*
X89047467Y-54942216D01*
X89138100Y-55042874D01*
X89174129Y-55082888D01*
X89266751Y-55150182D01*
X89309417Y-55205512D01*
X89315396Y-55275125D01*
X89282790Y-55336920D01*
X89221952Y-55371277D01*
X89193866Y-55374500D01*
X87040452Y-55374500D01*
X86973413Y-55354815D01*
X86952771Y-55338181D01*
X85458960Y-53844370D01*
X85425475Y-53783047D01*
X85423323Y-53769671D01*
X85405674Y-53601744D01*
X85347179Y-53421716D01*
X85252533Y-53257784D01*
X85125871Y-53117112D01*
X85125870Y-53117111D01*
X84972732Y-53005849D01*
X84939063Y-52990859D01*
X84885827Y-52945608D01*
X84865506Y-52878759D01*
X84865500Y-52877580D01*
X84865500Y-52758687D01*
X84885185Y-52691648D01*
X84897350Y-52675715D01*
X84936779Y-52631924D01*
X84972533Y-52592216D01*
X85067179Y-52428284D01*
X85125674Y-52248256D01*
X85145460Y-52060000D01*
X85125674Y-51871744D01*
X85071112Y-51703823D01*
X85067181Y-51691722D01*
X85067180Y-51691721D01*
X85067179Y-51691716D01*
X84972533Y-51527784D01*
X84845871Y-51387112D01*
X84845870Y-51387111D01*
X84692734Y-51275851D01*
X84692729Y-51275848D01*
X84519807Y-51198857D01*
X84519802Y-51198855D01*
X84362874Y-51165500D01*
X84334646Y-51159500D01*
X84145354Y-51159500D01*
X84117126Y-51165500D01*
X83960197Y-51198855D01*
X83960192Y-51198857D01*
X83787270Y-51275848D01*
X83787265Y-51275851D01*
X83634129Y-51387111D01*
X83507466Y-51527785D01*
X83412821Y-51691715D01*
X83412818Y-51691722D01*
X83360178Y-51853732D01*
X83354326Y-51871744D01*
X83334540Y-52060000D01*
X83354326Y-52248256D01*
X83354327Y-52248259D01*
X83412818Y-52428277D01*
X83412821Y-52428284D01*
X83507467Y-52592216D01*
X83530776Y-52618103D01*
X83582650Y-52675715D01*
X83612880Y-52738706D01*
X83614500Y-52758687D01*
X83614500Y-52799548D01*
X83594815Y-52866587D01*
X83578181Y-52887229D01*
X83402229Y-53063181D01*
X83340906Y-53096666D01*
X83314548Y-53099500D01*
X83255354Y-53099500D01*
X83239862Y-53102793D01*
X83070197Y-53138855D01*
X83070192Y-53138857D01*
X82897270Y-53215848D01*
X82897265Y-53215851D01*
X82744129Y-53327111D01*
X82617466Y-53467785D01*
X82522821Y-53631715D01*
X82522818Y-53631722D01*
X82465255Y-53808885D01*
X82464326Y-53811744D01*
X82444540Y-54000000D01*
X82464326Y-54188256D01*
X82464327Y-54188259D01*
X82522818Y-54368277D01*
X82522821Y-54368284D01*
X82617467Y-54532216D01*
X82729923Y-54657111D01*
X82744129Y-54672888D01*
X82897262Y-54784146D01*
X82897270Y-54784151D01*
X83070192Y-54861142D01*
X83070197Y-54861144D01*
X83255354Y-54900500D01*
X83255355Y-54900500D01*
X83444644Y-54900500D01*
X83444646Y-54900500D01*
X83629803Y-54861144D01*
X83802730Y-54784151D01*
X83802733Y-54784148D01*
X83802738Y-54784146D01*
X83904536Y-54710185D01*
X83955871Y-54672888D01*
X83990928Y-54633951D01*
X84050413Y-54597304D01*
X84120270Y-54598633D01*
X84133512Y-54603644D01*
X84240197Y-54651144D01*
X84425354Y-54690500D01*
X84484548Y-54690500D01*
X84551587Y-54710185D01*
X84572229Y-54726819D01*
X86241016Y-56395606D01*
X86241045Y-56395637D01*
X86331265Y-56485857D01*
X86339931Y-56491647D01*
X86374130Y-56514498D01*
X86374132Y-56514500D01*
X86374133Y-56514500D01*
X86433714Y-56554312D01*
X86514207Y-56587652D01*
X86547548Y-56601463D01*
X86566638Y-56605260D01*
X86601567Y-56612208D01*
X86601587Y-56612211D01*
X86601609Y-56612216D01*
X86668391Y-56625499D01*
X86668392Y-56625500D01*
X86668393Y-56625500D01*
X86668394Y-56625500D01*
X89996252Y-56625500D01*
X90063291Y-56645185D01*
X90088400Y-56666526D01*
X90094126Y-56672885D01*
X90094130Y-56672889D01*
X90247265Y-56784148D01*
X90247270Y-56784151D01*
X90420192Y-56861142D01*
X90420197Y-56861144D01*
X90605354Y-56900500D01*
X90605355Y-56900500D01*
X90794644Y-56900500D01*
X90794646Y-56900500D01*
X90874719Y-56883480D01*
X90944386Y-56888796D01*
X91000120Y-56930933D01*
X91024225Y-56996513D01*
X91024500Y-57004770D01*
X91024500Y-57021615D01*
X91004815Y-57088654D01*
X90988181Y-57109296D01*
X88759961Y-59337517D01*
X88698638Y-59371002D01*
X88672280Y-59373836D01*
X82737007Y-59373836D01*
X82669968Y-59354151D01*
X82624213Y-59301347D01*
X82613686Y-59236875D01*
X82615460Y-59220000D01*
X82595674Y-59031744D01*
X82537179Y-58851716D01*
X82442533Y-58687784D01*
X82315871Y-58547112D01*
X82315870Y-58547111D01*
X82162734Y-58435851D01*
X82162729Y-58435848D01*
X81989807Y-58358857D01*
X81989802Y-58358855D01*
X81844001Y-58327865D01*
X81804646Y-58319500D01*
X81615354Y-58319500D01*
X81582897Y-58326398D01*
X81430197Y-58358855D01*
X81430192Y-58358857D01*
X81257270Y-58435848D01*
X81257265Y-58435851D01*
X81104129Y-58547111D01*
X80977466Y-58687785D01*
X80882821Y-58851715D01*
X80882818Y-58851722D01*
X80824327Y-59031740D01*
X80824326Y-59031744D01*
X80804540Y-59220000D01*
X80806313Y-59236875D01*
X80793745Y-59305604D01*
X80746013Y-59356628D01*
X80682993Y-59373836D01*
X76507183Y-59373836D01*
X76440144Y-59354151D01*
X76394389Y-59301347D01*
X76384445Y-59232189D01*
X76413470Y-59168633D01*
X76419502Y-59162155D01*
X76879942Y-58701715D01*
X77348084Y-58233573D01*
X77348088Y-58233571D01*
X77435213Y-58146446D01*
X77494140Y-58058256D01*
X77503667Y-58043998D01*
X77536639Y-57964395D01*
X77550818Y-57930165D01*
X77564547Y-57861143D01*
X77572632Y-57820499D01*
X77572632Y-57820494D01*
X77574801Y-57809587D01*
X77607191Y-57747680D01*
X77667910Y-57713110D01*
X77737679Y-57716855D01*
X77743836Y-57719214D01*
X77797548Y-57741463D01*
X77857971Y-57753481D01*
X77918393Y-57765500D01*
X79543675Y-57765500D01*
X79604097Y-57753481D01*
X79664520Y-57741463D01*
X79664523Y-57741461D01*
X79664526Y-57741461D01*
X79697855Y-57727654D01*
X79697854Y-57727654D01*
X79697860Y-57727652D01*
X79778354Y-57694312D01*
X79840240Y-57652960D01*
X79880801Y-57625858D01*
X79967926Y-57538733D01*
X79967927Y-57538730D01*
X79974993Y-57531665D01*
X79974996Y-57531661D01*
X81790729Y-55715928D01*
X81790733Y-55715926D01*
X81877858Y-55628801D01*
X81935333Y-55542784D01*
X81946312Y-55526353D01*
X81979633Y-55445909D01*
X81988837Y-55423689D01*
X81991198Y-55417989D01*
X81993463Y-55412520D01*
X82017500Y-55291674D01*
X82017500Y-52857673D01*
X82017501Y-52857652D01*
X82017501Y-52728323D01*
X81996657Y-52623537D01*
X81993463Y-52607480D01*
X81988344Y-52595121D01*
X81961577Y-52530499D01*
X81946314Y-52493651D01*
X81946313Y-52493649D01*
X81944639Y-52491144D01*
X81902633Y-52428277D01*
X81877858Y-52391198D01*
X81137819Y-51651159D01*
X81104334Y-51589836D01*
X81101500Y-51563478D01*
X81101500Y-51364500D01*
X81121185Y-51297461D01*
X81173989Y-51251706D01*
X81225500Y-51240500D01*
X81264644Y-51240500D01*
X81264646Y-51240500D01*
X81449803Y-51201144D01*
X81622730Y-51124151D01*
X81775871Y-51012888D01*
X81848269Y-50932479D01*
X81892970Y-50900890D01*
X81908854Y-50894312D01*
X81981382Y-50845849D01*
X82011301Y-50825858D01*
X82098426Y-50738733D01*
X82098426Y-50738731D01*
X82108634Y-50728524D01*
X82108635Y-50728521D01*
X83842340Y-48994819D01*
X83903663Y-48961334D01*
X83930021Y-48958500D01*
X87757322Y-48958500D01*
X87824361Y-48978185D01*
G37*
G04 #@! TD.AperFunction*
G04 #@! TA.AperFunction,Conductor*
G36*
X76033693Y-54649121D02*
G01*
X76091742Y-54688008D01*
X76119552Y-54752105D01*
X76120500Y-54767412D01*
X76120500Y-56509026D01*
X76100815Y-56576065D01*
X76048011Y-56621820D01*
X76022281Y-56630316D01*
X75998731Y-56635321D01*
X75998726Y-56635323D01*
X75825804Y-56712314D01*
X75825800Y-56712317D01*
X75778905Y-56746388D01*
X75713099Y-56769867D01*
X75645045Y-56754041D01*
X75618340Y-56733750D01*
X74058771Y-55174181D01*
X74025286Y-55112858D01*
X74030270Y-55043166D01*
X74072142Y-54987233D01*
X74137606Y-54962816D01*
X74146452Y-54962500D01*
X75041098Y-54962500D01*
X75041107Y-54962500D01*
X75041115Y-54962498D01*
X75046585Y-54961959D01*
X75084528Y-54964070D01*
X75145354Y-54977000D01*
X75145357Y-54977000D01*
X75334644Y-54977000D01*
X75334646Y-54977000D01*
X75519803Y-54937644D01*
X75692730Y-54860651D01*
X75845871Y-54749388D01*
X75904351Y-54684439D01*
X75963836Y-54647791D01*
X76033693Y-54649121D01*
G37*
G04 #@! TD.AperFunction*
G04 #@! TA.AperFunction,Conductor*
G36*
X80497269Y-53929024D02*
G01*
X80645354Y-53960500D01*
X80645355Y-53960500D01*
X80651822Y-53961180D01*
X80651612Y-53963175D01*
X80709539Y-53980185D01*
X80755294Y-54032989D01*
X80766500Y-54084500D01*
X80766500Y-54919616D01*
X80746815Y-54986655D01*
X80730181Y-55007297D01*
X80559181Y-55178297D01*
X80497858Y-55211782D01*
X80428166Y-55206798D01*
X80372233Y-55164926D01*
X80347816Y-55099462D01*
X80347500Y-55090616D01*
X80347500Y-54050316D01*
X80367185Y-53983277D01*
X80419989Y-53937522D01*
X80489147Y-53927578D01*
X80497269Y-53929024D01*
G37*
G04 #@! TD.AperFunction*
G04 #@! TA.AperFunction,Conductor*
G36*
X73627587Y-51185185D02*
G01*
X73673342Y-51237989D01*
X73683286Y-51307147D01*
X73654261Y-51370703D01*
X73648229Y-51377181D01*
X71727229Y-53298181D01*
X71665906Y-53331666D01*
X71639548Y-53334500D01*
X70249453Y-53334500D01*
X70182414Y-53314815D01*
X70136659Y-53262011D01*
X70126715Y-53192853D01*
X70155740Y-53129297D01*
X70161772Y-53122819D01*
X70174409Y-53110182D01*
X70185858Y-53098733D01*
X70185858Y-53098731D01*
X70196062Y-53088528D01*
X70196065Y-53088523D01*
X70717772Y-52566819D01*
X70779095Y-52533334D01*
X70805453Y-52530500D01*
X70854644Y-52530500D01*
X70854646Y-52530500D01*
X71039803Y-52491144D01*
X71212730Y-52414151D01*
X71365871Y-52302888D01*
X71492533Y-52162216D01*
X71587179Y-51998284D01*
X71645674Y-51818256D01*
X71665460Y-51630000D01*
X71645674Y-51441744D01*
X71608657Y-51327818D01*
X71606662Y-51257977D01*
X71642742Y-51198144D01*
X71705443Y-51167316D01*
X71726588Y-51165500D01*
X73560548Y-51165500D01*
X73627587Y-51185185D01*
G37*
G04 #@! TD.AperFunction*
G04 #@! TA.AperFunction,Conductor*
G36*
X69860451Y-51185185D02*
G01*
X69906206Y-51237989D01*
X69916150Y-51307147D01*
X69911343Y-51327818D01*
X69875461Y-51438252D01*
X69874326Y-51441744D01*
X69865230Y-51528291D01*
X69855504Y-51620824D01*
X69828919Y-51685439D01*
X69819865Y-51695543D01*
X69477227Y-52038182D01*
X69415907Y-52071666D01*
X69389548Y-52074500D01*
X67603748Y-52074500D01*
X67536709Y-52054815D01*
X67511600Y-52033474D01*
X67505873Y-52027114D01*
X67505869Y-52027110D01*
X67352734Y-51915851D01*
X67352729Y-51915848D01*
X67179807Y-51838857D01*
X67179802Y-51838855D01*
X67021392Y-51805185D01*
X66994646Y-51799500D01*
X66805354Y-51799500D01*
X66778608Y-51805185D01*
X66620197Y-51838855D01*
X66620192Y-51838857D01*
X66447271Y-51915848D01*
X66442352Y-51919422D01*
X66376543Y-51942896D01*
X66308491Y-51927066D01*
X66262087Y-51881098D01*
X66225533Y-51817784D01*
X66225532Y-51817783D01*
X66222727Y-51812924D01*
X66206255Y-51745024D01*
X66229108Y-51678997D01*
X66242427Y-51663251D01*
X66703861Y-51201819D01*
X66765184Y-51168334D01*
X66791542Y-51165500D01*
X69793412Y-51165500D01*
X69860451Y-51185185D01*
G37*
G04 #@! TD.AperFunction*
G04 #@! TA.AperFunction,Conductor*
G36*
X72196368Y-45586685D02*
G01*
X72242123Y-45639489D01*
X72252067Y-45708647D01*
X72223042Y-45772203D01*
X72202214Y-45791318D01*
X72084129Y-45877111D01*
X71957466Y-46017785D01*
X71862821Y-46181715D01*
X71862818Y-46181722D01*
X71812320Y-46337141D01*
X71804326Y-46361744D01*
X71784540Y-46550000D01*
X71804326Y-46738256D01*
X71804327Y-46738259D01*
X71862818Y-46918277D01*
X71862821Y-46918284D01*
X71957467Y-47082216D01*
X72084129Y-47222888D01*
X72237265Y-47334148D01*
X72237270Y-47334151D01*
X72410192Y-47411142D01*
X72410197Y-47411144D01*
X72595354Y-47450500D01*
X72595355Y-47450500D01*
X72784644Y-47450500D01*
X72784646Y-47450500D01*
X72969803Y-47411144D01*
X73142730Y-47334151D01*
X73295871Y-47222888D01*
X73422533Y-47082216D01*
X73517179Y-46918284D01*
X73575674Y-46738256D01*
X73595460Y-46550000D01*
X73575674Y-46361744D01*
X73517179Y-46181716D01*
X73422533Y-46017784D01*
X73295871Y-45877112D01*
X73228829Y-45828403D01*
X73177786Y-45791318D01*
X73135120Y-45735988D01*
X73129141Y-45666375D01*
X73161747Y-45604580D01*
X73222585Y-45570223D01*
X73250671Y-45567000D01*
X74746252Y-45567000D01*
X74813291Y-45586685D01*
X74838400Y-45608026D01*
X74844126Y-45614385D01*
X74844130Y-45614389D01*
X74915285Y-45666086D01*
X74957951Y-45721416D01*
X74963930Y-45791029D01*
X74949788Y-45828403D01*
X74872820Y-45961718D01*
X74872818Y-45961722D01*
X74814327Y-46141740D01*
X74814326Y-46141744D01*
X74794540Y-46330000D01*
X74814326Y-46518256D01*
X74814327Y-46518259D01*
X74872818Y-46698277D01*
X74872821Y-46698284D01*
X74967467Y-46862216D01*
X75010772Y-46910310D01*
X75042650Y-46945715D01*
X75072880Y-47008706D01*
X75074500Y-47028687D01*
X75074500Y-48071944D01*
X75054815Y-48138983D01*
X75023386Y-48172261D01*
X74934132Y-48237109D01*
X74934123Y-48237116D01*
X74807466Y-48377785D01*
X74712821Y-48541715D01*
X74712818Y-48541722D01*
X74655832Y-48717109D01*
X74654326Y-48721744D01*
X74634540Y-48910000D01*
X74654326Y-49098256D01*
X74654327Y-49098259D01*
X74712818Y-49278277D01*
X74712821Y-49278284D01*
X74807467Y-49442216D01*
X74921135Y-49568457D01*
X74934129Y-49582888D01*
X75081806Y-49690182D01*
X75124472Y-49745512D01*
X75130451Y-49815125D01*
X75097845Y-49876920D01*
X75037006Y-49911278D01*
X75008921Y-49914500D01*
X67319452Y-49914500D01*
X67252413Y-49894815D01*
X67206658Y-49842011D01*
X67196714Y-49772853D01*
X67225739Y-49709297D01*
X67231771Y-49702819D01*
X69211602Y-47722989D01*
X71331272Y-45603319D01*
X71392595Y-45569834D01*
X71418953Y-45567000D01*
X72129329Y-45567000D01*
X72196368Y-45586685D01*
G37*
G04 #@! TD.AperFunction*
G04 #@! TA.AperFunction,Conductor*
G36*
X81275933Y-49067483D02*
G01*
X81330197Y-49091644D01*
X81515354Y-49131000D01*
X81515355Y-49131000D01*
X81637615Y-49131000D01*
X81704654Y-49150685D01*
X81750409Y-49203489D01*
X81760353Y-49272647D01*
X81731328Y-49336203D01*
X81725314Y-49342662D01*
X81648162Y-49419815D01*
X81606463Y-49461514D01*
X81545140Y-49494998D01*
X81475448Y-49490014D01*
X81468347Y-49487112D01*
X81449802Y-49478855D01*
X81303902Y-49447844D01*
X81264646Y-49439500D01*
X81264645Y-49439500D01*
X81225500Y-49439500D01*
X81158461Y-49419815D01*
X81112706Y-49367011D01*
X81101500Y-49315500D01*
X81101500Y-49180764D01*
X81121185Y-49113725D01*
X81173989Y-49067970D01*
X81243147Y-49058026D01*
X81275933Y-49067483D01*
G37*
G04 #@! TD.AperFunction*
G04 #@! TA.AperFunction,Conductor*
G36*
X86122058Y-45483962D02*
G01*
X86167813Y-45536766D01*
X86178339Y-45601236D01*
X86175603Y-45627274D01*
X86195389Y-45815530D01*
X86195390Y-45815533D01*
X86253881Y-45995551D01*
X86253885Y-45995560D01*
X86256646Y-46000342D01*
X86273117Y-46068242D01*
X86250264Y-46134269D01*
X86195342Y-46177458D01*
X86149258Y-46186340D01*
X82972293Y-46186340D01*
X82905254Y-46166655D01*
X82884612Y-46150021D01*
X82468960Y-45734369D01*
X82435475Y-45673046D01*
X82433322Y-45659662D01*
X82428421Y-45613030D01*
X82427182Y-45601236D01*
X82439753Y-45532506D01*
X82487486Y-45481484D01*
X82550503Y-45464277D01*
X86055019Y-45464277D01*
X86122058Y-45483962D01*
G37*
G04 #@! TD.AperFunction*
G04 #@! TA.AperFunction,Conductor*
G36*
X74824822Y-44075185D02*
G01*
X74870577Y-44127989D01*
X74880521Y-44197147D01*
X74851496Y-44260703D01*
X74848473Y-44263783D01*
X74848475Y-44263785D01*
X74838400Y-44274974D01*
X74778913Y-44311621D01*
X74746252Y-44316000D01*
X71046886Y-44316000D01*
X71037984Y-44317771D01*
X70968393Y-44311541D01*
X70913217Y-44268676D01*
X70889975Y-44202785D01*
X70906046Y-44134789D01*
X70926112Y-44108477D01*
X70942775Y-44091814D01*
X71004098Y-44058333D01*
X71030452Y-44055500D01*
X74757783Y-44055500D01*
X74824822Y-44075185D01*
G37*
G04 #@! TD.AperFunction*
G04 #@! TA.AperFunction,Conductor*
G36*
X85930942Y-36955185D02*
G01*
X85976697Y-37007989D01*
X85987224Y-37072460D01*
X85984540Y-37097998D01*
X85984540Y-37098000D01*
X86004326Y-37286256D01*
X86004327Y-37286259D01*
X86062818Y-37466277D01*
X86062821Y-37466284D01*
X86157467Y-37630216D01*
X86174251Y-37648856D01*
X86232650Y-37713715D01*
X86262880Y-37776706D01*
X86264500Y-37796687D01*
X86264500Y-38670461D01*
X86264500Y-38793675D01*
X86264500Y-38793677D01*
X86264499Y-38793677D01*
X86271407Y-38828400D01*
X86271407Y-38828402D01*
X86288535Y-38914512D01*
X86288538Y-38914522D01*
X86296143Y-38932883D01*
X86335685Y-39028349D01*
X86335687Y-39028352D01*
X86335688Y-39028354D01*
X86358720Y-39062822D01*
X86369914Y-39079575D01*
X86369915Y-39079577D01*
X86404140Y-39130799D01*
X86404141Y-39130800D01*
X86404142Y-39130801D01*
X86491267Y-39217926D01*
X86491268Y-39217926D01*
X86498335Y-39224993D01*
X86498334Y-39224993D01*
X86498338Y-39224996D01*
X88119195Y-40845855D01*
X88119199Y-40845858D01*
X88223105Y-40915287D01*
X88246363Y-40935415D01*
X88267163Y-40958515D01*
X88297393Y-41021506D01*
X88288769Y-41090842D01*
X88257981Y-41133643D01*
X88254128Y-41137111D01*
X88127466Y-41277785D01*
X88032821Y-41441715D01*
X88032818Y-41441721D01*
X88002895Y-41533818D01*
X87963458Y-41591494D01*
X87899099Y-41618692D01*
X87884964Y-41619500D01*
X87875354Y-41619500D01*
X87842897Y-41626398D01*
X87690197Y-41658855D01*
X87690192Y-41658857D01*
X87517270Y-41735848D01*
X87517265Y-41735851D01*
X87364129Y-41847111D01*
X87237466Y-41987785D01*
X87142821Y-42151715D01*
X87142818Y-42151722D01*
X87085352Y-42328585D01*
X87084326Y-42331744D01*
X87064540Y-42520000D01*
X87067764Y-42550680D01*
X87069011Y-42562539D01*
X87056441Y-42631269D01*
X87008709Y-42682292D01*
X86945690Y-42699500D01*
X86875354Y-42699500D01*
X86842897Y-42706398D01*
X86690197Y-42738855D01*
X86690192Y-42738857D01*
X86517270Y-42815848D01*
X86517265Y-42815851D01*
X86364129Y-42927111D01*
X86237466Y-43067785D01*
X86142821Y-43231715D01*
X86142818Y-43231722D01*
X86084327Y-43411740D01*
X86084326Y-43411744D01*
X86064540Y-43600000D01*
X86084326Y-43788256D01*
X86084327Y-43788259D01*
X86142818Y-43968277D01*
X86142821Y-43968284D01*
X86176881Y-44027277D01*
X86193354Y-44095177D01*
X86170501Y-44161204D01*
X86115580Y-44204395D01*
X86069494Y-44213277D01*
X80633748Y-44213277D01*
X80566709Y-44193592D01*
X80541600Y-44172251D01*
X80535873Y-44165891D01*
X80535869Y-44165887D01*
X80382734Y-44054628D01*
X80382729Y-44054625D01*
X80209807Y-43977634D01*
X80209802Y-43977632D01*
X80064001Y-43946642D01*
X80024646Y-43938277D01*
X80024645Y-43938277D01*
X79928392Y-43938277D01*
X79861353Y-43918592D01*
X79815598Y-43865788D01*
X79810461Y-43852594D01*
X79797179Y-43811716D01*
X79794537Y-43805782D01*
X79796462Y-43804924D01*
X79782313Y-43746600D01*
X79805165Y-43680573D01*
X79860086Y-43637383D01*
X79906173Y-43628500D01*
X80050676Y-43628500D01*
X80050676Y-43628499D01*
X80131360Y-43612451D01*
X80131361Y-43612451D01*
X80144993Y-43609739D01*
X80171520Y-43604463D01*
X80204860Y-43590652D01*
X80285354Y-43557312D01*
X80353970Y-43511463D01*
X80387801Y-43488858D01*
X80474926Y-43401733D01*
X80474926Y-43401731D01*
X80485134Y-43391524D01*
X80485135Y-43391521D01*
X83745857Y-40130802D01*
X83814311Y-40028354D01*
X83861463Y-39914520D01*
X83885500Y-39793675D01*
X83885500Y-39670462D01*
X83885500Y-37580452D01*
X83905185Y-37513413D01*
X83921819Y-37492771D01*
X84442771Y-36971819D01*
X84504094Y-36938334D01*
X84530452Y-36935500D01*
X85863903Y-36935500D01*
X85930942Y-36955185D01*
G37*
G04 #@! TD.AperFunction*
M02*
