M48
; DRILL file {KiCad 8.0.1} date 2024-04-21T16:15:18+0300
; FORMAT={-:-/ absolute / inch / decimal}
; #@! TF.CreationDate,2024-04-21T16:15:18+03:00
; #@! TF.GenerationSoftware,Kicad,Pcbnew,8.0.1
; #@! TF.FileFunction,Plated,1,3,Blind
FMAT,2
INCH
; #@! TA.AperFunction,Plated,Buried,ViaDrill
T1C0.0157
%
G90
G05
T1
X2.1055Y-1.763
X2.1055Y-1.7949
X2.1055Y-1.8276
X2.1059Y-1.4102
X2.1059Y-1.4421
X2.1059Y-1.4748
X2.1374Y-1.763
X2.1374Y-1.7949
X2.1374Y-1.8276
X2.1378Y-1.4102
X2.1378Y-1.4421
X2.1378Y-1.4748
X2.1701Y-1.763
X2.1701Y-1.7949
X2.1701Y-1.8276
X2.1705Y-1.4102
X2.1705Y-1.4421
X2.1705Y-1.4748
X2.2024Y-1.763
X2.2024Y-1.7949
X2.2024Y-1.8276
X2.2028Y-1.4102
X2.2028Y-1.4421
X2.2028Y-1.4748
X2.3492Y-2.1783
X2.5315Y-2.4413
X2.5437Y-1.7378
X2.5437Y-1.8335
X2.5439Y-1.7697
X2.5439Y-1.8016
X2.5758Y-1.7378
X2.5758Y-1.8335
X2.576Y-1.7697
X2.576Y-1.8016
X2.7858Y-2.1902
X2.7882Y-2.2488
X2.8618Y-1.8327
X2.8917Y-2.3346
X2.9063Y-2.0386
X3.3878Y-1.7154
X3.4374Y-1.7882
X3.7685Y-1.3882
X3.7685Y-1.4205
X3.7685Y-1.4531
X3.7701Y-2.3685
X3.7701Y-2.4008
X3.7701Y-2.4335
X3.7748Y-1.8728
X3.7748Y-1.9051
X3.7748Y-1.9378
X3.8004Y-1.3882
X3.8004Y-1.4205
X3.8004Y-1.4531
X3.802Y-2.3685
X3.802Y-2.4008
X3.802Y-2.4335
X3.8067Y-1.8728
X3.8067Y-1.9051
X3.8067Y-1.9378
X3.8331Y-1.3882
X3.8331Y-1.4205
X3.8331Y-1.4531
X3.8346Y-2.3685
X3.8346Y-2.4008
X3.8346Y-2.4335
X3.8394Y-1.8728
X3.8394Y-1.9051
X3.8394Y-1.9378
M30
