M48
; DRILL file {KiCad 8.0.1} date 2024-04-29T17:35:37+0300
; FORMAT={-:-/ absolute / inch / decimal}
; #@! TF.CreationDate,2024-04-29T17:35:37+03:00
; #@! TF.GenerationSoftware,Kicad,Pcbnew,8.0.1
; #@! TF.FileFunction,Plated,1,2,Blind
FMAT,2
INCH
; #@! TA.AperFunction,Plated,Buried,ViaDrill
T1C0.0157
%
G90
G05
T1
X1.8484Y-1.4091
X1.8484Y-1.4409
X1.8484Y-1.4736
X1.8484Y-1.7626
X1.8484Y-1.7945
X1.8484Y-1.8272
X1.8803Y-1.4091
X1.8803Y-1.4409
X1.8803Y-1.4736
X1.8803Y-1.7626
X1.8803Y-1.7945
X1.8803Y-1.8272
X1.913Y-1.4091
X1.913Y-1.4409
X1.913Y-1.4736
X1.913Y-1.7626
X1.913Y-1.7945
X1.913Y-1.8272
X1.9453Y-1.4091
X1.9453Y-1.4409
X1.9453Y-1.4736
X1.9453Y-1.7626
X1.9453Y-1.7945
X1.9453Y-1.8272
X2.2781Y-2.0192
X2.3069Y-1.411
X2.3075Y-1.4622
X2.3169Y-2.0118
X2.3415Y-2.0748
X2.3419Y-2.2338
X2.376Y-2.0409
X2.4429Y-1.5787
X2.4882Y-1.6063
X2.5142Y-2.187
X2.5142Y-2.2276
X2.5142Y-2.2681
X2.5315Y-1.8228
X2.5549Y-2.187
X2.5549Y-2.2276
X2.5549Y-2.2681
X2.564Y-2.4793
X2.5787Y-1.876
X2.5807Y-1.8327
X2.5957Y-2.187
X2.5957Y-2.2276
X2.5957Y-2.2681
X2.602Y-2.4764
X2.6976Y-1.4012
X2.7118Y-1.6059
X2.7124Y-1.5459
X2.724Y-1.7465
X2.7252Y-1.7073
X2.7297Y-1.6707
X2.7299Y-1.4634
X2.736Y-1.5754
X2.7386Y-2.0705
X2.7441Y-1.9941
X2.7459Y-1.6335
X2.772Y-2.3403
X2.8022Y-1.9661
X2.8091Y-2.314
X2.852Y-2.1484
X2.8587Y-1.7724
X2.8612Y-1.8884
X2.8622Y-1.9276
X2.9213Y-1.7195
X2.9567Y-2.3878
X2.9587Y-2.435
X3.1697Y-1.8921
X3.1803Y-2.1366
X3.2854Y-1.7664
X3.2862Y-1.8239
X3.3031Y-1.885
X3.3258Y-1.7156
X3.3689Y-1.9681
X3.4012Y-1.9358
X3.4012Y-1.9682
X3.4012Y-2.0008
X3.4335Y-1.9681
X3.6232Y-2.3106
X3.6233Y-1.3311
X3.6235Y-2.3425
X3.6235Y-2.3745
X3.6236Y-1.363
X3.6236Y-1.395
X3.6236Y-2.4067
X3.6237Y-1.4272
X3.6276Y-1.8142
X3.6279Y-1.8461
X3.6279Y-1.8781
X3.628Y-1.9102
X3.6598Y-2.3106
X3.6599Y-1.3311
X3.6601Y-2.3425
X3.6601Y-2.3745
X3.6602Y-1.363
X3.6602Y-1.395
X3.6602Y-2.4067
X3.6603Y-1.4272
X3.6642Y-1.8142
X3.6645Y-1.8461
X3.6645Y-1.8781
X3.6646Y-1.9102
X3.6957Y-2.311
X3.6958Y-1.3315
X3.696Y-2.3429
X3.696Y-2.3749
X3.6961Y-1.3634
X3.6961Y-1.3954
X3.6961Y-2.4071
X3.6962Y-1.4276
X3.7Y-1.8146
X3.7003Y-1.8465
X3.7003Y-1.8785
X3.7004Y-1.9106
X3.7421Y-2.6732
X3.7776Y-1.7047
X3.7894Y-2.1787
X4.0217Y-1.6821
X4.0266Y-2.6693
X4.0344Y-2.1732
M30
