M48
; DRILL file {KiCad 8.0.1} date 2024-05-05T00:07:06+0300
; FORMAT={-:-/ absolute / inch / decimal}
; #@! TF.CreationDate,2024-05-05T00:07:06+03:00
; #@! TF.GenerationSoftware,Kicad,Pcbnew,8.0.1
; #@! TF.FileFunction,Plated,1,4,PTH
FMAT,2
INCH
; #@! TA.AperFunction,Plated,PTH,ViaDrill
T1C0.0157
; #@! TA.AperFunction,Plated,PTH,ComponentDrill
T2C0.0197
; #@! TA.AperFunction,Plated,PTH,ComponentDrill
T3C0.0394
; #@! TA.AperFunction,Plated,PTH,ComponentDrill
T4C0.0461
%
G90
G05
T1
X1.8343Y-2.7268
X1.8362Y-2.4098
X1.8413Y-1.3713
X1.8433Y-1.4425
X1.8441Y-1.5146
X1.8445Y-1.724
X1.8465Y-1.7953
X1.8472Y-1.8673
X1.863Y-1.9896
X1.8635Y-2.0407
X1.8776Y-1.3709
X1.8803Y-1.5142
X1.8807Y-1.7236
X1.8835Y-1.8669
X1.8941Y-1.4425
X1.8972Y-1.7953
X1.915Y-1.3709
X1.9177Y-1.5142
X1.9181Y-1.7236
X1.9209Y-1.8669
X1.9299Y-2.5496
X1.9362Y-2.278
X1.9437Y-1.4406
X1.9469Y-1.7933
X1.9528Y-1.3713
X1.9555Y-1.5146
X1.9559Y-1.724
X1.9587Y-1.8673
X1.9882Y-2.4921
X1.9882Y-2.6055
X1.9937Y-2.2201
X1.9941Y-2.337
X2.0476Y-2.5492
X2.0524Y-2.2783
X2.0921Y-1.3673
X2.0921Y-1.5161
X2.0945Y-1.7201
X2.0945Y-1.8689
X2.1016Y-1.4413
X2.1039Y-1.7941
X2.1256Y-1.5161
X2.126Y-1.3665
X2.128Y-1.8689
X2.1283Y-1.7193
X2.1492Y-1.4429
X2.1516Y-1.7957
X2.1583Y-1.5161
X2.1594Y-1.3665
X2.1606Y-1.8689
X2.1618Y-1.7193
X2.1937Y-1.4406
X2.1961Y-1.7933
X2.2287Y-2.3433
X2.2421Y-2.6319
X2.2602Y-2.0697
X2.2657Y-2.2441
X2.2712Y-2.435
X2.2756Y-1.8957
X2.2811Y-1.8165
X2.2913Y-1.6358
X2.3217Y-1.7587
X2.3295Y-2.628
X2.3415Y-2.0748
X2.3433Y-2.2325
X2.3492Y-2.1783
X2.3523Y-2.3454
X2.3579Y-2.2838
X2.3594Y-2.0409
X2.372Y-2.3799
X2.4181Y-2.6319
X2.4285Y-2.1287
X2.435Y-2.3854
X2.4484Y-2.0979
X2.4626Y-1.7016
X2.4661Y-1.8898
X2.4734Y-2.0059
X2.4957Y-1.9445
X2.4957Y-2.3878
X2.5016Y-2.0732
X2.5138Y-1.6079
X2.5142Y-2.187
X2.5142Y-2.2276
X2.5142Y-2.2681
X2.5303Y-2.4642
X2.5315Y-1.8228
X2.533Y-2.3878
X2.5335Y-2.0531
X2.5374Y-1.6803
X2.5528Y-1.6205
X2.5543Y-2.4953
X2.5549Y-2.187
X2.5549Y-2.2276
X2.5549Y-2.2681
X2.5785Y-2.061
X2.5787Y-1.876
X2.5807Y-1.8327
X2.5957Y-2.187
X2.5957Y-2.2276
X2.5957Y-2.2681
X2.5984Y-2.4972
X2.5996Y-1.7543
X2.6Y-1.7213
X2.602Y-1.6394
X2.6021Y-1.6067
X2.6317Y-1.7543
X2.6321Y-1.7213
X2.6339Y-2.0748
X2.6341Y-1.6394
X2.6343Y-1.6067
X2.6854Y-2.3256
X2.7201Y-2.0461
X2.7476Y-2.0177
X2.7672Y-2.5399
X2.7732Y-2.6508
X2.7744Y-2.335
X2.7787Y-1.6
X2.7793Y-1.54
X2.7858Y-2.0327
X2.7874Y-1.9598
X2.7882Y-2.2488
X2.7921Y-2.2094
X2.7941Y-1.7394
X2.7967Y-1.6648
X2.7969Y-1.4575
X2.8016Y-1.402
X2.803Y-1.5695
X2.8091Y-2.314
X2.8128Y-1.6276
X2.813Y-1.2839
X2.8256Y-1.8185
X2.8272Y-2.0906
X2.8299Y-1.9641
X2.837Y-2.0409
X2.8376Y-2.4203
X2.8583Y-1.9323
X2.8618Y-1.8327
X2.8711Y-2.3258
X2.8902Y-2.3937
X2.9004Y-2.5394
X2.9232Y-1.8945
X2.9346Y-1.7362
X2.9555Y-2.3921
X2.9587Y-2.435
X2.9622Y-2.129
X2.9705Y-1.7694
X2.974Y-1.9256
X2.9744Y-2.0457
X2.9803Y-1.824
X2.9827Y-2.1843
X3.0031Y-2.2636
X3.0189Y-2.5378
X3.0276Y-1.7335
X3.0295Y-1.9827
X3.0303Y-1.6472
X3.0472Y-2.2225
X3.0565Y-1.7653
X3.0755Y-1.6291
X3.1091Y-1.7394
X3.1118Y-1.6249
X3.113Y-2.0142
X3.1346Y-2.2079
X3.1469Y-1.7653
X3.1483Y-1.6241
X3.1669Y-2.5378
X3.1709Y-2.1559
X3.1787Y-2.089
X3.1815Y-2.2762
X3.1846Y-1.6213
X3.1957Y-1.9819
X3.2018Y-1.9336
X3.2098Y-1.7984
X3.213Y-1.8988
X3.2165Y-2.3917
X3.2169Y-2.3315
X3.2796Y-1.7961
X3.2807Y-1.7362
X3.2815Y-2.126
X3.3165Y-2.0496
X3.3272Y-1.7228
X3.3276Y-2.1177
X3.3689Y-1.9681
X3.3728Y-2.5398
X3.4012Y-1.9358
X3.4012Y-1.9682
X3.4012Y-2.0008
X3.4209Y-1.4606
X3.424Y-1.7165
X3.4284Y-1.7963
X3.4319Y-1.8327
X3.4335Y-1.9681
X3.4543Y-1.7433
X3.4634Y-1.674
X3.468Y-1.8381
X3.4748Y-1.7972
X3.4886Y-2.3024
X3.4906Y-2.0957
X3.4984Y-1.6461
X3.5016Y-1.589
X3.5084Y-2.035
X3.5195Y-1.8978
X3.5218Y-1.7701
X3.5218Y-1.8272
X3.5315Y-1.4854
X3.5346Y-2.1421
X3.5445Y-1.6122
X3.5512Y-2.6543
X3.5551Y-2.5197
X3.5555Y-1.9134
X3.5709Y-2.2047
X3.5715Y-1.4632
X3.5732Y-1.8201
X3.5732Y-1.8724
X3.5732Y-1.9543
X3.5794Y-1.5718
X3.5945Y-2.6854
X3.6012Y-2.6157
X3.6063Y-2.3984
X3.6075Y-2.3118
X3.6079Y-2.3547
X3.6083Y-2.1703
X3.6264Y-1.3268
X3.6276Y-1.4264
X3.6287Y-1.3768
X3.6445Y-1.6752
X3.6543Y-1.7756
X3.6543Y-1.9429
X3.6547Y-1.9079
X3.6555Y-1.8114
X3.6575Y-1.863
X3.663Y-1.3268
X3.663Y-1.4256
X3.6634Y-2.3996
X3.6642Y-2.3563
X3.6646Y-2.3134
X3.6654Y-2.2047
X3.6941Y-1.8102
X3.6945Y-1.3772
X3.6965Y-1.9067
X3.6969Y-1.7549
X3.6976Y-1.9425
X3.698Y-1.4244
X3.698Y-1.8634
X3.7012Y-1.6449
X3.7017Y-2.3971
X3.702Y-2.3563
X3.7031Y-1.3256
X3.7043Y-2.3114
X3.7047Y-2.0955
X3.7122Y-2.5935
X3.713Y-2.1791
X3.7181Y-1.2807
X3.7185Y-2.6736
X3.726Y-1.7839
X3.7287Y-2.244
X3.7323Y-1.7126
X3.7441Y-2.2077
X3.7673Y-1.3209
X3.7677Y-2.3346
X3.7681Y-2.3016
X3.7685Y-1.3535
X3.7728Y-1.8406
X3.7744Y-1.8063
X3.7776Y-1.7047
X3.7894Y-2.1787
X3.7996Y-2.3358
X3.8Y-2.3016
X3.8012Y-2.402
X3.8016Y-1.4205
X3.8024Y-1.3193
X3.8031Y-1.3535
X3.8083Y-1.9051
X3.8087Y-1.8071
X3.8091Y-1.8406
X3.8339Y-2.3016
X3.8339Y-2.335
X3.835Y-1.4209
X3.835Y-2.4008
X3.8366Y-1.3543
X3.837Y-1.3181
X3.8433Y-1.9043
X3.8445Y-1.8063
X3.8453Y-1.8406
X3.8839Y-1.2953
X3.8921Y-1.7874
X4.0386Y-1.7236
X4.0835Y-1.6839
X4.0862Y-2.172
X4.0862Y-2.2157
X4.1059Y-2.6693
X4.1071Y-2.7079
X4.2902Y-1.7055
X4.2902Y-2.1953
X4.2925Y-2.7102
T2
X4.2283Y-2.1933
X4.2291Y-1.7051
X4.2291Y-2.7083
T3
X2.2797Y-2.5742
X2.2797Y-2.6742
X2.3797Y-2.5742
X2.3797Y-2.6742
X2.4797Y-2.5742
X2.4797Y-2.6742
X2.5797Y-2.5742
X2.5797Y-2.6742
X2.6797Y-2.5742
X2.6797Y-2.6742
X2.8252Y-2.6713
X2.9252Y-2.6713
X2.9768Y-1.3457
X3.0252Y-2.6713
X3.0768Y-1.3457
X3.1252Y-2.6713
X3.1768Y-1.3457
X3.2252Y-2.6713
X3.2768Y-1.3457
X3.3252Y-2.6713
X3.3768Y-1.3457
X3.4768Y-1.3457
T4
X1.9882Y-2.5492
X1.9941Y-2.2783
X4.0118Y-1.4921
X4.0118Y-1.9882
X4.0118Y-2.4724
M30
