G04 #@! TF.GenerationSoftware,KiCad,Pcbnew,8.0.1*
G04 #@! TF.CreationDate,2024-05-05T00:07:08+03:00*
G04 #@! TF.ProjectId,esc,6573632e-6b69-4636-9164-5f7063625858,rev?*
G04 #@! TF.SameCoordinates,Original*
G04 #@! TF.FileFunction,Copper,L2,Inr*
G04 #@! TF.FilePolarity,Positive*
%FSLAX46Y46*%
G04 Gerber Fmt 4.6, Leading zero omitted, Abs format (unit mm)*
G04 Created by KiCad (PCBNEW 8.0.1) date 2024-05-05 00:07:08*
%MOMM*%
%LPD*%
G01*
G04 APERTURE LIST*
G04 #@! TA.AperFunction,ComponentPad*
%ADD10C,1.755000*%
G04 #@! TD*
G04 #@! TA.AperFunction,ComponentPad*
%ADD11R,1.700000X1.700000*%
G04 #@! TD*
G04 #@! TA.AperFunction,ComponentPad*
%ADD12O,1.700000X1.700000*%
G04 #@! TD*
G04 #@! TA.AperFunction,ComponentPad*
%ADD13R,0.850000X0.850000*%
G04 #@! TD*
G04 #@! TA.AperFunction,ViaPad*
%ADD14C,0.800000*%
G04 #@! TD*
G04 APERTURE END LIST*
D10*
X101900000Y-50500000D03*
X50500000Y-64750000D03*
X101900000Y-62800000D03*
D11*
X84460000Y-67850000D03*
D12*
X81920000Y-67850000D03*
X79380000Y-67850000D03*
X76840000Y-67850000D03*
X74300000Y-67850000D03*
X71760000Y-67850000D03*
D10*
X101900000Y-37900000D03*
D13*
X107420000Y-43310000D03*
X107400000Y-55710000D03*
D10*
X50650000Y-57870000D03*
D11*
X68065000Y-65385000D03*
D12*
X68065000Y-67925000D03*
X65525000Y-65385000D03*
X65525000Y-67925000D03*
X62985000Y-65385000D03*
X62985000Y-67925000D03*
X60445000Y-65385000D03*
X60445000Y-67925000D03*
X57905000Y-65385000D03*
X57905000Y-67925000D03*
D13*
X107420000Y-68790000D03*
D11*
X75610000Y-34180000D03*
D12*
X78150000Y-34180000D03*
X80690000Y-34180000D03*
X83230000Y-34180000D03*
X85770000Y-34180000D03*
X88310000Y-34180000D03*
D14*
X65930000Y-56580000D03*
X73670000Y-64500000D03*
X66000000Y-63430000D03*
X71450000Y-32610000D03*
X57410000Y-52570000D03*
X70580000Y-40640000D03*
X93840000Y-34980000D03*
X65550000Y-46550000D03*
X70800000Y-49780000D03*
X76680000Y-64460000D03*
X96250000Y-55340000D03*
X65930000Y-57610000D03*
X48640000Y-34820000D03*
X93890000Y-48430000D03*
X70595000Y-39115000D03*
X63850000Y-40840000D03*
X93930000Y-36180000D03*
X61420000Y-66850000D03*
X49670000Y-38470000D03*
X50500000Y-66180000D03*
X80440000Y-64460000D03*
X49370000Y-36590000D03*
X85670000Y-64510000D03*
X92110000Y-33700000D03*
X103790000Y-55170000D03*
X71195000Y-39865000D03*
X65930000Y-55550000D03*
X76970000Y-41840000D03*
X47770000Y-43780000D03*
X57800000Y-48150000D03*
X74540000Y-44100000D03*
X64880000Y-63380000D03*
X73410000Y-60800000D03*
X71040000Y-37020000D03*
X109030000Y-68840000D03*
X50500000Y-63300000D03*
X103790000Y-56280000D03*
X92820000Y-49350000D03*
X92820000Y-45100000D03*
X91640000Y-59810000D03*
X46590000Y-69260000D03*
X93830000Y-45980000D03*
X64895000Y-55550000D03*
X49450000Y-45550000D03*
X49600000Y-34830000D03*
X49020000Y-64760000D03*
X58970000Y-44670000D03*
X92140000Y-36230000D03*
X86390000Y-49991246D03*
X95950000Y-43300000D03*
X87210000Y-49990000D03*
X86390000Y-50820000D03*
X94640000Y-45310000D03*
X49750000Y-47430000D03*
X65500000Y-47650000D03*
X71445000Y-41340000D03*
X93080000Y-58760000D03*
X92850000Y-46010000D03*
X64895000Y-56580000D03*
X46640000Y-61210000D03*
X63860000Y-56580000D03*
X59930000Y-51840000D03*
X104320000Y-68780000D03*
X46920000Y-47430000D03*
X71810000Y-53100000D03*
X94440000Y-32530000D03*
X94450000Y-67910000D03*
X48790000Y-47420000D03*
X46820000Y-36640000D03*
X52010000Y-64750000D03*
X48720000Y-43780000D03*
X103720000Y-42770000D03*
X93040000Y-33700000D03*
X92900000Y-47320000D03*
X83330000Y-44100000D03*
X108970000Y-55760000D03*
X64840000Y-41160000D03*
X62550000Y-43220000D03*
X47334000Y-51835000D03*
X88610000Y-58480000D03*
X94060000Y-33670000D03*
X92830000Y-48460000D03*
X63860000Y-57610000D03*
X74250000Y-48120000D03*
X91300000Y-68210000D03*
X71880000Y-49888000D03*
X47760000Y-38460000D03*
X75070000Y-60760000D03*
X48190000Y-45600000D03*
X46770000Y-34830000D03*
X72600000Y-49080000D03*
X63860000Y-55550000D03*
X94090000Y-58710000D03*
X75760000Y-55480000D03*
X64300000Y-46300000D03*
X93930000Y-47330000D03*
X70470000Y-59310000D03*
X85570000Y-49990000D03*
X59170000Y-66750000D03*
X48710000Y-38460000D03*
X93920000Y-49340000D03*
X80810412Y-57816421D03*
X69090000Y-51970000D03*
X47319000Y-50535000D03*
X49680000Y-43790000D03*
X102580000Y-43780000D03*
X57940000Y-46140000D03*
X93040000Y-36210000D03*
X46840000Y-38470000D03*
X56610000Y-59520000D03*
X71350000Y-58775000D03*
X81326523Y-49113095D03*
X91470000Y-66440000D03*
X64895000Y-57610000D03*
X75150000Y-61850000D03*
X83302000Y-45620000D03*
X69790000Y-51250000D03*
X58200000Y-41550000D03*
X92170000Y-34970000D03*
X70970000Y-44180000D03*
X72060000Y-51840000D03*
X46850000Y-43790000D03*
X48110000Y-36640000D03*
X91630000Y-58720000D03*
X91600000Y-60920000D03*
X71160000Y-35610000D03*
X104290000Y-67800000D03*
X93050000Y-60950000D03*
X56950000Y-66850000D03*
X46900000Y-45600000D03*
X47840000Y-47420000D03*
X70440000Y-67330000D03*
X93070000Y-59850000D03*
X94030000Y-59850000D03*
X108970000Y-43320000D03*
X80540000Y-54760000D03*
X62640000Y-48000000D03*
X59520000Y-56704674D03*
X86390000Y-49170000D03*
X59475000Y-52700000D03*
X94023579Y-60885519D03*
X71770000Y-46190000D03*
X47690000Y-34820000D03*
X71035000Y-42285000D03*
X84510000Y-43760000D03*
X78118314Y-41379590D03*
X89454966Y-46410000D03*
X90758966Y-47560000D03*
X79965789Y-41251883D03*
X90030000Y-40950000D03*
X89700000Y-37730000D03*
X79038994Y-41271503D03*
X79930000Y-44838777D03*
X89454966Y-44960000D03*
X88940000Y-40360000D03*
X86890000Y-37098000D03*
X80890000Y-41180000D03*
X81530000Y-45680000D03*
G04 #@! TA.AperFunction,Conductor*
G36*
X109345063Y-32019698D02*
G01*
X109390826Y-32072495D01*
X109402040Y-32123878D01*
X109431679Y-57234511D01*
X109431679Y-57234673D01*
X109430016Y-69876035D01*
X109410323Y-69943072D01*
X109357513Y-69988820D01*
X109306036Y-70000019D01*
X77504614Y-70005031D01*
X46245553Y-70009957D01*
X46178512Y-69990284D01*
X46132749Y-69937487D01*
X46121535Y-69886072D01*
X46121526Y-69876035D01*
X46117401Y-65385000D01*
X56549341Y-65385000D01*
X56569936Y-65620403D01*
X56569938Y-65620413D01*
X56631094Y-65848655D01*
X56631096Y-65848659D01*
X56631097Y-65848663D01*
X56711004Y-66020023D01*
X56730965Y-66062830D01*
X56730967Y-66062834D01*
X56829064Y-66202930D01*
X56866505Y-66256401D01*
X57033599Y-66423495D01*
X57130384Y-66491265D01*
X57227165Y-66559032D01*
X57227167Y-66559033D01*
X57227170Y-66559035D01*
X57441337Y-66658903D01*
X57669592Y-66720063D01*
X57846034Y-66735500D01*
X57904999Y-66740659D01*
X57905000Y-66740659D01*
X57905001Y-66740659D01*
X57963966Y-66735500D01*
X58140408Y-66720063D01*
X58368663Y-66658903D01*
X58582830Y-66559035D01*
X58776401Y-66423495D01*
X58943495Y-66256401D01*
X59073425Y-66070842D01*
X59128002Y-66027217D01*
X59197500Y-66020023D01*
X59259855Y-66051546D01*
X59276575Y-66070842D01*
X59406500Y-66256395D01*
X59406505Y-66256401D01*
X59573599Y-66423495D01*
X59670384Y-66491265D01*
X59767165Y-66559032D01*
X59767167Y-66559033D01*
X59767170Y-66559035D01*
X59981337Y-66658903D01*
X60209592Y-66720063D01*
X60386034Y-66735500D01*
X60444999Y-66740659D01*
X60445000Y-66740659D01*
X60445001Y-66740659D01*
X60503966Y-66735500D01*
X60680408Y-66720063D01*
X60908663Y-66658903D01*
X61122830Y-66559035D01*
X61316401Y-66423495D01*
X61483495Y-66256401D01*
X61613425Y-66070842D01*
X61668002Y-66027217D01*
X61737500Y-66020023D01*
X61799855Y-66051546D01*
X61816575Y-66070842D01*
X61946500Y-66256395D01*
X61946505Y-66256401D01*
X62113599Y-66423495D01*
X62210384Y-66491265D01*
X62307165Y-66559032D01*
X62307167Y-66559033D01*
X62307170Y-66559035D01*
X62521337Y-66658903D01*
X62749592Y-66720063D01*
X62926034Y-66735500D01*
X62984999Y-66740659D01*
X62985000Y-66740659D01*
X62985001Y-66740659D01*
X63043966Y-66735500D01*
X63220408Y-66720063D01*
X63448663Y-66658903D01*
X63662830Y-66559035D01*
X63856401Y-66423495D01*
X64023495Y-66256401D01*
X64153425Y-66070842D01*
X64208002Y-66027217D01*
X64277500Y-66020023D01*
X64339855Y-66051546D01*
X64356575Y-66070842D01*
X64486500Y-66256395D01*
X64486505Y-66256401D01*
X64653599Y-66423495D01*
X64750384Y-66491265D01*
X64847165Y-66559032D01*
X64847167Y-66559033D01*
X64847170Y-66559035D01*
X65061337Y-66658903D01*
X65289592Y-66720063D01*
X65466034Y-66735500D01*
X65524999Y-66740659D01*
X65525000Y-66740659D01*
X65525001Y-66740659D01*
X65583966Y-66735500D01*
X65760408Y-66720063D01*
X65988663Y-66658903D01*
X66202830Y-66559035D01*
X66396401Y-66423495D01*
X66518329Y-66301566D01*
X66579648Y-66268084D01*
X66649340Y-66273068D01*
X66705274Y-66314939D01*
X66722189Y-66345917D01*
X66771202Y-66477328D01*
X66771206Y-66477335D01*
X66857452Y-66592544D01*
X66857455Y-66592547D01*
X66972664Y-66678793D01*
X66972671Y-66678797D01*
X67104081Y-66727810D01*
X67160015Y-66769681D01*
X67184432Y-66835145D01*
X67169580Y-66903418D01*
X67148430Y-66931673D01*
X67026503Y-67053600D01*
X66890965Y-67247169D01*
X66890964Y-67247171D01*
X66791098Y-67461335D01*
X66791094Y-67461344D01*
X66729938Y-67689586D01*
X66729936Y-67689596D01*
X66709341Y-67924999D01*
X66709341Y-67925000D01*
X66729936Y-68160403D01*
X66729938Y-68160413D01*
X66791094Y-68388655D01*
X66791096Y-68388659D01*
X66791097Y-68388663D01*
X66836031Y-68485023D01*
X66890965Y-68602830D01*
X66890967Y-68602834D01*
X66973985Y-68721395D01*
X67026505Y-68796401D01*
X67193599Y-68963495D01*
X67280055Y-69024032D01*
X67387165Y-69099032D01*
X67387167Y-69099033D01*
X67387170Y-69099035D01*
X67601337Y-69198903D01*
X67601343Y-69198904D01*
X67601344Y-69198905D01*
X67607293Y-69200499D01*
X67829592Y-69260063D01*
X68017918Y-69276539D01*
X68064999Y-69280659D01*
X68065000Y-69280659D01*
X68065001Y-69280659D01*
X68104234Y-69277226D01*
X68268324Y-69262870D01*
X106494500Y-69262870D01*
X106494501Y-69262876D01*
X106500908Y-69322483D01*
X106551202Y-69457328D01*
X106551206Y-69457335D01*
X106637452Y-69572544D01*
X106637455Y-69572547D01*
X106752664Y-69658793D01*
X106752671Y-69658797D01*
X106887517Y-69709091D01*
X106887516Y-69709091D01*
X106894444Y-69709835D01*
X106947127Y-69715500D01*
X107892872Y-69715499D01*
X107952483Y-69709091D01*
X108087331Y-69658796D01*
X108202546Y-69572546D01*
X108288796Y-69457331D01*
X108339091Y-69322483D01*
X108345500Y-69262873D01*
X108345499Y-68317128D01*
X108339091Y-68257517D01*
X108288796Y-68122669D01*
X108288795Y-68122668D01*
X108288793Y-68122664D01*
X108202547Y-68007455D01*
X108202544Y-68007452D01*
X108087335Y-67921206D01*
X108087328Y-67921202D01*
X107952482Y-67870908D01*
X107952483Y-67870908D01*
X107892883Y-67864501D01*
X107892881Y-67864500D01*
X107892873Y-67864500D01*
X107892864Y-67864500D01*
X106947129Y-67864500D01*
X106947123Y-67864501D01*
X106887516Y-67870908D01*
X106752671Y-67921202D01*
X106752664Y-67921206D01*
X106637455Y-68007452D01*
X106637452Y-68007455D01*
X106551206Y-68122664D01*
X106551202Y-68122671D01*
X106500908Y-68257517D01*
X106494873Y-68313655D01*
X106494501Y-68317123D01*
X106494500Y-68317135D01*
X106494500Y-69262870D01*
X68268324Y-69262870D01*
X68300408Y-69260063D01*
X68528663Y-69198903D01*
X68742830Y-69099035D01*
X68936401Y-68963495D01*
X69103495Y-68796401D01*
X69239035Y-68602830D01*
X69338903Y-68388663D01*
X69400063Y-68160408D01*
X69420659Y-67925000D01*
X69414097Y-67850000D01*
X72944341Y-67850000D01*
X72964936Y-68085403D01*
X72964938Y-68085413D01*
X73026094Y-68313655D01*
X73026096Y-68313659D01*
X73026097Y-68313663D01*
X73061071Y-68388664D01*
X73125965Y-68527830D01*
X73125967Y-68527834D01*
X73178483Y-68602834D01*
X73261505Y-68721401D01*
X73428599Y-68888495D01*
X73525384Y-68956265D01*
X73622165Y-69024032D01*
X73622167Y-69024033D01*
X73622170Y-69024035D01*
X73836337Y-69123903D01*
X74064592Y-69185063D01*
X74241034Y-69200500D01*
X74299999Y-69205659D01*
X74300000Y-69205659D01*
X74300001Y-69205659D01*
X74358966Y-69200500D01*
X74535408Y-69185063D01*
X74763663Y-69123903D01*
X74977830Y-69024035D01*
X75171401Y-68888495D01*
X75338495Y-68721401D01*
X75468425Y-68535842D01*
X75523002Y-68492217D01*
X75592500Y-68485023D01*
X75654855Y-68516546D01*
X75671575Y-68535842D01*
X75801500Y-68721395D01*
X75801505Y-68721401D01*
X75968599Y-68888495D01*
X76065384Y-68956265D01*
X76162165Y-69024032D01*
X76162167Y-69024033D01*
X76162170Y-69024035D01*
X76376337Y-69123903D01*
X76604592Y-69185063D01*
X76781034Y-69200500D01*
X76839999Y-69205659D01*
X76840000Y-69205659D01*
X76840001Y-69205659D01*
X76898966Y-69200500D01*
X77075408Y-69185063D01*
X77303663Y-69123903D01*
X77517830Y-69024035D01*
X77711401Y-68888495D01*
X77878495Y-68721401D01*
X78008425Y-68535842D01*
X78063002Y-68492217D01*
X78132500Y-68485023D01*
X78194855Y-68516546D01*
X78211575Y-68535842D01*
X78341500Y-68721395D01*
X78341505Y-68721401D01*
X78508599Y-68888495D01*
X78605384Y-68956265D01*
X78702165Y-69024032D01*
X78702167Y-69024033D01*
X78702170Y-69024035D01*
X78916337Y-69123903D01*
X79144592Y-69185063D01*
X79321034Y-69200500D01*
X79379999Y-69205659D01*
X79380000Y-69205659D01*
X79380001Y-69205659D01*
X79438966Y-69200500D01*
X79615408Y-69185063D01*
X79843663Y-69123903D01*
X80057830Y-69024035D01*
X80251401Y-68888495D01*
X80418495Y-68721401D01*
X80548425Y-68535842D01*
X80603002Y-68492217D01*
X80672500Y-68485023D01*
X80734855Y-68516546D01*
X80751575Y-68535842D01*
X80881500Y-68721395D01*
X80881505Y-68721401D01*
X81048599Y-68888495D01*
X81145384Y-68956265D01*
X81242165Y-69024032D01*
X81242167Y-69024033D01*
X81242170Y-69024035D01*
X81456337Y-69123903D01*
X81684592Y-69185063D01*
X81861034Y-69200500D01*
X81919999Y-69205659D01*
X81920000Y-69205659D01*
X81920001Y-69205659D01*
X81978966Y-69200500D01*
X82155408Y-69185063D01*
X82383663Y-69123903D01*
X82597830Y-69024035D01*
X82791401Y-68888495D01*
X82913329Y-68766566D01*
X82974648Y-68733084D01*
X83044340Y-68738068D01*
X83100274Y-68779939D01*
X83117189Y-68810917D01*
X83166202Y-68942328D01*
X83166206Y-68942335D01*
X83252452Y-69057544D01*
X83252455Y-69057547D01*
X83367664Y-69143793D01*
X83367671Y-69143797D01*
X83502517Y-69194091D01*
X83502516Y-69194091D01*
X83509444Y-69194835D01*
X83562127Y-69200500D01*
X85357872Y-69200499D01*
X85417483Y-69194091D01*
X85552331Y-69143796D01*
X85667546Y-69057546D01*
X85753796Y-68942331D01*
X85804091Y-68807483D01*
X85810500Y-68747873D01*
X85810499Y-67420000D01*
X89494355Y-67420000D01*
X89514859Y-67588869D01*
X89514860Y-67588874D01*
X89575182Y-67747931D01*
X89637475Y-67838177D01*
X89671817Y-67887929D01*
X89713661Y-67924999D01*
X89799150Y-68000736D01*
X89949773Y-68079789D01*
X89949775Y-68079790D01*
X90114944Y-68120500D01*
X90285056Y-68120500D01*
X90450225Y-68079790D01*
X90529692Y-68038081D01*
X90600849Y-68000736D01*
X90600850Y-68000734D01*
X90600852Y-68000734D01*
X90728183Y-67887929D01*
X90824818Y-67747930D01*
X90885140Y-67588872D01*
X90905645Y-67420000D01*
X90885140Y-67251128D01*
X90824818Y-67092070D01*
X90728183Y-66952071D01*
X90600852Y-66839266D01*
X90600849Y-66839263D01*
X90450226Y-66760210D01*
X90285056Y-66719500D01*
X90114944Y-66719500D01*
X89949773Y-66760210D01*
X89799150Y-66839263D01*
X89692858Y-66933430D01*
X89679781Y-66945016D01*
X89671816Y-66952072D01*
X89575182Y-67092068D01*
X89514860Y-67251125D01*
X89514859Y-67251130D01*
X89494355Y-67420000D01*
X85810499Y-67420000D01*
X85810499Y-66952128D01*
X85804091Y-66892517D01*
X85802810Y-66889083D01*
X85753797Y-66757671D01*
X85753793Y-66757664D01*
X85667547Y-66642455D01*
X85667544Y-66642452D01*
X85552335Y-66556206D01*
X85552328Y-66556202D01*
X85417482Y-66505908D01*
X85417483Y-66505908D01*
X85357883Y-66499501D01*
X85357881Y-66499500D01*
X85357873Y-66499500D01*
X85357864Y-66499500D01*
X83562129Y-66499500D01*
X83562123Y-66499501D01*
X83502516Y-66505908D01*
X83367671Y-66556202D01*
X83367664Y-66556206D01*
X83252455Y-66642452D01*
X83252452Y-66642455D01*
X83166206Y-66757664D01*
X83166203Y-66757669D01*
X83117189Y-66889083D01*
X83075317Y-66945016D01*
X83009853Y-66969433D01*
X82941580Y-66954581D01*
X82913326Y-66933430D01*
X82791402Y-66811506D01*
X82791395Y-66811501D01*
X82597834Y-66675967D01*
X82597830Y-66675965D01*
X82561245Y-66658905D01*
X82383663Y-66576097D01*
X82383659Y-66576096D01*
X82383655Y-66576094D01*
X82155413Y-66514938D01*
X82155403Y-66514936D01*
X81920001Y-66494341D01*
X81919999Y-66494341D01*
X81684596Y-66514936D01*
X81684586Y-66514938D01*
X81456344Y-66576094D01*
X81456335Y-66576098D01*
X81242171Y-66675964D01*
X81242169Y-66675965D01*
X81048597Y-66811505D01*
X80881505Y-66978597D01*
X80751575Y-67164158D01*
X80696998Y-67207783D01*
X80627500Y-67214977D01*
X80565145Y-67183454D01*
X80548425Y-67164158D01*
X80418494Y-66978597D01*
X80251402Y-66811506D01*
X80251395Y-66811501D01*
X80057834Y-66675967D01*
X80057830Y-66675965D01*
X80021245Y-66658905D01*
X79843663Y-66576097D01*
X79843659Y-66576096D01*
X79843655Y-66576094D01*
X79615413Y-66514938D01*
X79615403Y-66514936D01*
X79380001Y-66494341D01*
X79379999Y-66494341D01*
X79144596Y-66514936D01*
X79144586Y-66514938D01*
X78916344Y-66576094D01*
X78916335Y-66576098D01*
X78702171Y-66675964D01*
X78702169Y-66675965D01*
X78508597Y-66811505D01*
X78341505Y-66978597D01*
X78211575Y-67164158D01*
X78156998Y-67207783D01*
X78087500Y-67214977D01*
X78025145Y-67183454D01*
X78008425Y-67164158D01*
X77878494Y-66978597D01*
X77711402Y-66811506D01*
X77711395Y-66811501D01*
X77517834Y-66675967D01*
X77517830Y-66675965D01*
X77481245Y-66658905D01*
X77303663Y-66576097D01*
X77303659Y-66576096D01*
X77303655Y-66576094D01*
X77075413Y-66514938D01*
X77075403Y-66514936D01*
X76840001Y-66494341D01*
X76839999Y-66494341D01*
X76604596Y-66514936D01*
X76604586Y-66514938D01*
X76376344Y-66576094D01*
X76376335Y-66576098D01*
X76162171Y-66675964D01*
X76162169Y-66675965D01*
X75968597Y-66811505D01*
X75801505Y-66978597D01*
X75671575Y-67164158D01*
X75616998Y-67207783D01*
X75547500Y-67214977D01*
X75485145Y-67183454D01*
X75468425Y-67164158D01*
X75338494Y-66978597D01*
X75171402Y-66811506D01*
X75171395Y-66811501D01*
X74977834Y-66675967D01*
X74977830Y-66675965D01*
X74941245Y-66658905D01*
X74763663Y-66576097D01*
X74763659Y-66576096D01*
X74763655Y-66576094D01*
X74535413Y-66514938D01*
X74535403Y-66514936D01*
X74300001Y-66494341D01*
X74299999Y-66494341D01*
X74064596Y-66514936D01*
X74064586Y-66514938D01*
X73836344Y-66576094D01*
X73836335Y-66576098D01*
X73622171Y-66675964D01*
X73622169Y-66675965D01*
X73428597Y-66811505D01*
X73261505Y-66978597D01*
X73125965Y-67172169D01*
X73125964Y-67172171D01*
X73026098Y-67386335D01*
X73026094Y-67386344D01*
X72964938Y-67614586D01*
X72964936Y-67614596D01*
X72944341Y-67849999D01*
X72944341Y-67850000D01*
X69414097Y-67850000D01*
X69400063Y-67689592D01*
X69338903Y-67461337D01*
X69239035Y-67247171D01*
X69211455Y-67207783D01*
X69103496Y-67053600D01*
X69103495Y-67053599D01*
X68981567Y-66931671D01*
X68948084Y-66870351D01*
X68953068Y-66800659D01*
X68994939Y-66744725D01*
X69025915Y-66727810D01*
X69157331Y-66678796D01*
X69272546Y-66592546D01*
X69358796Y-66477331D01*
X69409091Y-66342483D01*
X69415500Y-66282873D01*
X69415500Y-65875000D01*
X93584355Y-65875000D01*
X93604859Y-66043869D01*
X93604860Y-66043874D01*
X93665182Y-66202931D01*
X93702091Y-66256402D01*
X93761817Y-66342929D01*
X93852755Y-66423493D01*
X93889150Y-66455736D01*
X94039773Y-66534789D01*
X94039775Y-66534790D01*
X94204944Y-66575500D01*
X94375056Y-66575500D01*
X94540225Y-66534790D01*
X94619692Y-66493081D01*
X94690849Y-66455736D01*
X94690850Y-66455734D01*
X94690852Y-66455734D01*
X94818183Y-66342929D01*
X94914818Y-66202930D01*
X94975140Y-66043872D01*
X94995645Y-65875000D01*
X94975140Y-65706128D01*
X94914818Y-65547070D01*
X94818183Y-65407071D01*
X94690852Y-65294266D01*
X94690849Y-65294263D01*
X94540226Y-65215210D01*
X94375056Y-65174500D01*
X94204944Y-65174500D01*
X94039773Y-65215210D01*
X93889150Y-65294263D01*
X93761816Y-65407072D01*
X93665182Y-65547068D01*
X93604860Y-65706125D01*
X93604859Y-65706130D01*
X93584355Y-65875000D01*
X69415500Y-65875000D01*
X69415499Y-64865306D01*
X69435184Y-64798268D01*
X69487987Y-64752513D01*
X69557146Y-64742569D01*
X69620702Y-64771594D01*
X69655441Y-64821336D01*
X69662682Y-64840431D01*
X69679853Y-64865307D01*
X69759317Y-64980429D01*
X69865005Y-65074060D01*
X69886650Y-65093236D01*
X70037273Y-65172289D01*
X70037275Y-65172290D01*
X70202444Y-65213000D01*
X70372556Y-65213000D01*
X70537725Y-65172290D01*
X70617192Y-65130581D01*
X70688349Y-65093236D01*
X70688350Y-65093234D01*
X70688352Y-65093234D01*
X70815683Y-64980429D01*
X70912318Y-64840430D01*
X70972640Y-64681372D01*
X70993145Y-64512500D01*
X70972640Y-64343628D01*
X70912318Y-64184570D01*
X70901482Y-64168872D01*
X70877976Y-64134818D01*
X70815683Y-64044571D01*
X70765373Y-64000000D01*
X89594355Y-64000000D01*
X89614859Y-64168869D01*
X89614860Y-64168874D01*
X89675182Y-64327931D01*
X89717742Y-64389588D01*
X89771817Y-64467929D01*
X89877505Y-64561560D01*
X89899150Y-64580736D01*
X90049773Y-64659789D01*
X90049775Y-64659790D01*
X90214944Y-64700500D01*
X90385056Y-64700500D01*
X90550225Y-64659790D01*
X90629692Y-64618081D01*
X90700849Y-64580736D01*
X90700850Y-64580734D01*
X90700852Y-64580734D01*
X90828183Y-64467929D01*
X90924818Y-64327930D01*
X90985140Y-64168872D01*
X91005645Y-64000000D01*
X90985140Y-63831128D01*
X90924818Y-63672070D01*
X90828183Y-63532071D01*
X90700852Y-63419266D01*
X90700849Y-63419263D01*
X90550226Y-63340210D01*
X90385056Y-63299500D01*
X90214944Y-63299500D01*
X90049773Y-63340210D01*
X89899150Y-63419263D01*
X89771816Y-63532072D01*
X89675182Y-63672068D01*
X89614860Y-63831125D01*
X89614859Y-63831130D01*
X89594355Y-64000000D01*
X70765373Y-64000000D01*
X70688352Y-63931766D01*
X70688349Y-63931763D01*
X70537726Y-63852710D01*
X70372556Y-63812000D01*
X70202444Y-63812000D01*
X70037273Y-63852710D01*
X69886650Y-63931763D01*
X69759316Y-64044572D01*
X69662682Y-64184568D01*
X69606055Y-64333885D01*
X69563877Y-64389588D01*
X69498280Y-64413645D01*
X69430090Y-64398418D01*
X69380956Y-64348742D01*
X69373931Y-64333247D01*
X69358797Y-64292671D01*
X69358793Y-64292664D01*
X69272547Y-64177455D01*
X69272544Y-64177452D01*
X69157335Y-64091206D01*
X69157328Y-64091202D01*
X69022482Y-64040908D01*
X69022483Y-64040908D01*
X68962883Y-64034501D01*
X68962881Y-64034500D01*
X68962873Y-64034500D01*
X68962864Y-64034500D01*
X67167129Y-64034500D01*
X67167123Y-64034501D01*
X67107516Y-64040908D01*
X66972671Y-64091202D01*
X66972664Y-64091206D01*
X66857455Y-64177452D01*
X66857452Y-64177455D01*
X66771206Y-64292664D01*
X66771203Y-64292669D01*
X66722189Y-64424083D01*
X66680317Y-64480016D01*
X66614853Y-64504433D01*
X66546580Y-64489581D01*
X66518326Y-64468430D01*
X66396402Y-64346506D01*
X66396395Y-64346501D01*
X66377466Y-64333247D01*
X66319518Y-64292671D01*
X66202834Y-64210967D01*
X66202830Y-64210965D01*
X66146226Y-64184570D01*
X65988663Y-64111097D01*
X65988659Y-64111096D01*
X65988655Y-64111094D01*
X65760413Y-64049938D01*
X65760403Y-64049936D01*
X65525001Y-64029341D01*
X65524999Y-64029341D01*
X65289596Y-64049936D01*
X65289586Y-64049938D01*
X65061344Y-64111094D01*
X65061335Y-64111098D01*
X64847171Y-64210964D01*
X64847169Y-64210965D01*
X64653597Y-64346505D01*
X64486505Y-64513597D01*
X64356575Y-64699158D01*
X64301998Y-64742783D01*
X64232500Y-64749977D01*
X64170145Y-64718454D01*
X64153425Y-64699158D01*
X64023494Y-64513597D01*
X63856402Y-64346506D01*
X63856395Y-64346501D01*
X63837466Y-64333247D01*
X63779518Y-64292671D01*
X63662834Y-64210967D01*
X63662830Y-64210965D01*
X63606226Y-64184570D01*
X63448663Y-64111097D01*
X63448659Y-64111096D01*
X63448655Y-64111094D01*
X63220413Y-64049938D01*
X63220403Y-64049936D01*
X62985001Y-64029341D01*
X62984999Y-64029341D01*
X62749596Y-64049936D01*
X62749586Y-64049938D01*
X62521344Y-64111094D01*
X62521335Y-64111098D01*
X62307171Y-64210964D01*
X62307169Y-64210965D01*
X62113597Y-64346505D01*
X61946505Y-64513597D01*
X61816575Y-64699158D01*
X61761998Y-64742783D01*
X61692500Y-64749977D01*
X61630145Y-64718454D01*
X61613425Y-64699158D01*
X61483494Y-64513597D01*
X61316402Y-64346506D01*
X61316395Y-64346501D01*
X61297466Y-64333247D01*
X61239518Y-64292671D01*
X61122834Y-64210967D01*
X61122830Y-64210965D01*
X61066226Y-64184570D01*
X60908663Y-64111097D01*
X60908659Y-64111096D01*
X60908655Y-64111094D01*
X60680413Y-64049938D01*
X60680403Y-64049936D01*
X60445001Y-64029341D01*
X60444999Y-64029341D01*
X60209596Y-64049936D01*
X60209586Y-64049938D01*
X59981344Y-64111094D01*
X59981335Y-64111098D01*
X59767171Y-64210964D01*
X59767169Y-64210965D01*
X59573597Y-64346505D01*
X59406505Y-64513597D01*
X59276575Y-64699158D01*
X59221998Y-64742783D01*
X59152500Y-64749977D01*
X59090145Y-64718454D01*
X59073425Y-64699158D01*
X58943494Y-64513597D01*
X58776402Y-64346506D01*
X58776395Y-64346501D01*
X58757466Y-64333247D01*
X58699518Y-64292671D01*
X58582834Y-64210967D01*
X58582830Y-64210965D01*
X58526226Y-64184570D01*
X58368663Y-64111097D01*
X58368659Y-64111096D01*
X58368655Y-64111094D01*
X58140413Y-64049938D01*
X58140403Y-64049936D01*
X57905001Y-64029341D01*
X57904999Y-64029341D01*
X57669596Y-64049936D01*
X57669586Y-64049938D01*
X57441344Y-64111094D01*
X57441335Y-64111098D01*
X57227171Y-64210964D01*
X57227169Y-64210965D01*
X57033597Y-64346505D01*
X56866505Y-64513597D01*
X56730965Y-64707169D01*
X56730964Y-64707171D01*
X56631098Y-64921335D01*
X56631094Y-64921344D01*
X56569938Y-65149586D01*
X56569936Y-65149596D01*
X56549341Y-65384999D01*
X56549341Y-65385000D01*
X46117401Y-65385000D01*
X46114834Y-62590000D01*
X63564355Y-62590000D01*
X63584859Y-62758869D01*
X63584860Y-62758874D01*
X63645182Y-62917931D01*
X63707475Y-63008177D01*
X63741817Y-63057929D01*
X63847505Y-63151560D01*
X63869150Y-63170736D01*
X64018207Y-63248967D01*
X64019775Y-63249790D01*
X64184944Y-63290500D01*
X64355056Y-63290500D01*
X64520225Y-63249790D01*
X64599692Y-63208081D01*
X64670849Y-63170736D01*
X64670850Y-63170734D01*
X64670852Y-63170734D01*
X64798183Y-63057929D01*
X64894818Y-62917930D01*
X64939541Y-62800005D01*
X100517277Y-62800005D01*
X100536134Y-63027580D01*
X100536136Y-63027592D01*
X100592196Y-63248967D01*
X100683930Y-63458102D01*
X100808834Y-63649283D01*
X100808837Y-63649286D01*
X100963507Y-63817302D01*
X101143722Y-63957569D01*
X101344566Y-64066261D01*
X101560562Y-64140412D01*
X101785816Y-64178000D01*
X102014184Y-64178000D01*
X102239438Y-64140412D01*
X102455434Y-64066261D01*
X102656278Y-63957569D01*
X102836493Y-63817302D01*
X102991163Y-63649286D01*
X103116069Y-63458103D01*
X103207803Y-63248969D01*
X103263864Y-63027589D01*
X103282723Y-62800000D01*
X103279315Y-62758874D01*
X103263865Y-62572419D01*
X103263863Y-62572407D01*
X103227987Y-62430736D01*
X103207803Y-62351031D01*
X103116069Y-62141897D01*
X103103116Y-62122071D01*
X102991165Y-61950716D01*
X102934811Y-61889500D01*
X102836493Y-61782698D01*
X102656278Y-61642431D01*
X102656276Y-61642430D01*
X102656275Y-61642429D01*
X102455435Y-61533739D01*
X102455430Y-61533737D01*
X102239440Y-61459588D01*
X102014184Y-61422000D01*
X101785816Y-61422000D01*
X101560559Y-61459588D01*
X101344569Y-61533737D01*
X101344564Y-61533739D01*
X101143724Y-61642429D01*
X100963508Y-61782697D01*
X100808834Y-61950716D01*
X100683930Y-62141897D01*
X100592196Y-62351032D01*
X100536136Y-62572407D01*
X100536134Y-62572419D01*
X100517277Y-62799994D01*
X100517277Y-62800005D01*
X64939541Y-62800005D01*
X64955140Y-62758872D01*
X64975645Y-62590000D01*
X64955140Y-62421128D01*
X64894818Y-62262070D01*
X64798183Y-62122071D01*
X64670852Y-62009266D01*
X64670849Y-62009263D01*
X64520226Y-61930210D01*
X64355056Y-61889500D01*
X64184944Y-61889500D01*
X64019773Y-61930210D01*
X63869150Y-62009263D01*
X63741816Y-62122072D01*
X63645182Y-62262068D01*
X63584860Y-62421125D01*
X63584859Y-62421130D01*
X63564355Y-62590000D01*
X46114834Y-62590000D01*
X46114154Y-61850000D01*
X56982855Y-61850000D01*
X57003359Y-62018869D01*
X57003360Y-62018874D01*
X57063682Y-62177931D01*
X57121759Y-62262068D01*
X57160317Y-62317929D01*
X57266005Y-62411560D01*
X57287650Y-62430736D01*
X57438273Y-62509789D01*
X57438275Y-62509790D01*
X57603444Y-62550500D01*
X57773556Y-62550500D01*
X57938725Y-62509790D01*
X58018192Y-62468081D01*
X58089349Y-62430736D01*
X58089350Y-62430734D01*
X58089352Y-62430734D01*
X58216683Y-62317929D01*
X58313318Y-62177930D01*
X58373640Y-62018872D01*
X58394145Y-61850000D01*
X58373640Y-61681128D01*
X58313318Y-61522070D01*
X58282849Y-61477929D01*
X58280827Y-61475000D01*
X71369355Y-61475000D01*
X71389859Y-61643869D01*
X71389860Y-61643874D01*
X71450182Y-61802931D01*
X71482672Y-61850000D01*
X71546817Y-61942929D01*
X71632536Y-62018869D01*
X71674150Y-62055736D01*
X71800541Y-62122071D01*
X71824775Y-62134790D01*
X71989944Y-62175500D01*
X72160056Y-62175500D01*
X72325225Y-62134790D01*
X72404692Y-62093081D01*
X72475849Y-62055736D01*
X72475850Y-62055734D01*
X72475852Y-62055734D01*
X72603183Y-61942929D01*
X72699818Y-61802930D01*
X72760140Y-61643872D01*
X72780645Y-61475000D01*
X72760140Y-61306128D01*
X72699818Y-61147070D01*
X72680625Y-61119265D01*
X72638288Y-61057929D01*
X72603183Y-61007071D01*
X72503623Y-60918869D01*
X72475849Y-60894263D01*
X72325226Y-60815210D01*
X72160056Y-60774500D01*
X71989944Y-60774500D01*
X71824773Y-60815210D01*
X71674150Y-60894263D01*
X71546816Y-61007072D01*
X71450182Y-61147068D01*
X71389860Y-61306125D01*
X71389859Y-61306130D01*
X71369355Y-61475000D01*
X58280827Y-61475000D01*
X58235815Y-61409789D01*
X58216683Y-61382071D01*
X58089352Y-61269266D01*
X58089349Y-61269263D01*
X57938726Y-61190210D01*
X57773556Y-61149500D01*
X57603444Y-61149500D01*
X57438273Y-61190210D01*
X57287650Y-61269263D01*
X57160316Y-61382072D01*
X57063682Y-61522068D01*
X57003360Y-61681125D01*
X57003359Y-61681130D01*
X56982855Y-61850000D01*
X46114154Y-61850000D01*
X46110489Y-57860000D01*
X48474355Y-57860000D01*
X48494859Y-58028869D01*
X48494860Y-58028874D01*
X48555182Y-58187931D01*
X48562085Y-58197931D01*
X48651817Y-58327929D01*
X48750337Y-58415210D01*
X48779150Y-58440736D01*
X48929222Y-58519500D01*
X48929775Y-58519790D01*
X49094944Y-58560500D01*
X49265056Y-58560500D01*
X49343355Y-58541201D01*
X49413156Y-58544270D01*
X49470218Y-58584590D01*
X49476838Y-58593777D01*
X49558834Y-58719283D01*
X49558837Y-58719286D01*
X49713507Y-58887302D01*
X49748094Y-58914222D01*
X49893719Y-59027567D01*
X49893728Y-59027573D01*
X49908826Y-59035743D01*
X49958418Y-59084960D01*
X49973529Y-59153177D01*
X49965755Y-59188766D01*
X49964862Y-59191119D01*
X49964859Y-59191130D01*
X49944355Y-59360000D01*
X49964859Y-59528869D01*
X49964860Y-59528874D01*
X50025182Y-59687931D01*
X50064877Y-59745438D01*
X50121817Y-59827929D01*
X50205361Y-59901942D01*
X50249150Y-59940736D01*
X50399773Y-60019789D01*
X50399775Y-60019790D01*
X50564944Y-60060500D01*
X50735056Y-60060500D01*
X50900225Y-60019790D01*
X50995493Y-59969789D01*
X51050849Y-59940736D01*
X51050850Y-59940734D01*
X51050852Y-59940734D01*
X51178183Y-59827929D01*
X51274818Y-59687930D01*
X51318021Y-59574012D01*
X59042300Y-59574012D01*
X59062804Y-59742881D01*
X59062805Y-59742886D01*
X59123127Y-59901943D01*
X59184054Y-59990210D01*
X59219762Y-60041941D01*
X59347093Y-60154746D01*
X59490455Y-60229989D01*
X59540664Y-60278571D01*
X59556639Y-60346590D01*
X59555922Y-60354728D01*
X59544355Y-60449998D01*
X59544355Y-60449999D01*
X59564859Y-60618869D01*
X59564860Y-60618874D01*
X59625182Y-60777931D01*
X59668805Y-60841128D01*
X59721817Y-60917929D01*
X59791054Y-60979267D01*
X59849150Y-61030736D01*
X59939071Y-61077930D01*
X59999775Y-61109790D01*
X60164944Y-61150500D01*
X60335056Y-61150500D01*
X60500225Y-61109790D01*
X60599041Y-61057927D01*
X60650849Y-61030736D01*
X60650850Y-61030734D01*
X60650852Y-61030734D01*
X60778183Y-60917929D01*
X60874818Y-60777930D01*
X60917875Y-60664394D01*
X60960051Y-60608694D01*
X61025648Y-60584636D01*
X61093839Y-60599862D01*
X61142972Y-60649538D01*
X61156912Y-60693419D01*
X61164859Y-60758869D01*
X61164860Y-60758874D01*
X61225182Y-60917931D01*
X61266597Y-60977930D01*
X61321817Y-61057929D01*
X61422435Y-61147068D01*
X61449150Y-61170736D01*
X61599773Y-61249789D01*
X61599775Y-61249790D01*
X61764944Y-61290500D01*
X61935056Y-61290500D01*
X62100225Y-61249790D01*
X62235347Y-61178872D01*
X62250849Y-61170736D01*
X62250850Y-61170734D01*
X62250852Y-61170734D01*
X62378183Y-61057929D01*
X62474818Y-60917930D01*
X62493431Y-60868849D01*
X62535607Y-60813149D01*
X62601204Y-60789091D01*
X62669394Y-60804317D01*
X62718528Y-60853992D01*
X62725314Y-60868851D01*
X62766682Y-60977930D01*
X62766682Y-60977931D01*
X62821900Y-61057927D01*
X62863317Y-61117929D01*
X62969005Y-61211560D01*
X62990650Y-61230736D01*
X63137731Y-61307930D01*
X63141275Y-61309790D01*
X63306444Y-61350500D01*
X63476556Y-61350500D01*
X63641725Y-61309790D01*
X63792352Y-61230734D01*
X63792359Y-61230727D01*
X63792971Y-61230306D01*
X63793500Y-61230131D01*
X63798994Y-61227248D01*
X63799473Y-61228161D01*
X63859324Y-61208419D01*
X63926977Y-61225879D01*
X63933863Y-61230305D01*
X63936418Y-61232068D01*
X63936420Y-61232070D01*
X63936422Y-61232071D01*
X64084499Y-61309789D01*
X64087047Y-61311126D01*
X64252216Y-61351836D01*
X64422328Y-61351836D01*
X64587497Y-61311126D01*
X64704364Y-61249789D01*
X64738121Y-61232072D01*
X64738122Y-61232070D01*
X64738124Y-61232070D01*
X64865455Y-61119265D01*
X64962090Y-60979266D01*
X65022412Y-60820208D01*
X65030937Y-60750000D01*
X80994355Y-60750000D01*
X81014859Y-60918869D01*
X81014860Y-60918874D01*
X81075182Y-61077931D01*
X81125274Y-61150500D01*
X81171817Y-61217929D01*
X81271376Y-61306130D01*
X81299150Y-61330736D01*
X81396961Y-61382071D01*
X81449775Y-61409790D01*
X81614944Y-61450500D01*
X81785056Y-61450500D01*
X81950225Y-61409790D01*
X82060646Y-61351836D01*
X82100849Y-61330736D01*
X82100850Y-61330734D01*
X82100852Y-61330734D01*
X82228183Y-61217929D01*
X82324818Y-61077930D01*
X82350580Y-61010000D01*
X95844355Y-61010000D01*
X95864859Y-61178869D01*
X95864860Y-61178874D01*
X95925182Y-61337931D01*
X95955651Y-61382072D01*
X96021817Y-61477929D01*
X96084814Y-61533739D01*
X96149150Y-61590736D01*
X96299773Y-61669789D01*
X96299775Y-61669790D01*
X96464944Y-61710500D01*
X96635056Y-61710500D01*
X96800225Y-61669790D01*
X96871173Y-61632552D01*
X96950954Y-61590681D01*
X97019462Y-61576955D01*
X97066206Y-61590681D01*
X97066311Y-61590736D01*
X97159775Y-61639790D01*
X97324944Y-61680500D01*
X97495056Y-61680500D01*
X97660225Y-61639790D01*
X97753689Y-61590736D01*
X97810849Y-61560736D01*
X97810850Y-61560734D01*
X97810852Y-61560734D01*
X97938183Y-61447929D01*
X98034818Y-61307930D01*
X98095140Y-61148872D01*
X98115645Y-60980000D01*
X98095140Y-60811128D01*
X98034818Y-60652070D01*
X98034311Y-60651336D01*
X97958891Y-60542072D01*
X97938183Y-60512071D01*
X97841989Y-60426851D01*
X97810849Y-60399263D01*
X97660226Y-60320210D01*
X97495056Y-60279500D01*
X97324944Y-60279500D01*
X97159776Y-60320209D01*
X97009046Y-60399319D01*
X96940537Y-60413044D01*
X96893795Y-60399319D01*
X96800225Y-60350209D01*
X96635056Y-60309500D01*
X96464944Y-60309500D01*
X96299773Y-60350210D01*
X96149150Y-60429263D01*
X96021816Y-60542072D01*
X95925182Y-60682068D01*
X95864860Y-60841125D01*
X95864859Y-60841130D01*
X95844355Y-61010000D01*
X82350580Y-61010000D01*
X82385140Y-60918872D01*
X82405645Y-60750000D01*
X82385140Y-60581128D01*
X82324818Y-60422070D01*
X82309077Y-60399266D01*
X82275216Y-60350210D01*
X82228183Y-60282071D01*
X82100852Y-60169266D01*
X82100849Y-60169263D01*
X81963963Y-60097420D01*
X81913750Y-60048836D01*
X81897776Y-59980817D01*
X81921111Y-59914959D01*
X81963963Y-59877828D01*
X81973964Y-59872579D01*
X82110852Y-59800734D01*
X82238183Y-59687929D01*
X82334818Y-59547930D01*
X82395140Y-59388872D01*
X82405931Y-59300000D01*
X94994355Y-59300000D01*
X95014859Y-59468869D01*
X95014860Y-59468874D01*
X95075182Y-59627931D01*
X95116597Y-59687930D01*
X95171817Y-59767929D01*
X95277505Y-59861560D01*
X95299150Y-59880736D01*
X95449773Y-59959789D01*
X95449775Y-59959790D01*
X95614944Y-60000500D01*
X95785056Y-60000500D01*
X95950225Y-59959790D01*
X96018793Y-59923801D01*
X96087299Y-59910075D01*
X96134043Y-59923800D01*
X96259775Y-59989790D01*
X96424944Y-60030500D01*
X96595056Y-60030500D01*
X96760225Y-59989790D01*
X96906429Y-59913055D01*
X96974933Y-59899330D01*
X97021678Y-59913056D01*
X97110720Y-59959789D01*
X97129775Y-59969790D01*
X97294944Y-60010500D01*
X97465056Y-60010500D01*
X97630225Y-59969790D01*
X97734696Y-59914959D01*
X97780849Y-59890736D01*
X97780850Y-59890734D01*
X97780852Y-59890734D01*
X97908183Y-59777929D01*
X98004818Y-59637930D01*
X98065140Y-59478872D01*
X98085645Y-59310000D01*
X98065140Y-59141128D01*
X98004818Y-58982070D01*
X97986435Y-58955439D01*
X97964552Y-58889089D01*
X97982016Y-58821437D01*
X97986419Y-58814584D01*
X98004818Y-58787930D01*
X98065140Y-58628872D01*
X98085645Y-58460000D01*
X98065140Y-58291128D01*
X98004818Y-58132070D01*
X97908183Y-57992071D01*
X97780852Y-57879266D01*
X97780849Y-57879263D01*
X97630226Y-57800210D01*
X97465056Y-57759500D01*
X97294944Y-57759500D01*
X97129776Y-57800209D01*
X97007626Y-57864319D01*
X96939117Y-57878044D01*
X96892374Y-57864319D01*
X96770223Y-57800209D01*
X96605056Y-57759500D01*
X96434944Y-57759500D01*
X96269773Y-57800210D01*
X96172626Y-57851198D01*
X96104118Y-57864924D01*
X96057374Y-57851198D01*
X95960226Y-57800210D01*
X95795056Y-57759500D01*
X95624944Y-57759500D01*
X95459773Y-57800210D01*
X95309150Y-57879263D01*
X95181816Y-57992072D01*
X95085182Y-58132068D01*
X95024860Y-58291125D01*
X95024859Y-58291130D01*
X95004355Y-58460000D01*
X95024859Y-58628869D01*
X95024860Y-58628874D01*
X95085182Y-58787931D01*
X95085184Y-58787933D01*
X95095113Y-58802319D01*
X95116994Y-58868674D01*
X95099527Y-58936325D01*
X95095113Y-58943194D01*
X95075182Y-58972069D01*
X95014860Y-59131125D01*
X95014859Y-59131130D01*
X94994355Y-59300000D01*
X82405931Y-59300000D01*
X82415645Y-59220000D01*
X82395140Y-59051128D01*
X82334818Y-58892070D01*
X82332760Y-58889089D01*
X82281314Y-58814557D01*
X82238183Y-58752071D01*
X82110852Y-58639266D01*
X82110849Y-58639263D01*
X81960226Y-58560210D01*
X81795056Y-58519500D01*
X81624944Y-58519500D01*
X81459773Y-58560210D01*
X81309150Y-58639263D01*
X81181816Y-58752072D01*
X81085182Y-58892068D01*
X81024860Y-59051125D01*
X81024859Y-59051130D01*
X81004355Y-59220000D01*
X81024859Y-59388869D01*
X81024860Y-59388874D01*
X81085182Y-59547931D01*
X81103185Y-59574012D01*
X81181817Y-59687929D01*
X81309148Y-59800734D01*
X81442038Y-59870481D01*
X81446036Y-59872579D01*
X81496248Y-59921163D01*
X81512223Y-59989182D01*
X81488888Y-60055040D01*
X81446037Y-60092171D01*
X81299149Y-60169265D01*
X81299148Y-60169266D01*
X81172882Y-60281128D01*
X81171816Y-60282072D01*
X81075182Y-60422068D01*
X81014860Y-60581125D01*
X81014859Y-60581130D01*
X80994355Y-60750000D01*
X65030937Y-60750000D01*
X65042917Y-60651336D01*
X65022412Y-60482464D01*
X64962090Y-60323406D01*
X64959883Y-60320209D01*
X64927748Y-60273654D01*
X64865455Y-60183407D01*
X64763313Y-60092917D01*
X64738121Y-60070599D01*
X64587498Y-59991546D01*
X64422328Y-59950836D01*
X64252216Y-59950836D01*
X64087045Y-59991546D01*
X63936419Y-60070601D01*
X63935786Y-60071039D01*
X63935249Y-60071215D01*
X63929779Y-60074087D01*
X63929301Y-60073177D01*
X63869430Y-60092917D01*
X63801779Y-60075447D01*
X63794910Y-60071032D01*
X63792354Y-60069268D01*
X63792352Y-60069266D01*
X63792349Y-60069264D01*
X63792347Y-60069263D01*
X63641726Y-59990210D01*
X63476556Y-59949500D01*
X63306444Y-59949500D01*
X63141273Y-59990210D01*
X62990650Y-60069263D01*
X62863316Y-60182072D01*
X62766683Y-60322067D01*
X62748069Y-60371149D01*
X62705890Y-60426851D01*
X62640293Y-60450908D01*
X62572102Y-60435681D01*
X62522970Y-60386004D01*
X62516186Y-60371152D01*
X62474818Y-60262070D01*
X62468544Y-60252981D01*
X62419598Y-60182071D01*
X62378183Y-60122071D01*
X62250852Y-60009266D01*
X62250849Y-60009263D01*
X62100226Y-59930210D01*
X61935056Y-59889500D01*
X61764944Y-59889500D01*
X61599773Y-59930210D01*
X61449150Y-60009263D01*
X61355567Y-60092171D01*
X61321821Y-60122068D01*
X61321816Y-60122072D01*
X61225182Y-60262068D01*
X61225182Y-60262069D01*
X61182125Y-60375603D01*
X61139947Y-60431306D01*
X61074350Y-60455363D01*
X61006159Y-60440136D01*
X60957026Y-60390460D01*
X60943087Y-60346578D01*
X60935140Y-60281128D01*
X60874818Y-60122070D01*
X60852826Y-60090210D01*
X60824268Y-60048836D01*
X60778183Y-59982071D01*
X60675087Y-59890736D01*
X60650849Y-59869263D01*
X60507492Y-59794023D01*
X60457279Y-59745438D01*
X60441305Y-59677419D01*
X60442022Y-59669280D01*
X60453590Y-59574012D01*
X60433085Y-59405140D01*
X60426915Y-59388872D01*
X60372762Y-59246080D01*
X60334830Y-59191127D01*
X60276128Y-59106083D01*
X60235399Y-59070000D01*
X67504355Y-59070000D01*
X67524859Y-59238869D01*
X67524860Y-59238874D01*
X67585182Y-59397931D01*
X67641053Y-59478872D01*
X67681817Y-59537929D01*
X67783408Y-59627930D01*
X67809150Y-59650736D01*
X67959773Y-59729789D01*
X67959775Y-59729790D01*
X68124944Y-59770500D01*
X68295056Y-59770500D01*
X68460225Y-59729790D01*
X68601322Y-59655736D01*
X68610849Y-59650736D01*
X68610850Y-59650734D01*
X68610852Y-59650734D01*
X68738183Y-59537929D01*
X68834818Y-59397930D01*
X68895140Y-59238872D01*
X68915038Y-59075000D01*
X72219355Y-59075000D01*
X72239859Y-59243869D01*
X72239860Y-59243874D01*
X72300182Y-59402931D01*
X72345697Y-59468869D01*
X72396817Y-59542929D01*
X72431903Y-59574012D01*
X72524150Y-59655736D01*
X72665246Y-59729789D01*
X72674775Y-59734790D01*
X72839944Y-59775500D01*
X73010056Y-59775500D01*
X73175225Y-59734790D01*
X73254692Y-59693081D01*
X73325849Y-59655736D01*
X73325850Y-59655734D01*
X73325852Y-59655734D01*
X73453183Y-59542929D01*
X73549818Y-59402930D01*
X73610140Y-59243872D01*
X73630645Y-59075000D01*
X73610140Y-58906128D01*
X73603981Y-58889889D01*
X73565314Y-58787930D01*
X73549818Y-58747070D01*
X73546365Y-58742068D01*
X73495560Y-58668464D01*
X73453183Y-58607071D01*
X73325852Y-58494266D01*
X73325849Y-58494263D01*
X73175226Y-58415210D01*
X73010056Y-58374500D01*
X72839944Y-58374500D01*
X72674773Y-58415210D01*
X72524150Y-58494263D01*
X72396816Y-58607072D01*
X72300182Y-58747068D01*
X72239860Y-58906125D01*
X72239859Y-58906130D01*
X72219355Y-59075000D01*
X68915038Y-59075000D01*
X68915645Y-59070000D01*
X68895140Y-58901128D01*
X68834818Y-58742070D01*
X68812111Y-58709174D01*
X68763855Y-58639263D01*
X68738183Y-58602071D01*
X68616496Y-58494266D01*
X68610849Y-58489263D01*
X68460226Y-58410210D01*
X68295056Y-58369500D01*
X68124944Y-58369500D01*
X67959773Y-58410210D01*
X67809150Y-58489263D01*
X67681816Y-58602072D01*
X67585182Y-58742068D01*
X67524860Y-58901125D01*
X67524859Y-58901130D01*
X67504355Y-59070000D01*
X60235399Y-59070000D01*
X60148797Y-58993278D01*
X60108387Y-58972069D01*
X60014875Y-58922989D01*
X59964663Y-58874404D01*
X59948689Y-58806385D01*
X59972025Y-58740527D01*
X60027261Y-58697741D01*
X60042817Y-58692799D01*
X60141551Y-58668464D01*
X60197183Y-58639266D01*
X60292175Y-58589410D01*
X60292176Y-58589408D01*
X60292178Y-58589408D01*
X60419509Y-58476603D01*
X60516144Y-58336604D01*
X60576466Y-58177546D01*
X60596971Y-58008674D01*
X60576466Y-57839802D01*
X60516144Y-57680744D01*
X60505511Y-57665340D01*
X60452078Y-57587929D01*
X60419509Y-57540745D01*
X60292178Y-57427940D01*
X60292175Y-57427937D01*
X60141552Y-57348884D01*
X59976382Y-57308174D01*
X59806270Y-57308174D01*
X59641099Y-57348884D01*
X59490476Y-57427937D01*
X59363142Y-57540746D01*
X59266508Y-57680742D01*
X59206186Y-57839799D01*
X59206185Y-57839804D01*
X59185681Y-58008674D01*
X59206185Y-58177543D01*
X59206186Y-58177548D01*
X59266508Y-58336605D01*
X59292666Y-58374500D01*
X59363143Y-58476603D01*
X59468831Y-58570234D01*
X59490476Y-58589410D01*
X59624394Y-58659696D01*
X59674607Y-58708281D01*
X59690581Y-58776300D01*
X59667246Y-58842157D01*
X59612009Y-58884944D01*
X59596443Y-58889889D01*
X59497718Y-58914222D01*
X59347095Y-58993275D01*
X59219761Y-59106084D01*
X59123127Y-59246080D01*
X59062805Y-59405137D01*
X59062804Y-59405142D01*
X59042300Y-59574012D01*
X51318021Y-59574012D01*
X51335140Y-59528872D01*
X51355645Y-59360000D01*
X51335140Y-59191128D01*
X51334245Y-59188770D01*
X51334103Y-59186924D01*
X51333345Y-59183846D01*
X51333856Y-59183719D01*
X51328879Y-59119107D01*
X51362026Y-59057601D01*
X51391174Y-59035743D01*
X51406271Y-59027573D01*
X51406272Y-59027571D01*
X51406278Y-59027569D01*
X51586493Y-58887302D01*
X51741163Y-58719286D01*
X51818923Y-58600265D01*
X51872067Y-58554910D01*
X51941298Y-58545486D01*
X51952395Y-58547689D01*
X52044944Y-58570500D01*
X52215056Y-58570500D01*
X52380225Y-58529790D01*
X52459692Y-58488081D01*
X52530849Y-58450736D01*
X52530850Y-58450734D01*
X52530852Y-58450734D01*
X52658183Y-58337929D01*
X52754818Y-58197930D01*
X52815140Y-58038872D01*
X52835645Y-57870000D01*
X52815140Y-57701128D01*
X52811346Y-57691125D01*
X52768723Y-57578736D01*
X52754818Y-57542070D01*
X52753903Y-57540745D01*
X52676037Y-57427937D01*
X52658183Y-57402071D01*
X52530852Y-57289266D01*
X52530849Y-57289263D01*
X52380226Y-57210210D01*
X52215056Y-57169500D01*
X52044944Y-57169500D01*
X52044942Y-57169500D01*
X51952404Y-57192308D01*
X51882602Y-57189238D01*
X51825540Y-57148918D01*
X51818921Y-57139732D01*
X51741165Y-57020716D01*
X51722094Y-57000000D01*
X56844355Y-57000000D01*
X56864859Y-57168869D01*
X56864860Y-57168874D01*
X56925182Y-57327931D01*
X56969456Y-57392072D01*
X57021817Y-57467929D01*
X57104010Y-57540745D01*
X57149150Y-57580736D01*
X57295962Y-57657789D01*
X57299775Y-57659790D01*
X57464944Y-57700500D01*
X57635056Y-57700500D01*
X57800225Y-57659790D01*
X57879692Y-57618081D01*
X57950849Y-57580736D01*
X57950850Y-57580734D01*
X57950852Y-57580734D01*
X58078183Y-57467929D01*
X58174818Y-57327930D01*
X58235140Y-57168872D01*
X58241074Y-57120000D01*
X70114355Y-57120000D01*
X70134859Y-57288869D01*
X70134860Y-57288874D01*
X70195182Y-57447931D01*
X70208986Y-57467929D01*
X70291817Y-57587929D01*
X70396582Y-57680742D01*
X70419150Y-57700736D01*
X70531116Y-57759500D01*
X70569775Y-57779790D01*
X70734944Y-57820500D01*
X70905056Y-57820500D01*
X71070225Y-57779790D01*
X71149692Y-57738081D01*
X71220849Y-57700736D01*
X71220850Y-57700734D01*
X71220852Y-57700734D01*
X71348183Y-57587929D01*
X71411316Y-57496466D01*
X75572889Y-57496466D01*
X75593393Y-57665335D01*
X75593394Y-57665340D01*
X75653716Y-57824397D01*
X75685194Y-57870000D01*
X75750351Y-57964395D01*
X75834421Y-58038874D01*
X75877684Y-58077202D01*
X76028307Y-58156255D01*
X76028309Y-58156256D01*
X76193478Y-58196966D01*
X76363590Y-58196966D01*
X76528759Y-58156256D01*
X76608226Y-58114547D01*
X76679383Y-58077202D01*
X76679384Y-58077200D01*
X76679386Y-58077200D01*
X76806717Y-57964395D01*
X76903352Y-57824396D01*
X76963674Y-57665338D01*
X76984179Y-57496466D01*
X76963674Y-57327594D01*
X76931786Y-57243513D01*
X76926420Y-57173850D01*
X76959568Y-57112344D01*
X77020706Y-57078523D01*
X77090424Y-57083125D01*
X77105349Y-57089743D01*
X77147775Y-57112011D01*
X77312944Y-57152721D01*
X77483056Y-57152721D01*
X77648225Y-57112011D01*
X77727692Y-57070302D01*
X77798849Y-57032957D01*
X77798850Y-57032955D01*
X77798852Y-57032955D01*
X77926183Y-56920150D01*
X78022818Y-56780151D01*
X78083140Y-56621093D01*
X78083716Y-56616354D01*
X78087167Y-56587928D01*
X78103645Y-56452221D01*
X78083140Y-56283349D01*
X78022818Y-56124291D01*
X77992246Y-56080000D01*
X78914355Y-56080000D01*
X78934859Y-56248869D01*
X78934860Y-56248874D01*
X78995182Y-56407931D01*
X79046549Y-56482348D01*
X79091817Y-56547929D01*
X79190665Y-56635500D01*
X79219150Y-56660736D01*
X79317645Y-56712430D01*
X79369775Y-56739790D01*
X79534944Y-56780500D01*
X79705056Y-56780500D01*
X79870225Y-56739790D01*
X79967772Y-56688593D01*
X80020849Y-56660736D01*
X80020850Y-56660734D01*
X80020852Y-56660734D01*
X80148183Y-56547929D01*
X80244818Y-56407930D01*
X80305140Y-56248872D01*
X80325645Y-56080000D01*
X80315931Y-56000000D01*
X89994355Y-56000000D01*
X90014859Y-56168869D01*
X90014860Y-56168874D01*
X90075182Y-56327931D01*
X90109279Y-56377328D01*
X90171817Y-56467929D01*
X90262119Y-56547929D01*
X90299150Y-56580736D01*
X90442047Y-56655734D01*
X90449775Y-56659790D01*
X90614944Y-56700500D01*
X90785056Y-56700500D01*
X90950225Y-56659790D01*
X91029692Y-56618081D01*
X91100849Y-56580736D01*
X91100850Y-56580734D01*
X91100852Y-56580734D01*
X91228183Y-56467929D01*
X91324818Y-56327930D01*
X91385140Y-56168872D01*
X91405645Y-56000000D01*
X92394355Y-56000000D01*
X92414859Y-56168869D01*
X92414860Y-56168874D01*
X92475182Y-56327931D01*
X92509279Y-56377328D01*
X92571817Y-56467929D01*
X92662119Y-56547929D01*
X92699150Y-56580736D01*
X92842047Y-56655734D01*
X92849775Y-56659790D01*
X93014944Y-56700500D01*
X93185056Y-56700500D01*
X93350225Y-56659790D01*
X93429692Y-56618081D01*
X93500849Y-56580736D01*
X93500850Y-56580734D01*
X93500852Y-56580734D01*
X93628183Y-56467929D01*
X93724818Y-56327930D01*
X93785140Y-56168872D01*
X93798326Y-56060268D01*
X93825947Y-55996093D01*
X93883881Y-55957036D01*
X93953734Y-55955501D01*
X93979048Y-55965421D01*
X94059773Y-56007789D01*
X94059775Y-56007790D01*
X94224944Y-56048500D01*
X94281283Y-56048500D01*
X94348322Y-56068185D01*
X94394077Y-56120989D01*
X94404379Y-56157554D01*
X94414859Y-56243869D01*
X94416655Y-56251154D01*
X94414147Y-56251772D01*
X94418563Y-56309170D01*
X94385409Y-56370673D01*
X94354885Y-56393260D01*
X94309151Y-56417264D01*
X94309148Y-56417266D01*
X94181816Y-56530072D01*
X94085182Y-56670068D01*
X94024860Y-56829125D01*
X94024859Y-56829130D01*
X94004355Y-56998000D01*
X94024859Y-57166869D01*
X94024860Y-57166874D01*
X94085182Y-57325931D01*
X94086563Y-57327931D01*
X94181817Y-57465929D01*
X94267763Y-57542070D01*
X94309150Y-57578736D01*
X94459773Y-57657789D01*
X94459775Y-57657790D01*
X94624944Y-57698500D01*
X94795056Y-57698500D01*
X94960225Y-57657790D01*
X95093333Y-57587929D01*
X95110849Y-57578736D01*
X95110850Y-57578734D01*
X95110852Y-57578734D01*
X95238183Y-57465929D01*
X95334818Y-57325930D01*
X95395140Y-57166872D01*
X95415645Y-56998000D01*
X95395140Y-56829128D01*
X95395139Y-56829125D01*
X95393345Y-56821846D01*
X95395855Y-56821227D01*
X95391430Y-56763854D01*
X95424572Y-56702344D01*
X95455114Y-56679739D01*
X95500852Y-56655734D01*
X95628183Y-56542929D01*
X95724818Y-56402930D01*
X95785140Y-56243872D01*
X95792547Y-56182870D01*
X106474500Y-56182870D01*
X106474501Y-56182876D01*
X106480908Y-56242483D01*
X106531202Y-56377328D01*
X106531206Y-56377335D01*
X106617452Y-56492544D01*
X106617455Y-56492547D01*
X106732664Y-56578793D01*
X106732671Y-56578797D01*
X106867517Y-56629091D01*
X106867516Y-56629091D01*
X106874444Y-56629835D01*
X106927127Y-56635500D01*
X107872872Y-56635499D01*
X107932483Y-56629091D01*
X108067331Y-56578796D01*
X108182546Y-56492546D01*
X108268796Y-56377331D01*
X108319091Y-56242483D01*
X108325500Y-56182873D01*
X108325499Y-55237128D01*
X108319091Y-55177517D01*
X108315177Y-55167024D01*
X108268797Y-55042671D01*
X108268793Y-55042664D01*
X108182547Y-54927455D01*
X108182544Y-54927452D01*
X108067335Y-54841206D01*
X108067328Y-54841202D01*
X107932482Y-54790908D01*
X107932483Y-54790908D01*
X107872883Y-54784501D01*
X107872881Y-54784500D01*
X107872873Y-54784500D01*
X107872864Y-54784500D01*
X106927129Y-54784500D01*
X106927123Y-54784501D01*
X106867516Y-54790908D01*
X106732671Y-54841202D01*
X106732664Y-54841206D01*
X106617455Y-54927452D01*
X106617452Y-54927455D01*
X106531206Y-55042664D01*
X106531202Y-55042671D01*
X106480908Y-55177517D01*
X106474627Y-55235947D01*
X106474501Y-55237123D01*
X106474500Y-55237135D01*
X106474500Y-56182870D01*
X95792547Y-56182870D01*
X95805645Y-56075000D01*
X95785140Y-55906128D01*
X95724818Y-55747070D01*
X95713180Y-55730210D01*
X95663289Y-55657931D01*
X95628183Y-55607071D01*
X95506496Y-55499266D01*
X95500849Y-55494263D01*
X95350226Y-55415210D01*
X95185056Y-55374500D01*
X95128717Y-55374500D01*
X95061678Y-55354815D01*
X95015923Y-55302011D01*
X95005621Y-55265447D01*
X95002183Y-55237129D01*
X94995140Y-55179128D01*
X94988312Y-55161125D01*
X94943389Y-55042671D01*
X94934818Y-55020070D01*
X94922393Y-55002070D01*
X94870888Y-54927452D01*
X94838183Y-54880071D01*
X94737538Y-54790908D01*
X94710849Y-54767263D01*
X94560226Y-54688210D01*
X94395056Y-54647500D01*
X94224944Y-54647500D01*
X94059773Y-54688210D01*
X93909150Y-54767263D01*
X93781816Y-54880072D01*
X93685182Y-55020068D01*
X93624860Y-55179125D01*
X93624859Y-55179131D01*
X93611673Y-55287729D01*
X93584051Y-55351907D01*
X93526117Y-55390963D01*
X93456264Y-55392498D01*
X93430951Y-55382578D01*
X93350226Y-55340210D01*
X93185056Y-55299500D01*
X93014944Y-55299500D01*
X92849773Y-55340210D01*
X92699150Y-55419263D01*
X92571816Y-55532072D01*
X92475182Y-55672068D01*
X92414860Y-55831125D01*
X92414859Y-55831130D01*
X92394355Y-56000000D01*
X91405645Y-56000000D01*
X91400542Y-55957975D01*
X91412002Y-55889054D01*
X91458905Y-55837268D01*
X91526361Y-55819060D01*
X91553309Y-55822632D01*
X91564944Y-55825500D01*
X91564946Y-55825500D01*
X91735056Y-55825500D01*
X91900225Y-55784790D01*
X91979692Y-55743081D01*
X92050849Y-55705736D01*
X92050850Y-55705734D01*
X92050852Y-55705734D01*
X92178183Y-55592929D01*
X92274818Y-55452930D01*
X92335140Y-55293872D01*
X92355645Y-55125000D01*
X92335140Y-54956128D01*
X92274818Y-54797070D01*
X92270565Y-54790909D01*
X92208160Y-54700500D01*
X92178183Y-54657071D01*
X92050852Y-54544266D01*
X92050849Y-54544263D01*
X91900226Y-54465210D01*
X91735056Y-54424500D01*
X91564944Y-54424500D01*
X91399773Y-54465210D01*
X91249150Y-54544263D01*
X91121816Y-54657072D01*
X91025182Y-54797068D01*
X90964860Y-54956125D01*
X90964859Y-54956130D01*
X90944355Y-55125000D01*
X90944355Y-55125001D01*
X90949457Y-55167024D01*
X90937996Y-55235947D01*
X90891092Y-55287733D01*
X90823636Y-55305939D01*
X90796690Y-55302367D01*
X90785056Y-55299500D01*
X90614944Y-55299500D01*
X90449773Y-55340210D01*
X90299150Y-55419263D01*
X90171816Y-55532072D01*
X90075182Y-55672068D01*
X90014860Y-55831125D01*
X90014859Y-55831130D01*
X89994355Y-56000000D01*
X80315931Y-56000000D01*
X80305140Y-55911128D01*
X80244818Y-55752070D01*
X80241365Y-55747068D01*
X80201629Y-55689500D01*
X80148183Y-55612071D01*
X80020852Y-55499266D01*
X80020849Y-55499263D01*
X79870226Y-55420210D01*
X79705056Y-55379500D01*
X79534944Y-55379500D01*
X79369773Y-55420210D01*
X79219150Y-55499263D01*
X79091816Y-55612072D01*
X78995182Y-55752068D01*
X78934860Y-55911125D01*
X78934859Y-55911130D01*
X78914355Y-56080000D01*
X77992246Y-56080000D01*
X77926183Y-55984292D01*
X77798852Y-55871487D01*
X77798849Y-55871484D01*
X77648226Y-55792431D01*
X77483056Y-55751721D01*
X77312944Y-55751721D01*
X77147773Y-55792431D01*
X76997150Y-55871484D01*
X76869816Y-55984293D01*
X76773182Y-56124289D01*
X76712860Y-56283346D01*
X76712859Y-56283351D01*
X76692355Y-56452221D01*
X76712859Y-56621086D01*
X76712861Y-56621098D01*
X76744746Y-56705173D01*
X76750113Y-56774836D01*
X76716965Y-56836342D01*
X76655826Y-56870163D01*
X76586108Y-56865561D01*
X76571178Y-56858939D01*
X76528760Y-56836676D01*
X76363590Y-56795966D01*
X76193478Y-56795966D01*
X76028307Y-56836676D01*
X75877684Y-56915729D01*
X75750350Y-57028538D01*
X75653716Y-57168534D01*
X75593394Y-57327591D01*
X75593393Y-57327596D01*
X75572889Y-57496466D01*
X71411316Y-57496466D01*
X71444818Y-57447930D01*
X71505140Y-57288872D01*
X71525645Y-57120000D01*
X71505140Y-56951128D01*
X71444818Y-56792070D01*
X71421060Y-56757652D01*
X71399177Y-56691299D01*
X71416641Y-56623647D01*
X71440884Y-56594394D01*
X71448183Y-56587929D01*
X71544818Y-56447930D01*
X71605140Y-56288872D01*
X71625645Y-56120000D01*
X71605140Y-55951128D01*
X71544818Y-55792070D01*
X71539792Y-55784789D01*
X71502119Y-55730210D01*
X71448183Y-55652071D01*
X71353316Y-55568026D01*
X71320849Y-55539263D01*
X71170226Y-55460210D01*
X71005056Y-55419500D01*
X70834944Y-55419500D01*
X70669773Y-55460210D01*
X70519150Y-55539263D01*
X70391816Y-55652072D01*
X70295182Y-55792068D01*
X70234860Y-55951125D01*
X70234859Y-55951130D01*
X70214355Y-56120000D01*
X70234859Y-56288869D01*
X70234860Y-56288874D01*
X70295182Y-56447931D01*
X70318939Y-56482348D01*
X70340822Y-56548702D01*
X70323357Y-56616354D01*
X70299121Y-56645599D01*
X70291821Y-56652066D01*
X70291815Y-56652073D01*
X70195182Y-56792068D01*
X70134860Y-56951125D01*
X70134859Y-56951130D01*
X70114355Y-57120000D01*
X58241074Y-57120000D01*
X58255645Y-57000000D01*
X58235140Y-56831128D01*
X58234380Y-56829125D01*
X58190124Y-56712430D01*
X58174818Y-56672070D01*
X58173437Y-56670070D01*
X58116739Y-56587929D01*
X58078183Y-56532071D01*
X57950852Y-56419266D01*
X57950849Y-56419263D01*
X57800226Y-56340210D01*
X57635056Y-56299500D01*
X57464944Y-56299500D01*
X57299773Y-56340210D01*
X57149150Y-56419263D01*
X57032638Y-56522484D01*
X57024074Y-56530072D01*
X57021816Y-56532072D01*
X56925182Y-56672068D01*
X56864860Y-56831125D01*
X56864859Y-56831130D01*
X56844355Y-57000000D01*
X51722094Y-57000000D01*
X51677104Y-56951128D01*
X51586493Y-56852698D01*
X51406278Y-56712431D01*
X51406277Y-56712430D01*
X51406274Y-56712428D01*
X51406267Y-56712424D01*
X51385619Y-56701250D01*
X51336028Y-56652031D01*
X51320921Y-56583814D01*
X51324242Y-56562513D01*
X51325137Y-56558879D01*
X51325140Y-56558872D01*
X51345645Y-56390000D01*
X51325140Y-56221128D01*
X51264818Y-56062070D01*
X51263576Y-56060271D01*
X51211131Y-55984292D01*
X51168183Y-55922071D01*
X51072460Y-55837268D01*
X51040849Y-55809263D01*
X50890226Y-55730210D01*
X50725056Y-55689500D01*
X50554944Y-55689500D01*
X50389773Y-55730210D01*
X50239150Y-55809263D01*
X50111816Y-55922072D01*
X50015182Y-56062068D01*
X49954860Y-56221125D01*
X49954859Y-56221130D01*
X49934355Y-56390000D01*
X49954859Y-56558869D01*
X49956655Y-56566153D01*
X49955014Y-56566557D01*
X49959677Y-56627088D01*
X49926527Y-56688593D01*
X49897395Y-56710443D01*
X49893726Y-56712428D01*
X49893724Y-56712429D01*
X49893722Y-56712431D01*
X49791402Y-56792070D01*
X49713508Y-56852697D01*
X49558838Y-57020712D01*
X49558835Y-57020716D01*
X49488091Y-57128997D01*
X49434944Y-57174354D01*
X49365713Y-57183777D01*
X49354609Y-57181572D01*
X49265057Y-57159500D01*
X49265056Y-57159500D01*
X49094944Y-57159500D01*
X48929773Y-57200210D01*
X48779150Y-57279263D01*
X48651816Y-57392072D01*
X48555182Y-57532068D01*
X48494860Y-57691125D01*
X48494859Y-57691130D01*
X48474355Y-57860000D01*
X46110489Y-57860000D01*
X46108165Y-55330000D01*
X58964355Y-55330000D01*
X58984859Y-55498869D01*
X58984860Y-55498874D01*
X59045182Y-55657931D01*
X59106710Y-55747068D01*
X59141817Y-55797929D01*
X59186222Y-55837268D01*
X59269150Y-55910736D01*
X59409301Y-55984293D01*
X59419775Y-55989790D01*
X59584944Y-56030500D01*
X59755056Y-56030500D01*
X59920225Y-55989790D01*
X59999692Y-55948081D01*
X60070849Y-55910736D01*
X60070850Y-55910734D01*
X60070852Y-55910734D01*
X60198183Y-55797929D01*
X60294818Y-55657930D01*
X60355140Y-55498872D01*
X60375645Y-55330000D01*
X60355140Y-55161128D01*
X60294818Y-55002070D01*
X60286993Y-54990734D01*
X60260476Y-54952318D01*
X60198183Y-54862071D01*
X60091170Y-54767266D01*
X60070849Y-54749263D01*
X59920226Y-54670210D01*
X59755056Y-54629500D01*
X59584944Y-54629500D01*
X59419773Y-54670210D01*
X59269150Y-54749263D01*
X59141816Y-54862072D01*
X59045182Y-55002068D01*
X58984860Y-55161125D01*
X58984859Y-55161130D01*
X58964355Y-55330000D01*
X46108165Y-55330000D01*
X46107007Y-54068873D01*
X60977551Y-54068873D01*
X60998055Y-54237742D01*
X60998056Y-54237747D01*
X61058378Y-54396804D01*
X61105596Y-54465210D01*
X61155013Y-54536802D01*
X61259648Y-54629500D01*
X61282346Y-54649609D01*
X61379311Y-54700500D01*
X61432971Y-54728663D01*
X61598140Y-54769373D01*
X61768252Y-54769373D01*
X61933421Y-54728663D01*
X62044793Y-54670210D01*
X62084045Y-54649609D01*
X62084046Y-54649607D01*
X62084048Y-54649607D01*
X62211379Y-54536802D01*
X62308014Y-54396803D01*
X62368336Y-54237745D01*
X62387915Y-54076500D01*
X74534355Y-54076500D01*
X74554859Y-54245369D01*
X74554860Y-54245374D01*
X74615182Y-54404431D01*
X74659011Y-54467927D01*
X74711817Y-54544429D01*
X74807843Y-54629500D01*
X74839150Y-54657236D01*
X74975241Y-54728662D01*
X74989775Y-54736290D01*
X75154944Y-54777000D01*
X75325056Y-54777000D01*
X75490225Y-54736290D01*
X75616129Y-54670210D01*
X75640849Y-54657236D01*
X75640850Y-54657234D01*
X75640852Y-54657234D01*
X75768183Y-54544429D01*
X75864818Y-54404430D01*
X75925140Y-54245372D01*
X75945645Y-54076500D01*
X75936356Y-54000000D01*
X82644355Y-54000000D01*
X82664859Y-54168869D01*
X82664860Y-54168874D01*
X82725182Y-54327931D01*
X82777987Y-54404431D01*
X82821817Y-54467929D01*
X82899557Y-54536800D01*
X82949150Y-54580736D01*
X83080373Y-54649607D01*
X83099775Y-54659790D01*
X83264944Y-54700500D01*
X83435056Y-54700500D01*
X83600225Y-54659790D01*
X83679692Y-54618081D01*
X83750849Y-54580736D01*
X83750850Y-54580734D01*
X83750852Y-54580734D01*
X83878183Y-54467929D01*
X83931743Y-54390334D01*
X83986023Y-54346346D01*
X84055472Y-54338686D01*
X84112971Y-54366488D01*
X84112980Y-54366476D01*
X84113060Y-54366531D01*
X84116019Y-54367962D01*
X84119148Y-54370734D01*
X84119150Y-54370735D01*
X84119154Y-54370738D01*
X84221589Y-54424500D01*
X84269775Y-54449790D01*
X84434944Y-54490500D01*
X84605056Y-54490500D01*
X84770225Y-54449790D01*
X84849692Y-54408081D01*
X84920849Y-54370736D01*
X84920850Y-54370734D01*
X84920852Y-54370734D01*
X85048183Y-54257929D01*
X85144818Y-54117930D01*
X85205140Y-53958872D01*
X85225645Y-53790000D01*
X85205140Y-53621128D01*
X85144818Y-53462070D01*
X85118211Y-53423524D01*
X85093642Y-53387930D01*
X85048183Y-53322071D01*
X84944256Y-53230000D01*
X87954355Y-53230000D01*
X87974859Y-53398869D01*
X87974860Y-53398874D01*
X88035182Y-53557931D01*
X88078805Y-53621128D01*
X88131817Y-53697929D01*
X88235744Y-53790000D01*
X88259150Y-53810736D01*
X88400246Y-53884789D01*
X88409775Y-53889790D01*
X88574944Y-53930500D01*
X88745056Y-53930500D01*
X88910225Y-53889790D01*
X89056988Y-53812761D01*
X89125496Y-53799036D01*
X89190549Y-53824528D01*
X89231494Y-53881144D01*
X89235330Y-53950908D01*
X89216664Y-53992998D01*
X89155183Y-54082068D01*
X89155182Y-54082068D01*
X89094860Y-54241125D01*
X89094859Y-54241130D01*
X89074355Y-54410000D01*
X89094859Y-54578869D01*
X89094860Y-54578874D01*
X89155182Y-54737931D01*
X89217475Y-54828177D01*
X89251817Y-54877929D01*
X89340086Y-54956128D01*
X89379150Y-54990736D01*
X89529773Y-55069789D01*
X89529775Y-55069790D01*
X89694944Y-55110500D01*
X89865056Y-55110500D01*
X90030225Y-55069790D01*
X90124958Y-55020070D01*
X90180849Y-54990736D01*
X90180850Y-54990734D01*
X90180852Y-54990734D01*
X90308183Y-54877929D01*
X90404818Y-54737930D01*
X90465140Y-54578872D01*
X90485645Y-54410000D01*
X90465140Y-54241128D01*
X90404818Y-54082070D01*
X90400973Y-54076500D01*
X90343578Y-53993349D01*
X90308183Y-53942071D01*
X90182954Y-53831128D01*
X90180849Y-53829263D01*
X90030226Y-53750210D01*
X89865056Y-53709500D01*
X89694944Y-53709500D01*
X89529776Y-53750209D01*
X89383011Y-53827238D01*
X89314502Y-53840963D01*
X89249449Y-53815470D01*
X89208505Y-53758854D01*
X89204670Y-53689090D01*
X89223334Y-53647004D01*
X89284818Y-53557930D01*
X89345140Y-53398872D01*
X89365645Y-53230000D01*
X89365038Y-53225000D01*
X93394355Y-53225000D01*
X93414859Y-53393869D01*
X93414860Y-53393874D01*
X93475182Y-53552931D01*
X93517014Y-53613534D01*
X93571817Y-53692929D01*
X93677505Y-53786560D01*
X93699150Y-53805736D01*
X93814616Y-53866337D01*
X93849775Y-53884790D01*
X94014944Y-53925500D01*
X94185056Y-53925500D01*
X94350225Y-53884790D01*
X94429692Y-53843081D01*
X94500849Y-53805736D01*
X94500850Y-53805734D01*
X94500852Y-53805734D01*
X94628183Y-53692929D01*
X94724818Y-53552930D01*
X94785140Y-53393872D01*
X94805645Y-53225000D01*
X94785140Y-53056128D01*
X94724818Y-52897070D01*
X94720714Y-52891125D01*
X94677030Y-52827838D01*
X94628183Y-52757071D01*
X94521808Y-52662831D01*
X94500849Y-52644263D01*
X94350226Y-52565210D01*
X94185056Y-52524500D01*
X94014944Y-52524500D01*
X93849773Y-52565210D01*
X93699150Y-52644263D01*
X93571816Y-52757072D01*
X93475182Y-52897068D01*
X93414860Y-53056125D01*
X93414859Y-53056130D01*
X93394355Y-53225000D01*
X89365038Y-53225000D01*
X89345140Y-53061128D01*
X89284818Y-52902070D01*
X89281365Y-52897068D01*
X89221121Y-52809790D01*
X89188183Y-52762071D01*
X89060852Y-52649266D01*
X89060849Y-52649263D01*
X89010419Y-52622796D01*
X88960206Y-52574212D01*
X88944232Y-52506193D01*
X88967567Y-52440335D01*
X89022803Y-52397548D01*
X89068045Y-52389000D01*
X89199547Y-52389000D01*
X89364716Y-52348290D01*
X89464909Y-52295704D01*
X89515340Y-52269236D01*
X89515341Y-52269234D01*
X89515343Y-52269234D01*
X89642674Y-52156429D01*
X89739309Y-52016430D01*
X89799631Y-51857372D01*
X89820136Y-51688500D01*
X89799631Y-51519628D01*
X89739309Y-51360570D01*
X89738570Y-51359500D01*
X89669545Y-51259500D01*
X89642674Y-51220571D01*
X89547807Y-51136526D01*
X89515340Y-51107763D01*
X89364717Y-51028710D01*
X89199547Y-50988000D01*
X89029435Y-50988000D01*
X88864264Y-51028710D01*
X88713641Y-51107763D01*
X88586307Y-51220572D01*
X88489673Y-51360568D01*
X88429351Y-51519625D01*
X88429350Y-51519630D01*
X88408846Y-51688500D01*
X88429350Y-51857369D01*
X88429351Y-51857374D01*
X88489673Y-52016431D01*
X88506087Y-52040210D01*
X88586308Y-52156429D01*
X88671692Y-52232072D01*
X88713641Y-52269236D01*
X88764072Y-52295704D01*
X88814285Y-52344288D01*
X88830259Y-52412307D01*
X88806924Y-52478165D01*
X88751688Y-52520952D01*
X88706446Y-52529500D01*
X88574944Y-52529500D01*
X88409773Y-52570210D01*
X88259150Y-52649263D01*
X88131816Y-52762072D01*
X88035182Y-52902068D01*
X87974860Y-53061125D01*
X87974859Y-53061130D01*
X87954355Y-53230000D01*
X84944256Y-53230000D01*
X84920852Y-53209266D01*
X84920849Y-53209263D01*
X84770226Y-53130210D01*
X84605056Y-53089500D01*
X84434944Y-53089500D01*
X84269773Y-53130210D01*
X84119150Y-53209263D01*
X83991817Y-53322071D01*
X83938257Y-53399664D01*
X83883973Y-53443653D01*
X83814525Y-53451311D01*
X83757027Y-53423512D01*
X83757020Y-53423524D01*
X83756946Y-53423473D01*
X83753984Y-53422041D01*
X83750852Y-53419266D01*
X83750850Y-53419265D01*
X83750849Y-53419264D01*
X83750845Y-53419261D01*
X83600226Y-53340210D01*
X83435056Y-53299500D01*
X83264944Y-53299500D01*
X83099773Y-53340210D01*
X82949150Y-53419263D01*
X82821816Y-53532072D01*
X82725182Y-53672068D01*
X82664860Y-53831125D01*
X82664859Y-53831130D01*
X82644355Y-54000000D01*
X75936356Y-54000000D01*
X75925140Y-53907628D01*
X75922247Y-53900001D01*
X75893625Y-53824528D01*
X75864818Y-53748570D01*
X75859553Y-53740943D01*
X75829861Y-53697927D01*
X75768183Y-53608571D01*
X75640852Y-53495766D01*
X75640849Y-53495763D01*
X75490226Y-53416710D01*
X75325056Y-53376000D01*
X75154944Y-53376000D01*
X74989773Y-53416710D01*
X74839150Y-53495763D01*
X74711816Y-53608572D01*
X74615182Y-53748568D01*
X74554860Y-53907625D01*
X74554859Y-53907630D01*
X74534355Y-54076500D01*
X62387915Y-54076500D01*
X62388841Y-54068873D01*
X62388039Y-54062270D01*
X62399498Y-53993349D01*
X62446401Y-53941562D01*
X62453482Y-53937542D01*
X62589152Y-53866337D01*
X62716483Y-53753532D01*
X62813118Y-53613533D01*
X62873440Y-53454475D01*
X62893945Y-53285603D01*
X62893944Y-53285601D01*
X62894414Y-53281738D01*
X62922036Y-53217560D01*
X62979970Y-53178503D01*
X63049823Y-53176968D01*
X63099735Y-53203867D01*
X63140182Y-53239700D01*
X63290809Y-53318756D01*
X63455978Y-53359466D01*
X63626090Y-53359466D01*
X63791259Y-53318756D01*
X63870726Y-53277047D01*
X63941883Y-53239702D01*
X63941884Y-53239700D01*
X63941886Y-53239700D01*
X64069217Y-53126895D01*
X64165852Y-52986896D01*
X64187228Y-52930529D01*
X64229406Y-52874827D01*
X64295003Y-52850769D01*
X64303171Y-52850500D01*
X64435056Y-52850500D01*
X64600225Y-52809790D01*
X64750852Y-52730734D01*
X64750855Y-52730730D01*
X64752944Y-52729290D01*
X64754724Y-52728702D01*
X64757494Y-52727249D01*
X64757735Y-52727709D01*
X64819295Y-52707399D01*
X64886949Y-52724856D01*
X64925444Y-52760888D01*
X64964817Y-52817929D01*
X65029042Y-52874827D01*
X65092150Y-52930736D01*
X65242773Y-53009789D01*
X65242775Y-53009790D01*
X65407944Y-53050500D01*
X65578056Y-53050500D01*
X65743225Y-53009790D01*
X65893852Y-52930734D01*
X66017226Y-52821434D01*
X66080458Y-52791713D01*
X66149721Y-52800897D01*
X66203025Y-52846069D01*
X66215392Y-52870275D01*
X66238321Y-52930734D01*
X66275182Y-53027931D01*
X66294647Y-53056130D01*
X66371817Y-53167929D01*
X66477505Y-53261560D01*
X66499150Y-53280736D01*
X66649158Y-53359466D01*
X66649775Y-53359790D01*
X66814944Y-53400500D01*
X66985056Y-53400500D01*
X67150225Y-53359790D01*
X67265097Y-53299500D01*
X67300849Y-53280736D01*
X67300850Y-53280734D01*
X67300852Y-53280734D01*
X67428183Y-53167929D01*
X67502682Y-53060000D01*
X80034355Y-53060000D01*
X80054859Y-53228869D01*
X80054860Y-53228874D01*
X80115182Y-53387931D01*
X80177475Y-53478177D01*
X80211817Y-53527929D01*
X80317014Y-53621125D01*
X80339150Y-53640736D01*
X80470169Y-53709500D01*
X80489775Y-53719790D01*
X80654944Y-53760500D01*
X80825056Y-53760500D01*
X80990225Y-53719790D01*
X81081151Y-53672068D01*
X81140849Y-53640736D01*
X81140850Y-53640734D01*
X81140852Y-53640734D01*
X81268183Y-53527929D01*
X81364818Y-53387930D01*
X81425140Y-53228872D01*
X81445645Y-53060000D01*
X81425140Y-52891128D01*
X81364818Y-52732070D01*
X81363897Y-52730736D01*
X81315416Y-52660500D01*
X81268183Y-52592071D01*
X81153078Y-52490097D01*
X81140849Y-52479263D01*
X80990226Y-52400210D01*
X80825056Y-52359500D01*
X80654944Y-52359500D01*
X80489773Y-52400210D01*
X80339150Y-52479263D01*
X80211816Y-52592072D01*
X80115182Y-52732068D01*
X80054860Y-52891125D01*
X80054859Y-52891130D01*
X80034355Y-53060000D01*
X67502682Y-53060000D01*
X67524818Y-53027930D01*
X67585140Y-52868872D01*
X67605645Y-52700000D01*
X67585140Y-52531128D01*
X67524818Y-52372070D01*
X67516141Y-52359500D01*
X67468023Y-52289789D01*
X67428183Y-52232071D01*
X67300852Y-52119266D01*
X67300849Y-52119263D01*
X67150226Y-52040210D01*
X66985056Y-51999500D01*
X66814944Y-51999500D01*
X66649773Y-52040210D01*
X66499150Y-52119264D01*
X66375774Y-52228565D01*
X66312540Y-52258286D01*
X66243277Y-52249102D01*
X66189974Y-52203930D01*
X66177607Y-52179723D01*
X66117818Y-52022070D01*
X66102015Y-51999176D01*
X66057124Y-51934140D01*
X66021183Y-51882071D01*
X65920192Y-51792601D01*
X65893849Y-51769263D01*
X65743226Y-51690210D01*
X65578056Y-51649500D01*
X65407944Y-51649500D01*
X65242773Y-51690210D01*
X65092147Y-51769265D01*
X65090036Y-51770723D01*
X65088247Y-51771312D01*
X65085507Y-51772751D01*
X65085267Y-51772295D01*
X65023679Y-51792601D01*
X64956029Y-51775131D01*
X64917553Y-51739108D01*
X64912694Y-51732068D01*
X64878183Y-51682071D01*
X64819407Y-51630000D01*
X70054355Y-51630000D01*
X70074859Y-51798869D01*
X70074860Y-51798874D01*
X70135182Y-51957931D01*
X70191976Y-52040210D01*
X70231817Y-52097929D01*
X70324139Y-52179719D01*
X70359150Y-52210736D01*
X70470609Y-52269234D01*
X70509775Y-52289790D01*
X70674944Y-52330500D01*
X70845056Y-52330500D01*
X71010225Y-52289790D01*
X71089692Y-52248081D01*
X71160849Y-52210736D01*
X71160850Y-52210734D01*
X71160852Y-52210734D01*
X71288183Y-52097929D01*
X71383389Y-51960000D01*
X74844355Y-51960000D01*
X74864859Y-52128869D01*
X74864860Y-52128874D01*
X74925182Y-52287931D01*
X74983259Y-52372068D01*
X75021817Y-52427929D01*
X75110159Y-52506193D01*
X75149150Y-52540736D01*
X75246961Y-52592071D01*
X75299775Y-52619790D01*
X75464944Y-52660500D01*
X75635056Y-52660500D01*
X75800225Y-52619790D01*
X75894691Y-52570210D01*
X75950849Y-52540736D01*
X75950850Y-52540734D01*
X75950852Y-52540734D01*
X76078183Y-52427929D01*
X76174818Y-52287930D01*
X76235140Y-52128872D01*
X76243503Y-52060000D01*
X83534355Y-52060000D01*
X83554859Y-52228869D01*
X83554860Y-52228874D01*
X83615182Y-52387931D01*
X83651355Y-52440335D01*
X83711817Y-52527929D01*
X83784219Y-52592071D01*
X83839150Y-52640736D01*
X83966166Y-52707399D01*
X83989775Y-52719790D01*
X84154944Y-52760500D01*
X84325056Y-52760500D01*
X84490225Y-52719790D01*
X84598750Y-52662831D01*
X84640849Y-52640736D01*
X84640850Y-52640734D01*
X84640852Y-52640734D01*
X84768183Y-52527929D01*
X84864818Y-52387930D01*
X84925140Y-52228872D01*
X84945645Y-52060000D01*
X84925140Y-51891128D01*
X84913524Y-51860500D01*
X84877784Y-51766260D01*
X84864818Y-51732070D01*
X84768183Y-51592071D01*
X84655306Y-51492071D01*
X84640849Y-51479263D01*
X84490226Y-51400210D01*
X84325056Y-51359500D01*
X84154944Y-51359500D01*
X83989773Y-51400210D01*
X83839150Y-51479263D01*
X83711816Y-51592072D01*
X83615182Y-51732068D01*
X83554860Y-51891125D01*
X83554859Y-51891130D01*
X83534355Y-52060000D01*
X76243503Y-52060000D01*
X76255645Y-51960000D01*
X76235140Y-51791128D01*
X76227401Y-51770723D01*
X76174817Y-51632068D01*
X76131465Y-51569263D01*
X76078183Y-51492071D01*
X75950852Y-51379266D01*
X75950849Y-51379263D01*
X75800226Y-51300210D01*
X75635056Y-51259500D01*
X75464944Y-51259500D01*
X75299773Y-51300210D01*
X75149150Y-51379263D01*
X75021816Y-51492072D01*
X74925182Y-51632068D01*
X74864860Y-51791125D01*
X74864859Y-51791130D01*
X74844355Y-51960000D01*
X71383389Y-51960000D01*
X71384818Y-51957930D01*
X71445140Y-51798872D01*
X71465645Y-51630000D01*
X71445140Y-51461128D01*
X71384818Y-51302070D01*
X71288183Y-51162071D01*
X71285845Y-51160000D01*
X78364355Y-51160000D01*
X78384859Y-51328869D01*
X78384860Y-51328874D01*
X78445182Y-51487931D01*
X78501325Y-51569266D01*
X78541817Y-51627929D01*
X78610188Y-51688500D01*
X78669150Y-51740736D01*
X78779923Y-51798874D01*
X78819775Y-51819790D01*
X78984944Y-51860500D01*
X79155056Y-51860500D01*
X79320225Y-51819790D01*
X79412591Y-51771312D01*
X79470849Y-51740736D01*
X79470850Y-51740734D01*
X79470852Y-51740734D01*
X79598183Y-51627929D01*
X79694818Y-51487930D01*
X79755140Y-51328872D01*
X79775645Y-51160000D01*
X79755140Y-50991128D01*
X79694818Y-50832070D01*
X79691958Y-50827927D01*
X79659653Y-50781125D01*
X79598183Y-50692071D01*
X79470852Y-50579266D01*
X79470849Y-50579263D01*
X79320226Y-50500210D01*
X79155056Y-50459500D01*
X78984944Y-50459500D01*
X78819773Y-50500210D01*
X78669150Y-50579263D01*
X78541816Y-50692072D01*
X78445182Y-50832068D01*
X78384860Y-50991125D01*
X78384859Y-50991130D01*
X78364355Y-51160000D01*
X71285845Y-51160000D01*
X71160852Y-51049266D01*
X71160849Y-51049263D01*
X71010226Y-50970210D01*
X70845056Y-50929500D01*
X70674944Y-50929500D01*
X70509773Y-50970210D01*
X70359150Y-51049263D01*
X70231816Y-51162072D01*
X70135182Y-51302068D01*
X70074860Y-51461125D01*
X70074859Y-51461130D01*
X70054355Y-51630000D01*
X64819407Y-51630000D01*
X64750852Y-51569266D01*
X64750849Y-51569263D01*
X64600226Y-51490210D01*
X64435056Y-51449500D01*
X64264944Y-51449500D01*
X64099773Y-51490210D01*
X63949150Y-51569263D01*
X63821816Y-51682072D01*
X63725182Y-51822068D01*
X63725182Y-51822069D01*
X63703805Y-51878437D01*
X63661627Y-51934140D01*
X63596029Y-51958197D01*
X63587863Y-51958466D01*
X63455978Y-51958466D01*
X63290807Y-51999176D01*
X63140184Y-52078229D01*
X63012850Y-52191038D01*
X62916216Y-52331034D01*
X62855894Y-52490091D01*
X62855893Y-52490097D01*
X62834919Y-52662831D01*
X62807297Y-52727009D01*
X62749362Y-52766065D01*
X62679510Y-52767600D01*
X62629596Y-52740699D01*
X62589152Y-52704869D01*
X62589150Y-52704867D01*
X62438526Y-52625813D01*
X62273356Y-52585103D01*
X62103244Y-52585103D01*
X61938073Y-52625813D01*
X61787450Y-52704866D01*
X61660116Y-52817675D01*
X61563482Y-52957671D01*
X61503160Y-53116728D01*
X61503159Y-53116733D01*
X61482655Y-53285602D01*
X61483457Y-53292209D01*
X61471993Y-53361132D01*
X61425087Y-53412916D01*
X61417987Y-53416946D01*
X61282345Y-53488138D01*
X61155012Y-53600945D01*
X61058378Y-53740941D01*
X60998056Y-53899998D01*
X60998055Y-53900003D01*
X60977551Y-54068873D01*
X46107007Y-54068873D01*
X46104142Y-50950000D01*
X62119355Y-50950000D01*
X62139859Y-51118869D01*
X62139860Y-51118874D01*
X62200182Y-51277931D01*
X62235343Y-51328869D01*
X62296817Y-51417929D01*
X62402505Y-51511560D01*
X62424150Y-51530736D01*
X62574773Y-51609789D01*
X62574775Y-51609790D01*
X62739944Y-51650500D01*
X62910056Y-51650500D01*
X63075225Y-51609790D01*
X63154692Y-51568081D01*
X63225849Y-51530736D01*
X63225850Y-51530734D01*
X63225852Y-51530734D01*
X63353183Y-51417929D01*
X63449818Y-51277930D01*
X63510140Y-51118872D01*
X63530645Y-50950000D01*
X63510140Y-50781128D01*
X63449818Y-50622070D01*
X63353183Y-50482071D01*
X63225852Y-50369266D01*
X63225849Y-50369263D01*
X63208200Y-50360000D01*
X76244355Y-50360000D01*
X76264859Y-50528869D01*
X76264860Y-50528874D01*
X76325182Y-50687931D01*
X76352559Y-50727592D01*
X76421817Y-50827929D01*
X76526573Y-50920734D01*
X76549150Y-50940736D01*
X76699773Y-51019789D01*
X76699775Y-51019790D01*
X76864944Y-51060500D01*
X77035056Y-51060500D01*
X77200225Y-51019790D01*
X77294691Y-50970210D01*
X77350849Y-50940736D01*
X77350850Y-50940734D01*
X77350852Y-50940734D01*
X77478183Y-50827929D01*
X77574818Y-50687930D01*
X77635140Y-50528872D01*
X77655645Y-50360000D01*
X77653217Y-50340000D01*
X80464355Y-50340000D01*
X80484859Y-50508869D01*
X80484860Y-50508874D01*
X80545182Y-50667931D01*
X80586362Y-50727589D01*
X80641817Y-50807929D01*
X80747505Y-50901560D01*
X80769150Y-50920736D01*
X80897311Y-50988000D01*
X80919775Y-50999790D01*
X81084944Y-51040500D01*
X81255056Y-51040500D01*
X81420225Y-50999790D01*
X81532746Y-50940734D01*
X81570849Y-50920736D01*
X81570850Y-50920734D01*
X81570852Y-50920734D01*
X81698183Y-50807929D01*
X81794818Y-50667930D01*
X81855140Y-50508872D01*
X81856217Y-50500005D01*
X100517277Y-50500005D01*
X100536134Y-50727580D01*
X100536136Y-50727592D01*
X100592196Y-50948967D01*
X100683930Y-51158102D01*
X100808834Y-51349283D01*
X100808837Y-51349286D01*
X100963507Y-51517302D01*
X101143722Y-51657569D01*
X101188999Y-51682072D01*
X101297396Y-51740734D01*
X101344566Y-51766261D01*
X101560562Y-51840412D01*
X101785816Y-51878000D01*
X102014184Y-51878000D01*
X102239438Y-51840412D01*
X102455434Y-51766261D01*
X102656278Y-51657569D01*
X102836493Y-51517302D01*
X102991163Y-51349286D01*
X103116069Y-51158103D01*
X103207803Y-50948969D01*
X103263864Y-50727589D01*
X103266807Y-50692071D01*
X103282723Y-50500005D01*
X103282723Y-50499994D01*
X103263865Y-50272419D01*
X103263863Y-50272407D01*
X103238215Y-50171125D01*
X103207803Y-50051031D01*
X103116069Y-49841897D01*
X103035078Y-49717931D01*
X102991165Y-49650716D01*
X102906616Y-49558872D01*
X102836493Y-49482698D01*
X102656278Y-49342431D01*
X102656276Y-49342430D01*
X102656275Y-49342429D01*
X102455435Y-49233739D01*
X102455430Y-49233737D01*
X102239440Y-49159588D01*
X102014184Y-49122000D01*
X101785816Y-49122000D01*
X101560559Y-49159588D01*
X101344569Y-49233737D01*
X101344564Y-49233739D01*
X101143724Y-49342429D01*
X100963508Y-49482697D01*
X100963507Y-49482698D01*
X100953586Y-49493474D01*
X100808834Y-49650716D01*
X100683930Y-49841897D01*
X100592196Y-50051032D01*
X100536136Y-50272407D01*
X100536134Y-50272419D01*
X100517277Y-50499994D01*
X100517277Y-50500005D01*
X81856217Y-50500005D01*
X81875645Y-50340000D01*
X81855140Y-50171128D01*
X81794818Y-50012070D01*
X81698183Y-49872071D01*
X81603316Y-49788026D01*
X81570849Y-49759263D01*
X81420226Y-49680210D01*
X81255056Y-49639500D01*
X81084944Y-49639500D01*
X80919773Y-49680210D01*
X80769150Y-49759263D01*
X80641816Y-49872072D01*
X80545182Y-50012068D01*
X80484860Y-50171125D01*
X80484859Y-50171130D01*
X80464355Y-50340000D01*
X77653217Y-50340000D01*
X77635140Y-50191128D01*
X77574818Y-50032070D01*
X77478183Y-49892071D01*
X77350852Y-49779266D01*
X77350849Y-49779263D01*
X77200226Y-49700210D01*
X77035056Y-49659500D01*
X76864944Y-49659500D01*
X76699773Y-49700210D01*
X76549150Y-49779263D01*
X76421816Y-49892072D01*
X76325182Y-50032068D01*
X76264860Y-50191125D01*
X76264859Y-50191130D01*
X76244355Y-50360000D01*
X63208200Y-50360000D01*
X63075226Y-50290210D01*
X62910056Y-50249500D01*
X62739944Y-50249500D01*
X62574773Y-50290210D01*
X62424150Y-50369263D01*
X62296816Y-50482072D01*
X62200182Y-50622068D01*
X62139860Y-50781125D01*
X62139859Y-50781130D01*
X62119355Y-50950000D01*
X46104142Y-50950000D01*
X46102709Y-49390000D01*
X62684355Y-49390000D01*
X62704859Y-49558869D01*
X62704860Y-49558874D01*
X62765182Y-49717931D01*
X62793712Y-49759263D01*
X62861817Y-49857929D01*
X62900357Y-49892072D01*
X62989150Y-49970736D01*
X63139773Y-50049789D01*
X63139775Y-50049790D01*
X63304944Y-50090500D01*
X63475056Y-50090500D01*
X63640225Y-50049790D01*
X63719692Y-50008081D01*
X63790849Y-49970736D01*
X63790850Y-49970734D01*
X63790852Y-49970734D01*
X63918183Y-49857929D01*
X64014818Y-49717930D01*
X64075140Y-49558872D01*
X64095645Y-49390000D01*
X64075140Y-49221128D01*
X64014818Y-49062070D01*
X64012880Y-49059263D01*
X63964778Y-48989575D01*
X63918183Y-48922071D01*
X63904558Y-48910000D01*
X74834355Y-48910000D01*
X74854859Y-49078869D01*
X74854860Y-49078874D01*
X74915182Y-49237931D01*
X74977475Y-49328177D01*
X75011817Y-49377929D01*
X75117014Y-49471125D01*
X75139150Y-49490736D01*
X75289773Y-49569789D01*
X75289775Y-49569790D01*
X75454944Y-49610500D01*
X75625056Y-49610500D01*
X75790225Y-49569790D01*
X75869692Y-49528081D01*
X75940849Y-49490736D01*
X75940850Y-49490734D01*
X75940852Y-49490734D01*
X76068183Y-49377929D01*
X76164818Y-49237930D01*
X76225140Y-49078872D01*
X76245645Y-48910000D01*
X76225140Y-48741128D01*
X76220999Y-48730210D01*
X76164817Y-48582068D01*
X76082021Y-48462119D01*
X76068183Y-48442071D01*
X75957654Y-48344151D01*
X75940849Y-48329263D01*
X75790226Y-48250210D01*
X75710258Y-48230500D01*
X80904355Y-48230500D01*
X80924859Y-48399369D01*
X80924860Y-48399374D01*
X80985182Y-48558431D01*
X81013875Y-48599999D01*
X81081817Y-48698429D01*
X81130017Y-48741130D01*
X81209150Y-48811236D01*
X81351670Y-48886036D01*
X81359775Y-48890290D01*
X81524944Y-48931000D01*
X81695056Y-48931000D01*
X81860225Y-48890290D01*
X81939692Y-48848581D01*
X82010849Y-48811236D01*
X82010850Y-48811234D01*
X82010852Y-48811234D01*
X82138183Y-48698429D01*
X82234818Y-48558430D01*
X82295140Y-48399372D01*
X82315645Y-48230500D01*
X82295140Y-48061628D01*
X82234818Y-47902570D01*
X82234474Y-47902072D01*
X82170412Y-47809263D01*
X82138183Y-47762571D01*
X82032343Y-47668805D01*
X82010849Y-47649763D01*
X81860226Y-47570710D01*
X81695056Y-47530000D01*
X81524944Y-47530000D01*
X81359773Y-47570710D01*
X81209150Y-47649763D01*
X81081816Y-47762572D01*
X80985182Y-47902568D01*
X80924860Y-48061625D01*
X80924859Y-48061630D01*
X80904355Y-48230500D01*
X75710258Y-48230500D01*
X75625056Y-48209500D01*
X75454944Y-48209500D01*
X75289773Y-48250210D01*
X75139150Y-48329263D01*
X75011816Y-48442072D01*
X74915182Y-48582068D01*
X74854860Y-48741125D01*
X74854859Y-48741130D01*
X74834355Y-48910000D01*
X63904558Y-48910000D01*
X63793076Y-48811236D01*
X63790849Y-48809263D01*
X63640226Y-48730210D01*
X63475056Y-48689500D01*
X63304944Y-48689500D01*
X63139773Y-48730210D01*
X62989150Y-48809263D01*
X62861816Y-48922072D01*
X62765182Y-49062068D01*
X62704860Y-49221125D01*
X62704859Y-49221130D01*
X62684355Y-49390000D01*
X46102709Y-49390000D01*
X46100946Y-47470000D01*
X52494355Y-47470000D01*
X52514859Y-47638869D01*
X52514860Y-47638874D01*
X52575182Y-47797931D01*
X52629807Y-47877068D01*
X52671817Y-47937929D01*
X52774999Y-48029340D01*
X52799150Y-48050736D01*
X52878184Y-48092216D01*
X52949775Y-48129790D01*
X53114944Y-48170500D01*
X53285056Y-48170500D01*
X53450225Y-48129790D01*
X53567377Y-48068303D01*
X53635881Y-48054578D01*
X53682621Y-48068302D01*
X53799775Y-48129790D01*
X53964944Y-48170500D01*
X54135056Y-48170500D01*
X54300225Y-48129790D01*
X54407375Y-48073552D01*
X54475882Y-48059827D01*
X54522623Y-48073552D01*
X54629775Y-48129790D01*
X54794944Y-48170500D01*
X54965056Y-48170500D01*
X55130225Y-48129790D01*
X55209692Y-48088081D01*
X55280849Y-48050736D01*
X55280850Y-48050734D01*
X55280852Y-48050734D01*
X55408183Y-47937929D01*
X55504818Y-47797930D01*
X55565140Y-47638872D01*
X55585645Y-47470000D01*
X55565140Y-47301128D01*
X55504818Y-47142070D01*
X55496993Y-47130734D01*
X55463967Y-47082888D01*
X55408183Y-47002071D01*
X55305087Y-46910736D01*
X55280849Y-46889263D01*
X55130226Y-46810210D01*
X54965056Y-46769500D01*
X54794944Y-46769500D01*
X54629773Y-46810210D01*
X54522626Y-46866446D01*
X54454118Y-46880172D01*
X54407374Y-46866446D01*
X54300226Y-46810210D01*
X54135056Y-46769500D01*
X53964944Y-46769500D01*
X53799776Y-46810209D01*
X53682626Y-46871695D01*
X53614117Y-46885420D01*
X53567374Y-46871695D01*
X53450223Y-46810209D01*
X53285056Y-46769500D01*
X53114944Y-46769500D01*
X52949773Y-46810210D01*
X52799150Y-46889263D01*
X52671816Y-47002072D01*
X52575182Y-47142068D01*
X52514860Y-47301125D01*
X52514859Y-47301130D01*
X52494355Y-47470000D01*
X46100946Y-47470000D01*
X46100101Y-46550000D01*
X71984355Y-46550000D01*
X72004859Y-46718869D01*
X72004860Y-46718874D01*
X72065182Y-46877931D01*
X72118519Y-46955201D01*
X72161817Y-47017929D01*
X72267505Y-47111560D01*
X72289150Y-47130736D01*
X72423612Y-47201307D01*
X72439775Y-47209790D01*
X72604944Y-47250500D01*
X72775056Y-47250500D01*
X72940225Y-47209790D01*
X73041937Y-47156407D01*
X73090849Y-47130736D01*
X73090850Y-47130734D01*
X73090852Y-47130734D01*
X73218183Y-47017929D01*
X73314818Y-46877930D01*
X73375140Y-46718872D01*
X73395645Y-46550000D01*
X73375140Y-46381128D01*
X73314818Y-46222070D01*
X73314418Y-46221491D01*
X73265579Y-46150736D01*
X73218183Y-46082071D01*
X73090852Y-45969266D01*
X73090849Y-45969263D01*
X72940226Y-45890210D01*
X72775056Y-45849500D01*
X72604944Y-45849500D01*
X72439773Y-45890210D01*
X72289150Y-45969263D01*
X72161816Y-46082072D01*
X72065182Y-46222068D01*
X72004860Y-46381125D01*
X72004859Y-46381130D01*
X71984355Y-46550000D01*
X46100101Y-46550000D01*
X46099201Y-45570000D01*
X52734355Y-45570000D01*
X52754859Y-45738869D01*
X52754860Y-45738874D01*
X52815182Y-45897931D01*
X52854716Y-45955205D01*
X52911817Y-46037929D01*
X53016573Y-46130734D01*
X53039150Y-46150736D01*
X53175062Y-46222068D01*
X53189775Y-46229790D01*
X53354944Y-46270500D01*
X53525056Y-46270500D01*
X53690225Y-46229790D01*
X53840852Y-46150734D01*
X53941619Y-46061462D01*
X54004850Y-46031741D01*
X54074114Y-46040924D01*
X54114537Y-46074357D01*
X54116843Y-46072315D01*
X54121813Y-46077925D01*
X54121816Y-46077927D01*
X54121817Y-46077929D01*
X54181422Y-46130734D01*
X54249150Y-46190736D01*
X54363021Y-46250500D01*
X54399775Y-46269790D01*
X54564944Y-46310500D01*
X54735056Y-46310500D01*
X54900225Y-46269790D01*
X55050852Y-46190734D01*
X55166636Y-46088159D01*
X55229869Y-46058437D01*
X55299133Y-46067621D01*
X55331087Y-46088156D01*
X55345021Y-46100500D01*
X55379150Y-46130736D01*
X55493465Y-46190733D01*
X55529775Y-46209790D01*
X55694944Y-46250500D01*
X55865056Y-46250500D01*
X56030225Y-46209790D01*
X56122942Y-46161128D01*
X56180849Y-46130736D01*
X56180850Y-46130734D01*
X56180852Y-46130734D01*
X56308183Y-46017929D01*
X56404818Y-45877930D01*
X56465140Y-45718872D01*
X56485645Y-45550000D01*
X56465140Y-45381128D01*
X56404818Y-45222070D01*
X56403533Y-45220209D01*
X56353869Y-45148258D01*
X56308183Y-45082071D01*
X56204493Y-44990210D01*
X56180849Y-44969263D01*
X56030226Y-44890210D01*
X55865056Y-44849500D01*
X55694944Y-44849500D01*
X55529773Y-44890210D01*
X55379149Y-44969264D01*
X55379147Y-44969266D01*
X55263362Y-45071841D01*
X55200129Y-45101562D01*
X55130866Y-45092378D01*
X55098909Y-45071841D01*
X55096002Y-45069266D01*
X55070347Y-45046537D01*
X55050849Y-45029263D01*
X54900226Y-44950210D01*
X54735056Y-44909500D01*
X54564944Y-44909500D01*
X54399773Y-44950210D01*
X54249150Y-45029264D01*
X54148381Y-45118537D01*
X54085147Y-45148258D01*
X54015884Y-45139074D01*
X53975478Y-45105628D01*
X53973157Y-45107685D01*
X53968186Y-45102074D01*
X53945608Y-45082072D01*
X53886001Y-45029264D01*
X53840849Y-44989263D01*
X53690226Y-44910210D01*
X53525056Y-44869500D01*
X53354944Y-44869500D01*
X53189773Y-44910210D01*
X53039150Y-44989263D01*
X52911816Y-45102072D01*
X52815182Y-45242068D01*
X52754860Y-45401125D01*
X52754859Y-45401130D01*
X52734355Y-45570000D01*
X46099201Y-45570000D01*
X46098273Y-44560000D01*
X65324355Y-44560000D01*
X65344859Y-44728869D01*
X65344860Y-44728874D01*
X65405182Y-44887931D01*
X65461323Y-44969264D01*
X65501817Y-45027929D01*
X65591843Y-45107685D01*
X65629150Y-45140736D01*
X65755522Y-45207061D01*
X65779775Y-45219790D01*
X65944944Y-45260500D01*
X66115056Y-45260500D01*
X66280225Y-45219790D01*
X66352092Y-45182071D01*
X66380415Y-45167206D01*
X66448923Y-45153480D01*
X66495667Y-45167206D01*
X66523990Y-45182071D01*
X66595857Y-45219790D01*
X66761026Y-45260500D01*
X66931138Y-45260500D01*
X67096307Y-45219790D01*
X67175774Y-45178081D01*
X67246931Y-45140736D01*
X67246932Y-45140734D01*
X67246934Y-45140734D01*
X67374265Y-45027929D01*
X67433923Y-44941500D01*
X74744355Y-44941500D01*
X74764859Y-45110369D01*
X74764860Y-45110374D01*
X74825182Y-45269431D01*
X74885791Y-45357236D01*
X74921817Y-45409429D01*
X75014727Y-45491740D01*
X75049150Y-45522236D01*
X75206416Y-45604776D01*
X75205089Y-45607303D01*
X75250213Y-45641453D01*
X75274287Y-45707044D01*
X75259077Y-45775238D01*
X75232786Y-45808057D01*
X75171816Y-45862071D01*
X75075182Y-46002068D01*
X75014860Y-46161125D01*
X75014859Y-46161130D01*
X74994355Y-46330000D01*
X75014859Y-46498869D01*
X75014860Y-46498874D01*
X75075182Y-46657931D01*
X75117249Y-46718874D01*
X75171817Y-46797929D01*
X75239426Y-46857825D01*
X75299150Y-46910736D01*
X75449773Y-46989789D01*
X75449775Y-46989790D01*
X75614944Y-47030500D01*
X75785056Y-47030500D01*
X75950225Y-46989790D01*
X76085347Y-46918872D01*
X76100849Y-46910736D01*
X76100850Y-46910734D01*
X76100852Y-46910734D01*
X76228183Y-46797929D01*
X76324818Y-46657930D01*
X76385140Y-46498872D01*
X76405645Y-46330000D01*
X76385140Y-46161128D01*
X76324818Y-46002070D01*
X76315711Y-45988877D01*
X76256506Y-45903104D01*
X76228183Y-45862071D01*
X76100852Y-45749266D01*
X76100849Y-45749263D01*
X75943584Y-45666724D01*
X75944907Y-45664202D01*
X75899763Y-45630016D01*
X75875710Y-45564417D01*
X75890940Y-45496228D01*
X75917212Y-45463443D01*
X75978183Y-45409429D01*
X76074818Y-45269430D01*
X76135140Y-45110372D01*
X76155645Y-44941500D01*
X76135140Y-44772628D01*
X76122855Y-44740236D01*
X76074817Y-44613568D01*
X76036396Y-44557906D01*
X75978183Y-44473571D01*
X75864649Y-44372989D01*
X75850849Y-44360763D01*
X75700226Y-44281710D01*
X75535056Y-44241000D01*
X75364944Y-44241000D01*
X75199773Y-44281710D01*
X75049150Y-44360763D01*
X74949693Y-44448875D01*
X74925293Y-44470492D01*
X74921816Y-44473572D01*
X74825182Y-44613568D01*
X74764860Y-44772625D01*
X74764859Y-44772630D01*
X74744355Y-44941500D01*
X67433923Y-44941500D01*
X67470900Y-44887930D01*
X67531222Y-44728872D01*
X67551727Y-44560000D01*
X67531222Y-44391128D01*
X67470900Y-44232070D01*
X67460969Y-44217682D01*
X67439086Y-44151330D01*
X67456550Y-44083679D01*
X67460960Y-44076816D01*
X67480900Y-44047930D01*
X67487131Y-44031500D01*
X76194355Y-44031500D01*
X76214859Y-44200369D01*
X76214860Y-44200374D01*
X76275182Y-44359431D01*
X76307417Y-44406130D01*
X76371817Y-44499429D01*
X76475987Y-44591715D01*
X76499150Y-44612236D01*
X76649773Y-44691289D01*
X76649775Y-44691290D01*
X76814944Y-44732000D01*
X76814949Y-44732000D01*
X76820584Y-44732684D01*
X76884764Y-44760301D01*
X76923824Y-44818233D01*
X76928742Y-44840834D01*
X76948997Y-45007645D01*
X76948998Y-45007651D01*
X77009320Y-45166708D01*
X77060055Y-45240209D01*
X77105955Y-45306706D01*
X77189963Y-45381130D01*
X77233288Y-45419513D01*
X77370905Y-45491740D01*
X77383913Y-45498567D01*
X77549082Y-45539277D01*
X77719194Y-45539277D01*
X77884363Y-45498567D01*
X77963830Y-45456858D01*
X78034987Y-45419513D01*
X78034988Y-45419511D01*
X78034990Y-45419511D01*
X78162321Y-45306706D01*
X78258956Y-45166707D01*
X78319278Y-45007649D01*
X78339783Y-44838777D01*
X78339783Y-44838776D01*
X78339783Y-44833051D01*
X78359468Y-44766012D01*
X78412272Y-44720257D01*
X78481430Y-44710313D01*
X78544986Y-44739338D01*
X78546010Y-44740236D01*
X78569147Y-44760733D01*
X78569149Y-44760735D01*
X78678702Y-44818233D01*
X78719775Y-44839790D01*
X78884944Y-44880500D01*
X78917275Y-44880500D01*
X78984314Y-44900185D01*
X79030069Y-44952989D01*
X79040594Y-44991534D01*
X79044326Y-45027033D01*
X79044617Y-45027929D01*
X79102818Y-45207054D01*
X79102821Y-45207061D01*
X79197467Y-45370993D01*
X79322998Y-45510409D01*
X79324129Y-45511665D01*
X79477265Y-45622925D01*
X79477270Y-45622928D01*
X79650192Y-45699919D01*
X79650197Y-45699921D01*
X79835354Y-45739277D01*
X79835355Y-45739277D01*
X80024644Y-45739277D01*
X80024646Y-45739277D01*
X80209803Y-45699921D01*
X80382730Y-45622928D01*
X80428056Y-45589996D01*
X80493862Y-45566517D01*
X80561915Y-45582342D01*
X80610610Y-45632448D01*
X80624262Y-45677353D01*
X80624540Y-45679998D01*
X80624540Y-45680000D01*
X80644326Y-45868256D01*
X80644327Y-45868259D01*
X80702818Y-46048277D01*
X80702821Y-46048284D01*
X80797467Y-46212216D01*
X80921160Y-46349591D01*
X80924129Y-46352888D01*
X81077265Y-46464148D01*
X81077270Y-46464151D01*
X81250192Y-46541142D01*
X81250197Y-46541144D01*
X81435354Y-46580500D01*
X81435355Y-46580500D01*
X81624644Y-46580500D01*
X81624646Y-46580500D01*
X81809803Y-46541144D01*
X81982730Y-46464151D01*
X82135871Y-46352888D01*
X82262533Y-46212216D01*
X82357179Y-46048284D01*
X82415674Y-45868256D01*
X82435460Y-45680000D01*
X82415674Y-45491744D01*
X82357179Y-45311716D01*
X82262533Y-45147784D01*
X82135871Y-45007112D01*
X82135870Y-45007111D01*
X81982734Y-44895851D01*
X81982729Y-44895848D01*
X81809807Y-44818857D01*
X81809802Y-44818855D01*
X81664001Y-44787865D01*
X81624646Y-44779500D01*
X81435354Y-44779500D01*
X81402897Y-44786398D01*
X81250197Y-44818855D01*
X81250192Y-44818857D01*
X81077270Y-44895848D01*
X81077266Y-44895851D01*
X81031942Y-44928780D01*
X80966135Y-44952259D01*
X80898081Y-44936432D01*
X80849387Y-44886326D01*
X80835737Y-44841422D01*
X80835459Y-44838781D01*
X80835460Y-44838777D01*
X80815674Y-44650521D01*
X80757179Y-44470493D01*
X80662533Y-44306561D01*
X80535871Y-44165889D01*
X80535870Y-44165888D01*
X80382734Y-44054628D01*
X80382729Y-44054625D01*
X80209807Y-43977634D01*
X80209802Y-43977632D01*
X80064001Y-43946642D01*
X80024646Y-43938277D01*
X79835354Y-43938277D01*
X79747028Y-43957050D01*
X79677363Y-43951734D01*
X79621630Y-43909596D01*
X79605308Y-43879731D01*
X79603543Y-43875078D01*
X79594818Y-43852070D01*
X79585709Y-43838874D01*
X79547061Y-43782883D01*
X79498183Y-43712071D01*
X79371681Y-43600000D01*
X86264355Y-43600000D01*
X86284859Y-43768869D01*
X86284860Y-43768874D01*
X86345182Y-43927931D01*
X86402608Y-44011125D01*
X86441817Y-44067929D01*
X86535958Y-44151330D01*
X86569150Y-44180736D01*
X86716446Y-44258043D01*
X86719775Y-44259790D01*
X86884944Y-44300500D01*
X86926990Y-44300500D01*
X86994029Y-44320185D01*
X87039784Y-44372989D01*
X87050086Y-44409554D01*
X87054859Y-44448869D01*
X87054860Y-44448875D01*
X87109033Y-44591716D01*
X87115182Y-44607930D01*
X87201054Y-44732336D01*
X87222936Y-44798688D01*
X87205471Y-44866339D01*
X87154204Y-44913810D01*
X87099003Y-44926774D01*
X86996007Y-44926774D01*
X86830836Y-44967484D01*
X86680213Y-45046537D01*
X86552879Y-45159346D01*
X86456245Y-45299342D01*
X86395923Y-45458399D01*
X86395922Y-45458404D01*
X86375418Y-45627274D01*
X86395922Y-45796143D01*
X86395923Y-45796148D01*
X86456245Y-45955205D01*
X86544194Y-46082620D01*
X86566077Y-46148974D01*
X86548612Y-46216626D01*
X86545485Y-46221491D01*
X86545182Y-46222068D01*
X86484860Y-46381125D01*
X86484859Y-46381130D01*
X86464355Y-46550000D01*
X86484859Y-46718869D01*
X86484860Y-46718874D01*
X86545182Y-46877931D01*
X86598519Y-46955201D01*
X86641817Y-47017929D01*
X86747505Y-47111560D01*
X86769150Y-47130736D01*
X86903612Y-47201307D01*
X86919775Y-47209790D01*
X87084944Y-47250500D01*
X87255056Y-47250500D01*
X87420225Y-47209790D01*
X87468740Y-47184326D01*
X87537247Y-47170601D01*
X87602301Y-47196093D01*
X87608593Y-47201307D01*
X87685245Y-47269215D01*
X87802460Y-47330734D01*
X87835870Y-47348269D01*
X88001039Y-47388979D01*
X88171151Y-47388979D01*
X88336320Y-47348269D01*
X88426139Y-47301128D01*
X88486944Y-47269215D01*
X88486945Y-47269213D01*
X88486947Y-47269213D01*
X88614278Y-47156408D01*
X88655734Y-47096347D01*
X88710014Y-47052360D01*
X88779462Y-47044700D01*
X88842027Y-47075803D01*
X88848384Y-47082248D01*
X88849095Y-47082888D01*
X89002231Y-47194148D01*
X89002236Y-47194151D01*
X89175158Y-47271142D01*
X89175159Y-47271142D01*
X89175163Y-47271144D01*
X89227294Y-47282224D01*
X89288774Y-47315415D01*
X89322551Y-47376578D01*
X89317899Y-47446293D01*
X89276295Y-47502425D01*
X89231187Y-47523911D01*
X89144773Y-47545210D01*
X88994150Y-47624263D01*
X88897138Y-47710209D01*
X88874562Y-47730210D01*
X88866816Y-47737072D01*
X88770182Y-47877068D01*
X88709860Y-48036125D01*
X88709859Y-48036130D01*
X88689355Y-48205000D01*
X88709859Y-48373869D01*
X88709860Y-48373874D01*
X88770182Y-48532931D01*
X88804101Y-48582070D01*
X88866817Y-48672929D01*
X88972505Y-48766560D01*
X88994150Y-48785736D01*
X89144773Y-48864789D01*
X89144775Y-48864790D01*
X89309944Y-48905500D01*
X89480054Y-48905500D01*
X89480056Y-48905500D01*
X89559024Y-48886036D01*
X89628823Y-48889105D01*
X89685886Y-48929424D01*
X89690744Y-48935988D01*
X89781817Y-49067929D01*
X89909148Y-49180734D01*
X90041930Y-49250424D01*
X90092141Y-49299007D01*
X90108116Y-49367026D01*
X90100246Y-49404188D01*
X90074860Y-49471126D01*
X90074859Y-49471130D01*
X90054355Y-49640000D01*
X90074859Y-49808869D01*
X90074860Y-49808874D01*
X90135182Y-49967931D01*
X90179455Y-50032070D01*
X90231817Y-50107929D01*
X90325726Y-50191125D01*
X90359150Y-50220736D01*
X90457609Y-50272411D01*
X90509775Y-50299790D01*
X90674944Y-50340500D01*
X90845056Y-50340500D01*
X91010225Y-50299790D01*
X91106044Y-50249500D01*
X91160849Y-50220736D01*
X91160850Y-50220734D01*
X91160852Y-50220734D01*
X91288183Y-50107929D01*
X91384818Y-49967930D01*
X91445140Y-49808872D01*
X91465645Y-49640000D01*
X91445140Y-49471128D01*
X91384818Y-49312070D01*
X91364941Y-49283274D01*
X91333642Y-49237930D01*
X91288183Y-49172071D01*
X91160852Y-49059266D01*
X91160849Y-49059263D01*
X91028070Y-48989575D01*
X90977857Y-48940990D01*
X90961883Y-48872971D01*
X90969752Y-48835814D01*
X90995140Y-48768872D01*
X91015645Y-48600000D01*
X91007272Y-48531042D01*
X91018732Y-48462119D01*
X91065636Y-48410333D01*
X91079932Y-48402817D01*
X91153639Y-48370000D01*
X91211696Y-48344151D01*
X91364837Y-48232888D01*
X91491499Y-48092216D01*
X91586145Y-47928284D01*
X91644640Y-47748256D01*
X91664426Y-47560000D01*
X91644640Y-47371744D01*
X91586145Y-47191716D01*
X91491499Y-47027784D01*
X91378061Y-46901799D01*
X91364839Y-46887114D01*
X91364838Y-46887113D01*
X91364837Y-46887112D01*
X91324522Y-46857822D01*
X91281859Y-46802495D01*
X91277350Y-46750000D01*
X95124355Y-46750000D01*
X95144859Y-46918869D01*
X95144860Y-46918874D01*
X95205182Y-47077931D01*
X95249455Y-47142070D01*
X95301817Y-47217929D01*
X95395726Y-47301125D01*
X95429150Y-47330736D01*
X95540123Y-47388979D01*
X95579775Y-47409790D01*
X95744944Y-47450500D01*
X95915056Y-47450500D01*
X96080225Y-47409790D01*
X96136224Y-47380398D01*
X96232374Y-47329936D01*
X96300882Y-47316210D01*
X96347626Y-47329936D01*
X96460123Y-47388979D01*
X96499775Y-47409790D01*
X96651304Y-47447138D01*
X96711684Y-47482294D01*
X96741889Y-47541412D01*
X96743422Y-47525957D01*
X96786813Y-47471194D01*
X96828696Y-47452067D01*
X96835054Y-47450500D01*
X96835056Y-47450500D01*
X97000225Y-47409790D01*
X97039877Y-47388979D01*
X97152374Y-47329936D01*
X97220882Y-47316210D01*
X97267626Y-47329936D01*
X97380123Y-47388979D01*
X97419775Y-47409790D01*
X97512897Y-47432742D01*
X97515732Y-47433441D01*
X97576112Y-47468597D01*
X97607901Y-47530816D01*
X97601005Y-47600345D01*
X97557614Y-47655108D01*
X97515732Y-47674235D01*
X97369776Y-47710209D01*
X97213572Y-47792192D01*
X97145063Y-47805917D01*
X97098320Y-47792191D01*
X96980226Y-47730210D01*
X96828695Y-47692861D01*
X96768314Y-47657705D01*
X96738110Y-47598585D01*
X96736577Y-47614042D01*
X96693186Y-47668805D01*
X96651304Y-47687932D01*
X96479773Y-47730210D01*
X96329150Y-47809263D01*
X96201816Y-47922072D01*
X96105182Y-48062068D01*
X96044860Y-48221125D01*
X96044859Y-48221130D01*
X96024355Y-48390000D01*
X96044859Y-48558869D01*
X96044860Y-48558874D01*
X96105182Y-48717931D01*
X96140343Y-48768869D01*
X96201817Y-48857929D01*
X96289932Y-48935992D01*
X96329150Y-48970736D01*
X96479773Y-49049789D01*
X96479775Y-49049790D01*
X96644944Y-49090500D01*
X96815056Y-49090500D01*
X96980225Y-49049790D01*
X97130852Y-48970734D01*
X97130854Y-48970731D01*
X97136425Y-48967808D01*
X97204934Y-48954082D01*
X97251678Y-48967808D01*
X97369773Y-49029789D01*
X97369775Y-49029790D01*
X97534944Y-49070500D01*
X97705056Y-49070500D01*
X97870225Y-49029790D01*
X97988321Y-48967808D01*
X98020849Y-48950736D01*
X98020850Y-48950734D01*
X98020852Y-48950734D01*
X98148183Y-48837929D01*
X98244818Y-48697930D01*
X98305140Y-48538872D01*
X98325645Y-48370000D01*
X98305140Y-48201128D01*
X98293524Y-48170500D01*
X98251552Y-48059827D01*
X98244818Y-48042070D01*
X98240714Y-48036125D01*
X98172934Y-47937929D01*
X98148183Y-47902071D01*
X98053316Y-47818026D01*
X98020849Y-47789263D01*
X97870227Y-47710210D01*
X97774266Y-47686558D01*
X97713886Y-47651401D01*
X97682098Y-47589182D01*
X97688994Y-47519653D01*
X97732386Y-47464891D01*
X97774264Y-47445765D01*
X97920225Y-47409790D01*
X97959877Y-47388979D01*
X98070849Y-47330736D01*
X98070850Y-47330734D01*
X98070852Y-47330734D01*
X98198183Y-47217929D01*
X98294818Y-47077930D01*
X98355140Y-46918872D01*
X98375645Y-46750000D01*
X98355140Y-46581128D01*
X98339975Y-46541142D01*
X98333231Y-46523358D01*
X98294818Y-46422070D01*
X98259533Y-46370952D01*
X98237650Y-46304599D01*
X98255115Y-46236947D01*
X98259518Y-46230095D01*
X98274818Y-46207930D01*
X98327644Y-46068636D01*
X98369822Y-46012934D01*
X98435419Y-45988877D01*
X98501212Y-46002812D01*
X98607197Y-46058437D01*
X98609775Y-46059790D01*
X98774944Y-46100500D01*
X98945056Y-46100500D01*
X99110225Y-46059790D01*
X99199501Y-46012934D01*
X99260849Y-45980736D01*
X99260850Y-45980734D01*
X99260852Y-45980734D01*
X99388183Y-45867929D01*
X99484818Y-45727930D01*
X99545140Y-45568872D01*
X99565645Y-45400000D01*
X99545140Y-45231128D01*
X99540999Y-45220210D01*
X99513711Y-45148256D01*
X99484818Y-45072070D01*
X99454349Y-45027929D01*
X99429230Y-44991538D01*
X99388183Y-44932071D01*
X99284018Y-44839789D01*
X99260849Y-44819263D01*
X99110226Y-44740210D01*
X98945056Y-44699500D01*
X98774944Y-44699500D01*
X98609773Y-44740210D01*
X98459150Y-44819263D01*
X98331816Y-44932072D01*
X98235183Y-45072067D01*
X98182355Y-45211363D01*
X98140177Y-45267065D01*
X98074579Y-45291122D01*
X98008787Y-45277188D01*
X97900223Y-45220209D01*
X97735056Y-45179500D01*
X97564944Y-45179500D01*
X97399773Y-45220210D01*
X97249144Y-45299267D01*
X97247593Y-45300338D01*
X97246279Y-45300771D01*
X97242507Y-45302751D01*
X97242177Y-45302123D01*
X97181236Y-45322215D01*
X97119536Y-45308078D01*
X96990226Y-45240210D01*
X96825056Y-45199500D01*
X96654944Y-45199500D01*
X96489774Y-45240209D01*
X96381678Y-45296943D01*
X96313170Y-45310667D01*
X96266427Y-45296943D01*
X96120223Y-45220209D01*
X95955056Y-45179500D01*
X95784944Y-45179500D01*
X95619773Y-45220210D01*
X95469150Y-45299263D01*
X95376742Y-45381130D01*
X95344802Y-45409427D01*
X95341816Y-45412072D01*
X95245182Y-45552068D01*
X95184860Y-45711125D01*
X95184859Y-45711130D01*
X95164355Y-45880000D01*
X95184859Y-46048869D01*
X95184860Y-46048874D01*
X95245182Y-46207931D01*
X95250465Y-46215584D01*
X95272348Y-46281939D01*
X95254882Y-46349591D01*
X95250466Y-46356463D01*
X95205182Y-46422069D01*
X95144860Y-46581125D01*
X95144859Y-46581130D01*
X95124355Y-46750000D01*
X91277350Y-46750000D01*
X91275880Y-46732882D01*
X91295359Y-46687067D01*
X91383784Y-46558964D01*
X91444106Y-46399906D01*
X91464611Y-46231034D01*
X91444106Y-46062162D01*
X91443206Y-46059790D01*
X91383783Y-45903102D01*
X91309957Y-45796148D01*
X91287149Y-45763105D01*
X91159818Y-45650300D01*
X91159815Y-45650297D01*
X91009192Y-45571244D01*
X90844022Y-45530534D01*
X90673910Y-45530534D01*
X90508739Y-45571244D01*
X90361435Y-45648556D01*
X90292927Y-45662282D01*
X90227873Y-45636789D01*
X90186929Y-45580174D01*
X90183093Y-45510409D01*
X90196420Y-45476762D01*
X90282145Y-45328284D01*
X90340640Y-45148256D01*
X90360426Y-44960000D01*
X90340640Y-44771744D01*
X90282145Y-44591716D01*
X90272494Y-44575000D01*
X93194355Y-44575000D01*
X93214859Y-44743869D01*
X93214860Y-44743874D01*
X93275182Y-44902931D01*
X93320969Y-44969264D01*
X93371817Y-45042929D01*
X93447945Y-45110372D01*
X93499150Y-45155736D01*
X93649773Y-45234789D01*
X93649775Y-45234790D01*
X93814944Y-45275500D01*
X93985056Y-45275500D01*
X94150225Y-45234790D01*
X94255570Y-45179500D01*
X94300849Y-45155736D01*
X94300850Y-45155734D01*
X94300852Y-45155734D01*
X94428183Y-45042929D01*
X94524818Y-44902930D01*
X94585140Y-44743872D01*
X94605645Y-44575000D01*
X94585140Y-44406128D01*
X94569508Y-44364911D01*
X94564142Y-44295248D01*
X94597290Y-44233742D01*
X94658428Y-44199921D01*
X94707392Y-44200461D01*
X94707498Y-44199596D01*
X94714943Y-44200500D01*
X94714944Y-44200500D01*
X94885056Y-44200500D01*
X95050225Y-44159790D01*
X95142942Y-44111128D01*
X95200849Y-44080736D01*
X95200850Y-44080734D01*
X95200852Y-44080734D01*
X95328183Y-43967929D01*
X95424818Y-43827930D01*
X95441907Y-43782870D01*
X106494500Y-43782870D01*
X106494501Y-43782876D01*
X106500908Y-43842483D01*
X106551202Y-43977328D01*
X106551206Y-43977335D01*
X106637452Y-44092544D01*
X106637455Y-44092547D01*
X106752664Y-44178793D01*
X106752671Y-44178797D01*
X106887517Y-44229091D01*
X106887516Y-44229091D01*
X106894444Y-44229835D01*
X106947127Y-44235500D01*
X107892872Y-44235499D01*
X107952483Y-44229091D01*
X108087331Y-44178796D01*
X108202546Y-44092546D01*
X108288796Y-43977331D01*
X108339091Y-43842483D01*
X108345500Y-43782873D01*
X108345499Y-42837128D01*
X108339091Y-42777517D01*
X108306030Y-42688877D01*
X108288797Y-42642671D01*
X108288793Y-42642664D01*
X108202547Y-42527455D01*
X108202544Y-42527452D01*
X108087335Y-42441206D01*
X108087328Y-42441202D01*
X107952482Y-42390908D01*
X107952483Y-42390908D01*
X107892883Y-42384501D01*
X107892881Y-42384500D01*
X107892873Y-42384500D01*
X107892864Y-42384500D01*
X106947129Y-42384500D01*
X106947123Y-42384501D01*
X106887516Y-42390908D01*
X106752671Y-42441202D01*
X106752664Y-42441206D01*
X106637455Y-42527452D01*
X106637452Y-42527455D01*
X106551206Y-42642664D01*
X106551202Y-42642671D01*
X106500908Y-42777517D01*
X106498545Y-42799500D01*
X106494501Y-42837123D01*
X106494500Y-42837135D01*
X106494500Y-43782870D01*
X95441907Y-43782870D01*
X95485140Y-43668872D01*
X95505645Y-43500000D01*
X95485140Y-43331128D01*
X95485091Y-43331000D01*
X95432695Y-43192840D01*
X95424818Y-43172070D01*
X95406570Y-43145634D01*
X95364247Y-43084319D01*
X95328183Y-43032071D01*
X95210465Y-42927782D01*
X95200849Y-42919263D01*
X95050226Y-42840210D01*
X94885056Y-42799500D01*
X94714944Y-42799500D01*
X94549773Y-42840210D01*
X94399150Y-42919263D01*
X94271816Y-43032072D01*
X94175182Y-43172068D01*
X94114860Y-43331125D01*
X94114859Y-43331130D01*
X94094355Y-43500000D01*
X94114859Y-43668869D01*
X94114860Y-43668873D01*
X94130491Y-43710089D01*
X94135857Y-43779752D01*
X94102708Y-43841258D01*
X94041569Y-43875078D01*
X93992606Y-43874539D01*
X93992502Y-43875404D01*
X93985056Y-43874500D01*
X93814944Y-43874500D01*
X93649773Y-43915210D01*
X93499150Y-43994263D01*
X93371816Y-44107072D01*
X93275182Y-44247068D01*
X93214860Y-44406125D01*
X93214859Y-44406130D01*
X93194355Y-44575000D01*
X90272494Y-44575000D01*
X90187499Y-44427784D01*
X90060837Y-44287112D01*
X90053402Y-44281710D01*
X89907700Y-44175851D01*
X89907695Y-44175848D01*
X89734773Y-44098857D01*
X89734768Y-44098855D01*
X89562874Y-44062319D01*
X89549612Y-44059500D01*
X89360320Y-44059500D01*
X89347058Y-44062319D01*
X89175163Y-44098855D01*
X89175158Y-44098857D01*
X89002236Y-44175848D01*
X89002231Y-44175851D01*
X88849095Y-44287111D01*
X88722432Y-44427785D01*
X88647307Y-44557906D01*
X88596740Y-44606122D01*
X88528133Y-44619345D01*
X88463268Y-44593377D01*
X88422740Y-44536463D01*
X88419415Y-44466672D01*
X88423976Y-44451939D01*
X88425140Y-44448872D01*
X88445645Y-44280000D01*
X88425140Y-44111128D01*
X88424700Y-44109969D01*
X88387214Y-44011125D01*
X88364818Y-43952070D01*
X88355297Y-43938277D01*
X88321193Y-43888869D01*
X88268183Y-43812071D01*
X88153069Y-43710089D01*
X88140849Y-43699263D01*
X87990226Y-43620210D01*
X87825056Y-43579500D01*
X87783010Y-43579500D01*
X87715971Y-43559815D01*
X87670216Y-43507011D01*
X87659914Y-43470446D01*
X87655140Y-43431128D01*
X87655139Y-43431125D01*
X87655139Y-43431124D01*
X87627106Y-43357208D01*
X87621739Y-43287545D01*
X87654886Y-43226039D01*
X87716025Y-43192217D01*
X87772721Y-43192839D01*
X87884944Y-43220500D01*
X88055056Y-43220500D01*
X88220225Y-43179790D01*
X88313689Y-43130736D01*
X88370849Y-43100736D01*
X88370850Y-43100734D01*
X88370852Y-43100734D01*
X88498183Y-42987929D01*
X88594818Y-42847930D01*
X88655140Y-42688872D01*
X88663557Y-42619553D01*
X88691179Y-42555375D01*
X88699152Y-42550000D01*
X91864355Y-42550000D01*
X91884859Y-42718869D01*
X91884860Y-42718874D01*
X91945182Y-42877931D01*
X91988171Y-42940210D01*
X92041817Y-43017929D01*
X92135285Y-43100734D01*
X92169150Y-43130736D01*
X92319773Y-43209789D01*
X92319775Y-43209790D01*
X92484944Y-43250500D01*
X92655056Y-43250500D01*
X92820225Y-43209790D01*
X92968305Y-43132071D01*
X92970849Y-43130736D01*
X92970850Y-43130734D01*
X92970852Y-43130734D01*
X93098183Y-43017929D01*
X93194818Y-42877930D01*
X93255140Y-42718872D01*
X93275645Y-42550000D01*
X93255140Y-42381128D01*
X93228734Y-42311502D01*
X93223368Y-42241841D01*
X93255075Y-42183006D01*
X93192626Y-42178884D01*
X93136464Y-42137320D01*
X93133272Y-42132906D01*
X93125496Y-42121641D01*
X93098183Y-42082071D01*
X92981695Y-41978872D01*
X92970849Y-41969263D01*
X92820226Y-41890210D01*
X92655056Y-41849500D01*
X92484944Y-41849500D01*
X92319773Y-41890210D01*
X92169150Y-41969263D01*
X92041816Y-42082072D01*
X91945182Y-42222068D01*
X91884860Y-42381125D01*
X91884859Y-42381130D01*
X91864355Y-42550000D01*
X88699152Y-42550000D01*
X88749113Y-42516319D01*
X88786653Y-42510500D01*
X88945056Y-42510500D01*
X89110225Y-42469790D01*
X89260519Y-42390909D01*
X89260849Y-42390736D01*
X89260850Y-42390734D01*
X89260852Y-42390734D01*
X89388183Y-42277929D01*
X89484818Y-42137930D01*
X89545140Y-41978872D01*
X89554751Y-41899718D01*
X89582371Y-41835542D01*
X89640305Y-41796485D01*
X89710158Y-41794950D01*
X89728281Y-41801386D01*
X89750197Y-41811144D01*
X89935354Y-41850500D01*
X89935355Y-41850500D01*
X90124644Y-41850500D01*
X90124646Y-41850500D01*
X90309803Y-41811144D01*
X90379753Y-41780000D01*
X93304355Y-41780000D01*
X93324859Y-41948869D01*
X93324861Y-41948877D01*
X93351264Y-42018496D01*
X93356631Y-42088159D01*
X93324923Y-42146992D01*
X93387372Y-42151115D01*
X93443534Y-42192678D01*
X93446716Y-42197077D01*
X93481817Y-42247929D01*
X93553579Y-42311504D01*
X93609150Y-42360736D01*
X93759773Y-42439789D01*
X93759775Y-42439790D01*
X93924944Y-42480500D01*
X94095056Y-42480500D01*
X94260225Y-42439790D01*
X94353689Y-42390736D01*
X94410849Y-42360736D01*
X94410850Y-42360734D01*
X94410852Y-42360734D01*
X94538183Y-42247929D01*
X94634818Y-42107930D01*
X94695140Y-41948872D01*
X94715645Y-41780000D01*
X94695140Y-41611128D01*
X94634818Y-41452070D01*
X94538183Y-41312071D01*
X94410852Y-41199266D01*
X94410849Y-41199263D01*
X94260226Y-41120210D01*
X94095056Y-41079500D01*
X93924944Y-41079500D01*
X93759773Y-41120210D01*
X93609150Y-41199263D01*
X93525176Y-41273658D01*
X93481821Y-41312068D01*
X93481816Y-41312072D01*
X93385182Y-41452068D01*
X93324860Y-41611125D01*
X93324859Y-41611130D01*
X93304355Y-41780000D01*
X90379753Y-41780000D01*
X90482730Y-41734151D01*
X90635871Y-41622888D01*
X90762533Y-41482216D01*
X90857179Y-41318284D01*
X90915674Y-41138256D01*
X90935460Y-40950000D01*
X90915674Y-40761744D01*
X90915671Y-40761736D01*
X90915063Y-40755946D01*
X90927632Y-40687216D01*
X90975364Y-40636192D01*
X91008704Y-40622589D01*
X91166259Y-40583756D01*
X91316883Y-40504702D01*
X91316884Y-40504700D01*
X91316886Y-40504700D01*
X91444217Y-40391895D01*
X91540852Y-40251896D01*
X91601174Y-40092838D01*
X91621679Y-39923966D01*
X91601174Y-39755094D01*
X91540852Y-39596036D01*
X91444217Y-39456037D01*
X91316886Y-39343232D01*
X91316883Y-39343229D01*
X91166260Y-39264176D01*
X91001090Y-39223466D01*
X90830978Y-39223466D01*
X90665807Y-39264176D01*
X90515184Y-39343229D01*
X90387850Y-39456038D01*
X90291216Y-39596034D01*
X90230894Y-39755091D01*
X90230893Y-39755096D01*
X90210389Y-39923966D01*
X90210389Y-39925500D01*
X90210071Y-39926580D01*
X90209485Y-39931412D01*
X90208681Y-39931314D01*
X90190704Y-39992539D01*
X90137900Y-40038294D01*
X90086389Y-40049500D01*
X89935354Y-40049500D01*
X89903395Y-40056292D01*
X89833731Y-40050976D01*
X89777997Y-40008838D01*
X89770231Y-39997002D01*
X89752003Y-39965431D01*
X89672533Y-39827784D01*
X89545871Y-39687112D01*
X89545870Y-39687111D01*
X89392734Y-39575851D01*
X89392729Y-39575848D01*
X89219807Y-39498857D01*
X89219802Y-39498855D01*
X89074001Y-39467865D01*
X89034646Y-39459500D01*
X88845354Y-39459500D01*
X88812897Y-39466398D01*
X88660197Y-39498855D01*
X88660192Y-39498857D01*
X88487270Y-39575848D01*
X88487265Y-39575851D01*
X88334129Y-39687111D01*
X88207466Y-39827785D01*
X88112821Y-39991715D01*
X88112818Y-39991722D01*
X88054327Y-40171740D01*
X88054326Y-40171744D01*
X88034540Y-40360000D01*
X88054326Y-40548256D01*
X88054327Y-40548259D01*
X88112818Y-40728277D01*
X88112821Y-40728284D01*
X88207467Y-40892216D01*
X88314702Y-41011312D01*
X88334129Y-41032888D01*
X88399696Y-41080525D01*
X88442362Y-41135854D01*
X88448341Y-41205468D01*
X88415736Y-41267263D01*
X88409039Y-41273658D01*
X88331816Y-41342071D01*
X88235182Y-41482068D01*
X88174860Y-41641125D01*
X88174859Y-41641130D01*
X88166443Y-41710447D01*
X88138821Y-41774625D01*
X88080887Y-41813681D01*
X88043347Y-41819500D01*
X87884944Y-41819500D01*
X87719773Y-41860210D01*
X87569150Y-41939263D01*
X87441816Y-42052072D01*
X87345182Y-42192068D01*
X87284860Y-42351125D01*
X87284859Y-42351130D01*
X87264355Y-42520000D01*
X87284859Y-42688869D01*
X87284861Y-42688877D01*
X87312893Y-42762792D01*
X87318260Y-42832455D01*
X87285112Y-42893961D01*
X87223973Y-42927782D01*
X87167277Y-42927159D01*
X87055057Y-42899500D01*
X87055056Y-42899500D01*
X86884944Y-42899500D01*
X86719773Y-42940210D01*
X86569150Y-43019263D01*
X86441816Y-43132072D01*
X86345182Y-43272068D01*
X86284860Y-43431125D01*
X86284859Y-43431130D01*
X86264355Y-43600000D01*
X79371681Y-43600000D01*
X79370852Y-43599266D01*
X79370849Y-43599263D01*
X79220226Y-43520210D01*
X79055056Y-43479500D01*
X78884944Y-43479500D01*
X78719773Y-43520210D01*
X78569150Y-43599263D01*
X78441816Y-43712072D01*
X78345182Y-43852068D01*
X78284860Y-44011125D01*
X78284859Y-44011130D01*
X78264355Y-44180000D01*
X78264355Y-44185725D01*
X78244670Y-44252764D01*
X78191866Y-44298519D01*
X78122708Y-44308463D01*
X78059152Y-44279438D01*
X78058130Y-44278542D01*
X78034990Y-44258043D01*
X78034988Y-44258041D01*
X77884364Y-44178987D01*
X77719192Y-44138276D01*
X77713545Y-44137591D01*
X77649367Y-44109969D01*
X77610310Y-44052035D01*
X77605395Y-44029442D01*
X77603997Y-44017930D01*
X77585140Y-43862628D01*
X77583714Y-43858869D01*
X77524817Y-43703568D01*
X77453328Y-43600000D01*
X77428183Y-43563571D01*
X77300852Y-43450766D01*
X77300849Y-43450763D01*
X77150226Y-43371710D01*
X76985056Y-43331000D01*
X76814944Y-43331000D01*
X76649773Y-43371710D01*
X76499150Y-43450763D01*
X76371816Y-43563572D01*
X76275182Y-43703568D01*
X76214860Y-43862625D01*
X76214859Y-43862630D01*
X76194355Y-44031500D01*
X67487131Y-44031500D01*
X67541222Y-43888872D01*
X67561727Y-43720000D01*
X67541222Y-43551128D01*
X67529496Y-43520210D01*
X67495713Y-43431130D01*
X67480900Y-43392070D01*
X67466846Y-43371710D01*
X67398069Y-43272070D01*
X67384265Y-43252071D01*
X67266713Y-43147929D01*
X67256931Y-43139263D01*
X67106308Y-43060210D01*
X66941138Y-43019500D01*
X66771026Y-43019500D01*
X66605856Y-43060209D01*
X66505666Y-43112794D01*
X66437158Y-43126519D01*
X66390416Y-43112794D01*
X66290225Y-43060209D01*
X66125056Y-43019500D01*
X65954944Y-43019500D01*
X65789773Y-43060210D01*
X65639150Y-43139263D01*
X65511816Y-43252072D01*
X65415182Y-43392068D01*
X65354860Y-43551125D01*
X65354859Y-43551130D01*
X65334355Y-43720000D01*
X65354859Y-43888869D01*
X65354860Y-43888874D01*
X65415182Y-44047931D01*
X65415184Y-44047933D01*
X65425113Y-44062319D01*
X65446994Y-44128674D01*
X65429527Y-44196325D01*
X65425113Y-44203194D01*
X65405182Y-44232069D01*
X65344860Y-44391125D01*
X65344859Y-44391130D01*
X65324355Y-44560000D01*
X46098273Y-44560000D01*
X46097474Y-43690000D01*
X52494355Y-43690000D01*
X52514859Y-43858869D01*
X52514860Y-43858874D01*
X52575182Y-44017931D01*
X52631042Y-44098857D01*
X52671817Y-44157929D01*
X52722911Y-44203194D01*
X52799150Y-44270736D01*
X52948026Y-44348872D01*
X52949775Y-44349790D01*
X53114944Y-44390500D01*
X53285056Y-44390500D01*
X53450225Y-44349790D01*
X53591430Y-44275678D01*
X53659933Y-44261954D01*
X53706677Y-44275679D01*
X53809775Y-44329790D01*
X53974944Y-44370500D01*
X54145056Y-44370500D01*
X54310225Y-44329790D01*
X54427377Y-44268303D01*
X54495881Y-44254578D01*
X54542621Y-44268302D01*
X54659775Y-44329790D01*
X54824944Y-44370500D01*
X54995056Y-44370500D01*
X55160225Y-44329790D01*
X55277376Y-44268304D01*
X55310849Y-44250736D01*
X55310850Y-44250734D01*
X55310852Y-44250734D01*
X55438183Y-44137929D01*
X55534818Y-43997930D01*
X55595140Y-43838872D01*
X55615645Y-43670000D01*
X55595140Y-43501128D01*
X55534818Y-43342070D01*
X55533244Y-43339790D01*
X55472696Y-43252072D01*
X55438183Y-43202071D01*
X55335000Y-43110659D01*
X55310849Y-43089263D01*
X55160226Y-43010210D01*
X54995056Y-42969500D01*
X54824944Y-42969500D01*
X54659776Y-43010209D01*
X54542626Y-43071695D01*
X54474117Y-43085420D01*
X54427374Y-43071695D01*
X54310223Y-43010209D01*
X54145056Y-42969500D01*
X53974944Y-42969500D01*
X53809774Y-43010209D01*
X53668571Y-43084319D01*
X53600063Y-43098043D01*
X53553320Y-43084319D01*
X53450223Y-43030209D01*
X53285056Y-42989500D01*
X53114944Y-42989500D01*
X52949773Y-43030210D01*
X52799150Y-43109263D01*
X52671816Y-43222072D01*
X52575182Y-43362068D01*
X52514860Y-43521125D01*
X52514859Y-43521130D01*
X52494355Y-43690000D01*
X46097474Y-43690000D01*
X46096546Y-42680000D01*
X63744355Y-42680000D01*
X63764859Y-42848869D01*
X63764860Y-42848874D01*
X63825182Y-43007931D01*
X63881325Y-43089266D01*
X63921817Y-43147929D01*
X64027505Y-43241560D01*
X64049150Y-43260736D01*
X64183027Y-43331000D01*
X64199775Y-43339790D01*
X64364944Y-43380500D01*
X64535056Y-43380500D01*
X64700225Y-43339790D01*
X64779692Y-43298081D01*
X64850849Y-43260736D01*
X64850850Y-43260734D01*
X64850852Y-43260734D01*
X64978183Y-43147929D01*
X65074818Y-43007930D01*
X65135140Y-42848872D01*
X65155645Y-42680000D01*
X65135140Y-42511128D01*
X65123524Y-42480500D01*
X65108085Y-42439789D01*
X65074818Y-42352070D01*
X65074169Y-42351130D01*
X65002934Y-42247929D01*
X64978183Y-42212071D01*
X64860631Y-42107929D01*
X64850849Y-42099263D01*
X64700226Y-42020210D01*
X64535056Y-41979500D01*
X64364944Y-41979500D01*
X64199773Y-42020210D01*
X64049150Y-42099263D01*
X63921816Y-42212072D01*
X63825182Y-42352068D01*
X63764860Y-42511125D01*
X63764859Y-42511130D01*
X63744355Y-42680000D01*
X46096546Y-42680000D01*
X46095591Y-41640000D01*
X65384355Y-41640000D01*
X65404859Y-41808869D01*
X65404860Y-41808874D01*
X65465182Y-41967931D01*
X65506901Y-42028370D01*
X65561817Y-42107929D01*
X65624813Y-42163738D01*
X65689150Y-42220736D01*
X65802240Y-42280090D01*
X65839775Y-42299790D01*
X66004944Y-42340500D01*
X66175056Y-42340500D01*
X66340225Y-42299790D01*
X66439041Y-42247927D01*
X66440415Y-42247206D01*
X66508923Y-42233480D01*
X66555667Y-42247206D01*
X66618322Y-42280090D01*
X66655857Y-42299790D01*
X66821026Y-42340500D01*
X66991138Y-42340500D01*
X67156307Y-42299790D01*
X67255123Y-42247927D01*
X67306931Y-42220736D01*
X67306932Y-42220734D01*
X67306934Y-42220734D01*
X67434265Y-42107929D01*
X67530900Y-41967930D01*
X67591222Y-41808872D01*
X67611727Y-41640000D01*
X67591222Y-41471128D01*
X67556507Y-41379590D01*
X77212854Y-41379590D01*
X77232640Y-41567846D01*
X77232641Y-41567849D01*
X77291132Y-41747867D01*
X77291135Y-41747874D01*
X77385781Y-41911806D01*
X77483389Y-42020210D01*
X77512443Y-42052478D01*
X77665579Y-42163738D01*
X77665584Y-42163741D01*
X77838506Y-42240732D01*
X77838511Y-42240734D01*
X78023668Y-42280090D01*
X78023669Y-42280090D01*
X78212958Y-42280090D01*
X78212960Y-42280090D01*
X78398117Y-42240734D01*
X78571044Y-42163741D01*
X78611149Y-42134602D01*
X78676954Y-42111122D01*
X78734471Y-42121640D01*
X78759191Y-42132647D01*
X78944348Y-42172003D01*
X78944349Y-42172003D01*
X79133638Y-42172003D01*
X79133640Y-42172003D01*
X79318797Y-42132647D01*
X79473989Y-42063549D01*
X79543239Y-42054265D01*
X79574856Y-42063548D01*
X79685986Y-42113027D01*
X79871143Y-42152383D01*
X79871144Y-42152383D01*
X80060433Y-42152383D01*
X80060435Y-42152383D01*
X80245592Y-42113027D01*
X80418519Y-42036034D01*
X80429067Y-42028369D01*
X80494873Y-42004888D01*
X80552392Y-42015407D01*
X80581507Y-42028370D01*
X80610197Y-42041144D01*
X80795354Y-42080500D01*
X80795355Y-42080500D01*
X80984644Y-42080500D01*
X80984646Y-42080500D01*
X81169803Y-42041144D01*
X81342730Y-41964151D01*
X81495871Y-41852888D01*
X81622533Y-41712216D01*
X81717179Y-41548284D01*
X81775674Y-41368256D01*
X81795460Y-41180000D01*
X81775674Y-40991744D01*
X81717179Y-40811716D01*
X81622533Y-40647784D01*
X81495871Y-40507112D01*
X81492554Y-40504702D01*
X81342734Y-40395851D01*
X81342729Y-40395848D01*
X81169807Y-40318857D01*
X81169802Y-40318855D01*
X81024001Y-40287865D01*
X80984646Y-40279500D01*
X80795354Y-40279500D01*
X80762897Y-40286398D01*
X80610197Y-40318855D01*
X80610192Y-40318857D01*
X80437270Y-40395848D01*
X80426712Y-40403519D01*
X80360904Y-40426994D01*
X80303397Y-40416475D01*
X80245596Y-40390740D01*
X80245591Y-40390738D01*
X80099790Y-40359748D01*
X80060435Y-40351383D01*
X79871143Y-40351383D01*
X79838686Y-40358281D01*
X79685986Y-40390738D01*
X79530794Y-40459835D01*
X79461544Y-40469119D01*
X79429924Y-40459835D01*
X79318796Y-40410358D01*
X79172995Y-40379368D01*
X79133640Y-40371003D01*
X78944348Y-40371003D01*
X78911891Y-40377901D01*
X78759191Y-40410358D01*
X78759186Y-40410360D01*
X78586265Y-40487351D01*
X78546155Y-40516492D01*
X78480348Y-40539970D01*
X78422836Y-40529452D01*
X78398117Y-40518446D01*
X78398115Y-40518445D01*
X78398114Y-40518445D01*
X78244462Y-40485786D01*
X78212960Y-40479090D01*
X78023668Y-40479090D01*
X77992166Y-40485786D01*
X77838511Y-40518445D01*
X77838506Y-40518447D01*
X77665584Y-40595438D01*
X77665579Y-40595441D01*
X77512443Y-40706701D01*
X77385780Y-40847375D01*
X77291135Y-41011305D01*
X77291132Y-41011312D01*
X77232641Y-41191330D01*
X77232640Y-41191334D01*
X77212854Y-41379590D01*
X67556507Y-41379590D01*
X67530900Y-41312070D01*
X67521380Y-41298278D01*
X67499497Y-41231923D01*
X67516962Y-41164271D01*
X67521367Y-41157415D01*
X67534818Y-41137930D01*
X67595140Y-40978872D01*
X67615645Y-40810000D01*
X67595140Y-40641128D01*
X67588108Y-40622587D01*
X67544315Y-40507112D01*
X67534818Y-40482070D01*
X67438183Y-40342071D01*
X67310852Y-40229266D01*
X67310849Y-40229263D01*
X67160226Y-40150210D01*
X66995056Y-40109500D01*
X66824944Y-40109500D01*
X66659774Y-40150209D01*
X66559584Y-40202794D01*
X66491076Y-40216519D01*
X66444334Y-40202794D01*
X66344143Y-40150209D01*
X66178974Y-40109500D01*
X66008862Y-40109500D01*
X65843691Y-40150210D01*
X65693068Y-40229263D01*
X65565734Y-40342072D01*
X65469100Y-40482068D01*
X65408778Y-40641125D01*
X65408777Y-40641130D01*
X65388273Y-40810000D01*
X65408777Y-40978869D01*
X65408778Y-40978874D01*
X65469100Y-41137931D01*
X65469103Y-41137936D01*
X65478619Y-41151722D01*
X65500502Y-41218076D01*
X65483036Y-41285728D01*
X65478622Y-41292597D01*
X65465183Y-41312067D01*
X65465182Y-41312068D01*
X65404860Y-41471125D01*
X65404859Y-41471130D01*
X65384355Y-41640000D01*
X46095591Y-41640000D01*
X46092716Y-38510000D01*
X52434355Y-38510000D01*
X52454859Y-38678869D01*
X52454860Y-38678874D01*
X52515182Y-38837931D01*
X52569969Y-38917302D01*
X52611817Y-38977929D01*
X52714999Y-39069340D01*
X52739150Y-39090736D01*
X52883049Y-39166260D01*
X52889775Y-39169790D01*
X53054944Y-39210500D01*
X53225056Y-39210500D01*
X53390225Y-39169790D01*
X53507377Y-39108303D01*
X53575881Y-39094578D01*
X53622621Y-39108302D01*
X53739775Y-39169790D01*
X53904944Y-39210500D01*
X54075056Y-39210500D01*
X54240225Y-39169790D01*
X54347375Y-39113552D01*
X54415882Y-39099827D01*
X54462623Y-39113552D01*
X54569775Y-39169790D01*
X54734944Y-39210500D01*
X54905056Y-39210500D01*
X55070225Y-39169790D01*
X55149692Y-39128081D01*
X55220849Y-39090736D01*
X55220850Y-39090734D01*
X55220852Y-39090734D01*
X55348183Y-38977929D01*
X55444818Y-38837930D01*
X55505140Y-38678872D01*
X55525645Y-38510000D01*
X55505140Y-38341128D01*
X55444818Y-38182070D01*
X55348183Y-38042071D01*
X55220852Y-37929266D01*
X55220849Y-37929263D01*
X55070226Y-37850210D01*
X54905056Y-37809500D01*
X54734944Y-37809500D01*
X54569773Y-37850210D01*
X54462626Y-37906446D01*
X54394118Y-37920172D01*
X54347374Y-37906446D01*
X54240226Y-37850210D01*
X54075056Y-37809500D01*
X53904944Y-37809500D01*
X53739776Y-37850209D01*
X53622626Y-37911695D01*
X53554117Y-37925420D01*
X53507374Y-37911695D01*
X53390223Y-37850209D01*
X53225056Y-37809500D01*
X53054944Y-37809500D01*
X52889773Y-37850210D01*
X52739150Y-37929263D01*
X52611816Y-38042072D01*
X52515182Y-38182068D01*
X52454860Y-38341125D01*
X52454859Y-38341130D01*
X52434355Y-38510000D01*
X46092716Y-38510000D01*
X46090971Y-36610000D01*
X52674355Y-36610000D01*
X52694859Y-36778869D01*
X52694860Y-36778874D01*
X52755182Y-36937931D01*
X52788805Y-36986641D01*
X52851817Y-37077929D01*
X52950100Y-37165000D01*
X52979150Y-37190736D01*
X53129773Y-37269789D01*
X53129775Y-37269790D01*
X53294944Y-37310500D01*
X53465056Y-37310500D01*
X53630225Y-37269790D01*
X53780852Y-37190734D01*
X53881619Y-37101462D01*
X53944850Y-37071741D01*
X54014114Y-37080924D01*
X54054537Y-37114357D01*
X54056843Y-37112315D01*
X54061813Y-37117925D01*
X54061816Y-37117927D01*
X54061817Y-37117929D01*
X54121422Y-37170734D01*
X54189150Y-37230736D01*
X54303021Y-37290500D01*
X54339775Y-37309790D01*
X54504944Y-37350500D01*
X54675056Y-37350500D01*
X54840225Y-37309790D01*
X54990852Y-37230734D01*
X55106636Y-37128159D01*
X55169869Y-37098437D01*
X55239133Y-37107621D01*
X55271087Y-37128156D01*
X55271091Y-37128159D01*
X55319150Y-37170736D01*
X55433465Y-37230733D01*
X55469775Y-37249790D01*
X55634944Y-37290500D01*
X55805056Y-37290500D01*
X55970225Y-37249790D01*
X56082746Y-37190734D01*
X56120849Y-37170736D01*
X56120850Y-37170734D01*
X56120852Y-37170734D01*
X56202952Y-37098000D01*
X85984540Y-37098000D01*
X86004326Y-37286256D01*
X86004327Y-37286259D01*
X86062818Y-37466277D01*
X86062821Y-37466284D01*
X86157467Y-37630216D01*
X86195460Y-37672411D01*
X86284129Y-37770888D01*
X86437265Y-37882148D01*
X86437270Y-37882151D01*
X86610192Y-37959142D01*
X86610197Y-37959144D01*
X86795354Y-37998500D01*
X86795355Y-37998500D01*
X86984644Y-37998500D01*
X86984646Y-37998500D01*
X87169803Y-37959144D01*
X87342730Y-37882151D01*
X87495871Y-37770888D01*
X87532687Y-37730000D01*
X88794540Y-37730000D01*
X88814326Y-37918256D01*
X88814327Y-37918259D01*
X88872818Y-38098277D01*
X88872821Y-38098284D01*
X88967467Y-38262216D01*
X89038520Y-38341128D01*
X89094129Y-38402888D01*
X89247265Y-38514148D01*
X89247270Y-38514151D01*
X89420192Y-38591142D01*
X89420197Y-38591144D01*
X89605354Y-38630500D01*
X89605355Y-38630500D01*
X89794644Y-38630500D01*
X89794646Y-38630500D01*
X89979803Y-38591144D01*
X90152730Y-38514151D01*
X90305871Y-38402888D01*
X90432533Y-38262216D01*
X90527179Y-38098284D01*
X90574976Y-37951180D01*
X90609969Y-37900005D01*
X100517277Y-37900005D01*
X100536134Y-38127580D01*
X100536136Y-38127592D01*
X100592196Y-38348967D01*
X100683930Y-38558102D01*
X100808834Y-38749283D01*
X100808837Y-38749286D01*
X100963507Y-38917302D01*
X101143722Y-39057569D01*
X101344566Y-39166261D01*
X101560562Y-39240412D01*
X101785816Y-39278000D01*
X102014184Y-39278000D01*
X102239438Y-39240412D01*
X102455434Y-39166261D01*
X102656278Y-39057569D01*
X102836493Y-38917302D01*
X102991163Y-38749286D01*
X103116069Y-38558103D01*
X103207803Y-38348969D01*
X103263864Y-38127589D01*
X103263865Y-38127580D01*
X103282723Y-37900005D01*
X103282723Y-37899994D01*
X103263865Y-37672419D01*
X103263863Y-37672407D01*
X103253178Y-37630214D01*
X103207803Y-37451031D01*
X103116069Y-37241897D01*
X103065830Y-37165000D01*
X102991165Y-37050716D01*
X102940910Y-36996125D01*
X102836493Y-36882698D01*
X102656278Y-36742431D01*
X102656276Y-36742430D01*
X102656275Y-36742429D01*
X102455435Y-36633739D01*
X102455430Y-36633737D01*
X102239440Y-36559588D01*
X102014184Y-36522000D01*
X101785816Y-36522000D01*
X101560559Y-36559588D01*
X101344569Y-36633737D01*
X101344564Y-36633739D01*
X101143724Y-36742429D01*
X100963508Y-36882697D01*
X100808834Y-37050716D01*
X100683930Y-37241897D01*
X100592196Y-37451032D01*
X100536136Y-37672407D01*
X100536134Y-37672419D01*
X100517277Y-37899994D01*
X100517277Y-37900005D01*
X90609969Y-37900005D01*
X90614412Y-37893507D01*
X90678771Y-37866308D01*
X90692906Y-37865500D01*
X90800056Y-37865500D01*
X90965225Y-37824790D01*
X91067926Y-37770888D01*
X91115849Y-37745736D01*
X91115850Y-37745734D01*
X91115852Y-37745734D01*
X91243183Y-37632929D01*
X91339818Y-37492930D01*
X91400140Y-37333872D01*
X91420645Y-37165000D01*
X91400140Y-36996128D01*
X91339818Y-36837070D01*
X91243183Y-36697071D01*
X91144900Y-36610000D01*
X91115849Y-36584263D01*
X90965226Y-36505210D01*
X90800056Y-36464500D01*
X90629944Y-36464500D01*
X90464773Y-36505210D01*
X90314150Y-36584263D01*
X90217850Y-36669578D01*
X90186817Y-36697071D01*
X90130352Y-36778874D01*
X90103890Y-36817211D01*
X90049606Y-36861201D01*
X89980158Y-36868860D01*
X89976059Y-36868060D01*
X89830260Y-36837070D01*
X89794646Y-36829500D01*
X89605354Y-36829500D01*
X89572897Y-36836398D01*
X89420197Y-36868855D01*
X89420192Y-36868857D01*
X89247270Y-36945848D01*
X89247265Y-36945851D01*
X89094129Y-37057111D01*
X88967466Y-37197785D01*
X88872821Y-37361715D01*
X88872818Y-37361722D01*
X88830186Y-37492931D01*
X88814326Y-37541744D01*
X88794540Y-37730000D01*
X87532687Y-37730000D01*
X87622533Y-37630216D01*
X87717179Y-37466284D01*
X87775674Y-37286256D01*
X87795460Y-37098000D01*
X87775674Y-36909744D01*
X87717179Y-36729716D01*
X87622533Y-36565784D01*
X87495871Y-36425112D01*
X87495870Y-36425111D01*
X87342734Y-36313851D01*
X87342729Y-36313848D01*
X87169807Y-36236857D01*
X87169802Y-36236855D01*
X87021855Y-36205409D01*
X86984646Y-36197500D01*
X86795354Y-36197500D01*
X86762897Y-36204398D01*
X86610197Y-36236855D01*
X86610192Y-36236857D01*
X86437270Y-36313848D01*
X86437265Y-36313851D01*
X86284129Y-36425111D01*
X86157466Y-36565785D01*
X86062821Y-36729715D01*
X86062818Y-36729722D01*
X86005442Y-36906309D01*
X86004326Y-36909744D01*
X85984540Y-37098000D01*
X56202952Y-37098000D01*
X56248183Y-37057929D01*
X56344818Y-36917930D01*
X56405140Y-36758872D01*
X56425645Y-36590000D01*
X56405140Y-36421128D01*
X56344818Y-36262070D01*
X56342608Y-36258869D01*
X56289598Y-36182071D01*
X56248183Y-36122071D01*
X56200695Y-36080000D01*
X95854355Y-36080000D01*
X95874859Y-36248869D01*
X95874860Y-36248874D01*
X95935182Y-36407931D01*
X95997475Y-36498177D01*
X96031817Y-36547929D01*
X96079306Y-36590000D01*
X96159150Y-36660736D01*
X96290592Y-36729722D01*
X96309775Y-36739790D01*
X96474944Y-36780500D01*
X96645056Y-36780500D01*
X96810225Y-36739790D01*
X96917850Y-36683303D01*
X96986354Y-36669578D01*
X97033095Y-36683302D01*
X97159775Y-36749790D01*
X97324944Y-36790500D01*
X97495056Y-36790500D01*
X97660225Y-36749790D01*
X97760672Y-36697071D01*
X97810849Y-36670736D01*
X97810850Y-36670734D01*
X97810852Y-36670734D01*
X97938183Y-36557929D01*
X98034818Y-36417930D01*
X98095140Y-36258872D01*
X98115645Y-36090000D01*
X98095140Y-35921128D01*
X98091346Y-35911125D01*
X98034817Y-35762068D01*
X98000476Y-35712318D01*
X97938183Y-35622071D01*
X97827586Y-35524091D01*
X97810849Y-35509263D01*
X97660226Y-35430210D01*
X97495056Y-35389500D01*
X97324944Y-35389500D01*
X97159774Y-35430209D01*
X97052151Y-35486695D01*
X96983643Y-35500419D01*
X96936900Y-35486694D01*
X96810226Y-35420210D01*
X96645056Y-35379500D01*
X96474944Y-35379500D01*
X96309773Y-35420210D01*
X96159150Y-35499263D01*
X96031816Y-35612072D01*
X95935182Y-35752068D01*
X95874860Y-35911125D01*
X95874859Y-35911130D01*
X95854355Y-36080000D01*
X56200695Y-36080000D01*
X56153316Y-36038026D01*
X56120849Y-36009263D01*
X55970226Y-35930210D01*
X55805056Y-35889500D01*
X55634944Y-35889500D01*
X55469773Y-35930210D01*
X55319149Y-36009264D01*
X55319147Y-36009266D01*
X55203362Y-36111841D01*
X55140129Y-36141562D01*
X55070866Y-36132378D01*
X55038909Y-36111841D01*
X54990849Y-36069263D01*
X54840226Y-35990210D01*
X54675056Y-35949500D01*
X54504944Y-35949500D01*
X54339773Y-35990210D01*
X54189150Y-36069264D01*
X54088381Y-36158537D01*
X54025147Y-36188258D01*
X53955884Y-36179074D01*
X53915478Y-36145628D01*
X53913157Y-36147685D01*
X53908186Y-36142074D01*
X53885608Y-36122072D01*
X53826001Y-36069264D01*
X53780849Y-36029263D01*
X53630226Y-35950210D01*
X53465056Y-35909500D01*
X53294944Y-35909500D01*
X53129773Y-35950210D01*
X52979150Y-36029263D01*
X52851816Y-36142072D01*
X52755182Y-36282068D01*
X52694860Y-36441125D01*
X52694859Y-36441130D01*
X52674355Y-36610000D01*
X46090971Y-36610000D01*
X46089244Y-34730000D01*
X52434355Y-34730000D01*
X52454859Y-34898869D01*
X52454860Y-34898874D01*
X52515182Y-35057931D01*
X52544566Y-35100500D01*
X52611817Y-35197929D01*
X52698712Y-35274911D01*
X52739150Y-35310736D01*
X52870169Y-35379500D01*
X52889775Y-35389790D01*
X53054944Y-35430500D01*
X53225056Y-35430500D01*
X53390225Y-35389790D01*
X53531430Y-35315678D01*
X53599933Y-35301954D01*
X53646677Y-35315679D01*
X53749775Y-35369790D01*
X53914944Y-35410500D01*
X54085056Y-35410500D01*
X54250225Y-35369790D01*
X54367377Y-35308303D01*
X54435881Y-35294578D01*
X54482621Y-35308302D01*
X54599775Y-35369790D01*
X54764944Y-35410500D01*
X54935056Y-35410500D01*
X55100225Y-35369790D01*
X55217376Y-35308304D01*
X55250849Y-35290736D01*
X55250850Y-35290734D01*
X55250852Y-35290734D01*
X55378183Y-35177929D01*
X55447249Y-35077870D01*
X74259500Y-35077870D01*
X74259501Y-35077876D01*
X74265908Y-35137483D01*
X74316202Y-35272328D01*
X74316206Y-35272335D01*
X74402452Y-35387544D01*
X74402455Y-35387547D01*
X74517664Y-35473793D01*
X74517671Y-35473797D01*
X74652517Y-35524091D01*
X74652516Y-35524091D01*
X74659444Y-35524835D01*
X74712127Y-35530500D01*
X76507872Y-35530499D01*
X76567483Y-35524091D01*
X76702331Y-35473796D01*
X76817546Y-35387546D01*
X76903796Y-35272331D01*
X76952810Y-35140916D01*
X76994681Y-35084984D01*
X77060145Y-35060566D01*
X77128418Y-35075417D01*
X77156673Y-35096569D01*
X77278599Y-35218495D01*
X77359169Y-35274911D01*
X77472165Y-35354032D01*
X77472167Y-35354033D01*
X77472170Y-35354035D01*
X77686337Y-35453903D01*
X77914592Y-35515063D01*
X78091034Y-35530500D01*
X78149999Y-35535659D01*
X78150000Y-35535659D01*
X78150001Y-35535659D01*
X78208966Y-35530500D01*
X78385408Y-35515063D01*
X78613663Y-35453903D01*
X78827830Y-35354035D01*
X79021401Y-35218495D01*
X79188495Y-35051401D01*
X79318425Y-34865842D01*
X79373002Y-34822217D01*
X79442500Y-34815023D01*
X79504855Y-34846546D01*
X79521575Y-34865842D01*
X79651500Y-35051395D01*
X79651505Y-35051401D01*
X79818599Y-35218495D01*
X79899169Y-35274911D01*
X80012165Y-35354032D01*
X80012167Y-35354033D01*
X80012170Y-35354035D01*
X80226337Y-35453903D01*
X80454592Y-35515063D01*
X80631034Y-35530500D01*
X80689999Y-35535659D01*
X80690000Y-35535659D01*
X80690001Y-35535659D01*
X80748966Y-35530500D01*
X80925408Y-35515063D01*
X81153663Y-35453903D01*
X81367830Y-35354035D01*
X81561401Y-35218495D01*
X81728495Y-35051401D01*
X81858425Y-34865842D01*
X81913002Y-34822217D01*
X81982500Y-34815023D01*
X82044855Y-34846546D01*
X82061575Y-34865842D01*
X82191500Y-35051395D01*
X82191505Y-35051401D01*
X82358599Y-35218495D01*
X82439169Y-35274911D01*
X82552165Y-35354032D01*
X82552167Y-35354033D01*
X82552170Y-35354035D01*
X82766337Y-35453903D01*
X82994592Y-35515063D01*
X83171034Y-35530500D01*
X83229999Y-35535659D01*
X83230000Y-35535659D01*
X83230001Y-35535659D01*
X83288966Y-35530500D01*
X83465408Y-35515063D01*
X83693663Y-35453903D01*
X83907830Y-35354035D01*
X84101401Y-35218495D01*
X84268495Y-35051401D01*
X84398425Y-34865842D01*
X84453002Y-34822217D01*
X84522500Y-34815023D01*
X84584855Y-34846546D01*
X84601575Y-34865842D01*
X84731500Y-35051395D01*
X84731505Y-35051401D01*
X84898599Y-35218495D01*
X84979169Y-35274911D01*
X85092165Y-35354032D01*
X85092167Y-35354033D01*
X85092170Y-35354035D01*
X85306337Y-35453903D01*
X85534592Y-35515063D01*
X85711034Y-35530500D01*
X85769999Y-35535659D01*
X85770000Y-35535659D01*
X85770001Y-35535659D01*
X85828966Y-35530500D01*
X86005408Y-35515063D01*
X86233663Y-35453903D01*
X86447830Y-35354035D01*
X86641401Y-35218495D01*
X86808495Y-35051401D01*
X86938425Y-34865842D01*
X86993002Y-34822217D01*
X87062500Y-34815023D01*
X87124855Y-34846546D01*
X87141575Y-34865842D01*
X87271500Y-35051395D01*
X87271505Y-35051401D01*
X87438599Y-35218495D01*
X87519169Y-35274911D01*
X87632165Y-35354032D01*
X87632167Y-35354033D01*
X87632170Y-35354035D01*
X87846337Y-35453903D01*
X88074592Y-35515063D01*
X88251034Y-35530500D01*
X88309999Y-35535659D01*
X88310000Y-35535659D01*
X88310001Y-35535659D01*
X88368966Y-35530500D01*
X88545408Y-35515063D01*
X88773663Y-35453903D01*
X88987830Y-35354035D01*
X89181401Y-35218495D01*
X89348495Y-35051401D01*
X89484035Y-34857830D01*
X89583903Y-34643663D01*
X89645063Y-34415408D01*
X89665659Y-34180000D01*
X89645063Y-33944592D01*
X89584582Y-33718872D01*
X89583905Y-33716344D01*
X89583904Y-33716343D01*
X89583903Y-33716337D01*
X89484035Y-33502171D01*
X89478425Y-33494158D01*
X89348494Y-33308597D01*
X89181402Y-33141506D01*
X89181395Y-33141501D01*
X88987834Y-33005967D01*
X88987830Y-33005965D01*
X88987828Y-33005964D01*
X88773663Y-32906097D01*
X88773659Y-32906096D01*
X88773655Y-32906094D01*
X88545413Y-32844938D01*
X88545403Y-32844936D01*
X88310001Y-32824341D01*
X88309999Y-32824341D01*
X88074596Y-32844936D01*
X88074586Y-32844938D01*
X87846344Y-32906094D01*
X87846335Y-32906098D01*
X87632171Y-33005964D01*
X87632169Y-33005965D01*
X87438597Y-33141505D01*
X87271505Y-33308597D01*
X87141575Y-33494158D01*
X87086998Y-33537783D01*
X87017500Y-33544977D01*
X86955145Y-33513454D01*
X86938425Y-33494158D01*
X86808494Y-33308597D01*
X86641402Y-33141506D01*
X86641395Y-33141501D01*
X86447834Y-33005967D01*
X86447830Y-33005965D01*
X86447828Y-33005964D01*
X86233663Y-32906097D01*
X86233659Y-32906096D01*
X86233655Y-32906094D01*
X86005413Y-32844938D01*
X86005403Y-32844936D01*
X85770001Y-32824341D01*
X85769999Y-32824341D01*
X85534596Y-32844936D01*
X85534586Y-32844938D01*
X85306344Y-32906094D01*
X85306335Y-32906098D01*
X85092171Y-33005964D01*
X85092169Y-33005965D01*
X84898597Y-33141505D01*
X84731505Y-33308597D01*
X84601575Y-33494158D01*
X84546998Y-33537783D01*
X84477500Y-33544977D01*
X84415145Y-33513454D01*
X84398425Y-33494158D01*
X84268494Y-33308597D01*
X84101402Y-33141506D01*
X84101395Y-33141501D01*
X83907834Y-33005967D01*
X83907830Y-33005965D01*
X83907828Y-33005964D01*
X83693663Y-32906097D01*
X83693659Y-32906096D01*
X83693655Y-32906094D01*
X83465413Y-32844938D01*
X83465403Y-32844936D01*
X83230001Y-32824341D01*
X83229999Y-32824341D01*
X82994596Y-32844936D01*
X82994586Y-32844938D01*
X82766344Y-32906094D01*
X82766335Y-32906098D01*
X82552171Y-33005964D01*
X82552169Y-33005965D01*
X82358597Y-33141505D01*
X82191505Y-33308597D01*
X82061575Y-33494158D01*
X82006998Y-33537783D01*
X81937500Y-33544977D01*
X81875145Y-33513454D01*
X81858425Y-33494158D01*
X81728494Y-33308597D01*
X81561402Y-33141506D01*
X81561395Y-33141501D01*
X81367834Y-33005967D01*
X81367830Y-33005965D01*
X81367828Y-33005964D01*
X81153663Y-32906097D01*
X81153659Y-32906096D01*
X81153655Y-32906094D01*
X80925413Y-32844938D01*
X80925403Y-32844936D01*
X80690001Y-32824341D01*
X80689999Y-32824341D01*
X80454596Y-32844936D01*
X80454586Y-32844938D01*
X80226344Y-32906094D01*
X80226335Y-32906098D01*
X80012171Y-33005964D01*
X80012169Y-33005965D01*
X79818597Y-33141505D01*
X79651505Y-33308597D01*
X79521575Y-33494158D01*
X79466998Y-33537783D01*
X79397500Y-33544977D01*
X79335145Y-33513454D01*
X79318425Y-33494158D01*
X79188494Y-33308597D01*
X79021402Y-33141506D01*
X79021395Y-33141501D01*
X78827834Y-33005967D01*
X78827830Y-33005965D01*
X78827828Y-33005964D01*
X78613663Y-32906097D01*
X78613659Y-32906096D01*
X78613655Y-32906094D01*
X78385413Y-32844938D01*
X78385403Y-32844936D01*
X78150001Y-32824341D01*
X78149999Y-32824341D01*
X77914596Y-32844936D01*
X77914586Y-32844938D01*
X77686344Y-32906094D01*
X77686335Y-32906098D01*
X77472171Y-33005964D01*
X77472169Y-33005965D01*
X77278600Y-33141503D01*
X77156673Y-33263430D01*
X77095350Y-33296914D01*
X77025658Y-33291930D01*
X76969725Y-33250058D01*
X76952810Y-33219081D01*
X76903797Y-33087671D01*
X76903793Y-33087664D01*
X76817547Y-32972455D01*
X76817544Y-32972452D01*
X76702335Y-32886206D01*
X76702328Y-32886202D01*
X76567482Y-32835908D01*
X76567483Y-32835908D01*
X76507883Y-32829501D01*
X76507881Y-32829500D01*
X76507873Y-32829500D01*
X76507864Y-32829500D01*
X74712129Y-32829500D01*
X74712123Y-32829501D01*
X74652516Y-32835908D01*
X74517671Y-32886202D01*
X74517664Y-32886206D01*
X74402455Y-32972452D01*
X74402452Y-32972455D01*
X74316206Y-33087664D01*
X74316202Y-33087671D01*
X74265908Y-33222517D01*
X74259501Y-33282116D01*
X74259500Y-33282135D01*
X74259500Y-35077870D01*
X55447249Y-35077870D01*
X55474818Y-35037930D01*
X55535140Y-34878872D01*
X55555645Y-34710000D01*
X55535140Y-34541128D01*
X55474818Y-34382070D01*
X55473389Y-34380000D01*
X55440476Y-34332318D01*
X55378183Y-34242071D01*
X55275000Y-34150659D01*
X55250849Y-34129263D01*
X55100226Y-34050210D01*
X54935056Y-34009500D01*
X54764944Y-34009500D01*
X54599776Y-34050209D01*
X54482626Y-34111695D01*
X54414117Y-34125420D01*
X54367374Y-34111695D01*
X54250223Y-34050209D01*
X54085056Y-34009500D01*
X53914944Y-34009500D01*
X53749774Y-34050209D01*
X53608571Y-34124319D01*
X53540063Y-34138043D01*
X53493320Y-34124319D01*
X53390223Y-34070209D01*
X53225056Y-34029500D01*
X53054944Y-34029500D01*
X52889773Y-34070210D01*
X52739150Y-34149263D01*
X52611816Y-34262072D01*
X52515182Y-34402068D01*
X52454860Y-34561125D01*
X52454859Y-34561130D01*
X52434355Y-34730000D01*
X46089244Y-34730000D01*
X46086919Y-32198692D01*
X46106542Y-32131637D01*
X46159304Y-32085834D01*
X46210621Y-32074581D01*
X67553516Y-32024017D01*
X75428366Y-32005361D01*
X75428366Y-32005369D01*
X75428635Y-32005360D01*
X75428686Y-32005360D01*
X76086415Y-32005256D01*
X98351883Y-32001747D01*
X98418926Y-32021421D01*
X98464689Y-32074218D01*
X98474644Y-32143375D01*
X98445629Y-32206935D01*
X98405496Y-32234971D01*
X98406416Y-32236724D01*
X98249150Y-32319263D01*
X98121816Y-32432072D01*
X98025182Y-32572068D01*
X97964860Y-32731125D01*
X97964859Y-32731130D01*
X97961090Y-32762175D01*
X97933467Y-32826352D01*
X97875533Y-32865408D01*
X97805680Y-32866943D01*
X97780369Y-32857024D01*
X97710225Y-32820209D01*
X97545056Y-32779500D01*
X97374944Y-32779500D01*
X97209773Y-32820210D01*
X97052507Y-32902751D01*
X97051416Y-32900672D01*
X96995953Y-32918951D01*
X96934265Y-32904814D01*
X96830226Y-32850210D01*
X96665056Y-32809500D01*
X96494944Y-32809500D01*
X96329773Y-32850210D01*
X96179151Y-32929263D01*
X96172975Y-32933527D01*
X96171648Y-32931604D01*
X96118752Y-32956454D01*
X96049490Y-32947256D01*
X96042158Y-32943709D01*
X95940226Y-32890210D01*
X95775056Y-32849500D01*
X95604944Y-32849500D01*
X95439773Y-32890210D01*
X95289150Y-32969263D01*
X95161816Y-33082072D01*
X95065182Y-33222068D01*
X95004860Y-33381125D01*
X95004859Y-33381130D01*
X94984355Y-33550000D01*
X95004859Y-33718869D01*
X95004860Y-33718874D01*
X95065182Y-33877930D01*
X95091661Y-33916292D01*
X95113543Y-33982647D01*
X95097494Y-34044809D01*
X95098669Y-34045426D01*
X95095182Y-34052068D01*
X95034860Y-34211125D01*
X95034859Y-34211130D01*
X95014355Y-34380000D01*
X95034859Y-34548869D01*
X95034860Y-34548874D01*
X95095182Y-34707931D01*
X95157475Y-34798177D01*
X95191817Y-34847929D01*
X95280000Y-34926052D01*
X95319150Y-34960736D01*
X95466231Y-35037930D01*
X95469775Y-35039790D01*
X95634944Y-35080500D01*
X95805056Y-35080500D01*
X95970225Y-35039790D01*
X96102374Y-34970431D01*
X96170882Y-34956706D01*
X96217624Y-34970431D01*
X96349775Y-35039790D01*
X96514944Y-35080500D01*
X96685056Y-35080500D01*
X96850225Y-35039790D01*
X96948321Y-34988304D01*
X97016827Y-34974579D01*
X97063572Y-34988305D01*
X97183780Y-35051395D01*
X97199775Y-35059790D01*
X97364944Y-35100500D01*
X97535056Y-35100500D01*
X97700225Y-35059790D01*
X97836427Y-34988305D01*
X97850849Y-34980736D01*
X97850850Y-34980734D01*
X97850852Y-34980734D01*
X97978183Y-34867929D01*
X98074818Y-34727930D01*
X98135140Y-34568872D01*
X98155645Y-34400000D01*
X98135140Y-34231128D01*
X98074818Y-34072070D01*
X98037276Y-34017681D01*
X98015394Y-33951329D01*
X98032859Y-33883677D01*
X98037271Y-33876812D01*
X98084818Y-33807930D01*
X98145140Y-33648872D01*
X98148909Y-33617826D01*
X98176529Y-33553649D01*
X98234463Y-33514592D01*
X98304315Y-33513056D01*
X98329631Y-33522976D01*
X98388074Y-33553649D01*
X98399775Y-33559790D01*
X98564944Y-33600500D01*
X98735056Y-33600500D01*
X98900225Y-33559790D01*
X99010008Y-33502171D01*
X99050849Y-33480736D01*
X99050850Y-33480734D01*
X99050852Y-33480734D01*
X99178183Y-33367929D01*
X99274818Y-33227930D01*
X99335140Y-33068872D01*
X99355645Y-32900000D01*
X99335140Y-32731128D01*
X99274818Y-32572070D01*
X99178183Y-32432071D01*
X99050852Y-32319266D01*
X99050849Y-32319263D01*
X98893584Y-32236724D01*
X98894681Y-32234631D01*
X98848175Y-32199418D01*
X98824117Y-32133821D01*
X98839343Y-32065630D01*
X98889019Y-32016497D01*
X98947828Y-32001653D01*
X101649554Y-32001226D01*
X109278021Y-32000024D01*
X109345063Y-32019698D01*
G37*
G04 #@! TD.AperFunction*
M02*
