G04 #@! TF.GenerationSoftware,KiCad,Pcbnew,8.0.1*
G04 #@! TF.CreationDate,2024-04-21T16:15:21+03:00*
G04 #@! TF.ProjectId,esc,6573632e-6b69-4636-9164-5f7063625858,rev?*
G04 #@! TF.SameCoordinates,Original*
G04 #@! TF.FileFunction,Copper,L4,Bot*
G04 #@! TF.FilePolarity,Positive*
%FSLAX46Y46*%
G04 Gerber Fmt 4.6, Leading zero omitted, Abs format (unit mm)*
G04 Created by KiCad (PCBNEW 8.0.1) date 2024-04-21 16:15:21*
%MOMM*%
%LPD*%
G01*
G04 APERTURE LIST*
G04 #@! TA.AperFunction,ComponentPad*
%ADD10C,3.200400*%
G04 #@! TD*
G04 #@! TA.AperFunction,ComponentPad*
%ADD11R,1.700000X1.700000*%
G04 #@! TD*
G04 #@! TA.AperFunction,ComponentPad*
%ADD12O,1.700000X1.700000*%
G04 #@! TD*
G04 #@! TA.AperFunction,ComponentPad*
%ADD13C,0.510000*%
G04 #@! TD*
G04 #@! TA.AperFunction,SMDPad,CuDef*
%ADD14R,1.600000X0.500000*%
G04 #@! TD*
G04 #@! TA.AperFunction,ViaPad*
%ADD15C,0.800000*%
G04 #@! TD*
G04 #@! TA.AperFunction,Conductor*
%ADD16C,0.250000*%
G04 #@! TD*
G04 APERTURE END LIST*
D10*
X101740000Y-59080000D03*
X101740000Y-64949940D03*
X107610001Y-59080000D03*
X107610001Y-64949940D03*
X101760000Y-46400060D03*
X101760000Y-52270000D03*
X107630001Y-46400060D03*
X107630001Y-52270000D03*
X101519999Y-34360060D03*
X101519999Y-40230000D03*
X107390000Y-34360060D03*
X107390000Y-40230000D03*
X47915000Y-62140030D03*
X47915000Y-68009970D03*
X53785001Y-62140030D03*
X53785001Y-68009970D03*
X47890000Y-52540060D03*
X47890000Y-58410000D03*
X53760001Y-52540060D03*
X53760001Y-58410000D03*
D11*
X81955000Y-67925000D03*
D12*
X79415000Y-67925000D03*
X76875000Y-67925000D03*
X74335000Y-67925000D03*
X71795000Y-67925000D03*
D13*
X66842500Y-41777500D03*
D14*
X67392500Y-41777500D03*
D13*
X67942500Y-41777500D03*
D11*
X68065000Y-65385000D03*
D12*
X68065000Y-67925000D03*
X65525000Y-65385000D03*
X65525000Y-67925000D03*
X62985000Y-65385000D03*
X62985000Y-67925000D03*
X60445000Y-65385000D03*
X60445000Y-67925000D03*
X57905000Y-65385000D03*
X57905000Y-67925000D03*
D15*
X72750000Y-64750000D03*
X71800000Y-64750000D03*
X61200000Y-61925000D03*
X81175000Y-45900000D03*
X75625000Y-55875000D03*
X58050000Y-63150000D03*
X80725000Y-58400000D03*
X81225000Y-43850000D03*
X58625000Y-53775000D03*
X92040000Y-54410000D03*
X72350000Y-48150000D03*
X61600000Y-48590000D03*
X71975000Y-52550000D03*
X95600000Y-42550000D03*
X89780000Y-54410000D03*
X92570000Y-42550000D03*
X89680000Y-45460000D03*
X84520000Y-53790000D03*
X98500000Y-55750000D03*
X92060000Y-56000000D03*
X95350000Y-55410000D03*
X60110803Y-58311500D03*
X97750000Y-44400000D03*
X55770000Y-53990000D03*
X88580000Y-37750000D03*
X62188300Y-53285603D03*
X75240000Y-54076500D03*
X63269647Y-51730353D03*
X78970000Y-44180000D03*
X65150000Y-52260000D03*
X76950000Y-50360000D03*
X76500000Y-57100000D03*
X61683196Y-54068873D03*
X61818134Y-51865326D03*
X79070000Y-51160000D03*
X64224164Y-52295158D03*
X75450000Y-44941500D03*
X94311500Y-54490000D03*
X88860000Y-41810000D03*
X88660000Y-53230000D03*
X89114491Y-51688500D03*
X83350000Y-54000000D03*
X84240000Y-52060000D03*
X87970000Y-42520000D03*
X93650000Y-66742325D03*
X55738787Y-54915977D03*
X60845653Y-58963000D03*
X98900000Y-56900000D03*
X60010000Y-59860000D03*
X55751242Y-55842396D03*
X66841059Y-53096286D03*
X75700000Y-46330000D03*
X75540000Y-48910000D03*
X76900000Y-44031500D03*
X70760000Y-51630000D03*
X81127500Y-49600000D03*
X90760000Y-49640000D03*
X81610000Y-48230500D03*
X90414256Y-48665517D03*
X77398000Y-56452221D03*
X89530000Y-48340000D03*
X89090000Y-46670000D03*
X77634138Y-44838777D03*
X88086095Y-46688479D03*
X80740000Y-53060000D03*
X79620000Y-56080000D03*
X87170000Y-46550000D03*
X57688500Y-61440000D03*
X57620000Y-57659500D03*
X59400000Y-57660000D03*
X58040000Y-52090000D03*
X66140000Y-52490000D03*
X61850000Y-60590000D03*
X89020000Y-36270000D03*
X63391500Y-60650000D03*
X92990000Y-55050000D03*
X92330000Y-66690000D03*
X90200000Y-67420000D03*
X70052232Y-64897768D03*
X64337272Y-60651336D03*
D16*
X60845653Y-59946415D02*
X60845653Y-58963000D01*
X60004068Y-60788000D02*
X60845653Y-59946415D01*
X57362000Y-60788000D02*
X60004068Y-60788000D01*
X56803000Y-61347000D02*
X57362000Y-60788000D01*
X93850000Y-69520000D02*
X57820000Y-69520000D01*
X56803000Y-68503000D02*
X56803000Y-61347000D01*
X98575000Y-57225000D02*
X98575000Y-64795000D01*
X57820000Y-69520000D02*
X56803000Y-68503000D01*
X98900000Y-56900000D02*
X98575000Y-57225000D01*
X98575000Y-64795000D02*
X93850000Y-69520000D01*
X63575000Y-62075000D02*
X65800000Y-62075000D01*
X62739500Y-61239500D02*
X63575000Y-62075000D01*
X60730000Y-54040000D02*
X62739500Y-56049500D01*
X62739500Y-56049500D02*
X62739500Y-61239500D01*
X60730000Y-52953460D02*
X60730000Y-54040000D01*
X61818134Y-51865326D02*
X60730000Y-52953460D01*
X65800000Y-62075000D02*
X68065000Y-64340000D01*
X68065000Y-64340000D02*
X68065000Y-65385000D01*
X91412000Y-47192000D02*
X89680000Y-45460000D01*
X91412000Y-52778000D02*
X91412000Y-47192000D01*
X92570000Y-42550000D02*
X95600000Y-42550000D01*
X89780000Y-54410000D02*
X91412000Y-52778000D01*
X92060000Y-56000000D02*
X86730000Y-56000000D01*
X86730000Y-56000000D02*
X84520000Y-53790000D01*
X98160000Y-55410000D02*
X95350000Y-55410000D01*
X98500000Y-55750000D02*
X98160000Y-55410000D01*
X56797000Y-55017000D02*
X55770000Y-53990000D01*
X56797000Y-57900684D02*
X56797000Y-55017000D01*
X97750000Y-44400000D02*
X93497932Y-44400000D01*
X60110803Y-58311500D02*
X57207816Y-58311500D01*
X93497932Y-44400000D02*
X88580000Y-39482068D01*
X88580000Y-39482068D02*
X88580000Y-37750000D01*
X57207816Y-58311500D02*
X56797000Y-57900684D01*
X63772697Y-54870000D02*
X74446500Y-54870000D01*
X62188300Y-53285603D02*
X63772697Y-54870000D01*
X74446500Y-54870000D02*
X75240000Y-54076500D01*
X78170000Y-43380000D02*
X78970000Y-44180000D01*
X63269647Y-51730353D02*
X63269647Y-51640353D01*
X63269647Y-51640353D02*
X71530000Y-43380000D01*
X71530000Y-43380000D02*
X78170000Y-43380000D01*
X67050000Y-50360000D02*
X65150000Y-52260000D01*
X76950000Y-50360000D02*
X67050000Y-50360000D01*
X76500000Y-57100000D02*
X76030000Y-57570000D01*
X76030000Y-57570000D02*
X65270000Y-57570000D01*
X65270000Y-57570000D02*
X61768873Y-54068873D01*
X61768873Y-54068873D02*
X61683196Y-54068873D01*
X74750000Y-51160000D02*
X79070000Y-51160000D01*
X71417000Y-54493000D02*
X74750000Y-51160000D01*
X64453000Y-54493000D02*
X71417000Y-54493000D01*
X61818134Y-51865326D02*
X61825326Y-51865326D01*
X61825326Y-51865326D02*
X64453000Y-54493000D01*
X64224164Y-52263768D02*
X64224164Y-52295158D01*
X75450000Y-44941500D02*
X71546432Y-44941500D01*
X71546432Y-44941500D02*
X64224164Y-52263768D01*
X94311500Y-47939432D02*
X94311500Y-54490000D01*
X88860000Y-41810000D02*
X88182068Y-41810000D01*
X88182068Y-41810000D02*
X94311500Y-47939432D01*
X88660000Y-53230000D02*
X88660000Y-52142991D01*
X88660000Y-52142991D02*
X89114491Y-51688500D01*
X84240000Y-53110000D02*
X83350000Y-54000000D01*
X84240000Y-52060000D02*
X84240000Y-53110000D01*
X93660000Y-66732325D02*
X93660000Y-48210000D01*
X93650000Y-66742325D02*
X93660000Y-66732325D01*
X93660000Y-48210000D02*
X87970000Y-42520000D01*
X56420000Y-58056842D02*
X57326158Y-58963000D01*
X55746891Y-54915977D02*
X55738787Y-54915977D01*
X56420000Y-58056842D02*
X56420000Y-55589086D01*
X55738787Y-54915977D02*
X55995977Y-54915977D01*
X56420000Y-55589086D02*
X55746891Y-54915977D01*
X57326158Y-58963000D02*
X60845653Y-58963000D01*
X55751242Y-57921242D02*
X57690000Y-59860000D01*
X55751242Y-55842396D02*
X55751242Y-57921242D01*
X57690000Y-59860000D02*
X60010000Y-59860000D01*
X76900000Y-44031500D02*
X76690000Y-44241500D01*
X66841059Y-53096286D02*
X69303714Y-53096286D01*
X75700000Y-46330000D02*
X75700000Y-48750000D01*
X70760000Y-51640000D02*
X70760000Y-51630000D01*
X76690000Y-44241500D02*
X76690000Y-47760000D01*
X75700000Y-48750000D02*
X75635000Y-48815000D01*
X69303714Y-53096286D02*
X70760000Y-51640000D01*
X76690000Y-47760000D02*
X75635000Y-48815000D01*
X75540000Y-48910000D02*
X75635000Y-48815000D01*
X82352568Y-49600000D02*
X83619568Y-48333000D01*
X81127500Y-49600000D02*
X82352568Y-49600000D01*
X88067774Y-48333000D02*
X89374774Y-49640000D01*
X83619568Y-48333000D02*
X88067774Y-48333000D01*
X89374774Y-49640000D02*
X90760000Y-49640000D01*
X81610000Y-48230500D02*
X81884500Y-47956000D01*
X88223932Y-47956000D02*
X89259932Y-48992000D01*
X81884500Y-47956000D02*
X88223932Y-47956000D01*
X89259932Y-48992000D02*
X90087773Y-48992000D01*
X90087773Y-48992000D02*
X90414256Y-48665517D01*
X79482068Y-57140000D02*
X81392000Y-55230068D01*
X80476000Y-47814000D02*
X80711000Y-47579000D01*
X77398000Y-56452221D02*
X77398000Y-56558000D01*
X88769000Y-47579000D02*
X89530000Y-48340000D01*
X80711000Y-47579000D02*
X88769000Y-47579000D01*
X81392000Y-52789932D02*
X80476000Y-51873932D01*
X77398000Y-56558000D02*
X77980000Y-57140000D01*
X81392000Y-55230068D02*
X81392000Y-52789932D01*
X77980000Y-57140000D02*
X79482068Y-57140000D01*
X80476000Y-51873932D02*
X80476000Y-47814000D01*
X88738095Y-46418411D02*
X87158461Y-44838777D01*
X87158461Y-44838777D02*
X77634138Y-44838777D01*
X89090000Y-46670000D02*
X88838411Y-46418411D01*
X88838411Y-46418411D02*
X88738095Y-46418411D01*
X80378000Y-47202000D02*
X87572574Y-47202000D01*
X80099000Y-47481000D02*
X80378000Y-47202000D01*
X80740000Y-53060000D02*
X80099000Y-52419000D01*
X80099000Y-52419000D02*
X80099000Y-47481000D01*
X87572574Y-47202000D02*
X88086095Y-46688479D01*
X79722000Y-55978000D02*
X79620000Y-56080000D01*
X79722000Y-47218000D02*
X79722000Y-55978000D01*
X87170000Y-46550000D02*
X86908160Y-46811840D01*
X80128160Y-46811840D02*
X79722000Y-47218000D01*
X86908160Y-46811840D02*
X80128160Y-46811840D01*
X58050000Y-62250000D02*
X57688500Y-61888500D01*
X57620500Y-57660000D02*
X59400000Y-57660000D01*
X57688500Y-61888500D02*
X57688500Y-61440000D01*
X78190000Y-66700000D02*
X62400000Y-66700000D01*
X61775000Y-66075000D02*
X61775000Y-64500000D01*
X62400000Y-66700000D02*
X61775000Y-66075000D01*
X59258000Y-57802000D02*
X59400000Y-57660000D01*
X61775000Y-64500000D02*
X59525000Y-62250000D01*
X79415000Y-67925000D02*
X78190000Y-66700000D01*
X59525000Y-62250000D02*
X58050000Y-62250000D01*
X57620000Y-57659500D02*
X57620500Y-57660000D01*
X59360000Y-50770000D02*
X61960000Y-50770000D01*
X58040000Y-52090000D02*
X59360000Y-50770000D01*
X64879932Y-52912000D02*
X65718000Y-52912000D01*
X61960000Y-50770000D02*
X62470000Y-51280000D01*
X65718000Y-52912000D02*
X66140000Y-52490000D01*
X63565090Y-52947158D02*
X64844774Y-52947158D01*
X62470000Y-51852068D02*
X63565090Y-52947158D01*
X62470000Y-51280000D02*
X62470000Y-51852068D01*
X64844774Y-52947158D02*
X64879932Y-52912000D01*
X56640000Y-52260000D02*
X65897000Y-43003000D01*
X87820000Y-36270000D02*
X89020000Y-36270000D01*
X65897000Y-43003000D02*
X86117000Y-43003000D01*
X56640000Y-53835279D02*
X56640000Y-52260000D01*
X87350000Y-41770000D02*
X87350000Y-36740000D01*
X61850000Y-59045279D02*
X56640000Y-53835279D01*
X87350000Y-36740000D02*
X87820000Y-36270000D01*
X86117000Y-43003000D02*
X87350000Y-41770000D01*
X61850000Y-60590000D02*
X61850000Y-59045279D01*
X88982732Y-59999336D02*
X92990000Y-55992068D01*
X64067204Y-59999336D02*
X88982732Y-59999336D01*
X92990000Y-55992068D02*
X92990000Y-55050000D01*
X63391500Y-60650000D02*
X63416540Y-60650000D01*
X63416540Y-60650000D02*
X64067204Y-59999336D01*
X70052232Y-64897768D02*
X65805800Y-60651336D01*
X90200000Y-67420000D02*
X91600000Y-67420000D01*
X91600000Y-67420000D02*
X92330000Y-66690000D01*
X65805800Y-60651336D02*
X64337272Y-60651336D01*
G04 #@! TA.AperFunction,Conductor*
G36*
X101027376Y-32063754D02*
G01*
X101094389Y-32083522D01*
X101140078Y-32136384D01*
X101149935Y-32205554D01*
X101120830Y-32269074D01*
X101062005Y-32306775D01*
X101060674Y-32307156D01*
X100814869Y-32376028D01*
X100551283Y-32490519D01*
X100305740Y-32639838D01*
X100305729Y-32639845D01*
X100082816Y-32821198D01*
X99886655Y-33031235D01*
X99720926Y-33266018D01*
X99588710Y-33521184D01*
X99492473Y-33791967D01*
X99492468Y-33791983D01*
X99434002Y-34073343D01*
X99434001Y-34073345D01*
X99414390Y-34360060D01*
X99434001Y-34646774D01*
X99434002Y-34646776D01*
X99492468Y-34928136D01*
X99492473Y-34928152D01*
X99588710Y-35198935D01*
X99588711Y-35198937D01*
X99720926Y-35454101D01*
X99886654Y-35688884D01*
X100082809Y-35898915D01*
X100082814Y-35898919D01*
X100082816Y-35898921D01*
X100305729Y-36080274D01*
X100305732Y-36080276D01*
X100305736Y-36080279D01*
X100434553Y-36158614D01*
X100551283Y-36229600D01*
X100808378Y-36341272D01*
X100814873Y-36344093D01*
X101091600Y-36421628D01*
X101341902Y-36456031D01*
X101376306Y-36460760D01*
X101376307Y-36460760D01*
X101663692Y-36460760D01*
X101694386Y-36456541D01*
X101948398Y-36421628D01*
X102225125Y-36344093D01*
X102400852Y-36267763D01*
X102488714Y-36229600D01*
X102488716Y-36229599D01*
X102734262Y-36080279D01*
X102957189Y-35898915D01*
X103153344Y-35688884D01*
X103319072Y-35454101D01*
X103451287Y-35198937D01*
X103547526Y-34928147D01*
X103547526Y-34928142D01*
X103547529Y-34928136D01*
X103579683Y-34773396D01*
X103605996Y-34646774D01*
X103625608Y-34360060D01*
X103605996Y-34073346D01*
X103589039Y-33991746D01*
X103547529Y-33791983D01*
X103547524Y-33791967D01*
X103451287Y-33521184D01*
X103451287Y-33521183D01*
X103319072Y-33266019D01*
X103153344Y-33031236D01*
X102957189Y-32821205D01*
X102957182Y-32821200D01*
X102957181Y-32821198D01*
X102734268Y-32639845D01*
X102734257Y-32639838D01*
X102488714Y-32490519D01*
X102225128Y-32376028D01*
X102225126Y-32376027D01*
X102225125Y-32376027D01*
X102183685Y-32364416D01*
X101983738Y-32308393D01*
X101924495Y-32271351D01*
X101894684Y-32208160D01*
X101903768Y-32138884D01*
X101948864Y-32085516D01*
X102015654Y-32065001D01*
X102017204Y-32064991D01*
X106871313Y-32071057D01*
X106938325Y-32090825D01*
X106984014Y-32143687D01*
X106993871Y-32212857D01*
X106964766Y-32276377D01*
X106905941Y-32314078D01*
X106904610Y-32314459D01*
X106684870Y-32376028D01*
X106421284Y-32490519D01*
X106175741Y-32639838D01*
X106175730Y-32639845D01*
X105952817Y-32821198D01*
X105756656Y-33031235D01*
X105590927Y-33266018D01*
X105458711Y-33521184D01*
X105362474Y-33791967D01*
X105362469Y-33791983D01*
X105304003Y-34073343D01*
X105304002Y-34073345D01*
X105284391Y-34360060D01*
X105304002Y-34646774D01*
X105304003Y-34646776D01*
X105362469Y-34928136D01*
X105362474Y-34928152D01*
X105458711Y-35198935D01*
X105458712Y-35198937D01*
X105590927Y-35454101D01*
X105756655Y-35688884D01*
X105952810Y-35898915D01*
X105952815Y-35898919D01*
X105952817Y-35898921D01*
X106175730Y-36080274D01*
X106175733Y-36080276D01*
X106175737Y-36080279D01*
X106304554Y-36158614D01*
X106421284Y-36229600D01*
X106678379Y-36341272D01*
X106684874Y-36344093D01*
X106961601Y-36421628D01*
X107211903Y-36456031D01*
X107246307Y-36460760D01*
X107246308Y-36460760D01*
X107533693Y-36460760D01*
X107564387Y-36456541D01*
X107818399Y-36421628D01*
X108095126Y-36344093D01*
X108270853Y-36267763D01*
X108358715Y-36229600D01*
X108358717Y-36229599D01*
X108604263Y-36080279D01*
X108827190Y-35898915D01*
X109023345Y-35688884D01*
X109189073Y-35454101D01*
X109321288Y-35198937D01*
X109417527Y-34928147D01*
X109417527Y-34928142D01*
X109417530Y-34928136D01*
X109449684Y-34773396D01*
X109475997Y-34646774D01*
X109495609Y-34360060D01*
X109475997Y-34073346D01*
X109459040Y-33991746D01*
X109417530Y-33791983D01*
X109417525Y-33791967D01*
X109321288Y-33521184D01*
X109321288Y-33521183D01*
X109189073Y-33266019D01*
X109023345Y-33031236D01*
X108827190Y-32821205D01*
X108827183Y-32821200D01*
X108827182Y-32821198D01*
X108604269Y-32639845D01*
X108604258Y-32639838D01*
X108358715Y-32490519D01*
X108095129Y-32376028D01*
X108095127Y-32376027D01*
X108095126Y-32376027D01*
X108031306Y-32358145D01*
X107880038Y-32315762D01*
X107820795Y-32278720D01*
X107790984Y-32215530D01*
X107800068Y-32146253D01*
X107845164Y-32092885D01*
X107911953Y-32072370D01*
X107913565Y-32072360D01*
X109878628Y-32074816D01*
X109945643Y-32094584D01*
X109991332Y-32147446D01*
X110002472Y-32198830D01*
X110000132Y-49988524D01*
X109997516Y-69876035D01*
X109977823Y-69943072D01*
X109925013Y-69988820D01*
X109873535Y-70000019D01*
X94551557Y-70002412D01*
X94484515Y-69982738D01*
X94438752Y-69929941D01*
X94428797Y-69860784D01*
X94457812Y-69797224D01*
X94463843Y-69790745D01*
X98973729Y-65280860D01*
X98973733Y-65280858D01*
X99060858Y-65193733D01*
X99095084Y-65142509D01*
X99129312Y-65091286D01*
X99176463Y-64977451D01*
X99180059Y-64959375D01*
X99181936Y-64949940D01*
X99634391Y-64949940D01*
X99654002Y-65236654D01*
X99654003Y-65236656D01*
X99712469Y-65518016D01*
X99712474Y-65518032D01*
X99808711Y-65788815D01*
X99808712Y-65788817D01*
X99940927Y-66043981D01*
X100106655Y-66278764D01*
X100302810Y-66488795D01*
X100302815Y-66488799D01*
X100302817Y-66488801D01*
X100525730Y-66670154D01*
X100525733Y-66670156D01*
X100525737Y-66670159D01*
X100607799Y-66720062D01*
X100771284Y-66819480D01*
X101034869Y-66933971D01*
X101034874Y-66933973D01*
X101311601Y-67011508D01*
X101551149Y-67044433D01*
X101596307Y-67050640D01*
X101596308Y-67050640D01*
X101883693Y-67050640D01*
X101928851Y-67044433D01*
X102168399Y-67011508D01*
X102445126Y-66933973D01*
X102708717Y-66819479D01*
X102954263Y-66670159D01*
X103177190Y-66488795D01*
X103373345Y-66278764D01*
X103539073Y-66043981D01*
X103671288Y-65788817D01*
X103767527Y-65518027D01*
X103767527Y-65518022D01*
X103767530Y-65518016D01*
X103799684Y-65363276D01*
X103825997Y-65236654D01*
X103845609Y-64949940D01*
X105504392Y-64949940D01*
X105524003Y-65236654D01*
X105524004Y-65236656D01*
X105582470Y-65518016D01*
X105582475Y-65518032D01*
X105678712Y-65788815D01*
X105678713Y-65788817D01*
X105810928Y-66043981D01*
X105976656Y-66278764D01*
X106172811Y-66488795D01*
X106172816Y-66488799D01*
X106172818Y-66488801D01*
X106395731Y-66670154D01*
X106395734Y-66670156D01*
X106395738Y-66670159D01*
X106477800Y-66720062D01*
X106641285Y-66819480D01*
X106904870Y-66933971D01*
X106904875Y-66933973D01*
X107181602Y-67011508D01*
X107421150Y-67044433D01*
X107466308Y-67050640D01*
X107466309Y-67050640D01*
X107753694Y-67050640D01*
X107798852Y-67044433D01*
X108038400Y-67011508D01*
X108315127Y-66933973D01*
X108578718Y-66819479D01*
X108824264Y-66670159D01*
X109047191Y-66488795D01*
X109243346Y-66278764D01*
X109409074Y-66043981D01*
X109541289Y-65788817D01*
X109637528Y-65518027D01*
X109637528Y-65518022D01*
X109637531Y-65518016D01*
X109669685Y-65363276D01*
X109695998Y-65236654D01*
X109715610Y-64949940D01*
X109695998Y-64663226D01*
X109672799Y-64551587D01*
X109637531Y-64381863D01*
X109637526Y-64381847D01*
X109562851Y-64171733D01*
X109541289Y-64111063D01*
X109409074Y-63855899D01*
X109243346Y-63621116D01*
X109047191Y-63411085D01*
X109047184Y-63411080D01*
X109047183Y-63411078D01*
X108824270Y-63229725D01*
X108824259Y-63229718D01*
X108578716Y-63080399D01*
X108315131Y-62965908D01*
X108038406Y-62888373D01*
X108038401Y-62888372D01*
X108038400Y-62888372D01*
X107769867Y-62851463D01*
X107753694Y-62849240D01*
X107753693Y-62849240D01*
X107466309Y-62849240D01*
X107466308Y-62849240D01*
X107181602Y-62888372D01*
X107181595Y-62888373D01*
X106904870Y-62965908D01*
X106641285Y-63080399D01*
X106395742Y-63229718D01*
X106395731Y-63229725D01*
X106172818Y-63411078D01*
X105976657Y-63621115D01*
X105810928Y-63855898D01*
X105678712Y-64111064D01*
X105582475Y-64381847D01*
X105582470Y-64381863D01*
X105524004Y-64663223D01*
X105524003Y-64663225D01*
X105504392Y-64949940D01*
X103845609Y-64949940D01*
X103825997Y-64663226D01*
X103802798Y-64551587D01*
X103767530Y-64381863D01*
X103767525Y-64381847D01*
X103692850Y-64171733D01*
X103671288Y-64111063D01*
X103539073Y-63855899D01*
X103373345Y-63621116D01*
X103177190Y-63411085D01*
X103177183Y-63411080D01*
X103177182Y-63411078D01*
X102954269Y-63229725D01*
X102954258Y-63229718D01*
X102708715Y-63080399D01*
X102445130Y-62965908D01*
X102168405Y-62888373D01*
X102168400Y-62888372D01*
X102168399Y-62888372D01*
X101899866Y-62851463D01*
X101883693Y-62849240D01*
X101883692Y-62849240D01*
X101596308Y-62849240D01*
X101596307Y-62849240D01*
X101311601Y-62888372D01*
X101311594Y-62888373D01*
X101034869Y-62965908D01*
X100771284Y-63080399D01*
X100525741Y-63229718D01*
X100525730Y-63229725D01*
X100302817Y-63411078D01*
X100106656Y-63621115D01*
X99940927Y-63855898D01*
X99808711Y-64111064D01*
X99712474Y-64381847D01*
X99712469Y-64381863D01*
X99654003Y-64663223D01*
X99654002Y-64663225D01*
X99634391Y-64949940D01*
X99181936Y-64949940D01*
X99189664Y-64911086D01*
X99200500Y-64856607D01*
X99200500Y-64733393D01*
X99200500Y-59080000D01*
X99634391Y-59080000D01*
X99654002Y-59366714D01*
X99654003Y-59366716D01*
X99712469Y-59648076D01*
X99712474Y-59648092D01*
X99808711Y-59918875D01*
X99808712Y-59918877D01*
X99940927Y-60174041D01*
X100106655Y-60408824D01*
X100302810Y-60618855D01*
X100302815Y-60618859D01*
X100302817Y-60618861D01*
X100525730Y-60800214D01*
X100525733Y-60800216D01*
X100525737Y-60800219D01*
X100643085Y-60871580D01*
X100771284Y-60949540D01*
X101034869Y-61064031D01*
X101034874Y-61064033D01*
X101311601Y-61141568D01*
X101561903Y-61175971D01*
X101596307Y-61180700D01*
X101596308Y-61180700D01*
X101883693Y-61180700D01*
X101914387Y-61176481D01*
X102168399Y-61141568D01*
X102445126Y-61064033D01*
X102708717Y-60949539D01*
X102954263Y-60800219D01*
X103177190Y-60618855D01*
X103373345Y-60408824D01*
X103539073Y-60174041D01*
X103671288Y-59918877D01*
X103767527Y-59648087D01*
X103767527Y-59648082D01*
X103767530Y-59648076D01*
X103809724Y-59445024D01*
X103825997Y-59366714D01*
X103845609Y-59080000D01*
X105504392Y-59080000D01*
X105524003Y-59366714D01*
X105524004Y-59366716D01*
X105582470Y-59648076D01*
X105582475Y-59648092D01*
X105678712Y-59918875D01*
X105678713Y-59918877D01*
X105810928Y-60174041D01*
X105976656Y-60408824D01*
X106172811Y-60618855D01*
X106172816Y-60618859D01*
X106172818Y-60618861D01*
X106395731Y-60800214D01*
X106395734Y-60800216D01*
X106395738Y-60800219D01*
X106513086Y-60871580D01*
X106641285Y-60949540D01*
X106904870Y-61064031D01*
X106904875Y-61064033D01*
X107181602Y-61141568D01*
X107431904Y-61175971D01*
X107466308Y-61180700D01*
X107466309Y-61180700D01*
X107753694Y-61180700D01*
X107784388Y-61176481D01*
X108038400Y-61141568D01*
X108315127Y-61064033D01*
X108578718Y-60949539D01*
X108824264Y-60800219D01*
X109047191Y-60618855D01*
X109243346Y-60408824D01*
X109409074Y-60174041D01*
X109541289Y-59918877D01*
X109637528Y-59648087D01*
X109637528Y-59648082D01*
X109637531Y-59648076D01*
X109679725Y-59445024D01*
X109695998Y-59366714D01*
X109715610Y-59080000D01*
X109695998Y-58793286D01*
X109675930Y-58696714D01*
X109637531Y-58511923D01*
X109637526Y-58511907D01*
X109601308Y-58410000D01*
X109541289Y-58241123D01*
X109409074Y-57985959D01*
X109243346Y-57751176D01*
X109047191Y-57541145D01*
X109047184Y-57541140D01*
X109047183Y-57541138D01*
X108824270Y-57359785D01*
X108824259Y-57359778D01*
X108578716Y-57210459D01*
X108315131Y-57095968D01*
X108038406Y-57018433D01*
X108038401Y-57018432D01*
X108038400Y-57018432D01*
X107896046Y-56998866D01*
X107753694Y-56979300D01*
X107753693Y-56979300D01*
X107466309Y-56979300D01*
X107466308Y-56979300D01*
X107181602Y-57018432D01*
X107181595Y-57018433D01*
X106904870Y-57095968D01*
X106641285Y-57210459D01*
X106395742Y-57359778D01*
X106395731Y-57359785D01*
X106172818Y-57541138D01*
X106172812Y-57541143D01*
X106172811Y-57541145D01*
X105976663Y-57751169D01*
X105976657Y-57751175D01*
X105810928Y-57985958D01*
X105678712Y-58241124D01*
X105582475Y-58511907D01*
X105582470Y-58511923D01*
X105524004Y-58793283D01*
X105524003Y-58793285D01*
X105504392Y-59080000D01*
X103845609Y-59080000D01*
X103825997Y-58793286D01*
X103805929Y-58696714D01*
X103767530Y-58511923D01*
X103767525Y-58511907D01*
X103731307Y-58410000D01*
X103671288Y-58241123D01*
X103539073Y-57985959D01*
X103373345Y-57751176D01*
X103177190Y-57541145D01*
X103177183Y-57541140D01*
X103177182Y-57541138D01*
X102954269Y-57359785D01*
X102954258Y-57359778D01*
X102708715Y-57210459D01*
X102445130Y-57095968D01*
X102168405Y-57018433D01*
X102168400Y-57018432D01*
X102168399Y-57018432D01*
X102026045Y-56998866D01*
X101883693Y-56979300D01*
X101883692Y-56979300D01*
X101596308Y-56979300D01*
X101596307Y-56979300D01*
X101311601Y-57018432D01*
X101311594Y-57018433D01*
X101034869Y-57095968D01*
X100771284Y-57210459D01*
X100525741Y-57359778D01*
X100525730Y-57359785D01*
X100302817Y-57541138D01*
X100302811Y-57541143D01*
X100302810Y-57541145D01*
X100106662Y-57751169D01*
X100106656Y-57751175D01*
X99940927Y-57985958D01*
X99808711Y-58241124D01*
X99712474Y-58511907D01*
X99712469Y-58511923D01*
X99654003Y-58793283D01*
X99654002Y-58793285D01*
X99634391Y-59080000D01*
X99200500Y-59080000D01*
X99200500Y-57832454D01*
X99220185Y-57765415D01*
X99272989Y-57719660D01*
X99273936Y-57719232D01*
X99352730Y-57684151D01*
X99505871Y-57572888D01*
X99632533Y-57432216D01*
X99727179Y-57268284D01*
X99785674Y-57088256D01*
X99805460Y-56900000D01*
X99785674Y-56711744D01*
X99727179Y-56531716D01*
X99632533Y-56367784D01*
X99505871Y-56227112D01*
X99505870Y-56227111D01*
X99405584Y-56154249D01*
X99362918Y-56098919D01*
X99356939Y-56029306D01*
X99360531Y-56015634D01*
X99385674Y-55938256D01*
X99405460Y-55750000D01*
X99385674Y-55561744D01*
X99327179Y-55381716D01*
X99232533Y-55217784D01*
X99105871Y-55077112D01*
X99105870Y-55077111D01*
X98952734Y-54965851D01*
X98952729Y-54965848D01*
X98779807Y-54888857D01*
X98779802Y-54888855D01*
X98634001Y-54857865D01*
X98594646Y-54849500D01*
X98594645Y-54849500D01*
X98466013Y-54849500D01*
X98418561Y-54840062D01*
X98375792Y-54822347D01*
X98375792Y-54822346D01*
X98375791Y-54822346D01*
X98342458Y-54808539D01*
X98342454Y-54808537D01*
X98342452Y-54808537D01*
X98342448Y-54808536D01*
X98342444Y-54808535D01*
X98245672Y-54789285D01*
X98245663Y-54789285D01*
X98221607Y-54784500D01*
X98221606Y-54784500D01*
X96053748Y-54784500D01*
X95986709Y-54764815D01*
X95961600Y-54743474D01*
X95955873Y-54737114D01*
X95955869Y-54737110D01*
X95802734Y-54625851D01*
X95802729Y-54625848D01*
X95629807Y-54548857D01*
X95629802Y-54548855D01*
X95483619Y-54517784D01*
X95444646Y-54509500D01*
X95330660Y-54509500D01*
X95263621Y-54489815D01*
X95217866Y-54437011D01*
X95207339Y-54398462D01*
X95205095Y-54377111D01*
X95197174Y-54301744D01*
X95138679Y-54121716D01*
X95044033Y-53957784D01*
X95018139Y-53929026D01*
X94968850Y-53874284D01*
X94938620Y-53811292D01*
X94937000Y-53791312D01*
X94937000Y-52270000D01*
X99654391Y-52270000D01*
X99674002Y-52556714D01*
X99674003Y-52556716D01*
X99732469Y-52838076D01*
X99732474Y-52838092D01*
X99828454Y-53108152D01*
X99828712Y-53108877D01*
X99960927Y-53364041D01*
X100126655Y-53598824D01*
X100322810Y-53808855D01*
X100322815Y-53808859D01*
X100322817Y-53808861D01*
X100545730Y-53990214D01*
X100545733Y-53990216D01*
X100545737Y-53990219D01*
X100644562Y-54050316D01*
X100791284Y-54139540D01*
X101054869Y-54254031D01*
X101054874Y-54254033D01*
X101331601Y-54331568D01*
X101580178Y-54365734D01*
X101616307Y-54370700D01*
X101616308Y-54370700D01*
X101903693Y-54370700D01*
X101939822Y-54365734D01*
X102188399Y-54331568D01*
X102465126Y-54254033D01*
X102728717Y-54139539D01*
X102974263Y-53990219D01*
X103197190Y-53808855D01*
X103393345Y-53598824D01*
X103559073Y-53364041D01*
X103691288Y-53108877D01*
X103787527Y-52838087D01*
X103787527Y-52838082D01*
X103787530Y-52838076D01*
X103831985Y-52624143D01*
X103845997Y-52556714D01*
X103865609Y-52270000D01*
X105524392Y-52270000D01*
X105544003Y-52556714D01*
X105544004Y-52556716D01*
X105602470Y-52838076D01*
X105602475Y-52838092D01*
X105698455Y-53108152D01*
X105698713Y-53108877D01*
X105830928Y-53364041D01*
X105996656Y-53598824D01*
X106192811Y-53808855D01*
X106192816Y-53808859D01*
X106192818Y-53808861D01*
X106415731Y-53990214D01*
X106415734Y-53990216D01*
X106415738Y-53990219D01*
X106514563Y-54050316D01*
X106661285Y-54139540D01*
X106924870Y-54254031D01*
X106924875Y-54254033D01*
X107201602Y-54331568D01*
X107450179Y-54365734D01*
X107486308Y-54370700D01*
X107486309Y-54370700D01*
X107773694Y-54370700D01*
X107809823Y-54365734D01*
X108058400Y-54331568D01*
X108335127Y-54254033D01*
X108598718Y-54139539D01*
X108844264Y-53990219D01*
X109067191Y-53808855D01*
X109263346Y-53598824D01*
X109429074Y-53364041D01*
X109561289Y-53108877D01*
X109657528Y-52838087D01*
X109657528Y-52838082D01*
X109657531Y-52838076D01*
X109701986Y-52624143D01*
X109715998Y-52556714D01*
X109735610Y-52270000D01*
X109715998Y-51983286D01*
X109695410Y-51884211D01*
X109657531Y-51701923D01*
X109657526Y-51701907D01*
X109608328Y-51563478D01*
X109561289Y-51431123D01*
X109429074Y-51175959D01*
X109263346Y-50941176D01*
X109067191Y-50731145D01*
X109067184Y-50731140D01*
X109067183Y-50731138D01*
X108844270Y-50549785D01*
X108844259Y-50549778D01*
X108598716Y-50400459D01*
X108335131Y-50285968D01*
X108058406Y-50208433D01*
X108058401Y-50208432D01*
X108058400Y-50208432D01*
X107916046Y-50188866D01*
X107773694Y-50169300D01*
X107773693Y-50169300D01*
X107486309Y-50169300D01*
X107486308Y-50169300D01*
X107201602Y-50208432D01*
X107201595Y-50208433D01*
X106924870Y-50285968D01*
X106661285Y-50400459D01*
X106415742Y-50549778D01*
X106415731Y-50549785D01*
X106192818Y-50731138D01*
X106192812Y-50731143D01*
X106192811Y-50731145D01*
X105996656Y-50941176D01*
X105947912Y-51010230D01*
X105830928Y-51175958D01*
X105698712Y-51431124D01*
X105602475Y-51701907D01*
X105602470Y-51701923D01*
X105544004Y-51983283D01*
X105544003Y-51983285D01*
X105524392Y-52270000D01*
X103865609Y-52270000D01*
X103845997Y-51983286D01*
X103825409Y-51884211D01*
X103787530Y-51701923D01*
X103787525Y-51701907D01*
X103738327Y-51563478D01*
X103691288Y-51431123D01*
X103559073Y-51175959D01*
X103393345Y-50941176D01*
X103197190Y-50731145D01*
X103197183Y-50731140D01*
X103197182Y-50731138D01*
X102974269Y-50549785D01*
X102974258Y-50549778D01*
X102728715Y-50400459D01*
X102465130Y-50285968D01*
X102188405Y-50208433D01*
X102188400Y-50208432D01*
X102188399Y-50208432D01*
X102046045Y-50188866D01*
X101903693Y-50169300D01*
X101903692Y-50169300D01*
X101616308Y-50169300D01*
X101616307Y-50169300D01*
X101331601Y-50208432D01*
X101331594Y-50208433D01*
X101054869Y-50285968D01*
X100791284Y-50400459D01*
X100545741Y-50549778D01*
X100545730Y-50549785D01*
X100322817Y-50731138D01*
X100322811Y-50731143D01*
X100322810Y-50731145D01*
X100126655Y-50941176D01*
X100077911Y-51010230D01*
X99960927Y-51175958D01*
X99828711Y-51431124D01*
X99732474Y-51701907D01*
X99732469Y-51701923D01*
X99674003Y-51983283D01*
X99674002Y-51983285D01*
X99654391Y-52270000D01*
X94937000Y-52270000D01*
X94937000Y-47877825D01*
X94936999Y-47877821D01*
X94925818Y-47821607D01*
X94912963Y-47756980D01*
X94888650Y-47698284D01*
X94865812Y-47643147D01*
X94837471Y-47600733D01*
X94797358Y-47540699D01*
X94797356Y-47540696D01*
X94707137Y-47450477D01*
X94707106Y-47450448D01*
X93656718Y-46400060D01*
X99654391Y-46400060D01*
X99674002Y-46686774D01*
X99674003Y-46686776D01*
X99732469Y-46968136D01*
X99732474Y-46968152D01*
X99799376Y-47156394D01*
X99828712Y-47238937D01*
X99960927Y-47494101D01*
X100126655Y-47728884D01*
X100322810Y-47938915D01*
X100322815Y-47938919D01*
X100322817Y-47938921D01*
X100545730Y-48120274D01*
X100545733Y-48120276D01*
X100545737Y-48120279D01*
X100608969Y-48158731D01*
X100791284Y-48269600D01*
X101054869Y-48384091D01*
X101054874Y-48384093D01*
X101331601Y-48461628D01*
X101581903Y-48496031D01*
X101616307Y-48500760D01*
X101616308Y-48500760D01*
X101903693Y-48500760D01*
X101934387Y-48496541D01*
X102188399Y-48461628D01*
X102465126Y-48384093D01*
X102728717Y-48269599D01*
X102974263Y-48120279D01*
X103197190Y-47938915D01*
X103393345Y-47728884D01*
X103559073Y-47494101D01*
X103691288Y-47238937D01*
X103787527Y-46968147D01*
X103787527Y-46968142D01*
X103787530Y-46968136D01*
X103843605Y-46698284D01*
X103845997Y-46686774D01*
X103865609Y-46400060D01*
X105524392Y-46400060D01*
X105544003Y-46686774D01*
X105544004Y-46686776D01*
X105602470Y-46968136D01*
X105602475Y-46968152D01*
X105669377Y-47156394D01*
X105698713Y-47238937D01*
X105830928Y-47494101D01*
X105996656Y-47728884D01*
X106192811Y-47938915D01*
X106192816Y-47938919D01*
X106192818Y-47938921D01*
X106415731Y-48120274D01*
X106415734Y-48120276D01*
X106415738Y-48120279D01*
X106478970Y-48158731D01*
X106661285Y-48269600D01*
X106924870Y-48384091D01*
X106924875Y-48384093D01*
X107201602Y-48461628D01*
X107451904Y-48496031D01*
X107486308Y-48500760D01*
X107486309Y-48500760D01*
X107773694Y-48500760D01*
X107804388Y-48496541D01*
X108058400Y-48461628D01*
X108335127Y-48384093D01*
X108598718Y-48269599D01*
X108844264Y-48120279D01*
X109067191Y-47938915D01*
X109263346Y-47728884D01*
X109429074Y-47494101D01*
X109561289Y-47238937D01*
X109657528Y-46968147D01*
X109657528Y-46968142D01*
X109657531Y-46968136D01*
X109713606Y-46698284D01*
X109715998Y-46686774D01*
X109735610Y-46400060D01*
X109715998Y-46113346D01*
X109684490Y-45961722D01*
X109657531Y-45831983D01*
X109657526Y-45831967D01*
X109611178Y-45701556D01*
X109561289Y-45561183D01*
X109429074Y-45306019D01*
X109263346Y-45071236D01*
X109067191Y-44861205D01*
X109067184Y-44861200D01*
X109067183Y-44861198D01*
X108844270Y-44679845D01*
X108844259Y-44679838D01*
X108598716Y-44530519D01*
X108335131Y-44416028D01*
X108058406Y-44338493D01*
X108058401Y-44338492D01*
X108058400Y-44338492D01*
X107862899Y-44311621D01*
X107773694Y-44299360D01*
X107773693Y-44299360D01*
X107486309Y-44299360D01*
X107486308Y-44299360D01*
X107201602Y-44338492D01*
X107201595Y-44338493D01*
X106924870Y-44416028D01*
X106661285Y-44530519D01*
X106415742Y-44679838D01*
X106415731Y-44679845D01*
X106192818Y-44861198D01*
X106192812Y-44861203D01*
X106192811Y-44861205D01*
X105996656Y-45071236D01*
X105947912Y-45140290D01*
X105830928Y-45306018D01*
X105698712Y-45561184D01*
X105602475Y-45831967D01*
X105602470Y-45831983D01*
X105544004Y-46113343D01*
X105544003Y-46113345D01*
X105524392Y-46400060D01*
X103865609Y-46400060D01*
X103845997Y-46113346D01*
X103814489Y-45961722D01*
X103787530Y-45831983D01*
X103787525Y-45831967D01*
X103741177Y-45701556D01*
X103691288Y-45561183D01*
X103559073Y-45306019D01*
X103393345Y-45071236D01*
X103197190Y-44861205D01*
X103197183Y-44861200D01*
X103197182Y-44861198D01*
X102974269Y-44679845D01*
X102974258Y-44679838D01*
X102728715Y-44530519D01*
X102465130Y-44416028D01*
X102188405Y-44338493D01*
X102188400Y-44338492D01*
X102188399Y-44338492D01*
X101992898Y-44311621D01*
X101903693Y-44299360D01*
X101903692Y-44299360D01*
X101616308Y-44299360D01*
X101616307Y-44299360D01*
X101331601Y-44338492D01*
X101331594Y-44338493D01*
X101054869Y-44416028D01*
X100791284Y-44530519D01*
X100545741Y-44679838D01*
X100545730Y-44679845D01*
X100322817Y-44861198D01*
X100322811Y-44861203D01*
X100322810Y-44861205D01*
X100126655Y-45071236D01*
X100077911Y-45140290D01*
X99960927Y-45306018D01*
X99828711Y-45561184D01*
X99732474Y-45831967D01*
X99732469Y-45831983D01*
X99674003Y-46113343D01*
X99674002Y-46113345D01*
X99654391Y-46400060D01*
X93656718Y-46400060D01*
X89662133Y-42405475D01*
X89628648Y-42344152D01*
X89633632Y-42274460D01*
X89642423Y-42255802D01*
X89687179Y-42178284D01*
X89745674Y-41998256D01*
X89762812Y-41835186D01*
X89789395Y-41770576D01*
X89846692Y-41730591D01*
X89916511Y-41727931D01*
X89973813Y-41760471D01*
X93008948Y-44795606D01*
X93008977Y-44795637D01*
X93099193Y-44885853D01*
X93099196Y-44885855D01*
X93099199Y-44885858D01*
X93128877Y-44905688D01*
X93201646Y-44954312D01*
X93265436Y-44980734D01*
X93315480Y-45001463D01*
X93375903Y-45013481D01*
X93436325Y-45025500D01*
X93436326Y-45025500D01*
X97046252Y-45025500D01*
X97113291Y-45045185D01*
X97138400Y-45066526D01*
X97144126Y-45072885D01*
X97144130Y-45072889D01*
X97297265Y-45184148D01*
X97297270Y-45184151D01*
X97470192Y-45261142D01*
X97470197Y-45261144D01*
X97655354Y-45300500D01*
X97655355Y-45300500D01*
X97844644Y-45300500D01*
X97844646Y-45300500D01*
X98029803Y-45261144D01*
X98202730Y-45184151D01*
X98355871Y-45072888D01*
X98482533Y-44932216D01*
X98577179Y-44768284D01*
X98635674Y-44588256D01*
X98655460Y-44400000D01*
X98635674Y-44211744D01*
X98577179Y-44031716D01*
X98482533Y-43867784D01*
X98355871Y-43727112D01*
X98355870Y-43727111D01*
X98202732Y-43615850D01*
X98202729Y-43615848D01*
X98029807Y-43538857D01*
X98029802Y-43538855D01*
X97884001Y-43507865D01*
X97844646Y-43499500D01*
X97655354Y-43499500D01*
X97622897Y-43506398D01*
X97470197Y-43538855D01*
X97470192Y-43538857D01*
X97297270Y-43615848D01*
X97297268Y-43615850D01*
X97144130Y-43727110D01*
X97144126Y-43727114D01*
X97138400Y-43733474D01*
X97078913Y-43770121D01*
X97046252Y-43774500D01*
X93808384Y-43774500D01*
X93741345Y-43754815D01*
X93720703Y-43738181D01*
X93369703Y-43387181D01*
X93336218Y-43325858D01*
X93341202Y-43256166D01*
X93383074Y-43200233D01*
X93448538Y-43175816D01*
X93457384Y-43175500D01*
X94896252Y-43175500D01*
X94963291Y-43195185D01*
X94988400Y-43216526D01*
X94994126Y-43222885D01*
X94994130Y-43222889D01*
X95147265Y-43334148D01*
X95147270Y-43334151D01*
X95320192Y-43411142D01*
X95320197Y-43411144D01*
X95505354Y-43450500D01*
X95505355Y-43450500D01*
X95694644Y-43450500D01*
X95694646Y-43450500D01*
X95879803Y-43411144D01*
X96052730Y-43334151D01*
X96205871Y-43222888D01*
X96332533Y-43082216D01*
X96427179Y-42918284D01*
X96485674Y-42738256D01*
X96505460Y-42550000D01*
X96485674Y-42361744D01*
X96427179Y-42181716D01*
X96332533Y-42017784D01*
X96205871Y-41877112D01*
X96205870Y-41877111D01*
X96052734Y-41765851D01*
X96052729Y-41765848D01*
X95879807Y-41688857D01*
X95879802Y-41688855D01*
X95734001Y-41657865D01*
X95694646Y-41649500D01*
X95505354Y-41649500D01*
X95472897Y-41656398D01*
X95320197Y-41688855D01*
X95320192Y-41688857D01*
X95147270Y-41765848D01*
X95147265Y-41765851D01*
X94994130Y-41877110D01*
X94994126Y-41877114D01*
X94988400Y-41883474D01*
X94928913Y-41920121D01*
X94896252Y-41924500D01*
X93273748Y-41924500D01*
X93206709Y-41904815D01*
X93181600Y-41883474D01*
X93175873Y-41877114D01*
X93175869Y-41877110D01*
X93022734Y-41765851D01*
X93022729Y-41765848D01*
X92849807Y-41688857D01*
X92849802Y-41688855D01*
X92704001Y-41657865D01*
X92664646Y-41649500D01*
X92475354Y-41649500D01*
X92442897Y-41656398D01*
X92290197Y-41688855D01*
X92290192Y-41688857D01*
X92117270Y-41765848D01*
X92117265Y-41765851D01*
X91989285Y-41858834D01*
X91923478Y-41882314D01*
X91855425Y-41866488D01*
X91828719Y-41846197D01*
X90212522Y-40230000D01*
X99414390Y-40230000D01*
X99434001Y-40516714D01*
X99434002Y-40516716D01*
X99492468Y-40798076D01*
X99492473Y-40798092D01*
X99586352Y-41062240D01*
X99588711Y-41068877D01*
X99720926Y-41324041D01*
X99886654Y-41558824D01*
X100082809Y-41768855D01*
X100082814Y-41768859D01*
X100082816Y-41768861D01*
X100305729Y-41950214D01*
X100305732Y-41950216D01*
X100305736Y-41950219D01*
X100434553Y-42028554D01*
X100551283Y-42099540D01*
X100814868Y-42214031D01*
X100814873Y-42214033D01*
X101091600Y-42291568D01*
X101341902Y-42325971D01*
X101376306Y-42330700D01*
X101376307Y-42330700D01*
X101663692Y-42330700D01*
X101694386Y-42326481D01*
X101948398Y-42291568D01*
X102225125Y-42214033D01*
X102488716Y-42099539D01*
X102734262Y-41950219D01*
X102957189Y-41768855D01*
X103153344Y-41558824D01*
X103319072Y-41324041D01*
X103451287Y-41068877D01*
X103547526Y-40798087D01*
X103547526Y-40798082D01*
X103547529Y-40798076D01*
X103579683Y-40643336D01*
X103605996Y-40516714D01*
X103625608Y-40230000D01*
X105284391Y-40230000D01*
X105304002Y-40516714D01*
X105304003Y-40516716D01*
X105362469Y-40798076D01*
X105362474Y-40798092D01*
X105456353Y-41062240D01*
X105458712Y-41068877D01*
X105590927Y-41324041D01*
X105756655Y-41558824D01*
X105952810Y-41768855D01*
X105952815Y-41768859D01*
X105952817Y-41768861D01*
X106175730Y-41950214D01*
X106175733Y-41950216D01*
X106175737Y-41950219D01*
X106304554Y-42028554D01*
X106421284Y-42099540D01*
X106684869Y-42214031D01*
X106684874Y-42214033D01*
X106961601Y-42291568D01*
X107211903Y-42325971D01*
X107246307Y-42330700D01*
X107246308Y-42330700D01*
X107533693Y-42330700D01*
X107564387Y-42326481D01*
X107818399Y-42291568D01*
X108095126Y-42214033D01*
X108358717Y-42099539D01*
X108604263Y-41950219D01*
X108827190Y-41768855D01*
X109023345Y-41558824D01*
X109189073Y-41324041D01*
X109321288Y-41068877D01*
X109417527Y-40798087D01*
X109417527Y-40798082D01*
X109417530Y-40798076D01*
X109449684Y-40643336D01*
X109475997Y-40516714D01*
X109495609Y-40230000D01*
X109475997Y-39943286D01*
X109418069Y-39664519D01*
X109417530Y-39661923D01*
X109417525Y-39661907D01*
X109321288Y-39391124D01*
X109321288Y-39391123D01*
X109189073Y-39135959D01*
X109023345Y-38901176D01*
X108827190Y-38691145D01*
X108827183Y-38691140D01*
X108827182Y-38691138D01*
X108604269Y-38509785D01*
X108604258Y-38509778D01*
X108358715Y-38360459D01*
X108095130Y-38245968D01*
X107818405Y-38168433D01*
X107818400Y-38168432D01*
X107818399Y-38168432D01*
X107676045Y-38148866D01*
X107533693Y-38129300D01*
X107533692Y-38129300D01*
X107246308Y-38129300D01*
X107246307Y-38129300D01*
X106961601Y-38168432D01*
X106961594Y-38168433D01*
X106684869Y-38245968D01*
X106421284Y-38360459D01*
X106175741Y-38509778D01*
X106175730Y-38509785D01*
X105952817Y-38691138D01*
X105756656Y-38901175D01*
X105590927Y-39135958D01*
X105458711Y-39391124D01*
X105362474Y-39661907D01*
X105362469Y-39661923D01*
X105304003Y-39943283D01*
X105304002Y-39943285D01*
X105284391Y-40230000D01*
X103625608Y-40230000D01*
X103605996Y-39943286D01*
X103548068Y-39664519D01*
X103547529Y-39661923D01*
X103547524Y-39661907D01*
X103451287Y-39391124D01*
X103451287Y-39391123D01*
X103319072Y-39135959D01*
X103153344Y-38901176D01*
X102957189Y-38691145D01*
X102957182Y-38691140D01*
X102957181Y-38691138D01*
X102734268Y-38509785D01*
X102734257Y-38509778D01*
X102488714Y-38360459D01*
X102225129Y-38245968D01*
X101948404Y-38168433D01*
X101948399Y-38168432D01*
X101948398Y-38168432D01*
X101806044Y-38148866D01*
X101663692Y-38129300D01*
X101663691Y-38129300D01*
X101376307Y-38129300D01*
X101376306Y-38129300D01*
X101091600Y-38168432D01*
X101091593Y-38168433D01*
X100814868Y-38245968D01*
X100551283Y-38360459D01*
X100305740Y-38509778D01*
X100305729Y-38509785D01*
X100082816Y-38691138D01*
X99886655Y-38901175D01*
X99720926Y-39135958D01*
X99588710Y-39391124D01*
X99492473Y-39661907D01*
X99492468Y-39661923D01*
X99434002Y-39943283D01*
X99434001Y-39943285D01*
X99414390Y-40230000D01*
X90212522Y-40230000D01*
X89241819Y-39259297D01*
X89208334Y-39197974D01*
X89205500Y-39171616D01*
X89205500Y-38448687D01*
X89225185Y-38381648D01*
X89237350Y-38365715D01*
X89255891Y-38345122D01*
X89312533Y-38282216D01*
X89407179Y-38118284D01*
X89465674Y-37938256D01*
X89485460Y-37750000D01*
X89465674Y-37561744D01*
X89407179Y-37381716D01*
X89338993Y-37263615D01*
X89322521Y-37195716D01*
X89345374Y-37129689D01*
X89395943Y-37088339D01*
X89472730Y-37054151D01*
X89625871Y-36942888D01*
X89752533Y-36802216D01*
X89847179Y-36638284D01*
X89905674Y-36458256D01*
X89925460Y-36270000D01*
X89905674Y-36081744D01*
X89847179Y-35901716D01*
X89752533Y-35737784D01*
X89625871Y-35597112D01*
X89625870Y-35597111D01*
X89472734Y-35485851D01*
X89472729Y-35485848D01*
X89299807Y-35408857D01*
X89299802Y-35408855D01*
X89154001Y-35377865D01*
X89114646Y-35369500D01*
X88925354Y-35369500D01*
X88892897Y-35376398D01*
X88740197Y-35408855D01*
X88740192Y-35408857D01*
X88567270Y-35485848D01*
X88567265Y-35485851D01*
X88414130Y-35597110D01*
X88414126Y-35597114D01*
X88408400Y-35603474D01*
X88348913Y-35640121D01*
X88316252Y-35644500D01*
X87758389Y-35644500D01*
X87697971Y-35656518D01*
X87654743Y-35665116D01*
X87637546Y-35668537D01*
X87523716Y-35715687D01*
X87421265Y-35784142D01*
X87421262Y-35784145D01*
X86951269Y-36254140D01*
X86864144Y-36341264D01*
X86864138Y-36341272D01*
X86795690Y-36443708D01*
X86795688Y-36443713D01*
X86748540Y-36557538D01*
X86748535Y-36557554D01*
X86726422Y-36668725D01*
X86726423Y-36668726D01*
X86724500Y-36678394D01*
X86724500Y-41459548D01*
X86704815Y-41526587D01*
X86688181Y-41547229D01*
X85894229Y-42341181D01*
X85832906Y-42374666D01*
X85806548Y-42377500D01*
X65835393Y-42377500D01*
X65817153Y-42381128D01*
X65817152Y-42381127D01*
X65714555Y-42401535D01*
X65714548Y-42401537D01*
X65690582Y-42411464D01*
X65690581Y-42411463D01*
X65600715Y-42448686D01*
X65590627Y-42455428D01*
X65590626Y-42455429D01*
X65498268Y-42517140D01*
X65465409Y-42550000D01*
X65411142Y-42604267D01*
X65411139Y-42604270D01*
X56241270Y-51774139D01*
X56241267Y-51774142D01*
X56210224Y-51805185D01*
X56154142Y-51861266D01*
X56123217Y-51907549D01*
X56123216Y-51907548D01*
X56085689Y-51963711D01*
X56085688Y-51963713D01*
X56077581Y-51983286D01*
X56059624Y-52026639D01*
X56059623Y-52026642D01*
X56040053Y-52073886D01*
X55996211Y-52128288D01*
X55929917Y-52150352D01*
X55862218Y-52133072D01*
X55814608Y-52081934D01*
X55804087Y-52051663D01*
X55787528Y-51971973D01*
X55784592Y-51963713D01*
X55753688Y-51876756D01*
X55691289Y-51701183D01*
X55559074Y-51446019D01*
X55393346Y-51211236D01*
X55197191Y-51001205D01*
X55197184Y-51001200D01*
X55197183Y-51001198D01*
X54974270Y-50819845D01*
X54974259Y-50819838D01*
X54728716Y-50670519D01*
X54465131Y-50556028D01*
X54188406Y-50478493D01*
X54188401Y-50478492D01*
X54188400Y-50478492D01*
X54046046Y-50458926D01*
X53903694Y-50439360D01*
X53903693Y-50439360D01*
X53616309Y-50439360D01*
X53616308Y-50439360D01*
X53331602Y-50478492D01*
X53331595Y-50478493D01*
X53054870Y-50556028D01*
X52791285Y-50670519D01*
X52545742Y-50819838D01*
X52545731Y-50819845D01*
X52322818Y-51001198D01*
X52322812Y-51001203D01*
X52322811Y-51001205D01*
X52138219Y-51198855D01*
X52126657Y-51211235D01*
X51960928Y-51446018D01*
X51828712Y-51701184D01*
X51732475Y-51971967D01*
X51732470Y-51971983D01*
X51674004Y-52253343D01*
X51674003Y-52253345D01*
X51654392Y-52540060D01*
X51674003Y-52826774D01*
X51674004Y-52826776D01*
X51732470Y-53108136D01*
X51732475Y-53108152D01*
X51828712Y-53378935D01*
X51828713Y-53378937D01*
X51960928Y-53634101D01*
X52126656Y-53868884D01*
X52322811Y-54078915D01*
X52322816Y-54078919D01*
X52322818Y-54078921D01*
X52545731Y-54260274D01*
X52545734Y-54260276D01*
X52545738Y-54260279D01*
X52662964Y-54331566D01*
X52791285Y-54409600D01*
X53054870Y-54524091D01*
X53054875Y-54524093D01*
X53331602Y-54601628D01*
X53581904Y-54636031D01*
X53616308Y-54640760D01*
X53616309Y-54640760D01*
X53903694Y-54640760D01*
X53934388Y-54636541D01*
X54188400Y-54601628D01*
X54465127Y-54524093D01*
X54728718Y-54409599D01*
X54728725Y-54409594D01*
X54728729Y-54409593D01*
X54732493Y-54407644D01*
X54733216Y-54409040D01*
X54794327Y-54392702D01*
X54860867Y-54414013D01*
X54905322Y-54467916D01*
X54913579Y-54537296D01*
X54909238Y-54554983D01*
X54853406Y-54726819D01*
X54853113Y-54727721D01*
X54833327Y-54915977D01*
X54853113Y-55104233D01*
X54853114Y-55104236D01*
X54911605Y-55284254D01*
X54911607Y-55284259D01*
X54911608Y-55284261D01*
X54915890Y-55291678D01*
X54936845Y-55327973D01*
X54953316Y-55395874D01*
X54936847Y-55451968D01*
X54924062Y-55474113D01*
X54886058Y-55591078D01*
X54865568Y-55654140D01*
X54845782Y-55842396D01*
X54865568Y-56030652D01*
X54865569Y-56030655D01*
X54924060Y-56210673D01*
X54924063Y-56210680D01*
X55018709Y-56374612D01*
X55040428Y-56398733D01*
X55093892Y-56458111D01*
X55124122Y-56521102D01*
X55125742Y-56541083D01*
X55125742Y-56561362D01*
X55106057Y-56628401D01*
X55053253Y-56674156D01*
X54984095Y-56684100D01*
X54937314Y-56667310D01*
X54728716Y-56540459D01*
X54465131Y-56425968D01*
X54188406Y-56348433D01*
X54188401Y-56348432D01*
X54188400Y-56348432D01*
X54046046Y-56328866D01*
X53903694Y-56309300D01*
X53903693Y-56309300D01*
X53616309Y-56309300D01*
X53616308Y-56309300D01*
X53331602Y-56348432D01*
X53331595Y-56348433D01*
X53054870Y-56425968D01*
X52791285Y-56540459D01*
X52545742Y-56689778D01*
X52545731Y-56689785D01*
X52322818Y-56871138D01*
X52322812Y-56871143D01*
X52322811Y-56871145D01*
X52126656Y-57081176D01*
X52116215Y-57095968D01*
X51960928Y-57315958D01*
X51828712Y-57571124D01*
X51732475Y-57841907D01*
X51732470Y-57841923D01*
X51674004Y-58123283D01*
X51674003Y-58123285D01*
X51654392Y-58410000D01*
X51674003Y-58696714D01*
X51674004Y-58696716D01*
X51732470Y-58978076D01*
X51732475Y-58978092D01*
X51828712Y-59248875D01*
X51828713Y-59248877D01*
X51960928Y-59504041D01*
X52126656Y-59738824D01*
X52322811Y-59948855D01*
X52322816Y-59948859D01*
X52322818Y-59948861D01*
X52545731Y-60130214D01*
X52545734Y-60130216D01*
X52545738Y-60130219D01*
X52617800Y-60174041D01*
X52791285Y-60279540D01*
X53054870Y-60394031D01*
X53054875Y-60394033D01*
X53331602Y-60471568D01*
X53581904Y-60505971D01*
X53616308Y-60510700D01*
X53616309Y-60510700D01*
X53903694Y-60510700D01*
X53934388Y-60506481D01*
X54188400Y-60471568D01*
X54465127Y-60394033D01*
X54676669Y-60302147D01*
X54728716Y-60279540D01*
X54728718Y-60279539D01*
X54974264Y-60130219D01*
X55197191Y-59948855D01*
X55393346Y-59738824D01*
X55559074Y-59504041D01*
X55691289Y-59248877D01*
X55757450Y-59062715D01*
X55798447Y-59006140D01*
X55863525Y-58980710D01*
X55932020Y-58994500D01*
X55961971Y-59016561D01*
X57026843Y-60081433D01*
X57060328Y-60142756D01*
X57055344Y-60212448D01*
X57013472Y-60268381D01*
X57008055Y-60272215D01*
X56973030Y-60295619D01*
X56963264Y-60302143D01*
X56963260Y-60302147D01*
X56404269Y-60861140D01*
X56317144Y-60948264D01*
X56317138Y-60948272D01*
X56248690Y-61050708D01*
X56248688Y-61050713D01*
X56223274Y-61112068D01*
X56223274Y-61112070D01*
X56201537Y-61164548D01*
X56201536Y-61164552D01*
X56201536Y-61164553D01*
X56201535Y-61164554D01*
X56193627Y-61204310D01*
X56193628Y-61204311D01*
X56179796Y-61273853D01*
X56177500Y-61285395D01*
X56177500Y-68564611D01*
X56201535Y-68685444D01*
X56201540Y-68685461D01*
X56248685Y-68799281D01*
X56248690Y-68799290D01*
X56264449Y-68822874D01*
X56264450Y-68822875D01*
X56317141Y-68901732D01*
X56317144Y-68901736D01*
X56408586Y-68993178D01*
X56408608Y-68993198D01*
X57211987Y-69796577D01*
X57245472Y-69857900D01*
X57240488Y-69927592D01*
X57198616Y-69983525D01*
X57133152Y-70007942D01*
X57124325Y-70008258D01*
X51796453Y-70009091D01*
X51796240Y-70009091D01*
X46108893Y-70000208D01*
X46041885Y-69980419D01*
X45996212Y-69927543D01*
X45985087Y-69876128D01*
X45991746Y-59754135D01*
X46011474Y-59687116D01*
X46064308Y-59641396D01*
X46133473Y-59631498D01*
X46197009Y-59660564D01*
X46217048Y-59682714D01*
X46256655Y-59738824D01*
X46452810Y-59948855D01*
X46452815Y-59948859D01*
X46452817Y-59948861D01*
X46675730Y-60130214D01*
X46675733Y-60130216D01*
X46675737Y-60130219D01*
X46747799Y-60174041D01*
X46921284Y-60279540D01*
X47184869Y-60394031D01*
X47184874Y-60394033D01*
X47461601Y-60471568D01*
X47711903Y-60505971D01*
X47746307Y-60510700D01*
X47746308Y-60510700D01*
X48033693Y-60510700D01*
X48064387Y-60506481D01*
X48318399Y-60471568D01*
X48595126Y-60394033D01*
X48806668Y-60302147D01*
X48858715Y-60279540D01*
X48858717Y-60279539D01*
X49104263Y-60130219D01*
X49327190Y-59948855D01*
X49523345Y-59738824D01*
X49689073Y-59504041D01*
X49821288Y-59248877D01*
X49917527Y-58978087D01*
X49917527Y-58978082D01*
X49917530Y-58978076D01*
X49955930Y-58793283D01*
X49975997Y-58696714D01*
X49995609Y-58410000D01*
X49975997Y-58123286D01*
X49943880Y-57968729D01*
X49917530Y-57841923D01*
X49917525Y-57841907D01*
X49885279Y-57751175D01*
X49821288Y-57571123D01*
X49689073Y-57315959D01*
X49523345Y-57081176D01*
X49327190Y-56871145D01*
X49327183Y-56871140D01*
X49327182Y-56871138D01*
X49104269Y-56689785D01*
X49104258Y-56689778D01*
X48858715Y-56540459D01*
X48595130Y-56425968D01*
X48318405Y-56348433D01*
X48318400Y-56348432D01*
X48318399Y-56348432D01*
X48176045Y-56328866D01*
X48033693Y-56309300D01*
X48033692Y-56309300D01*
X47746308Y-56309300D01*
X47746307Y-56309300D01*
X47461601Y-56348432D01*
X47461594Y-56348433D01*
X47184869Y-56425968D01*
X46921284Y-56540459D01*
X46675741Y-56689778D01*
X46675730Y-56689785D01*
X46452817Y-56871138D01*
X46452811Y-56871143D01*
X46452810Y-56871145D01*
X46256655Y-57081176D01*
X46246214Y-57095968D01*
X46218820Y-57134776D01*
X46164077Y-57178193D01*
X46094552Y-57185122D01*
X46032318Y-57153363D01*
X45997133Y-57092999D01*
X45993517Y-57063195D01*
X45995605Y-53889664D01*
X46015333Y-53822642D01*
X46068167Y-53776922D01*
X46137332Y-53767024D01*
X46200868Y-53796090D01*
X46220907Y-53818241D01*
X46256655Y-53868884D01*
X46452810Y-54078915D01*
X46452815Y-54078919D01*
X46452817Y-54078921D01*
X46675730Y-54260274D01*
X46675733Y-54260276D01*
X46675737Y-54260279D01*
X46792963Y-54331566D01*
X46921284Y-54409600D01*
X47184869Y-54524091D01*
X47184874Y-54524093D01*
X47461601Y-54601628D01*
X47711903Y-54636031D01*
X47746307Y-54640760D01*
X47746308Y-54640760D01*
X48033693Y-54640760D01*
X48064387Y-54636541D01*
X48318399Y-54601628D01*
X48595126Y-54524093D01*
X48858717Y-54409599D01*
X49104263Y-54260279D01*
X49327190Y-54078915D01*
X49523345Y-53868884D01*
X49689073Y-53634101D01*
X49821288Y-53378937D01*
X49917527Y-53108147D01*
X49917527Y-53108142D01*
X49917530Y-53108136D01*
X49962473Y-52891854D01*
X49975997Y-52826774D01*
X49995609Y-52540060D01*
X49975997Y-52253346D01*
X49948644Y-52121716D01*
X49917530Y-51971983D01*
X49917525Y-51971967D01*
X49883687Y-51876756D01*
X49821288Y-51701183D01*
X49689073Y-51446019D01*
X49523345Y-51211236D01*
X49327190Y-51001205D01*
X49327183Y-51001200D01*
X49327182Y-51001198D01*
X49104269Y-50819845D01*
X49104258Y-50819838D01*
X48858715Y-50670519D01*
X48595130Y-50556028D01*
X48318405Y-50478493D01*
X48318400Y-50478492D01*
X48318399Y-50478492D01*
X48176045Y-50458926D01*
X48033693Y-50439360D01*
X48033692Y-50439360D01*
X47746308Y-50439360D01*
X47746307Y-50439360D01*
X47461601Y-50478492D01*
X47461594Y-50478493D01*
X47184869Y-50556028D01*
X46921284Y-50670519D01*
X46675741Y-50819838D01*
X46675730Y-50819845D01*
X46452817Y-51001198D01*
X46452811Y-51001203D01*
X46452810Y-51001205D01*
X46268218Y-51198855D01*
X46256656Y-51211235D01*
X46222686Y-51259359D01*
X46167943Y-51302776D01*
X46098418Y-51309705D01*
X46036184Y-51277946D01*
X46000999Y-51217581D01*
X45997382Y-51187774D01*
X46009918Y-32133896D01*
X46029647Y-32066872D01*
X46082481Y-32021152D01*
X46133896Y-32009980D01*
X55673934Y-32008489D01*
X56678218Y-32008332D01*
X101027376Y-32063754D01*
G37*
G04 #@! TD.AperFunction*
G04 #@! TA.AperFunction,Conductor*
G36*
X59259855Y-66051546D02*
G01*
X59276575Y-66070842D01*
X59374091Y-66210110D01*
X59406505Y-66256401D01*
X59573599Y-66423495D01*
X59645346Y-66473733D01*
X59767165Y-66559032D01*
X59767167Y-66559033D01*
X59767170Y-66559035D01*
X59981337Y-66658903D01*
X60209592Y-66720063D01*
X60397918Y-66736539D01*
X60444999Y-66740659D01*
X60445000Y-66740659D01*
X60445001Y-66740659D01*
X60484234Y-66737226D01*
X60680408Y-66720063D01*
X60908663Y-66658903D01*
X61122830Y-66559035D01*
X61185588Y-66515090D01*
X61251793Y-66492763D01*
X61319561Y-66509772D01*
X61344393Y-66528984D01*
X61383332Y-66567923D01*
X61383337Y-66567927D01*
X61914141Y-67098732D01*
X61914142Y-67098733D01*
X62001267Y-67185858D01*
X62001269Y-67185860D01*
X62001271Y-67185861D01*
X62078626Y-67237548D01*
X62078627Y-67237548D01*
X62078628Y-67237549D01*
X62103714Y-67254311D01*
X62217548Y-67301463D01*
X62338388Y-67325499D01*
X62338392Y-67325500D01*
X62338393Y-67325500D01*
X62338394Y-67325500D01*
X66665894Y-67325500D01*
X66732933Y-67345185D01*
X66778688Y-67397989D01*
X66788632Y-67467147D01*
X66785669Y-67481593D01*
X66729938Y-67689586D01*
X66729936Y-67689596D01*
X66709341Y-67924999D01*
X66709341Y-67925000D01*
X66729936Y-68160403D01*
X66729938Y-68160413D01*
X66791094Y-68388655D01*
X66791096Y-68388659D01*
X66791097Y-68388663D01*
X66841031Y-68495746D01*
X66890964Y-68602829D01*
X66890965Y-68602830D01*
X66958568Y-68699377D01*
X66980895Y-68765582D01*
X66963885Y-68833350D01*
X66912937Y-68881163D01*
X66856993Y-68894500D01*
X58130452Y-68894500D01*
X58063413Y-68874815D01*
X58042771Y-68858181D01*
X57464819Y-68280229D01*
X57431334Y-68218906D01*
X57428500Y-68192548D01*
X57428500Y-66817062D01*
X57448185Y-66750023D01*
X57500989Y-66704268D01*
X57570147Y-66694324D01*
X57584576Y-66697283D01*
X57669592Y-66720063D01*
X57857918Y-66736539D01*
X57904999Y-66740659D01*
X57905000Y-66740659D01*
X57905001Y-66740659D01*
X57944234Y-66737226D01*
X58140408Y-66720063D01*
X58368663Y-66658903D01*
X58582830Y-66559035D01*
X58776401Y-66423495D01*
X58943495Y-66256401D01*
X59073425Y-66070842D01*
X59128002Y-66027217D01*
X59197500Y-66020023D01*
X59259855Y-66051546D01*
G37*
G04 #@! TD.AperFunction*
G04 #@! TA.AperFunction,Conductor*
G36*
X73002933Y-67345185D02*
G01*
X73048688Y-67397989D01*
X73058632Y-67467147D01*
X73055669Y-67481593D01*
X72999938Y-67689586D01*
X72999936Y-67689596D01*
X72979341Y-67924999D01*
X72979341Y-67925000D01*
X72999936Y-68160403D01*
X72999938Y-68160413D01*
X73061094Y-68388655D01*
X73061096Y-68388659D01*
X73061097Y-68388663D01*
X73111031Y-68495746D01*
X73160964Y-68602829D01*
X73160965Y-68602830D01*
X73228568Y-68699377D01*
X73250895Y-68765582D01*
X73233885Y-68833350D01*
X73182937Y-68881163D01*
X73126993Y-68894500D01*
X69273007Y-68894500D01*
X69205968Y-68874815D01*
X69160213Y-68822011D01*
X69150269Y-68752853D01*
X69171431Y-68699378D01*
X69239035Y-68602830D01*
X69338903Y-68388663D01*
X69400063Y-68160408D01*
X69420659Y-67925000D01*
X69400063Y-67689592D01*
X69373512Y-67590500D01*
X69344331Y-67481593D01*
X69345994Y-67411743D01*
X69385157Y-67353881D01*
X69449386Y-67326377D01*
X69464106Y-67325500D01*
X72935894Y-67325500D01*
X73002933Y-67345185D01*
G37*
G04 #@! TD.AperFunction*
G04 #@! TA.AperFunction,Conductor*
G36*
X94490703Y-55734913D02*
G01*
X94518946Y-55773017D01*
X94519572Y-55772656D01*
X94522717Y-55778104D01*
X94522778Y-55778186D01*
X94522822Y-55778286D01*
X94536358Y-55801731D01*
X94617467Y-55942216D01*
X94719185Y-56055185D01*
X94744129Y-56082888D01*
X94897265Y-56194148D01*
X94897270Y-56194151D01*
X95070192Y-56271142D01*
X95070197Y-56271144D01*
X95255354Y-56310500D01*
X95255355Y-56310500D01*
X95444644Y-56310500D01*
X95444646Y-56310500D01*
X95629803Y-56271144D01*
X95802730Y-56194151D01*
X95955871Y-56082888D01*
X95958788Y-56079647D01*
X95961600Y-56076526D01*
X96021087Y-56039879D01*
X96053748Y-56035500D01*
X97555832Y-56035500D01*
X97622871Y-56055185D01*
X97668626Y-56107989D01*
X97671334Y-56114945D01*
X97672819Y-56118280D01*
X97672820Y-56118282D01*
X97672821Y-56118284D01*
X97767467Y-56282216D01*
X97894129Y-56422888D01*
X97994418Y-56495751D01*
X98037081Y-56551078D01*
X98043060Y-56620691D01*
X98039461Y-56634384D01*
X98018795Y-56697989D01*
X98014326Y-56711744D01*
X97997574Y-56871138D01*
X97994540Y-56900001D01*
X97998947Y-56941937D01*
X97990188Y-57002345D01*
X97973539Y-57042540D01*
X97973535Y-57042556D01*
X97949500Y-57163389D01*
X97949500Y-64484548D01*
X97929815Y-64551587D01*
X97913181Y-64572229D01*
X93627229Y-68858181D01*
X93565906Y-68891666D01*
X93539548Y-68894500D01*
X83429500Y-68894500D01*
X83362461Y-68874815D01*
X83316706Y-68822011D01*
X83305500Y-68770500D01*
X83305499Y-67027129D01*
X83305498Y-67027123D01*
X83303819Y-67011507D01*
X83299091Y-66967517D01*
X83297810Y-66964083D01*
X83248797Y-66832671D01*
X83248793Y-66832664D01*
X83162547Y-66717455D01*
X83162544Y-66717452D01*
X83047335Y-66631206D01*
X83047328Y-66631202D01*
X82912482Y-66580908D01*
X82912483Y-66580908D01*
X82852883Y-66574501D01*
X82852881Y-66574500D01*
X82852873Y-66574500D01*
X82852864Y-66574500D01*
X81057129Y-66574500D01*
X81057123Y-66574501D01*
X80997516Y-66580908D01*
X80862671Y-66631202D01*
X80862664Y-66631206D01*
X80747455Y-66717452D01*
X80747452Y-66717455D01*
X80661206Y-66832664D01*
X80661203Y-66832669D01*
X80612189Y-66964083D01*
X80570317Y-67020016D01*
X80504853Y-67044433D01*
X80436580Y-67029581D01*
X80408326Y-67008430D01*
X80286402Y-66886506D01*
X80286395Y-66886501D01*
X80092834Y-66750967D01*
X80092830Y-66750965D01*
X80090810Y-66750023D01*
X79878663Y-66651097D01*
X79878659Y-66651096D01*
X79878655Y-66651094D01*
X79650413Y-66589938D01*
X79650403Y-66589936D01*
X79415001Y-66569341D01*
X79414999Y-66569341D01*
X79179596Y-66589936D01*
X79179586Y-66589938D01*
X79079126Y-66616856D01*
X79009276Y-66615193D01*
X78959352Y-66584762D01*
X78682928Y-66308338D01*
X78682925Y-66308334D01*
X78682925Y-66308335D01*
X78675859Y-66301269D01*
X78675858Y-66301267D01*
X78588733Y-66214142D01*
X78534662Y-66178013D01*
X78486286Y-66145688D01*
X78486287Y-66145688D01*
X78486285Y-66145687D01*
X78442320Y-66127477D01*
X78398354Y-66109266D01*
X78398352Y-66109264D01*
X78372458Y-66098539D01*
X78372454Y-66098537D01*
X78372452Y-66098537D01*
X78372448Y-66098536D01*
X78372444Y-66098535D01*
X78292001Y-66082534D01*
X78292000Y-66082534D01*
X78251611Y-66074500D01*
X78251607Y-66074500D01*
X78251606Y-66074500D01*
X69539500Y-66074500D01*
X69472461Y-66054815D01*
X69426706Y-66002011D01*
X69415500Y-65950501D01*
X69415499Y-65898012D01*
X69415499Y-65790458D01*
X69435183Y-65723420D01*
X69487987Y-65677665D01*
X69557145Y-65667721D01*
X69593161Y-65680184D01*
X69593566Y-65679276D01*
X69772424Y-65758910D01*
X69772429Y-65758912D01*
X69957586Y-65798268D01*
X69957587Y-65798268D01*
X70146876Y-65798268D01*
X70146878Y-65798268D01*
X70332035Y-65758912D01*
X70504962Y-65681919D01*
X70658103Y-65570656D01*
X70784765Y-65429984D01*
X70879411Y-65266052D01*
X70937906Y-65086024D01*
X70957692Y-64897768D01*
X70937906Y-64709512D01*
X70879411Y-64529484D01*
X70784765Y-64365552D01*
X70658103Y-64224880D01*
X70658102Y-64224879D01*
X70504966Y-64113619D01*
X70504961Y-64113616D01*
X70332039Y-64036625D01*
X70332034Y-64036623D01*
X70186233Y-64005633D01*
X70146878Y-63997268D01*
X70146877Y-63997268D01*
X70087685Y-63997268D01*
X70020646Y-63977583D01*
X70000004Y-63960949D01*
X66875571Y-60836517D01*
X66842086Y-60775194D01*
X66847070Y-60705502D01*
X66888942Y-60649569D01*
X66954406Y-60625152D01*
X66963252Y-60624836D01*
X89044340Y-60624836D01*
X89044340Y-60624835D01*
X89141308Y-60605548D01*
X89141309Y-60605548D01*
X89149338Y-60603950D01*
X89165184Y-60600799D01*
X89218159Y-60578856D01*
X89279018Y-60553648D01*
X89330241Y-60519420D01*
X89381465Y-60485194D01*
X89468590Y-60398069D01*
X89468591Y-60398067D01*
X89475657Y-60391001D01*
X89475659Y-60390997D01*
X92822821Y-57043836D01*
X92884142Y-57010353D01*
X92953834Y-57015337D01*
X93009767Y-57057209D01*
X93034184Y-57122673D01*
X93034500Y-57131519D01*
X93034500Y-65845406D01*
X93014815Y-65912445D01*
X92962011Y-65958200D01*
X92892853Y-65968144D01*
X92837615Y-65945725D01*
X92825699Y-65937068D01*
X92782730Y-65905849D01*
X92782728Y-65905848D01*
X92782729Y-65905848D01*
X92609807Y-65828857D01*
X92609802Y-65828855D01*
X92429162Y-65790460D01*
X92424646Y-65789500D01*
X92235354Y-65789500D01*
X92230838Y-65790460D01*
X92050197Y-65828855D01*
X92050192Y-65828857D01*
X91877270Y-65905848D01*
X91877265Y-65905851D01*
X91724129Y-66017111D01*
X91597466Y-66157785D01*
X91502821Y-66321715D01*
X91502818Y-66321722D01*
X91453427Y-66473733D01*
X91444326Y-66501744D01*
X91427808Y-66658905D01*
X91426679Y-66669650D01*
X91400094Y-66734264D01*
X91391042Y-66744366D01*
X91377231Y-66758178D01*
X91315909Y-66791665D01*
X91289547Y-66794500D01*
X90903748Y-66794500D01*
X90836709Y-66774815D01*
X90811600Y-66753474D01*
X90805873Y-66747114D01*
X90805869Y-66747110D01*
X90652734Y-66635851D01*
X90652729Y-66635848D01*
X90479807Y-66558857D01*
X90479802Y-66558855D01*
X90334001Y-66527865D01*
X90294646Y-66519500D01*
X90105354Y-66519500D01*
X90072897Y-66526398D01*
X89920197Y-66558855D01*
X89920192Y-66558857D01*
X89747270Y-66635848D01*
X89747265Y-66635851D01*
X89594129Y-66747111D01*
X89467466Y-66887785D01*
X89372821Y-67051715D01*
X89372818Y-67051722D01*
X89329234Y-67185861D01*
X89314326Y-67231744D01*
X89294540Y-67420000D01*
X89314326Y-67608256D01*
X89314327Y-67608259D01*
X89372818Y-67788277D01*
X89372821Y-67788284D01*
X89467467Y-67952216D01*
X89588401Y-68086526D01*
X89594129Y-68092888D01*
X89747265Y-68204148D01*
X89747270Y-68204151D01*
X89920192Y-68281142D01*
X89920197Y-68281144D01*
X90105354Y-68320500D01*
X90105355Y-68320500D01*
X90294644Y-68320500D01*
X90294646Y-68320500D01*
X90479803Y-68281144D01*
X90652730Y-68204151D01*
X90805871Y-68092888D01*
X90808788Y-68089647D01*
X90811600Y-68086526D01*
X90871087Y-68049879D01*
X90903748Y-68045500D01*
X91661607Y-68045500D01*
X91722029Y-68033481D01*
X91782452Y-68021463D01*
X91832496Y-68000734D01*
X91896286Y-67974312D01*
X91947509Y-67940084D01*
X91998733Y-67905858D01*
X92085858Y-67818733D01*
X92085860Y-67818729D01*
X92277772Y-67626816D01*
X92339095Y-67593334D01*
X92365452Y-67590500D01*
X92424644Y-67590500D01*
X92424646Y-67590500D01*
X92609803Y-67551144D01*
X92782730Y-67474151D01*
X92882508Y-67401658D01*
X92948313Y-67378179D01*
X93016367Y-67394004D01*
X93038495Y-67411746D01*
X93039294Y-67410860D01*
X93044130Y-67415214D01*
X93197265Y-67526473D01*
X93197270Y-67526476D01*
X93370192Y-67603467D01*
X93370197Y-67603469D01*
X93555354Y-67642825D01*
X93555355Y-67642825D01*
X93744644Y-67642825D01*
X93744646Y-67642825D01*
X93929803Y-67603469D01*
X94102730Y-67526476D01*
X94255871Y-67415213D01*
X94382533Y-67274541D01*
X94477179Y-67110609D01*
X94535674Y-66930581D01*
X94555460Y-66742325D01*
X94535674Y-66554069D01*
X94477179Y-66374041D01*
X94382533Y-66210109D01*
X94317349Y-66137715D01*
X94287120Y-66074725D01*
X94285500Y-66054744D01*
X94285500Y-55828626D01*
X94305185Y-55761587D01*
X94357989Y-55715832D01*
X94427147Y-55705888D01*
X94490703Y-55734913D01*
G37*
G04 #@! TD.AperFunction*
G04 #@! TA.AperFunction,Conductor*
G36*
X57633703Y-62718741D02*
G01*
X57640181Y-62724773D01*
X57651263Y-62735855D01*
X57651267Y-62735858D01*
X57753707Y-62804307D01*
X57753713Y-62804310D01*
X57753714Y-62804311D01*
X57867548Y-62851463D01*
X57927971Y-62863481D01*
X57988393Y-62875500D01*
X57988394Y-62875500D01*
X59214548Y-62875500D01*
X59281587Y-62895185D01*
X59302229Y-62911819D01*
X60239713Y-63849304D01*
X60273198Y-63910627D01*
X60268214Y-63980319D01*
X60226342Y-64036252D01*
X60184125Y-64056760D01*
X59981344Y-64111094D01*
X59981335Y-64111098D01*
X59767171Y-64210964D01*
X59767169Y-64210965D01*
X59573597Y-64346505D01*
X59406505Y-64513597D01*
X59276575Y-64699158D01*
X59221998Y-64742783D01*
X59152500Y-64749977D01*
X59090145Y-64718454D01*
X59073425Y-64699158D01*
X58943494Y-64513597D01*
X58776402Y-64346506D01*
X58776395Y-64346501D01*
X58582834Y-64210967D01*
X58582830Y-64210965D01*
X58582828Y-64210964D01*
X58368663Y-64111097D01*
X58368659Y-64111096D01*
X58368655Y-64111094D01*
X58140413Y-64049938D01*
X58140403Y-64049936D01*
X57905001Y-64029341D01*
X57904999Y-64029341D01*
X57669596Y-64049936D01*
X57669586Y-64049938D01*
X57584593Y-64072712D01*
X57514743Y-64071049D01*
X57456881Y-64031886D01*
X57429377Y-63967658D01*
X57428500Y-63952937D01*
X57428500Y-62812454D01*
X57448185Y-62745415D01*
X57500989Y-62699660D01*
X57570147Y-62689716D01*
X57633703Y-62718741D01*
G37*
G04 #@! TD.AperFunction*
G04 #@! TA.AperFunction,Conductor*
G36*
X60936091Y-60843079D02*
G01*
X60992024Y-60884951D01*
X61010688Y-60920943D01*
X61022818Y-60958278D01*
X61022821Y-60958284D01*
X61117467Y-61122216D01*
X61175555Y-61186729D01*
X61244129Y-61262888D01*
X61397265Y-61374148D01*
X61397270Y-61374151D01*
X61570192Y-61451142D01*
X61570197Y-61451144D01*
X61755354Y-61490500D01*
X61755355Y-61490500D01*
X61944644Y-61490500D01*
X61944646Y-61490500D01*
X62047720Y-61468591D01*
X62117386Y-61473907D01*
X62173120Y-61516044D01*
X62182855Y-61531423D01*
X62185182Y-61535777D01*
X62195914Y-61551837D01*
X62195915Y-61551839D01*
X62253640Y-61638231D01*
X62253641Y-61638232D01*
X62253642Y-61638233D01*
X62340767Y-61725358D01*
X62340768Y-61725358D01*
X62347835Y-61732425D01*
X62347834Y-61732425D01*
X62347838Y-61732428D01*
X63176262Y-62560854D01*
X63176265Y-62560857D01*
X63244411Y-62606390D01*
X63278714Y-62629311D01*
X63392548Y-62676463D01*
X63509170Y-62699660D01*
X63513388Y-62700499D01*
X63513392Y-62700500D01*
X63513393Y-62700500D01*
X63513394Y-62700500D01*
X65489548Y-62700500D01*
X65556587Y-62720185D01*
X65577229Y-62736819D01*
X66850150Y-64009741D01*
X66883635Y-64071064D01*
X66878651Y-64140756D01*
X66861736Y-64171733D01*
X66771204Y-64292668D01*
X66771203Y-64292669D01*
X66722189Y-64424083D01*
X66680317Y-64480016D01*
X66614853Y-64504433D01*
X66546580Y-64489581D01*
X66518326Y-64468430D01*
X66396402Y-64346506D01*
X66396395Y-64346501D01*
X66202834Y-64210967D01*
X66202830Y-64210965D01*
X66202828Y-64210964D01*
X65988663Y-64111097D01*
X65988659Y-64111096D01*
X65988655Y-64111094D01*
X65760413Y-64049938D01*
X65760403Y-64049936D01*
X65525001Y-64029341D01*
X65524999Y-64029341D01*
X65289596Y-64049936D01*
X65289586Y-64049938D01*
X65061344Y-64111094D01*
X65061335Y-64111098D01*
X64847171Y-64210964D01*
X64847169Y-64210965D01*
X64653597Y-64346505D01*
X64486505Y-64513597D01*
X64356575Y-64699158D01*
X64301998Y-64742783D01*
X64232500Y-64749977D01*
X64170145Y-64718454D01*
X64153425Y-64699158D01*
X64023494Y-64513597D01*
X63856402Y-64346506D01*
X63856395Y-64346501D01*
X63662834Y-64210967D01*
X63662830Y-64210965D01*
X63662828Y-64210964D01*
X63448663Y-64111097D01*
X63448659Y-64111096D01*
X63448655Y-64111094D01*
X63220413Y-64049938D01*
X63220403Y-64049936D01*
X62985001Y-64029341D01*
X62984999Y-64029341D01*
X62749596Y-64049936D01*
X62749586Y-64049938D01*
X62521344Y-64111094D01*
X62521339Y-64111096D01*
X62424152Y-64156415D01*
X62355074Y-64166906D01*
X62291291Y-64138386D01*
X62268644Y-64112920D01*
X62267425Y-64111096D01*
X62260858Y-64101267D01*
X62260857Y-64101265D01*
X62260855Y-64101263D01*
X60017928Y-61858338D01*
X60017925Y-61858334D01*
X60017925Y-61858335D01*
X60010858Y-61851268D01*
X60010858Y-61851267D01*
X59923733Y-61764142D01*
X59923732Y-61764141D01*
X59923731Y-61764140D01*
X59865689Y-61725358D01*
X59865688Y-61725357D01*
X59821290Y-61695690D01*
X59821286Y-61695688D01*
X59740792Y-61662347D01*
X59740790Y-61662345D01*
X59715960Y-61652061D01*
X59661556Y-61608221D01*
X59639491Y-61541927D01*
X59656770Y-61474227D01*
X59707907Y-61426616D01*
X59763412Y-61413500D01*
X60065675Y-61413500D01*
X60126097Y-61401481D01*
X60186520Y-61389463D01*
X60223486Y-61374151D01*
X60300354Y-61342312D01*
X60362020Y-61301107D01*
X60402801Y-61273858D01*
X60489926Y-61186733D01*
X60489927Y-61186730D01*
X60496993Y-61179665D01*
X60496996Y-61179661D01*
X60805078Y-60871578D01*
X60866399Y-60838095D01*
X60936091Y-60843079D01*
G37*
G04 #@! TD.AperFunction*
G04 #@! TA.AperFunction,Conductor*
G36*
X87824361Y-48978185D02*
G01*
X87845003Y-48994819D01*
X88885790Y-50035606D01*
X88885819Y-50035637D01*
X88976038Y-50125856D01*
X88976041Y-50125858D01*
X89027264Y-50160084D01*
X89078488Y-50194312D01*
X89142278Y-50220734D01*
X89192322Y-50241463D01*
X89252745Y-50253481D01*
X89313167Y-50265500D01*
X89313168Y-50265500D01*
X90056252Y-50265500D01*
X90123291Y-50285185D01*
X90148400Y-50306526D01*
X90154126Y-50312885D01*
X90154130Y-50312889D01*
X90307265Y-50424148D01*
X90307270Y-50424151D01*
X90480192Y-50501142D01*
X90480197Y-50501144D01*
X90665354Y-50540500D01*
X90665355Y-50540500D01*
X90671822Y-50541180D01*
X90671612Y-50543175D01*
X90729539Y-50560185D01*
X90775294Y-50612989D01*
X90786500Y-50664500D01*
X90786500Y-52467547D01*
X90766815Y-52534586D01*
X90750181Y-52555228D01*
X89832229Y-53473181D01*
X89770906Y-53506666D01*
X89744548Y-53509500D01*
X89678856Y-53509500D01*
X89678856Y-53507925D01*
X89617963Y-53496783D01*
X89566944Y-53449046D01*
X89549832Y-53381304D01*
X89550417Y-53373122D01*
X89565460Y-53230000D01*
X89545674Y-53041744D01*
X89487179Y-52861716D01*
X89484833Y-52857652D01*
X89393712Y-52699824D01*
X89377239Y-52631924D01*
X89400092Y-52565897D01*
X89450660Y-52524547D01*
X89567221Y-52472651D01*
X89720362Y-52361388D01*
X89847024Y-52220716D01*
X89941670Y-52056784D01*
X90000165Y-51876756D01*
X90019951Y-51688500D01*
X90000165Y-51500244D01*
X89941670Y-51320216D01*
X89847024Y-51156284D01*
X89720362Y-51015612D01*
X89720361Y-51015611D01*
X89567225Y-50904351D01*
X89567220Y-50904348D01*
X89394298Y-50827357D01*
X89394293Y-50827355D01*
X89238019Y-50794139D01*
X89209137Y-50788000D01*
X89019845Y-50788000D01*
X88990963Y-50794139D01*
X88834688Y-50827355D01*
X88834683Y-50827357D01*
X88661761Y-50904348D01*
X88661756Y-50904351D01*
X88508620Y-51015611D01*
X88381957Y-51156285D01*
X88287312Y-51320215D01*
X88287309Y-51320222D01*
X88239297Y-51467989D01*
X88228817Y-51500244D01*
X88212956Y-51651159D01*
X88211170Y-51668149D01*
X88184585Y-51732763D01*
X88175538Y-51742861D01*
X88174145Y-51744253D01*
X88174143Y-51744256D01*
X88141098Y-51793712D01*
X88141097Y-51793714D01*
X88105688Y-51846703D01*
X88092945Y-51877468D01*
X88083934Y-51899224D01*
X88058538Y-51960534D01*
X88058535Y-51960544D01*
X88053713Y-51984785D01*
X88053714Y-51984786D01*
X88034593Y-52080919D01*
X88034502Y-52081362D01*
X88034500Y-52081389D01*
X88034500Y-52531312D01*
X88014815Y-52598351D01*
X88002650Y-52614284D01*
X87927466Y-52697784D01*
X87832821Y-52861715D01*
X87832818Y-52861722D01*
X87789300Y-52995658D01*
X87774326Y-53041744D01*
X87754540Y-53230000D01*
X87774326Y-53418256D01*
X87774327Y-53418259D01*
X87832818Y-53598277D01*
X87832821Y-53598284D01*
X87927467Y-53762216D01*
X88042222Y-53889664D01*
X88054129Y-53902888D01*
X88207265Y-54014148D01*
X88207270Y-54014151D01*
X88380192Y-54091142D01*
X88380197Y-54091144D01*
X88565354Y-54130500D01*
X88565355Y-54130500D01*
X88761145Y-54130500D01*
X88761145Y-54132080D01*
X88822010Y-54143203D01*
X88873040Y-54190928D01*
X88890168Y-54258666D01*
X88889578Y-54266911D01*
X88874540Y-54410000D01*
X88894326Y-54598256D01*
X88895421Y-54601626D01*
X88952818Y-54778277D01*
X88952821Y-54778284D01*
X89047467Y-54942216D01*
X89147286Y-55053076D01*
X89174129Y-55082888D01*
X89266751Y-55150182D01*
X89309417Y-55205512D01*
X89315396Y-55275125D01*
X89282790Y-55336920D01*
X89221952Y-55371277D01*
X89193866Y-55374500D01*
X87040452Y-55374500D01*
X86973413Y-55354815D01*
X86952771Y-55338181D01*
X85458960Y-53844370D01*
X85425475Y-53783047D01*
X85423323Y-53769671D01*
X85405674Y-53601744D01*
X85347179Y-53421716D01*
X85252533Y-53257784D01*
X85125871Y-53117112D01*
X85125870Y-53117111D01*
X84972732Y-53005849D01*
X84939063Y-52990859D01*
X84885827Y-52945608D01*
X84865506Y-52878759D01*
X84865500Y-52877580D01*
X84865500Y-52758687D01*
X84885185Y-52691648D01*
X84897350Y-52675715D01*
X84936779Y-52631924D01*
X84972533Y-52592216D01*
X85067179Y-52428284D01*
X85125674Y-52248256D01*
X85145460Y-52060000D01*
X85125674Y-51871744D01*
X85070255Y-51701183D01*
X85067181Y-51691722D01*
X85067180Y-51691721D01*
X85067179Y-51691716D01*
X84972533Y-51527784D01*
X84845871Y-51387112D01*
X84845870Y-51387111D01*
X84692734Y-51275851D01*
X84692729Y-51275848D01*
X84519807Y-51198857D01*
X84519802Y-51198855D01*
X84374001Y-51167865D01*
X84334646Y-51159500D01*
X84145354Y-51159500D01*
X84112897Y-51166398D01*
X83960197Y-51198855D01*
X83960192Y-51198857D01*
X83787270Y-51275848D01*
X83787265Y-51275851D01*
X83634129Y-51387111D01*
X83507466Y-51527785D01*
X83412821Y-51691715D01*
X83412818Y-51691722D01*
X83357730Y-51861267D01*
X83354326Y-51871744D01*
X83334540Y-52060000D01*
X83354326Y-52248256D01*
X83354327Y-52248259D01*
X83412818Y-52428277D01*
X83412821Y-52428284D01*
X83507467Y-52592216D01*
X83543221Y-52631924D01*
X83582650Y-52675715D01*
X83612880Y-52738706D01*
X83614500Y-52758687D01*
X83614500Y-52799548D01*
X83594815Y-52866587D01*
X83578181Y-52887229D01*
X83402229Y-53063181D01*
X83340906Y-53096666D01*
X83314548Y-53099500D01*
X83255354Y-53099500D01*
X83222897Y-53106398D01*
X83070197Y-53138855D01*
X83070192Y-53138857D01*
X82897270Y-53215848D01*
X82897265Y-53215851D01*
X82744129Y-53327111D01*
X82617466Y-53467785D01*
X82522821Y-53631715D01*
X82522818Y-53631722D01*
X82465255Y-53808885D01*
X82464326Y-53811744D01*
X82444540Y-54000000D01*
X82464326Y-54188256D01*
X82464327Y-54188259D01*
X82522818Y-54368277D01*
X82522821Y-54368284D01*
X82617467Y-54532216D01*
X82686348Y-54608716D01*
X82744129Y-54672888D01*
X82897265Y-54784148D01*
X82897270Y-54784151D01*
X83070192Y-54861142D01*
X83070197Y-54861144D01*
X83255354Y-54900500D01*
X83255355Y-54900500D01*
X83444644Y-54900500D01*
X83444646Y-54900500D01*
X83629803Y-54861144D01*
X83802730Y-54784151D01*
X83955871Y-54672888D01*
X83990928Y-54633951D01*
X84050413Y-54597304D01*
X84120270Y-54598633D01*
X84133512Y-54603644D01*
X84240197Y-54651144D01*
X84425354Y-54690500D01*
X84484548Y-54690500D01*
X84551587Y-54710185D01*
X84572229Y-54726819D01*
X86241016Y-56395606D01*
X86241045Y-56395637D01*
X86331261Y-56485853D01*
X86331264Y-56485855D01*
X86331267Y-56485858D01*
X86355704Y-56502186D01*
X86433714Y-56554312D01*
X86514207Y-56587652D01*
X86547548Y-56601463D01*
X86557193Y-56603381D01*
X86559337Y-56603808D01*
X86559347Y-56603809D01*
X86559358Y-56603812D01*
X86668390Y-56625499D01*
X86668392Y-56625500D01*
X86668393Y-56625500D01*
X86668394Y-56625500D01*
X91172615Y-56625500D01*
X91239654Y-56645185D01*
X91285409Y-56697989D01*
X91295353Y-56767147D01*
X91266328Y-56830703D01*
X91260296Y-56837181D01*
X88759961Y-59337517D01*
X88698638Y-59371002D01*
X88672280Y-59373836D01*
X64005593Y-59373836D01*
X63945175Y-59385854D01*
X63884752Y-59397873D01*
X63884750Y-59397873D01*
X63884749Y-59397874D01*
X63884747Y-59397874D01*
X63845100Y-59414297D01*
X63770923Y-59445021D01*
X63770916Y-59445025D01*
X63747670Y-59460557D01*
X63747671Y-59460558D01*
X63668472Y-59513476D01*
X63624909Y-59557039D01*
X63581346Y-59600603D01*
X63576681Y-59605268D01*
X63515358Y-59638753D01*
X63445666Y-59633769D01*
X63389733Y-59591897D01*
X63365316Y-59526433D01*
X63365000Y-59517587D01*
X63365000Y-56848952D01*
X63384685Y-56781913D01*
X63437489Y-56736158D01*
X63506647Y-56726214D01*
X63570203Y-56755239D01*
X63576681Y-56761271D01*
X64781016Y-57965606D01*
X64781045Y-57965637D01*
X64871263Y-58055855D01*
X64871267Y-58055858D01*
X64973707Y-58124307D01*
X64973713Y-58124310D01*
X64973714Y-58124311D01*
X65087548Y-58171463D01*
X65112751Y-58176476D01*
X65124659Y-58178845D01*
X65124681Y-58178849D01*
X65208390Y-58195499D01*
X65208392Y-58195500D01*
X65208393Y-58195500D01*
X76091608Y-58195500D01*
X76091608Y-58195499D01*
X76175319Y-58178849D01*
X76175321Y-58178849D01*
X76185928Y-58176738D01*
X76212452Y-58171463D01*
X76264314Y-58149981D01*
X76326286Y-58124312D01*
X76377509Y-58090084D01*
X76428733Y-58055858D01*
X76428738Y-58055853D01*
X76447773Y-58036819D01*
X76509096Y-58003334D01*
X76535454Y-58000500D01*
X76594644Y-58000500D01*
X76594646Y-58000500D01*
X76779803Y-57961144D01*
X76952730Y-57884151D01*
X77105871Y-57772888D01*
X77232533Y-57632216D01*
X77281706Y-57547044D01*
X77332272Y-57498830D01*
X77400879Y-57485606D01*
X77465744Y-57511574D01*
X77476774Y-57521364D01*
X77491016Y-57535606D01*
X77491045Y-57535637D01*
X77581263Y-57625855D01*
X77581267Y-57625858D01*
X77683707Y-57694307D01*
X77683716Y-57694312D01*
X77704739Y-57703020D01*
X77797548Y-57741463D01*
X77824209Y-57746766D01*
X77846344Y-57751169D01*
X77846360Y-57751172D01*
X77846380Y-57751176D01*
X77918391Y-57765499D01*
X77918392Y-57765500D01*
X77918393Y-57765500D01*
X79543676Y-57765500D01*
X79543676Y-57765499D01*
X79615688Y-57751176D01*
X79615690Y-57751176D01*
X79664510Y-57741465D01*
X79664510Y-57741464D01*
X79664520Y-57741463D01*
X79697860Y-57727652D01*
X79778354Y-57694312D01*
X79841078Y-57652400D01*
X79880801Y-57625858D01*
X79967926Y-57538733D01*
X79967927Y-57538731D01*
X79974993Y-57531665D01*
X79974996Y-57531661D01*
X81790729Y-55715928D01*
X81790733Y-55715926D01*
X81877858Y-55628801D01*
X81931992Y-55547784D01*
X81946312Y-55526353D01*
X81983010Y-55437756D01*
X81993463Y-55412520D01*
X82017500Y-55291674D01*
X82017500Y-52857673D01*
X82017501Y-52857652D01*
X82017501Y-52728323D01*
X81996777Y-52624143D01*
X81993463Y-52607480D01*
X81971612Y-52554727D01*
X81965537Y-52540060D01*
X81946315Y-52493653D01*
X81946308Y-52493640D01*
X81877858Y-52391199D01*
X81877855Y-52391195D01*
X81137819Y-51651159D01*
X81104334Y-51589836D01*
X81101500Y-51563478D01*
X81101500Y-50624500D01*
X81121185Y-50557461D01*
X81173989Y-50511706D01*
X81215827Y-50502604D01*
X81215678Y-50501180D01*
X81222144Y-50500500D01*
X81222146Y-50500500D01*
X81407303Y-50461144D01*
X81580230Y-50384151D01*
X81733371Y-50272888D01*
X81736288Y-50269647D01*
X81739100Y-50266526D01*
X81798587Y-50229879D01*
X81831248Y-50225500D01*
X82414176Y-50225500D01*
X82414176Y-50225499D01*
X82499983Y-50208432D01*
X82499984Y-50208432D01*
X82511768Y-50206087D01*
X82535020Y-50201463D01*
X82585064Y-50180734D01*
X82648854Y-50154312D01*
X82718269Y-50107929D01*
X82751301Y-50085858D01*
X82838426Y-49998733D01*
X82838426Y-49998731D01*
X82848634Y-49988524D01*
X82848635Y-49988521D01*
X83842340Y-48994819D01*
X83903663Y-48961334D01*
X83930021Y-48958500D01*
X87757322Y-48958500D01*
X87824361Y-48978185D01*
G37*
G04 #@! TD.AperFunction*
G04 #@! TA.AperFunction,Conductor*
G36*
X60920315Y-51415185D02*
G01*
X60966070Y-51467989D01*
X60976014Y-51537147D01*
X60971207Y-51557818D01*
X60932461Y-51677066D01*
X60932460Y-51677070D01*
X60929274Y-51707384D01*
X60914812Y-51844977D01*
X60888227Y-51909592D01*
X60879172Y-51919696D01*
X60605154Y-52193715D01*
X60331270Y-52467599D01*
X60331267Y-52467602D01*
X60307727Y-52491142D01*
X60244142Y-52554726D01*
X60219092Y-52592217D01*
X60219091Y-52592218D01*
X60175690Y-52657168D01*
X60175686Y-52657176D01*
X60151618Y-52715285D01*
X60151618Y-52715286D01*
X60128537Y-52771007D01*
X60128536Y-52771010D01*
X60125497Y-52786283D01*
X60125498Y-52786284D01*
X60105756Y-52885541D01*
X60105754Y-52885548D01*
X60104501Y-52891843D01*
X60104500Y-52891851D01*
X60104500Y-52891854D01*
X60104500Y-54101606D01*
X60128537Y-54222452D01*
X60128538Y-54222455D01*
X60128539Y-54222460D01*
X60134871Y-54237744D01*
X60134870Y-54237744D01*
X60134873Y-54237748D01*
X60175686Y-54336283D01*
X60175687Y-54336285D01*
X60175688Y-54336286D01*
X60202966Y-54377109D01*
X60202967Y-54377112D01*
X60202968Y-54377112D01*
X60244141Y-54438733D01*
X60335586Y-54530178D01*
X60335608Y-54530198D01*
X62077681Y-56272271D01*
X62111166Y-56333594D01*
X62114000Y-56359952D01*
X62114000Y-58125326D01*
X62094315Y-58192365D01*
X62041511Y-58238120D01*
X61972353Y-58248064D01*
X61908797Y-58219039D01*
X61902319Y-58213007D01*
X57301819Y-53612507D01*
X57268334Y-53551184D01*
X57265500Y-53524826D01*
X57265500Y-52883735D01*
X57285185Y-52816696D01*
X57337989Y-52770941D01*
X57407147Y-52760997D01*
X57462383Y-52783415D01*
X57570153Y-52861715D01*
X57587270Y-52874151D01*
X57760192Y-52951142D01*
X57760197Y-52951144D01*
X57945354Y-52990500D01*
X57945355Y-52990500D01*
X58134644Y-52990500D01*
X58134646Y-52990500D01*
X58319803Y-52951144D01*
X58492730Y-52874151D01*
X58645871Y-52762888D01*
X58772533Y-52622216D01*
X58867179Y-52458284D01*
X58925674Y-52278256D01*
X58943321Y-52110345D01*
X58969905Y-52045732D01*
X58978951Y-52035637D01*
X59582771Y-51431819D01*
X59644094Y-51398334D01*
X59670452Y-51395500D01*
X60853276Y-51395500D01*
X60920315Y-51415185D01*
G37*
G04 #@! TD.AperFunction*
G04 #@! TA.AperFunction,Conductor*
G36*
X78433291Y-51805185D02*
G01*
X78458400Y-51826526D01*
X78464126Y-51832885D01*
X78464130Y-51832889D01*
X78617265Y-51944148D01*
X78617270Y-51944151D01*
X78790192Y-52021142D01*
X78790197Y-52021144D01*
X78975354Y-52060500D01*
X78975355Y-52060500D01*
X78981822Y-52061180D01*
X78981612Y-52063175D01*
X79039539Y-52080185D01*
X79085294Y-52132989D01*
X79096500Y-52184500D01*
X79096500Y-55284085D01*
X79076815Y-55351124D01*
X79045385Y-55384403D01*
X79014129Y-55407111D01*
X78887466Y-55547785D01*
X78792821Y-55711715D01*
X78792818Y-55711722D01*
X78763573Y-55801731D01*
X78734326Y-55891744D01*
X78714540Y-56080000D01*
X78734326Y-56268256D01*
X78734327Y-56268259D01*
X78761595Y-56352182D01*
X78763590Y-56422023D01*
X78727509Y-56481856D01*
X78664808Y-56512684D01*
X78643664Y-56514500D01*
X78421656Y-56514500D01*
X78354617Y-56494815D01*
X78308862Y-56442011D01*
X78298335Y-56403462D01*
X78297513Y-56395637D01*
X78283674Y-56263965D01*
X78225179Y-56083937D01*
X78130533Y-55920005D01*
X78003871Y-55779333D01*
X78002430Y-55778286D01*
X77850734Y-55668072D01*
X77850729Y-55668069D01*
X77677807Y-55591078D01*
X77677802Y-55591076D01*
X77532001Y-55560086D01*
X77492646Y-55551721D01*
X77303354Y-55551721D01*
X77270897Y-55558619D01*
X77118197Y-55591076D01*
X77118192Y-55591078D01*
X76945270Y-55668069D01*
X76945265Y-55668072D01*
X76792129Y-55779332D01*
X76665466Y-55920006D01*
X76570821Y-56083936D01*
X76570817Y-56083945D01*
X76561112Y-56113817D01*
X76521675Y-56171493D01*
X76457317Y-56198692D01*
X76443181Y-56199500D01*
X76405354Y-56199500D01*
X76372897Y-56206398D01*
X76220197Y-56238855D01*
X76220192Y-56238857D01*
X76047270Y-56315848D01*
X76047265Y-56315851D01*
X75894129Y-56427111D01*
X75767466Y-56567785D01*
X75672821Y-56731715D01*
X75672818Y-56731721D01*
X75640658Y-56830703D01*
X75634729Y-56848952D01*
X75631523Y-56858818D01*
X75592086Y-56916493D01*
X75527727Y-56943692D01*
X75513592Y-56944500D01*
X65580452Y-56944500D01*
X65513413Y-56924815D01*
X65492771Y-56908181D01*
X64291771Y-55707181D01*
X64258286Y-55645858D01*
X64263270Y-55576166D01*
X64305142Y-55520233D01*
X64370606Y-55495816D01*
X64379452Y-55495500D01*
X74508107Y-55495500D01*
X74568529Y-55483481D01*
X74628952Y-55471463D01*
X74671799Y-55453715D01*
X74742786Y-55424312D01*
X74803256Y-55383906D01*
X74845233Y-55355858D01*
X74932358Y-55268733D01*
X74932359Y-55268730D01*
X75187772Y-55013316D01*
X75249094Y-54979834D01*
X75275452Y-54977000D01*
X75334644Y-54977000D01*
X75334646Y-54977000D01*
X75519803Y-54937644D01*
X75692730Y-54860651D01*
X75845871Y-54749388D01*
X75972533Y-54608716D01*
X76067179Y-54444784D01*
X76125674Y-54264756D01*
X76145460Y-54076500D01*
X76125674Y-53888244D01*
X76067179Y-53708216D01*
X75972533Y-53544284D01*
X75845871Y-53403612D01*
X75811906Y-53378935D01*
X75692734Y-53292351D01*
X75692729Y-53292348D01*
X75519807Y-53215357D01*
X75519802Y-53215355D01*
X75374001Y-53184365D01*
X75334646Y-53176000D01*
X75145354Y-53176000D01*
X75112897Y-53182898D01*
X74960197Y-53215355D01*
X74960192Y-53215357D01*
X74787270Y-53292348D01*
X74787265Y-53292351D01*
X74634129Y-53403611D01*
X74507466Y-53544285D01*
X74412821Y-53708215D01*
X74412818Y-53708222D01*
X74358862Y-53874284D01*
X74354326Y-53888244D01*
X74341093Y-54014148D01*
X74336679Y-54056149D01*
X74310094Y-54120763D01*
X74301040Y-54130867D01*
X74223729Y-54208180D01*
X74162407Y-54241666D01*
X74136047Y-54244500D01*
X72849452Y-54244500D01*
X72782413Y-54224815D01*
X72736658Y-54172011D01*
X72726714Y-54102853D01*
X72755739Y-54039297D01*
X72761771Y-54032819D01*
X74972771Y-51821819D01*
X75034094Y-51788334D01*
X75060452Y-51785500D01*
X78366252Y-51785500D01*
X78433291Y-51805185D01*
G37*
G04 #@! TD.AperFunction*
G04 #@! TA.AperFunction,Conductor*
G36*
X92242703Y-47677739D02*
G01*
X92249181Y-47683771D01*
X92998181Y-48432771D01*
X93031666Y-48494094D01*
X93034500Y-48520452D01*
X93034500Y-54025500D01*
X93014815Y-54092539D01*
X92962011Y-54138294D01*
X92910500Y-54149500D01*
X92895354Y-54149500D01*
X92862897Y-54156398D01*
X92710197Y-54188855D01*
X92710192Y-54188857D01*
X92537270Y-54265848D01*
X92537265Y-54265851D01*
X92384129Y-54377111D01*
X92257466Y-54517785D01*
X92162821Y-54681715D01*
X92162818Y-54681722D01*
X92104521Y-54861144D01*
X92104326Y-54861744D01*
X92091915Y-54979834D01*
X92091008Y-54988462D01*
X92064423Y-55053076D01*
X92007126Y-55093061D01*
X91967687Y-55099500D01*
X91965354Y-55099500D01*
X91943087Y-55104233D01*
X91780197Y-55138855D01*
X91780192Y-55138857D01*
X91607270Y-55215848D01*
X91607265Y-55215851D01*
X91454130Y-55327110D01*
X91454126Y-55327114D01*
X91448400Y-55333474D01*
X91388913Y-55370121D01*
X91356252Y-55374500D01*
X90366134Y-55374500D01*
X90299095Y-55354815D01*
X90253340Y-55302011D01*
X90243396Y-55232853D01*
X90272421Y-55169297D01*
X90293249Y-55150182D01*
X90328660Y-55124454D01*
X90385871Y-55082888D01*
X90512533Y-54942216D01*
X90607179Y-54778284D01*
X90665674Y-54598256D01*
X90683321Y-54430344D01*
X90709904Y-54365734D01*
X90718951Y-54355638D01*
X91897858Y-53176733D01*
X91966312Y-53074285D01*
X91966315Y-53074278D01*
X91998880Y-52995659D01*
X91998880Y-52995658D01*
X92000868Y-52990859D01*
X92013463Y-52960452D01*
X92020008Y-52927549D01*
X92037501Y-52839608D01*
X92037501Y-52711283D01*
X92037500Y-52711257D01*
X92037500Y-47771452D01*
X92057185Y-47704413D01*
X92109989Y-47658658D01*
X92179147Y-47648714D01*
X92242703Y-47677739D01*
G37*
G04 #@! TD.AperFunction*
G04 #@! TA.AperFunction,Conductor*
G36*
X73807587Y-51005185D02*
G01*
X73853342Y-51057989D01*
X73863286Y-51127147D01*
X73834261Y-51190703D01*
X73828229Y-51197181D01*
X71194229Y-53831181D01*
X71132906Y-53864666D01*
X71106548Y-53867500D01*
X69684155Y-53867500D01*
X69617116Y-53847815D01*
X69571361Y-53795011D01*
X69561417Y-53725853D01*
X69590442Y-53662297D01*
X69615256Y-53640403D01*
X69662896Y-53608571D01*
X69702447Y-53582144D01*
X69789572Y-53495019D01*
X69789572Y-53495017D01*
X69799780Y-53484810D01*
X69799781Y-53484807D01*
X70717772Y-52566819D01*
X70779095Y-52533334D01*
X70805453Y-52530500D01*
X70854644Y-52530500D01*
X70854646Y-52530500D01*
X71039803Y-52491144D01*
X71212730Y-52414151D01*
X71365871Y-52302888D01*
X71492533Y-52162216D01*
X71587179Y-51998284D01*
X71645674Y-51818256D01*
X71665460Y-51630000D01*
X71645674Y-51441744D01*
X71587179Y-51261716D01*
X71535093Y-51171500D01*
X71518620Y-51103599D01*
X71541473Y-51037573D01*
X71596394Y-50994382D01*
X71642480Y-50985500D01*
X73740548Y-50985500D01*
X73807587Y-51005185D01*
G37*
G04 #@! TD.AperFunction*
G04 #@! TA.AperFunction,Conductor*
G36*
X70164587Y-43648185D02*
G01*
X70210342Y-43700989D01*
X70220286Y-43770147D01*
X70191261Y-43833703D01*
X70185229Y-43840181D01*
X63227077Y-50798332D01*
X63165754Y-50831817D01*
X63165177Y-50831941D01*
X63017726Y-50863282D01*
X62948058Y-50857966D01*
X62904263Y-50829672D01*
X62865637Y-50791045D01*
X62865606Y-50791016D01*
X62450198Y-50375608D01*
X62450178Y-50375586D01*
X62358733Y-50284141D01*
X62307509Y-50249915D01*
X62294860Y-50241463D01*
X62256286Y-50215688D01*
X62171898Y-50180734D01*
X62171896Y-50180732D01*
X62142458Y-50168539D01*
X62142446Y-50168535D01*
X62070938Y-50154311D01*
X62070931Y-50154311D01*
X62021607Y-50144500D01*
X62021606Y-50144500D01*
X59939452Y-50144500D01*
X59872413Y-50124815D01*
X59826658Y-50072011D01*
X59816714Y-50002853D01*
X59845739Y-49939297D01*
X59851771Y-49932819D01*
X66119771Y-43664819D01*
X66181094Y-43631334D01*
X66207452Y-43628500D01*
X70097548Y-43628500D01*
X70164587Y-43648185D01*
G37*
G04 #@! TD.AperFunction*
G04 #@! TA.AperFunction,Conductor*
G36*
X86878275Y-45483962D02*
G01*
X86924030Y-45536766D01*
X86933974Y-45605924D01*
X86904949Y-45669480D01*
X86861672Y-45701556D01*
X86717270Y-45765848D01*
X86717265Y-45765851D01*
X86564129Y-45877111D01*
X86437466Y-46017785D01*
X86375947Y-46124340D01*
X86325380Y-46172555D01*
X86268560Y-46186340D01*
X80066549Y-46186340D01*
X80006131Y-46198358D01*
X79962903Y-46206956D01*
X79945706Y-46210377D01*
X79917479Y-46222070D01*
X79917478Y-46222070D01*
X79831879Y-46257525D01*
X79831872Y-46257529D01*
X79786712Y-46287705D01*
X79729428Y-46325980D01*
X79685865Y-46369543D01*
X79642302Y-46413107D01*
X79236144Y-46819264D01*
X79236138Y-46819272D01*
X79167690Y-46921708D01*
X79167689Y-46921710D01*
X79146559Y-46972722D01*
X79146560Y-46972723D01*
X79125036Y-47024688D01*
X79125035Y-47024688D01*
X79120539Y-47035541D01*
X79120538Y-47035545D01*
X79096624Y-47155774D01*
X79096609Y-47155844D01*
X79096500Y-47156387D01*
X79096500Y-50135500D01*
X79076815Y-50202539D01*
X79024011Y-50248294D01*
X78981683Y-50257502D01*
X78981822Y-50258820D01*
X78975355Y-50259499D01*
X78790197Y-50298855D01*
X78790192Y-50298857D01*
X78617270Y-50375848D01*
X78617265Y-50375851D01*
X78464130Y-50487110D01*
X78464126Y-50487114D01*
X78458400Y-50493474D01*
X78398913Y-50530121D01*
X78366252Y-50534500D01*
X77974835Y-50534500D01*
X77907796Y-50514815D01*
X77862041Y-50462011D01*
X77851514Y-50397540D01*
X77855460Y-50360000D01*
X77835674Y-50171744D01*
X77777179Y-49991716D01*
X77682533Y-49827784D01*
X77555871Y-49687112D01*
X77555870Y-49687111D01*
X77402734Y-49575851D01*
X77402729Y-49575848D01*
X77229807Y-49498857D01*
X77229802Y-49498855D01*
X77084001Y-49467865D01*
X77044646Y-49459500D01*
X76855354Y-49459500D01*
X76822897Y-49466398D01*
X76670197Y-49498855D01*
X76670192Y-49498857D01*
X76497270Y-49575848D01*
X76497265Y-49575851D01*
X76449013Y-49610909D01*
X76383207Y-49634389D01*
X76315153Y-49618563D01*
X76266458Y-49568457D01*
X76252583Y-49499979D01*
X76271547Y-49449150D01*
X76269284Y-49447844D01*
X76293071Y-49406642D01*
X76367179Y-49278284D01*
X76425674Y-49098256D01*
X76443321Y-48930345D01*
X76469905Y-48865732D01*
X76478952Y-48855636D01*
X77088729Y-48245860D01*
X77088733Y-48245858D01*
X77175858Y-48158733D01*
X77244311Y-48056286D01*
X77291463Y-47942452D01*
X77315500Y-47821606D01*
X77315500Y-45844793D01*
X77335185Y-45777754D01*
X77387989Y-45731999D01*
X77457147Y-45722055D01*
X77465278Y-45723502D01*
X77539492Y-45739277D01*
X77539493Y-45739277D01*
X77728782Y-45739277D01*
X77728784Y-45739277D01*
X77913941Y-45699921D01*
X78086868Y-45622928D01*
X78240009Y-45511665D01*
X78242926Y-45508424D01*
X78245738Y-45505303D01*
X78305225Y-45468656D01*
X78337886Y-45464277D01*
X86811236Y-45464277D01*
X86878275Y-45483962D01*
G37*
G04 #@! TD.AperFunction*
G04 #@! TA.AperFunction,Conductor*
G36*
X74813291Y-45586685D02*
G01*
X74838400Y-45608026D01*
X74844126Y-45614385D01*
X74844130Y-45614389D01*
X74915285Y-45666086D01*
X74957951Y-45721416D01*
X74963930Y-45791029D01*
X74949788Y-45828403D01*
X74872820Y-45961718D01*
X74872818Y-45961722D01*
X74823554Y-46113343D01*
X74814326Y-46141744D01*
X74794540Y-46330000D01*
X74814326Y-46518256D01*
X74814327Y-46518259D01*
X74872818Y-46698277D01*
X74872821Y-46698284D01*
X74967467Y-46862216D01*
X74989035Y-46886169D01*
X75042650Y-46945715D01*
X75072880Y-47008706D01*
X75074500Y-47028687D01*
X75074500Y-48071944D01*
X75054815Y-48138983D01*
X75023386Y-48172261D01*
X74934132Y-48237109D01*
X74934123Y-48237116D01*
X74807466Y-48377785D01*
X74712821Y-48541715D01*
X74712818Y-48541722D01*
X74654327Y-48721740D01*
X74654326Y-48721744D01*
X74634540Y-48910000D01*
X74654326Y-49098256D01*
X74654327Y-49098259D01*
X74712818Y-49278277D01*
X74712821Y-49278284D01*
X74807464Y-49442212D01*
X74807465Y-49442214D01*
X74807467Y-49442216D01*
X74884284Y-49527530D01*
X74914513Y-49590519D01*
X74905888Y-49659854D01*
X74861147Y-49713520D01*
X74794494Y-49734478D01*
X74792133Y-49734500D01*
X67937384Y-49734500D01*
X67870345Y-49714815D01*
X67824590Y-49662011D01*
X67814646Y-49592853D01*
X67843671Y-49529297D01*
X67849703Y-49522819D01*
X69723809Y-47648714D01*
X71769204Y-45603319D01*
X71830527Y-45569834D01*
X71856885Y-45567000D01*
X74746252Y-45567000D01*
X74813291Y-45586685D01*
G37*
G04 #@! TD.AperFunction*
G04 #@! TA.AperFunction,Conductor*
G36*
X87149862Y-42957240D02*
G01*
X87205795Y-42999112D01*
X87213909Y-43011413D01*
X87237467Y-43052216D01*
X87364129Y-43192888D01*
X87517265Y-43304148D01*
X87517270Y-43304151D01*
X87690192Y-43381142D01*
X87690197Y-43381144D01*
X87875354Y-43420500D01*
X87934548Y-43420500D01*
X88001587Y-43440185D01*
X88022229Y-43456819D01*
X89132710Y-44567300D01*
X89166195Y-44628623D01*
X89161211Y-44698315D01*
X89119339Y-44754248D01*
X89117916Y-44755298D01*
X89074128Y-44787112D01*
X88947466Y-44927785D01*
X88852821Y-45091715D01*
X88852818Y-45091722D01*
X88797770Y-45261144D01*
X88794326Y-45271744D01*
X88791304Y-45300500D01*
X88791227Y-45301233D01*
X88764641Y-45365847D01*
X88707343Y-45405831D01*
X88637524Y-45408490D01*
X88580225Y-45375951D01*
X87648659Y-44444385D01*
X87648639Y-44444363D01*
X87557197Y-44352921D01*
X87557189Y-44352915D01*
X87501942Y-44316000D01*
X87501940Y-44315999D01*
X87454747Y-44284465D01*
X87454748Y-44284465D01*
X87454746Y-44284464D01*
X87414500Y-44267794D01*
X87374253Y-44251124D01*
X87355874Y-44243511D01*
X87340914Y-44237314D01*
X87330888Y-44235320D01*
X87280490Y-44225295D01*
X87220071Y-44213277D01*
X87220068Y-44213277D01*
X87220067Y-44213277D01*
X79990608Y-44213277D01*
X79923569Y-44193592D01*
X79877814Y-44140788D01*
X79867287Y-44102239D01*
X79864738Y-44077989D01*
X79855674Y-43991744D01*
X79797179Y-43811716D01*
X79797176Y-43811710D01*
X79794538Y-43805786D01*
X79796463Y-43804928D01*
X79782313Y-43746600D01*
X79805165Y-43680573D01*
X79860086Y-43637383D01*
X79906173Y-43628500D01*
X86178608Y-43628500D01*
X86178608Y-43628499D01*
X86242209Y-43615849D01*
X86242212Y-43615849D01*
X86276930Y-43608942D01*
X86299452Y-43604463D01*
X86332792Y-43590652D01*
X86413286Y-43557312D01*
X86468811Y-43520210D01*
X86515733Y-43488858D01*
X86602858Y-43401733D01*
X86602859Y-43401731D01*
X86609925Y-43394665D01*
X86609928Y-43394661D01*
X87018849Y-42985739D01*
X87080170Y-42952256D01*
X87149862Y-42957240D01*
G37*
G04 #@! TD.AperFunction*
M02*
