M48
; DRILL file {KiCad 8.0.1} date 2024-04-21T16:15:18+0300
; FORMAT={-:-/ absolute / inch / decimal}
; #@! TF.CreationDate,2024-04-21T16:15:18+03:00
; #@! TF.GenerationSoftware,Kicad,Pcbnew,8.0.1
; #@! TF.FileFunction,Plated,1,4,PTH
FMAT,2
INCH
; #@! TA.AperFunction,Plated,PTH,ComponentDrill
T1C0.0098
; #@! TA.AperFunction,Plated,PTH,ViaDrill
T2C0.0157
; #@! TA.AperFunction,Plated,PTH,ComponentDrill
T3C0.0394
; #@! TA.AperFunction,Plated,PTH,ComponentDrill
T4C0.0730
%
G90
G05
T1
X2.6316Y-1.6448
X2.6749Y-1.6448
T2
X2.1944Y-2.162
X2.1949Y-2.1985
X2.1957Y-2.1256
X2.2685Y-2.2701
X2.2712Y-2.4189
X2.285Y-2.0508
X2.3386Y-2.2701
X2.3626Y-2.3567
X2.3666Y-2.2957
X2.3955Y-2.3214
X2.4285Y-2.1287
X2.4338Y-2.0419
X2.435Y-2.3854
X2.4484Y-2.0979
X2.4909Y-2.0366
X2.4957Y-2.3878
X2.5285Y-2.0589
X2.533Y-2.3878
X2.565Y-2.0575
X2.6039Y-2.0665
X2.6315Y-2.0904
X2.758Y-2.555
X2.7858Y-2.0327
X2.9622Y-2.129
X2.9705Y-1.7694
X2.974Y-1.9256
X2.9803Y-1.824
X3.0118Y-2.248
X3.0276Y-1.7335
X3.0295Y-1.9827
X3.0472Y-2.2225
X3.0565Y-1.7653
X3.1091Y-1.7394
X3.113Y-2.0142
X3.1346Y-2.2079
X3.1787Y-2.089
X3.194Y-1.9528
X3.213Y-1.8988
X3.2815Y-2.126
X3.3165Y-2.0496
X3.3276Y-2.1177
X3.4319Y-1.8327
X3.4634Y-1.674
X3.468Y-1.8381
X3.4874Y-1.4862
X3.4906Y-2.0957
X3.4984Y-1.6461
X3.5047Y-1.428
X3.5075Y-1.8374
X3.5084Y-2.035
X3.5248Y-1.9031
X3.5307Y-1.7898
X3.5346Y-2.1421
X3.5512Y-2.6543
X3.5596Y-1.916
X3.5732Y-1.9543
X3.6244Y-2.2047
X3.635Y-2.6256
X3.6445Y-1.6752
X3.661Y-2.1673
X3.687Y-2.6277
X3.7131Y-2.1453
X3.7539Y-2.1815
X3.7638Y-1.6752
X3.8484Y-1.748
X3.878Y-2.1949
X3.8937Y-2.2402
T3
X2.2797Y-2.5742
X2.2797Y-2.6742
X2.3797Y-2.5742
X2.3797Y-2.6742
X2.4797Y-2.5742
X2.4797Y-2.6742
X2.5797Y-2.5742
X2.5797Y-2.6742
X2.6797Y-2.5742
X2.6797Y-2.6742
X2.8266Y-2.6742
X2.9266Y-2.6742
X3.0266Y-2.6742
X3.1266Y-2.6742
X3.2266Y-2.6742
T4
X1.8854Y-2.0685
X1.8854Y-2.2996
X1.8864Y-2.4465
X1.8864Y-2.6776
X2.1165Y-2.0685
X2.1165Y-2.2996
X2.1175Y-2.4465
X2.1175Y-2.6776
X3.9969Y-1.3528
X3.9969Y-1.5839
X4.0055Y-2.326
X4.0055Y-2.5571
X4.0063Y-1.8268
X4.0063Y-2.0579
X4.228Y-1.3528
X4.228Y-1.5839
X4.2366Y-2.326
X4.2366Y-2.5571
X4.2374Y-1.8268
X4.2374Y-2.0579
M30
