G04 #@! TF.GenerationSoftware,KiCad,Pcbnew,8.0.1*
G04 #@! TF.CreationDate,2024-05-01T01:11:43+03:00*
G04 #@! TF.ProjectId,esc,6573632e-6b69-4636-9164-5f7063625858,rev?*
G04 #@! TF.SameCoordinates,Original*
G04 #@! TF.FileFunction,Copper,L1,Top*
G04 #@! TF.FilePolarity,Positive*
%FSLAX46Y46*%
G04 Gerber Fmt 4.6, Leading zero omitted, Abs format (unit mm)*
G04 Created by KiCad (PCBNEW 8.0.1) date 2024-05-01 01:11:43*
%MOMM*%
%LPD*%
G01*
G04 APERTURE LIST*
G04 Aperture macros list*
%AMRoundRect*
0 Rectangle with rounded corners*
0 $1 Rounding radius*
0 $2 $3 $4 $5 $6 $7 $8 $9 X,Y pos of 4 corners*
0 Add a 4 corners polygon primitive as box body*
4,1,4,$2,$3,$4,$5,$6,$7,$8,$9,$2,$3,0*
0 Add four circle primitives for the rounded corners*
1,1,$1+$1,$2,$3*
1,1,$1+$1,$4,$5*
1,1,$1+$1,$6,$7*
1,1,$1+$1,$8,$9*
0 Add four rect primitives between the rounded corners*
20,1,$1+$1,$2,$3,$4,$5,0*
20,1,$1+$1,$4,$5,$6,$7,0*
20,1,$1+$1,$6,$7,$8,$9,0*
20,1,$1+$1,$8,$9,$2,$3,0*%
G04 Aperture macros list end*
G04 #@! TA.AperFunction,SMDPad,CuDef*
%ADD10R,0.900000X0.240000*%
G04 #@! TD*
G04 #@! TA.AperFunction,SMDPad,CuDef*
%ADD11R,0.240000X0.900000*%
G04 #@! TD*
G04 #@! TA.AperFunction,SMDPad,CuDef*
%ADD12R,1.400000X0.900000*%
G04 #@! TD*
G04 #@! TA.AperFunction,SMDPad,CuDef*
%ADD13RoundRect,0.200000X-0.200000X-0.275000X0.200000X-0.275000X0.200000X0.275000X-0.200000X0.275000X0*%
G04 #@! TD*
G04 #@! TA.AperFunction,SMDPad,CuDef*
%ADD14RoundRect,0.225000X-0.250000X0.225000X-0.250000X-0.225000X0.250000X-0.225000X0.250000X0.225000X0*%
G04 #@! TD*
G04 #@! TA.AperFunction,SMDPad,CuDef*
%ADD15RoundRect,0.135000X0.185000X-0.135000X0.185000X0.135000X-0.185000X0.135000X-0.185000X-0.135000X0*%
G04 #@! TD*
G04 #@! TA.AperFunction,SMDPad,CuDef*
%ADD16RoundRect,0.250000X-1.075000X0.362500X-1.075000X-0.362500X1.075000X-0.362500X1.075000X0.362500X0*%
G04 #@! TD*
G04 #@! TA.AperFunction,SMDPad,CuDef*
%ADD17RoundRect,0.250000X-0.475000X0.250000X-0.475000X-0.250000X0.475000X-0.250000X0.475000X0.250000X0*%
G04 #@! TD*
G04 #@! TA.AperFunction,SMDPad,CuDef*
%ADD18RoundRect,0.135000X0.135000X0.185000X-0.135000X0.185000X-0.135000X-0.185000X0.135000X-0.185000X0*%
G04 #@! TD*
G04 #@! TA.AperFunction,SMDPad,CuDef*
%ADD19RoundRect,0.218750X-0.381250X0.218750X-0.381250X-0.218750X0.381250X-0.218750X0.381250X0.218750X0*%
G04 #@! TD*
G04 #@! TA.AperFunction,SMDPad,CuDef*
%ADD20RoundRect,0.140000X-0.170000X0.140000X-0.170000X-0.140000X0.170000X-0.140000X0.170000X0.140000X0*%
G04 #@! TD*
G04 #@! TA.AperFunction,SMDPad,CuDef*
%ADD21R,0.900000X1.640000*%
G04 #@! TD*
G04 #@! TA.AperFunction,SMDPad,CuDef*
%ADD22R,0.900000X0.340000*%
G04 #@! TD*
G04 #@! TA.AperFunction,SMDPad,CuDef*
%ADD23R,2.360000X2.290000*%
G04 #@! TD*
G04 #@! TA.AperFunction,ComponentPad*
%ADD24C,1.755000*%
G04 #@! TD*
G04 #@! TA.AperFunction,SMDPad,CuDef*
%ADD25R,1.400000X1.200000*%
G04 #@! TD*
G04 #@! TA.AperFunction,SMDPad,CuDef*
%ADD26RoundRect,0.135000X-0.135000X-0.185000X0.135000X-0.185000X0.135000X0.185000X-0.135000X0.185000X0*%
G04 #@! TD*
G04 #@! TA.AperFunction,SMDPad,CuDef*
%ADD27RoundRect,0.250000X1.500000X1.000000X-1.500000X1.000000X-1.500000X-1.000000X1.500000X-1.000000X0*%
G04 #@! TD*
G04 #@! TA.AperFunction,ComponentPad*
%ADD28R,1.700000X1.700000*%
G04 #@! TD*
G04 #@! TA.AperFunction,ComponentPad*
%ADD29O,1.700000X1.700000*%
G04 #@! TD*
G04 #@! TA.AperFunction,SMDPad,CuDef*
%ADD30RoundRect,0.250000X-0.250000X-0.475000X0.250000X-0.475000X0.250000X0.475000X-0.250000X0.475000X0*%
G04 #@! TD*
G04 #@! TA.AperFunction,SMDPad,CuDef*
%ADD31RoundRect,0.225000X0.225000X0.250000X-0.225000X0.250000X-0.225000X-0.250000X0.225000X-0.250000X0*%
G04 #@! TD*
G04 #@! TA.AperFunction,SMDPad,CuDef*
%ADD32RoundRect,0.225000X0.250000X-0.225000X0.250000X0.225000X-0.250000X0.225000X-0.250000X-0.225000X0*%
G04 #@! TD*
G04 #@! TA.AperFunction,SMDPad,CuDef*
%ADD33RoundRect,0.225000X-0.225000X-0.250000X0.225000X-0.250000X0.225000X0.250000X-0.225000X0.250000X0*%
G04 #@! TD*
G04 #@! TA.AperFunction,SMDPad,CuDef*
%ADD34RoundRect,0.140000X0.170000X-0.140000X0.170000X0.140000X-0.170000X0.140000X-0.170000X-0.140000X0*%
G04 #@! TD*
G04 #@! TA.AperFunction,SMDPad,CuDef*
%ADD35R,0.812800X0.660400*%
G04 #@! TD*
G04 #@! TA.AperFunction,SMDPad,CuDef*
%ADD36RoundRect,0.218750X-0.218750X-0.256250X0.218750X-0.256250X0.218750X0.256250X-0.218750X0.256250X0*%
G04 #@! TD*
G04 #@! TA.AperFunction,SMDPad,CuDef*
%ADD37RoundRect,0.062500X0.375000X0.062500X-0.375000X0.062500X-0.375000X-0.062500X0.375000X-0.062500X0*%
G04 #@! TD*
G04 #@! TA.AperFunction,SMDPad,CuDef*
%ADD38RoundRect,0.062500X0.062500X0.375000X-0.062500X0.375000X-0.062500X-0.375000X0.062500X-0.375000X0*%
G04 #@! TD*
G04 #@! TA.AperFunction,SMDPad,CuDef*
%ADD39R,3.100000X3.100000*%
G04 #@! TD*
G04 #@! TA.AperFunction,SMDPad,CuDef*
%ADD40R,0.350000X0.600000*%
G04 #@! TD*
G04 #@! TA.AperFunction,SMDPad,CuDef*
%ADD41R,1.700000X1.100000*%
G04 #@! TD*
G04 #@! TA.AperFunction,SMDPad,CuDef*
%ADD42R,0.242473X0.809638*%
G04 #@! TD*
G04 #@! TA.AperFunction,SMDPad,CuDef*
%ADD43R,0.809638X0.242473*%
G04 #@! TD*
G04 #@! TA.AperFunction,SMDPad,CuDef*
%ADD44R,2.550000X2.550000*%
G04 #@! TD*
G04 #@! TA.AperFunction,ViaPad*
%ADD45C,0.800000*%
G04 #@! TD*
G04 #@! TA.AperFunction,Conductor*
%ADD46C,0.250000*%
G04 #@! TD*
G04 #@! TA.AperFunction,Conductor*
%ADD47C,0.500000*%
G04 #@! TD*
G04 #@! TA.AperFunction,Conductor*
%ADD48C,0.700000*%
G04 #@! TD*
G04 #@! TA.AperFunction,Conductor*
%ADD49C,0.300000*%
G04 #@! TD*
G04 APERTURE END LIST*
D10*
X76430000Y-47730000D03*
D11*
X76980000Y-48780000D03*
X77480000Y-48780000D03*
X77980000Y-48780000D03*
X78480000Y-48780000D03*
X78980000Y-48780000D03*
D10*
X79530000Y-47730000D03*
X79530000Y-47230000D03*
D11*
X78980000Y-46180000D03*
X78480000Y-46180000D03*
X77980000Y-46180000D03*
X77480000Y-46180000D03*
X76980000Y-46180000D03*
D10*
X76430000Y-47230000D03*
D12*
X77980000Y-47480000D03*
D13*
X84746671Y-42016246D03*
X86396671Y-42016246D03*
D14*
X60585000Y-52917500D03*
X60585000Y-54467500D03*
D15*
X66095000Y-62017500D03*
X66095000Y-60997500D03*
D16*
X92960000Y-35015000D03*
X92960000Y-39640000D03*
D17*
X59360000Y-48110000D03*
X59360000Y-50010000D03*
D18*
X100345000Y-56325000D03*
X99325000Y-56325000D03*
D19*
X61280000Y-42220000D03*
X61280000Y-44345000D03*
D18*
X100250000Y-43900000D03*
X99230000Y-43900000D03*
D20*
X64300000Y-47249998D03*
X64300000Y-48209998D03*
D14*
X82984171Y-51168746D03*
X82984171Y-52718746D03*
D16*
X92960000Y-59855000D03*
X92960000Y-64480000D03*
D21*
X95970000Y-51914325D03*
D22*
X95970000Y-53214325D03*
D23*
X98140000Y-52239325D03*
D24*
X101900000Y-50500000D03*
D25*
X67100000Y-49050000D03*
X69300000Y-49050000D03*
X69300000Y-47350000D03*
X67100000Y-47350000D03*
D24*
X50500000Y-64750000D03*
D13*
X84746671Y-40546246D03*
X86396671Y-40546246D03*
D26*
X61280000Y-41000000D03*
X62300000Y-41000000D03*
D27*
X54660000Y-36640000D03*
X48160000Y-36640000D03*
D18*
X101270000Y-42775000D03*
X100250000Y-42775000D03*
D10*
X76500000Y-53925000D03*
D11*
X77050000Y-54975000D03*
X77550000Y-54975000D03*
X78050000Y-54975000D03*
X78550000Y-54975000D03*
X79050000Y-54975000D03*
D10*
X79600000Y-53925000D03*
X79600000Y-53425000D03*
D11*
X79050000Y-52375000D03*
X78550000Y-52375000D03*
X78050000Y-52375000D03*
X77550000Y-52375000D03*
X77050000Y-52375000D03*
D10*
X76500000Y-53425000D03*
D12*
X78050000Y-53675000D03*
D19*
X61280000Y-47960000D03*
X61280000Y-50085000D03*
D18*
X99170000Y-55200000D03*
X98150000Y-55200000D03*
D20*
X97150000Y-55340000D03*
X97150000Y-56300000D03*
D24*
X101900000Y-62800000D03*
D28*
X84460000Y-67850000D03*
D29*
X81920000Y-67850000D03*
X79380000Y-67850000D03*
X76840000Y-67850000D03*
X74300000Y-67850000D03*
X71760000Y-67850000D03*
D18*
X100245000Y-68900000D03*
X99225000Y-68900000D03*
D30*
X59370000Y-46130000D03*
X61270000Y-46130000D03*
D27*
X54700000Y-45600000D03*
X48200000Y-45600000D03*
D20*
X96900000Y-42940000D03*
X96900000Y-43900000D03*
X96400000Y-67940000D03*
X96400000Y-68900000D03*
D31*
X69670000Y-44190000D03*
X68120000Y-44190000D03*
D24*
X101900000Y-37900000D03*
D32*
X69550000Y-58665000D03*
X69550000Y-57115000D03*
D33*
X85911671Y-53876246D03*
X87461671Y-53876246D03*
D15*
X68395000Y-62027500D03*
X68395000Y-61007500D03*
D16*
X93070000Y-47309325D03*
X93070000Y-51934325D03*
D21*
X95850000Y-39629325D03*
D22*
X95850000Y-40929325D03*
D23*
X98020000Y-39954325D03*
D15*
X67455000Y-62022500D03*
X67455000Y-61002500D03*
D18*
X101270000Y-67775000D03*
X100250000Y-67775000D03*
D24*
X50750000Y-55550000D03*
D33*
X84499171Y-46326246D03*
X86049171Y-46326246D03*
D18*
X99050000Y-67775000D03*
X98030000Y-67775000D03*
D28*
X68065000Y-65385000D03*
D29*
X68065000Y-67925000D03*
X65525000Y-65385000D03*
X65525000Y-67925000D03*
X62985000Y-65385000D03*
X62985000Y-67925000D03*
X60445000Y-65385000D03*
X60445000Y-67925000D03*
X57905000Y-65385000D03*
X57905000Y-67925000D03*
D21*
X98740000Y-36409325D03*
D22*
X98740000Y-35109325D03*
D23*
X96570000Y-36084325D03*
D13*
X84754171Y-58666246D03*
X86404171Y-58666246D03*
D31*
X69670000Y-42285000D03*
X68120000Y-42285000D03*
D32*
X90000000Y-52340000D03*
X90000000Y-50790000D03*
D34*
X71600002Y-48965000D03*
X71600002Y-48005000D03*
D14*
X73810000Y-45020000D03*
X73810000Y-46570000D03*
D18*
X80420000Y-61450000D03*
X79400000Y-61450000D03*
D35*
X52190000Y-51840000D03*
X48888000Y-51840000D03*
D32*
X73800000Y-54575000D03*
X73800000Y-53025000D03*
D14*
X69555000Y-53757500D03*
X69555000Y-55307500D03*
D18*
X99045000Y-42775000D03*
X98025000Y-42775000D03*
D21*
X95852220Y-64471899D03*
D22*
X95852220Y-65771899D03*
D23*
X98022220Y-64796899D03*
D36*
X76500000Y-59750000D03*
X78075000Y-59750000D03*
D31*
X86046671Y-44866246D03*
X84496671Y-44866246D03*
X69830000Y-37005000D03*
X68280000Y-37005000D03*
D13*
X84746671Y-39066246D03*
X86396671Y-39066246D03*
X84754171Y-55736246D03*
X86404171Y-55736246D03*
D37*
X67332500Y-58330000D03*
X67332500Y-57830000D03*
X67332500Y-57330000D03*
X67332500Y-56830000D03*
X67332500Y-56330000D03*
X67332500Y-55830000D03*
X67332500Y-55330000D03*
X67332500Y-54830000D03*
D38*
X66645000Y-54142500D03*
X66145000Y-54142500D03*
X65645000Y-54142500D03*
X65145000Y-54142500D03*
X64645000Y-54142500D03*
X64145000Y-54142500D03*
X63645000Y-54142500D03*
X63145000Y-54142500D03*
D37*
X62457500Y-54830000D03*
X62457500Y-55330000D03*
X62457500Y-55830000D03*
X62457500Y-56330000D03*
X62457500Y-56830000D03*
X62457500Y-57330000D03*
X62457500Y-57830000D03*
X62457500Y-58330000D03*
D38*
X63145000Y-59017500D03*
X63645000Y-59017500D03*
X64145000Y-59017500D03*
X64645000Y-59017500D03*
X65145000Y-59017500D03*
X65645000Y-59017500D03*
X66145000Y-59017500D03*
X66645000Y-59017500D03*
D39*
X64895000Y-56580000D03*
D13*
X84764171Y-57196246D03*
X86414171Y-57196246D03*
D36*
X76500000Y-61450000D03*
X78075000Y-61450000D03*
D21*
X98749720Y-61311899D03*
D22*
X98749720Y-60011899D03*
D23*
X96579720Y-60986899D03*
D15*
X65150000Y-62015000D03*
X65150000Y-60995000D03*
D18*
X101370000Y-55200000D03*
X100350000Y-55200000D03*
D40*
X68175000Y-40800000D03*
X68825000Y-40800000D03*
X69475000Y-40800000D03*
X69475000Y-38700000D03*
X68825000Y-38700000D03*
X68175000Y-38700000D03*
D41*
X68825000Y-39750000D03*
D34*
X60605000Y-56902500D03*
X60605000Y-55942500D03*
D21*
X98870000Y-48734325D03*
D22*
X98870000Y-47434325D03*
D23*
X96700000Y-48409325D03*
D33*
X65170000Y-39265000D03*
X66720000Y-39265000D03*
D18*
X80470000Y-59750000D03*
X79450000Y-59750000D03*
D42*
X87640001Y-48111246D03*
X87140002Y-48111246D03*
X86640001Y-48111246D03*
X86140001Y-48111246D03*
X85640000Y-48111246D03*
X85140001Y-48111246D03*
D43*
X84538754Y-48741246D03*
X84538754Y-49241245D03*
X84538754Y-49741246D03*
X84538754Y-50241246D03*
X84538754Y-50741247D03*
X84538754Y-51241246D03*
D42*
X85140000Y-51871246D03*
X85639999Y-51871246D03*
X86140000Y-51871246D03*
X86640000Y-51871246D03*
X87140001Y-51871246D03*
X87640000Y-51871246D03*
D43*
X88241246Y-51241246D03*
X88241246Y-50741247D03*
X88241246Y-50241246D03*
X88241246Y-49741246D03*
X88241246Y-49241245D03*
X88241246Y-48741246D03*
D44*
X86390000Y-49991246D03*
D45*
X79520000Y-38850000D03*
X82940000Y-38880000D03*
X101700000Y-56300000D03*
X91300000Y-68210000D03*
X101300000Y-68770000D03*
X73410000Y-60800000D03*
X70440000Y-67330000D03*
X61420000Y-66850000D03*
X59170000Y-66750000D03*
X48750000Y-64760000D03*
X50520000Y-63020000D03*
X52210000Y-64740000D03*
X50460000Y-66430000D03*
X57410000Y-52570000D03*
X62640000Y-48000000D03*
X62550000Y-43220000D03*
X65930000Y-56580000D03*
X66090000Y-62900000D03*
X70580000Y-40640000D03*
X93840000Y-34980000D03*
X65550000Y-46550000D03*
X70800000Y-49780000D03*
X96250000Y-55340000D03*
X65930000Y-57610000D03*
X48640000Y-34820000D03*
X93890000Y-48430000D03*
X70595000Y-39115000D03*
X63850000Y-40840000D03*
X93930000Y-36180000D03*
X49670000Y-38470000D03*
X49370000Y-36590000D03*
X92110000Y-33700000D03*
X102475000Y-55200000D03*
X71195000Y-39865000D03*
X65930000Y-55550000D03*
X47770000Y-43780000D03*
X57800000Y-48150000D03*
X74820000Y-44120000D03*
X65125000Y-62975000D03*
X71040000Y-37020000D03*
X92820000Y-49350000D03*
X92820000Y-45100000D03*
X91640000Y-59810000D03*
X93830000Y-45980000D03*
X64895000Y-55550000D03*
X49450000Y-45550000D03*
X49600000Y-34830000D03*
X59130000Y-44390000D03*
X92140000Y-36230000D03*
X86390000Y-49991246D03*
X95950000Y-43300000D03*
X87210000Y-49990000D03*
X86390000Y-50820000D03*
X94640000Y-45310000D03*
X49750000Y-47430000D03*
X65500000Y-47650000D03*
X71445000Y-41340000D03*
X93080000Y-58760000D03*
X92850000Y-46010000D03*
X64895000Y-56580000D03*
X63860000Y-56580000D03*
X59930000Y-51840000D03*
X46920000Y-47430000D03*
X71810000Y-53100000D03*
X94450000Y-67910000D03*
X48790000Y-47420000D03*
X46820000Y-36640000D03*
X48720000Y-43780000D03*
X102150000Y-42725000D03*
X93040000Y-33700000D03*
X92900000Y-47320000D03*
X83330000Y-44100000D03*
X64840000Y-41160000D03*
X47334000Y-51835000D03*
X94060000Y-33670000D03*
X92830000Y-48460000D03*
X63860000Y-57610000D03*
X72700000Y-48960000D03*
X47760000Y-38460000D03*
X75070000Y-60760000D03*
X48190000Y-45600000D03*
X46770000Y-34830000D03*
X72675000Y-47965000D03*
X63860000Y-55550000D03*
X94090000Y-58710000D03*
X75760000Y-55480000D03*
X64300000Y-46300000D03*
X93930000Y-47330000D03*
X70470000Y-59310000D03*
X85570000Y-49990000D03*
X48710000Y-38460000D03*
X93920000Y-49340000D03*
X77140000Y-41680000D03*
X80810412Y-57816421D03*
X69090000Y-51970000D03*
X47319000Y-50535000D03*
X49680000Y-43790000D03*
X102170000Y-43770000D03*
X57940000Y-46140000D03*
X93040000Y-36210000D03*
X46840000Y-38470000D03*
X71350000Y-58775000D03*
X81326523Y-49113095D03*
X64895000Y-57610000D03*
X75150000Y-61850000D03*
X83340000Y-45850000D03*
X69790000Y-51250000D03*
X58200000Y-41550000D03*
X92170000Y-34970000D03*
X71595864Y-44190000D03*
X46850000Y-43790000D03*
X48110000Y-36640000D03*
X91630000Y-58720000D03*
X91600000Y-60920000D03*
X71160000Y-35610000D03*
X102275000Y-67800000D03*
X93050000Y-60950000D03*
X46900000Y-45600000D03*
X47840000Y-47420000D03*
X93070000Y-59850000D03*
X94030000Y-59850000D03*
X80540000Y-54760000D03*
X59760000Y-56256439D03*
X78530000Y-41750000D03*
X86390000Y-49170000D03*
X59475000Y-52700000D03*
X94023579Y-60885519D03*
X71945000Y-45685000D03*
X47690000Y-34820000D03*
X71035000Y-42285000D03*
X84510000Y-43760000D03*
X86050000Y-43570000D03*
X54880000Y-47470000D03*
X53140000Y-38510000D03*
X54650000Y-45610000D03*
X97380000Y-59310000D03*
X54000000Y-34710000D03*
X96600000Y-34380000D03*
X96750000Y-46750000D03*
X53380000Y-36610000D03*
X54590000Y-36650000D03*
X54850000Y-34710000D03*
X53140000Y-34730000D03*
X54060000Y-43670000D03*
X95870000Y-45880000D03*
X96520000Y-58460000D03*
X54820000Y-38510000D03*
X53440000Y-45570000D03*
X55720000Y-36590000D03*
X97060000Y-48410000D03*
X97460000Y-33480000D03*
X95720000Y-34380000D03*
X95830000Y-46750000D03*
X96580000Y-33510000D03*
X53200000Y-43690000D03*
X97450000Y-34400000D03*
X97650000Y-45880000D03*
X96510000Y-59330000D03*
X96950000Y-36080000D03*
X96740000Y-45900000D03*
X54050000Y-47470000D03*
X96960000Y-61010000D03*
X53990000Y-38510000D03*
X95690000Y-33550000D03*
X95700000Y-59300000D03*
X97670000Y-46750000D03*
X97380000Y-58460000D03*
X54910000Y-43670000D03*
X55780000Y-45550000D03*
X95710000Y-58460000D03*
X87081063Y-45627274D03*
X53200000Y-47470000D03*
X94800000Y-43500000D03*
X89780000Y-54410000D03*
X92570000Y-42550000D03*
X89680000Y-45460000D03*
X84520000Y-53790000D03*
X95100000Y-56075000D03*
X90700000Y-56000000D03*
X93100000Y-56000000D03*
X59747945Y-59574012D03*
X93900000Y-44575000D03*
X88580000Y-37750000D03*
X64450000Y-42680000D03*
X62188300Y-53285603D03*
X75240000Y-54076500D03*
X63541034Y-52658966D03*
X78970000Y-44180000D03*
X65493000Y-52350000D03*
X76950000Y-50360000D03*
X76278534Y-57496466D03*
X61683196Y-54068873D03*
X62825000Y-50950000D03*
X72925000Y-59075000D03*
X79070000Y-51160000D03*
X72075000Y-61475000D03*
X64350000Y-52150000D03*
X75450000Y-44941500D03*
X98640000Y-33700000D03*
X94450000Y-41800000D03*
X98860000Y-46010000D03*
X94730000Y-54250000D03*
X94100000Y-53225000D03*
X88860000Y-41810000D03*
X88660000Y-53230000D03*
X89114491Y-51688500D03*
X83350000Y-54000000D03*
X84240000Y-52060000D03*
X66856082Y-43720000D03*
X81610000Y-59360000D03*
X81700000Y-60750000D03*
X59670000Y-55330000D03*
X70820000Y-57120000D03*
X75550000Y-51960000D03*
X66030000Y-44560000D03*
X66093918Y-40810000D03*
X66040000Y-43720000D03*
X66906082Y-41640000D03*
X66846082Y-44560000D03*
X64300000Y-62010000D03*
X66910000Y-40810000D03*
X70920000Y-56120000D03*
X72690000Y-46550000D03*
X66090000Y-41640000D03*
X87970000Y-42520000D03*
X93660000Y-65875000D03*
X60250000Y-60450000D03*
X96100000Y-56998000D03*
X66900000Y-52700000D03*
X75700000Y-46330000D03*
X75540000Y-48910000D03*
X76900000Y-44031500D03*
X70760000Y-51630000D03*
X81170000Y-50340000D03*
X90760000Y-49640000D03*
X81610000Y-48230500D03*
X90414256Y-48665517D03*
X77398000Y-56452221D03*
X89530000Y-48340000D03*
X89090000Y-46670000D03*
X77634138Y-44838777D03*
X88086095Y-46688479D03*
X80740000Y-53060000D03*
X79620000Y-56080000D03*
X87170000Y-46550000D03*
X57688500Y-61850000D03*
X57550000Y-57000000D03*
X59891326Y-58008674D03*
X61850000Y-60590000D03*
X88750000Y-36650000D03*
X63391500Y-60650000D03*
X91650000Y-55125000D03*
X90300000Y-64000000D03*
X90200000Y-67420000D03*
X70287500Y-64512500D03*
X64337272Y-60651336D03*
X67525000Y-59125000D03*
X63390000Y-49390000D03*
D46*
X63850000Y-40585000D02*
X65170000Y-39265000D01*
X63850000Y-40840000D02*
X63850000Y-40585000D01*
X64900000Y-41100000D02*
X64900000Y-39535000D01*
X64840000Y-41160000D02*
X64900000Y-41100000D01*
X71160000Y-35610000D02*
X69830000Y-36940000D01*
X69830000Y-36940000D02*
X69830000Y-37005000D01*
X79715000Y-53925000D02*
X80540000Y-54760000D01*
X66800000Y-47650000D02*
X67100000Y-47350000D01*
X83340000Y-45850000D02*
X83816246Y-46326246D01*
X71600002Y-48965000D02*
X72695000Y-48965000D01*
X94450000Y-67910000D02*
X96370000Y-67910000D01*
X70595000Y-39115000D02*
X69960000Y-39750000D01*
X70565000Y-40655000D02*
X70580000Y-40640000D01*
X59930000Y-51840000D02*
X60585000Y-52495000D01*
X70800000Y-49780000D02*
X70070000Y-49050000D01*
X68825000Y-38700000D02*
X68825000Y-39750000D01*
X69830000Y-59310000D02*
X69550000Y-59030000D01*
X102475000Y-55200000D02*
X101370000Y-55200000D01*
X60406061Y-56902500D02*
X60605000Y-56902500D01*
X74820000Y-44120000D02*
X74710000Y-44120000D01*
X85195573Y-48796819D02*
X86390000Y-49991246D01*
X69830000Y-37005000D02*
X71025000Y-37005000D01*
X71240000Y-58665000D02*
X71350000Y-58775000D01*
X66095000Y-62895000D02*
X66090000Y-62900000D01*
X85195573Y-48166818D02*
X85195573Y-48796819D01*
X74710000Y-44120000D02*
X73810000Y-45020000D01*
X101270000Y-42775000D02*
X102100000Y-42775000D01*
X67332500Y-56330000D02*
X65145000Y-56330000D01*
X69550000Y-59030000D02*
X69550000Y-58665000D01*
X65145000Y-56330000D02*
X64895000Y-56580000D01*
X68940000Y-39865000D02*
X68825000Y-39750000D01*
X57940000Y-46690000D02*
X57940000Y-46140000D01*
X84510000Y-43760000D02*
X84496671Y-43773329D01*
X62457500Y-56830000D02*
X64645000Y-56830000D01*
X96250000Y-55340000D02*
X97150000Y-55340000D01*
X75760000Y-61450000D02*
X76500000Y-61450000D01*
X65550000Y-46550000D02*
X66300000Y-46550000D01*
X57840000Y-48110000D02*
X57800000Y-48150000D01*
X69670000Y-43865000D02*
X69670000Y-44190000D01*
X59370000Y-46130000D02*
X57950000Y-46130000D01*
X72610000Y-45020000D02*
X71945000Y-45685000D01*
X73810000Y-45020000D02*
X72610000Y-45020000D01*
X69090000Y-51970000D02*
X69555000Y-52435000D01*
X69670000Y-42285000D02*
X70490000Y-41465000D01*
X65645000Y-57330000D02*
X64895000Y-56580000D01*
X71595864Y-44190000D02*
X69670000Y-44190000D01*
X62457500Y-56830000D02*
X60677500Y-56830000D01*
X83816246Y-46326246D02*
X84499171Y-46326246D01*
X69790000Y-51250000D02*
X69790000Y-49540000D01*
X60677500Y-56830000D02*
X60605000Y-56902500D01*
X69790000Y-49540000D02*
X69300000Y-49050000D01*
X66095000Y-62017500D02*
X66082500Y-62017500D01*
X96310000Y-42940000D02*
X96900000Y-42940000D01*
X69960000Y-39750000D02*
X68825000Y-39750000D01*
X64645000Y-56830000D02*
X64895000Y-56580000D01*
X59360000Y-48110000D02*
X57840000Y-48110000D01*
X59370000Y-46130000D02*
X59370000Y-44630000D01*
X60585000Y-52917500D02*
X59692500Y-52917500D01*
X102250000Y-67775000D02*
X102275000Y-67800000D01*
X67332500Y-57330000D02*
X65645000Y-57330000D01*
X59760000Y-56256439D02*
X60406061Y-56902500D01*
X71035000Y-42285000D02*
X69670000Y-42285000D01*
X85140001Y-48111246D02*
X85195573Y-48166818D01*
X48624000Y-51840000D02*
X47319000Y-50535000D01*
X70580000Y-40640000D02*
X69635000Y-40640000D01*
X47339000Y-51840000D02*
X47334000Y-51835000D01*
X71320000Y-41465000D02*
X71445000Y-41340000D01*
X60585000Y-52495000D02*
X60585000Y-52917500D01*
X69635000Y-40640000D02*
X69475000Y-40800000D01*
X83330000Y-44100000D02*
X84096246Y-44866246D01*
X70490000Y-41465000D02*
X71320000Y-41465000D01*
X69555000Y-52435000D02*
X69555000Y-53757500D01*
X66082500Y-62017500D02*
X65125000Y-62975000D01*
X59360000Y-48110000D02*
X57940000Y-46690000D01*
X70470000Y-59310000D02*
X69830000Y-59310000D01*
X102100000Y-42775000D02*
X102150000Y-42725000D01*
X66095000Y-62017500D02*
X66095000Y-62895000D01*
X75550000Y-61450000D02*
X75150000Y-61850000D01*
X70070000Y-49050000D02*
X69300000Y-49050000D01*
X48888000Y-51840000D02*
X47339000Y-51840000D01*
X59370000Y-44630000D02*
X59130000Y-44390000D01*
X95950000Y-43300000D02*
X96310000Y-42940000D01*
X69550000Y-58665000D02*
X71240000Y-58665000D01*
X71675000Y-48965000D02*
X72675000Y-47965000D01*
X59692500Y-52917500D02*
X59475000Y-52700000D01*
X81326523Y-49113095D02*
X79943428Y-47730000D01*
X84496671Y-43773329D02*
X84496671Y-44866246D01*
X48888000Y-51840000D02*
X48624000Y-51840000D01*
X65500000Y-47650000D02*
X66800000Y-47650000D01*
X79600000Y-53925000D02*
X79715000Y-53925000D01*
X76500000Y-61450000D02*
X75550000Y-61450000D01*
X71025000Y-37005000D02*
X71040000Y-37020000D01*
X96370000Y-67910000D02*
X96400000Y-67940000D01*
X101270000Y-67775000D02*
X102250000Y-67775000D01*
X75070000Y-60760000D02*
X75760000Y-61450000D01*
X57950000Y-46130000D02*
X57940000Y-46140000D01*
X64300000Y-46300000D02*
X64300000Y-47249998D01*
X79943428Y-47730000D02*
X79530000Y-47730000D01*
X84096246Y-44866246D02*
X84496671Y-44866246D01*
X66300000Y-46550000D02*
X67100000Y-47350000D01*
X80540000Y-54760000D02*
X80320000Y-54530000D01*
X71195000Y-39865000D02*
X68940000Y-39865000D01*
D47*
X71600002Y-47650002D02*
X71300000Y-47350000D01*
D46*
X68527000Y-52493841D02*
X68200000Y-52166841D01*
D47*
X71600002Y-48005000D02*
X71600002Y-47650002D01*
X71300000Y-47350000D02*
X69300000Y-47350000D01*
D46*
X68527000Y-55063000D02*
X68527000Y-52493841D01*
X67332500Y-55330000D02*
X68260000Y-55330000D01*
X68200000Y-47800000D02*
X68650000Y-47350000D01*
X68260000Y-55330000D02*
X68527000Y-55063000D01*
X68200000Y-52166841D02*
X68200000Y-47800000D01*
X68650000Y-47350000D02*
X69300000Y-47350000D01*
D47*
X64300000Y-48540000D02*
X64810000Y-49050000D01*
X64810000Y-49050000D02*
X67100000Y-49050000D01*
D46*
X68150000Y-54400000D02*
X67720000Y-54830000D01*
D47*
X64300000Y-48209998D02*
X64300000Y-48540000D01*
D46*
X68150000Y-52650000D02*
X68150000Y-54400000D01*
X67100000Y-49050000D02*
X67100000Y-51600000D01*
X67720000Y-54830000D02*
X67332500Y-54830000D01*
X67100000Y-51600000D02*
X68150000Y-52650000D01*
X69475000Y-38200000D02*
X68280000Y-37005000D01*
X69475000Y-38700000D02*
X69475000Y-38200000D01*
X86050000Y-43570000D02*
X86050000Y-44862917D01*
X86140001Y-48111246D02*
X86140001Y-46417076D01*
X86748143Y-45627274D02*
X86049171Y-46326246D01*
D48*
X68270000Y-36995000D02*
X68280000Y-37005000D01*
D46*
X86140001Y-46417076D02*
X86049171Y-46326246D01*
X86050000Y-44862917D02*
X86046671Y-44866246D01*
X68175000Y-38700000D02*
X68175000Y-37110000D01*
X68175000Y-37110000D02*
X68280000Y-37005000D01*
X67285000Y-38700000D02*
X68175000Y-38700000D01*
D48*
X86046671Y-44866246D02*
X86046671Y-46323746D01*
D46*
X66720000Y-39265000D02*
X67285000Y-38700000D01*
X87081063Y-45627274D02*
X86748143Y-45627274D01*
D48*
X86046671Y-46323746D02*
X86049171Y-46326246D01*
D46*
X95750000Y-42175000D02*
X97194325Y-42175000D01*
D47*
X98020000Y-42770000D02*
X98025000Y-42775000D01*
D46*
X94800000Y-43500000D02*
X94800000Y-43125000D01*
X87640000Y-52190000D02*
X87790000Y-52340000D01*
X87640000Y-51871246D02*
X87640000Y-52190000D01*
X94800000Y-43125000D02*
X95750000Y-42175000D01*
X90000000Y-52340000D02*
X90000000Y-54190000D01*
D47*
X98020000Y-39954325D02*
X98020000Y-42770000D01*
D46*
X87790000Y-52340000D02*
X90000000Y-52340000D01*
X98020000Y-41349325D02*
X98020000Y-39954325D01*
X90000000Y-54190000D02*
X89780000Y-54410000D01*
X97194325Y-42175000D02*
X98020000Y-41349325D01*
X92570000Y-42570000D02*
X92570000Y-42550000D01*
X89680000Y-45460000D02*
X92570000Y-42570000D01*
X89951247Y-50741247D02*
X90000000Y-50790000D01*
X88241246Y-50741247D02*
X89951247Y-50741247D01*
D47*
X98150000Y-52249325D02*
X98140000Y-52239325D01*
D46*
X95100000Y-55567932D02*
X96492932Y-54175000D01*
X86140000Y-52810000D02*
X86140000Y-51871246D01*
X85910000Y-53874575D02*
X85910000Y-53040000D01*
D47*
X98150000Y-53650000D02*
X98150000Y-52249325D01*
D46*
X84606246Y-53876246D02*
X84520000Y-53790000D01*
X93100000Y-56000000D02*
X90700000Y-56000000D01*
D47*
X98150000Y-53650000D02*
X98150000Y-55200000D01*
D46*
X96492932Y-54175000D02*
X98150000Y-54175000D01*
X85911671Y-53876246D02*
X84606246Y-53876246D01*
X95100000Y-56075000D02*
X95100000Y-55567932D01*
X98140000Y-52785000D02*
X98140000Y-52239325D01*
X85910000Y-53040000D02*
X86140000Y-52810000D01*
X85911671Y-53876246D02*
X85910000Y-53874575D01*
D47*
X98150000Y-54175000D02*
X98150000Y-53650000D01*
D46*
X87460000Y-53874575D02*
X87460000Y-53150000D01*
X87460000Y-53150000D02*
X87140001Y-52830001D01*
X87461671Y-53876246D02*
X87460000Y-53874575D01*
X87140001Y-52830001D02*
X87140001Y-51871246D01*
X91150000Y-67400000D02*
X93975000Y-67400000D01*
D47*
X98030000Y-66150000D02*
X98030000Y-66475000D01*
X98030000Y-66150000D02*
X98030000Y-64804679D01*
D46*
X82000000Y-51450000D02*
X82000000Y-58250000D01*
D47*
X98030000Y-64804679D02*
X98022220Y-64796899D01*
D46*
X97655000Y-66850000D02*
X98030000Y-66475000D01*
X82281254Y-51168746D02*
X82000000Y-51450000D01*
X84538754Y-51241246D02*
X83056671Y-51241246D01*
X83056671Y-51241246D02*
X82984171Y-51168746D01*
X82000000Y-58250000D02*
X91150000Y-67400000D01*
D47*
X98030000Y-66475000D02*
X98030000Y-67775000D01*
D46*
X94525000Y-66850000D02*
X97655000Y-66850000D01*
X93975000Y-67400000D02*
X94525000Y-66850000D01*
X82984171Y-51168746D02*
X82281254Y-51168746D01*
X85447318Y-52718746D02*
X82984171Y-52718746D01*
X85639999Y-52526065D02*
X85447318Y-52718746D01*
X85639999Y-51871246D02*
X85639999Y-52526065D01*
X64450000Y-44500000D02*
X65400000Y-45450000D01*
X95750000Y-44575000D02*
X96425000Y-43900000D01*
X59747945Y-59555214D02*
X61473159Y-57830000D01*
X62457500Y-57830000D02*
X62420000Y-57830000D01*
X62410000Y-57840000D02*
X62420000Y-57830000D01*
D47*
X99230000Y-43900000D02*
X96900000Y-43900000D01*
D46*
X64450000Y-42680000D02*
X64450000Y-44500000D01*
X59747945Y-59574012D02*
X59747945Y-59555214D01*
X65400000Y-45450000D02*
X71257932Y-45450000D01*
X61473159Y-57830000D02*
X62457500Y-57830000D01*
X93900000Y-44575000D02*
X95750000Y-44575000D01*
X78957932Y-37750000D02*
X88580000Y-37750000D01*
X71257932Y-45450000D02*
X78957932Y-37750000D01*
X96425000Y-43900000D02*
X96900000Y-43900000D01*
X65150000Y-60995000D02*
X64787000Y-61358000D01*
X65150000Y-60995000D02*
X65150000Y-59022500D01*
X64029932Y-61358000D02*
X62985000Y-62402932D01*
X62985000Y-62402932D02*
X62985000Y-65385000D01*
D47*
X65152500Y-60997500D02*
X65150000Y-60995000D01*
D46*
X64787000Y-61358000D02*
X64029932Y-61358000D01*
X65150000Y-59022500D02*
X65145000Y-59017500D01*
D47*
X66095000Y-60997500D02*
X65152500Y-60997500D01*
D46*
X62712445Y-53285603D02*
X62188300Y-53285603D01*
X75391500Y-53925000D02*
X75240000Y-54076500D01*
D49*
X57905000Y-65385000D02*
X57990000Y-65385000D01*
D46*
X61613000Y-51188000D02*
X59462000Y-51188000D01*
X63145000Y-54142500D02*
X63145000Y-53718158D01*
D49*
X57990000Y-65385000D02*
X58370000Y-65005000D01*
D46*
X58370000Y-52280000D02*
X58370000Y-65005000D01*
X62188300Y-53285603D02*
X62188300Y-51763300D01*
X63145000Y-53718158D02*
X62712445Y-53285603D01*
X76500000Y-53925000D02*
X75391500Y-53925000D01*
X59462000Y-51188000D02*
X58370000Y-52280000D01*
X62188300Y-51763300D02*
X61613000Y-51188000D01*
X63541034Y-52658966D02*
X64145000Y-53262932D01*
X78970000Y-46170000D02*
X78980000Y-46180000D01*
X78970000Y-44180000D02*
X78970000Y-46170000D01*
X64145000Y-53262932D02*
X64145000Y-54142500D01*
X77980000Y-49330000D02*
X77980000Y-48780000D01*
X65493000Y-52350000D02*
X65145000Y-52698000D01*
X76950000Y-50360000D02*
X77980000Y-49330000D01*
X65145000Y-52698000D02*
X65145000Y-54142500D01*
D49*
X60445000Y-65385000D02*
X60445000Y-64905000D01*
D46*
X77600000Y-57300000D02*
X78050000Y-56850000D01*
X61379823Y-53765500D02*
X59784500Y-53765500D01*
X59784500Y-53765500D02*
X58748000Y-54802000D01*
X62100000Y-54830000D02*
X62457500Y-54830000D01*
X58748000Y-54802000D02*
X58748000Y-63208000D01*
X61683196Y-54068873D02*
X61379823Y-53765500D01*
X76475000Y-57300000D02*
X77600000Y-57300000D01*
X78050000Y-56850000D02*
X78050000Y-54975000D01*
X58748000Y-63208000D02*
X60445000Y-64905000D01*
X76278534Y-57496466D02*
X76475000Y-57300000D01*
X61683196Y-54413196D02*
X62100000Y-54830000D01*
X61683196Y-54068873D02*
X61683196Y-54413196D01*
X62825000Y-50950000D02*
X62825000Y-52875000D01*
X63645000Y-53685000D02*
X63645000Y-54142500D01*
X79070000Y-51160000D02*
X79050000Y-51180000D01*
X72075000Y-59925000D02*
X72925000Y-59075000D01*
X62825000Y-52875000D02*
X62858603Y-52908603D01*
X62868603Y-52908603D02*
X63645000Y-53685000D01*
X72075000Y-61475000D02*
X72075000Y-59925000D01*
X79050000Y-51180000D02*
X79050000Y-52375000D01*
X62858603Y-52908603D02*
X62868603Y-52908603D01*
X75450000Y-44941500D02*
X76815500Y-44941500D01*
X64645000Y-52445000D02*
X64645000Y-54142500D01*
X64350000Y-52150000D02*
X64645000Y-52445000D01*
X77480000Y-45606000D02*
X77480000Y-46180000D01*
X76815500Y-44941500D02*
X77480000Y-45606000D01*
X76840000Y-66790000D02*
X76840000Y-67850000D01*
X73460000Y-63410000D02*
X76840000Y-66790000D01*
X67455000Y-62022500D02*
X68842500Y-63410000D01*
X68842500Y-63410000D02*
X73460000Y-63410000D01*
X79380000Y-66830000D02*
X79380000Y-67850000D01*
X75525000Y-62975000D02*
X79380000Y-66830000D01*
X68395000Y-62355000D02*
X69015000Y-62975000D01*
X69015000Y-62975000D02*
X75525000Y-62975000D01*
X68395000Y-62027500D02*
X68395000Y-62355000D01*
X90750000Y-54800000D02*
X90750000Y-50572068D01*
X98640000Y-35009325D02*
X98740000Y-35109325D01*
X91412000Y-44838000D02*
X94450000Y-41800000D01*
X89813754Y-55736246D02*
X90750000Y-54800000D01*
X98640000Y-33700000D02*
X98640000Y-35009325D01*
X91412000Y-49910068D02*
X91412000Y-44838000D01*
X90750000Y-50572068D02*
X91412000Y-49910068D01*
X86404171Y-55736246D02*
X89813754Y-55736246D01*
X94150000Y-56225000D02*
X93178754Y-57196246D01*
X93178754Y-57196246D02*
X86414171Y-57196246D01*
X94150000Y-55800000D02*
X94150000Y-56225000D01*
X98860000Y-46010000D02*
X98860000Y-47424325D01*
X94730000Y-55220000D02*
X94730000Y-54250000D01*
X98860000Y-47424325D02*
X98870000Y-47434325D01*
X94150000Y-55800000D02*
X94730000Y-55220000D01*
X86396671Y-39066246D02*
X89136246Y-39066246D01*
X90999325Y-40929325D02*
X95850000Y-40929325D01*
X89136246Y-39066246D02*
X90999325Y-40929325D01*
X88125000Y-57650000D02*
X98090000Y-57650000D01*
X87108754Y-58666246D02*
X88125000Y-57650000D01*
X98090000Y-57650000D02*
X98749720Y-58309720D01*
X98749720Y-58309720D02*
X98749720Y-60011899D01*
X86404171Y-58666246D02*
X87108754Y-58666246D01*
X95275000Y-53225000D02*
X95285675Y-53214325D01*
X86396671Y-40546246D02*
X87596246Y-40546246D01*
X94100000Y-53225000D02*
X95275000Y-53225000D01*
X95285675Y-53214325D02*
X95970000Y-53214325D01*
X87596246Y-40546246D02*
X88860000Y-41810000D01*
X87650754Y-55009246D02*
X88660000Y-54000000D01*
X84754171Y-55195829D02*
X84940754Y-55009246D01*
X88241246Y-51241246D02*
X88667237Y-51241246D01*
X88660000Y-54000000D02*
X88660000Y-53230000D01*
X84754171Y-55736246D02*
X84754171Y-55195829D01*
X84940754Y-55009246D02*
X87650754Y-55009246D01*
X88667237Y-51241246D02*
X89114491Y-51688500D01*
X84538754Y-50741247D02*
X83706252Y-50741247D01*
X83706252Y-50741247D02*
X82262000Y-49296995D01*
X82262000Y-41550917D02*
X84746671Y-39066246D01*
X82262000Y-49296995D02*
X82262000Y-41550917D01*
X83850777Y-50241246D02*
X82650000Y-49040469D01*
X84538754Y-50241246D02*
X83850777Y-50241246D01*
X82650000Y-49040469D02*
X82650000Y-42642917D01*
X82650000Y-42642917D02*
X84746671Y-40546246D01*
X86720000Y-51951246D02*
X86640000Y-51871246D01*
X84196754Y-54603246D02*
X86546754Y-54603246D01*
X83727000Y-56577000D02*
X83727000Y-55073000D01*
X86546754Y-54603246D02*
X86720000Y-54430000D01*
X84764171Y-57196246D02*
X84346246Y-57196246D01*
X84346246Y-57196246D02*
X83727000Y-56577000D01*
X86720000Y-54430000D02*
X86720000Y-51951246D01*
X83727000Y-55073000D02*
X84196754Y-54603246D01*
X83200000Y-47560000D02*
X83532000Y-47228000D01*
X83200000Y-49057311D02*
X83200000Y-47560000D01*
X84538754Y-49741246D02*
X83883935Y-49741246D01*
X83532000Y-47228000D02*
X84746997Y-47228000D01*
X84746997Y-47228000D02*
X85320000Y-46654997D01*
X85320000Y-46654997D02*
X85320000Y-42230000D01*
X85320000Y-42230000D02*
X85106246Y-42016246D01*
X85106246Y-42016246D02*
X84746671Y-42016246D01*
X83883935Y-49741246D02*
X83200000Y-49057311D01*
X85140000Y-51871246D02*
X84428754Y-51871246D01*
X83350000Y-58250000D02*
X83766246Y-58666246D01*
X84428754Y-51871246D02*
X84240000Y-52060000D01*
X83766246Y-58666246D02*
X84754171Y-58666246D01*
X83350000Y-54000000D02*
X83350000Y-58250000D01*
X62457500Y-55330000D02*
X60840000Y-55330000D01*
X74470000Y-47230000D02*
X76430000Y-47230000D01*
X72690000Y-46550000D02*
X73790000Y-46550000D01*
X68815658Y-55307500D02*
X69555000Y-55307500D01*
X59670000Y-54580000D02*
X59670000Y-55330000D01*
X81470000Y-60750000D02*
X80470000Y-59750000D01*
X70107500Y-55307500D02*
X69555000Y-55307500D01*
X68293158Y-55830000D02*
X68815658Y-55307500D01*
X69550000Y-57115000D02*
X70815000Y-57115000D01*
X81220000Y-59750000D02*
X81610000Y-59360000D01*
X60840000Y-55330000D02*
X60585000Y-55075000D01*
X74200000Y-53425000D02*
X76500000Y-53425000D01*
X74865000Y-51960000D02*
X73800000Y-53025000D01*
X60585000Y-55075000D02*
X60585000Y-54467500D01*
X75550000Y-51960000D02*
X74865000Y-51960000D01*
X70920000Y-56120000D02*
X70107500Y-55307500D01*
X73790000Y-46550000D02*
X73810000Y-46570000D01*
X70815000Y-57115000D02*
X70820000Y-57120000D01*
X59782500Y-54467500D02*
X59670000Y-54580000D01*
X73800000Y-53025000D02*
X74200000Y-53425000D01*
X67332500Y-55830000D02*
X68293158Y-55830000D01*
X64305000Y-62015000D02*
X64300000Y-62010000D01*
X80470000Y-59750000D02*
X81220000Y-59750000D01*
X65150000Y-62015000D02*
X64305000Y-62015000D01*
X69265000Y-56830000D02*
X69550000Y-57115000D01*
X81700000Y-60750000D02*
X81470000Y-60750000D01*
X67332500Y-56830000D02*
X69265000Y-56830000D01*
X73810000Y-46570000D02*
X74470000Y-47230000D01*
X60585000Y-54467500D02*
X59782500Y-54467500D01*
X95150000Y-65775000D02*
X95300000Y-65775000D01*
X93660000Y-65875000D02*
X95050000Y-65875000D01*
X87466246Y-42016246D02*
X87970000Y-42520000D01*
X95300000Y-65775000D02*
X95303101Y-65771899D01*
X95050000Y-65875000D02*
X95150000Y-65775000D01*
X86396671Y-42016246D02*
X87466246Y-42016246D01*
X95303101Y-65771899D02*
X95852220Y-65771899D01*
X61172500Y-55942500D02*
X60605000Y-55942500D01*
X61560000Y-56330000D02*
X61172500Y-55942500D01*
X62457500Y-56330000D02*
X61560000Y-56330000D01*
X67327000Y-60557000D02*
X66769072Y-60557000D01*
X67455000Y-60685000D02*
X67327000Y-60557000D01*
X67455000Y-61002500D02*
X67455000Y-60685000D01*
X65645000Y-59432928D02*
X65645000Y-59017500D01*
X66769072Y-60557000D02*
X65645000Y-59432928D01*
X66145000Y-59399770D02*
X66925230Y-60180000D01*
X66145000Y-59017500D02*
X66145000Y-59399770D01*
X68395000Y-60665000D02*
X68395000Y-61007500D01*
X66925230Y-60180000D02*
X67910000Y-60180000D01*
X67910000Y-60180000D02*
X68395000Y-60665000D01*
D47*
X99325000Y-56325000D02*
X97175000Y-56325000D01*
D46*
X61910000Y-58330000D02*
X62457500Y-58330000D01*
X96100000Y-56998000D02*
X96452000Y-56998000D01*
X60250000Y-60450000D02*
X60250000Y-59990000D01*
D47*
X97175000Y-56325000D02*
X97150000Y-56300000D01*
D46*
X60250000Y-59990000D02*
X61910000Y-58330000D01*
X96452000Y-56998000D02*
X97150000Y-56300000D01*
X59360000Y-50010000D02*
X61205000Y-50010000D01*
X61205000Y-50010000D02*
X61280000Y-50085000D01*
X66145000Y-54142500D02*
X66145000Y-51395000D01*
X61280000Y-50085000D02*
X64835000Y-50085000D01*
X64835000Y-50085000D02*
X66145000Y-51395000D01*
X62132500Y-59017500D02*
X61198000Y-59952000D01*
X68725000Y-66700000D02*
X71472000Y-69447000D01*
X61775000Y-62225000D02*
X61775000Y-66075000D01*
X63145000Y-59017500D02*
X62132500Y-59017500D01*
X96178000Y-69447000D02*
X96400000Y-69225000D01*
X61198000Y-59952000D02*
X61198000Y-61648000D01*
X71472000Y-69447000D02*
X96178000Y-69447000D01*
X96400000Y-69225000D02*
X96400000Y-68900000D01*
X61198000Y-61648000D02*
X61775000Y-62225000D01*
X61775000Y-66075000D02*
X62400000Y-66700000D01*
D47*
X99225000Y-68900000D02*
X96400000Y-68900000D01*
D46*
X62400000Y-66700000D02*
X68725000Y-66700000D01*
X75540000Y-50140000D02*
X74600000Y-51080000D01*
X78480000Y-50100000D02*
X77500000Y-51080000D01*
X66650000Y-54137500D02*
X66645000Y-54142500D01*
X78701500Y-56480000D02*
X78550000Y-56328500D01*
X78550000Y-51675000D02*
X77955000Y-51080000D01*
X78480000Y-48780000D02*
X78480000Y-50100000D01*
X78701500Y-57578500D02*
X78701500Y-56480000D01*
X71310000Y-51080000D02*
X70760000Y-51630000D01*
X76182000Y-58322000D02*
X77958000Y-58322000D01*
X76980000Y-46180000D02*
X75850000Y-46180000D01*
X74680000Y-56820000D02*
X73470000Y-56820000D01*
X78480000Y-44720000D02*
X78480000Y-46180000D01*
X75790000Y-56820000D02*
X74680000Y-56820000D01*
X74600000Y-51080000D02*
X71310000Y-51080000D01*
X75540000Y-48910000D02*
X75540000Y-50140000D01*
X78550000Y-56328500D02*
X78550000Y-54975000D01*
X77050000Y-55560000D02*
X75790000Y-56820000D01*
X77500000Y-51080000D02*
X77020000Y-51080000D01*
X66650000Y-52950000D02*
X66650000Y-54137500D01*
X66900000Y-52700000D02*
X66650000Y-52950000D01*
X77791500Y-44031500D02*
X78480000Y-44720000D01*
X77050000Y-54975000D02*
X77050000Y-55560000D01*
X77958000Y-58322000D02*
X78701500Y-57578500D01*
X75850000Y-46180000D02*
X75700000Y-46330000D01*
X77020000Y-51080000D02*
X74600000Y-51080000D01*
X76900000Y-44031500D02*
X77791500Y-44031500D01*
X74680000Y-56820000D02*
X76182000Y-58322000D01*
X73470000Y-56820000D02*
X70760000Y-54110000D01*
X70760000Y-54110000D02*
X70760000Y-51630000D01*
X77955000Y-51080000D02*
X77020000Y-51080000D01*
X78550000Y-52375000D02*
X78550000Y-51675000D01*
X81170000Y-50340000D02*
X79880000Y-50340000D01*
X78980000Y-49440000D02*
X78980000Y-48780000D01*
X90658754Y-49741246D02*
X88241246Y-49741246D01*
X90760000Y-49640000D02*
X90658754Y-49741246D01*
X79880000Y-50340000D02*
X78980000Y-49440000D01*
X80609500Y-47230000D02*
X79530000Y-47230000D01*
X88241246Y-49241245D02*
X89838528Y-49241245D01*
X81610000Y-48230500D02*
X80609500Y-47230000D01*
X89838528Y-49241245D02*
X90414256Y-48665517D01*
X88242492Y-48740000D02*
X88241246Y-48741246D01*
X77398000Y-56452221D02*
X77550000Y-56300221D01*
X89130000Y-48740000D02*
X88242492Y-48740000D01*
X89530000Y-48340000D02*
X89130000Y-48740000D01*
X77550000Y-56300221D02*
X77550000Y-54975000D01*
X89090000Y-46670000D02*
X88419521Y-47340479D01*
X87640001Y-47667731D02*
X87640001Y-48111246D01*
X77980000Y-46180000D02*
X77980000Y-45184639D01*
X88419521Y-47340479D02*
X87967253Y-47340479D01*
X77980000Y-45184639D02*
X77634138Y-44838777D01*
X87967253Y-47340479D02*
X87640001Y-47667731D01*
X79600000Y-53425000D02*
X80375000Y-53425000D01*
X80375000Y-53425000D02*
X80740000Y-53060000D01*
X88086095Y-46688479D02*
X87140002Y-47634572D01*
X87140002Y-47634572D02*
X87140002Y-48111246D01*
X87170000Y-46550000D02*
X86640001Y-47079999D01*
X86640001Y-47079999D02*
X86640001Y-48111246D01*
X79050000Y-54975000D02*
X79050000Y-55510000D01*
X79050000Y-55510000D02*
X79620000Y-56080000D01*
X60761326Y-58008674D02*
X61440000Y-57330000D01*
X57620000Y-57070000D02*
X57550000Y-57000000D01*
X57620000Y-61781500D02*
X57620000Y-57070000D01*
X59891326Y-58008674D02*
X60761326Y-58008674D01*
X61440000Y-57330000D02*
X62457500Y-57330000D01*
X57688500Y-61850000D02*
X57620000Y-61781500D01*
X92450000Y-38000000D02*
X92960000Y-38510000D01*
X61850000Y-60590000D02*
X62510000Y-60590000D01*
X91550000Y-38000000D02*
X92450000Y-38000000D01*
X62510000Y-60590000D02*
X63645000Y-59455000D01*
X92960000Y-38510000D02*
X92960000Y-39640000D01*
X63645000Y-59455000D02*
X63645000Y-59017500D01*
X90200000Y-36650000D02*
X91550000Y-38000000D01*
X88750000Y-36650000D02*
X90200000Y-36650000D01*
X92550000Y-50400000D02*
X93070000Y-50920000D01*
X91850000Y-50400000D02*
X92550000Y-50400000D01*
X64145000Y-59921540D02*
X64145000Y-59017500D01*
X91200000Y-54675000D02*
X91200000Y-51050000D01*
X91200000Y-51050000D02*
X91850000Y-50400000D01*
X63391500Y-60650000D02*
X63416540Y-60650000D01*
X93070000Y-50920000D02*
X93070000Y-51934325D01*
X63416540Y-60650000D02*
X64145000Y-59921540D01*
X91650000Y-55125000D02*
X91200000Y-54675000D01*
X93075000Y-51939325D02*
X93070000Y-51934325D01*
X90300000Y-64000000D02*
X90300000Y-63400000D01*
X64337272Y-60651336D02*
X64645000Y-60343608D01*
X90700000Y-63000000D02*
X92550000Y-63000000D01*
X64645000Y-60343608D02*
X64645000Y-59017500D01*
X90300000Y-63400000D02*
X90700000Y-63000000D01*
X70287500Y-64512500D02*
X73000000Y-67225000D01*
X73000000Y-68500000D02*
X73570000Y-69070000D01*
X88550000Y-69070000D02*
X90200000Y-67420000D01*
X92960000Y-63410000D02*
X92960000Y-64480000D01*
X73570000Y-69070000D02*
X88550000Y-69070000D01*
X73000000Y-67225000D02*
X73000000Y-68500000D01*
X92550000Y-63000000D02*
X92960000Y-63410000D01*
X61280000Y-41000000D02*
X61280000Y-42220000D01*
X63390000Y-49390000D02*
X63390000Y-41710000D01*
X62680000Y-41000000D02*
X62300000Y-41000000D01*
X66645000Y-59017500D02*
X67417500Y-59017500D01*
X67417500Y-59017500D02*
X67525000Y-59125000D01*
X63390000Y-41710000D02*
X62680000Y-41000000D01*
X77473000Y-60723000D02*
X79693000Y-60723000D01*
X73530000Y-57830000D02*
X67332500Y-57830000D01*
X75450000Y-59750000D02*
X76500000Y-59750000D01*
X73530000Y-57830000D02*
X75450000Y-59750000D01*
X76500000Y-59750000D02*
X77473000Y-60723000D01*
X79693000Y-60723000D02*
X80420000Y-61450000D01*
X67769999Y-58330000D02*
X72014999Y-62575000D01*
X82275000Y-62575000D02*
X84460000Y-64760000D01*
X72014999Y-62575000D02*
X82275000Y-62575000D01*
X84460000Y-64760000D02*
X84460000Y-67850000D01*
X67332500Y-58330000D02*
X67769999Y-58330000D01*
D47*
X100250000Y-42775000D02*
X100250000Y-43900000D01*
X99045000Y-42775000D02*
X100250000Y-42775000D01*
X99170000Y-55200000D02*
X100350000Y-55200000D01*
X100345000Y-56325000D02*
X100345000Y-55205000D01*
X100345000Y-55205000D02*
X100350000Y-55200000D01*
X100250000Y-67775000D02*
X100250000Y-68895000D01*
X99050000Y-67775000D02*
X100250000Y-67775000D01*
X100250000Y-68895000D02*
X100245000Y-68900000D01*
D46*
X78075000Y-59750000D02*
X79450000Y-59750000D01*
X79400000Y-61450000D02*
X78075000Y-61450000D01*
X61280000Y-46140000D02*
X61270000Y-46130000D01*
X61280000Y-46120000D02*
X61270000Y-46130000D01*
X61280000Y-47960000D02*
X61280000Y-46140000D01*
X61280000Y-44345000D02*
X61280000Y-46120000D01*
G04 #@! TA.AperFunction,Conductor*
G36*
X96492405Y-50170034D02*
G01*
X96538479Y-50222560D01*
X96550000Y-50274755D01*
X96550000Y-52616000D01*
X96530315Y-52683039D01*
X96477511Y-52728794D01*
X96426000Y-52740000D01*
X95631362Y-52740000D01*
X95564323Y-52720315D01*
X95543681Y-52703681D01*
X95510000Y-52670000D01*
X94300000Y-52670000D01*
X94230072Y-52670313D01*
X94116828Y-52670821D01*
X94100093Y-52669762D01*
X94100000Y-52669750D01*
X94099998Y-52669750D01*
X94099996Y-52669750D01*
X94098757Y-52669913D01*
X94083137Y-52670972D01*
X92070223Y-52679999D01*
X92069667Y-52680000D01*
X91734000Y-52680000D01*
X91666961Y-52660315D01*
X91621206Y-52607511D01*
X91610000Y-52556000D01*
X91610000Y-50303249D01*
X91629685Y-50236210D01*
X91682489Y-50190455D01*
X91733244Y-50179251D01*
X96425249Y-50150757D01*
X96492405Y-50170034D01*
G37*
G04 #@! TD.AperFunction*
G04 #@! TA.AperFunction,Conductor*
G36*
X51425000Y-47850000D02*
G01*
X46025000Y-47875000D01*
X46002215Y-43842124D01*
X46002489Y-43424873D01*
X51425000Y-43400000D01*
X51425000Y-47850000D01*
G37*
G04 #@! TD.AperFunction*
G04 #@! TA.AperFunction,Conductor*
G36*
X94512220Y-36710000D02*
G01*
X91412220Y-36710000D01*
X91412220Y-33250000D01*
X94512220Y-33250000D01*
X94512220Y-36710000D01*
G37*
G04 #@! TD.AperFunction*
G04 #@! TA.AperFunction,Conductor*
G36*
X97822751Y-32021514D02*
G01*
X97868514Y-32074311D01*
X97879728Y-32126070D01*
X97870232Y-37254507D01*
X97850423Y-37321510D01*
X97797535Y-37367167D01*
X97744518Y-37378265D01*
X95700011Y-37350000D01*
X95700000Y-37350000D01*
X95393310Y-37350000D01*
X95326271Y-37330315D01*
X95280516Y-37277511D01*
X95269312Y-37226691D01*
X95240874Y-32126909D01*
X95260184Y-32059761D01*
X95312732Y-32013713D01*
X95364852Y-32002218D01*
X96625036Y-32002018D01*
X97755709Y-32001840D01*
X97822751Y-32021514D01*
G37*
G04 #@! TD.AperFunction*
G04 #@! TA.AperFunction,Conductor*
G36*
X51450000Y-38975000D02*
G01*
X46025000Y-39000000D01*
X46025000Y-34075000D01*
X46008651Y-34058651D01*
X46008657Y-34049960D01*
X51450000Y-34025000D01*
X51450000Y-38975000D01*
G37*
G04 #@! TD.AperFunction*
G04 #@! TA.AperFunction,Conductor*
G36*
X70466789Y-32009660D02*
G01*
X70533774Y-32029530D01*
X70579383Y-32082460D01*
X70590446Y-32133210D01*
X70600265Y-34839959D01*
X70580824Y-34907070D01*
X70557863Y-34931558D01*
X70558953Y-34932769D01*
X70554123Y-34937116D01*
X70427466Y-35077785D01*
X70332821Y-35241715D01*
X70332818Y-35241722D01*
X70274327Y-35421740D01*
X70274326Y-35421744D01*
X70266405Y-35497105D01*
X70256678Y-35589651D01*
X70230093Y-35654266D01*
X70221038Y-35664370D01*
X69892227Y-35993181D01*
X69830904Y-36026666D01*
X69804546Y-36029500D01*
X69556663Y-36029500D01*
X69556644Y-36029501D01*
X69457292Y-36039650D01*
X69457289Y-36039651D01*
X69296305Y-36092996D01*
X69296294Y-36093001D01*
X69151959Y-36182029D01*
X69151955Y-36182032D01*
X69032032Y-36301955D01*
X69032029Y-36301959D01*
X68943001Y-36446294D01*
X68942996Y-36446305D01*
X68889651Y-36607290D01*
X68879500Y-36706647D01*
X68879500Y-37303337D01*
X68879501Y-37303355D01*
X68889650Y-37402707D01*
X68889651Y-37402710D01*
X68942996Y-37563694D01*
X68942998Y-37563699D01*
X69033487Y-37710403D01*
X69051927Y-37777795D01*
X69031005Y-37844459D01*
X68977363Y-37889229D01*
X68927948Y-37899500D01*
X68602130Y-37899500D01*
X68602123Y-37899501D01*
X68542516Y-37905908D01*
X68407671Y-37956202D01*
X68407664Y-37956206D01*
X68292455Y-38042452D01*
X68292452Y-38042455D01*
X68206206Y-38157664D01*
X68206202Y-38157671D01*
X68155908Y-38292517D01*
X68149501Y-38352116D01*
X68149501Y-38352123D01*
X68149500Y-38352135D01*
X68149500Y-38575500D01*
X68129815Y-38642539D01*
X68077011Y-38688294D01*
X68025501Y-38699500D01*
X67927130Y-38699500D01*
X67927123Y-38699501D01*
X67867516Y-38705908D01*
X67732671Y-38756202D01*
X67732664Y-38756206D01*
X67617455Y-38842452D01*
X67617452Y-38842455D01*
X67531206Y-38957664D01*
X67531202Y-38957671D01*
X67480910Y-39092513D01*
X67480909Y-39092517D01*
X67474500Y-39152127D01*
X67474500Y-39496716D01*
X67474501Y-39720500D01*
X67454817Y-39787539D01*
X67402013Y-39833294D01*
X67350501Y-39844500D01*
X66221830Y-39844500D01*
X66154791Y-39824815D01*
X66109036Y-39772011D01*
X66099092Y-39702853D01*
X66104123Y-39681498D01*
X66105698Y-39676744D01*
X66110349Y-39662708D01*
X66120500Y-39563345D01*
X66120499Y-38966656D01*
X66119580Y-38957664D01*
X66110349Y-38867292D01*
X66110348Y-38867289D01*
X66102119Y-38842455D01*
X66057003Y-38706303D01*
X66056999Y-38706297D01*
X66056998Y-38706294D01*
X65967970Y-38561959D01*
X65967967Y-38561955D01*
X65848044Y-38442032D01*
X65848040Y-38442029D01*
X65703705Y-38353001D01*
X65703699Y-38352998D01*
X65703697Y-38352997D01*
X65701075Y-38352128D01*
X65542709Y-38299651D01*
X65443346Y-38289500D01*
X64896662Y-38289500D01*
X64896644Y-38289501D01*
X64797292Y-38299650D01*
X64797289Y-38299651D01*
X64636305Y-38352996D01*
X64636294Y-38353001D01*
X64491959Y-38442029D01*
X64491955Y-38442032D01*
X64372032Y-38561955D01*
X64372029Y-38561959D01*
X64283001Y-38706294D01*
X64282996Y-38706305D01*
X64229651Y-38867290D01*
X64219500Y-38966647D01*
X64219500Y-39279547D01*
X64199815Y-39346586D01*
X64183181Y-39367228D01*
X63588891Y-39961517D01*
X63551646Y-39987115D01*
X63397270Y-40055848D01*
X63397265Y-40055851D01*
X63244129Y-40167111D01*
X63192116Y-40224877D01*
X63190088Y-40227131D01*
X63179426Y-40238972D01*
X63119939Y-40275621D01*
X63087276Y-40280000D01*
X62812712Y-40280000D01*
X62749591Y-40262732D01*
X62689393Y-40227131D01*
X62689388Y-40227129D01*
X62535208Y-40182335D01*
X62535202Y-40182334D01*
X62499181Y-40179500D01*
X62100830Y-40179500D01*
X62100808Y-40179501D01*
X62064794Y-40182335D01*
X61910608Y-40227130D01*
X61910602Y-40227132D01*
X61853121Y-40261127D01*
X61785397Y-40278310D01*
X61726879Y-40261127D01*
X61669397Y-40227132D01*
X61669391Y-40227130D01*
X61515208Y-40182335D01*
X61515202Y-40182334D01*
X61479181Y-40179500D01*
X61080830Y-40179500D01*
X61080808Y-40179501D01*
X61044794Y-40182335D01*
X60890611Y-40227129D01*
X60890606Y-40227131D01*
X60830409Y-40262732D01*
X60767288Y-40280000D01*
X57070000Y-40280000D01*
X57017042Y-47672777D01*
X57000433Y-47733887D01*
X56972821Y-47781713D01*
X56914327Y-47961740D01*
X56914326Y-47961744D01*
X56894540Y-48150000D01*
X56914326Y-48338256D01*
X56914327Y-48338259D01*
X56972820Y-48518284D01*
X56993667Y-48554392D01*
X57010276Y-48617279D01*
X56995854Y-50630687D01*
X56975690Y-50697584D01*
X56922559Y-50742959D01*
X56875742Y-50753738D01*
X55400000Y-50800000D01*
X55424668Y-60075340D01*
X55405161Y-60142432D01*
X55352479Y-60188327D01*
X55300340Y-60199670D01*
X46148672Y-60175459D01*
X46081685Y-60155597D01*
X46036070Y-60102672D01*
X46025000Y-60051459D01*
X46025000Y-50535000D01*
X46413540Y-50535000D01*
X46433326Y-50723256D01*
X46433327Y-50723259D01*
X46491818Y-50903277D01*
X46491821Y-50903284D01*
X46586466Y-51067215D01*
X46625311Y-51110357D01*
X46655541Y-51173349D01*
X46646915Y-51242684D01*
X46625312Y-51276300D01*
X46601470Y-51302778D01*
X46601465Y-51302785D01*
X46506821Y-51466715D01*
X46506818Y-51466722D01*
X46453766Y-51630000D01*
X46448326Y-51646744D01*
X46428540Y-51835000D01*
X46448326Y-52023256D01*
X46448327Y-52023259D01*
X46506818Y-52203277D01*
X46506821Y-52203284D01*
X46601467Y-52367216D01*
X46689963Y-52465500D01*
X46728129Y-52507888D01*
X46881265Y-52619148D01*
X46881270Y-52619151D01*
X47054192Y-52696142D01*
X47054197Y-52696144D01*
X47239354Y-52735500D01*
X47239355Y-52735500D01*
X47428644Y-52735500D01*
X47428646Y-52735500D01*
X47613803Y-52696144D01*
X47786730Y-52619151D01*
X47939871Y-52507888D01*
X47939883Y-52507873D01*
X47940112Y-52507669D01*
X47940290Y-52507583D01*
X47945129Y-52504068D01*
X47945771Y-52504951D01*
X48003099Y-52477428D01*
X48072435Y-52486041D01*
X48117566Y-52521698D01*
X48117787Y-52521478D01*
X48119669Y-52523360D01*
X48122366Y-52525491D01*
X48124054Y-52527746D01*
X48239269Y-52613996D01*
X48239270Y-52613996D01*
X48239271Y-52613997D01*
X48374117Y-52664291D01*
X48374116Y-52664291D01*
X48381044Y-52665035D01*
X48433727Y-52670700D01*
X49222837Y-52670699D01*
X49289876Y-52690383D01*
X49310518Y-52707018D01*
X49345200Y-52741700D01*
X51732800Y-52741700D01*
X51732800Y-50938300D01*
X49345200Y-50938300D01*
X49310519Y-50972981D01*
X49249196Y-51006466D01*
X49222838Y-51009300D01*
X48729253Y-51009300D01*
X48662214Y-50989615D01*
X48641572Y-50972981D01*
X48257960Y-50589369D01*
X48224475Y-50528046D01*
X48222323Y-50514668D01*
X48204674Y-50346744D01*
X48146179Y-50166716D01*
X48051533Y-50002784D01*
X47924871Y-49862112D01*
X47924870Y-49862111D01*
X47771734Y-49750851D01*
X47771729Y-49750848D01*
X47598807Y-49673857D01*
X47598802Y-49673855D01*
X47453001Y-49642865D01*
X47413646Y-49634500D01*
X47224354Y-49634500D01*
X47191897Y-49641398D01*
X47039197Y-49673855D01*
X47039192Y-49673857D01*
X46866270Y-49750848D01*
X46866265Y-49750851D01*
X46713129Y-49862111D01*
X46586466Y-50002785D01*
X46491821Y-50166715D01*
X46491818Y-50166722D01*
X46433327Y-50346740D01*
X46433326Y-50346744D01*
X46413540Y-50535000D01*
X46025000Y-50535000D01*
X46025000Y-48503932D01*
X46044685Y-48436893D01*
X46097489Y-48391138D01*
X46148419Y-48379934D01*
X51427340Y-48355495D01*
X51496940Y-48350355D01*
X51634992Y-48309819D01*
X51756032Y-48232031D01*
X51850254Y-48123294D01*
X51910024Y-47992416D01*
X51930500Y-47850000D01*
X51930500Y-43400000D01*
X51930500Y-43399990D01*
X51925019Y-43325769D01*
X51925019Y-43325766D01*
X51883851Y-43187901D01*
X51805509Y-43067219D01*
X51696340Y-42973497D01*
X51696336Y-42973495D01*
X51565193Y-42914328D01*
X51455204Y-42899029D01*
X51422681Y-42894505D01*
X51422680Y-42894505D01*
X49845826Y-42901737D01*
X49819479Y-42899029D01*
X49797087Y-42894270D01*
X49774646Y-42889500D01*
X49585354Y-42889500D01*
X49533229Y-42900579D01*
X49508021Y-42903287D01*
X48952158Y-42905836D01*
X48925809Y-42903128D01*
X48919265Y-42901737D01*
X48814646Y-42879500D01*
X48625354Y-42879500D01*
X48503969Y-42905300D01*
X48478762Y-42908008D01*
X48022224Y-42910101D01*
X47995876Y-42907392D01*
X47864651Y-42879500D01*
X47864646Y-42879500D01*
X47675354Y-42879500D01*
X47533020Y-42909753D01*
X47507809Y-42912462D01*
X47075608Y-42914444D01*
X47049259Y-42911736D01*
X46944646Y-42889500D01*
X46755354Y-42889500D01*
X46755350Y-42889500D01*
X46640814Y-42913845D01*
X46615602Y-42916554D01*
X46128005Y-42918790D01*
X46060876Y-42899413D01*
X46014879Y-42846819D01*
X46003447Y-42793127D01*
X46045943Y-39627170D01*
X46066526Y-39560404D01*
X46119939Y-39515362D01*
X46169353Y-39504840D01*
X51452329Y-39480495D01*
X51452343Y-39480494D01*
X51452345Y-39480494D01*
X51470424Y-39479158D01*
X51521940Y-39475355D01*
X51659992Y-39434819D01*
X51781032Y-39357031D01*
X51875254Y-39248294D01*
X51935024Y-39117416D01*
X51955500Y-38975000D01*
X51955500Y-34025000D01*
X51955500Y-34024990D01*
X51950019Y-33950768D01*
X51950019Y-33950765D01*
X51908851Y-33812901D01*
X51830509Y-33692219D01*
X51721340Y-33598497D01*
X51721336Y-33598495D01*
X51590189Y-33539327D01*
X51590185Y-33539326D01*
X51447694Y-33519506D01*
X51447684Y-33519505D01*
X51447681Y-33519505D01*
X51401008Y-33519719D01*
X46134621Y-33543875D01*
X46067492Y-33524498D01*
X46021495Y-33471904D01*
X46010101Y-33416386D01*
X46046324Y-32130477D01*
X46067888Y-32064023D01*
X46121959Y-32019773D01*
X46170253Y-32009973D01*
X69260815Y-32006334D01*
X70466789Y-32009660D01*
G37*
G04 #@! TD.AperFunction*
G04 #@! TA.AperFunction,Conductor*
G36*
X70556635Y-37883162D02*
G01*
X70601406Y-37936804D01*
X70611677Y-37985771D01*
X70612057Y-38090660D01*
X70592616Y-38157770D01*
X70539978Y-38203716D01*
X70506654Y-38212882D01*
X70506711Y-38213149D01*
X70502191Y-38214109D01*
X70501034Y-38214428D01*
X70500360Y-38214498D01*
X70315197Y-38253855D01*
X70315192Y-38253857D01*
X70142270Y-38330848D01*
X70142265Y-38330851D01*
X69989129Y-38442111D01*
X69862467Y-38582783D01*
X69830876Y-38637501D01*
X69780309Y-38685716D01*
X69723489Y-38699500D01*
X69624499Y-38699500D01*
X69557460Y-38679815D01*
X69511705Y-38627011D01*
X69500499Y-38575500D01*
X69500499Y-38352129D01*
X69500498Y-38352123D01*
X69500497Y-38352116D01*
X69494091Y-38292517D01*
X69479672Y-38253857D01*
X69440697Y-38149359D01*
X69443794Y-38148203D01*
X69432360Y-38095665D01*
X69456771Y-38030198D01*
X69512700Y-37988321D01*
X69556045Y-37980499D01*
X69556645Y-37980499D01*
X69556655Y-37980500D01*
X70103344Y-37980499D01*
X70103352Y-37980498D01*
X70103355Y-37980498D01*
X70157760Y-37974940D01*
X70202708Y-37970349D01*
X70363697Y-37917003D01*
X70422584Y-37880680D01*
X70489971Y-37862241D01*
X70556635Y-37883162D01*
G37*
G04 #@! TD.AperFunction*
G04 #@! TA.AperFunction,Conductor*
G36*
X109307795Y-57204111D02*
G01*
X109374813Y-57223865D01*
X109420513Y-57276716D01*
X109431665Y-57328125D01*
X109431065Y-61899239D01*
X109430437Y-66676016D01*
X109410744Y-66743053D01*
X109357934Y-66788801D01*
X109306437Y-66800000D01*
X99924000Y-66800000D01*
X99856961Y-66780315D01*
X99811206Y-66727511D01*
X99800000Y-66676000D01*
X99800000Y-66050000D01*
X96924748Y-66050000D01*
X96857709Y-66030315D01*
X96811954Y-65977511D01*
X96800750Y-65925255D01*
X96814259Y-63677580D01*
X96834346Y-63610660D01*
X96887424Y-63565223D01*
X96938257Y-63554325D01*
X98205000Y-63554325D01*
X98262317Y-60564256D01*
X98283283Y-60497609D01*
X98336954Y-60452874D01*
X98384685Y-60442645D01*
X99800000Y-60424325D01*
X99804808Y-57318259D01*
X99824596Y-57251251D01*
X99877471Y-57205578D01*
X99928933Y-57194452D01*
X109307795Y-57204111D01*
G37*
G04 #@! TD.AperFunction*
G04 #@! TA.AperFunction,Conductor*
G36*
X109309462Y-44534138D02*
G01*
X109376480Y-44553892D01*
X109422180Y-44606743D01*
X109433333Y-44658154D01*
X109432095Y-54073989D01*
X109412402Y-54141026D01*
X109359592Y-54186774D01*
X109306817Y-54197966D01*
X99922735Y-54101264D01*
X99855902Y-54080890D01*
X99810694Y-54027617D01*
X99800013Y-53977257D01*
X99800065Y-53508953D01*
X97048948Y-53504579D01*
X96981940Y-53484788D01*
X96936269Y-53431911D01*
X96925149Y-53379595D01*
X96943183Y-51107397D01*
X96963399Y-51040516D01*
X97016564Y-50995181D01*
X97067179Y-50984381D01*
X98334159Y-50984381D01*
X98391479Y-47994154D01*
X98412445Y-47927505D01*
X98466116Y-47882770D01*
X98513696Y-47872543D01*
X99794159Y-47854381D01*
X99832685Y-44647015D01*
X99853173Y-44580219D01*
X99906523Y-44535102D01*
X99956802Y-44524507D01*
X109309462Y-44534138D01*
G37*
G04 #@! TD.AperFunction*
G04 #@! TA.AperFunction,Conductor*
G36*
X97815656Y-57996195D02*
G01*
X97882618Y-58016133D01*
X97928173Y-58069110D01*
X97939179Y-58121353D01*
X97901509Y-62152117D01*
X97881198Y-62218969D01*
X97827969Y-62264229D01*
X97775800Y-62274946D01*
X95730356Y-62246668D01*
X95730345Y-62246668D01*
X95424345Y-62246668D01*
X95357306Y-62226983D01*
X95311551Y-62174179D01*
X95300345Y-62122668D01*
X95300345Y-58111138D01*
X95320030Y-58044099D01*
X95372834Y-57998344D01*
X95424812Y-57987139D01*
X97815656Y-57996195D01*
G37*
G04 #@! TD.AperFunction*
G04 #@! TA.AperFunction,Conductor*
G36*
X96372405Y-62730034D02*
G01*
X96418479Y-62782560D01*
X96430000Y-62834755D01*
X96430000Y-65176000D01*
X96410315Y-65243039D01*
X96357511Y-65288794D01*
X96306000Y-65300000D01*
X95514000Y-65300000D01*
X95446961Y-65280315D01*
X95425190Y-65255190D01*
X95390000Y-65220000D01*
X94180000Y-65220000D01*
X91950000Y-65220000D01*
X91633803Y-65220000D01*
X91566764Y-65200315D01*
X91521009Y-65147511D01*
X91509807Y-65097042D01*
X91491044Y-62864285D01*
X91510165Y-62797082D01*
X91562583Y-62750885D01*
X91614285Y-62739245D01*
X96305249Y-62710757D01*
X96372405Y-62730034D01*
G37*
G04 #@! TD.AperFunction*
G04 #@! TA.AperFunction,Conductor*
G36*
X96373039Y-37879685D02*
G01*
X96418794Y-37932489D01*
X96430000Y-37984000D01*
X96430000Y-40326000D01*
X96410315Y-40393039D01*
X96357511Y-40438794D01*
X96306000Y-40450000D01*
X95514000Y-40450000D01*
X95446961Y-40430315D01*
X95425190Y-40405190D01*
X95390000Y-40370000D01*
X94250000Y-40370000D01*
X92020223Y-40379999D01*
X92019667Y-40380000D01*
X91980000Y-40380000D01*
X91625485Y-40380000D01*
X91558446Y-40360315D01*
X91512691Y-40307511D01*
X91501494Y-40254524D01*
X91511896Y-39380677D01*
X91528541Y-37982522D01*
X91549022Y-37915724D01*
X91602367Y-37870600D01*
X91652532Y-37860000D01*
X96306000Y-37860000D01*
X96373039Y-37879685D01*
G37*
G04 #@! TD.AperFunction*
G04 #@! TA.AperFunction,Conductor*
G36*
X67707895Y-40369685D02*
G01*
X67743957Y-40405108D01*
X67794399Y-40480601D01*
X67876658Y-40535564D01*
X67877260Y-40535966D01*
X67877264Y-40535967D01*
X67950321Y-40550499D01*
X67950324Y-40550500D01*
X67950326Y-40550500D01*
X68886700Y-40550500D01*
X68953739Y-40570185D01*
X68999494Y-40622989D01*
X69010700Y-40674232D01*
X69013151Y-41809533D01*
X69005333Y-41853134D01*
X68975589Y-41932881D01*
X68975587Y-41932889D01*
X68969500Y-41989498D01*
X68969500Y-42580481D01*
X68969501Y-42580490D01*
X68975587Y-42637112D01*
X69007398Y-42722399D01*
X69015216Y-42765465D01*
X69017242Y-43703565D01*
X69009424Y-43747166D01*
X68975589Y-43837882D01*
X68975587Y-43837889D01*
X68969500Y-43894498D01*
X68969500Y-44485481D01*
X68969501Y-44485490D01*
X68975587Y-44542112D01*
X69011537Y-44638496D01*
X69019355Y-44681562D01*
X69019732Y-44856096D01*
X69000192Y-44923178D01*
X68947487Y-44969047D01*
X68896096Y-44980363D01*
X65734096Y-44989636D01*
X65666999Y-44970149D01*
X65621089Y-44917479D01*
X65609732Y-44865906D01*
X65600401Y-40535966D01*
X65600268Y-40474267D01*
X65619808Y-40407185D01*
X65672514Y-40361317D01*
X65724268Y-40350000D01*
X67640856Y-40350000D01*
X67707895Y-40369685D01*
G37*
G04 #@! TD.AperFunction*
G04 #@! TA.AperFunction,Conductor*
G36*
X109140600Y-32456561D02*
G01*
X109207618Y-32476315D01*
X109253318Y-32529167D01*
X109264469Y-32580098D01*
X109299535Y-41975537D01*
X109280101Y-42042650D01*
X109227468Y-42088601D01*
X109175536Y-42100000D01*
X99724000Y-42100000D01*
X99656961Y-42080315D01*
X99611206Y-42027511D01*
X99600000Y-41976000D01*
X99600000Y-41100000D01*
X96968047Y-41077739D01*
X96901177Y-41057488D01*
X96855870Y-41004299D01*
X96845101Y-40952653D01*
X96862926Y-38929596D01*
X96883200Y-38862734D01*
X96936405Y-38817446D01*
X96986921Y-38806690D01*
X98254008Y-38806690D01*
X98254009Y-38806690D01*
X98286847Y-37038826D01*
X98311411Y-35716536D01*
X98332338Y-35649874D01*
X98385982Y-35605107D01*
X98433630Y-35594851D01*
X99714009Y-35576690D01*
X99656434Y-32573197D01*
X99674830Y-32505793D01*
X99726747Y-32459035D01*
X99780537Y-32446821D01*
X109140600Y-32456561D01*
G37*
G04 #@! TD.AperFunction*
G04 #@! TA.AperFunction,Conductor*
G36*
X97915665Y-45403910D02*
G01*
X97982627Y-45423848D01*
X98028182Y-45476825D01*
X98039188Y-45529068D01*
X98001518Y-49559832D01*
X97981207Y-49626684D01*
X97927978Y-49671944D01*
X97875809Y-49682661D01*
X95830365Y-49654383D01*
X95830354Y-49654383D01*
X95524354Y-49654383D01*
X95457315Y-49634698D01*
X95411560Y-49581894D01*
X95400354Y-49530383D01*
X95400354Y-45518853D01*
X95420039Y-45451814D01*
X95472843Y-45406059D01*
X95524821Y-45394854D01*
X97915665Y-45403910D01*
G37*
G04 #@! TD.AperFunction*
G04 #@! TA.AperFunction,Conductor*
G36*
X60452539Y-40805185D02*
G01*
X60498294Y-40857989D01*
X60509500Y-40909500D01*
X60509500Y-41249169D01*
X60509501Y-41249191D01*
X60512334Y-41285202D01*
X60512949Y-41287316D01*
X60512945Y-41288548D01*
X60513473Y-41291437D01*
X60512936Y-41291534D01*
X60512747Y-41357185D01*
X60474803Y-41415854D01*
X60458972Y-41427443D01*
X60449611Y-41433217D01*
X60449608Y-41433219D01*
X60330719Y-41552108D01*
X60330716Y-41552112D01*
X60242455Y-41695204D01*
X60242450Y-41695215D01*
X60232974Y-41723813D01*
X60189564Y-41854815D01*
X60189564Y-41854816D01*
X60189563Y-41854816D01*
X60179500Y-41953318D01*
X60179500Y-42486681D01*
X60189563Y-42585183D01*
X60242450Y-42744784D01*
X60242455Y-42744795D01*
X60330716Y-42887887D01*
X60330719Y-42887891D01*
X60449608Y-43006780D01*
X60449612Y-43006783D01*
X60592704Y-43095044D01*
X60592707Y-43095045D01*
X60592713Y-43095049D01*
X60752315Y-43147936D01*
X60850826Y-43158000D01*
X60850831Y-43158000D01*
X61709169Y-43158000D01*
X61709174Y-43158000D01*
X61807685Y-43147936D01*
X61967287Y-43095049D01*
X62110391Y-43006781D01*
X62229281Y-42887891D01*
X62317549Y-42744787D01*
X62370436Y-42585185D01*
X62380500Y-42486674D01*
X62380500Y-41953326D01*
X62380500Y-41953316D01*
X62380367Y-41950705D01*
X62396615Y-41882751D01*
X62447023Y-41834369D01*
X62496790Y-41821171D01*
X62496753Y-41820690D01*
X62499180Y-41820499D01*
X62535204Y-41817665D01*
X62535215Y-41817661D01*
X62537067Y-41817324D01*
X62538124Y-41817435D01*
X62541522Y-41817168D01*
X62541571Y-41817798D01*
X62606552Y-41824639D01*
X62647034Y-41851624D01*
X62728181Y-41932771D01*
X62761666Y-41994094D01*
X62764500Y-42020452D01*
X62764500Y-48691312D01*
X62744815Y-48758351D01*
X62732650Y-48774284D01*
X62657466Y-48857784D01*
X62562821Y-49021715D01*
X62562818Y-49021722D01*
X62515521Y-49167289D01*
X62504326Y-49201744D01*
X62493039Y-49309139D01*
X62488906Y-49348462D01*
X62462321Y-49413076D01*
X62405024Y-49453061D01*
X62365585Y-49459500D01*
X62322832Y-49459500D01*
X62255793Y-49439815D01*
X62235335Y-49421268D01*
X62234388Y-49422216D01*
X62110391Y-49298219D01*
X62110387Y-49298216D01*
X61967295Y-49209955D01*
X61967289Y-49209952D01*
X61967287Y-49209951D01*
X61807685Y-49157064D01*
X61807683Y-49157063D01*
X61709181Y-49147000D01*
X61709174Y-49147000D01*
X60850826Y-49147000D01*
X60850818Y-49147000D01*
X60752316Y-49157063D01*
X60752315Y-49157064D01*
X60680353Y-49180910D01*
X60592715Y-49209950D01*
X60592706Y-49209954D01*
X60523765Y-49252478D01*
X60456373Y-49270918D01*
X60389709Y-49249995D01*
X60370988Y-49234620D01*
X60303657Y-49167289D01*
X60303656Y-49167288D01*
X60181014Y-49091642D01*
X60154336Y-49075187D01*
X60154331Y-49075185D01*
X60145127Y-49072135D01*
X59987797Y-49020001D01*
X59987795Y-49020000D01*
X59885010Y-49009500D01*
X58834998Y-49009500D01*
X58834980Y-49009501D01*
X58732203Y-49020000D01*
X58732200Y-49020001D01*
X58565668Y-49075185D01*
X58565663Y-49075187D01*
X58416342Y-49167289D01*
X58292289Y-49291342D01*
X58200187Y-49440663D01*
X58200185Y-49440668D01*
X58180904Y-49498856D01*
X58145001Y-49607203D01*
X58145001Y-49607204D01*
X58145000Y-49607204D01*
X58134500Y-49709983D01*
X58134500Y-50310001D01*
X58134501Y-50310019D01*
X58145000Y-50412796D01*
X58145001Y-50412799D01*
X58200185Y-50579331D01*
X58200187Y-50579336D01*
X58209828Y-50594967D01*
X58292288Y-50728656D01*
X58416344Y-50852712D01*
X58565666Y-50944814D01*
X58566305Y-50945026D01*
X58566684Y-50945288D01*
X58572209Y-50947864D01*
X58571769Y-50948807D01*
X58623752Y-50984790D01*
X58650582Y-51049303D01*
X58638275Y-51118080D01*
X58614993Y-51150415D01*
X58290773Y-51474636D01*
X57971270Y-51794139D01*
X57971267Y-51794142D01*
X57949075Y-51816334D01*
X57884142Y-51881266D01*
X57854061Y-51926286D01*
X57854060Y-51926285D01*
X57815689Y-51983712D01*
X57815687Y-51983716D01*
X57787192Y-52052510D01*
X57768538Y-52097543D01*
X57768535Y-52097555D01*
X57756824Y-52156426D01*
X57756825Y-52156427D01*
X57745349Y-52214128D01*
X57745345Y-52214146D01*
X57744500Y-52218386D01*
X57744500Y-55975500D01*
X57724815Y-56042539D01*
X57672011Y-56088294D01*
X57620500Y-56099500D01*
X57455354Y-56099500D01*
X57422897Y-56106398D01*
X57270197Y-56138855D01*
X57270192Y-56138857D01*
X57097270Y-56215848D01*
X57097265Y-56215851D01*
X56944129Y-56327111D01*
X56817466Y-56467785D01*
X56722821Y-56631715D01*
X56722818Y-56631722D01*
X56664976Y-56809744D01*
X56664326Y-56811744D01*
X56644540Y-57000000D01*
X56664326Y-57188256D01*
X56664327Y-57188259D01*
X56722818Y-57368277D01*
X56722821Y-57368284D01*
X56817467Y-57532216D01*
X56874771Y-57595858D01*
X56944129Y-57672888D01*
X56948959Y-57677237D01*
X56947985Y-57678318D01*
X56986045Y-57727662D01*
X56994500Y-57772665D01*
X56994500Y-61227389D01*
X56974815Y-61294428D01*
X56962652Y-61310358D01*
X56955972Y-61317776D01*
X56955964Y-61317787D01*
X56861321Y-61481715D01*
X56861318Y-61481722D01*
X56806479Y-61650500D01*
X56802826Y-61661744D01*
X56783040Y-61850000D01*
X56802826Y-62038256D01*
X56802827Y-62038259D01*
X56861318Y-62218277D01*
X56861321Y-62218284D01*
X56955967Y-62382216D01*
X57047695Y-62484090D01*
X57082629Y-62522888D01*
X57235765Y-62634148D01*
X57235770Y-62634151D01*
X57408692Y-62711142D01*
X57408697Y-62711144D01*
X57593854Y-62750500D01*
X57620500Y-62750500D01*
X57687539Y-62770185D01*
X57733294Y-62822989D01*
X57744500Y-62874500D01*
X57744500Y-63934716D01*
X57724815Y-64001755D01*
X57672011Y-64047510D01*
X57652593Y-64054491D01*
X57441344Y-64111094D01*
X57441335Y-64111098D01*
X57227171Y-64210964D01*
X57227169Y-64210965D01*
X57033597Y-64346505D01*
X56866505Y-64513597D01*
X56730965Y-64707169D01*
X56730964Y-64707171D01*
X56631098Y-64921335D01*
X56631094Y-64921344D01*
X56569938Y-65149586D01*
X56569936Y-65149596D01*
X56549341Y-65384999D01*
X56549341Y-65385000D01*
X56569936Y-65620403D01*
X56569938Y-65620413D01*
X56631094Y-65848655D01*
X56631096Y-65848659D01*
X56631097Y-65848663D01*
X56711004Y-66020023D01*
X56730965Y-66062830D01*
X56730967Y-66062834D01*
X56739136Y-66074500D01*
X56866505Y-66256401D01*
X57033599Y-66423495D01*
X57130384Y-66491265D01*
X57227165Y-66559032D01*
X57227167Y-66559033D01*
X57227170Y-66559035D01*
X57441337Y-66658903D01*
X57441343Y-66658904D01*
X57441344Y-66658905D01*
X57477475Y-66668586D01*
X57669592Y-66720063D01*
X57857918Y-66736539D01*
X57904999Y-66740659D01*
X57905000Y-66740659D01*
X57905001Y-66740659D01*
X57944234Y-66737226D01*
X58140408Y-66720063D01*
X58368663Y-66658903D01*
X58582830Y-66559035D01*
X58776401Y-66423495D01*
X58943495Y-66256401D01*
X59073425Y-66070842D01*
X59128002Y-66027217D01*
X59197500Y-66020023D01*
X59259855Y-66051546D01*
X59276575Y-66070842D01*
X59406500Y-66256395D01*
X59406505Y-66256401D01*
X59573599Y-66423495D01*
X59670384Y-66491265D01*
X59767165Y-66559032D01*
X59767167Y-66559033D01*
X59767170Y-66559035D01*
X59981337Y-66658903D01*
X59981343Y-66658904D01*
X59981344Y-66658905D01*
X60017475Y-66668586D01*
X60209592Y-66720063D01*
X60397918Y-66736539D01*
X60444999Y-66740659D01*
X60445000Y-66740659D01*
X60445001Y-66740659D01*
X60484234Y-66737226D01*
X60680408Y-66720063D01*
X60908663Y-66658903D01*
X61122830Y-66559035D01*
X61127879Y-66555500D01*
X61185588Y-66515091D01*
X61251793Y-66492763D01*
X61319561Y-66509772D01*
X61344393Y-66528984D01*
X61383332Y-66567923D01*
X61383337Y-66567927D01*
X61914141Y-67098732D01*
X61914142Y-67098733D01*
X61979567Y-67164158D01*
X62001269Y-67185860D01*
X62001271Y-67185861D01*
X62065433Y-67228733D01*
X62095239Y-67248648D01*
X62103714Y-67254311D01*
X62217548Y-67301463D01*
X62336809Y-67325185D01*
X62338388Y-67325499D01*
X62338392Y-67325500D01*
X62338393Y-67325500D01*
X62338394Y-67325500D01*
X66665894Y-67325500D01*
X66732933Y-67345185D01*
X66778688Y-67397989D01*
X66788632Y-67467147D01*
X66785669Y-67481593D01*
X66729938Y-67689586D01*
X66729936Y-67689596D01*
X66709341Y-67924999D01*
X66709341Y-67925000D01*
X66729936Y-68160403D01*
X66729938Y-68160413D01*
X66791094Y-68388655D01*
X66791096Y-68388659D01*
X66791097Y-68388663D01*
X66868790Y-68555275D01*
X66890965Y-68602830D01*
X66890967Y-68602834D01*
X66989045Y-68742903D01*
X67026505Y-68796401D01*
X67193599Y-68963495D01*
X67290384Y-69031265D01*
X67387165Y-69099032D01*
X67387167Y-69099033D01*
X67387170Y-69099035D01*
X67601337Y-69198903D01*
X67829592Y-69260063D01*
X68017918Y-69276539D01*
X68064999Y-69280659D01*
X68065000Y-69280659D01*
X68065001Y-69280659D01*
X68104234Y-69277226D01*
X68300408Y-69260063D01*
X68528663Y-69198903D01*
X68742830Y-69099035D01*
X68936401Y-68963495D01*
X69103495Y-68796401D01*
X69239035Y-68602830D01*
X69324539Y-68419465D01*
X69370710Y-68367028D01*
X69437904Y-68347876D01*
X69504785Y-68368092D01*
X69524601Y-68384191D01*
X70934807Y-69794399D01*
X70968292Y-69855722D01*
X70963308Y-69925414D01*
X70921436Y-69981347D01*
X70855972Y-70005764D01*
X70847146Y-70006080D01*
X61286367Y-70007587D01*
X46113983Y-70009978D01*
X46046942Y-69990305D01*
X46001179Y-69937508D01*
X45989965Y-69886013D01*
X45989962Y-69875334D01*
X45988542Y-64625205D01*
X45988574Y-64577549D01*
X45989674Y-62904282D01*
X45991057Y-60801467D01*
X46010786Y-60734444D01*
X46063620Y-60688724D01*
X46132785Y-60678826D01*
X46133032Y-60678862D01*
X46139479Y-60679806D01*
X46147335Y-60680957D01*
X55299003Y-60705168D01*
X55407799Y-60693616D01*
X55459938Y-60682273D01*
X55563693Y-60647586D01*
X55684526Y-60569477D01*
X55737208Y-60523582D01*
X55814068Y-60434403D01*
X55831133Y-60414603D01*
X55831134Y-60414601D01*
X55831137Y-60414598D01*
X55848868Y-60375500D01*
X55890556Y-60283571D01*
X55890556Y-60283570D01*
X55890560Y-60283562D01*
X55908381Y-60222268D01*
X55909007Y-60220451D01*
X55910069Y-60216464D01*
X55930165Y-60074004D01*
X55930164Y-60074003D01*
X55930166Y-60073996D01*
X55907124Y-51410352D01*
X55926631Y-51343262D01*
X55979313Y-51297367D01*
X56027236Y-51286085D01*
X56891581Y-51258990D01*
X56989159Y-51246350D01*
X57035976Y-51235571D01*
X57129247Y-51204273D01*
X57250842Y-51127356D01*
X57303973Y-51081981D01*
X57303979Y-51081975D01*
X57398976Y-50973915D01*
X57459682Y-50843468D01*
X57479846Y-50776571D01*
X57480793Y-50770307D01*
X57490232Y-50707831D01*
X57501341Y-50634308D01*
X57515763Y-48620900D01*
X57512972Y-48598784D01*
X57499019Y-48488205D01*
X57499018Y-48488204D01*
X57499018Y-48488198D01*
X57482409Y-48425311D01*
X57445063Y-48334691D01*
X57441794Y-48325804D01*
X57415529Y-48244970D01*
X57411642Y-48226681D01*
X60179500Y-48226681D01*
X60189563Y-48325183D01*
X60242450Y-48484784D01*
X60242455Y-48484795D01*
X60330716Y-48627887D01*
X60330719Y-48627891D01*
X60449608Y-48746780D01*
X60449612Y-48746783D01*
X60592704Y-48835044D01*
X60592707Y-48835045D01*
X60592713Y-48835049D01*
X60752315Y-48887936D01*
X60850826Y-48898000D01*
X60850831Y-48898000D01*
X61709169Y-48898000D01*
X61709174Y-48898000D01*
X61807685Y-48887936D01*
X61967287Y-48835049D01*
X62110391Y-48746781D01*
X62229281Y-48627891D01*
X62317549Y-48484787D01*
X62370436Y-48325185D01*
X62380500Y-48226674D01*
X62380500Y-47693326D01*
X62370436Y-47594815D01*
X62317549Y-47435213D01*
X62317545Y-47435207D01*
X62317544Y-47435204D01*
X62229283Y-47292112D01*
X62229280Y-47292108D01*
X62143172Y-47206000D01*
X62109687Y-47144677D01*
X62114671Y-47074985D01*
X62125312Y-47053227D01*
X62204814Y-46924334D01*
X62259999Y-46757797D01*
X62270500Y-46655009D01*
X62270499Y-45604992D01*
X62259999Y-45502203D01*
X62204814Y-45335666D01*
X62188846Y-45309777D01*
X62142482Y-45234608D01*
X62124042Y-45167216D01*
X62144965Y-45100552D01*
X62160330Y-45081841D01*
X62229281Y-45012891D01*
X62317549Y-44869787D01*
X62370436Y-44710185D01*
X62380500Y-44611674D01*
X62380500Y-44078326D01*
X62370436Y-43979815D01*
X62317549Y-43820213D01*
X62317545Y-43820207D01*
X62317544Y-43820204D01*
X62229283Y-43677112D01*
X62229280Y-43677108D01*
X62110391Y-43558219D01*
X62110387Y-43558216D01*
X61967295Y-43469955D01*
X61967289Y-43469952D01*
X61967287Y-43469951D01*
X61807685Y-43417064D01*
X61807683Y-43417063D01*
X61709181Y-43407000D01*
X61709174Y-43407000D01*
X60850826Y-43407000D01*
X60850818Y-43407000D01*
X60752316Y-43417063D01*
X60752315Y-43417064D01*
X60673219Y-43443273D01*
X60592715Y-43469950D01*
X60592704Y-43469955D01*
X60449612Y-43558216D01*
X60449608Y-43558219D01*
X60330719Y-43677108D01*
X60330716Y-43677112D01*
X60242455Y-43820204D01*
X60242450Y-43820215D01*
X60234819Y-43843244D01*
X60189564Y-43979815D01*
X60189564Y-43979816D01*
X60189563Y-43979816D01*
X60179500Y-44078318D01*
X60179500Y-44611681D01*
X60189563Y-44710183D01*
X60242450Y-44869784D01*
X60242455Y-44869795D01*
X60330716Y-45012887D01*
X60330715Y-45012887D01*
X60387290Y-45069462D01*
X60420774Y-45130786D01*
X60415789Y-45200478D01*
X60405147Y-45222239D01*
X60335189Y-45335659D01*
X60335185Y-45335668D01*
X60321678Y-45376430D01*
X60280001Y-45502203D01*
X60280001Y-45502204D01*
X60280000Y-45502204D01*
X60269500Y-45604983D01*
X60269500Y-46655001D01*
X60269501Y-46655019D01*
X60280000Y-46757796D01*
X60280001Y-46757799D01*
X60335185Y-46924331D01*
X60335189Y-46924340D01*
X60422314Y-47065593D01*
X60440754Y-47132985D01*
X60419831Y-47199649D01*
X60404457Y-47218369D01*
X60330719Y-47292107D01*
X60330716Y-47292112D01*
X60242455Y-47435204D01*
X60242450Y-47435215D01*
X60227989Y-47478856D01*
X60189564Y-47594815D01*
X60189564Y-47594816D01*
X60189563Y-47594816D01*
X60179500Y-47693318D01*
X60179500Y-48226681D01*
X57411642Y-48226681D01*
X57410142Y-48219626D01*
X57404186Y-48162956D01*
X57404186Y-48137036D01*
X57410141Y-48080375D01*
X57415528Y-48055034D01*
X57434594Y-47996355D01*
X57438040Y-47987040D01*
X57438205Y-47986643D01*
X57438210Y-47986635D01*
X57488237Y-47866467D01*
X57504846Y-47805357D01*
X57522529Y-47676398D01*
X57571010Y-40908611D01*
X57591174Y-40841715D01*
X57644305Y-40796340D01*
X57695007Y-40785500D01*
X60385500Y-40785500D01*
X60452539Y-40805185D01*
G37*
G04 #@! TD.AperFunction*
G04 #@! TA.AperFunction,Conductor*
G36*
X109348753Y-67325185D02*
G01*
X109394508Y-67377989D01*
X109405712Y-67428814D01*
X109419253Y-69875334D01*
X109399940Y-69942481D01*
X109347390Y-69988528D01*
X109295275Y-70000020D01*
X96806984Y-70001988D01*
X96739941Y-69982314D01*
X96694178Y-69929517D01*
X96684223Y-69860360D01*
X96713238Y-69796800D01*
X96719284Y-69790306D01*
X96822774Y-69686818D01*
X96884097Y-69653334D01*
X96910454Y-69650500D01*
X98763861Y-69650500D01*
X98826981Y-69667767D01*
X98835607Y-69672869D01*
X98835614Y-69672871D01*
X98989791Y-69717664D01*
X98989794Y-69717664D01*
X98989796Y-69717665D01*
X99025819Y-69720500D01*
X99424180Y-69720499D01*
X99460204Y-69717665D01*
X99614393Y-69672869D01*
X99671882Y-69638869D01*
X99739602Y-69621688D01*
X99798117Y-69638869D01*
X99855607Y-69672869D01*
X99855610Y-69672869D01*
X99855612Y-69672871D01*
X100009791Y-69717664D01*
X100009794Y-69717664D01*
X100009796Y-69717665D01*
X100045819Y-69720500D01*
X100444180Y-69720499D01*
X100480204Y-69717665D01*
X100634393Y-69672869D01*
X100772598Y-69591135D01*
X100886135Y-69477598D01*
X100967869Y-69339393D01*
X101000851Y-69225865D01*
X101012664Y-69185208D01*
X101012665Y-69185202D01*
X101015499Y-69149188D01*
X101015500Y-69149181D01*
X101015499Y-68650820D01*
X101012665Y-68614796D01*
X101005423Y-68589867D01*
X101000500Y-68555275D01*
X101000500Y-68136932D01*
X101005424Y-68102336D01*
X101008169Y-68092888D01*
X101017665Y-68060204D01*
X101020500Y-68024181D01*
X101020499Y-67525820D01*
X101017665Y-67489796D01*
X101010198Y-67464094D01*
X101010397Y-67394227D01*
X101048338Y-67335556D01*
X101111976Y-67306712D01*
X101129274Y-67305500D01*
X109281714Y-67305500D01*
X109348753Y-67325185D01*
G37*
G04 #@! TD.AperFunction*
G04 #@! TA.AperFunction,Conductor*
G36*
X69620702Y-65119139D02*
G01*
X69631643Y-65129873D01*
X69681629Y-65185388D01*
X69681632Y-65185390D01*
X69834765Y-65296648D01*
X69834770Y-65296651D01*
X70007692Y-65373642D01*
X70007697Y-65373644D01*
X70192854Y-65413000D01*
X70252048Y-65413000D01*
X70319087Y-65432685D01*
X70339729Y-65449319D01*
X72338181Y-67447771D01*
X72371666Y-67509094D01*
X72374500Y-67535452D01*
X72374500Y-68438393D01*
X72374500Y-68561607D01*
X72374500Y-68561609D01*
X72374499Y-68561609D01*
X72385079Y-68614792D01*
X72385079Y-68614797D01*
X72385080Y-68614797D01*
X72396718Y-68673312D01*
X72390489Y-68742903D01*
X72347625Y-68798079D01*
X72281734Y-68821322D01*
X72275100Y-68821500D01*
X71782453Y-68821500D01*
X71715414Y-68801815D01*
X71694772Y-68785181D01*
X69422785Y-66513195D01*
X69389300Y-66451872D01*
X69394283Y-66382182D01*
X69409091Y-66342483D01*
X69415500Y-66282873D01*
X69415499Y-65212850D01*
X69435183Y-65145813D01*
X69487987Y-65100058D01*
X69557146Y-65090114D01*
X69620702Y-65119139D01*
G37*
G04 #@! TD.AperFunction*
G04 #@! TA.AperFunction,Conductor*
G36*
X97202539Y-67495185D02*
G01*
X97248294Y-67547989D01*
X97259500Y-67599500D01*
X97259501Y-68025500D01*
X97239817Y-68092539D01*
X97187013Y-68138294D01*
X97135501Y-68149500D01*
X96782066Y-68149500D01*
X96747471Y-68144576D01*
X96717929Y-68135993D01*
X96670994Y-68122357D01*
X96670991Y-68122356D01*
X96634697Y-68119500D01*
X96634690Y-68119500D01*
X96165310Y-68119500D01*
X96165302Y-68119500D01*
X96129008Y-68122356D01*
X96129002Y-68122357D01*
X95973609Y-68167504D01*
X95973606Y-68167505D01*
X95834315Y-68249881D01*
X95834307Y-68249887D01*
X95719887Y-68364307D01*
X95719881Y-68364315D01*
X95637505Y-68503606D01*
X95637504Y-68503609D01*
X95592357Y-68659002D01*
X95592356Y-68659008D01*
X95589500Y-68695302D01*
X95589500Y-68697500D01*
X95569815Y-68764539D01*
X95517011Y-68810294D01*
X95465500Y-68821500D01*
X89982452Y-68821500D01*
X89915413Y-68801815D01*
X89869658Y-68749011D01*
X89859714Y-68679853D01*
X89888739Y-68616297D01*
X89894771Y-68609819D01*
X89942982Y-68561609D01*
X90147772Y-68356819D01*
X90209095Y-68323334D01*
X90235453Y-68320500D01*
X90294644Y-68320500D01*
X90294646Y-68320500D01*
X90479803Y-68281144D01*
X90652730Y-68204151D01*
X90805871Y-68092888D01*
X90853061Y-68040476D01*
X90912546Y-68003829D01*
X90969398Y-68001831D01*
X91027971Y-68013481D01*
X91088393Y-68025500D01*
X94036607Y-68025500D01*
X94097029Y-68013481D01*
X94157452Y-68001463D01*
X94157455Y-68001461D01*
X94157458Y-68001461D01*
X94190787Y-67987654D01*
X94190786Y-67987654D01*
X94190792Y-67987652D01*
X94271286Y-67954312D01*
X94335198Y-67911606D01*
X94373733Y-67885858D01*
X94460858Y-67798733D01*
X94460858Y-67798731D01*
X94471066Y-67788524D01*
X94471066Y-67788522D01*
X94747773Y-67511818D01*
X94809097Y-67478334D01*
X94835454Y-67475500D01*
X97135500Y-67475500D01*
X97202539Y-67495185D01*
G37*
G04 #@! TD.AperFunction*
G04 #@! TA.AperFunction,Conductor*
G36*
X94737884Y-58295185D02*
G01*
X94783639Y-58347989D01*
X94794845Y-58399500D01*
X94794845Y-59290599D01*
X94794540Y-59296425D01*
X94794540Y-59303590D01*
X94794845Y-59309401D01*
X94794845Y-62091170D01*
X94775160Y-62158209D01*
X94722356Y-62203964D01*
X94671598Y-62215168D01*
X91611210Y-62233754D01*
X91611190Y-62233755D01*
X91503261Y-62246088D01*
X91503255Y-62246089D01*
X91451559Y-62257727D01*
X91348738Y-62292844D01*
X91348735Y-62292846D01*
X91254935Y-62354248D01*
X91188063Y-62374496D01*
X91187021Y-62374500D01*
X90761606Y-62374500D01*
X90638393Y-62374500D01*
X90526834Y-62396690D01*
X90526833Y-62396689D01*
X90517551Y-62398536D01*
X90517545Y-62398538D01*
X90403716Y-62445687D01*
X90346243Y-62484090D01*
X90302387Y-62513394D01*
X90301642Y-62513891D01*
X90301264Y-62514144D01*
X90077541Y-62737868D01*
X89901269Y-62914140D01*
X89901267Y-62914142D01*
X89866500Y-62948909D01*
X89814142Y-63001266D01*
X89790528Y-63036608D01*
X89790527Y-63036609D01*
X89745690Y-63103709D01*
X89745687Y-63103715D01*
X89723281Y-63157809D01*
X89698912Y-63216644D01*
X89698892Y-63216692D01*
X89698536Y-63217548D01*
X89678465Y-63318453D01*
X89648999Y-63377232D01*
X89567466Y-63467785D01*
X89472821Y-63631715D01*
X89472818Y-63631722D01*
X89415304Y-63808733D01*
X89414326Y-63811744D01*
X89394540Y-64000000D01*
X89414326Y-64188256D01*
X89414327Y-64188259D01*
X89472818Y-64368277D01*
X89472821Y-64368284D01*
X89567467Y-64532216D01*
X89651195Y-64625205D01*
X89694129Y-64672888D01*
X89847265Y-64784148D01*
X89847270Y-64784151D01*
X90020192Y-64861142D01*
X90020197Y-64861144D01*
X90205354Y-64900500D01*
X90205355Y-64900500D01*
X90394644Y-64900500D01*
X90394646Y-64900500D01*
X90579803Y-64861144D01*
X90752730Y-64784151D01*
X90805292Y-64745961D01*
X90871097Y-64722482D01*
X90939151Y-64738307D01*
X90987846Y-64788412D01*
X91002172Y-64845237D01*
X91004066Y-65070452D01*
X91004325Y-65101292D01*
X91004326Y-65101309D01*
X91016315Y-65206570D01*
X91016316Y-65206571D01*
X91027514Y-65257026D01*
X91027517Y-65257037D01*
X91027519Y-65257045D01*
X91040793Y-65296648D01*
X91061191Y-65357506D01*
X91061192Y-65357507D01*
X91138973Y-65478537D01*
X91138982Y-65478548D01*
X91184726Y-65531340D01*
X91184729Y-65531343D01*
X91184733Y-65531347D01*
X91293467Y-65625567D01*
X91424344Y-65685338D01*
X91491383Y-65705023D01*
X91491387Y-65705024D01*
X91633803Y-65725500D01*
X92632537Y-65725500D01*
X92699576Y-65745185D01*
X92745331Y-65797989D01*
X92755857Y-65862460D01*
X92754540Y-65875000D01*
X92774326Y-66063256D01*
X92774327Y-66063259D01*
X92832818Y-66243277D01*
X92832821Y-66243284D01*
X92927467Y-66407216D01*
X93037108Y-66528984D01*
X93054129Y-66547888D01*
X93054132Y-66547890D01*
X93057287Y-66550183D01*
X93058670Y-66551977D01*
X93058958Y-66552236D01*
X93058910Y-66552288D01*
X93099953Y-66605513D01*
X93105931Y-66675127D01*
X93073324Y-66736921D01*
X93012485Y-66771278D01*
X92984401Y-66774500D01*
X91460452Y-66774500D01*
X91393413Y-66754815D01*
X91372771Y-66738181D01*
X84488017Y-59853427D01*
X84454532Y-59792104D01*
X84459516Y-59722412D01*
X84501388Y-59666479D01*
X84566852Y-59642062D01*
X84575698Y-59641746D01*
X85010784Y-59641746D01*
X85010787Y-59641746D01*
X85081367Y-59635332D01*
X85243777Y-59584724D01*
X85389356Y-59496718D01*
X85389360Y-59496714D01*
X85491490Y-59394585D01*
X85552813Y-59361100D01*
X85622505Y-59366084D01*
X85666852Y-59394585D01*
X85768982Y-59496715D01*
X85768984Y-59496716D01*
X85768986Y-59496718D01*
X85914565Y-59584724D01*
X86076975Y-59635332D01*
X86147555Y-59641746D01*
X86147558Y-59641746D01*
X86660784Y-59641746D01*
X86660787Y-59641746D01*
X86731367Y-59635332D01*
X86893777Y-59584724D01*
X87039356Y-59496718D01*
X87159643Y-59376431D01*
X87188078Y-59329392D01*
X87239605Y-59282206D01*
X87270003Y-59271926D01*
X87291206Y-59267709D01*
X87324546Y-59253898D01*
X87405040Y-59220558D01*
X87469406Y-59177549D01*
X87469407Y-59177549D01*
X87494618Y-59160702D01*
X87507487Y-59152104D01*
X87594612Y-59064979D01*
X87594613Y-59064976D01*
X87601679Y-59057911D01*
X87601681Y-59057907D01*
X88347771Y-58311819D01*
X88409094Y-58278334D01*
X88435452Y-58275500D01*
X94670845Y-58275500D01*
X94737884Y-58295185D01*
G37*
G04 #@! TD.AperFunction*
G04 #@! TA.AperFunction,Conductor*
G36*
X66545774Y-61737560D02*
G01*
X66604444Y-61775502D01*
X66633288Y-61839140D01*
X66634500Y-61856437D01*
X66634500Y-62221669D01*
X66634501Y-62221691D01*
X66637335Y-62257705D01*
X66682129Y-62411888D01*
X66682131Y-62411893D01*
X66763863Y-62550095D01*
X66763869Y-62550103D01*
X66877396Y-62663630D01*
X66877400Y-62663633D01*
X66877402Y-62663635D01*
X67015607Y-62745369D01*
X67033268Y-62750500D01*
X67169791Y-62790164D01*
X67169794Y-62790164D01*
X67169796Y-62790165D01*
X67205819Y-62793000D01*
X67289547Y-62792999D01*
X67356585Y-62812683D01*
X67377228Y-62829318D01*
X68353516Y-63805606D01*
X68353545Y-63805637D01*
X68370727Y-63822819D01*
X68404212Y-63884142D01*
X68399228Y-63953834D01*
X68357356Y-64009767D01*
X68291892Y-64034184D01*
X68283046Y-64034500D01*
X67167129Y-64034500D01*
X67167123Y-64034501D01*
X67107516Y-64040908D01*
X66972671Y-64091202D01*
X66972664Y-64091206D01*
X66857455Y-64177452D01*
X66857452Y-64177455D01*
X66771206Y-64292664D01*
X66771203Y-64292669D01*
X66722189Y-64424083D01*
X66680317Y-64480016D01*
X66614853Y-64504433D01*
X66546580Y-64489581D01*
X66518326Y-64468430D01*
X66396402Y-64346506D01*
X66396395Y-64346501D01*
X66202834Y-64210967D01*
X66202830Y-64210965D01*
X66154137Y-64188259D01*
X65988663Y-64111097D01*
X65988659Y-64111096D01*
X65988655Y-64111094D01*
X65760413Y-64049938D01*
X65760403Y-64049936D01*
X65525001Y-64029341D01*
X65524999Y-64029341D01*
X65289596Y-64049936D01*
X65289586Y-64049938D01*
X65061344Y-64111094D01*
X65061335Y-64111098D01*
X64847171Y-64210964D01*
X64847169Y-64210965D01*
X64653597Y-64346505D01*
X64486505Y-64513597D01*
X64356575Y-64699158D01*
X64301998Y-64742783D01*
X64232500Y-64749977D01*
X64170145Y-64718454D01*
X64153425Y-64699158D01*
X64023494Y-64513597D01*
X63856402Y-64346506D01*
X63856401Y-64346505D01*
X63663376Y-64211347D01*
X63619751Y-64156770D01*
X63610500Y-64109772D01*
X63610500Y-62865491D01*
X63630185Y-62798452D01*
X63682989Y-62752697D01*
X63752147Y-62742753D01*
X63807383Y-62765172D01*
X63835363Y-62785500D01*
X63847270Y-62794151D01*
X64020192Y-62871142D01*
X64020197Y-62871144D01*
X64205354Y-62910500D01*
X64205355Y-62910500D01*
X64394644Y-62910500D01*
X64394646Y-62910500D01*
X64579803Y-62871144D01*
X64752730Y-62794151D01*
X64752740Y-62794143D01*
X64757677Y-62791294D01*
X64825578Y-62774824D01*
X64854268Y-62779606D01*
X64864796Y-62782665D01*
X64900819Y-62785500D01*
X65399180Y-62785499D01*
X65435204Y-62782665D01*
X65589393Y-62737869D01*
X65727598Y-62656135D01*
X65841135Y-62542598D01*
X65922869Y-62404393D01*
X65959877Y-62277011D01*
X65967664Y-62250208D01*
X65967665Y-62250202D01*
X65967989Y-62246088D01*
X65970500Y-62214181D01*
X65970499Y-61891998D01*
X65990183Y-61824960D01*
X66042987Y-61779205D01*
X66094499Y-61767999D01*
X66344168Y-61767999D01*
X66344180Y-61767999D01*
X66380204Y-61765165D01*
X66475906Y-61737361D01*
X66545774Y-61737560D01*
G37*
G04 #@! TD.AperFunction*
G04 #@! TA.AperFunction,Conductor*
G36*
X73974222Y-59175018D02*
G01*
X74019140Y-59203730D01*
X74961016Y-60145606D01*
X74961045Y-60145637D01*
X75051264Y-60235856D01*
X75088465Y-60260713D01*
X75088466Y-60260713D01*
X75088467Y-60260714D01*
X75153714Y-60304312D01*
X75232902Y-60337112D01*
X75267548Y-60351463D01*
X75317330Y-60361365D01*
X75388390Y-60375499D01*
X75388392Y-60375500D01*
X75388393Y-60375500D01*
X75388394Y-60375500D01*
X75594735Y-60375500D01*
X75661774Y-60395185D01*
X75700272Y-60434401D01*
X75713219Y-60455391D01*
X75713220Y-60455392D01*
X75832108Y-60574280D01*
X75832112Y-60574283D01*
X75975204Y-60662544D01*
X75975207Y-60662545D01*
X75975213Y-60662549D01*
X76134815Y-60715436D01*
X76233326Y-60725500D01*
X76539548Y-60725500D01*
X76606587Y-60745185D01*
X76627229Y-60761819D01*
X76984016Y-61118606D01*
X76984045Y-61118637D01*
X77074264Y-61208856D01*
X77074267Y-61208858D01*
X77081887Y-61213949D01*
X77126694Y-61267558D01*
X77137000Y-61317053D01*
X77137000Y-61754183D01*
X77142999Y-61812898D01*
X77130230Y-61881591D01*
X77082349Y-61932475D01*
X77019641Y-61949500D01*
X73038339Y-61949500D01*
X72971300Y-61929815D01*
X72925545Y-61877011D01*
X72915601Y-61807853D01*
X72920408Y-61787182D01*
X72936531Y-61737560D01*
X72960674Y-61663256D01*
X72980460Y-61475000D01*
X72960674Y-61286744D01*
X72902179Y-61106716D01*
X72807533Y-60942784D01*
X72743593Y-60871771D01*
X72732350Y-60859284D01*
X72702120Y-60796292D01*
X72700500Y-60776312D01*
X72700500Y-60235452D01*
X72720185Y-60168413D01*
X72736819Y-60147771D01*
X72872771Y-60011819D01*
X72934094Y-59978334D01*
X72960452Y-59975500D01*
X73019644Y-59975500D01*
X73019646Y-59975500D01*
X73204803Y-59936144D01*
X73377730Y-59859151D01*
X73530871Y-59747888D01*
X73657533Y-59607216D01*
X73752179Y-59443284D01*
X73810674Y-59263256D01*
X73810674Y-59263255D01*
X73812682Y-59257076D01*
X73814476Y-59257659D01*
X73843349Y-59204161D01*
X73904507Y-59170376D01*
X73974222Y-59175018D01*
G37*
G04 #@! TD.AperFunction*
G04 #@! TA.AperFunction,Conductor*
G36*
X72095125Y-58475185D02*
G01*
X72140880Y-58527989D01*
X72150824Y-58597147D01*
X72135474Y-58641498D01*
X72120647Y-58667181D01*
X72097820Y-58706718D01*
X72097818Y-58706722D01*
X72040582Y-58882877D01*
X72039326Y-58886744D01*
X72024015Y-59032422D01*
X72021679Y-59054650D01*
X71995094Y-59119264D01*
X71986039Y-59129369D01*
X71824810Y-59290599D01*
X71676269Y-59439140D01*
X71676267Y-59439142D01*
X71632704Y-59482704D01*
X71589142Y-59526266D01*
X71573137Y-59550219D01*
X71557240Y-59574012D01*
X71550083Y-59584723D01*
X71520688Y-59628712D01*
X71505046Y-59666479D01*
X71493587Y-59694143D01*
X71473537Y-59742548D01*
X71473536Y-59742551D01*
X71473536Y-59742552D01*
X71471798Y-59751285D01*
X71471799Y-59751286D01*
X71451423Y-59853728D01*
X71449500Y-59863394D01*
X71449500Y-60776312D01*
X71429815Y-60843351D01*
X71417651Y-60859283D01*
X71394323Y-60885192D01*
X71334837Y-60921841D01*
X71264980Y-60920512D01*
X71214491Y-60889902D01*
X68991770Y-58667181D01*
X68958285Y-58605858D01*
X68963269Y-58536166D01*
X69005141Y-58480233D01*
X69070605Y-58455816D01*
X69079451Y-58455500D01*
X72028086Y-58455500D01*
X72095125Y-58475185D01*
G37*
G04 #@! TD.AperFunction*
G04 #@! TA.AperFunction,Conductor*
G36*
X81322380Y-53852938D02*
G01*
X81365596Y-53907839D01*
X81374500Y-53953979D01*
X81374500Y-58311606D01*
X81379472Y-58336605D01*
X81385782Y-58368331D01*
X81379553Y-58437923D01*
X81336689Y-58493099D01*
X81314601Y-58505799D01*
X81157267Y-58575850D01*
X81157265Y-58575851D01*
X81004129Y-58687111D01*
X80877467Y-58827783D01*
X80849644Y-58875974D01*
X80799076Y-58924189D01*
X80730469Y-58937411D01*
X80707662Y-58933049D01*
X80705209Y-58932336D01*
X80705205Y-58932335D01*
X80705204Y-58932335D01*
X80705202Y-58932334D01*
X80705197Y-58932334D01*
X80669181Y-58929500D01*
X80270830Y-58929500D01*
X80270808Y-58929501D01*
X80234794Y-58932335D01*
X80080611Y-58977129D01*
X80080604Y-58977132D01*
X80023119Y-59011128D01*
X79955395Y-59028309D01*
X79896881Y-59011128D01*
X79839395Y-58977132D01*
X79839388Y-58977129D01*
X79685208Y-58932335D01*
X79685202Y-58932334D01*
X79649181Y-58929500D01*
X79250830Y-58929500D01*
X79250808Y-58929501D01*
X79214794Y-58932335D01*
X79060611Y-58977129D01*
X79060608Y-58977130D01*
X78976055Y-59027134D01*
X78908331Y-59044315D01*
X78842068Y-59022155D01*
X78825254Y-59008082D01*
X78742891Y-58925719D01*
X78742887Y-58925716D01*
X78599795Y-58837455D01*
X78599788Y-58837452D01*
X78599787Y-58837451D01*
X78599784Y-58837450D01*
X78599782Y-58837449D01*
X78585824Y-58832824D01*
X78528380Y-58793050D01*
X78501559Y-58728533D01*
X78513875Y-58659758D01*
X78537147Y-58627441D01*
X79100229Y-58064360D01*
X79100233Y-58064358D01*
X79187358Y-57977233D01*
X79239966Y-57898500D01*
X79255812Y-57874785D01*
X79289670Y-57793044D01*
X79302963Y-57760952D01*
X79306732Y-57742004D01*
X79318127Y-57684721D01*
X79327000Y-57640107D01*
X79327000Y-57091465D01*
X79346685Y-57024426D01*
X79399489Y-56978671D01*
X79468647Y-56968727D01*
X79476759Y-56970170D01*
X79525354Y-56980500D01*
X79525356Y-56980500D01*
X79714644Y-56980500D01*
X79714646Y-56980500D01*
X79899803Y-56941144D01*
X80072730Y-56864151D01*
X80225871Y-56752888D01*
X80352533Y-56612216D01*
X80447179Y-56448284D01*
X80505674Y-56268256D01*
X80525460Y-56080000D01*
X80505674Y-55891744D01*
X80447179Y-55711716D01*
X80352533Y-55547784D01*
X80225871Y-55407112D01*
X80225870Y-55407111D01*
X80072734Y-55295851D01*
X80072729Y-55295848D01*
X79899807Y-55218857D01*
X79899802Y-55218855D01*
X79773719Y-55192056D01*
X79712237Y-55158864D01*
X79678461Y-55097701D01*
X79675500Y-55070766D01*
X79675500Y-54913392D01*
X79672882Y-54900232D01*
X79670499Y-54876039D01*
X79670499Y-54477129D01*
X79670498Y-54477123D01*
X79664091Y-54417516D01*
X79613797Y-54282671D01*
X79613795Y-54282668D01*
X79588450Y-54248811D01*
X79564033Y-54183346D01*
X79578885Y-54115074D01*
X79628290Y-54065668D01*
X79687717Y-54050500D01*
X80436607Y-54050500D01*
X80497029Y-54038481D01*
X80557452Y-54026463D01*
X80597009Y-54010078D01*
X80671286Y-53979312D01*
X80671290Y-53979308D01*
X80676659Y-53976440D01*
X80677710Y-53978406D01*
X80734855Y-53960520D01*
X80737056Y-53960500D01*
X80834644Y-53960500D01*
X80834646Y-53960500D01*
X81019803Y-53921144D01*
X81192730Y-53844151D01*
X81192730Y-53844150D01*
X81198666Y-53841508D01*
X81199722Y-53843880D01*
X81256343Y-53830117D01*
X81322380Y-53852938D01*
G37*
G04 #@! TD.AperFunction*
G04 #@! TA.AperFunction,Conductor*
G36*
X65927514Y-55064501D02*
G01*
X65927674Y-55063905D01*
X65935524Y-55066008D01*
X65935526Y-55066008D01*
X65935528Y-55066009D01*
X66045599Y-55080500D01*
X66244400Y-55080499D01*
X66257039Y-55078835D01*
X66326073Y-55089600D01*
X66378329Y-55135980D01*
X66397215Y-55203249D01*
X66396164Y-55217952D01*
X66394500Y-55230596D01*
X66394500Y-55429403D01*
X66408989Y-55539468D01*
X66411094Y-55547322D01*
X66407814Y-55548200D01*
X66413581Y-55602073D01*
X66410517Y-55612522D01*
X66411095Y-55612677D01*
X66408990Y-55620529D01*
X66394500Y-55730598D01*
X66394500Y-55929403D01*
X66408988Y-56039463D01*
X66408991Y-56039472D01*
X66465719Y-56176426D01*
X66465721Y-56176429D01*
X66525637Y-56254514D01*
X66550831Y-56319683D01*
X66536792Y-56388128D01*
X66525637Y-56405486D01*
X66465721Y-56483570D01*
X66465719Y-56483573D01*
X66408991Y-56620527D01*
X66408990Y-56620529D01*
X66394500Y-56730598D01*
X66394500Y-56929403D01*
X66408988Y-57039463D01*
X66408991Y-57039472D01*
X66465719Y-57176426D01*
X66465721Y-57176429D01*
X66525637Y-57254514D01*
X66550831Y-57319683D01*
X66536792Y-57388128D01*
X66525637Y-57405486D01*
X66465721Y-57483570D01*
X66465719Y-57483573D01*
X66408991Y-57620527D01*
X66408990Y-57620529D01*
X66394500Y-57730598D01*
X66394500Y-57929400D01*
X66396165Y-57942045D01*
X66385396Y-58011080D01*
X66339013Y-58063333D01*
X66271743Y-58082215D01*
X66257046Y-58081164D01*
X66244401Y-58079500D01*
X66045596Y-58079500D01*
X65935531Y-58093989D01*
X65927678Y-58096094D01*
X65926802Y-58092824D01*
X65872853Y-58098567D01*
X65862477Y-58095518D01*
X65862323Y-58096095D01*
X65854470Y-58093990D01*
X65744401Y-58079500D01*
X65545596Y-58079500D01*
X65435531Y-58093989D01*
X65427678Y-58096094D01*
X65426802Y-58092824D01*
X65372853Y-58098567D01*
X65362477Y-58095518D01*
X65362323Y-58096095D01*
X65354470Y-58093990D01*
X65244401Y-58079500D01*
X65045596Y-58079500D01*
X64935531Y-58093989D01*
X64927678Y-58096094D01*
X64926802Y-58092824D01*
X64872853Y-58098567D01*
X64862477Y-58095518D01*
X64862323Y-58096095D01*
X64854470Y-58093990D01*
X64744401Y-58079500D01*
X64545596Y-58079500D01*
X64435531Y-58093989D01*
X64427678Y-58096094D01*
X64426802Y-58092824D01*
X64372853Y-58098567D01*
X64362477Y-58095518D01*
X64362323Y-58096095D01*
X64354470Y-58093990D01*
X64244401Y-58079500D01*
X64045596Y-58079500D01*
X63935531Y-58093989D01*
X63927678Y-58096094D01*
X63926802Y-58092824D01*
X63872853Y-58098567D01*
X63862477Y-58095518D01*
X63862323Y-58096095D01*
X63854470Y-58093990D01*
X63744401Y-58079500D01*
X63545598Y-58079500D01*
X63532953Y-58081165D01*
X63463918Y-58070395D01*
X63411665Y-58024012D01*
X63392784Y-57956742D01*
X63393836Y-57942039D01*
X63395500Y-57929401D01*
X63395499Y-57730600D01*
X63381009Y-57620528D01*
X63381008Y-57620525D01*
X63378905Y-57612674D01*
X63382207Y-57611789D01*
X63376392Y-57558075D01*
X63379501Y-57547485D01*
X63378905Y-57547326D01*
X63381008Y-57539475D01*
X63381008Y-57539474D01*
X63381009Y-57539472D01*
X63395500Y-57429401D01*
X63395499Y-57230600D01*
X63395499Y-57230596D01*
X63381011Y-57120536D01*
X63381009Y-57120531D01*
X63381009Y-57120528D01*
X63324279Y-56983571D01*
X63264360Y-56905484D01*
X63239168Y-56840318D01*
X63253206Y-56771873D01*
X63264356Y-56754521D01*
X63324279Y-56676429D01*
X63381009Y-56539472D01*
X63395500Y-56429401D01*
X63395499Y-56230600D01*
X63393557Y-56215851D01*
X63388155Y-56174815D01*
X63381009Y-56120528D01*
X63381008Y-56120525D01*
X63378905Y-56112674D01*
X63382207Y-56111789D01*
X63376392Y-56058075D01*
X63379501Y-56047485D01*
X63378905Y-56047326D01*
X63381008Y-56039475D01*
X63381008Y-56039474D01*
X63381009Y-56039472D01*
X63395500Y-55929401D01*
X63395499Y-55730600D01*
X63381009Y-55620528D01*
X63381008Y-55620525D01*
X63378905Y-55612674D01*
X63382207Y-55611789D01*
X63376392Y-55558075D01*
X63379501Y-55547485D01*
X63378905Y-55547326D01*
X63381008Y-55539475D01*
X63381008Y-55539474D01*
X63381009Y-55539472D01*
X63395500Y-55429401D01*
X63395499Y-55230600D01*
X63395498Y-55230596D01*
X63393835Y-55217960D01*
X63404601Y-55148925D01*
X63450981Y-55096669D01*
X63518249Y-55077784D01*
X63532959Y-55078836D01*
X63533945Y-55078965D01*
X63545599Y-55080500D01*
X63744400Y-55080499D01*
X63744401Y-55080499D01*
X63765024Y-55077784D01*
X63854472Y-55066009D01*
X63854475Y-55066007D01*
X63862326Y-55063905D01*
X63863210Y-55067207D01*
X63916925Y-55061392D01*
X63927514Y-55064501D01*
X63927674Y-55063905D01*
X63935524Y-55066008D01*
X63935526Y-55066008D01*
X63935528Y-55066009D01*
X64045599Y-55080500D01*
X64244400Y-55080499D01*
X64244401Y-55080499D01*
X64265024Y-55077784D01*
X64354472Y-55066009D01*
X64354475Y-55066007D01*
X64362326Y-55063905D01*
X64363210Y-55067207D01*
X64416925Y-55061392D01*
X64427514Y-55064501D01*
X64427674Y-55063905D01*
X64435524Y-55066008D01*
X64435526Y-55066008D01*
X64435528Y-55066009D01*
X64545599Y-55080500D01*
X64744400Y-55080499D01*
X64744401Y-55080499D01*
X64765024Y-55077784D01*
X64854472Y-55066009D01*
X64854475Y-55066007D01*
X64862326Y-55063905D01*
X64863210Y-55067207D01*
X64916925Y-55061392D01*
X64927514Y-55064501D01*
X64927674Y-55063905D01*
X64935524Y-55066008D01*
X64935526Y-55066008D01*
X64935528Y-55066009D01*
X65045599Y-55080500D01*
X65244400Y-55080499D01*
X65244401Y-55080499D01*
X65265024Y-55077784D01*
X65354472Y-55066009D01*
X65354475Y-55066007D01*
X65362326Y-55063905D01*
X65363210Y-55067207D01*
X65416925Y-55061392D01*
X65427514Y-55064501D01*
X65427674Y-55063905D01*
X65435524Y-55066008D01*
X65435526Y-55066008D01*
X65435528Y-55066009D01*
X65545599Y-55080500D01*
X65744400Y-55080499D01*
X65744401Y-55080499D01*
X65765024Y-55077784D01*
X65854472Y-55066009D01*
X65854475Y-55066007D01*
X65862326Y-55063905D01*
X65863210Y-55067207D01*
X65916925Y-55061392D01*
X65927514Y-55064501D01*
G37*
G04 #@! TD.AperFunction*
G04 #@! TA.AperFunction,Conductor*
G36*
X59523257Y-56219426D02*
G01*
X59575354Y-56230500D01*
X59575356Y-56230500D01*
X59717912Y-56230500D01*
X59784951Y-56250185D01*
X59830706Y-56302989D01*
X59836988Y-56319904D01*
X59842504Y-56338891D01*
X59842505Y-56338893D01*
X59924881Y-56478184D01*
X59924887Y-56478192D01*
X60039307Y-56592612D01*
X60039311Y-56592615D01*
X60039313Y-56592617D01*
X60178605Y-56674994D01*
X60219587Y-56686900D01*
X60334002Y-56720142D01*
X60334005Y-56720142D01*
X60334007Y-56720143D01*
X60370310Y-56723000D01*
X60370318Y-56723000D01*
X60839682Y-56723000D01*
X60839690Y-56723000D01*
X60854896Y-56721803D01*
X60923272Y-56736167D01*
X60973030Y-56785218D01*
X60988369Y-56853383D01*
X60964421Y-56919020D01*
X60952306Y-56933102D01*
X60602448Y-57282960D01*
X60541125Y-57316445D01*
X60471433Y-57311461D01*
X60441882Y-57295597D01*
X60344060Y-57224525D01*
X60344055Y-57224522D01*
X60171133Y-57147531D01*
X60171128Y-57147529D01*
X60025327Y-57116539D01*
X59985972Y-57108174D01*
X59796680Y-57108174D01*
X59764223Y-57115072D01*
X59611523Y-57147529D01*
X59547935Y-57175841D01*
X59478685Y-57185125D01*
X59415409Y-57155497D01*
X59378196Y-57096361D01*
X59373500Y-57062561D01*
X59373500Y-56340721D01*
X59393185Y-56273682D01*
X59445989Y-56227927D01*
X59515147Y-56217983D01*
X59523257Y-56219426D01*
G37*
G04 #@! TD.AperFunction*
G04 #@! TA.AperFunction,Conductor*
G36*
X109213235Y-54702528D02*
G01*
X109280067Y-54722902D01*
X109325275Y-54776175D01*
X109335954Y-54825835D01*
X109345628Y-56573836D01*
X109326315Y-56640983D01*
X109273765Y-56687030D01*
X109221503Y-56698521D01*
X105269293Y-56694451D01*
X101239371Y-56690300D01*
X101172352Y-56670546D01*
X101126652Y-56617695D01*
X101115499Y-56566304D01*
X101115499Y-56075820D01*
X101112665Y-56039796D01*
X101105223Y-56014180D01*
X101100423Y-55997656D01*
X101095500Y-55963064D01*
X101095500Y-55579142D01*
X101100424Y-55544546D01*
X101117665Y-55485204D01*
X101120500Y-55449181D01*
X101120499Y-54950820D01*
X101117665Y-54914796D01*
X101078074Y-54778522D01*
X101078273Y-54708655D01*
X101116215Y-54649985D01*
X101179853Y-54621141D01*
X101198427Y-54619936D01*
X109213235Y-54702528D01*
G37*
G04 #@! TD.AperFunction*
G04 #@! TA.AperFunction,Conductor*
G36*
X74002586Y-51725185D02*
G01*
X74048341Y-51777989D01*
X74058285Y-51847147D01*
X74029260Y-51910703D01*
X74023241Y-51917167D01*
X73961863Y-51978546D01*
X73902227Y-52038182D01*
X73840904Y-52071666D01*
X73814546Y-52074500D01*
X73501663Y-52074500D01*
X73501644Y-52074501D01*
X73402292Y-52084650D01*
X73402289Y-52084651D01*
X73241305Y-52137996D01*
X73241294Y-52138001D01*
X73096959Y-52227029D01*
X73096955Y-52227032D01*
X72977032Y-52346955D01*
X72977029Y-52346959D01*
X72888001Y-52491294D01*
X72887996Y-52491305D01*
X72834651Y-52652290D01*
X72824500Y-52751647D01*
X72824500Y-53298337D01*
X72824501Y-53298355D01*
X72834650Y-53397707D01*
X72834651Y-53397710D01*
X72887996Y-53558694D01*
X72888001Y-53558705D01*
X72977029Y-53703040D01*
X72977032Y-53703044D01*
X73096955Y-53822967D01*
X73096959Y-53822970D01*
X73241294Y-53911998D01*
X73241297Y-53911999D01*
X73241303Y-53912003D01*
X73402292Y-53965349D01*
X73501655Y-53975500D01*
X73869845Y-53975499D01*
X73917298Y-53984938D01*
X73949217Y-53998159D01*
X74017548Y-54026463D01*
X74113251Y-54045499D01*
X74138388Y-54050499D01*
X74138392Y-54050500D01*
X74138393Y-54050500D01*
X74138394Y-54050500D01*
X74220157Y-54050500D01*
X74287196Y-54070185D01*
X74332951Y-54122989D01*
X74343477Y-54161535D01*
X74354326Y-54264756D01*
X74354327Y-54264759D01*
X74412818Y-54444777D01*
X74412821Y-54444784D01*
X74507467Y-54608716D01*
X74572801Y-54681276D01*
X74634129Y-54749388D01*
X74787265Y-54860648D01*
X74787270Y-54860651D01*
X74960192Y-54937642D01*
X74960197Y-54937644D01*
X75145354Y-54977000D01*
X75145355Y-54977000D01*
X75334644Y-54977000D01*
X75334646Y-54977000D01*
X75519803Y-54937644D01*
X75692730Y-54860651D01*
X75845871Y-54749388D01*
X75972533Y-54608716D01*
X75972534Y-54608712D01*
X75976355Y-54603456D01*
X75978326Y-54604888D01*
X76020932Y-54564276D01*
X76077736Y-54550500D01*
X76305500Y-54550500D01*
X76372539Y-54570185D01*
X76418294Y-54622989D01*
X76429500Y-54674500D01*
X76429500Y-54876042D01*
X76427118Y-54900228D01*
X76424500Y-54913389D01*
X76424500Y-55249548D01*
X76404815Y-55316587D01*
X76388181Y-55337229D01*
X75567229Y-56158181D01*
X75505906Y-56191666D01*
X75479548Y-56194500D01*
X73780452Y-56194500D01*
X73713413Y-56174815D01*
X73692771Y-56158181D01*
X71421819Y-53887229D01*
X71388334Y-53825906D01*
X71385500Y-53799548D01*
X71385500Y-52328687D01*
X71405185Y-52261648D01*
X71417350Y-52245715D01*
X71435891Y-52225122D01*
X71492533Y-52162216D01*
X71587179Y-51998284D01*
X71645674Y-51818256D01*
X71645855Y-51816535D01*
X71646236Y-51815607D01*
X71647024Y-51811903D01*
X71647701Y-51812047D01*
X71672441Y-51751921D01*
X71729739Y-51711938D01*
X71769175Y-51705500D01*
X73935547Y-51705500D01*
X74002586Y-51725185D01*
G37*
G04 #@! TD.AperFunction*
G04 #@! TA.AperFunction,Conductor*
G36*
X97324227Y-54820185D02*
G01*
X97369982Y-54872989D01*
X97380805Y-54934228D01*
X97379500Y-54950819D01*
X97379500Y-55192056D01*
X97379501Y-55395500D01*
X97359817Y-55462539D01*
X97307013Y-55508294D01*
X97255501Y-55519500D01*
X96915302Y-55519500D01*
X96879008Y-55522356D01*
X96879002Y-55522357D01*
X96723609Y-55567504D01*
X96723606Y-55567505D01*
X96584315Y-55649881D01*
X96584307Y-55649887D01*
X96469887Y-55764307D01*
X96469881Y-55764315D01*
X96387505Y-55903606D01*
X96387504Y-55903607D01*
X96355380Y-56014180D01*
X96317774Y-56073065D01*
X96254301Y-56102271D01*
X96210528Y-56100875D01*
X96194647Y-56097500D01*
X96194646Y-56097500D01*
X96119475Y-56097500D01*
X96052436Y-56077815D01*
X96006681Y-56025011D01*
X95996154Y-55986465D01*
X95985674Y-55886744D01*
X95930703Y-55717564D01*
X95928709Y-55647724D01*
X95960952Y-55591568D01*
X96715704Y-54836819D01*
X96777027Y-54803334D01*
X96803385Y-54800500D01*
X97257188Y-54800500D01*
X97324227Y-54820185D01*
G37*
G04 #@! TD.AperFunction*
G04 #@! TA.AperFunction,Conductor*
G36*
X73145832Y-47391947D02*
G01*
X73251303Y-47457003D01*
X73412292Y-47510349D01*
X73511655Y-47520500D01*
X73824547Y-47520499D01*
X73891586Y-47540183D01*
X73912228Y-47556818D01*
X73981016Y-47625606D01*
X73981045Y-47625637D01*
X74071262Y-47715854D01*
X74071265Y-47715856D01*
X74071267Y-47715858D01*
X74136232Y-47759266D01*
X74173715Y-47784312D01*
X74173716Y-47784313D01*
X74192722Y-47792185D01*
X74224521Y-47805356D01*
X74224522Y-47805357D01*
X74224523Y-47805357D01*
X74287548Y-47831463D01*
X74321841Y-47838284D01*
X74408391Y-47855499D01*
X74408392Y-47855500D01*
X74408393Y-47855500D01*
X74408394Y-47855500D01*
X75111109Y-47855500D01*
X75178148Y-47875185D01*
X75223903Y-47927989D01*
X75233847Y-47997147D01*
X75204822Y-48060703D01*
X75161545Y-48092779D01*
X75087270Y-48125848D01*
X75087265Y-48125851D01*
X74934129Y-48237111D01*
X74807466Y-48377785D01*
X74712821Y-48541715D01*
X74712818Y-48541722D01*
X74664214Y-48691312D01*
X74654326Y-48721744D01*
X74634540Y-48910000D01*
X74654326Y-49098256D01*
X74654327Y-49098259D01*
X74712818Y-49278277D01*
X74712821Y-49278284D01*
X74807467Y-49442216D01*
X74839637Y-49477944D01*
X74882650Y-49525715D01*
X74912880Y-49588706D01*
X74914500Y-49608687D01*
X74914500Y-49829548D01*
X74894815Y-49896587D01*
X74878181Y-49917229D01*
X74377229Y-50418181D01*
X74315906Y-50451666D01*
X74289548Y-50454500D01*
X71248388Y-50454500D01*
X71127555Y-50478535D01*
X71127547Y-50478537D01*
X71013715Y-50525688D01*
X71013711Y-50525690D01*
X70911752Y-50593816D01*
X70911753Y-50593817D01*
X70911268Y-50594140D01*
X70911267Y-50594142D01*
X70812228Y-50693181D01*
X70750905Y-50726666D01*
X70724547Y-50729500D01*
X70665354Y-50729500D01*
X70632897Y-50736398D01*
X70480197Y-50768855D01*
X70480192Y-50768857D01*
X70307270Y-50845848D01*
X70307265Y-50845851D01*
X70154129Y-50957111D01*
X70027466Y-51097785D01*
X69964595Y-51206682D01*
X69934396Y-51258989D01*
X69932824Y-51261711D01*
X69932818Y-51261722D01*
X69891358Y-51389325D01*
X69874326Y-51441744D01*
X69854540Y-51630000D01*
X69874326Y-51818256D01*
X69874327Y-51818259D01*
X69932818Y-51998277D01*
X69932821Y-51998284D01*
X70027467Y-52162216D01*
X70047323Y-52184268D01*
X70102650Y-52245715D01*
X70132880Y-52308706D01*
X70134500Y-52328687D01*
X70134500Y-54171606D01*
X70140946Y-54204016D01*
X70147417Y-54236551D01*
X70141188Y-54306142D01*
X70098324Y-54361319D01*
X70032434Y-54384562D01*
X69986795Y-54378446D01*
X69952709Y-54367151D01*
X69853352Y-54357000D01*
X69276500Y-54357000D01*
X69209461Y-54337315D01*
X69163706Y-54284511D01*
X69152500Y-54233000D01*
X69152500Y-52432237D01*
X69150611Y-52422740D01*
X69134873Y-52343614D01*
X69134873Y-52343613D01*
X69128464Y-52311394D01*
X69128463Y-52311393D01*
X69128463Y-52311389D01*
X69103700Y-52251606D01*
X69093521Y-52227032D01*
X69081314Y-52197560D01*
X69081313Y-52197558D01*
X69081312Y-52197556D01*
X69052416Y-52154311D01*
X69012858Y-52095108D01*
X69012856Y-52095105D01*
X68922637Y-52004886D01*
X68922606Y-52004857D01*
X68861819Y-51944070D01*
X68828334Y-51882747D01*
X68825500Y-51856389D01*
X68825500Y-48574499D01*
X68845185Y-48507460D01*
X68897989Y-48461705D01*
X68949500Y-48450499D01*
X70047871Y-48450499D01*
X70047872Y-48450499D01*
X70107483Y-48444091D01*
X70242331Y-48393796D01*
X70357546Y-48307546D01*
X70443796Y-48192331D01*
X70447960Y-48181165D01*
X70489829Y-48125234D01*
X70555293Y-48100816D01*
X70564141Y-48100500D01*
X70666284Y-48100500D01*
X70733323Y-48120185D01*
X70779078Y-48172989D01*
X70789902Y-48214772D01*
X70792358Y-48245991D01*
X70792359Y-48245997D01*
X70837506Y-48401390D01*
X70837507Y-48401393D01*
X70919883Y-48540684D01*
X70919889Y-48540692D01*
X71034309Y-48655112D01*
X71034313Y-48655115D01*
X71034315Y-48655117D01*
X71173607Y-48737494D01*
X71178488Y-48738912D01*
X71329004Y-48782642D01*
X71329007Y-48782642D01*
X71329009Y-48782643D01*
X71365312Y-48785500D01*
X71365320Y-48785500D01*
X71834684Y-48785500D01*
X71834692Y-48785500D01*
X71870995Y-48782643D01*
X71870997Y-48782642D01*
X71870999Y-48782642D01*
X71939590Y-48762714D01*
X72026397Y-48737494D01*
X72165689Y-48655117D01*
X72280119Y-48540687D01*
X72362496Y-48401395D01*
X72399286Y-48274766D01*
X72407644Y-48245997D01*
X72407645Y-48245991D01*
X72408344Y-48237111D01*
X72410502Y-48209690D01*
X72410502Y-47800310D01*
X72407645Y-47764007D01*
X72407023Y-47761867D01*
X72362497Y-47608609D01*
X72362496Y-47608605D01*
X72362493Y-47608600D01*
X72359399Y-47601449D01*
X72362285Y-47600199D01*
X72348679Y-47546573D01*
X72370839Y-47480311D01*
X72425305Y-47436547D01*
X72494785Y-47429178D01*
X72498332Y-47429877D01*
X72595354Y-47450500D01*
X72595355Y-47450500D01*
X72784644Y-47450500D01*
X72784646Y-47450500D01*
X72969803Y-47411144D01*
X73030300Y-47384207D01*
X73099547Y-47374921D01*
X73145832Y-47391947D01*
G37*
G04 #@! TD.AperFunction*
G04 #@! TA.AperFunction,Conductor*
G36*
X61369587Y-51833185D02*
G01*
X61390229Y-51849819D01*
X61526481Y-51986071D01*
X61559966Y-52047394D01*
X61562800Y-52073752D01*
X61562800Y-52586915D01*
X61543115Y-52653954D01*
X61530950Y-52669887D01*
X61455766Y-52753387D01*
X61361121Y-52917318D01*
X61361118Y-52917325D01*
X61316607Y-53054318D01*
X61277170Y-53111994D01*
X61212811Y-53139192D01*
X61198676Y-53140000D01*
X59722893Y-53140000D01*
X59696055Y-53145338D01*
X59696054Y-53145337D01*
X59602055Y-53164035D01*
X59602045Y-53164038D01*
X59488216Y-53211187D01*
X59391639Y-53275719D01*
X59391637Y-53275720D01*
X59385769Y-53279640D01*
X59385764Y-53279644D01*
X59207181Y-53458228D01*
X59145858Y-53491713D01*
X59076166Y-53486729D01*
X59020233Y-53444857D01*
X58995816Y-53379393D01*
X58995500Y-53370547D01*
X58995500Y-52590452D01*
X59015185Y-52523413D01*
X59031819Y-52502771D01*
X59684771Y-51849819D01*
X59746094Y-51816334D01*
X59772452Y-51813500D01*
X61302548Y-51813500D01*
X61369587Y-51833185D01*
G37*
G04 #@! TD.AperFunction*
G04 #@! TA.AperFunction,Conductor*
G36*
X47373264Y-50142709D02*
G01*
X47428988Y-50154553D01*
X47453642Y-50162564D01*
X47462467Y-50166493D01*
X47505677Y-50185731D01*
X47528117Y-50198686D01*
X47574227Y-50232186D01*
X47593483Y-50249525D01*
X47616200Y-50274755D01*
X47631599Y-50291857D01*
X47646836Y-50312829D01*
X47675320Y-50362165D01*
X47685864Y-50385847D01*
X47703468Y-50440027D01*
X47708858Y-50465382D01*
X47719592Y-50567508D01*
X47723241Y-50594967D01*
X47725392Y-50608340D01*
X47730524Y-50635490D01*
X47730525Y-50635491D01*
X47730526Y-50635494D01*
X47730527Y-50635498D01*
X47764920Y-50727708D01*
X47780118Y-50768456D01*
X47780809Y-50770307D01*
X47814294Y-50831630D01*
X47900518Y-50946811D01*
X47900522Y-50946815D01*
X47900527Y-50946821D01*
X48104122Y-51150415D01*
X48284130Y-51330423D01*
X48284146Y-51330437D01*
X48284153Y-51330444D01*
X48324371Y-51366571D01*
X48324383Y-51366581D01*
X48324391Y-51366588D01*
X48339669Y-51378900D01*
X48345034Y-51383223D01*
X48352205Y-51388394D01*
X48388917Y-51414867D01*
X48519794Y-51474638D01*
X48586833Y-51494323D01*
X48586837Y-51494324D01*
X48729253Y-51514800D01*
X48729256Y-51514800D01*
X49221200Y-51514800D01*
X49288239Y-51534485D01*
X49333994Y-51587289D01*
X49345200Y-51638800D01*
X49345200Y-52041199D01*
X49325515Y-52108238D01*
X49272711Y-52153993D01*
X49221200Y-52165199D01*
X48524826Y-52165199D01*
X48457787Y-52145514D01*
X48447951Y-52138493D01*
X48426595Y-52121619D01*
X48422181Y-52117962D01*
X48421639Y-52117492D01*
X48421636Y-52117490D01*
X48421355Y-52117246D01*
X48416442Y-52113598D01*
X48394739Y-52096451D01*
X48394725Y-52096440D01*
X48392810Y-52094926D01*
X48392798Y-52094918D01*
X48385812Y-52089398D01*
X48323408Y-52052083D01*
X48273555Y-52022273D01*
X48273553Y-52022272D01*
X48273551Y-52022271D01*
X48134752Y-51984397D01*
X48065414Y-51975784D01*
X47921567Y-51978546D01*
X47784318Y-52021724D01*
X47766520Y-52030269D01*
X47766087Y-52030339D01*
X47721082Y-52052083D01*
X47720809Y-52052215D01*
X47704099Y-52060237D01*
X47700509Y-52065230D01*
X47682157Y-52077084D01*
X47679882Y-52078284D01*
X47677699Y-52079436D01*
X47666438Y-52081715D01*
X47644653Y-52097543D01*
X47643205Y-52098595D01*
X47601723Y-52128726D01*
X47601658Y-52128779D01*
X47543127Y-52171304D01*
X47520677Y-52184266D01*
X47468638Y-52207435D01*
X47443986Y-52215445D01*
X47406790Y-52223352D01*
X47388263Y-52227290D01*
X47362482Y-52230000D01*
X47305516Y-52230000D01*
X47279736Y-52227290D01*
X47257984Y-52222666D01*
X47224010Y-52215445D01*
X47199356Y-52207434D01*
X47147325Y-52184268D01*
X47124878Y-52171308D01*
X47078777Y-52137815D01*
X47059514Y-52120472D01*
X47021397Y-52078139D01*
X47006162Y-52057169D01*
X47001589Y-52049248D01*
X46977676Y-52007829D01*
X46967136Y-51984155D01*
X46949530Y-51929972D01*
X46944141Y-51904617D01*
X46941842Y-51882747D01*
X46938186Y-51847956D01*
X46938186Y-51822035D01*
X46938584Y-51818257D01*
X46944141Y-51765376D01*
X46949531Y-51740023D01*
X46965064Y-51692216D01*
X46967133Y-51685847D01*
X46977671Y-51662176D01*
X47014213Y-51598883D01*
X47023026Y-51585660D01*
X47050570Y-51549588D01*
X47072173Y-51515972D01*
X47110646Y-51443891D01*
X47148548Y-51305092D01*
X47157174Y-51235758D01*
X47157175Y-51235758D01*
X47157175Y-51235749D01*
X47154435Y-51091895D01*
X47154434Y-51091891D01*
X47154434Y-51091890D01*
X47111282Y-50954651D01*
X47111279Y-50954646D01*
X47111278Y-50954640D01*
X47081048Y-50891648D01*
X47050367Y-50845849D01*
X46998507Y-50768433D01*
X46998563Y-50768395D01*
X46992117Y-50758823D01*
X46975583Y-50730185D01*
X46962675Y-50707827D01*
X46952135Y-50684154D01*
X46934529Y-50629969D01*
X46929142Y-50604625D01*
X46923186Y-50547956D01*
X46923186Y-50522037D01*
X46929141Y-50465374D01*
X46934528Y-50440032D01*
X46952135Y-50385841D01*
X46962672Y-50362176D01*
X46991165Y-50312824D01*
X47006392Y-50291866D01*
X47044519Y-50249521D01*
X47063771Y-50232185D01*
X47109877Y-50198687D01*
X47132312Y-50185736D01*
X47184357Y-50162563D01*
X47208999Y-50154556D01*
X47264743Y-50142708D01*
X47290514Y-50140000D01*
X47347484Y-50140000D01*
X47373264Y-50142709D01*
G37*
G04 #@! TD.AperFunction*
G04 #@! TA.AperFunction,Conductor*
G36*
X86911279Y-49010154D02*
G01*
X86911282Y-49010156D01*
X86970892Y-49016565D01*
X87211926Y-49016564D01*
X87278966Y-49036248D01*
X87324721Y-49089052D01*
X87335927Y-49140564D01*
X87335927Y-49410351D01*
X87335928Y-49410358D01*
X87343165Y-49477678D01*
X87340684Y-49477944D01*
X87340686Y-49504547D01*
X87343165Y-49504814D01*
X87335928Y-49572126D01*
X87335927Y-49572145D01*
X87335927Y-49910352D01*
X87335928Y-49910357D01*
X87343165Y-49977677D01*
X87340684Y-49977943D01*
X87340686Y-50004547D01*
X87343165Y-50004814D01*
X87342336Y-50012526D01*
X87335928Y-50072132D01*
X87335927Y-50072145D01*
X87335927Y-50410352D01*
X87335928Y-50410359D01*
X87343165Y-50477679D01*
X87340684Y-50477945D01*
X87340686Y-50504548D01*
X87343165Y-50504815D01*
X87335928Y-50572127D01*
X87335927Y-50572147D01*
X87335927Y-50841927D01*
X87316242Y-50908966D01*
X87263438Y-50954721D01*
X87211928Y-50965927D01*
X86970894Y-50965927D01*
X86970887Y-50965928D01*
X86903568Y-50973165D01*
X86903300Y-50970679D01*
X86876701Y-50970671D01*
X86876433Y-50973166D01*
X86868722Y-50972337D01*
X86868720Y-50972336D01*
X86809110Y-50965927D01*
X86809100Y-50965927D01*
X86470893Y-50965927D01*
X86470888Y-50965928D01*
X86403569Y-50973165D01*
X86403303Y-50970693D01*
X86376699Y-50970677D01*
X86376432Y-50973165D01*
X86309119Y-50965928D01*
X86309110Y-50965927D01*
X86309100Y-50965927D01*
X85970893Y-50965927D01*
X85970886Y-50965928D01*
X85903567Y-50973165D01*
X85903299Y-50970679D01*
X85876700Y-50970671D01*
X85876432Y-50973166D01*
X85868721Y-50972337D01*
X85868719Y-50972336D01*
X85809109Y-50965927D01*
X85809100Y-50965927D01*
X85568072Y-50965927D01*
X85501033Y-50946242D01*
X85455278Y-50893438D01*
X85444072Y-50841930D01*
X85444072Y-50572138D01*
X85437664Y-50512527D01*
X85437662Y-50512523D01*
X85436834Y-50504815D01*
X85439372Y-50504542D01*
X85439401Y-50477956D01*
X85436834Y-50477680D01*
X85437662Y-50469968D01*
X85437664Y-50469966D01*
X85444073Y-50410356D01*
X85444072Y-50072137D01*
X85437664Y-50012526D01*
X85436835Y-50004813D01*
X85439411Y-50004535D01*
X85439429Y-49977957D01*
X85436834Y-49977679D01*
X85437662Y-49969969D01*
X85437664Y-49969966D01*
X85444073Y-49910356D01*
X85444072Y-49572137D01*
X85437664Y-49512526D01*
X85437662Y-49512522D01*
X85436834Y-49504814D01*
X85439372Y-49504541D01*
X85439401Y-49477955D01*
X85436834Y-49477679D01*
X85437662Y-49469967D01*
X85437664Y-49469965D01*
X85444073Y-49410355D01*
X85444072Y-49140563D01*
X85463756Y-49073525D01*
X85516560Y-49027770D01*
X85568068Y-49016564D01*
X85809109Y-49016564D01*
X85868720Y-49010156D01*
X85868723Y-49010154D01*
X85876432Y-49009326D01*
X85876706Y-49011883D01*
X85903293Y-49011874D01*
X85903567Y-49009326D01*
X85911278Y-49010154D01*
X85911281Y-49010156D01*
X85970891Y-49016565D01*
X86309110Y-49016564D01*
X86368721Y-49010156D01*
X86368720Y-49010156D01*
X86376434Y-49009327D01*
X86376711Y-49011912D01*
X86403290Y-49011911D01*
X86403568Y-49009326D01*
X86411277Y-49010154D01*
X86411281Y-49010156D01*
X86470891Y-49016565D01*
X86809110Y-49016564D01*
X86868721Y-49010156D01*
X86868724Y-49010154D01*
X86876433Y-49009326D01*
X86876707Y-49011883D01*
X86903294Y-49011874D01*
X86903568Y-49009326D01*
X86911279Y-49010154D01*
G37*
G04 #@! TD.AperFunction*
G04 #@! TA.AperFunction,Conductor*
G36*
X80366087Y-47875185D02*
G01*
X80386729Y-47891819D01*
X80671038Y-48176129D01*
X80704523Y-48237452D01*
X80706678Y-48250848D01*
X80712638Y-48307547D01*
X80724326Y-48418756D01*
X80724327Y-48418759D01*
X80782818Y-48598777D01*
X80782821Y-48598784D01*
X80877467Y-48762716D01*
X80963067Y-48857784D01*
X81004129Y-48903388D01*
X81157265Y-49014648D01*
X81157270Y-49014651D01*
X81330192Y-49091642D01*
X81330197Y-49091644D01*
X81515354Y-49131000D01*
X81515355Y-49131000D01*
X81521822Y-49131680D01*
X81521612Y-49133675D01*
X81579539Y-49150685D01*
X81625294Y-49203489D01*
X81636500Y-49255000D01*
X81636500Y-49358606D01*
X81636556Y-49359175D01*
X81636500Y-49359470D01*
X81636500Y-49364694D01*
X81635509Y-49364694D01*
X81623536Y-49427821D01*
X81575469Y-49478530D01*
X81507618Y-49495202D01*
X81462718Y-49484606D01*
X81449802Y-49478855D01*
X81304001Y-49447865D01*
X81264646Y-49439500D01*
X81075354Y-49439500D01*
X81042897Y-49446398D01*
X80890197Y-49478855D01*
X80890192Y-49478857D01*
X80717270Y-49555848D01*
X80717265Y-49555851D01*
X80564130Y-49667110D01*
X80564126Y-49667114D01*
X80558400Y-49673474D01*
X80498913Y-49710121D01*
X80466252Y-49714500D01*
X80190452Y-49714500D01*
X80123413Y-49694815D01*
X80102771Y-49678181D01*
X79641819Y-49217229D01*
X79608334Y-49155906D01*
X79605500Y-49129548D01*
X79605500Y-48718392D01*
X79602882Y-48705232D01*
X79600499Y-48681039D01*
X79600499Y-48282129D01*
X79600498Y-48282123D01*
X79599707Y-48274766D01*
X79594091Y-48222517D01*
X79593010Y-48219620D01*
X79543797Y-48087671D01*
X79543795Y-48087668D01*
X79518450Y-48053811D01*
X79494033Y-47988346D01*
X79508885Y-47920074D01*
X79558290Y-47870668D01*
X79617717Y-47855500D01*
X80299048Y-47855500D01*
X80366087Y-47875185D01*
G37*
G04 #@! TD.AperFunction*
G04 #@! TA.AperFunction,Conductor*
G36*
X92929035Y-44308068D02*
G01*
X92984968Y-44349940D01*
X93009385Y-44415404D01*
X93009022Y-44437209D01*
X93005730Y-44468535D01*
X92994728Y-44573216D01*
X92994540Y-44575000D01*
X93014326Y-44763256D01*
X93015260Y-44766130D01*
X93072818Y-44943277D01*
X93072821Y-44943284D01*
X93167467Y-45107216D01*
X93274285Y-45225849D01*
X93294129Y-45247888D01*
X93447265Y-45359148D01*
X93447270Y-45359151D01*
X93620192Y-45436142D01*
X93620197Y-45436144D01*
X93805354Y-45475500D01*
X93805355Y-45475500D01*
X93994644Y-45475500D01*
X93994646Y-45475500D01*
X94179803Y-45436144D01*
X94352730Y-45359151D01*
X94505871Y-45247888D01*
X94508788Y-45244647D01*
X94511600Y-45241526D01*
X94571087Y-45204879D01*
X94603748Y-45200500D01*
X94801345Y-45200500D01*
X94868384Y-45220185D01*
X94914139Y-45272989D01*
X94924083Y-45342147D01*
X94920321Y-45359438D01*
X94915331Y-45376430D01*
X94894854Y-45518854D01*
X94894854Y-49531291D01*
X94875169Y-49598330D01*
X94822365Y-49644085D01*
X94771607Y-49655289D01*
X92162253Y-49671135D01*
X92095095Y-49651858D01*
X92049021Y-49599332D01*
X92037500Y-49547137D01*
X92037500Y-45148451D01*
X92057185Y-45081412D01*
X92073814Y-45060775D01*
X92798021Y-44336568D01*
X92859343Y-44303084D01*
X92929035Y-44308068D01*
G37*
G04 #@! TD.AperFunction*
G04 #@! TA.AperFunction,Conductor*
G36*
X64220703Y-45155739D02*
G01*
X64227181Y-45161771D01*
X64911016Y-45845606D01*
X64911045Y-45845637D01*
X65001262Y-45935854D01*
X65001265Y-45935856D01*
X65001267Y-45935858D01*
X65046152Y-45965849D01*
X65103715Y-46004312D01*
X65103717Y-46004313D01*
X65103716Y-46004313D01*
X65126557Y-46013773D01*
X65156090Y-46026006D01*
X65156091Y-46026007D01*
X65156092Y-46026007D01*
X65217548Y-46051463D01*
X65252389Y-46058393D01*
X65338391Y-46075499D01*
X65338392Y-46075500D01*
X68294344Y-46075500D01*
X68361383Y-46095185D01*
X68407138Y-46147989D01*
X68417082Y-46217147D01*
X68388057Y-46280703D01*
X68364106Y-46300003D01*
X68364769Y-46300888D01*
X68242455Y-46392452D01*
X68242452Y-46392455D01*
X68156206Y-46507664D01*
X68156202Y-46507671D01*
X68105908Y-46642517D01*
X68099501Y-46702116D01*
X68099500Y-46702127D01*
X68099500Y-46964547D01*
X68079815Y-47031586D01*
X68063181Y-47052228D01*
X67801270Y-47314139D01*
X67801267Y-47314142D01*
X67772521Y-47342888D01*
X67714142Y-47401266D01*
X67707543Y-47411143D01*
X67684019Y-47446349D01*
X67645688Y-47503714D01*
X67645686Y-47503716D01*
X67645686Y-47503718D01*
X67645685Y-47503719D01*
X67615712Y-47576083D01*
X67598538Y-47617543D01*
X67598535Y-47617553D01*
X67586830Y-47676394D01*
X67586831Y-47676395D01*
X67578984Y-47715852D01*
X67578983Y-47715860D01*
X67574500Y-47738394D01*
X67574500Y-47825500D01*
X67554815Y-47892539D01*
X67502011Y-47938294D01*
X67450500Y-47949500D01*
X66352129Y-47949500D01*
X66352123Y-47949501D01*
X66292516Y-47955908D01*
X66157671Y-48006202D01*
X66157664Y-48006206D01*
X66042455Y-48092452D01*
X66042452Y-48092455D01*
X65956206Y-48207664D01*
X65956204Y-48207668D01*
X65956204Y-48207669D01*
X65952039Y-48218834D01*
X65910171Y-48274766D01*
X65844707Y-48299184D01*
X65835859Y-48299500D01*
X65234500Y-48299500D01*
X65167461Y-48279815D01*
X65121706Y-48227011D01*
X65110500Y-48175500D01*
X65110500Y-48005315D01*
X65110499Y-48005300D01*
X65109857Y-47997147D01*
X65107643Y-47969005D01*
X65105866Y-47962890D01*
X65069665Y-47838284D01*
X65062494Y-47813603D01*
X64980117Y-47674311D01*
X64980115Y-47674309D01*
X64980112Y-47674305D01*
X64865692Y-47559885D01*
X64865684Y-47559879D01*
X64726393Y-47477503D01*
X64726390Y-47477502D01*
X64570997Y-47432355D01*
X64570991Y-47432354D01*
X64534697Y-47429498D01*
X64534690Y-47429498D01*
X64139500Y-47429498D01*
X64072461Y-47409813D01*
X64026706Y-47357009D01*
X64015500Y-47305498D01*
X64015500Y-45249452D01*
X64035185Y-45182413D01*
X64087989Y-45136658D01*
X64157147Y-45126714D01*
X64220703Y-45155739D01*
G37*
G04 #@! TD.AperFunction*
G04 #@! TA.AperFunction,Conductor*
G36*
X46146067Y-47874440D02*
G01*
X46137323Y-47875411D01*
X46132193Y-47874503D01*
X46146071Y-47874439D01*
X46146067Y-47874440D01*
G37*
G04 #@! TD.AperFunction*
G04 #@! TA.AperFunction,Conductor*
G36*
X46024704Y-47822730D02*
G01*
X46017220Y-47815810D01*
X45999642Y-47752089D01*
X46002214Y-43842001D01*
X46024704Y-47822730D01*
G37*
G04 #@! TD.AperFunction*
G04 #@! TA.AperFunction,Conductor*
G36*
X83841018Y-38395185D02*
G01*
X83886773Y-38447989D01*
X83896717Y-38517147D01*
X83892365Y-38536388D01*
X83852585Y-38664050D01*
X83848325Y-38710933D01*
X83846171Y-38734632D01*
X83846171Y-39030793D01*
X83826486Y-39097832D01*
X83809852Y-39118474D01*
X81863269Y-41065057D01*
X81863267Y-41065059D01*
X81819704Y-41108621D01*
X81776142Y-41152183D01*
X81755917Y-41182453D01*
X81755916Y-41182454D01*
X81707690Y-41254626D01*
X81707688Y-41254630D01*
X81707688Y-41254631D01*
X81677274Y-41328058D01*
X81660537Y-41368463D01*
X81660535Y-41368471D01*
X81652089Y-41410929D01*
X81652090Y-41410930D01*
X81637631Y-41483627D01*
X81637629Y-41483634D01*
X81636500Y-41489308D01*
X81636500Y-47073047D01*
X81616815Y-47140086D01*
X81564011Y-47185841D01*
X81494853Y-47195785D01*
X81431297Y-47166760D01*
X81424819Y-47160728D01*
X81102428Y-46838338D01*
X81102425Y-46838334D01*
X81102425Y-46838335D01*
X81095358Y-46831268D01*
X81095358Y-46831267D01*
X81008233Y-46744142D01*
X81008232Y-46744141D01*
X81008231Y-46744140D01*
X80945355Y-46702128D01*
X80905786Y-46675688D01*
X80905787Y-46675688D01*
X80905785Y-46675687D01*
X80861170Y-46657208D01*
X80825292Y-46642347D01*
X80791952Y-46628537D01*
X80791948Y-46628536D01*
X80791944Y-46628535D01*
X80728202Y-46615856D01*
X80728201Y-46615856D01*
X80671111Y-46604500D01*
X80671107Y-46604500D01*
X80671106Y-46604500D01*
X79724500Y-46604500D01*
X79657461Y-46584815D01*
X79611706Y-46532011D01*
X79600500Y-46480501D01*
X79600499Y-46278962D01*
X79602882Y-46254766D01*
X79603930Y-46249501D01*
X79605500Y-46241607D01*
X79605500Y-46118393D01*
X79602882Y-46105231D01*
X79600499Y-46081038D01*
X79600499Y-45682129D01*
X79600498Y-45682123D01*
X79598774Y-45666086D01*
X79596210Y-45642228D01*
X79595500Y-45628975D01*
X79595500Y-44878687D01*
X79615185Y-44811648D01*
X79627350Y-44795715D01*
X79656576Y-44763256D01*
X79702533Y-44712216D01*
X79797179Y-44548284D01*
X79855674Y-44368256D01*
X79875460Y-44180000D01*
X79855674Y-43991744D01*
X79797179Y-43811716D01*
X79702533Y-43647784D01*
X79575871Y-43507112D01*
X79567833Y-43501272D01*
X79422734Y-43395851D01*
X79422729Y-43395848D01*
X79249807Y-43318857D01*
X79249802Y-43318855D01*
X79103845Y-43287832D01*
X79064646Y-43279500D01*
X78875354Y-43279500D01*
X78842897Y-43286398D01*
X78690197Y-43318855D01*
X78690192Y-43318857D01*
X78517270Y-43395848D01*
X78517265Y-43395851D01*
X78364135Y-43507106D01*
X78364128Y-43507113D01*
X78348953Y-43523965D01*
X78289466Y-43560612D01*
X78219609Y-43559279D01*
X78187917Y-43544093D01*
X78132571Y-43507113D01*
X78132569Y-43507112D01*
X78110021Y-43492046D01*
X78087785Y-43477187D01*
X78031939Y-43454056D01*
X77986136Y-43435084D01*
X77986135Y-43435083D01*
X77973952Y-43430037D01*
X77973949Y-43430036D01*
X77973945Y-43430035D01*
X77908729Y-43417063D01*
X77908728Y-43417063D01*
X77853111Y-43406000D01*
X77853107Y-43406000D01*
X77853106Y-43406000D01*
X77603748Y-43406000D01*
X77536709Y-43386315D01*
X77511600Y-43364974D01*
X77505873Y-43358614D01*
X77505869Y-43358610D01*
X77352734Y-43247351D01*
X77352729Y-43247348D01*
X77179807Y-43170357D01*
X77179802Y-43170355D01*
X77022554Y-43136932D01*
X76994646Y-43131000D01*
X76805354Y-43131000D01*
X76777446Y-43136932D01*
X76620197Y-43170355D01*
X76620192Y-43170357D01*
X76447270Y-43247348D01*
X76447265Y-43247351D01*
X76294129Y-43358611D01*
X76167466Y-43499285D01*
X76072821Y-43663215D01*
X76072818Y-43663222D01*
X76016558Y-43836375D01*
X76014326Y-43843244D01*
X75997801Y-44000474D01*
X75995640Y-44021035D01*
X75969055Y-44085649D01*
X75911758Y-44125634D01*
X75841939Y-44128294D01*
X75821884Y-44121353D01*
X75729802Y-44080355D01*
X75583511Y-44049261D01*
X75544646Y-44041000D01*
X75355354Y-44041000D01*
X75322897Y-44047898D01*
X75170197Y-44080355D01*
X75170192Y-44080357D01*
X74997270Y-44157348D01*
X74997265Y-44157351D01*
X74844129Y-44268611D01*
X74717466Y-44409285D01*
X74622821Y-44573215D01*
X74622818Y-44573222D01*
X74564327Y-44753240D01*
X74564326Y-44753244D01*
X74544540Y-44941500D01*
X74564326Y-45129756D01*
X74564327Y-45129759D01*
X74622818Y-45309777D01*
X74622821Y-45309784D01*
X74717467Y-45473716D01*
X74743118Y-45502204D01*
X74844129Y-45614388D01*
X74915285Y-45666086D01*
X74957951Y-45721416D01*
X74963930Y-45791029D01*
X74949788Y-45828403D01*
X74894364Y-45924401D01*
X74887753Y-45935854D01*
X74881530Y-45946632D01*
X74830963Y-45994848D01*
X74762356Y-46008072D01*
X74697491Y-45982104D01*
X74668605Y-45949732D01*
X74632968Y-45891956D01*
X74513044Y-45772032D01*
X74513040Y-45772029D01*
X74368705Y-45683001D01*
X74368699Y-45682998D01*
X74368697Y-45682997D01*
X74317663Y-45666086D01*
X74207709Y-45629651D01*
X74108346Y-45619500D01*
X73511662Y-45619500D01*
X73511644Y-45619501D01*
X73412292Y-45629650D01*
X73412289Y-45629651D01*
X73251305Y-45682996D01*
X73251298Y-45682999D01*
X73183495Y-45724820D01*
X73116102Y-45743259D01*
X73067965Y-45732560D01*
X72969802Y-45688855D01*
X72824001Y-45657865D01*
X72784646Y-45649500D01*
X72595354Y-45649500D01*
X72566961Y-45655535D01*
X72410197Y-45688855D01*
X72410192Y-45688857D01*
X72237270Y-45765848D01*
X72237265Y-45765851D01*
X72084129Y-45877111D01*
X71957466Y-46017785D01*
X71862821Y-46181715D01*
X71862818Y-46181722D01*
X71804327Y-46361740D01*
X71804326Y-46361744D01*
X71787816Y-46518831D01*
X71784540Y-46550002D01*
X71784540Y-46552789D01*
X71784083Y-46554342D01*
X71783861Y-46556463D01*
X71783473Y-46556422D01*
X71764855Y-46619828D01*
X71712051Y-46665583D01*
X71642893Y-46675527D01*
X71613088Y-46667350D01*
X71518917Y-46628343D01*
X71518907Y-46628340D01*
X71373920Y-46599500D01*
X71373918Y-46599500D01*
X70564141Y-46599500D01*
X70497102Y-46579815D01*
X70451347Y-46527011D01*
X70447969Y-46518859D01*
X70443796Y-46507669D01*
X70443793Y-46507665D01*
X70443793Y-46507664D01*
X70357547Y-46392455D01*
X70357544Y-46392452D01*
X70235231Y-46300888D01*
X70236752Y-46298855D01*
X70196823Y-46258925D01*
X70181972Y-46190652D01*
X70206390Y-46125188D01*
X70262324Y-46083318D01*
X70305656Y-46075500D01*
X71319540Y-46075500D01*
X71319540Y-46075499D01*
X71405543Y-46058393D01*
X71405544Y-46058393D01*
X71417262Y-46056061D01*
X71440384Y-46051463D01*
X71483234Y-46033714D01*
X71554218Y-46004312D01*
X71611780Y-45965849D01*
X71656665Y-45935858D01*
X71743790Y-45848733D01*
X71743790Y-45848731D01*
X71753998Y-45838524D01*
X71753999Y-45838521D01*
X79180704Y-38411819D01*
X79242027Y-38378334D01*
X79268385Y-38375500D01*
X83773979Y-38375500D01*
X83841018Y-38395185D01*
G37*
G04 #@! TD.AperFunction*
G04 #@! TA.AperFunction,Conductor*
G36*
X83816337Y-42463682D02*
G01*
X83872271Y-42505553D01*
X83891389Y-42542973D01*
X83892247Y-42545725D01*
X83903193Y-42580852D01*
X83982057Y-42711308D01*
X83991201Y-42726434D01*
X84111482Y-42846715D01*
X84111484Y-42846716D01*
X84111486Y-42846718D01*
X84257065Y-42934724D01*
X84419475Y-42985332D01*
X84490055Y-42991746D01*
X84570500Y-42991746D01*
X84637539Y-43011431D01*
X84683294Y-43064235D01*
X84694500Y-43115746D01*
X84694500Y-46344544D01*
X84674815Y-46411583D01*
X84658185Y-46432220D01*
X84524224Y-46566182D01*
X84462904Y-46599666D01*
X84436545Y-46602500D01*
X83470393Y-46602500D01*
X83423689Y-46611789D01*
X83354097Y-46605560D01*
X83298921Y-46562696D01*
X83275678Y-46496806D01*
X83275500Y-46490171D01*
X83275500Y-42953369D01*
X83295185Y-42886330D01*
X83311819Y-42865688D01*
X83467007Y-42710500D01*
X83685325Y-42492181D01*
X83746646Y-42458698D01*
X83816337Y-42463682D01*
G37*
G04 #@! TD.AperFunction*
G04 #@! TA.AperFunction,Conductor*
G36*
X94611787Y-32053820D02*
G01*
X94678803Y-32073579D01*
X94724499Y-32126434D01*
X94735646Y-32177129D01*
X94763821Y-37229809D01*
X94744511Y-37296957D01*
X94691963Y-37343005D01*
X94639823Y-37354500D01*
X91840452Y-37354500D01*
X91773413Y-37334815D01*
X91752771Y-37318181D01*
X90690198Y-36255608D01*
X90690178Y-36255586D01*
X90598733Y-36164141D01*
X90547509Y-36129915D01*
X90496286Y-36095688D01*
X90404776Y-36057784D01*
X90404774Y-36057782D01*
X90382456Y-36048538D01*
X90382452Y-36048537D01*
X90286749Y-36029501D01*
X90261607Y-36024500D01*
X89453748Y-36024500D01*
X89386709Y-36004815D01*
X89361600Y-35983474D01*
X89355873Y-35977114D01*
X89355869Y-35977110D01*
X89202734Y-35865851D01*
X89202729Y-35865848D01*
X89029807Y-35788857D01*
X89029802Y-35788855D01*
X88884001Y-35757865D01*
X88844646Y-35749500D01*
X88655354Y-35749500D01*
X88622897Y-35756398D01*
X88470197Y-35788855D01*
X88470192Y-35788857D01*
X88297270Y-35865848D01*
X88297265Y-35865851D01*
X88144129Y-35977111D01*
X88017466Y-36117785D01*
X87922821Y-36281715D01*
X87922818Y-36281722D01*
X87872415Y-36436848D01*
X87864326Y-36461744D01*
X87844540Y-36650000D01*
X87864326Y-36838256D01*
X87864327Y-36838259D01*
X87904592Y-36962182D01*
X87906587Y-37032023D01*
X87870507Y-37091856D01*
X87807806Y-37122684D01*
X87786661Y-37124500D01*
X79019538Y-37124500D01*
X78896325Y-37124500D01*
X78807259Y-37142216D01*
X78807258Y-37142215D01*
X78775486Y-37148535D01*
X78775477Y-37148538D01*
X78661648Y-37195687D01*
X78578175Y-37251463D01*
X78578174Y-37251464D01*
X78559195Y-37264144D01*
X78559194Y-37264145D01*
X71035161Y-44788181D01*
X70973838Y-44821666D01*
X70947480Y-44824500D01*
X69648898Y-44824500D01*
X69581859Y-44804815D01*
X69536104Y-44752011D01*
X69524898Y-44700769D01*
X69524891Y-44697857D01*
X69524854Y-44680470D01*
X69524853Y-44680454D01*
X69516729Y-44591297D01*
X69516724Y-44591261D01*
X69512485Y-44567908D01*
X69508908Y-44548206D01*
X69487005Y-44468535D01*
X69485167Y-44461848D01*
X69485164Y-44461839D01*
X69482818Y-44455550D01*
X69475000Y-44412217D01*
X69475000Y-43967780D01*
X69482441Y-43926545D01*
X69482198Y-43926467D01*
X69482782Y-43924654D01*
X69482822Y-43924437D01*
X69483051Y-43923823D01*
X69483054Y-43923816D01*
X69506989Y-43836383D01*
X69514807Y-43792782D01*
X69522741Y-43702473D01*
X69520715Y-42764373D01*
X69520714Y-42764357D01*
X69512590Y-42675200D01*
X69512585Y-42675164D01*
X69504771Y-42632118D01*
X69504769Y-42632109D01*
X69481025Y-42545742D01*
X69481019Y-42545725D01*
X69481009Y-42545692D01*
X69481006Y-42545678D01*
X69480295Y-42543089D01*
X69480586Y-42543008D01*
X69475000Y-42507560D01*
X69475000Y-42060924D01*
X69479401Y-42028183D01*
X69481517Y-42020452D01*
X69502898Y-41942351D01*
X69510716Y-41898750D01*
X69518650Y-41808442D01*
X69516199Y-40673141D01*
X69504530Y-40566240D01*
X69503360Y-40560892D01*
X69500499Y-40534407D01*
X69500499Y-40452129D01*
X69500498Y-40452123D01*
X69494091Y-40392516D01*
X69443797Y-40257671D01*
X69443793Y-40257664D01*
X69357547Y-40142455D01*
X69357544Y-40142452D01*
X69242335Y-40056206D01*
X69242328Y-40056202D01*
X69107486Y-40005910D01*
X69107485Y-40005909D01*
X69107483Y-40005909D01*
X69047873Y-39999500D01*
X69047863Y-39999500D01*
X68602129Y-39999500D01*
X68602123Y-39999501D01*
X68542520Y-40005908D01*
X68534974Y-40007692D01*
X68534628Y-40006230D01*
X68473622Y-40010584D01*
X68458600Y-40006172D01*
X68457482Y-40005908D01*
X68397883Y-39999501D01*
X68397881Y-39999500D01*
X68397873Y-39999500D01*
X68397865Y-39999500D01*
X68093588Y-39999500D01*
X68026549Y-39979815D01*
X68016218Y-39972401D01*
X68006712Y-39964811D01*
X67966605Y-39907599D01*
X67961344Y-39850265D01*
X67980001Y-39720499D01*
X67980001Y-39624499D01*
X67999686Y-39557460D01*
X68052490Y-39511705D01*
X68104001Y-39500499D01*
X68397871Y-39500499D01*
X68397872Y-39500499D01*
X68457483Y-39494091D01*
X68592331Y-39443796D01*
X68707546Y-39357546D01*
X68725733Y-39333250D01*
X68781666Y-39291379D01*
X68851358Y-39286395D01*
X68912681Y-39319880D01*
X68924267Y-39333251D01*
X68942454Y-39357546D01*
X68942455Y-39357547D01*
X69057664Y-39443793D01*
X69057671Y-39443797D01*
X69102618Y-39460561D01*
X69192517Y-39494091D01*
X69252127Y-39500500D01*
X69697872Y-39500499D01*
X69757483Y-39494091D01*
X69892331Y-39443796D01*
X70007546Y-39357546D01*
X70093796Y-39242331D01*
X70144091Y-39107483D01*
X70147683Y-39074068D01*
X70174420Y-39009521D01*
X70178241Y-39005003D01*
X70179696Y-39003362D01*
X70179709Y-39003350D01*
X70179713Y-39003346D01*
X70268653Y-38890248D01*
X70268658Y-38890238D01*
X70271135Y-38886581D01*
X70271518Y-38886840D01*
X70282396Y-38871861D01*
X70320521Y-38829518D01*
X70339770Y-38812186D01*
X70385871Y-38778692D01*
X70408311Y-38765736D01*
X70460364Y-38742560D01*
X70485008Y-38734553D01*
X70596133Y-38710933D01*
X70600714Y-38711282D01*
X70618367Y-38706427D01*
X70625479Y-38704695D01*
X70638198Y-38701991D01*
X70650080Y-38697705D01*
X70674040Y-38691115D01*
X70674045Y-38691113D01*
X70675380Y-38690746D01*
X70676925Y-38690060D01*
X70751635Y-38662771D01*
X70872392Y-38584546D01*
X70925030Y-38538600D01*
X70925032Y-38538598D01*
X71018859Y-38429519D01*
X71078153Y-38298425D01*
X71097594Y-38231315D01*
X71117554Y-38088829D01*
X71117174Y-37983940D01*
X71106411Y-37881999D01*
X71096140Y-37833032D01*
X71065030Y-37735353D01*
X71065029Y-37735352D01*
X71065029Y-37735350D01*
X70989498Y-37612899D01*
X70989495Y-37612895D01*
X70944724Y-37559253D01*
X70944723Y-37559252D01*
X70944719Y-37559248D01*
X70944718Y-37559247D01*
X70837747Y-37463035D01*
X70822537Y-37455746D01*
X70707996Y-37400855D01*
X70707988Y-37400852D01*
X70707987Y-37400852D01*
X70641336Y-37379935D01*
X70641328Y-37379933D01*
X70499330Y-37356828D01*
X70499324Y-37356827D01*
X70356561Y-37374664D01*
X70356545Y-37374667D01*
X70290508Y-37392737D01*
X70289368Y-37393035D01*
X70289168Y-37393103D01*
X70157191Y-37450449D01*
X70153271Y-37452497D01*
X70153020Y-37452017D01*
X70134850Y-37460304D01*
X70109499Y-37468704D01*
X70070498Y-37474998D01*
X69685950Y-37474998D01*
X69618911Y-37455313D01*
X69598269Y-37438679D01*
X69421319Y-37261729D01*
X69387834Y-37200406D01*
X69385000Y-37174048D01*
X69385000Y-36739504D01*
X69391293Y-36700504D01*
X69391802Y-36698964D01*
X69399694Y-36675149D01*
X69411858Y-36649062D01*
X69423648Y-36629947D01*
X69441499Y-36607372D01*
X69457373Y-36591498D01*
X69479943Y-36573650D01*
X69499062Y-36561857D01*
X69525143Y-36549696D01*
X69550504Y-36541293D01*
X69589504Y-36535000D01*
X69804549Y-36535000D01*
X69810795Y-36534665D01*
X69858586Y-36532103D01*
X69858593Y-36532102D01*
X69858597Y-36532102D01*
X69865590Y-36531349D01*
X69884944Y-36529269D01*
X69884954Y-36529267D01*
X69884957Y-36529267D01*
X69894556Y-36527711D01*
X69938356Y-36520614D01*
X70073165Y-36470332D01*
X70134488Y-36436847D01*
X70249669Y-36350623D01*
X70578480Y-36021812D01*
X70597487Y-36001736D01*
X70606542Y-35991632D01*
X70624448Y-35970517D01*
X70697572Y-35846604D01*
X70724157Y-35781989D01*
X70724158Y-35781986D01*
X70759409Y-35642491D01*
X70770141Y-35540374D01*
X70775528Y-35515032D01*
X70793135Y-35460841D01*
X70803676Y-35437169D01*
X70832163Y-35387827D01*
X70847392Y-35366865D01*
X70929785Y-35275359D01*
X70929784Y-35275358D01*
X70939200Y-35264902D01*
X70942010Y-35261883D01*
X70947160Y-35256537D01*
X70947162Y-35256532D01*
X70947251Y-35256441D01*
X70952827Y-35249770D01*
X70958243Y-35241676D01*
X70967066Y-35230316D01*
X71007068Y-35178817D01*
X71066362Y-35047723D01*
X71085803Y-34980612D01*
X71105762Y-34838125D01*
X71100001Y-33250000D01*
X91412220Y-33250000D01*
X91412220Y-36710000D01*
X94512220Y-36710000D01*
X94512220Y-33250000D01*
X91412220Y-33250000D01*
X71100001Y-33250000D01*
X71096019Y-32152341D01*
X71115459Y-32085234D01*
X71168097Y-32039288D01*
X71220149Y-32027895D01*
X94611787Y-32053820D01*
G37*
G04 #@! TD.AperFunction*
G04 #@! TA.AperFunction,Conductor*
G36*
X109212037Y-42625185D02*
G01*
X109257792Y-42677989D01*
X109268996Y-42728814D01*
X109275500Y-43903788D01*
X109256187Y-43970935D01*
X109203637Y-44016982D01*
X109151374Y-44028474D01*
X101144371Y-44020228D01*
X101077352Y-44000474D01*
X101031652Y-43947623D01*
X101020499Y-43896228D01*
X101020499Y-43650831D01*
X101020498Y-43650806D01*
X101017665Y-43614797D01*
X101017665Y-43614796D01*
X101011323Y-43592969D01*
X101005423Y-43572656D01*
X101000500Y-43538064D01*
X101000500Y-43136932D01*
X101005424Y-43102336D01*
X101017665Y-43060204D01*
X101020500Y-43024181D01*
X101020499Y-42729498D01*
X101040183Y-42662461D01*
X101092987Y-42616706D01*
X101144499Y-42605500D01*
X109144998Y-42605500D01*
X109212037Y-42625185D01*
G37*
G04 #@! TD.AperFunction*
G04 #@! TA.AperFunction,Conductor*
G36*
X97197540Y-42820185D02*
G01*
X97243295Y-42872989D01*
X97254501Y-42924500D01*
X97254501Y-42995500D01*
X97234816Y-43062539D01*
X97182012Y-43108294D01*
X97130501Y-43119500D01*
X96665302Y-43119500D01*
X96629008Y-43122356D01*
X96629002Y-43122357D01*
X96473609Y-43167504D01*
X96473606Y-43167505D01*
X96334318Y-43249879D01*
X96334306Y-43249888D01*
X96322956Y-43261238D01*
X96261631Y-43294720D01*
X96259477Y-43295168D01*
X96242555Y-43298534D01*
X96242546Y-43298537D01*
X96228994Y-43304151D01*
X96228993Y-43304151D01*
X96128718Y-43345685D01*
X96128714Y-43345687D01*
X96089771Y-43371710D01*
X96089769Y-43371711D01*
X96026268Y-43414140D01*
X95986353Y-43454056D01*
X95939142Y-43501267D01*
X95939139Y-43501270D01*
X95925005Y-43515404D01*
X95911631Y-43528778D01*
X95850307Y-43562262D01*
X95780615Y-43557276D01*
X95724683Y-43515404D01*
X95700631Y-43454060D01*
X95685674Y-43311744D01*
X95663091Y-43242244D01*
X95661097Y-43172405D01*
X95693339Y-43116250D01*
X95972772Y-42836816D01*
X96034094Y-42803334D01*
X96060452Y-42800500D01*
X97130501Y-42800500D01*
X97197540Y-42820185D01*
G37*
G04 #@! TD.AperFunction*
G04 #@! TA.AperFunction,Conductor*
G36*
X47824264Y-43387709D02*
G01*
X47824269Y-43387710D01*
X47890783Y-43401847D01*
X47890798Y-43401849D01*
X47890812Y-43401852D01*
X47944161Y-43410239D01*
X47944164Y-43410239D01*
X47944175Y-43410241D01*
X47970523Y-43412950D01*
X48010899Y-43414927D01*
X48024516Y-43415595D01*
X48024520Y-43415594D01*
X48024541Y-43415596D01*
X48481079Y-43413503D01*
X48532757Y-43410616D01*
X48557964Y-43407908D01*
X48609064Y-43399755D01*
X48665739Y-43387709D01*
X48691519Y-43385000D01*
X48748486Y-43385000D01*
X48774264Y-43387709D01*
X48820711Y-43397582D01*
X48874129Y-43405979D01*
X48900478Y-43408687D01*
X48954476Y-43411331D01*
X49510339Y-43408782D01*
X49562014Y-43405895D01*
X49587222Y-43403187D01*
X49628828Y-43396548D01*
X49648364Y-43395000D01*
X49714341Y-43395000D01*
X49733596Y-43396504D01*
X49735667Y-43396829D01*
X49767795Y-43401880D01*
X49794142Y-43404588D01*
X49848144Y-43407232D01*
X51300432Y-43400570D01*
X51300436Y-43400571D01*
X46125894Y-43424307D01*
X46125894Y-43424305D01*
X46130320Y-43424284D01*
X46130323Y-43424285D01*
X46617920Y-43422049D01*
X46669607Y-43419161D01*
X46674614Y-43418623D01*
X46694777Y-43416457D01*
X46694796Y-43416454D01*
X46694819Y-43416452D01*
X46726911Y-43411331D01*
X46745888Y-43408303D01*
X46745892Y-43408302D01*
X46745912Y-43408299D01*
X46795730Y-43397709D01*
X46821511Y-43395000D01*
X46878484Y-43395000D01*
X46904264Y-43397709D01*
X46944160Y-43406190D01*
X46997579Y-43414587D01*
X47023928Y-43417295D01*
X47077926Y-43419939D01*
X47510127Y-43417957D01*
X47561816Y-43415069D01*
X47587014Y-43412361D01*
X47587019Y-43412361D01*
X47587021Y-43412360D01*
X47587027Y-43412360D01*
X47638116Y-43404207D01*
X47715731Y-43387709D01*
X47741511Y-43385000D01*
X47798486Y-43385000D01*
X47824264Y-43387709D01*
G37*
G04 #@! TD.AperFunction*
G04 #@! TA.AperFunction,Conductor*
G36*
X65449497Y-38801294D02*
G01*
X65474847Y-38809694D01*
X65500941Y-38821862D01*
X65520044Y-38833645D01*
X65542625Y-38851499D01*
X65558496Y-38867369D01*
X65576353Y-38889951D01*
X65588136Y-38909053D01*
X65600302Y-38935142D01*
X65608705Y-38960503D01*
X65614999Y-38999503D01*
X65614999Y-39531269D01*
X65614357Y-39543875D01*
X65612992Y-39557232D01*
X65610331Y-39573055D01*
X65607064Y-39586920D01*
X65598737Y-39630918D01*
X65598737Y-39766773D01*
X65579052Y-39833812D01*
X65526248Y-39879567D01*
X65514088Y-39884363D01*
X65461540Y-39901947D01*
X65461539Y-39901948D01*
X65340663Y-39979996D01*
X65340662Y-39979997D01*
X65288957Y-40024994D01*
X65288094Y-40025728D01*
X65287952Y-40025868D01*
X65193967Y-40134807D01*
X65134475Y-40265821D01*
X65114938Y-40332893D01*
X65094769Y-40475357D01*
X65094769Y-40475358D01*
X65097610Y-41793806D01*
X65078070Y-41860888D01*
X65025364Y-41906756D01*
X64956227Y-41916849D01*
X64909118Y-41897791D01*
X64908363Y-41899101D01*
X64902729Y-41895848D01*
X64729807Y-41818857D01*
X64729802Y-41818855D01*
X64584001Y-41787865D01*
X64544646Y-41779500D01*
X64355354Y-41779500D01*
X64355352Y-41779500D01*
X64165281Y-41819900D01*
X64095614Y-41814584D01*
X64039881Y-41772446D01*
X64015776Y-41706866D01*
X64015501Y-41698610D01*
X64015501Y-41648391D01*
X64015500Y-41648389D01*
X63991465Y-41527558D01*
X63991463Y-41527551D01*
X63991463Y-41527549D01*
X63989059Y-41521746D01*
X63962467Y-41457546D01*
X63944312Y-41413715D01*
X63875858Y-41311267D01*
X63875855Y-41311263D01*
X63425190Y-40860599D01*
X63391705Y-40799276D01*
X63396689Y-40729585D01*
X63438560Y-40673651D01*
X63442677Y-40670850D01*
X63444567Y-40669356D01*
X63444576Y-40669351D01*
X63444577Y-40669350D01*
X63444605Y-40669325D01*
X63447361Y-40667149D01*
X63448871Y-40665769D01*
X63555088Y-40577215D01*
X63575521Y-40554520D01*
X63594773Y-40537184D01*
X63640876Y-40503689D01*
X63663305Y-40490739D01*
X63757254Y-40448911D01*
X63837966Y-40403710D01*
X63875211Y-40378112D01*
X63946333Y-40318960D01*
X64540623Y-39724671D01*
X64576788Y-39684409D01*
X64593422Y-39663767D01*
X64625067Y-39619883D01*
X64684838Y-39489006D01*
X64704523Y-39421967D01*
X64704524Y-39421963D01*
X64725000Y-39279547D01*
X64725000Y-38999503D01*
X64731293Y-38960504D01*
X64731802Y-38958964D01*
X64739696Y-38935146D01*
X64751858Y-38909062D01*
X64763648Y-38889947D01*
X64781499Y-38867372D01*
X64797373Y-38851498D01*
X64819943Y-38833650D01*
X64839062Y-38821857D01*
X64865143Y-38809696D01*
X64890504Y-38801293D01*
X64929504Y-38795000D01*
X65410494Y-38795000D01*
X65449497Y-38801294D01*
G37*
G04 #@! TD.AperFunction*
G04 #@! TA.AperFunction,Conductor*
G36*
X46167011Y-38999346D02*
G01*
X46142745Y-39001957D01*
X46129229Y-38999519D01*
X46167014Y-38999345D01*
X46167011Y-38999346D01*
G37*
G04 #@! TD.AperFunction*
G04 #@! TA.AperFunction,Conductor*
G36*
X46025000Y-38943958D02*
G01*
X46022843Y-38941951D01*
X46005480Y-38878590D01*
X46008576Y-34173267D01*
X46025000Y-34117471D01*
X46025000Y-38943958D01*
G37*
G04 #@! TD.AperFunction*
G04 #@! TA.AperFunction,Conductor*
G36*
X51325436Y-34025571D02*
G01*
X46132511Y-34049392D01*
X46132511Y-34049390D01*
X46136937Y-34049369D01*
X46136940Y-34049370D01*
X51325432Y-34025570D01*
X51325436Y-34025571D01*
G37*
G04 #@! TD.AperFunction*
M02*
